<?xml version="1.0" encoding="UTF-8"?>
<svg xmlns="http://www.w3.org/2000/svg" xmlns:xlink="http://www.w3.org/1999/xlink" version="1.2">
<font id="ArumSans Extrabold Italic">
<font-face font-family="ArumSans" units-per-em="1000" ascent="750" descent="-250" font-style="italic" font-weight="800" font-stretch="normal" cap-height="651" x-height="420" underline-position="-75" underline-thickness="50" />
<missing-glyph horiz-adv-x="202" d="M23 0 L179 0 L179 650 L23 650 L23 0 Z " />
<glyph glyph-name="NULL" d="" />
<glyph glyph-name="CR" unicode="&#xD;" horiz-adv-x="250" d="" />
<glyph glyph-name="space" unicode=" " horiz-adv-x="232" d="" />
<glyph glyph-name="exclam" unicode="!" horiz-adv-x="280" d="M173 190 L288 657 L125 650 L93 186 L173 190 Z M36 66 C36 23 72 -11 118 -11 C163 -11 198 23 198 66 C198 108 163 143 118 143 C72 143 36 108 36 66 L36 66 Z " />
<glyph glyph-name="quotedbl" unicode="&quot;" horiz-adv-x="418" d="M184 387 C224 596 258 703 258 703 L131 699 C131 699 141 588 100 379 L184 387 Z M360 387 C400 596 434 703 434 703 L307 699 C307 699 317 588 276 379 L360 387 Z " />
<glyph glyph-name="numbersign" unicode="#" horiz-adv-x="532" d="M383 446 L286 446 L346 614 L248 614 L188 446 L79 446 L64 367 L161 367 L122 254 L22 254 L7 175 L95 175 L34 -1 L129 -1 L192 175 L290 175 L229 -1 L322 -1 L384 175 L485 175 L500 254 L412 254 L452 367 L540 367 L555 446 L479 446 L539 614 L442 614 L383 446 Z M259 367 L356 367 L317 254 L219 254 L259 367 Z " />
<glyph glyph-name="dollar" unicode="$" horiz-adv-x="532" d="M482 207 C491 306 408 350 347 378 L375 524 C424 517 468 498 468 498 L511 586 C482 598 443 610 393 614 L412 710 L327 707 L309 613 C206 603 109 566 89 470 C65 356 164 305 234 277 L203 117 C130 125 62 169 62 169 L15 90 C15 90 91 36 185 21 L167 -72 L251 -69 L268 20 C369 38 471 91 482 207 L482 207 Z M220 461 C222 495 247 520 303 522 L281 408 C251 414 219 438 220 461 L220 461 Z M277 120 L301 249 C315 244 347 214 344 193 C338 150 314 126 277 120 L277 120 Z " />
<glyph glyph-name="percent" unicode="%" horiz-adv-x="871" d="M287 658 C225 658 116 614 86 491 C59 375 127 289 214 289 C302 289 402 355 423 472 C434 532 426 563 403 592 C484 593 600 596 600 596 L152 -1 L222 -38 L722 613 L691 667 C691 667 520 660 455 659 C401 658 311 658 294 658 L287 658 Z M680 357 C613 357 509 306 480 183 C452 67 506 -12 600 -12 C696 -12 785 54 810 171 C834 287 781 357 680 357 L680 357 Z M202 477 C219 565 255 595 276 595 C305 595 320 556 305 480 C288 396 256 354 228 354 C199 354 186 396 202 477 L202 477 Z M594 176 C611 265 647 294 666 294 C697 294 709 255 694 180 C678 95 647 54 619 54 C590 54 578 95 594 176 L594 176 Z " />
<glyph glyph-name="ampersand" unicode="&amp;" horiz-adv-x="711" d="M588 419 C588 419 575 290 501 228 C464 271 431 314 393 359 C451 393 508 425 521 499 C535 576 466 649 358 660 C252 671 157 623 142 514 C136 470 147 411 198 357 C133 330 50 298 23 207 C-2 122 33 8 194 -7 C281 -15 361 10 425 65 C456 32 503 -23 503 -23 L653 48 C653 48 596 114 553 165 C612 228 683 322 702 419 L588 419 Z M274 81 C216 81 159 97 171 191 C181 269 255 290 255 290 C301 236 342 179 387 126 C361 104 321 81 274 81 L274 81 Z M278 512 C279 559 315 587 362 580 C398 575 416 540 411 508 C403 457 364 431 335 418 C308 438 277 474 278 512 L278 512 Z " />
<glyph glyph-name="quotesingle" unicode="'" horiz-adv-x="221" d="M184 387 C224 596 258 703 258 703 L131 699 C131 699 141 588 100 379 L184 387 Z " />
<glyph glyph-name="parenleft" unicode="(" horiz-adv-x="374" d="M408 712 C408 712 157 611 98 310 C40 9 236 -137 236 -137 L296 -83 C296 -83 188 45 237 296 C286 547 441 653 441 653 L408 712 Z " />
<glyph glyph-name="parenright" unicode=")" horiz-adv-x="374" d="M138 712 L85 661 C85 661 175 547 126 296 C77 45 -62 -82 -62 -82 L-20 -137 C-20 -137 202 -24 260 277 C319 578 138 712 138 712 L138 712 Z " />
<glyph glyph-name="asterisk" unicode="*" horiz-adv-x="382" d="M186 466 L149 329 L217 329 L241 468 L336 374 L380 439 L272 516 L406 587 L373 648 L262 556 L289 705 L221 705 L203 559 L106 646 L62 587 L176 516 L39 441 L73 386 L186 466 Z " />
<glyph glyph-name="plus" unicode="+" horiz-adv-x="532" d="M332 92 L332 274 L511 274 L515 368 L332 368 L332 541 L234 539 L234 368 L49 368 L46 274 L234 274 L234 89 L332 92 Z " />
<glyph glyph-name="comma" unicode="," horiz-adv-x="272" d="M122 157 C77 158 31 131 29 74 C28 38 46 13 70 0 C77 -4 89 -7 81 -26 C60 -81 -24 -148 -24 -148 L15 -194 C98 -139 189 -71 209 33 C221 97 183 156 122 157 L122 157 Z " />
<glyph glyph-name="hyphen" unicode="-" horiz-adv-x="338" d="M302 200 L320 291 L54 291 L36 200 L302 200 Z " />
<glyph glyph-name="period" unicode="." horiz-adv-x="272" d="M34 72 C34 25 73 -12 123 -12 C172 -12 211 25 211 72 C211 118 172 156 123 156 C73 156 34 118 34 72 L34 72 Z " />
<glyph glyph-name="slash" unicode="/" horiz-adv-x="400" d="M43 -62 L485 680 L395 729 L-48 -12 L43 -62 Z " />
<glyph glyph-name="zero" unicode="0" horiz-adv-x="532" d="M503 305 C553 534 508 662 347 662 C222 662 81 561 33 346 C-4 180 -7 -12 189 -12 C318 -12 457 94 503 305 L503 305 Z M353 323 C314 134 275 80 221 80 C157 80 149 163 182 323 C225 532 267 572 317 572 C369 572 398 541 353 323 L353 323 Z " />
<glyph glyph-name="one" unicode="1" horiz-adv-x="532" d="M173 -12 L318 0 L447 672 L105 566 L124 482 L273 512 L173 -12 Z " />
<glyph glyph-name="two" unicode="2" horiz-adv-x="532" d="M108 533 C108 533 231 573 312 557 C352 549 388 523 380 457 C357 268 16 76 16 76 L32 0 L471 0 L481 93 L191 93 C191 93 475 264 510 418 C543 561 465 638 359 656 C245 675 87 623 87 623 L108 533 Z " />
<glyph glyph-name="three" unicode="3" horiz-adv-x="532" d="M127 542 C127 542 204 563 278 568 C335 572 385 543 375 489 C362 421 294 398 241 390 C201 384 189 385 189 385 L170 293 C170 293 209 294 225 294 C314 294 371 254 343 164 C325 105 271 86 216 86 C160 86 57 120 57 120 L27 28 C27 28 135 -11 231 -12 C369 -13 468 49 491 165 C509 257 451 336 335 347 C422 357 497 413 509 486 C531 621 406 661 317 659 C216 657 107 626 107 626 L127 542 Z " />
<glyph glyph-name="four" unicode="4" horiz-adv-x="532" d="M384 0 L420 170 L507 170 L523 253 L432 253 L513 650 L379 660 L3 245 L26 170 L277 170 L241 -7 L384 0 Z M344 506 L290 253 L135 253 L344 506 Z " />
<glyph glyph-name="five" unicode="5" horiz-adv-x="532" d="M324 561 L530 561 L547 651 L208 651 L124 365 L179 303 C179 303 233 333 284 326 C333 320 374 288 362 211 C347 113 281 94 207 93 C160 92 60 109 60 109 L31 26 C31 26 144 -10 221 -10 C389 -10 484 71 504 204 C520 310 461 422 299 422 C295 422 280 421 274 419 L324 561 Z " />
<glyph glyph-name="six" unicode="6" horiz-adv-x="532" d="M225 378 C277 482 363 560 447 602 C443 616 414 675 414 675 C193 580 74 417 37 255 C1 100 93 -2 215 -11 C338 -20 467 52 498 190 C525 310 452 405 334 405 C292 405 256 394 225 378 L225 378 Z M166 205 C181 281 239 306 275 308 C333 311 375 277 361 198 C345 108 288 83 246 86 C181 90 153 136 166 205 L166 205 Z " />
<glyph glyph-name="seven" unicode="7" horiz-adv-x="532" d="M70 562 L394 560 C159 314 78 -6 78 -6 L220 0 C301 358 511 562 511 562 L492 651 L81 651 L70 562 Z " />
<glyph glyph-name="eight" unicode="8" horiz-adv-x="532" d="M382 350 C417 364 495 410 508 493 C522 584 455 662 331 658 C227 655 132 598 113 506 C99 440 113 387 167 331 C122 310 58 274 34 209 C-13 82 78 -10 219 -11 C329 -12 460 30 483 160 C498 244 458 305 382 350 L382 350 Z M239 489 C239 527 277 568 326 570 C370 572 394 534 390 493 C386 441 341 410 321 395 C287 414 239 447 239 489 L239 489 Z M344 167 C341 100 278 78 238 78 C185 78 162 122 169 179 C176 240 207 269 229 287 C287 258 346 218 344 167 L344 167 Z " />
<glyph glyph-name="nine" unicode="9" horiz-adv-x="532" d="M302 263 C250 159 164 89 80 47 C84 33 113 -26 113 -26 C334 69 453 232 490 394 C526 549 441 651 319 660 C196 669 74 597 46 459 C22 339 86 236 193 236 C231 236 271 247 302 263 L302 263 Z M363 444 C348 368 287 335 255 333 C202 330 166 381 179 445 C194 525 252 566 294 563 C341 560 376 513 363 444 L363 444 Z " />
<glyph glyph-name="colon" unicode=":" horiz-adv-x="272" d="M34 72 C34 25 73 -12 123 -12 C172 -12 211 25 211 72 C211 118 172 156 123 156 C73 156 34 118 34 72 L34 72 Z M92 374 C92 327 131 290 181 290 C230 290 269 327 269 374 C269 420 230 458 181 458 C131 458 92 420 92 374 L92 374 Z " />
<glyph glyph-name="semicolon" unicode=";" horiz-adv-x="272" d="M85 372 C85 325 124 288 174 288 C223 288 262 325 262 372 C262 418 223 456 174 456 C124 456 85 418 85 372 L85 372 Z M122 157 C77 158 31 131 29 74 C28 38 46 13 70 0 C77 -4 89 -7 81 -26 C60 -81 -24 -148 -24 -148 L15 -194 C98 -139 189 -71 209 33 C221 97 183 156 122 157 L122 157 Z " />
<glyph glyph-name="less" unicode="&lt;" horiz-adv-x="532" d="M392 480 L100 282 L104 203 L378 -8 L435 58 L216 252 L438 415 L392 480 Z " />
<glyph glyph-name="equal" unicode="=" horiz-adv-x="532" d="M531 448 L64 448 L61 354 L527 354 L531 448 Z M531 257 L64 257 L61 163 L527 163 L531 257 Z " />
<glyph glyph-name="greater" unicode="&gt;" horiz-adv-x="532" d="M140 488 L93 422 L345 247 L93 62 L146 -4 L456 206 L456 283 L140 488 Z " />
<glyph glyph-name="question" unicode="?" horiz-adv-x="449" d="M81 541 C81 541 161 564 218 564 C289 564 300 519 297 488 C289 407 128 346 94 315 C69 295 116 199 116 199 L192 210 C192 210 197 248 200 267 C204 286 406 355 432 488 C453 597 376 669 271 666 C152 663 53 622 53 622 L81 541 Z M63 66 C63 23 99 -11 145 -11 C190 -11 225 23 225 66 C225 108 190 143 145 143 C99 143 63 108 63 66 L63 66 Z " />
<glyph glyph-name="at" unicode="@" horiz-adv-x="647" d="M432 378 L397 344 C397 344 388 366 334 368 C289 370 251 351 218 299 C195 263 179 219 172 183 C164 142 180 110 211 100 C255 86 326 164 326 164 C326 164 314 132 312 125 C309 114 323 97 335 96 C464 82 583 153 614 281 C650 437 511 503 405 503 C251 503 86 418 41 237 C-9 25 159 -37 245 -37 C344 -37 424 12 424 12 L396 59 C396 59 334 20 263 20 C127 20 95 134 132 249 C158 330 237 448 386 448 C526 448 548 366 535 300 C526 249 482 147 423 147 C411 147 415 160 422 175 C432 196 429 190 509 369 L432 378 Z M283 251 C300 286 322 312 349 312 C371 312 379 294 379 294 C379 294 354 239 349 231 C345 222 286 158 268 169 C250 180 272 229 283 251 L283 251 Z " />
<glyph glyph-name="A" unicode="A" horiz-adv-x="545" d="M227 252 L329 512 L338 252 L227 252 Z M505 0 L434 658 L278 651 L-52 0 L103 -13 L181 158 L345 158 C345 158 354 -3 356 -12 L505 0 Z " />
<glyph glyph-name="B" unicode="B" horiz-adv-x="542" d="M26 24 C26 24 126 -11 210 -11 C316 -11 475 28 508 177 C536 305 458 354 374 355 C439 363 521 405 540 503 C563 622 442 671 338 661 L146 643 L26 24 Z M275 566 C275 566 314 572 332 572 C400 571 414 534 404 491 C389 425 319 399 278 399 C266 399 249 401 242 402 L275 566 Z M223 299 C223 299 246 303 272 303 C342 303 380 266 367 188 C355 114 310 84 240 84 C224 84 184 98 184 98 L223 299 Z " />
<glyph glyph-name="C" unicode="C" horiz-adv-x="550" d="M568 620 C568 620 492 662 372 657 C211 650 81 528 42 346 C5 172 60 2 246 -12 C324 -18 485 32 485 32 L475 124 C475 124 368 90 284 97 C195 104 162 196 189 330 C216 465 285 568 402 562 C481 558 538 533 538 533 L568 620 Z " />
<glyph glyph-name="D" unicode="D" horiz-adv-x="612" d="M209 -13 C380 -13 554 84 603 343 C648 580 494 664 348 659 C269 656 145 644 145 644 L23 17 C77 -1 152 -13 209 -13 L209 -13 Z M274 562 C289 564 304 565 319 565 C429 565 482 512 451 328 C420 143 352 86 232 88 C212 88 184 93 184 93 L274 562 Z " />
<glyph glyph-name="E" unicode="E" horiz-adv-x="495" d="M426 92 L185 92 L225 295 L438 295 L456 387 L243 387 L277 562 L510 562 L527 651 L146 651 L21 0 L410 0 L426 92 Z " />
<glyph glyph-name="F" unicode="F" horiz-adv-x="500" d="M517 561 L534 651 L150 651 L19 -12 L168 0 L222 279 L440 279 L458 371 L240 371 L277 561 L517 561 Z " />
<glyph glyph-name="G" unicode="G" horiz-adv-x="597" d="M42 346 C-5 126 103 -12 246 -12 C347 -12 421 16 506 43 L559 315 L434 330 L391 113 C391 113 336 99 307 98 C211 96 156 165 189 330 C216 465 285 568 402 562 C481 558 553 537 553 537 L583 624 C583 624 492 662 372 657 C211 650 81 528 42 346 L42 346 Z " />
<glyph glyph-name="H" unicode="H" horiz-adv-x="646" d="M655 660 L507 651 L460 399 L244 399 L294 660 L149 651 L20 -12 L166 -1 L226 307 L442 307 L380 -12 L527 -1 L655 660 Z " />
<glyph glyph-name="I" unicode="I" horiz-adv-x="284" d="M165 1 L291 661 L146 651 L19 -12 L165 1 Z " />
<glyph glyph-name="J" unicode="J" horiz-adv-x="286" d="M43 106 C17 -26 -89 -118 -89 -118 L-34 -180 C-34 -180 152 -84 199 160 L296 660 L149 651 L43 106 Z " />
<glyph glyph-name="K" unicode="K" horiz-adv-x="599" d="M547 14 L367 339 L643 586 L535 670 L235 366 L292 660 L147 651 L17 -12 L164 0 L232 352 L388 -26 L547 14 Z " />
<glyph glyph-name="L" unicode="L" horiz-adv-x="473" d="M187 91 L297 657 L149 651 L22 0 L436 0 L454 91 L187 91 Z " />
<glyph glyph-name="M" unicode="M" horiz-adv-x="808" d="M258 521 L271 521 L282 -11 L452 0 L645 519 L659 519 L570 -11 L707 0 L790 660 L599 651 L390 115 L374 659 L168 651 L4 -11 L153 0 L258 521 Z " />
<glyph glyph-name="N" unicode="N" horiz-adv-x="659" d="M243 501 L255 501 L359 -12 L540 0 L669 660 L518 651 L452 150 L438 150 L328 660 L149 651 L20 -12 L169 0 L243 501 Z " />
<glyph glyph-name="O" unicode="O" horiz-adv-x="699" d="M398 566 C502 564 539 478 511 326 C480 163 404 74 297 82 C232 87 151 152 190 337 C226 507 300 568 398 566 L398 566 Z M662 305 C709 547 577 654 420 660 C235 667 79 546 40 348 C-7 103 135 -2 271 -11 C458 -23 624 109 662 305 L662 305 Z " />
<glyph glyph-name="P" unicode="P" horiz-adv-x="520" d="M402 443 C386 368 330 312 259 312 L229 312 L277 553 C277 553 288 557 328 557 C367 557 420 527 402 443 L402 443 Z M552 453 C566 576 499 664 356 660 C308 659 151 643 151 643 L17 -12 L168 0 L210 217 C221 216 231 216 241 216 C402 216 536 312 552 453 L552 453 Z " />
<glyph glyph-name="Q" unicode="Q" horiz-adv-x="699" d="M397 565 C501 563 538 478 510 326 C479 163 403 74 296 82 C231 87 150 152 189 337 C225 507 299 567 397 565 L397 565 Z M661 305 C708 547 576 653 419 659 C234 666 78 546 39 348 C-8 103 134 -2 270 -11 C313 -14 355 -9 394 2 L467 -99 L542 -53 L499 53 C580 109 640 197 661 305 L661 305 Z " />
<glyph glyph-name="R" unicode="R" horiz-adv-x="567" d="M552 13 C552 13 375 208 330 256 C442 254 538 337 561 479 C583 634 428 665 317 660 C257 657 147 638 147 638 L20 -12 L169 0 L214 223 C227 202 391 -28 391 -28 L552 13 Z M232 320 L278 561 C278 561 296 566 335 566 C374 566 421 540 406 452 C392 372 341 317 259 317 C237 317 239 319 232 320 L232 320 Z " />
<glyph glyph-name="S" unicode="S" horiz-adv-x="515" d="M335 559 C405 563 488 534 488 534 L520 632 C520 632 438 660 347 660 C239 660 103 630 76 503 C28 280 350 294 319 181 C306 132 256 101 203 101 C142 101 22 132 22 132 L-8 35 C-8 35 86 -4 185 -11 C327 -20 445 63 469 166 C521 398 224 375 230 475 C234 536 290 556 335 559 L335 559 Z " />
<glyph glyph-name="T" unicode="T" horiz-adv-x="452" d="M53 651 L36 562 L212 562 L100 -12 L240 0 L358 561 L521 561 L538 651 L53 651 Z " />
<glyph glyph-name="U" unicode="U" horiz-adv-x="614" d="M489 651 C489 651 442 404 418 283 C395 163 374 101 286 95 C178 88 187 156 211 279 L284 660 L137 651 L60 253 C28 85 104 -21 264 -10 C424 1 532 128 565 297 L635 660 L489 651 Z " />
<glyph glyph-name="V" unicode="V" horiz-adv-x="550" d="M85 646 L139 -6 L310 0 L633 651 L509 660 L264 132 L252 132 L230 660 L85 646 Z " />
<glyph glyph-name="W" unicode="W" horiz-adv-x="850" d="M447 469 L456 469 L461 -13 L639 0 L913 651 L791 659 L583 122 L575 122 L559 659 L407 652 L214 121 L207 121 L221 659 L66 651 L93 -13 L277 0 L447 469 Z " />
<glyph glyph-name="X" unicode="X" horiz-adv-x="536" d="M623 645 L498 659 L307 418 L299 418 L217 659 L73 633 L206 321 L-45 7 L73 -13 L258 222 L266 222 L350 -14 L492 20 L360 322 L623 645 Z " />
<glyph glyph-name="Y" unicode="Y" horiz-adv-x="475" d="M134 244 L83 -11 L231 0 L277 238 L549 646 L435 660 L243 345 L238 345 L178 659 L44 650 L134 244 Z " />
<glyph glyph-name="Z" unicode="Z" horiz-adv-x="525" d="M115 651 L98 561 L387 561 L-12 102 L-8 0 L446 0 L463 92 L145 92 L551 559 L548 651 L115 651 Z " />
<glyph glyph-name="bracketleft" unicode="[" horiz-adv-x="378" d="M322 629 L413 629 L427 703 L211 715 L44 -147 L264 -135 L279 -58 L188 -58 L322 629 Z " />
<glyph glyph-name="backslash" unicode="\" horiz-adv-x="317" d="M44 677 L184 -73 L276 -57 L143 693 L44 677 Z " />
<glyph glyph-name="bracketright" unicode="]" horiz-adv-x="378" d="M195 629 L61 -58 L-30 -58 L-46 -135 L171 -147 L338 715 L117 703 L104 629 L195 629 Z " />
<glyph glyph-name="asciicircum" unicode="^" horiz-adv-x="532" d="M123 281 L308 537 L493 279 L563 328 L348 643 L275 643 L50 326 L123 281 Z " />
<glyph glyph-name="underscore" unicode="_" horiz-adv-x="480" d="M490 -76 L-7 -76 L-7 -131 L490 -131 L490 -76 Z " />
<glyph glyph-name="grave" unicode="`" horiz-adv-x="511" d="M169 569 L334 437 L384 490 L236 642 L169 569 Z " />
<glyph glyph-name="a" unicode="a" horiz-adv-x="484" d="M472 396 C472 396 401 422 334 427 C246 434 76 398 39 241 C12 127 14 -13 151 -13 C170 -13 250 39 280 60 C279 53 291 -13 291 -13 L399 1 L472 396 Z M292 147 C292 147 245 100 220 91 C180 76 155 102 176 221 C195 327 250 348 293 348 C318 348 329 340 329 340 L292 147 Z " />
<glyph glyph-name="b" unicode="b" horiz-adv-x="493" d="M8 -13 L121 0 L146 50 C146 50 197 -4 233 -10 C335 -27 446 38 473 225 C495 378 412 439 337 428 C297 423 215 370 215 370 L280 695 L145 685 L8 -13 Z M200 287 C200 287 255 329 297 327 C339 326 352 292 337 217 C321 133 283 91 244 87 C212 84 195 101 166 119 L200 287 Z " />
<glyph glyph-name="c" unicode="c" horiz-adv-x="408" d="M410 401 C410 401 359 426 279 426 C173 426 50 358 27 211 C-1 32 106 -9 167 -9 C234 -9 307 13 363 41 L346 104 C346 104 270 78 229 78 C160 78 146 115 165 218 C184 322 242 341 283 345 C335 350 390 330 390 330 L410 401 Z " />
<glyph glyph-name="d" unicode="d" horiz-adv-x="500" d="M216 95 C177 92 146 117 165 216 C185 315 226 351 280 346 C308 343 340 331 340 331 C340 331 315 203 302 140 C277 110 239 97 216 95 L216 95 Z M547 695 L414 685 L358 420 C358 420 311 426 292 427 C189 430 59 370 29 224 C-8 45 114 -37 208 -3 C244 10 288 55 288 55 L313 -14 L411 0 L547 695 Z " />
<glyph glyph-name="e" unicode="e" horiz-adv-x="452" d="M272 428 C185 428 55 347 29 223 C-8 47 104 -16 194 -12 C248 -9 382 36 382 36 L366 107 C366 107 277 78 225 78 C173 78 153 128 161 181 L414 210 C414 210 427 244 431 274 C446 392 348 428 272 428 L272 428 Z M296 272 C280 268 168 251 168 251 C175 316 208 344 259 346 C308 348 304 305 296 272 L296 272 Z " />
<glyph glyph-name="f" unicode="f" horiz-adv-x="367" d="M-66 -33 L-95 -116 C-95 -116 -61 -130 -15 -133 C79 -137 194 -78 222 71 C259 269 266 300 272 331 L377 331 L394 420 L289 420 C289 420 299 470 301 483 C311 533 323 556 369 556 C387 556 413 552 445 544 L474 627 C474 627 440 641 394 644 C300 648 186 587 157 438 L153 420 L61 420 L47 346 L136 331 L71 0 C65 -31 46 -45 10 -45 C-8 -45 -34 -41 -66 -33 L-66 -33 Z " />
<glyph glyph-name="g" unicode="g" horiz-adv-x="500" d="M305 132 C305 132 255 92 229 92 C180 92 152 138 168 217 C191 331 240 353 283 345 C309 340 344 330 344 330 L305 132 Z M271 -46 C258 -110 213 -124 188 -128 C156 -132 39 -111 39 -111 L17 -181 C17 -181 156 -226 231 -216 C304 -206 375 -169 396 -68 L497 427 L387 420 L368 387 C354 396 318 420 275 424 C144 435 50 326 30 224 C2 82 84 -5 181 1 C213 3 254 22 290 46 L271 -46 Z " />
<glyph glyph-name="h" unicode="h" horiz-adv-x="493" d="M410 2 L467 285 C488 387 423 427 369 427 C307 427 254 392 220 365 L285 695 L146 686 L11 -10 L150 0 L204 287 C215 298 254 312 273 314 C309 318 333 300 324 253 C315 205 274 -12 274 -12 L410 2 Z " />
<glyph glyph-name="i" unicode="i" horiz-adv-x="237" d="M231 427 L93 420 L10 -10 L148 0 L231 427 Z M116 599 C125 561 165 539 207 549 C249 559 276 597 267 634 C259 671 217 694 175 684 C134 674 107 636 116 599 L116 599 Z " />
<glyph glyph-name="j" unicode="j" horiz-adv-x="232" d="M113 599 C122 561 162 539 204 549 C246 559 273 597 264 634 C256 671 214 694 172 684 C131 674 104 636 113 599 L113 599 Z M21 54 C-1 -52 -15 -92 -64 -163 C-58 -167 5 -215 12 -221 C109 -128 139 -31 158 65 C191 233 227 427 227 427 L91 420 L21 54 Z " />
<glyph glyph-name="k" unicode="k" horiz-adv-x="479" d="M438 22 L311 226 L500 370 L396 441 L193 240 L282 695 L144 686 L11 -6 L147 0 L188 214 L304 -31 L438 22 Z " />
<glyph glyph-name="l" unicode="l" horiz-adv-x="230" d="M9 -12 L143 0 L272 695 L141 686 L9 -12 Z " />
<glyph glyph-name="m" unicode="m" horiz-adv-x="730" d="M319 264 L265 -12 L400 0 L453 275 C475 295 505 312 526 312 C553 312 573 301 565 264 L513 -12 L648 0 L704 300 C717 370 679 432 608 427 C550 423 504 383 464 354 C462 407 408 427 372 427 C315 427 253 385 213 354 L194 427 L93 420 L10 -12 L150 0 L204 276 C221 292 257 315 280 315 C307 315 327 304 319 264 L319 264 Z " />
<glyph glyph-name="n" unicode="n" horiz-adv-x="492" d="M468 311 C483 388 423 427 369 427 C310 427 253 388 212 355 L191 427 L93 420 L9 -12 L147 0 L199 268 C210 282 252 312 281 317 C311 322 333 306 325 266 L275 -12 L409 2 L468 311 Z " />
<glyph glyph-name="o" unicode="o" horiz-adv-x="488" d="M296 428 C171 441 49 366 27 215 C8 82 77 -3 203 -12 C313 -20 437 55 462 198 C488 348 395 418 296 428 L296 428 Z M276 340 C333 334 335 284 321 208 C304 114 267 69 217 76 C155 85 155 142 165 208 C180 306 220 346 276 340 L276 340 Z " />
<glyph glyph-name="p" unicode="p" horiz-adv-x="481" d="M235 92 C217 89 192 98 168 108 L209 328 C231 334 257 339 271 339 C308 337 339 301 319 212 C301 131 271 97 235 92 L235 92 Z M285 420 C190 416 86 386 86 386 L-31 -217 L108 -202 L150 25 C165 17 197 1 230 -5 C321 -21 423 47 455 199 C487 351 420 426 285 420 L285 420 Z " />
<glyph glyph-name="q" unicode="q" horiz-adv-x="496" d="M295 123 C295 123 253 84 222 79 C163 69 149 141 163 217 C180 308 219 346 278 346 C304 346 337 324 337 324 L295 123 Z M227 -217 L368 -204 L490 427 L381 420 L364 388 C364 388 329 408 309 415 C195 456 47 357 26 206 C7 73 68 -12 165 -12 C216 -12 282 38 282 38 L227 -217 Z " />
<glyph glyph-name="r" unicode="r" horiz-adv-x="371" d="M413 427 C345 427 278 400 217 350 L232 427 L93 420 L11 -6 L149 0 L206 294 L364 294 C364 294 391 377 413 427 L413 427 Z " />
<glyph glyph-name="s" unicode="s" horiz-adv-x="409" d="M383 413 C383 413 319 428 270 433 C196 441 75 427 51 325 C15 168 246 192 235 115 C230 88 211 82 182 85 C124 88 28 116 28 116 L7 28 C7 28 119 -7 182 -10 C279 -15 357 21 372 116 C399 277 172 250 184 315 C189 341 216 350 248 349 C281 347 368 332 368 332 L383 413 Z " />
<glyph glyph-name="t" unicode="t" horiz-adv-x="336" d="M312 74 L164 74 L215 344 L327 344 L342 419 L230 419 L260 576 L122 569 C122 569 109 504 93 420 L29 411 L16 344 L78 344 C50 198 30 91 27 74 C18 28 62 -18 111 -14 C141 -8 306 10 306 10 L312 74 Z " />
<glyph glyph-name="u" unicode="u" horiz-adv-x="479" d="M390 0 L475 427 L339 420 C339 420 280 129 280 129 C237 95 155 72 173 164 L222 427 L85 420 C85 420 35 154 30 111 C20 26 94 -23 165 -10 C218 0 278 60 278 60 L300 -12 L390 0 Z " />
<glyph glyph-name="v" unicode="v" horiz-adv-x="410" d="M29 420 L63 -12 L226 0 L455 420 L340 427 L174 107 L160 427 L29 420 Z " />
<glyph glyph-name="w" unicode="w" horiz-adv-x="656" d="M336 272 L343 272 L348 -11 L505 0 L704 420 L598 428 L453 104 L446 104 L446 427 L295 420 L160 99 L154 99 L175 427 L40 420 L56 -11 L224 0 L336 272 Z " />
<glyph glyph-name="x" unicode="x" horiz-adv-x="443" d="M462 377 L379 436 L245 301 L164 435 L44 397 L154 221 L-27 40 L66 -18 L199 125 L286 -18 L413 30 L296 212 L462 377 Z " />
<glyph glyph-name="y" unicode="y" horiz-adv-x="417" d="M337 427 L182 138 L172 427 L35 420 L74 39 L119 38 L-10 -189 L105 -217 L452 397 L337 427 Z " />
<glyph glyph-name="z" unicode="z" horiz-adv-x="417" d="M371 81 L161 81 L411 337 L404 420 L75 420 L61 345 L263 345 L-2 82 L4 0 L355 0 L371 81 Z " />
<glyph glyph-name="braceleft" unicode="{" horiz-adv-x="378" d="M88 315 C81 290 73 250 73 250 C106 250 154 256 139 179 C125 103 99 96 85 24 C47 -172 278 -166 278 -166 L294 -92 C294 -92 183 -105 207 20 C218 74 248 151 257 200 C271 271 212 288 212 288 C212 288 278 305 291 372 C300 419 302 486 311 533 C334 650 433 639 433 639 L446 707 C446 707 223 714 188 533 C175 464 193 457 179 384 C165 311 118 315 88 315 L88 315 Z " />
<glyph glyph-name="bar" unicode="|" horiz-adv-x="532" d="M327 -260 L327 753 L230 753 L230 -260 L327 -260 Z " />
<glyph glyph-name="braceright" unicode="}" horiz-adv-x="378" d="M324 315 C294 315 246 311 260 384 C274 457 296 464 309 533 C344 714 122 707 122 707 L108 639 C108 639 211 650 188 533 C179 486 155 419 146 372 C133 305 191 288 191 288 C191 288 126 271 112 200 C103 151 103 74 92 20 C68 -105 -36 -92 -36 -92 L-51 -166 C-51 -166 175 -172 213 24 C227 96 206 103 220 179 C235 256 278 248 311 248 C311 248 321 290 324 315 L324 315 Z " />
<glyph glyph-name="asciitilde" unicode="~" horiz-adv-x="532" d="M49 150 L127 151 C127 151 130 216 189 216 C262 216 308 151 394 151 C506 151 525 318 525 318 L450 318 C450 318 442 252 388 252 C322 252 291 316 186 316 C64 316 49 150 49 150 L49 150 Z " />
<glyph glyph-name="uni00A0" unicode=" " horiz-adv-x="161" d="" />
<glyph glyph-name="exclamdown" unicode="¡" horiz-adv-x="280" d="M93 252 L-22 -215 L141 -208 L173 256 L93 252 Z M230 376 C230 419 194 453 148 453 C103 453 68 419 68 376 C68 334 103 299 148 299 C194 299 230 334 230 376 L230 376 Z " />
<glyph glyph-name="cent" unicode="¢" horiz-adv-x="491" d="M485 512 C485 512 445 536 377 546 L396 648 L333 640 L315 547 C203 535 84 468 57 333 C19 137 169 110 231 114 L207 -7 L271 2 L295 127 C349 144 427 168 427 168 L408 227 C408 227 356 215 311 207 L362 470 C410 470 460 442 460 442 L485 512 Z M205 341 C223 417 262 454 299 467 L247 200 C206 204 181 248 205 341 L205 341 Z " />
<glyph glyph-name="sterling" unicode="£" horiz-adv-x="532" d="M429 359 L271 359 C275 397 277 429 284 464 C302 558 351 572 394 572 C458 572 490 554 490 554 L513 634 C513 634 483 647 430 651 C275 662 148 594 135 444 C131 394 133 394 130 359 L53 359 L38 280 L122 280 C119 264 116 247 112 227 C87 99 43 92 43 92 L2 92 L-15 0 L426 0 L445 92 L158 92 C164 94 231 114 252 224 C256 244 260 263 262 280 L414 280 L429 359 Z " />
<glyph glyph-name="yen" unicode="¥" horiz-adv-x="531" d="M180 244 L173 208 L37 208 L24 141 L160 141 L131 -6 L274 0 L301 141 L434 141 L447 208 L314 208 L320 238 L334 260 L457 260 L470 326 L377 326 L591 645 L485 660 L281 348 L216 658 L89 651 L162 326 L60 326 L47 260 L177 260 L180 244 Z " />
<glyph glyph-name="brokenbar" unicode="¦" horiz-adv-x="532" d="M326 330 L326 684 L230 684 L230 330 L326 330 Z M326 -175 L326 178 L230 178 L230 -175 L326 -175 Z " />
<glyph glyph-name="section" unicode="§" horiz-adv-x="463" d="M-51 -167 C-51 -167 51 -215 129 -215 C265 -215 339 -130 356 -44 C363 -5 355 25 339 50 C368 70 416 113 436 178 C492 356 219 411 238 495 C248 540 296 557 332 557 C383 557 457 526 457 526 L489 599 C489 599 410 640 325 640 C205 640 118 571 102 485 C94 443 106 410 128 382 C89 356 40 314 30 260 C-11 48 228 51 211 -43 C201 -95 152 -125 115 -125 C64 -125 -13 -96 -13 -96 L-51 -167 Z M320 172 C316 140 303 118 290 102 C226 153 141 189 152 268 C156 297 165 319 176 334 C243 281 328 243 320 172 L320 172 Z " />
<glyph glyph-name="dieresis" unicode="¨" horiz-adv-x="511" d="M153 506 C153 472 181 445 218 445 C254 445 282 472 282 506 C282 539 254 567 218 567 C181 567 153 539 153 506 L153 506 Z M348 506 C348 472 376 445 413 445 C449 445 477 472 477 506 C477 539 449 567 413 567 C376 567 348 539 348 506 L348 506 Z " />
<glyph glyph-name="copyright" unicode="©" horiz-adv-x="770" d="M127 327 C127 476 249 597 400 597 C550 597 672 476 672 327 C672 177 550 56 400 56 C249 56 127 177 127 327 L127 327 Z M400 -12 C592 -12 749 140 749 327 C749 514 592 665 400 665 C207 665 51 514 51 327 C51 140 207 -12 400 -12 L400 -12 Z M548 500 C548 500 494 526 411 528 C311 530 240 443 233 357 C232 344 231 332 231 321 C231 177 322 137 394 137 C460 137 544 190 544 190 L522 250 C522 250 430 219 402 219 C353 219 314 261 319 347 C323 428 376 459 422 456 C487 452 533 430 533 430 L548 500 Z " />
<glyph glyph-name="ordfeminine" unicode="ª" horiz-adv-x="442" d="M432 621 C432 621 348 641 301 647 C228 656 111 615 78 493 C57 416 51 287 165 287 C198 287 275 356 275 356 L288 287 L370 299 L432 621 Z M287 439 C287 439 264 393 225 393 C201 393 176 401 187 470 C203 568 250 574 264 573 C286 571 314 569 314 569 L287 439 Z " />
<glyph glyph-name="guillemotleft" unicode="«" horiz-adv-x="459" d="M219 405 L46 252 L36 190 L172 18 L224 57 L149 210 L265 364 L219 405 Z M402 398 L236 252 L226 190 L360 31 L412 70 L339 210 L448 357 L402 398 Z " />
<glyph glyph-name="logicalnot" unicode="¬" horiz-adv-x="550" d="M57 287 L56 204 L425 204 L425 16 L523 22 L523 287 L57 287 Z " />
<glyph glyph-name="registered" unicode="®" horiz-adv-x="505" d="M391 371 L328 443 C354 449 377 481 373 512 C369 550 336 573 285 572 L194 564 L194 354 L253 355 L253 431 C261 431 268 432 276 433 L337 350 L391 371 Z M253 531 C253 531 260 534 274 534 C292 534 311 529 311 507 C310 483 296 467 264 467 C253 467 253 468 253 468 L253 531 Z M103 455 C103 550 180 627 275 627 C371 627 448 550 448 455 C448 360 371 283 275 283 C180 283 103 360 103 455 L103 455 Z M60 455 C60 339 157 245 276 245 C394 245 491 339 491 455 C491 571 394 665 276 665 C157 665 60 571 60 455 L60 455 Z " />
<glyph glyph-name="macron" unicode="¯" horiz-adv-x="511" d="M407 514 L192 514 L179 446 L394 446 L407 514 Z " />
<glyph glyph-name="degree" unicode="°" horiz-adv-x="381" d="M164 520 C164 569 173 589 221 589 C258 589 278 560 278 520 C278 469 259 451 221 451 C183 451 164 480 164 520 L164 520 Z M221 386 C297 386 364 444 364 518 C364 594 300 654 221 654 C135 654 78 581 78 518 C78 445 142 386 221 386 L221 386 Z " />
<glyph glyph-name="plusminus" unicode="±" horiz-adv-x="532" d="M340 212 L340 336 L519 336 L523 430 L340 430 L340 585 L241 583 L241 430 L56 430 L53 336 L241 336 L241 208 L340 212 Z M521 159 L55 159 L53 74 L518 74 L521 159 Z " />
<glyph glyph-name="twosuperior" unicode="²" horiz-adv-x="275" d="M45 665 C45 665 108 691 147 686 C166 684 175 677 172 651 C160 574 10 505 10 505 L20 444 L253 444 L260 513 L134 513 C134 513 237 558 262 653 C279 720 219 752 168 756 C129 760 68 744 33 728 L45 665 Z " />
<glyph glyph-name="threesuperior" unicode="³" horiz-adv-x="275" d="M68 677 C68 677 124 689 141 691 C163 693 176 691 178 670 C180 644 156 635 128 631 C107 630 90 630 90 630 L79 564 C79 564 111 564 119 564 C169 564 176 547 172 529 C169 514 142 502 115 502 C86 502 55 506 32 509 L8 455 C37 447 88 436 114 434 C187 429 253 460 264 520 C272 563 255 593 186 602 C233 611 263 634 268 670 C277 741 207 757 159 755 C121 755 56 737 56 737 L68 677 Z " />
<glyph glyph-name="acute" unicode="´" horiz-adv-x="511" d="M223 486 L261 442 L458 575 L399 649 L223 486 Z " />
<glyph glyph-name="mu" unicode="µ" horiz-adv-x="522" d="M397 2 L482 426 L360 419 L299 112 C247 72 148 78 168 179 L218 426 L98 418 C98 418 83 351 -39 -250 L91 -222 L133 41 C141 25 163 -6 205 -6 C238 -6 296 52 296 52 L317 -10 L397 2 Z " />
<glyph glyph-name="paragraph" unicode="¶" horiz-adv-x="593" d="M560 651 C560 651 539 656 430 655 C270 654 85 602 61 433 C39 276 128 206 243 206 L175 -139 L262 -134 L399 570 L463 570 L326 -137 L408 -132 L560 651 Z " />
<glyph glyph-name="periodcentered" unicode="·" horiz-adv-x="272" d="M60 261 C60 214 99 177 149 177 C198 177 237 214 237 261 C237 307 198 345 149 345 C99 345 60 307 60 261 L60 261 Z " />
<glyph glyph-name="cedilla" unicode="¸" horiz-adv-x="511" d="M224 19 L125 -69 L130 -106 C130 -106 188 -103 178 -158 C168 -207 83 -205 83 -205 L80 -263 C80 -263 256 -255 269 -156 C280 -70 214 -63 214 -63 L303 19 L224 19 Z " />
<glyph glyph-name="onesuperior" unicode="¹" horiz-adv-x="231" d="M63 443 L142 443 L205 762 L34 717 L44 661 L108 672 L63 443 Z " />
<glyph glyph-name="ordmasculine" unicode="º" horiz-adv-x="396" d="M273 649 C167 649 78 583 58 471 C35 360 102 282 197 282 C289 282 385 349 406 455 C431 582 356 649 273 649 L273 649 Z M254 583 C302 578 306 528 294 464 C279 384 249 347 206 352 C155 360 155 407 163 464 C175 547 207 588 254 583 L254 583 Z " />
<glyph glyph-name="guillemotright" unicode="»" horiz-adv-x="459" d="M283 408 L225 365 L304 217 L185 66 L230 19 L409 175 L416 245 L283 408 Z M95 402 L43 359 L115 216 L4 71 L49 26 L219 177 L224 242 L95 402 Z " />
<glyph glyph-name="onequarter" unicode="¼" horiz-adv-x="881" d="M775 145 L715 145 L756 356 L659 368 L445 140 L465 84 L622 84 L605 -4 L690 2 L706 84 L757 84 L775 145 Z M526 145 L668 295 L634 145 L526 145 Z M639 679 L157 25 L214 -16 L698 633 L639 679 Z M179 299 L258 299 L327 654 L133 604 L143 548 L230 564 L179 299 Z " />
<glyph glyph-name="onehalf" unicode="½" horiz-adv-x="890" d="M655 679 L173 25 L230 -16 L714 633 L655 679 Z M152 299 L231 299 L300 654 L106 604 L116 548 L203 564 L152 299 Z M567 272 C567 272 640 307 684 301 C706 298 717 288 713 253 C700 148 529 55 529 55 L538 0 L775 0 L784 69 L627 68 C627 68 769 131 797 241 C817 318 768 355 709 359 C664 364 593 345 553 327 L567 272 Z " />
<glyph glyph-name="threequarters" unicode="¾" horiz-adv-x="894" d="M828 145 L768 145 L809 356 L712 368 L498 140 L518 84 L675 84 L658 -4 L743 2 L759 84 L810 84 L828 145 Z M579 145 L721 295 L687 145 L579 145 Z M692 679 L210 25 L267 -16 L751 633 L692 679 Z M168 580 C168 580 241 601 260 601 C280 601 304 594 302 562 C300 523 256 509 224 504 C200 501 192 502 192 502 L180 447 C180 447 204 447 213 447 C269 447 284 431 272 389 C267 367 238 355 207 355 C174 355 145 363 119 369 L92 313 C127 299 175 289 205 287 C287 281 354 317 370 384 C376 432 363 466 300 477 C342 480 388 518 394 559 C404 639 325 657 270 655 C228 655 154 634 154 634 L168 580 Z " />
<glyph glyph-name="questiondown" unicode="¿" horiz-adv-x="449" d="M333 -101 C333 -101 253 -124 196 -124 C125 -124 114 -79 117 -48 C125 33 286 94 320 125 C345 145 298 241 298 241 L222 230 C222 230 217 192 214 173 C210 154 8 85 -18 -48 C-39 -157 38 -229 143 -226 C262 -223 361 -182 361 -182 L333 -101 Z M351 374 C351 417 315 451 269 451 C224 451 189 417 189 374 C189 332 224 297 269 297 C315 297 351 332 351 374 L351 374 Z " />
<glyph glyph-name="Agrave" unicode="À" horiz-adv-x="565" d="M237 252 L339 512 L348 252 L237 252 Z M515 0 L444 658 L288 651 L-42 0 L113 -13 L191 158 L355 158 C355 158 364 -3 366 -12 L515 0 Z M262 800 L427 668 L477 721 L329 873 L262 800 Z " />
<glyph glyph-name="Aacute" unicode="Á" horiz-adv-x="565" d="M237 252 L339 512 L348 252 L237 252 Z M515 0 L444 658 L288 651 L-42 0 L113 -13 L191 158 L355 158 C355 158 364 -3 366 -12 L515 0 Z M256 717 L294 673 L491 806 L432 880 L256 717 Z " />
<glyph glyph-name="Acircumflex" unicode="Â" horiz-adv-x="565" d="M237 252 L339 512 L348 252 L237 252 Z M515 0 L444 658 L288 651 L-42 0 L113 -13 L191 158 L355 158 C355 158 364 -3 366 -12 L515 0 Z M235 716 L275 680 L388 774 L466 678 L515 714 L430 850 L363 850 L235 716 Z " />
<glyph glyph-name="Atilde" unicode="Ã" horiz-adv-x="565" d="M237 252 L339 512 L348 252 L237 252 Z M515 0 L444 658 L288 651 L-42 0 L113 -13 L191 158 L355 158 C355 158 364 -3 366 -12 L515 0 Z M203 694 L259 690 C259 690 271 750 305 750 C338 750 375 688 429 688 C482 688 513 743 528 820 L473 823 C458 772 446 773 432 773 C396 773 372 826 310 826 C268 826 225 784 203 694 L203 694 Z " />
<glyph glyph-name="Adieresis" unicode="Ä" horiz-adv-x="565" d="M237 252 L339 512 L348 252 L237 252 Z M515 0 L444 658 L288 651 L-42 0 L113 -13 L191 158 L355 158 C355 158 364 -3 366 -12 L515 0 Z M204 737 C204 703 232 676 269 676 C305 676 333 703 333 737 C333 770 305 798 269 798 C232 798 204 770 204 737 L204 737 Z M399 737 C399 703 427 676 464 676 C500 676 528 703 528 737 C528 770 500 798 464 798 C427 798 399 770 399 737 L399 737 Z " />
<glyph glyph-name="Aring" unicode="Å" horiz-adv-x="565" d="M237 252 L339 512 L348 252 L237 252 Z M515 0 L444 658 L288 651 L-42 0 L113 -13 L191 158 L355 158 C355 158 364 -3 366 -12 L515 0 Z M356 777 C363 813 380 824 409 824 C438 824 448 804 444 777 C440 746 426 729 391 729 C362 729 351 749 356 777 L356 777 Z M382 684 C443 684 502 732 510 776 C519 828 479 869 418 869 C357 869 299 828 289 776 C279 725 321 684 382 684 L382 684 Z " />
<glyph glyph-name="AE" unicode="Æ" horiz-adv-x="810" d="M258 252 L426 513 L376 252 L258 252 Z M742 92 L491 92 L531 295 L744 295 L762 387 L549 387 L583 562 L816 562 L833 651 L381 651 L-52 0 L105 -6 L212 158 L357 158 L327 0 L723 0 L742 92 Z " />
<glyph glyph-name="Ccedilla" unicode="Ç" horiz-adv-x="570" d="M578 620 C578 620 502 662 382 657 C221 650 91 528 52 346 C15 172 70 2 256 -12 C334 -18 495 32 495 32 L485 124 C485 124 378 90 294 97 C205 104 172 196 199 330 C226 465 295 568 412 562 C491 558 548 533 548 533 L578 620 Z M317 19 L218 -69 L223 -106 C223 -106 281 -103 271 -158 C261 -207 176 -205 176 -205 L173 -263 C173 -263 349 -255 362 -156 C373 -70 307 -63 307 -63 L396 19 L317 19 Z " />
<glyph glyph-name="Egrave" unicode="È" horiz-adv-x="515" d="M436 92 L195 92 L235 295 L448 295 L466 387 L253 387 L287 562 L520 562 L537 651 L156 651 L31 0 L420 0 L436 92 Z M242 800 L407 668 L457 721 L309 873 L242 800 Z " />
<glyph glyph-name="Eacute" unicode="É" horiz-adv-x="515" d="M436 92 L195 92 L235 295 L448 295 L466 387 L253 387 L287 562 L520 562 L537 651 L156 651 L31 0 L420 0 L436 92 Z M256 717 L294 673 L491 806 L432 880 L256 717 Z " />
<glyph glyph-name="Ecircumflex" unicode="Ê" horiz-adv-x="515" d="M436 92 L195 92 L235 295 L448 295 L466 387 L253 387 L287 562 L520 562 L537 651 L156 651 L31 0 L420 0 L436 92 Z M220 721 L260 685 L373 779 L451 683 L500 719 L415 855 L348 855 L220 721 Z " />
<glyph glyph-name="Edieresis" unicode="Ë" horiz-adv-x="515" d="M436 92 L195 92 L235 295 L448 295 L466 387 L253 387 L287 562 L520 562 L537 651 L156 651 L31 0 L420 0 L436 92 Z M204 737 C204 703 232 676 269 676 C305 676 333 703 333 737 C333 770 305 798 269 798 C232 798 204 770 204 737 L204 737 Z M399 737 C399 703 427 676 464 676 C500 676 528 703 528 737 C528 770 500 798 464 798 C427 798 399 770 399 737 L399 737 Z " />
<glyph glyph-name="Igrave" unicode="Ì" horiz-adv-x="304" d="M175 1 L301 661 L156 651 L29 -12 L175 1 Z M136 800 L301 668 L351 721 L203 873 L136 800 Z " />
<glyph glyph-name="Iacute" unicode="Í" horiz-adv-x="304" d="M175 1 L301 661 L156 651 L29 -12 L175 1 Z M125 717 L163 673 L360 806 L301 880 L125 717 Z " />
<glyph glyph-name="Icircumflex" unicode="Î" horiz-adv-x="304" d="M175 1 L301 661 L156 651 L29 -12 L175 1 Z M89 716 L129 680 L242 774 L320 678 L369 714 L284 850 L217 850 L89 716 Z " />
<glyph glyph-name="Idieresis" unicode="Ï" horiz-adv-x="304" d="M175 1 L301 661 L156 651 L29 -12 L175 1 Z M75 737 C75 703 103 676 140 676 C176 676 204 703 204 737 C204 770 176 798 140 798 C103 798 75 770 75 737 L75 737 Z M270 737 C270 703 298 676 335 676 C371 676 399 703 399 737 C399 770 371 798 335 798 C298 798 270 770 270 737 L270 737 Z " />
<glyph glyph-name="Eth" unicode="Ð" horiz-adv-x="627" d="M361 296 L376 373 L246 373 L283 562 C298 564 313 565 328 565 C438 565 491 512 460 328 C434 176 373 97 228 97 C208 97 193 100 193 100 L231 297 L361 296 Z M176 -5 C184 -6 191 -6 200 -6 C371 -6 562 102 612 334 C662 590 493 664 341 657 L155 640 L101 370 L43 370 L28 293 L86 293 L32 24 C32 24 90 2 176 -5 L176 -5 Z " />
<glyph glyph-name="Ntilde" unicode="Ñ" horiz-adv-x="679" d="M253 501 L265 501 L369 -12 L550 0 L679 660 L528 651 L462 150 L448 150 L338 660 L159 651 L30 -12 L179 0 L253 501 Z M272 694 L328 690 C328 690 340 750 374 750 C407 750 444 688 498 688 C551 688 582 743 597 820 L542 823 C527 772 515 773 501 773 C465 773 441 826 379 826 C337 826 294 784 272 694 L272 694 Z " />
<glyph glyph-name="Ograve" unicode="Ò" horiz-adv-x="719" d="M408 566 C512 564 549 478 521 326 C490 163 414 74 307 82 C242 87 161 152 200 337 C236 507 310 568 408 566 L408 566 Z M672 305 C719 547 587 654 430 660 C245 667 89 546 50 348 C3 103 145 -2 281 -11 C468 -23 634 109 672 305 L672 305 Z M252 800 L417 668 L467 721 L319 873 L252 800 Z " />
<glyph glyph-name="Oacute" unicode="Ó" horiz-adv-x="719" d="M408 566 C512 564 549 478 521 326 C490 163 414 74 307 82 C242 87 161 152 200 337 C236 507 310 568 408 566 L408 566 Z M672 305 C719 547 587 654 430 660 C245 667 89 546 50 348 C3 103 145 -2 281 -11 C468 -23 634 109 672 305 L672 305 Z M314 717 L352 673 L549 806 L490 880 L314 717 Z " />
<glyph glyph-name="Ocircumflex" unicode="Ô" horiz-adv-x="719" d="M408 566 C512 564 549 478 521 326 C490 163 414 74 307 82 C242 87 161 152 200 337 C236 507 310 568 408 566 L408 566 Z M672 305 C719 547 587 654 430 660 C245 667 89 546 50 348 C3 103 145 -2 281 -11 C468 -23 634 109 672 305 L672 305 Z M284 716 L324 680 L437 774 L515 678 L564 714 L479 850 L412 850 L284 716 Z " />
<glyph glyph-name="Otilde" unicode="Õ" horiz-adv-x="719" d="M408 566 C512 564 549 478 521 326 C490 163 414 74 307 82 C242 87 161 152 200 337 C236 507 310 568 408 566 L408 566 Z M672 305 C719 547 587 654 430 660 C245 667 89 546 50 348 C3 103 145 -2 281 -11 C468 -23 634 109 672 305 L672 305 Z M251 694 L307 690 C307 690 319 750 353 750 C386 750 423 688 477 688 C530 688 561 743 576 820 L521 823 C506 772 494 773 480 773 C444 773 420 826 358 826 C316 826 273 784 251 694 L251 694 Z " />
<glyph glyph-name="Odieresis" unicode="Ö" horiz-adv-x="719" d="M408 566 C512 564 549 478 521 326 C490 163 414 74 307 82 C242 87 161 152 200 337 C236 507 310 568 408 566 L408 566 Z M672 305 C719 547 587 654 430 660 C245 667 89 546 50 348 C3 103 145 -2 281 -11 C468 -23 634 109 672 305 L672 305 Z M257 737 C257 703 285 676 322 676 C358 676 386 703 386 737 C386 770 358 798 322 798 C285 798 257 770 257 737 L257 737 Z M452 737 C452 703 480 676 517 676 C553 676 581 703 581 737 C581 770 553 798 517 798 C480 798 452 770 452 737 L452 737 Z " />
<glyph glyph-name="multiply" unicode="×" horiz-adv-x="532" d="M116 97 L287 258 L458 95 L520 155 L352 320 L509 467 L442 528 L291 380 L140 529 L74 462 L226 317 L57 152 L116 97 Z " />
<glyph glyph-name="Oslash" unicode="Ø" horiz-adv-x="719" d="M691 686 C691 686 657 653 607 603 C558 642 494 659 436 659 C278 659 82 533 43 335 C21 220 43 137 87 82 C39 33 7 1 7 1 L66 -53 L148 30 C191 5 240 -7 287 -7 C463 -7 646 131 684 327 C702 420 689 491 659 542 L750 634 C750 634 692 685 691 686 L691 686 Z M408 565 C455 568 492 548 514 509 L193 188 C182 225 180 274 193 337 C229 507 310 557 408 565 L408 565 Z M530 326 C499 163 421 86 313 86 C288 86 259 95 235 117 L537 420 C538 392 536 360 530 326 L530 326 Z " />
<glyph glyph-name="Ugrave" unicode="Ù" horiz-adv-x="634" d="M499 651 C499 651 452 404 428 283 C405 163 384 101 296 95 C188 88 197 156 221 279 L294 660 L147 651 L70 253 C38 85 114 -21 274 -10 C434 1 542 128 575 297 L645 660 L499 651 Z M290 800 L455 668 L505 721 L357 873 L290 800 Z " />
<glyph glyph-name="Uacute" unicode="Ú" horiz-adv-x="634" d="M499 651 C499 651 452 404 428 283 C405 163 384 101 296 95 C188 88 197 156 221 279 L294 660 L147 651 L70 253 C38 85 114 -21 274 -10 C434 1 542 128 575 297 L645 660 L499 651 Z M290 717 L328 673 L525 806 L466 880 L290 717 Z " />
<glyph glyph-name="Ucircumflex" unicode="Û" horiz-adv-x="634" d="M499 651 C499 651 452 404 428 283 C405 163 384 101 296 95 C188 88 197 156 221 279 L294 660 L147 651 L70 253 C38 85 114 -21 274 -10 C434 1 542 128 575 297 L645 660 L499 651 Z M277 716 L317 680 L430 774 L508 678 L557 714 L472 850 L405 850 L277 716 Z " />
<glyph glyph-name="Udieresis" unicode="Ü" horiz-adv-x="634" d="M499 651 C499 651 452 404 428 283 C405 163 384 101 296 95 C188 88 197 156 221 279 L294 660 L147 651 L70 253 C38 85 114 -21 274 -10 C434 1 542 128 575 297 L645 660 L499 651 Z M233 737 C233 703 261 676 298 676 C334 676 362 703 362 737 C362 770 334 798 298 798 C261 798 233 770 233 737 L233 737 Z M428 737 C428 703 456 676 493 676 C529 676 557 703 557 737 C557 770 529 798 493 798 C456 798 428 770 428 737 L428 737 Z " />
<glyph glyph-name="Yacute" unicode="Ý" horiz-adv-x="495" d="M144 244 L93 -11 L241 0 L287 238 L559 646 L445 660 L253 345 L248 345 L188 659 L54 650 L144 244 Z M261 717 L299 673 L496 806 L437 880 L261 717 Z " />
<glyph glyph-name="Thorn" unicode="Þ" horiz-adv-x="495" d="M482 341 C498 448 439 531 305 531 C286 531 265 530 244 528 L269 658 L138 651 L10 -6 L141 0 L161 107 C172 106 182 106 192 106 C353 106 458 201 482 341 L482 341 Z M345 328 C335 254 306 178 222 187 L181 192 L225 431 C225 431 240 435 280 435 C319 435 357 415 345 328 L345 328 Z " />
<glyph glyph-name="germandbls" unicode="ß" horiz-adv-x="653" d="M301 419 C322 525 342 595 405 595 C471 595 487 561 470 477 C430 469 357 443 341 360 C325 277 415 220 443 202 C461 189 502 166 499 138 C493 88 450 78 423 78 C385 78 308 114 308 114 L271 32 C271 32 330 -7 405 -7 C508 -7 621 37 635 144 C646 230 577 266 520 299 C486 319 466 336 466 366 C466 422 525 452 604 457 C622 550 577 655 441 662 C259 671 187 570 159 428 L75 0 L219 0 L301 419 Z " />
<glyph glyph-name="agrave" unicode="à" horiz-adv-x="484" d="M472 396 C472 396 401 422 334 427 C246 434 76 398 39 241 C12 127 14 -13 151 -13 C170 -13 250 39 280 60 C279 53 291 -13 291 -13 L399 1 L472 396 Z M292 147 C292 147 245 100 220 91 C180 76 155 102 176 221 C195 327 250 348 293 348 C318 348 329 340 329 340 L292 147 Z M190 569 L355 437 L405 490 L257 642 L190 569 Z " />
<glyph glyph-name="aacute" unicode="á" horiz-adv-x="484" d="M472 396 C472 396 401 422 334 427 C246 434 76 398 39 241 C12 127 14 -13 151 -13 C170 -13 250 39 280 60 C279 53 291 -13 291 -13 L399 1 L472 396 Z M292 147 C292 147 245 100 220 91 C180 76 155 102 176 221 C195 327 250 348 293 348 C318 348 329 340 329 340 L292 147 Z M175 486 L213 442 L410 575 L351 649 L175 486 Z " />
<glyph glyph-name="acircumflex" unicode="â" horiz-adv-x="484" d="M472 396 C472 396 401 422 334 427 C246 434 76 398 39 241 C12 127 14 -13 151 -13 C170 -13 250 39 280 60 C279 53 291 -13 291 -13 L399 1 L472 396 Z M292 147 C292 147 245 100 220 91 C180 76 155 102 176 221 C195 327 250 348 293 348 C318 348 329 340 329 340 L292 147 Z M153 485 L193 449 L306 543 L384 447 L433 483 L348 619 L281 619 L153 485 Z " />
<glyph glyph-name="atilde" unicode="ã" horiz-adv-x="484" d="M472 396 C472 396 401 422 334 427 C246 434 76 398 39 241 C12 127 14 -13 151 -13 C170 -13 250 39 280 60 C279 53 291 -13 291 -13 L399 1 L472 396 Z M292 147 C292 147 245 100 220 91 C180 76 155 102 176 221 C195 327 250 348 293 348 C318 348 329 340 329 340 L292 147 Z M138 463 L194 459 C194 459 206 519 240 519 C273 519 310 457 364 457 C417 457 448 512 463 589 L408 592 C393 541 381 542 367 542 C331 542 307 595 245 595 C203 595 160 553 138 463 L138 463 Z " />
<glyph glyph-name="adieresis" unicode="ä" horiz-adv-x="484" d="M472 396 C472 396 401 422 334 427 C246 434 76 398 39 241 C12 127 14 -13 151 -13 C170 -13 250 39 280 60 C279 53 291 -13 291 -13 L399 1 L472 396 Z M292 147 C292 147 245 100 220 91 C180 76 155 102 176 221 C195 327 250 348 293 348 C318 348 329 340 329 340 L292 147 Z M127 506 C127 472 155 445 192 445 C228 445 256 472 256 506 C256 539 228 567 192 567 C155 567 127 539 127 506 L127 506 Z M322 506 C322 472 350 445 387 445 C423 445 451 472 451 506 C451 539 423 567 387 567 C350 567 322 539 322 506 L322 506 Z " />
<glyph glyph-name="aring" unicode="å" horiz-adv-x="484" d="M472 396 C472 396 401 422 334 427 C246 434 76 398 39 241 C12 127 14 -13 151 -13 C170 -13 250 39 280 60 C279 53 291 -13 291 -13 L399 1 L472 396 Z M292 147 C292 147 245 100 220 91 C180 76 155 102 176 221 C195 327 250 348 293 348 C318 348 329 340 329 340 L292 147 Z M279 546 C286 582 303 593 332 593 C361 593 371 573 367 546 C363 515 349 498 314 498 C285 498 274 518 279 546 L279 546 Z M305 453 C366 453 425 501 433 545 C442 597 402 638 341 638 C280 638 222 597 212 545 C202 494 244 453 305 453 L305 453 Z " />
<glyph glyph-name="ae" unicode="æ" horiz-adv-x="720" d="M538 428 C501 428 457 413 417 388 C387 402 343 421 303 427 C216 439 77 400 37 253 C12 161 2 -6 139 -6 C180 -6 258 62 296 99 C320 19 396 -10 460 -7 C514 -4 646 45 646 45 L641 102 C641 102 543 78 491 78 C439 78 419 128 427 181 L680 210 C680 210 693 244 697 274 C712 392 614 428 538 428 L538 428 Z M282 153 C282 153 233 107 208 98 C168 83 144 111 165 230 C186 348 225 371 267 364 C293 360 319 341 319 341 L282 153 Z M562 268 C546 264 434 247 434 247 C441 312 474 344 525 346 C574 348 570 301 562 268 L562 268 Z " />
<glyph glyph-name="ccedilla" unicode="ç" horiz-adv-x="408" d="M410 401 C410 401 359 426 279 426 C173 426 50 358 27 211 C-1 32 106 -9 167 -9 C234 -9 307 13 363 41 L346 104 C346 104 270 78 229 78 C160 78 146 115 165 218 C184 322 242 341 283 345 C335 350 390 330 390 330 L410 401 Z M236 19 L137 -69 L142 -106 C142 -106 200 -103 190 -158 C180 -207 95 -205 95 -205 L92 -263 C92 -263 268 -255 281 -156 C292 -70 226 -63 226 -63 L315 19 L236 19 Z " />
<glyph glyph-name="egrave" unicode="è" horiz-adv-x="452" d="M272 428 C185 428 55 347 29 223 C-8 47 104 -16 194 -12 C248 -9 382 36 382 36 L366 107 C366 107 277 78 225 78 C173 78 153 128 161 181 L414 210 C414 210 427 244 431 274 C446 392 348 428 272 428 L272 428 Z M296 272 C280 268 168 251 168 251 C175 316 208 344 259 346 C308 348 304 305 296 272 L296 272 Z M175 569 L340 437 L390 490 L242 642 L175 569 Z " />
<glyph glyph-name="eacute" unicode="é" horiz-adv-x="452" d="M272 428 C185 428 55 347 29 223 C-8 47 104 -16 194 -12 C248 -9 382 36 382 36 L366 107 C366 107 277 78 225 78 C173 78 153 128 161 181 L414 210 C414 210 427 244 431 274 C446 392 348 428 272 428 L272 428 Z M296 272 C280 268 168 251 168 251 C175 316 208 344 259 346 C308 348 304 305 296 272 L296 272 Z M134 486 L172 442 L369 575 L310 649 L134 486 Z " />
<glyph glyph-name="ecircumflex" unicode="ê" horiz-adv-x="452" d="M272 428 C185 428 55 347 29 223 C-8 47 104 -16 194 -12 C248 -9 382 36 382 36 L366 107 C366 107 277 78 225 78 C173 78 153 128 161 181 L414 210 C414 210 427 244 431 274 C446 392 348 428 272 428 L272 428 Z M296 272 C280 268 168 251 168 251 C175 316 208 344 259 346 C308 348 304 305 296 272 L296 272 Z M130 485 L170 449 L283 543 L361 447 L410 483 L325 619 L258 619 L130 485 Z " />
<glyph glyph-name="edieresis" unicode="ë" horiz-adv-x="452" d="M272 428 C185 428 55 347 29 223 C-8 47 104 -16 194 -12 C248 -9 382 36 382 36 L366 107 C366 107 277 78 225 78 C173 78 153 128 161 181 L414 210 C414 210 427 244 431 274 C446 392 348 428 272 428 L272 428 Z M296 272 C280 268 168 251 168 251 C175 316 208 344 259 346 C308 348 304 305 296 272 L296 272 Z M104 506 C104 472 132 445 169 445 C205 445 233 472 233 506 C233 539 205 567 169 567 C132 567 104 539 104 506 L104 506 Z M299 506 C299 472 327 445 364 445 C400 445 428 472 428 506 C428 539 400 567 364 567 C327 567 299 539 299 506 L299 506 Z " />
<glyph glyph-name="igrave" unicode="ì" horiz-adv-x="238" d="M231 427 L92 416 L10 -10 L148 0 L231 427 Z M72 569 L237 437 L287 490 L139 642 L72 569 Z " />
<glyph glyph-name="iacute" unicode="í" horiz-adv-x="236" d="M231 427 L92 416 L10 -10 L148 0 L231 427 Z M38 486 L76 442 L273 575 L214 649 L38 486 Z " />
<glyph glyph-name="icircumflex" unicode="î" horiz-adv-x="238" d="M231 427 L92 416 L10 -10 L148 0 L231 427 Z M27 485 L67 449 L180 543 L258 447 L307 483 L222 619 L155 619 L27 485 Z " />
<glyph glyph-name="idieresis" unicode="ï" horiz-adv-x="238" d="M231 427 L92 416 L10 -10 L148 0 L231 427 Z M4 506 C4 472 32 445 69 445 C105 445 133 472 133 506 C133 539 105 567 69 567 C32 567 4 539 4 506 L4 506 Z M199 506 C199 472 227 445 264 445 C300 445 328 472 328 506 C328 539 300 567 264 567 C227 567 199 539 199 506 L199 506 Z " />
<glyph glyph-name="eth" unicode="ð" horiz-adv-x="490" d="M349 387 C327 423 288 429 263 429 C177 429 60 370 27 226 C-3 90 70 -4 190 -4 C306 -4 419 62 455 239 C485 382 477 528 402 610 L486 670 L452 719 L354 650 C317 674 268 691 207 701 L172 616 C172 616 216 612 261 585 L180 529 L215 478 L309 544 C336 510 355 460 349 387 L349 387 Z M210 84 C156 84 142 129 159 218 C178 315 224 347 263 347 C322 347 334 304 318 222 C300 129 264 84 210 84 L210 84 Z " />
<glyph glyph-name="ntilde" unicode="ñ" horiz-adv-x="492" d="M468 311 C483 388 423 427 369 427 C310 427 253 388 212 355 L191 427 L93 420 L9 -12 L147 0 L199 268 C210 282 252 312 281 317 C311 322 333 306 325 266 L275 -12 L409 2 L468 311 Z M139 463 L195 459 C195 459 207 519 241 519 C274 519 311 457 365 457 C418 457 449 512 464 589 L409 592 C394 541 382 542 368 542 C332 542 308 595 246 595 C204 595 161 553 139 463 L139 463 Z " />
<glyph glyph-name="ograve" unicode="ò" horiz-adv-x="488" d="M296 428 C171 441 49 366 27 215 C8 82 77 -3 203 -12 C313 -20 437 55 462 198 C488 348 395 418 296 428 L296 428 Z M276 340 C333 334 335 284 321 208 C304 114 267 69 217 76 C155 85 155 142 165 208 C180 306 220 346 276 340 L276 340 Z M181 569 L346 437 L396 490 L248 642 L181 569 Z " />
<glyph glyph-name="oacute" unicode="ó" horiz-adv-x="488" d="M296 428 C171 441 49 366 27 215 C8 82 77 -3 203 -12 C313 -20 437 55 462 198 C488 348 395 418 296 428 L296 428 Z M276 340 C333 334 335 284 321 208 C304 114 267 69 217 76 C155 85 155 142 165 208 C180 306 220 346 276 340 L276 340 Z M159 486 L197 442 L394 575 L335 649 L159 486 Z " />
<glyph glyph-name="ocircumflex" unicode="ô" horiz-adv-x="488" d="M296 428 C171 441 49 366 27 215 C8 82 77 -3 203 -12 C313 -20 437 55 462 198 C488 348 395 418 296 428 L296 428 Z M276 340 C333 334 335 284 321 208 C304 114 267 69 217 76 C155 85 155 142 165 208 C180 306 220 346 276 340 L276 340 Z M134 485 L174 449 L287 543 L365 447 L414 483 L329 619 L262 619 L134 485 Z " />
<glyph glyph-name="otilde" unicode="õ" horiz-adv-x="488" d="M296 428 C171 441 49 366 27 215 C8 82 77 -3 203 -12 C313 -20 437 55 462 198 C488 348 395 418 296 428 L296 428 Z M276 340 C333 334 335 284 321 208 C304 114 267 69 217 76 C155 85 155 142 165 208 C180 306 220 346 276 340 L276 340 Z M133 463 L189 459 C189 459 201 519 235 519 C268 519 305 457 359 457 C412 457 443 512 458 589 L403 592 C388 541 376 542 362 542 C326 542 302 595 240 595 C198 595 155 553 133 463 L133 463 Z " />
<glyph glyph-name="odieresis" unicode="ö" horiz-adv-x="488" d="M296 428 C171 441 49 366 27 215 C8 82 77 -3 203 -12 C313 -20 437 55 462 198 C488 348 395 418 296 428 L296 428 Z M276 340 C333 334 335 284 321 208 C304 114 267 69 217 76 C155 85 155 142 165 208 C180 306 220 346 276 340 L276 340 Z M110 506 C110 472 138 445 175 445 C211 445 239 472 239 506 C239 539 211 567 175 567 C138 567 110 539 110 506 L110 506 Z M305 506 C305 472 333 445 370 445 C406 445 434 472 434 506 C434 539 406 567 370 567 C333 567 305 539 305 506 L305 506 Z " />
<glyph glyph-name="divide" unicode="÷" horiz-adv-x="532" d="M211 509 C211 470 244 438 286 438 C327 438 361 470 361 509 C361 548 327 580 286 580 C244 580 211 548 211 509 L211 509 Z M211 147 C211 108 244 76 286 76 C327 76 361 108 361 147 C361 186 327 218 286 218 C244 218 211 186 211 147 L211 147 Z M515 376 L48 376 L45 282 L511 282 L515 376 Z " />
<glyph glyph-name="oslash" unicode="ø" horiz-adv-x="489" d="M-4 -14 C-5 -12 50 -58 50 -58 L116 15 C143 1 174 -6 206 -6 C316 -6 438 72 463 198 C477 271 461 327 430 366 L493 436 L434 481 C434 481 407 450 372 411 C349 422 323 428 297 428 C171 428 53 347 28 215 C15 151 31 98 62 59 C23 15 -4 -14 -4 -14 L-4 -14 Z M218 76 C188 79 181 95 173 102 L331 276 C333 207 299 68 218 76 L218 76 Z M275 349 C306 346 310 330 318 323 L161 149 C156 212 177 358 275 349 L275 349 Z " />
<glyph glyph-name="ugrave" unicode="ù" horiz-adv-x="479" d="M390 0 L475 427 L339 420 C339 420 280 129 280 129 C237 95 155 72 173 164 L222 427 L85 420 C85 420 35 154 30 111 C20 26 94 -23 165 -10 C218 0 278 60 278 60 L300 -12 L390 0 Z M200 569 L365 437 L415 490 L267 642 L200 569 Z " />
<glyph glyph-name="uacute" unicode="ú" horiz-adv-x="479" d="M390 0 L475 427 L339 420 C339 420 280 129 280 129 C237 95 155 72 173 164 L222 427 L85 420 C85 420 35 154 30 111 C20 26 94 -23 165 -10 C218 0 278 60 278 60 L300 -12 L390 0 Z M182 486 L220 442 L417 575 L358 649 L182 486 Z " />
<glyph glyph-name="ucircumflex" unicode="û" horiz-adv-x="479" d="M390 0 L475 427 L339 420 C339 420 280 129 280 129 C237 95 155 72 173 164 L222 427 L85 420 C85 420 35 154 30 111 C20 26 94 -23 165 -10 C218 0 278 60 278 60 L300 -12 L390 0 Z M151 485 L191 449 L304 543 L382 447 L431 483 L346 619 L279 619 L151 485 Z " />
<glyph glyph-name="udieresis" unicode="ü" horiz-adv-x="479" d="M390 0 L475 427 L339 420 C339 420 280 129 280 129 C237 95 155 72 173 164 L222 427 L85 420 C85 420 35 154 30 111 C20 26 94 -23 165 -10 C218 0 278 60 278 60 L300 -12 L390 0 Z M120 506 C120 472 148 445 185 445 C221 445 249 472 249 506 C249 539 221 567 185 567 C148 567 120 539 120 506 L120 506 Z M315 506 C315 472 343 445 380 445 C416 445 444 472 444 506 C444 539 416 567 380 567 C343 567 315 539 315 506 L315 506 Z " />
<glyph glyph-name="yacute" unicode="ý" horiz-adv-x="417" d="M337 427 L182 138 L172 427 L35 420 L74 39 L119 38 L-10 -189 L105 -217 L452 397 L337 427 Z M147 486 L185 442 L382 575 L323 649 L147 486 Z " />
<glyph glyph-name="thorn" unicode="þ" horiz-adv-x="486" d="M238 85 C220 82 194 86 169 96 L214 326 C236 330 274 337 287 337 C324 335 333 284 319 211 C303 130 274 90 238 85 L238 85 Z M318 427 C304 425 263 415 231 408 L279 658 L138 651 L-31 -218 L109 -212 L155 21 C163 16 200 -4 224 -6 C318 -11 437 75 467 227 C496 379 387 434 318 427 L318 427 Z " />
<glyph glyph-name="ydieresis" unicode="ÿ" horiz-adv-x="417" d="M337 427 L182 138 L172 427 L35 420 L74 39 L119 38 L-10 -189 L105 -217 L452 397 L337 427 Z M89 506 C89 472 117 445 154 445 C190 445 218 472 218 506 C218 539 190 567 154 567 C117 567 89 539 89 506 L89 506 Z M284 506 C284 472 312 445 349 445 C385 445 413 472 413 506 C413 539 385 567 349 567 C312 567 284 539 284 506 L284 506 Z " />
<glyph glyph-name="Amacron" unicode="Ā" horiz-adv-x="565" d="M237 252 L339 512 L348 252 L237 252 Z M515 0 L444 658 L288 651 L-42 0 L113 -13 L191 158 L355 158 C355 158 364 -3 366 -12 L515 0 Z M484 745 L269 745 L256 677 L471 677 L484 745 Z " />
<glyph glyph-name="amacron" unicode="ā" horiz-adv-x="484" d="M472 396 C472 396 401 422 334 427 C246 434 76 398 39 241 C12 127 14 -13 151 -13 C170 -13 250 39 280 60 C279 53 291 -13 291 -13 L399 1 L472 396 Z M292 147 C292 147 245 100 220 91 C180 76 155 102 176 221 C195 327 250 348 293 348 C318 348 329 340 329 340 L292 147 Z M418 514 L203 514 L190 446 L405 446 L418 514 Z " />
<glyph glyph-name="Abreve" unicode="Ă" horiz-adv-x="565" d="M237 252 L339 512 L348 252 L237 252 Z M515 0 L444 658 L288 651 L-42 0 L113 -13 L191 158 L355 158 C355 158 364 -3 366 -12 L515 0 Z M251 796 C251 796 264 672 373 672 C478 672 511 794 511 794 L454 803 C454 803 432 739 372 746 C326 751 311 808 311 808 L251 796 Z " />
<glyph glyph-name="abreve" unicode="ă" horiz-adv-x="484" d="M472 396 C472 396 401 422 334 427 C246 434 76 398 39 241 C12 127 14 -13 151 -13 C170 -13 250 39 280 60 C279 53 291 -13 291 -13 L399 1 L472 396 Z M292 147 C292 147 245 100 220 91 C180 76 155 102 176 221 C195 327 250 348 293 348 C318 348 329 340 329 340 L292 147 Z M168 565 C168 565 181 441 290 441 C395 441 428 563 428 563 L371 572 C371 572 349 508 289 515 C243 520 228 577 228 577 L168 565 Z " />
<glyph glyph-name="Aogonek" unicode="Ą" horiz-adv-x="565" d="M237 252 L339 512 L348 252 L237 252 Z M515 0 L444 658 L288 651 L-42 0 L113 -13 L191 158 L355 158 C355 158 364 -3 366 -12 L515 0 Z M445 3 C445 3 343 -47 323 -133 C307 -196 356 -246 410 -246 C464 -246 507 -220 507 -220 L507 -166 C507 -166 489 -171 471 -171 C445 -171 410 -164 411 -121 C413 -47 512 3 512 3 L445 3 Z " />
<glyph glyph-name="aogonek" unicode="ą" horiz-adv-x="484" d="M472 396 C472 396 401 422 334 427 C246 434 76 398 39 241 C12 127 14 -13 151 -13 C170 -13 250 39 280 60 C279 53 291 -13 291 -13 L399 1 L472 396 Z M292 147 C292 147 245 100 220 91 C180 76 155 102 176 221 C195 327 250 348 293 348 C318 348 329 340 329 340 L292 147 Z M332 3 C332 3 230 -47 210 -133 C194 -196 243 -246 297 -246 C351 -246 394 -220 394 -220 L394 -166 C394 -166 376 -171 358 -171 C332 -171 297 -164 298 -121 C300 -47 399 3 399 3 L332 3 Z " />
<glyph glyph-name="Cacute" unicode="Ć" horiz-adv-x="570" d="M578 620 C578 620 502 662 382 657 C221 650 91 528 52 346 C15 172 70 2 256 -12 C334 -18 495 32 495 32 L485 124 C485 124 378 90 294 97 C205 104 172 196 199 330 C226 465 295 568 412 562 C491 558 548 533 548 533 L578 620 Z M313 717 L351 673 L548 806 L489 880 L313 717 Z " />
<glyph glyph-name="cacute" unicode="ć" horiz-adv-x="408" d="M410 401 C410 401 359 426 279 426 C173 426 50 358 27 211 C-1 32 106 -9 167 -9 C234 -9 307 13 363 41 L346 104 C346 104 270 78 229 78 C160 78 146 115 165 218 C184 322 242 341 283 345 C335 350 390 330 390 330 L410 401 Z M193 486 L231 442 L428 575 L369 649 L193 486 Z " />
<glyph glyph-name="Ccircumflex" unicode="Ĉ" horiz-adv-x="570" d="M578 620 C578 620 502 662 382 657 C221 650 91 528 52 346 C15 172 70 2 256 -12 C334 -18 495 32 495 32 L485 124 C485 124 378 90 294 97 C205 104 172 196 199 330 C226 465 295 568 412 562 C491 558 548 533 548 533 L578 620 Z M270 716 L310 680 L423 774 L501 678 L550 714 L465 850 L398 850 L270 716 Z " />
<glyph glyph-name="ccircumflex" unicode="ĉ" horiz-adv-x="408" d="M410 401 C410 401 359 426 279 426 C173 426 50 358 27 211 C-1 32 106 -9 167 -9 C234 -9 307 13 363 41 L346 104 C346 104 270 78 229 78 C160 78 146 115 165 218 C184 322 242 341 283 345 C335 350 390 330 390 330 L410 401 Z M132 485 L172 449 L285 543 L363 447 L412 483 L327 619 L260 619 L132 485 Z " />
<glyph glyph-name="Cdotaccent" unicode="Ċ" horiz-adv-x="570" d="M578 620 C578 620 502 662 382 657 C221 650 91 528 52 346 C15 172 70 2 256 -12 C334 -18 495 32 495 32 L485 124 C485 124 378 90 294 97 C205 104 172 196 199 330 C226 465 295 568 412 562 C491 558 548 533 548 533 L578 620 Z M384 747 C384 713 412 685 450 685 C486 685 515 713 515 747 C515 781 486 810 450 810 C412 810 384 781 384 747 L384 747 Z " />
<glyph glyph-name="cdotaccent" unicode="ċ" horiz-adv-x="408" d="M410 401 C410 401 359 426 279 426 C173 426 50 358 27 211 C-1 32 106 -9 167 -9 C234 -9 307 13 363 41 L346 104 C346 104 270 78 229 78 C160 78 146 115 165 218 C184 322 242 341 283 345 C335 350 390 330 390 330 L410 401 Z M223 516 C223 482 251 454 289 454 C325 454 354 482 354 516 C354 550 325 579 289 579 C251 579 223 550 223 516 L223 516 Z " />
<glyph glyph-name="Ccaron" unicode="Č" horiz-adv-x="570" d="M578 620 C578 620 502 662 382 657 C221 650 91 528 52 346 C15 172 70 2 256 -12 C334 -18 495 32 495 32 L485 124 C485 124 378 90 294 97 C205 104 172 196 199 330 C226 465 295 568 412 562 C491 558 548 533 548 533 L578 620 Z M278 824 L360 680 L428 680 L560 820 L522 855 L405 754 L323 855 L278 824 Z " />
<glyph glyph-name="ccaron" unicode="č" horiz-adv-x="408" d="M410 401 C410 401 359 426 279 426 C173 426 50 358 27 211 C-1 32 106 -9 167 -9 C234 -9 307 13 363 41 L346 104 C346 104 270 78 229 78 C160 78 146 115 165 218 C184 322 242 341 283 345 C335 350 390 330 390 330 L410 401 Z M165 593 L247 449 L315 449 L447 589 L409 624 L292 523 L210 624 L165 593 Z " />
<glyph glyph-name="Dcaron" unicode="Ď" horiz-adv-x="632" d="M219 -13 C390 -13 564 84 613 343 C658 580 504 664 358 659 C279 656 155 644 155 644 L33 17 C87 -1 162 -13 219 -13 L219 -13 Z M284 562 C299 564 314 565 329 565 C439 565 492 512 461 328 C430 143 362 86 242 88 C222 88 194 93 194 93 L284 562 Z M283 824 L365 680 L433 680 L565 820 L527 855 L410 754 L328 855 L283 824 Z " />
<glyph glyph-name="dcaron" unicode="ď" horiz-adv-x="721" d="M669 700 C630 700 590 677 589 628 C588 597 603 576 624 564 C630 561 640 558 633 542 C615 495 543 437 543 437 L577 398 C648 445 726 503 743 593 C754 648 721 699 669 700 L669 700 Z M216 95 C177 92 146 117 165 216 C185 315 226 351 280 346 C308 343 340 331 340 331 C340 331 315 203 302 140 C277 110 239 97 216 95 L216 95 Z M547 695 L414 685 L358 420 C358 420 311 426 292 427 C189 430 59 370 29 224 C-8 45 114 -37 208 -3 C244 10 288 55 288 55 L313 -14 L411 0 L547 695 Z " />
<glyph glyph-name="Dcroat" unicode="Đ" horiz-adv-x="632" d="M219 -13 C390 -13 564 84 613 343 C658 580 504 664 358 659 C279 656 155 644 155 644 L33 17 C87 -1 162 -13 219 -13 L219 -13 Z M284 562 C299 564 314 565 329 565 C439 565 492 512 461 328 C430 143 362 86 242 88 C222 88 194 93 194 93 L284 562 Z M489 745 L274 745 L261 677 L476 677 L489 745 Z " />
<glyph glyph-name="dcroat" unicode="đ" horiz-adv-x="500" d="M582 553 L224 553 L212 483 L570 483 L582 553 Z M216 95 C177 92 146 117 165 216 C185 315 226 351 280 346 C308 343 340 331 340 331 C340 331 315 203 302 140 C277 110 239 97 216 95 L216 95 Z M547 695 L414 685 L358 420 C358 420 311 426 292 427 C189 430 59 370 29 224 C-8 45 114 -37 208 -3 C244 10 288 55 288 55 L313 -14 L411 0 L547 695 Z " />
<glyph glyph-name="Emacron" unicode="Ē" horiz-adv-x="515" d="M436 92 L195 92 L235 295 L448 295 L466 387 L253 387 L287 562 L520 562 L537 651 L156 651 L31 0 L420 0 L436 92 Z M482 745 L267 745 L254 677 L469 677 L482 745 Z " />
<glyph glyph-name="emacron" unicode="ē" horiz-adv-x="452" d="M272 428 C185 428 55 347 29 223 C-8 47 104 -16 194 -12 C248 -9 382 36 382 36 L366 107 C366 107 277 78 225 78 C173 78 153 128 161 181 L414 210 C414 210 427 244 431 274 C446 392 348 428 272 428 L272 428 Z M296 272 C280 268 168 251 168 251 C175 316 208 344 259 346 C308 348 304 305 296 272 L296 272 Z M412 514 L197 514 L184 446 L399 446 L412 514 Z " />
<glyph glyph-name="Ebreve" unicode="Ĕ" horiz-adv-x="515" d="M436 92 L195 92 L235 295 L448 295 L466 387 L253 387 L287 562 L520 562 L537 651 L156 651 L31 0 L420 0 L436 92 Z M258 796 C258 796 271 672 380 672 C485 672 518 794 518 794 L461 803 C461 803 439 739 379 746 C333 751 318 808 318 808 L258 796 Z " />
<glyph glyph-name="ebreve" unicode="ĕ" horiz-adv-x="452" d="M272 428 C185 428 55 347 29 223 C-8 47 104 -16 194 -12 C248 -9 382 36 382 36 L366 107 C366 107 277 78 225 78 C173 78 153 128 161 181 L414 210 C414 210 427 244 431 274 C446 392 348 428 272 428 L272 428 Z M296 272 C280 268 168 251 168 251 C175 316 208 344 259 346 C308 348 304 305 296 272 L296 272 Z M160 565 C160 565 173 441 282 441 C387 441 420 563 420 563 L363 572 C363 572 341 508 281 515 C235 520 220 577 220 577 L160 565 Z " />
<glyph glyph-name="Edotaccent" unicode="Ė" horiz-adv-x="515" d="M436 92 L195 92 L235 295 L448 295 L466 387 L253 387 L287 562 L520 562 L537 651 L156 651 L31 0 L420 0 L436 92 Z M306 747 C306 713 334 685 372 685 C408 685 437 713 437 747 C437 781 408 810 372 810 C334 810 306 781 306 747 L306 747 Z " />
<glyph glyph-name="edotaccent" unicode="ė" horiz-adv-x="452" d="M272 428 C185 428 55 347 29 223 C-8 47 104 -16 194 -12 C248 -9 382 36 382 36 L366 107 C366 107 277 78 225 78 C173 78 153 128 161 181 L414 210 C414 210 427 244 431 274 C446 392 348 428 272 428 L272 428 Z M296 272 C280 268 168 251 168 251 C175 316 208 344 259 346 C308 348 304 305 296 272 L296 272 Z M226 516 C226 482 254 454 292 454 C328 454 357 482 357 516 C357 550 328 579 292 579 C254 579 226 550 226 516 L226 516 Z " />
<glyph glyph-name="Eogonek" unicode="Ę" horiz-adv-x="515" d="M436 92 L195 92 L235 295 L448 295 L466 387 L253 387 L287 562 L520 562 L537 651 L156 651 L31 0 L420 0 L436 92 Z M338 3 C338 3 236 -47 216 -133 C200 -196 249 -246 303 -246 C357 -246 400 -220 400 -220 L400 -166 C400 -166 382 -171 364 -171 C338 -171 303 -164 304 -121 C306 -47 405 3 405 3 L338 3 Z " />
<glyph glyph-name="eogonek" unicode="ę" horiz-adv-x="452" d="M272 428 C185 428 55 347 29 223 C-8 47 104 -16 194 -12 C248 -9 382 36 382 36 L366 107 C366 107 277 78 225 78 C173 78 153 128 161 181 L414 210 C414 210 427 244 431 274 C446 392 348 428 272 428 L272 428 Z M296 272 C280 268 168 251 168 251 C175 316 208 344 259 346 C308 348 304 305 296 272 L296 272 Z M190 3 C190 3 88 -47 68 -133 C52 -196 101 -246 155 -246 C209 -246 252 -220 252 -220 L252 -166 C252 -166 234 -171 216 -171 C190 -171 155 -164 156 -121 C158 -47 257 3 257 3 L190 3 Z " />
<glyph glyph-name="Ecaron" unicode="Ě" horiz-adv-x="515" d="M436 92 L195 92 L235 295 L448 295 L466 387 L253 387 L287 562 L520 562 L537 651 L156 651 L31 0 L420 0 L436 92 Z M245 824 L327 680 L395 680 L527 820 L489 855 L372 754 L290 855 L245 824 Z " />
<glyph glyph-name="ecaron" unicode="ě" horiz-adv-x="452" d="M272 428 C185 428 55 347 29 223 C-8 47 104 -16 194 -12 C248 -9 382 36 382 36 L366 107 C366 107 277 78 225 78 C173 78 153 128 161 181 L414 210 C414 210 427 244 431 274 C446 392 348 428 272 428 L272 428 Z M296 272 C280 268 168 251 168 251 C175 316 208 344 259 346 C308 348 304 305 296 272 L296 272 Z M177 593 L259 449 L327 449 L459 589 L421 624 L304 523 L222 624 L177 593 Z " />
<glyph glyph-name="Gcircumflex" unicode="Ĝ" horiz-adv-x="617" d="M52 346 C5 126 113 -12 256 -12 C357 -12 431 16 516 43 L569 315 L444 330 L401 113 C401 113 346 99 317 98 C221 96 166 165 199 330 C226 465 295 568 412 562 C491 558 563 537 563 537 L593 624 C593 624 502 662 382 657 C221 650 91 528 52 346 L52 346 Z M282 716 L322 680 L435 774 L513 678 L562 714 L477 850 L410 850 L282 716 Z " />
<glyph glyph-name="gcircumflex" unicode="ĝ" horiz-adv-x="500" d="M305 132 C305 132 255 92 229 92 C180 92 152 138 168 217 C191 331 240 353 283 345 C309 340 344 330 344 330 L305 132 Z M271 -46 C258 -110 213 -124 188 -128 C156 -132 39 -111 39 -111 L17 -181 C17 -181 156 -226 231 -216 C304 -206 375 -169 396 -68 L497 427 L387 420 L368 387 C354 396 318 420 275 424 C144 435 50 326 30 224 C2 82 84 -5 181 1 C213 3 254 22 290 46 L271 -46 Z M187 485 L227 449 L340 543 L418 447 L467 483 L382 619 L315 619 L187 485 Z " />
<glyph glyph-name="Gbreve" unicode="Ğ" horiz-adv-x="617" d="M52 346 C5 126 113 -12 256 -12 C357 -12 431 16 516 43 L569 315 L444 330 L401 113 C401 113 346 99 317 98 C221 96 166 165 199 330 C226 465 295 568 412 562 C491 558 563 537 563 537 L593 624 C593 624 502 662 382 657 C221 650 91 528 52 346 L52 346 Z M296 796 C296 796 309 672 418 672 C523 672 556 794 556 794 L499 803 C499 803 477 739 417 746 C371 751 356 808 356 808 L296 796 Z " />
<glyph glyph-name="gbreve" unicode="ğ" horiz-adv-x="500" d="M305 132 C305 132 255 92 229 92 C180 92 152 138 168 217 C191 331 240 353 283 345 C309 340 344 330 344 330 L305 132 Z M271 -46 C258 -110 213 -124 188 -128 C156 -132 39 -111 39 -111 L17 -181 C17 -181 156 -226 231 -216 C304 -206 375 -169 396 -68 L497 427 L387 420 L368 387 C354 396 318 420 275 424 C144 435 50 326 30 224 C2 82 84 -5 181 1 C213 3 254 22 290 46 L271 -46 Z M187 565 C187 565 200 441 309 441 C414 441 447 563 447 563 L390 572 C390 572 368 508 308 515 C262 520 247 577 247 577 L187 565 Z " />
<glyph glyph-name="Gdotaccent" unicode="Ġ" horiz-adv-x="617" d="M52 346 C5 126 113 -12 256 -12 C357 -12 431 16 516 43 L569 315 L444 330 L401 113 C401 113 346 99 317 98 C221 96 166 165 199 330 C226 465 295 568 412 562 C491 558 563 537 563 537 L593 624 C593 624 502 662 382 657 C221 650 91 528 52 346 L52 346 Z M356 747 C356 713 384 685 422 685 C458 685 487 713 487 747 C487 781 458 810 422 810 C384 810 356 781 356 747 L356 747 Z " />
<glyph glyph-name="gdotaccent" unicode="ġ" horiz-adv-x="500" d="M305 132 C305 132 255 92 229 92 C180 92 152 138 168 217 C191 331 240 353 283 345 C309 340 344 330 344 330 L305 132 Z M271 -46 C258 -110 213 -124 188 -128 C156 -132 39 -111 39 -111 L17 -181 C17 -181 156 -226 231 -216 C304 -206 375 -169 396 -68 L497 427 L387 420 L368 387 C354 396 318 420 275 424 C144 435 50 326 30 224 C2 82 84 -5 181 1 C213 3 254 22 290 46 L271 -46 Z M268 516 C268 482 296 454 334 454 C370 454 399 482 399 516 C399 550 370 579 334 579 C296 579 268 550 268 516 L268 516 Z " />
<glyph glyph-name="Gcommaaccent" unicode="Ģ" horiz-adv-x="617" d="M255 -61 C216 -61 176 -84 175 -133 C174 -164 189 -185 210 -197 C216 -200 226 -203 219 -219 C201 -266 129 -324 129 -324 L163 -363 C234 -316 312 -258 329 -168 C340 -113 307 -62 255 -61 L255 -61 Z M52 346 C5 126 113 -12 256 -12 C357 -12 431 16 516 43 L569 315 L444 330 L401 113 C401 113 346 99 317 98 C221 96 166 165 199 330 C226 465 295 568 412 562 C491 558 563 537 563 537 L593 624 C593 624 502 662 382 657 C221 650 91 528 52 346 L52 346 Z " />
<glyph glyph-name="gcommaaccent" unicode="ģ" horiz-adv-x="500" d="M287 501 C326 501 366 524 367 573 C368 604 353 625 332 637 C326 640 316 643 323 659 C341 706 413 764 413 764 L379 803 C308 756 230 698 213 608 C202 553 235 502 287 501 L287 501 Z M305 132 C305 132 255 92 229 92 C180 92 152 138 168 217 C191 331 240 353 283 345 C309 340 344 330 344 330 L305 132 Z M271 -46 C258 -110 213 -124 188 -128 C156 -132 39 -111 39 -111 L17 -181 C17 -181 156 -226 231 -216 C304 -206 375 -169 396 -68 L497 427 L387 420 L368 387 C354 396 318 420 275 424 C144 435 50 326 30 224 C2 82 84 -5 181 1 C213 3 254 22 290 46 L271 -46 Z " />
<glyph glyph-name="Hcircumflex" unicode="Ĥ" horiz-adv-x="666" d="M665 660 L517 651 L470 399 L254 399 L304 660 L159 651 L30 -12 L176 -1 L236 307 L452 307 L390 -12 L537 -1 L665 660 Z M290 716 L330 680 L443 774 L521 678 L570 714 L485 850 L418 850 L290 716 Z " />
<glyph glyph-name="hcircumflex" unicode="ĥ" horiz-adv-x="493" d="M410 2 L467 285 C488 387 423 427 369 427 C307 427 254 392 220 365 L285 695 L146 686 L11 -10 L150 0 L204 287 C215 298 254 312 273 314 C309 318 333 300 324 253 C315 205 274 -12 274 -12 L410 2 Z M164 736 L204 700 L317 794 L395 698 L444 734 L359 870 L292 870 L164 736 Z " />
<glyph glyph-name="Hbar" unicode="Ħ" horiz-adv-x="666" d="M715 509 L39 509 L29 460 L705 460 L715 509 Z M665 660 L517 651 L470 399 L254 399 L304 660 L159 651 L30 -12 L176 -1 L236 307 L452 307 L390 -12 L537 -1 L665 660 Z " />
<glyph glyph-name="hbar" unicode="ħ" horiz-adv-x="493" d="M413 553 L55 553 L43 483 L401 483 L413 553 Z M410 2 L467 285 C488 387 423 427 369 427 C307 427 254 392 220 365 L285 695 L146 686 L11 -10 L150 0 L204 287 C215 298 254 312 273 314 C309 318 333 300 324 253 C315 205 274 -12 274 -12 L410 2 Z " />
<glyph glyph-name="Itilde" unicode="Ĩ" horiz-adv-x="304" d="M175 1 L301 661 L156 651 L29 -12 L175 1 Z M70 694 L126 690 C126 690 138 750 172 750 C205 750 242 688 296 688 C349 688 380 743 395 820 L340 823 C325 772 313 773 299 773 C263 773 239 826 177 826 C135 826 92 784 70 694 L70 694 Z " />
<glyph glyph-name="itilde" unicode="ĩ" horiz-adv-x="238" d="M231 427 L92 416 L10 -10 L148 0 L231 427 Z M18 452 L74 448 C74 448 86 508 120 508 C153 508 190 446 244 446 C297 446 328 501 343 578 L288 581 C273 530 261 531 247 531 C211 531 187 584 125 584 C83 584 40 542 18 452 L18 452 Z " />
<glyph glyph-name="Imacron" unicode="Ī" horiz-adv-x="304" d="M175 1 L301 661 L156 651 L29 -12 L175 1 Z M366 745 L151 745 L138 677 L353 677 L366 745 Z " />
<glyph glyph-name="imacron" unicode="ī" horiz-adv-x="238" d="M231 427 L92 416 L10 -10 L148 0 L231 427 Z M289 514 L74 514 L61 446 L276 446 L289 514 Z " />
<glyph glyph-name="Ibreve" unicode="Ĭ" horiz-adv-x="304" d="M175 1 L301 661 L156 651 L29 -12 L175 1 Z M118 796 C118 796 131 672 240 672 C345 672 378 794 378 794 L321 803 C321 803 299 739 239 746 C193 751 178 808 178 808 L118 796 Z " />
<glyph glyph-name="ibreve" unicode="ĭ" horiz-adv-x="238" d="M231 427 L92 416 L10 -10 L148 0 L231 427 Z M46 565 C46 565 59 441 168 441 C273 441 306 563 306 563 L249 572 C249 572 227 508 167 515 C121 520 106 577 106 577 L46 565 Z " />
<glyph glyph-name="Iogonek" unicode="Į" horiz-adv-x="304" d="M175 1 L301 661 L156 651 L29 -12 L175 1 Z M102 3 C102 3 0 -47 -20 -133 C-36 -196 13 -246 67 -246 C121 -246 164 -220 164 -220 L164 -166 C164 -166 146 -171 128 -171 C102 -171 67 -164 68 -121 C70 -47 169 3 169 3 L102 3 Z " />
<glyph glyph-name="iogonek" unicode="į" horiz-adv-x="237" d="M231 427 L93 420 L10 -10 L148 0 L231 427 Z M116 599 C125 561 165 539 207 549 C249 559 276 597 267 634 C259 671 217 694 175 684 C134 674 107 636 116 599 L116 599 Z M72 3 C72 3 -30 -47 -50 -133 C-66 -196 -17 -246 37 -246 C91 -246 134 -220 134 -220 L134 -166 C134 -166 116 -171 98 -171 C72 -171 37 -164 38 -121 C40 -47 139 3 139 3 L72 3 Z " />
<glyph glyph-name="Idotaccent" unicode="İ" horiz-adv-x="304" d="M175 1 L301 661 L156 651 L29 -12 L175 1 Z M179 747 C179 713 207 685 245 685 C281 685 310 713 310 747 C310 781 281 810 245 810 C207 810 179 781 179 747 L179 747 Z " />
<glyph glyph-name="dotlessi" unicode="ı" horiz-adv-x="237" d="M231 427 L92 416 L10 -10 L148 0 L231 427 Z " />
<glyph glyph-name="IJ" unicode="Ĳ" horiz-adv-x="610" d="M175 1 L301 661 L156 651 L29 -12 L175 1 Z M357 106 C331 -26 225 -118 225 -118 L280 -180 C280 -180 466 -84 513 160 L610 660 L463 651 L357 106 Z " />
<glyph glyph-name="ij" unicode="ĳ" horiz-adv-x="469" d="M231 427 L93 420 L10 -10 L148 0 L231 427 Z M116 599 C125 561 165 539 207 549 C249 559 276 597 267 634 C259 671 217 694 175 684 C134 674 107 636 116 599 L116 599 Z M350 599 C359 561 399 539 441 549 C483 559 510 597 501 634 C493 671 451 694 409 684 C368 674 341 636 350 599 L350 599 Z M258 54 C236 -52 222 -92 173 -163 C179 -167 242 -215 249 -221 C346 -128 376 -31 395 65 C428 233 464 427 464 427 L328 420 L258 54 Z " />
<glyph glyph-name="Jcircumflex" unicode="Ĵ" horiz-adv-x="306" d="M53 106 C27 -26 -79 -118 -79 -118 L-24 -180 C-24 -180 162 -84 209 160 L306 660 L159 651 L53 106 Z M104 716 L144 680 L257 774 L335 678 L384 714 L299 850 L232 850 L104 716 Z " />
<glyph glyph-name="jcircumflex" unicode="ĵ" horiz-adv-x="232" d="M21 54 C-1 -52 -15 -92 -64 -163 C-58 -167 5 -215 12 -221 C109 -128 139 -31 158 65 C191 233 227 427 227 427 L91 420 L21 54 Z M31 485 L71 449 L184 543 L262 447 L311 483 L226 619 L159 619 L31 485 Z " />
<glyph glyph-name="Kcommaaccent" unicode="Ķ" horiz-adv-x="619" d="M255 -61 C216 -61 176 -84 175 -133 C174 -164 189 -185 210 -197 C216 -200 226 -203 219 -219 C201 -266 129 -324 129 -324 L163 -363 C234 -316 312 -258 329 -168 C340 -113 307 -62 255 -61 L255 -61 Z M557 14 L377 339 L653 586 L545 670 L245 366 L302 660 L157 651 L27 -12 L174 0 L242 352 L398 -26 L557 14 Z " />
<glyph glyph-name="kcommaaccent" unicode="ķ" horiz-adv-x="479" d="M230 -61 C191 -61 151 -84 150 -133 C149 -164 164 -185 185 -197 C191 -200 201 -203 194 -219 C176 -266 104 -324 104 -324 L138 -363 C209 -316 287 -258 304 -168 C315 -113 282 -62 230 -61 L230 -61 Z M438 22 L311 226 L500 370 L396 441 L193 240 L282 695 L144 686 L11 -6 L147 0 L188 214 L304 -31 L438 22 Z " />
<glyph glyph-name="kgreenlandic" unicode="ĸ" horiz-adv-x="475" d="M208 426 L85 414 L3 -6 L126 0 L208 426 Z M407 37 L287 214 L386 310 L437 282 L476 336 L362 429 L171 227 L272 -23 L407 37 Z " />
<glyph glyph-name="Lacute" unicode="Ĺ" horiz-adv-x="493" d="M197 91 L307 657 L159 651 L32 0 L446 0 L464 91 L197 91 Z M129 717 L167 673 L364 806 L305 880 L129 717 Z " />
<glyph glyph-name="lacute" unicode="ĺ" horiz-adv-x="230" d="M9 -12 L143 0 L272 695 L141 686 L9 -12 Z M105 736 L143 692 L340 825 L281 899 L105 736 Z " />
<glyph glyph-name="Lcommaaccent" unicode="Ļ" horiz-adv-x="493" d="M255 -61 C216 -61 176 -84 175 -133 C174 -164 189 -185 210 -197 C216 -200 226 -203 219 -219 C201 -266 129 -324 129 -324 L163 -363 C234 -316 312 -258 329 -168 C340 -113 307 -62 255 -61 L255 -61 Z M197 91 L307 657 L159 651 L32 0 L446 0 L464 91 L197 91 Z " />
<glyph glyph-name="lcommaaccent" unicode="ļ" horiz-adv-x="230" d="M65 -61 C26 -61 -14 -84 -15 -133 C-16 -164 -1 -185 20 -197 C26 -200 36 -203 29 -219 C11 -266 -61 -324 -61 -324 L-27 -363 C44 -316 122 -258 139 -168 C150 -113 117 -62 65 -61 L65 -61 Z M9 -12 L143 0 L272 695 L141 686 L9 -12 Z " />
<glyph glyph-name="Lcaron" unicode="Ľ" horiz-adv-x="493" d="M464 657 C425 657 385 634 384 585 C383 554 398 533 419 521 C425 518 435 515 428 499 C410 452 338 394 338 394 L372 355 C443 402 521 460 538 550 C549 605 516 656 464 657 L464 657 Z M197 91 L307 657 L159 651 L32 0 L446 0 L464 91 L197 91 Z " />
<glyph glyph-name="lcaron" unicode="ľ" horiz-adv-x="480" d="M416 698 C377 698 337 675 336 626 C335 595 350 574 371 562 C377 559 387 556 380 540 C362 493 290 435 290 435 L324 396 C395 443 473 501 490 591 C501 646 468 697 416 698 L416 698 Z M9 -12 L143 0 L272 695 L141 686 L9 -12 Z " />
<glyph glyph-name="Ldot" unicode="Ŀ" horiz-adv-x="478" d="M197 91 L307 657 L159 651 L32 0 L446 0 L464 91 L197 91 Z M316 339 C316 292 355 255 405 255 C454 255 493 292 493 339 C493 385 454 423 405 423 C355 423 316 385 316 339 L316 339 Z " />
<glyph glyph-name="ldot" unicode="ŀ" horiz-adv-x="429" d="M9 -12 L143 0 L272 695 L141 686 L9 -12 Z M272 336 C272 289 311 252 361 252 C410 252 449 289 449 336 C449 382 410 420 361 420 C311 420 272 382 272 336 L272 336 Z " />
<glyph glyph-name="Lslash" unicode="Ł" horiz-adv-x="525" d="M8 226 L78 256 L28 -2 L438 -2 L456 90 L194 90 L238 316 L399 385 L391 463 L255 402 L304 656 L155 649 L94 338 L-4 294 L8 226 Z " />
<glyph glyph-name="lslash" unicode="ł" horiz-adv-x="334" d="M1 292 L13 221 L94 259 L41 -11 L179 2 L240 322 L360 380 L352 458 L258 412 L312 692 L175 682 L111 346 L1 292 Z " />
<glyph glyph-name="Nacute" unicode="Ń" horiz-adv-x="679" d="M253 501 L265 501 L369 -12 L550 0 L679 660 L528 651 L462 150 L448 150 L338 660 L159 651 L30 -12 L179 0 L253 501 Z M296 717 L334 673 L531 806 L472 880 L296 717 Z " />
<glyph glyph-name="nacute" unicode="ń" horiz-adv-x="492" d="M468 311 C483 388 423 427 369 427 C310 427 253 388 212 355 L191 427 L93 420 L9 -12 L147 0 L199 268 C210 282 252 312 281 317 C311 322 333 306 325 266 L275 -12 L409 2 L468 311 Z M183 486 L221 442 L418 575 L359 649 L183 486 Z " />
<glyph glyph-name="Ncommaaccent" unicode="Ņ" horiz-adv-x="679" d="M315 -61 C276 -61 236 -84 235 -133 C234 -164 249 -185 270 -197 C276 -200 286 -203 279 -219 C261 -266 189 -324 189 -324 L223 -363 C294 -316 372 -258 389 -168 C400 -113 367 -62 315 -61 L315 -61 Z M253 501 L265 501 L369 -12 L550 0 L679 660 L528 651 L462 150 L448 150 L338 660 L159 651 L30 -12 L179 0 L253 501 Z " />
<glyph glyph-name="ncommaaccent" unicode="ņ" horiz-adv-x="492" d="M212 -61 C173 -61 133 -84 132 -133 C131 -164 146 -185 167 -197 C173 -200 183 -203 176 -219 C158 -266 86 -324 86 -324 L120 -363 C191 -316 269 -258 286 -168 C297 -113 264 -62 212 -61 L212 -61 Z M468 311 C483 388 423 427 369 427 C310 427 253 388 212 355 L191 427 L93 420 L9 -12 L147 0 L199 268 C210 282 252 312 281 317 C311 322 333 306 325 266 L275 -12 L409 2 L468 311 Z " />
<glyph glyph-name="Ncaron" unicode="Ň" horiz-adv-x="679" d="M253 501 L265 501 L369 -12 L550 0 L679 660 L528 651 L462 150 L448 150 L338 660 L159 651 L30 -12 L179 0 L253 501 Z M295 824 L377 680 L445 680 L577 820 L539 855 L422 754 L340 855 L295 824 Z " />
<glyph glyph-name="ncaron" unicode="ň" horiz-adv-x="492" d="M468 311 C483 388 423 427 369 427 C310 427 253 388 212 355 L191 427 L93 420 L9 -12 L147 0 L199 268 C210 282 252 312 281 317 C311 322 333 306 325 266 L275 -12 L409 2 L468 311 Z M163 593 L245 449 L313 449 L445 589 L407 624 L290 523 L208 624 L163 593 Z " />
<glyph glyph-name="napostrophe" unicode="ŉ" horiz-adv-x="647" d="M128 526 C89 526 49 503 48 454 C47 423 62 402 83 390 C89 387 99 384 92 368 C74 321 2 263 2 263 L36 224 C107 271 185 329 202 419 C213 474 180 525 128 526 L128 526 Z M623 311 C638 388 578 427 524 427 C465 427 408 388 367 355 L346 427 L248 420 L164 -12 L302 0 L354 268 C365 282 407 312 436 317 C466 322 488 306 480 266 L430 -12 L564 2 L623 311 Z " />
<glyph glyph-name="Eng" unicode="Ŋ" horiz-adv-x="679" d="M254 501 L266 501 L369 -11 L388 -9 C354 -77 316 -110 316 -110 L364 -179 C364 -179 533 -87 575 130 L679 660 L528 651 L462 150 L449 150 L338 660 L155 651 L30 -6 L179 0 L254 501 Z " />
<glyph glyph-name="eng" unicode="ŋ" horiz-adv-x="491" d="M468 320 C480 382 424 427 370 427 C313 427 261 389 217 357 L231 427 L93 419 L11 -6 L148 0 L204 286 C225 305 261 333 287 333 C317 333 339 322 331 282 L287 54 C265 -52 247 -92 198 -163 C204 -167 267 -215 274 -221 C371 -128 401 -31 420 65 L468 320 Z " />
<glyph glyph-name="Omacron" unicode="Ō" horiz-adv-x="719" d="M408 566 C512 564 549 478 521 326 C490 163 414 74 307 82 C242 87 161 152 200 337 C236 507 310 568 408 566 L408 566 Z M672 305 C719 547 587 654 430 660 C245 667 89 546 50 348 C3 103 145 -2 281 -11 C468 -23 634 109 672 305 L672 305 Z M525 745 L310 745 L297 677 L512 677 L525 745 Z " />
<glyph glyph-name="omacron" unicode="ō" horiz-adv-x="488" d="M296 428 C171 441 49 366 27 215 C8 82 77 -3 203 -12 C313 -20 437 55 462 198 C488 348 395 418 296 428 L296 428 Z M276 340 C333 334 335 284 321 208 C304 114 267 69 217 76 C155 85 155 142 165 208 C180 306 220 346 276 340 L276 340 Z M398 514 L183 514 L170 446 L385 446 L398 514 Z " />
<glyph glyph-name="Obreve" unicode="Ŏ" horiz-adv-x="719" d="M408 566 C512 564 549 478 521 326 C490 163 414 74 307 82 C242 87 161 152 200 337 C236 507 310 568 408 566 L408 566 Z M672 305 C719 547 587 654 430 660 C245 667 89 546 50 348 C3 103 145 -2 281 -11 C468 -23 634 109 672 305 L672 305 Z M304 796 C304 796 317 672 426 672 C531 672 564 794 564 794 L507 803 C507 803 485 739 425 746 C379 751 364 808 364 808 L304 796 Z " />
<glyph glyph-name="obreve" unicode="ŏ" horiz-adv-x="488" d="M296 428 C171 441 49 366 27 215 C8 82 77 -3 203 -12 C313 -20 437 55 462 198 C488 348 395 418 296 428 L296 428 Z M276 340 C333 334 335 284 321 208 C304 114 267 69 217 76 C155 85 155 142 165 208 C180 306 220 346 276 340 L276 340 Z M150 565 C150 565 163 441 272 441 C377 441 410 563 410 563 L353 572 C353 572 331 508 271 515 C225 520 210 577 210 577 L150 565 Z " />
<glyph glyph-name="Ohungarumlaut" unicode="Ő" horiz-adv-x="719" d="M408 566 C512 564 549 478 521 326 C490 163 414 74 307 82 C242 87 161 152 200 337 C236 507 310 568 408 566 L408 566 Z M672 305 C719 547 587 654 430 660 C245 667 89 546 50 348 C3 103 145 -2 281 -11 C468 -23 634 109 672 305 L672 305 Z M236 715 L269 674 L435 800 L383 864 L236 715 Z M410 715 L443 674 L609 800 L557 864 L410 715 Z " />
<glyph glyph-name="ohungarumlaut" unicode="ő" horiz-adv-x="488" d="M296 428 C171 441 49 366 27 215 C8 82 77 -3 203 -12 C313 -20 437 55 462 198 C488 348 395 418 296 428 L296 428 Z M276 340 C333 334 335 284 321 208 C304 114 267 69 217 76 C155 85 155 142 165 208 C180 306 220 346 276 340 L276 340 Z M81 484 L114 443 L280 569 L228 633 L81 484 Z M255 484 L288 443 L454 569 L402 633 L255 484 Z " />
<glyph glyph-name="OE" unicode="Œ" horiz-adv-x="899" d="M830 92 L581 92 L621 295 L833 295 L851 387 L639 387 L673 562 L905 562 L922 651 L546 651 L538 614 C524 627 481 654 443 659 C247 687 91 537 52 339 C5 94 148 -7 284 -7 C325 -7 393 24 426 44 L418 0 L813 0 L830 92 Z M322 86 C256 86 165 143 201 329 C238 515 351 562 417 565 C461 567 495 550 518 516 L445 143 C405 105 358 86 322 86 L322 86 Z " />
<glyph glyph-name="oe" unicode="œ" horiz-adv-x="733" d="M296 429 C165 443 53 347 27 215 C1 83 84 -5 209 -5 C267 -5 314 18 347 47 C378 -2 426 -8 476 -6 C531 -3 659 47 659 47 L654 104 C654 104 560 79 508 79 C456 79 436 129 444 182 L694 209 C694 209 707 243 711 273 C727 391 644 436 556 429 C503 425 450 405 411 372 C388 403 344 424 296 429 L296 429 Z M276 340 C331 340 336 272 324 207 C311 143 282 77 220 77 C158 77 150 144 163 209 C176 275 219 340 276 340 L276 340 Z M580 269 C563 265 455 250 455 250 C455 250 471 343 542 348 C591 350 587 302 580 269 L580 269 Z " />
<glyph glyph-name="Racute" unicode="Ŕ" horiz-adv-x="587" d="M562 13 C562 13 385 208 340 256 C452 254 548 337 571 479 C593 634 438 665 327 660 C267 657 157 638 157 638 L30 -12 L179 0 L224 223 C237 202 401 -28 401 -28 L562 13 Z M242 320 L288 561 C288 561 306 566 345 566 C384 566 431 540 416 452 C402 372 351 317 269 317 C247 317 249 319 242 320 L242 320 Z M250 717 L288 673 L485 806 L426 880 L250 717 Z " />
<glyph glyph-name="racute" unicode="ŕ" horiz-adv-x="382" d="M413 427 C345 427 278 400 217 350 L232 427 L93 420 L11 -6 L149 0 L206 294 L364 294 C364 294 391 377 413 427 L413 427 Z M146 486 L184 442 L381 575 L322 649 L146 486 Z " />
<glyph glyph-name="Rcommaaccent" unicode="Ŗ" horiz-adv-x="587" d="M255 -61 C216 -61 176 -84 175 -133 C174 -164 189 -185 210 -197 C216 -200 226 -203 219 -219 C201 -266 129 -324 129 -324 L163 -363 C234 -316 312 -258 329 -168 C340 -113 307 -62 255 -61 L255 -61 Z M562 13 C562 13 385 208 340 256 C452 254 548 337 571 479 C593 634 438 665 327 660 C267 657 157 638 157 638 L30 -12 L179 0 L224 223 C237 202 401 -28 401 -28 L562 13 Z M242 320 L288 561 C288 561 306 566 345 566 C384 566 431 540 416 452 C402 372 351 317 269 317 C247 317 249 319 242 320 L242 320 Z " />
<glyph glyph-name="rcommaaccent" unicode="ŗ" horiz-adv-x="382" d="M196 -64 C157 -64 117 -87 116 -136 C115 -167 130 -188 151 -200 C157 -203 167 -206 160 -222 C142 -269 70 -327 70 -327 L104 -366 C175 -319 253 -261 270 -171 C281 -116 248 -65 196 -64 L196 -64 Z M413 427 C345 427 278 400 217 350 L232 427 L93 420 L11 -6 L149 0 L206 294 L364 294 C364 294 391 377 413 427 L413 427 Z " />
<glyph glyph-name="Rcaron" unicode="Ř" horiz-adv-x="587" d="M562 13 C562 13 385 208 340 256 C452 254 548 337 571 479 C593 634 438 665 327 660 C267 657 157 638 157 638 L30 -12 L179 0 L224 223 C237 202 401 -28 401 -28 L562 13 Z M242 320 L288 561 C288 561 306 566 345 566 C384 566 431 540 416 452 C402 372 351 317 269 317 C247 317 249 319 242 320 L242 320 Z M262 824 L344 680 L412 680 L544 820 L506 855 L389 754 L307 855 L262 824 Z " />
<glyph glyph-name="rcaron" unicode="ř" horiz-adv-x="382" d="M413 427 C345 427 278 400 217 350 L232 427 L93 420 L11 -6 L149 0 L206 294 L364 294 C364 294 391 377 413 427 L413 427 Z M126 593 L208 449 L276 449 L408 589 L370 624 L253 523 L171 624 L126 593 Z " />
<glyph glyph-name="Sacute" unicode="Ś" horiz-adv-x="535" d="M345 559 C415 563 498 534 498 534 L530 632 C530 632 448 660 357 660 C249 660 113 630 86 503 C38 280 360 294 329 181 C316 132 266 101 213 101 C152 101 32 132 32 132 L2 35 C2 35 96 -4 195 -11 C337 -20 455 63 479 166 C531 398 234 375 240 475 C244 536 300 556 345 559 L345 559 Z M244 717 L282 673 L479 806 L420 880 L244 717 Z " />
<glyph glyph-name="sacute" unicode="ś" horiz-adv-x="409" d="M383 413 C383 413 319 428 270 433 C196 441 75 427 51 325 C15 168 246 192 235 115 C230 88 211 82 182 85 C124 88 28 116 28 116 L7 28 C7 28 119 -7 182 -10 C279 -15 357 21 372 116 C399 277 172 250 184 315 C189 341 216 350 248 349 C281 347 368 332 368 332 L383 413 Z M144 486 L182 442 L379 575 L320 649 L144 486 Z " />
<glyph glyph-name="Scircumflex" unicode="Ŝ" horiz-adv-x="535" d="M345 559 C415 563 498 534 498 534 L530 632 C530 632 448 660 357 660 C249 660 113 630 86 503 C38 280 360 294 329 181 C316 132 266 101 213 101 C152 101 32 132 32 132 L2 35 C2 35 96 -4 195 -11 C337 -20 455 63 479 166 C531 398 234 375 240 475 C244 536 300 556 345 559 L345 559 Z M227 716 L267 680 L380 774 L458 678 L507 714 L422 850 L355 850 L227 716 Z " />
<glyph glyph-name="scircumflex" unicode="ŝ" horiz-adv-x="409" d="M383 413 C383 413 319 428 270 433 C196 441 75 427 51 325 C15 168 246 192 235 115 C230 88 211 82 182 85 C124 88 28 116 28 116 L7 28 C7 28 119 -7 182 -10 C279 -15 357 21 372 116 C399 277 172 250 184 315 C189 341 216 350 248 349 C281 347 368 332 368 332 L383 413 Z M125 485 L165 449 L278 543 L356 447 L405 483 L320 619 L253 619 L125 485 Z " />
<glyph glyph-name="Scedilla" unicode="Ş" horiz-adv-x="535" d="M345 559 C415 563 498 534 498 534 L530 632 C530 632 448 660 357 660 C249 660 113 630 86 503 C38 280 360 294 329 181 C316 132 266 101 213 101 C152 101 32 132 32 132 L2 35 C2 35 96 -4 195 -11 C337 -20 455 63 479 166 C531 398 234 375 240 475 C244 536 300 556 345 559 L345 559 Z M195 19 L96 -69 L101 -106 C101 -106 159 -103 149 -158 C139 -207 54 -205 54 -205 L51 -263 C51 -263 227 -255 240 -156 C251 -70 185 -63 185 -63 L274 19 L195 19 Z " />
<glyph glyph-name="scedilla" unicode="ş" horiz-adv-x="409" d="M383 413 C383 413 319 428 270 433 C196 441 75 427 51 325 C15 168 246 192 235 115 C230 88 211 82 182 85 C124 88 28 116 28 116 L7 28 C7 28 119 -7 182 -10 C279 -15 357 21 372 116 C399 277 172 250 184 315 C189 341 216 350 248 349 C281 347 368 332 368 332 L383 413 Z M168 19 L69 -69 L74 -106 C74 -106 132 -103 122 -158 C112 -207 27 -205 27 -205 L24 -263 C24 -263 200 -255 213 -156 C224 -70 158 -63 158 -63 L247 19 L168 19 Z " />
<glyph glyph-name="Scaron" unicode="Š" horiz-adv-x="535" d="M345 559 C415 563 498 534 498 534 L530 632 C530 632 448 660 357 660 C249 660 113 630 86 503 C38 280 360 294 329 181 C316 132 266 101 213 101 C152 101 32 132 32 132 L2 35 C2 35 96 -4 195 -11 C337 -20 455 63 479 166 C531 398 234 375 240 475 C244 536 300 556 345 559 L345 559 Z M244 824 L326 680 L394 680 L526 820 L488 855 L371 754 L289 855 L244 824 Z " />
<glyph glyph-name="scaron" unicode="š" horiz-adv-x="409" d="M383 413 C383 413 319 428 270 433 C196 441 75 427 51 325 C15 168 246 192 235 115 C230 88 211 82 182 85 C124 88 28 116 28 116 L7 28 C7 28 119 -7 182 -10 C279 -15 357 21 372 116 C399 277 172 250 184 315 C189 341 216 350 248 349 C281 347 368 332 368 332 L383 413 Z M131 593 L213 449 L281 449 L413 589 L375 624 L258 523 L176 624 L131 593 Z " />
<glyph glyph-name="Tcommaaccent" unicode="Ţ" horiz-adv-x="472" d="M195 19 L96 -69 L101 -106 C101 -106 159 -103 149 -158 C139 -207 54 -205 54 -205 L51 -263 C51 -263 227 -255 240 -156 C251 -70 185 -63 185 -63 L274 19 L195 19 Z M63 651 L46 562 L222 562 L110 -12 L250 0 L368 561 L531 561 L548 651 L63 651 Z " />
<glyph glyph-name="tcommaaccent" unicode="ţ" horiz-adv-x="336" d="M145 19 L46 -69 L51 -106 C51 -106 109 -103 99 -158 C89 -207 4 -205 4 -205 L1 -263 C1 -263 177 -255 190 -156 C201 -70 135 -63 135 -63 L224 19 L145 19 Z M312 74 L164 74 L215 344 L327 344 L342 419 L230 419 L260 576 L122 569 C122 569 109 504 93 420 L29 411 L16 344 L78 344 C50 198 30 91 27 74 C18 28 62 -18 111 -14 C141 -8 306 10 306 10 L312 74 Z " />
<glyph glyph-name="Tcaron" unicode="Ť" horiz-adv-x="472" d="M63 651 L46 562 L222 562 L110 -12 L250 0 L368 561 L531 561 L548 651 L63 651 Z M215 824 L297 680 L365 680 L497 820 L459 855 L342 754 L260 855 L215 824 Z " />
<glyph glyph-name="tcaron" unicode="ť" horiz-adv-x="563" d="M502 678 C463 678 423 655 422 606 C421 575 436 554 457 542 C463 539 473 536 466 520 C448 473 376 415 376 415 L410 376 C481 423 559 481 576 571 C587 626 554 677 502 678 L502 678 Z M312 74 L164 74 L215 344 L327 344 L342 419 L230 419 L260 576 L122 569 C122 569 109 504 93 420 L29 411 L16 344 L78 344 C50 198 30 91 27 74 C18 28 62 -18 111 -14 C141 -8 306 10 306 10 L312 74 Z " />
<glyph glyph-name="Tbar" unicode="Ŧ" horiz-adv-x="472" d="M461 490 L103 490 L91 420 L449 420 L461 490 Z M63 651 L46 562 L222 562 L110 -12 L250 0 L368 561 L531 561 L548 651 L63 651 Z " />
<glyph glyph-name="tbar" unicode="ŧ" horiz-adv-x="336" d="M317 279 L12 279 L0 209 L305 209 L317 279 Z M312 74 L164 74 L215 344 L327 344 L342 419 L230 419 L260 576 L122 569 C122 569 109 504 93 420 L29 411 L16 344 L78 344 C50 198 30 91 27 74 C18 28 62 -18 111 -14 C141 -8 306 10 306 10 L312 74 Z " />
<glyph glyph-name="Utilde" unicode="Ũ" horiz-adv-x="634" d="M499 651 C499 651 452 404 428 283 C405 163 384 101 296 95 C188 88 197 156 221 279 L294 660 L147 651 L70 253 C38 85 114 -21 274 -10 C434 1 542 128 575 297 L645 660 L499 651 Z M254 694 L310 690 C310 690 322 750 356 750 C389 750 426 688 480 688 C533 688 564 743 579 820 L524 823 C509 772 497 773 483 773 C447 773 423 826 361 826 C319 826 276 784 254 694 L254 694 Z " />
<glyph glyph-name="utilde" unicode="ũ" horiz-adv-x="479" d="M390 0 L475 427 L339 420 C339 420 280 129 280 129 C237 95 155 72 173 164 L222 427 L85 420 C85 420 35 154 30 111 C20 26 94 -23 165 -10 C218 0 278 60 278 60 L300 -12 L390 0 Z M138 463 L194 459 C194 459 206 519 240 519 C273 519 310 457 364 457 C417 457 448 512 463 589 L408 592 C393 541 381 542 367 542 C331 542 307 595 245 595 C203 595 160 553 138 463 L138 463 Z " />
<glyph glyph-name="Umacron" unicode="Ū" horiz-adv-x="634" d="M499 651 C499 651 452 404 428 283 C405 163 384 101 296 95 C188 88 197 156 221 279 L294 660 L147 651 L70 253 C38 85 114 -21 274 -10 C434 1 542 128 575 297 L645 660 L499 651 Z M525 745 L310 745 L297 677 L512 677 L525 745 Z " />
<glyph glyph-name="umacron" unicode="ū" horiz-adv-x="479" d="M390 0 L475 427 L339 420 C339 420 280 129 280 129 C237 95 155 72 173 164 L222 427 L85 420 C85 420 35 154 30 111 C20 26 94 -23 165 -10 C218 0 278 60 278 60 L300 -12 L390 0 Z M401 514 L186 514 L173 446 L388 446 L401 514 Z " />
<glyph glyph-name="Ubreve" unicode="Ŭ" horiz-adv-x="634" d="M499 651 C499 651 452 404 428 283 C405 163 384 101 296 95 C188 88 197 156 221 279 L294 660 L147 651 L70 253 C38 85 114 -21 274 -10 C434 1 542 128 575 297 L645 660 L499 651 Z M281 796 C281 796 294 672 403 672 C508 672 541 794 541 794 L484 803 C484 803 462 739 402 746 C356 751 341 808 341 808 L281 796 Z " />
<glyph glyph-name="ubreve" unicode="ŭ" horiz-adv-x="479" d="M390 0 L475 427 L339 420 C339 420 280 129 280 129 C237 95 155 72 173 164 L222 427 L85 420 C85 420 35 154 30 111 C20 26 94 -23 165 -10 C218 0 278 60 278 60 L300 -12 L390 0 Z M165 565 C165 565 178 441 287 441 C392 441 425 563 425 563 L368 572 C368 572 346 508 286 515 C240 520 225 577 225 577 L165 565 Z " />
<glyph glyph-name="Uring" unicode="Ů" horiz-adv-x="634" d="M499 651 C499 651 452 404 428 283 C405 163 384 101 296 95 C188 88 197 156 221 279 L294 660 L147 651 L70 253 C38 85 114 -21 274 -10 C434 1 542 128 575 297 L645 660 L499 651 Z M374 777 C381 813 398 824 427 824 C456 824 466 804 462 777 C458 746 444 729 409 729 C380 729 369 749 374 777 L374 777 Z M400 684 C461 684 520 732 528 776 C537 828 497 869 436 869 C375 869 317 828 307 776 C297 725 339 684 400 684 L400 684 Z " />
<glyph glyph-name="uring" unicode="ů" horiz-adv-x="479" d="M390 0 L475 427 L339 420 C339 420 280 129 280 129 C237 95 155 72 173 164 L222 427 L85 420 C85 420 35 154 30 111 C20 26 94 -23 165 -10 C218 0 278 60 278 60 L300 -12 L390 0 Z M252 546 C259 582 276 593 305 593 C334 593 344 573 340 546 C336 515 322 498 287 498 C258 498 247 518 252 546 L252 546 Z M278 453 C339 453 398 501 406 545 C415 597 375 638 314 638 C253 638 195 597 185 545 C175 494 217 453 278 453 L278 453 Z " />
<glyph glyph-name="Uhungarumlaut" unicode="Ű" horiz-adv-x="634" d="M499 651 C499 651 452 404 428 283 C405 163 384 101 296 95 C188 88 197 156 221 279 L294 660 L147 651 L70 253 C38 85 114 -21 274 -10 C434 1 542 128 575 297 L645 660 L499 651 Z M243 715 L276 674 L442 800 L390 864 L243 715 Z M417 715 L450 674 L616 800 L564 864 L417 715 Z " />
<glyph glyph-name="uhungarumlaut" unicode="ű" horiz-adv-x="479" d="M390 0 L475 427 L339 420 C339 420 280 129 280 129 C237 95 155 72 173 164 L222 427 L85 420 C85 420 35 154 30 111 C20 26 94 -23 165 -10 C218 0 278 60 278 60 L300 -12 L390 0 Z M120 484 L153 443 L319 569 L267 633 L120 484 Z M294 484 L327 443 L493 569 L441 633 L294 484 Z " />
<glyph glyph-name="Uogonek" unicode="Ų" horiz-adv-x="634" d="M499 651 C499 651 452 404 428 283 C405 163 384 101 296 95 C188 88 197 156 221 279 L294 660 L147 651 L70 253 C38 85 114 -21 274 -10 C434 1 542 128 575 297 L645 660 L499 651 Z M243 3 C243 3 141 -47 121 -133 C105 -196 154 -246 208 -246 C262 -246 305 -220 305 -220 L305 -166 C305 -166 287 -171 269 -171 C243 -171 208 -164 209 -121 C211 -47 310 3 310 3 L243 3 Z " />
<glyph glyph-name="uogonek" unicode="ų" horiz-adv-x="479" d="M390 0 L475 427 L339 420 C339 420 280 129 280 129 C237 95 155 72 173 164 L222 427 L85 420 C85 420 35 154 30 111 C20 26 94 -23 165 -10 C218 0 278 60 278 60 L300 -12 L390 0 Z M309 3 C309 3 207 -47 187 -133 C171 -196 220 -246 274 -246 C328 -246 371 -220 371 -220 L371 -166 C371 -166 353 -171 335 -171 C309 -171 274 -164 275 -121 C277 -47 376 3 376 3 L309 3 Z " />
<glyph glyph-name="Wcircumflex" unicode="Ŵ" horiz-adv-x="870" d="M457 469 L466 469 L471 -13 L649 0 L923 651 L801 659 L593 122 L585 122 L569 659 L417 652 L224 121 L217 121 L231 659 L76 651 L103 -13 L287 0 L457 469 Z M357 716 L397 680 L510 774 L588 678 L637 714 L552 850 L485 850 L357 716 Z " />
<glyph glyph-name="wcircumflex" unicode="ŵ" horiz-adv-x="656" d="M336 272 L343 272 L348 -11 L505 0 L704 420 L598 428 L453 104 L446 104 L446 427 L295 420 L160 99 L154 99 L175 427 L40 420 L56 -11 L224 0 L336 272 Z M253 485 L293 449 L406 543 L484 447 L533 483 L448 619 L381 619 L253 485 Z " />
<glyph glyph-name="Ycircumflex" unicode="Ŷ" horiz-adv-x="495" d="M144 244 L93 -11 L241 0 L287 238 L559 646 L445 660 L253 345 L248 345 L188 659 L54 650 L144 244 Z M183 716 L223 680 L336 774 L414 678 L463 714 L378 850 L311 850 L183 716 Z " />
<glyph glyph-name="ycircumflex" unicode="ŷ" horiz-adv-x="417" d="M337 427 L182 138 L172 427 L35 420 L74 39 L119 38 L-10 -189 L105 -217 L452 397 L337 427 Z M114 485 L154 449 L267 543 L345 447 L394 483 L309 619 L242 619 L114 485 Z " />
<glyph glyph-name="Ydieresis" unicode="Ÿ" horiz-adv-x="495" d="M144 244 L93 -11 L241 0 L287 238 L559 646 L445 660 L253 345 L248 345 L188 659 L54 650 L144 244 Z M164 737 C164 703 192 676 229 676 C265 676 293 703 293 737 C293 770 265 798 229 798 C192 798 164 770 164 737 L164 737 Z M359 737 C359 703 387 676 424 676 C460 676 488 703 488 737 C488 770 460 798 424 798 C387 798 359 770 359 737 L359 737 Z " />
<glyph glyph-name="Zacute" unicode="Ź" horiz-adv-x="567" d="M125 651 L108 561 L397 561 L-2 102 L2 0 L456 0 L473 92 L155 92 L561 559 L558 651 L125 651 Z M268 717 L306 673 L503 806 L444 880 L268 717 Z " />
<glyph glyph-name="zacute" unicode="ź" horiz-adv-x="417" d="M371 81 L161 81 L411 337 L404 420 L75 420 L61 345 L263 345 L-2 82 L4 0 L355 0 L371 81 Z M152 486 L190 442 L387 575 L328 649 L152 486 Z " />
<glyph glyph-name="Zdotaccent" unicode="Ż" horiz-adv-x="567" d="M125 651 L108 561 L397 561 L-2 102 L2 0 L456 0 L473 92 L155 92 L561 559 L558 651 L125 651 Z M325 747 C325 713 353 685 391 685 C427 685 456 713 456 747 C456 781 427 810 391 810 C353 810 325 781 325 747 L325 747 Z " />
<glyph glyph-name="zdotaccent" unicode="ż" horiz-adv-x="417" d="M371 81 L161 81 L411 337 L404 420 L75 420 L61 345 L263 345 L-2 82 L4 0 L355 0 L371 81 Z M202 516 C202 482 230 454 268 454 C304 454 333 482 333 516 C333 550 304 579 268 579 C230 579 202 550 202 516 L202 516 Z " />
<glyph glyph-name="Zcaron" unicode="Ž" horiz-adv-x="567" d="M125 651 L108 561 L397 561 L-2 102 L2 0 L456 0 L473 92 L155 92 L561 559 L558 651 L125 651 Z M240 824 L322 680 L390 680 L522 820 L484 855 L367 754 L285 855 L240 824 Z " />
<glyph glyph-name="zcaron" unicode="ž" horiz-adv-x="417" d="M371 81 L161 81 L411 337 L404 420 L75 420 L61 345 L263 345 L-2 82 L4 0 L355 0 L371 81 Z M134 593 L216 449 L284 449 L416 589 L378 624 L261 523 L179 624 L134 593 Z " />
<glyph glyph-name="longs" unicode="ſ" horiz-adv-x="305" d="M393 544 L422 627 C422 627 388 641 342 644 C248 648 148 587 119 438 L115 420 L50 420 L36 346 L98 331 L32 -6 L157 0 C244 453 247 470 249 483 C259 533 271 556 317 556 C335 556 361 552 393 544 L393 544 Z " />
<glyph glyph-name="florin" unicode="ƒ" horiz-adv-x="532" d="M229 -15 C244 35 272 152 311 316 L462 316 L481 405 L331 405 C344 458 347 476 355 498 C367 532 387 565 438 565 C460 565 488 559 524 544 L571 647 C571 647 528 663 473 663 C464 663 455 663 445 662 C343 649 235 565 206 461 C200 439 201 445 191 405 L67 403 L50 322 L169 317 C134 163 114 89 97 20 C80 -55 42 -76 11 -75 C-24 -75 -68 -58 -68 -58 L-100 -164 C-100 -164 -31 -182 21 -182 C109 -183 192 -126 229 -15 L229 -15 Z " />
<glyph glyph-name="circumflex" unicode="ˆ" horiz-adv-x="511" d="M153 485 L193 449 L306 543 L384 447 L433 483 L348 619 L281 619 L153 485 Z " />
<glyph glyph-name="caron" unicode="ˇ" horiz-adv-x="511" d="M173 593 L255 449 L323 449 L455 589 L417 624 L300 523 L218 624 L173 593 Z " />
<glyph glyph-name="breve" unicode="˘" horiz-adv-x="511" d="M173 565 C173 565 186 441 295 441 C400 441 433 563 433 563 L376 572 C376 572 354 508 294 515 C248 520 233 577 233 577 L173 565 Z " />
<glyph glyph-name="dotaccent" unicode="˙" horiz-adv-x="511" d="M240 516 C240 482 268 454 306 454 C342 454 371 482 371 516 C371 550 342 579 306 579 C268 579 240 550 240 516 L240 516 Z " />
<glyph glyph-name="ring" unicode="˚" horiz-adv-x="511" d="M266 546 C273 582 290 593 319 593 C348 593 358 573 354 546 C350 515 336 498 301 498 C272 498 261 518 266 546 L266 546 Z M292 453 C353 453 412 501 420 545 C429 597 389 638 328 638 C267 638 209 597 199 545 C189 494 231 453 292 453 L292 453 Z " />
<glyph glyph-name="ogonek" unicode="˛" horiz-adv-x="511" d="M282 3 C282 3 180 -47 160 -133 C144 -196 193 -246 247 -246 C301 -246 344 -220 344 -220 L344 -166 C344 -166 326 -171 308 -171 C282 -171 247 -164 248 -121 C250 -47 349 3 349 3 L282 3 Z " />
<glyph glyph-name="tilde" unicode="˜" horiz-adv-x="511" d="M154 463 L210 459 C210 459 222 519 256 519 C289 519 326 457 380 457 C433 457 464 512 479 589 L424 592 C409 541 397 542 383 542 C347 542 323 595 261 595 C219 595 176 553 154 463 L154 463 Z " />
<glyph glyph-name="hungarumlaut" unicode="˝" horiz-adv-x="511" d="M155 484 L188 443 L354 569 L302 633 L155 484 Z M329 484 L362 443 L528 569 L476 633 L329 484 Z " />
<glyph glyph-name="Omega" unicode="Ω" horiz-adv-x="709" d="M625 92 L495 92 C547 139 650 211 675 335 C712 526 583 664 425 664 C268 664 104 553 66 356 C41 229 113 138 147 92 L9 92 L-8 0 L255 0 L272 92 C272 92 186 172 221 353 C249 496 337 558 413 558 C480 558 551 499 521 340 C487 160 367 92 367 92 L350 0 L608 0 L625 92 Z " />
<glyph glyph-name="pi" unicode="π" horiz-adv-x="586" d="M616 480 L88 480 L57 379 L150 379 L13 2 L154 -4 L286 379 L384 379 L335 -4 L461 2 L511 379 L580 379 L616 480 Z " />
<glyph glyph-name="endash" unicode="–" horiz-adv-x="480" d="M409 283 L56 283 L36 195 L388 195 L409 283 Z " />
<glyph glyph-name="emdash" unicode="—" horiz-adv-x="980" d="M897 283 L56 283 L36 195 L877 195 L897 283 Z " />
<glyph glyph-name="quoteleft" unicode="‘" horiz-adv-x="257" d="M154 372 C196 371 239 396 241 449 C241 483 225 506 202 518 C196 522 185 525 192 543 C212 594 290 656 290 656 L254 699 C176 648 91 585 73 488 C62 428 97 373 154 372 L154 372 Z " />
<glyph glyph-name="quoteright" unicode="’" horiz-adv-x="250" d="M188 702 C146 703 103 678 101 625 C101 591 117 568 140 556 C146 552 157 549 150 531 C130 480 52 418 52 418 L88 375 C166 426 251 489 269 586 C280 646 245 701 188 702 L188 702 Z " />
<glyph glyph-name="quotesinglbase" unicode="‚" horiz-adv-x="247" d="M113 149 C71 150 28 125 26 72 C26 38 42 15 65 3 C71 -1 82 -4 75 -22 C55 -73 -23 -135 -23 -135 L13 -178 C91 -127 176 -64 194 33 C205 93 170 148 113 149 L113 149 Z " />
<glyph glyph-name="quotedblleft" unicode="“" horiz-adv-x="472" d="M153 387 C195 386 238 411 240 464 C240 498 224 521 201 533 C195 537 184 540 191 558 C211 609 289 671 289 671 L253 714 C175 663 90 600 72 503 C61 443 96 388 153 387 L153 387 Z M374 387 C416 386 459 411 461 464 C461 498 445 521 422 533 C416 537 405 540 412 558 C432 609 510 671 510 671 L474 714 C396 663 311 600 293 503 C282 443 317 388 374 387 L374 387 Z " />
<glyph glyph-name="quotedblright" unicode="”" horiz-adv-x="466" d="M264 702 C222 703 179 678 177 625 C177 591 193 568 216 556 C222 552 233 549 226 531 C206 480 128 418 128 418 L164 375 C242 426 327 489 345 586 C356 646 321 701 264 702 L264 702 Z M480 702 C438 703 395 678 393 625 C393 591 409 568 432 556 C438 552 449 549 442 531 C422 480 344 418 344 418 L380 375 C458 426 543 489 561 586 C572 646 537 701 480 702 L480 702 Z " />
<glyph glyph-name="quotedblbase" unicode="„" horiz-adv-x="434" d="M100 153 C58 154 15 129 13 76 C13 42 29 19 52 7 C58 3 69 0 62 -18 C42 -69 -36 -131 -36 -131 L0 -174 C78 -123 163 -60 181 37 C192 97 157 152 100 153 L100 153 Z M316 153 C274 154 231 129 229 76 C229 42 245 19 268 7 C274 3 285 0 278 -18 C258 -69 180 -131 180 -131 L216 -174 C294 -123 379 -60 397 37 C408 97 373 152 316 153 L316 153 Z " />
<glyph glyph-name="dagger" unicode="†" horiz-adv-x="487" d="M42 349 L186 349 L89 -151 L215 -150 L311 349 L458 349 L475 437 L328 437 L372 659 L245 652 L203 437 L59 437 L42 349 Z " />
<glyph glyph-name="daggerdbl" unicode="‡" horiz-adv-x="507" d="M6 59 L151 59 L110 -151 L236 -150 L276 59 L423 59 L441 146 L293 146 L332 349 L479 349 L497 437 L349 437 L393 659 L266 652 L224 437 L80 437 L62 349 L207 349 L168 146 L24 146 L6 59 Z " />
<glyph glyph-name="bullet" unicode="•" horiz-adv-x="401" d="M70 269 C70 190 133 126 211 126 C289 126 353 190 353 269 C353 348 289 413 211 413 C133 413 70 348 70 269 L70 269 Z " />
<glyph glyph-name="ellipsis" unicode="…" horiz-adv-x="897" d="M62 67 C62 21 98 -15 144 -15 C190 -15 227 21 227 67 C227 113 190 150 144 150 C98 150 62 113 62 67 L62 67 Z M371 67 C371 21 407 -15 453 -15 C499 -15 536 21 536 67 C536 113 499 150 453 150 C407 150 371 113 371 67 L371 67 Z M672 67 C672 21 708 -15 754 -15 C800 -15 837 21 837 67 C837 113 800 150 754 150 C708 150 672 113 672 67 L672 67 Z " />
<glyph glyph-name="perthousand" unicode="‰" horiz-adv-x="1260" d="M287 658 C225 658 116 614 86 491 C59 375 127 289 214 289 C302 289 402 355 423 472 C434 532 426 563 403 592 C484 593 600 596 600 596 L152 -1 L222 -38 L722 613 L691 667 C691 667 520 660 455 659 C401 658 311 658 294 658 L287 658 Z M680 357 C613 357 509 306 480 183 C452 67 506 -12 600 -12 C696 -12 785 54 810 171 C834 287 781 357 680 357 L680 357 Z M202 477 C219 565 255 595 276 595 C305 595 320 556 305 480 C288 396 256 354 228 354 C199 354 186 396 202 477 L202 477 Z M594 176 C611 265 647 294 666 294 C697 294 709 255 694 180 C678 95 647 54 619 54 C590 54 578 95 594 176 L594 176 Z M1058 357 C991 357 887 306 858 183 C830 67 884 -12 978 -12 C1074 -12 1163 54 1188 171 C1212 287 1159 357 1058 357 L1058 357 Z M972 176 C989 265 1025 294 1044 294 C1075 294 1087 255 1072 180 C1056 95 1025 54 997 54 C968 54 956 95 972 176 L972 176 Z " />
<glyph glyph-name="guilsinglleft" unicode="‹" horiz-adv-x="281" d="M223 405 L50 252 L40 190 L176 18 L228 57 L153 210 L269 364 L223 405 Z " />
<glyph glyph-name="guilsinglright" unicode="›" horiz-adv-x="281" d="M95 402 L43 359 L115 216 L4 71 L49 26 L219 177 L224 242 L95 402 Z " />
<glyph glyph-name="fraction" unicode="⁄" horiz-adv-x="455" d="M448 679 L-34 25 L23 -16 L507 633 L448 679 Z " />
<glyph glyph-name="zerosuperior" unicode="⁰" horiz-adv-x="275" d="M252 590 C277 703 255 757 176 757 C115 757 46 716 22 611 C4 529 5 440 101 440 C164 440 230 487 252 590 L252 590 Z M170 599 C153 518 136 500 114 500 C90 500 94 542 105 599 C122 685 141 698 161 698 C180 698 184 667 170 599 L170 599 Z " />
<glyph glyph-name="foursuperior" unicode="⁴" horiz-adv-x="275" d="M198 441 L213 515 L255 515 L266 575 L224 575 L261 759 L186 764 L1 561 L11 515 L134 515 L118 438 L198 441 Z M163 660 L146 575 L86 575 L163 660 Z " />
<glyph glyph-name="fivesuperior" unicode="⁵" horiz-adv-x="275" d="M167 706 L257 706 L268 762 L102 762 L61 622 L90 586 C90 586 112 598 133 595 C154 593 171 579 166 546 C160 505 134 502 102 502 C82 501 40 519 40 519 L16 467 C16 467 71 438 108 438 C191 438 237 478 247 543 C255 595 226 650 147 650 C150 658 157 679 167 706 L167 706 Z " />
<glyph glyph-name="sixsuperior" unicode="⁶" horiz-adv-x="275" d="M148 639 C167 673 199 705 240 726 C237 733 215 774 215 774 C107 727 55 656 33 578 C7 486 58 442 117 438 C178 433 241 468 256 536 C269 595 233 641 176 641 C155 641 154 641 148 639 L148 639 Z M107 543 C113 576 133 587 146 587 C166 588 181 574 176 541 C171 502 150 492 136 493 C113 495 103 514 107 543 L107 543 Z " />
<glyph glyph-name="sevensuperior" unicode="⁷" horiz-adv-x="275" d="M30 700 L165 701 C61 584 38 437 38 437 L117 440 C156 615 253 707 253 707 L234 759 L40 759 L30 700 Z " />
<glyph glyph-name="eightsuperior" unicode="⁸" horiz-adv-x="275" d="M211 609 C233 623 260 638 266 685 C272 729 233 767 172 765 C121 764 65 736 54 691 C48 659 56 635 86 607 C62 594 29 577 17 545 C-9 483 48 438 117 438 C171 437 248 458 262 521 C270 563 253 587 211 609 L211 609 Z M123 683 C123 701 144 714 166 715 C185 716 196 699 194 681 C192 657 177 644 167 637 C151 646 123 662 123 683 L123 683 Z M172 533 C171 505 148 491 127 495 C103 499 91 514 96 538 C100 557 116 572 127 581 C156 566 173 555 172 533 L172 533 Z " />
<glyph glyph-name="ninesuperior" unicode="⁹" horiz-adv-x="275" d="M138 565 C119 531 87 499 46 478 C49 471 71 430 71 430 C179 477 231 548 253 626 C279 718 228 762 169 766 C108 771 45 736 30 668 C17 609 53 563 110 563 C131 563 132 563 138 565 L138 565 Z M179 661 C173 628 153 617 140 617 C120 616 105 630 110 663 C115 702 136 712 150 711 C173 709 184 690 179 661 L179 661 Z " />
<glyph glyph-name="plussuperior" unicode="⁺" horiz-adv-x="269" d="M174 477 L174 548 L249 548 L251 621 L174 621 L174 697 L99 696 L99 621 L17 621 L16 548 L99 548 L99 476 L174 477 Z " />
<glyph glyph-name="minussuperior" unicode="⁻" horiz-adv-x="237" d="M234 618 L5 618 L3 541 L232 541 L234 618 Z " />
<glyph glyph-name="equalssuperior" unicode="⁼" horiz-adv-x="275" d="M251 539 L22 539 L20 462 L249 462 L251 539 Z M251 653 L22 653 L20 576 L249 576 L251 653 Z " />
<glyph glyph-name="zeroinferior" unicode="₀" horiz-adv-x="275" d="M246 -47 C271 66 249 120 170 120 C109 120 40 79 16 -26 C-2 -108 -1 -197 95 -197 C158 -197 224 -150 246 -47 L246 -47 Z M164 -38 C147 -119 130 -137 108 -137 C84 -137 88 -95 99 -38 C116 48 135 61 155 61 C174 61 178 30 164 -38 L164 -38 Z " />
<glyph glyph-name="oneinferior" unicode="₁" horiz-adv-x="231" d="M63 -199 L142 -199 L205 120 L34 75 L44 19 L108 30 L63 -199 Z " />
<glyph glyph-name="twoinferior" unicode="₂" horiz-adv-x="275" d="M39 21 C39 21 102 47 141 42 C160 40 169 33 166 7 C154 -70 4 -139 4 -139 L14 -200 L247 -200 L254 -131 L128 -131 C128 -131 231 -86 256 9 C273 76 213 108 162 112 C123 116 62 100 27 84 L39 21 Z " />
<glyph glyph-name="threeinferior" unicode="₃" horiz-adv-x="275" d="M70 40 C70 40 116 52 133 54 C155 56 172 53 170 33 C168 7 148 -2 120 -6 C99 -7 92 -7 92 -7 L81 -73 C81 -73 102 -73 110 -73 C160 -73 166 -89 162 -113 C159 -128 132 -136 105 -136 C76 -136 50 -130 27 -127 L3 -185 C34 -197 77 -206 103 -208 C176 -213 254 -182 265 -122 C273 -79 257 -44 188 -35 C235 -26 265 -3 270 33 C279 104 209 120 161 118 C123 118 58 100 58 100 L70 40 Z " />
<glyph glyph-name="fourinferior" unicode="₄" horiz-adv-x="275" d="M198 -201 L213 -127 L255 -127 L266 -67 L224 -67 L261 117 L186 122 L1 -81 L11 -127 L134 -127 L118 -204 L198 -201 Z M163 18 L146 -67 L86 -67 L163 18 Z " />
<glyph glyph-name="fiveinferior" unicode="₅" horiz-adv-x="275" d="M167 63 L257 63 L268 119 L102 119 L61 -21 L90 -57 C90 -57 112 -45 133 -48 C154 -50 171 -64 166 -97 C160 -138 134 -141 102 -141 C82 -142 40 -124 40 -124 L16 -176 C16 -176 71 -205 108 -205 C191 -205 237 -165 247 -100 C255 -48 226 7 147 7 C150 15 157 36 167 63 L167 63 Z " />
<glyph glyph-name="sixinferior" unicode="₆" horiz-adv-x="275" d="M148 -3 C167 31 199 63 240 84 C237 91 215 132 215 132 C107 85 55 14 33 -64 C7 -156 58 -200 117 -204 C178 -209 241 -174 256 -106 C269 -47 233 -1 176 -1 C155 -1 154 -1 148 -3 L148 -3 Z M107 -99 C113 -66 133 -55 146 -55 C166 -54 181 -68 176 -101 C171 -140 150 -150 136 -149 C113 -147 103 -128 107 -99 L107 -99 Z " />
<glyph glyph-name="seveninferior" unicode="₇" horiz-adv-x="275" d="M30 58 L165 59 C61 -58 38 -205 38 -205 L117 -202 C156 -27 253 65 253 65 L234 117 L40 117 L30 58 Z " />
<glyph glyph-name="eightinferior" unicode="₈" horiz-adv-x="275" d="M201 -33 C223 -19 250 -4 256 43 C262 87 223 125 162 123 C111 122 55 94 44 49 C38 17 46 -7 76 -35 C52 -48 19 -65 7 -97 C-19 -159 38 -204 107 -204 C161 -205 238 -184 252 -121 C260 -79 243 -55 201 -33 L201 -33 Z M113 41 C113 59 134 72 156 73 C175 74 186 57 184 39 C182 15 167 2 157 -5 C141 4 113 20 113 41 L113 41 Z M162 -109 C161 -137 138 -151 117 -147 C93 -143 81 -128 86 -104 C90 -85 106 -70 117 -61 C146 -76 163 -87 162 -109 L162 -109 Z " />
<glyph glyph-name="nineinferior" unicode="₉" horiz-adv-x="275" d="M138 -79 C119 -113 87 -145 46 -166 C49 -173 71 -214 71 -214 C179 -167 231 -96 253 -18 C279 74 228 118 169 122 C108 127 45 92 30 24 C17 -35 53 -81 110 -81 C131 -81 132 -81 138 -79 L138 -79 Z M179 17 C173 -16 153 -27 140 -27 C120 -28 105 -14 110 19 C115 58 136 68 150 67 C173 65 184 46 179 17 L179 17 Z " />
<glyph glyph-name="plusinferior" unicode="₊" horiz-adv-x="285" d="M180 -156 L180 -85 L255 -85 L257 -12 L180 -12 L180 64 L105 63 L105 -12 L23 -12 L22 -85 L105 -85 L105 -157 L180 -156 Z " />
<glyph glyph-name="minusinferior" unicode="₋" horiz-adv-x="285" d="M257 -10 L28 -10 L26 -87 L255 -87 L257 -10 Z " />
<glyph glyph-name="equalsinferior" unicode="₌" horiz-adv-x="288" d="M257 -66 L28 -66 L26 -143 L255 -143 L257 -66 Z M257 48 L28 48 L26 -29 L255 -29 L257 48 Z " />
<glyph glyph-name="Euro" unicode="€" horiz-adv-x="553" d="M-2 321 L51 321 C48 307 46 293 45 280 L11 280 L-2 213 L44 213 C53 93 123 -4 261 -4 C292 -4 324 1 358 13 C391 24 518 75 518 75 L498 138 C498 138 360 94 299 96 C238 98 204 141 196 213 L348 213 L361 280 L196 280 L202 321 L348 321 L361 388 L218 388 C252 497 318 569 419 569 C493 569 560 532 560 532 L600 620 C554 648 492 657 441 657 C293 657 131 539 71 388 L11 388 L-2 321 Z " />
<glyph glyph-name="trademark" unicode="™" horiz-adv-x="705" d="M445 563 L490 391 L559 393 L617 569 L626 391 L699 393 L681 658 L589 655 L530 470 L468 658 L383 655 L365 391 L434 395 L445 563 Z M327 607 L327 655 L66 655 L66 607 L155 607 L155 391 L235 394 L235 607 L327 607 Z " />
<glyph glyph-name="partialdiff" unicode="∂" horiz-adv-x="562" d="M416 400 C384 439 357 452 306 455 C149 467 51 349 38 239 C25 93 106 2 254 2 C432 2 551 141 567 361 C583 581 492 686 342 693 C225 698 125 646 125 646 L159 553 C159 553 228 584 307 584 C391 584 423 522 416 400 L416 400 Z M291 108 C216 87 177 153 190 228 C199 283 253 355 340 339 C385 331 396 284 400 262 C384 189 357 126 291 108 L291 108 Z " />
<glyph glyph-name="Delta" unicode="∆" horiz-adv-x="616" d="M314 655 L7 75 L-8 0 L549 0 L564 75 L484 655 L314 655 Z M374 551 L421 93 L152 92 L374 551 Z " />
<glyph glyph-name="product" unicode="∏" horiz-adv-x="591" d="" />
<glyph glyph-name="summation" unicode="∑" horiz-adv-x="494" d="M539 656 L105 655 L87 563 L224 305 L-35 28 L-49 -62 L423 -62 L444 42 L126 43 L357 295 L221 561 L521 561 L539 656 Z " />
<glyph glyph-name="minus" unicode="−" horiz-adv-x="532" d="M525 374 L57 374 L54 280 L521 280 L525 374 Z " />
<glyph glyph-name="radical" unicode="√" horiz-adv-x="538" d="M33 380 L66 303 L143 333 L308 -80 L417 -80 L658 849 L549 849 L360 80 L221 452 L33 380 Z " />
<glyph glyph-name="infinity" unicode="∞" horiz-adv-x="798" d="M608 346 C658 346 682 311 682 270 C682 217 641 189 601 189 C563 189 523 228 482 269 C524 309 565 346 608 346 L608 346 Z M339 269 C295 221 256 189 213 189 C173 189 141 218 141 269 C141 319 182 347 223 347 C261 347 296 319 339 269 L339 269 Z M406 212 C476 141 541 95 624 95 C689 95 782 152 784 267 C786 350 744 440 633 440 C547 440 478 394 407 327 C343 398 279 439 202 439 C87 439 37 352 31 278 C26 203 56 95 191 95 C272 95 339 141 406 212 L406 212 Z " />
<glyph glyph-name="integral" unicode="∫" horiz-adv-x="317" d="M421 784 C421 784 396 793 369 793 C278 793 193 711 169 588 C148 483 102 171 78 51 C60 -42 14 -58 -15 -58 C-29 -58 -40 -54 -40 -54 L-68 -142 C-68 -142 -49 -153 -11 -153 C83 -153 161 -71 184 47 C206 165 241 413 273 578 C297 702 353 707 387 698 L421 784 Z " />
<glyph glyph-name="approxequal" unicode="≈" horiz-adv-x="568" d="M37 394 L81 333 C81 333 117 397 178 397 C238 397 322 325 395 325 C475 325 533 395 533 395 L499 467 C499 467 457 409 394 409 C336 409 249 479 172 479 C95 479 37 394 37 394 L37 394 Z M71 146 C71 146 121 209 182 209 C242 209 322 143 395 143 C475 143 539 222 539 222 L496 286 C496 286 460 229 397 229 C339 229 257 294 180 294 C97 294 37 217 37 217 L71 146 Z " />
<glyph glyph-name="notequal" unicode="≠" horiz-adv-x="563" d="M524 377 L524 456 L375 456 L404 521 L346 542 L314 456 L62 456 L62 377 L285 377 L241 265 L62 265 L63 186 L214 186 L188 122 L243 99 L276 186 L525 186 L524 265 L305 265 L350 377 L524 377 Z " />
<glyph glyph-name="lessequal" unicode="≤" horiz-adv-x="555" d="M524 84 L57 84 L55 0 L521 0 L524 84 Z M428 631 L111 426 L111 349 L422 139 L474 205 L222 390 L474 565 L428 631 Z " />
<glyph glyph-name="greaterequal" unicode="≥" horiz-adv-x="555" d="M535 84 L68 84 L67 0 L532 0 L535 84 Z M162 631 L115 565 L367 390 L115 205 L168 139 L478 349 L478 426 L162 631 Z " />
<glyph glyph-name="lozenge" unicode="◊" horiz-adv-x="538" d="M304 674 L52 324 L169 -25 L264 -25 L509 324 L400 674 L304 674 Z M332 582 L418 323 L234 71 L150 327 L332 582 Z " />
<glyph glyph-name="ffj" unicode="" horiz-adv-x="837" d="M-67 -33 L-96 -116 C-96 -116 -62 -131 -16 -133 C78 -138 193 -78 221 71 C221 71 250 205 275 331 L412 331 L347 0 C341 -31 322 -40 286 -45 C266 -48 225 -39 225 -39 L196 -122 C196 -122 215 -131 261 -133 C355 -138 470 -78 498 71 C498 71 523 205 548 331 L679 331 L612 -10 C600 -73 568 -105 526 -156 C531 -161 589 -215 596 -222 C702 -139 745 -31 764 65 L833 418 L565 419 L577 483 C586 529 597 552 666 552 C702 552 754 546 829 534 L858 616 C858 616 716 641 669 643 C632 645 579 636 544 616 C501 623 432 641 395 643 C302 648 185 586 157 438 L153 419 L63 420 L49 346 L136 331 L70 0 C64 -31 45 -45 9 -45 C-9 -45 -35 -41 -67 -33 L-67 -33 Z M429 419 L292 419 L303 483 C311 529 323 552 391 552 C420 552 456 545 470 540 C454 512 440 478 429 419 L429 419 Z " />
<glyph glyph-name="fj" unicode="" horiz-adv-x="558" d="M349 54 C327 -52 300 -88 240 -151 C246 -155 300 -213 306 -220 C410 -148 463 -42 482 48 L555 419 L290 419 L302 483 C311 529 321 552 390 552 C426 552 479 546 553 534 L582 617 C582 617 441 642 395 644 C301 649 186 587 153 420 L64 420 L50 346 L136 331 L71 0 C65 -31 46 -45 10 -45 C-8 -45 -34 -41 -66 -33 L-95 -116 C-95 -116 -61 -131 -15 -133 C79 -138 194 -78 222 71 C222 71 249 205 274 331 L402 331 L349 54 Z " />
<glyph glyph-name="zero.onum" unicode="" horiz-adv-x="485" d="M26 225 C-3 104 57 -10 190 -6 C285 -3 428 81 457 202 C485 322 411 431 292 431 C173 431 50 330 26 225 L26 225 Z M219 90 C165 90 143 147 156 217 C176 321 220 344 268 344 C317 344 343 287 332 217 C317 117 268 90 219 90 L219 90 Z " />
<glyph glyph-name="one.onum" unicode="" horiz-adv-x="433" d="M135 0 L281 0 L368 439 L68 357 L70 282 L196 308 L135 0 Z " />
<glyph glyph-name="two.onum" unicode="" horiz-adv-x="444" d="M-4 77 L-1 0 L361 0 L387 92 C387 92 281 92 183 92 C271 126 401 181 417 279 C428 347 394 429 268 433 C162 436 57 353 57 353 L87 274 C117 293 177 328 226 328 C249 328 266 320 272 300 C301 202 -4 77 -4 77 L-4 77 Z " />
<glyph glyph-name="three.onum" unicode="" horiz-adv-x="428" d="M45 308 C192 358 260 354 251 272 C243 207 144 186 91 182 L74 87 C96 89 115 88 136 87 C201 84 245 55 232 -9 C219 -73 167 -83 118 -84 C76 -85 -21 -68 -21 -68 L-60 -160 C-60 -160 47 -187 130 -187 C242 -187 362 -132 384 -9 C403 95 323 145 209 143 C292 155 368 200 389 268 C420 380 331 429 246 431 C155 433 61 398 24 383 L45 308 Z " />
<glyph glyph-name="four.onum" unicode="" horiz-adv-x="507" d="M460 425 L310 431 L0 85 L13 0 L237 0 L201 -179 L344 -171 L378 0 L468 0 L489 92 L395 92 L460 425 Z M300 290 L255 92 L142 92 L300 290 Z " />
<glyph glyph-name="five.onum" unicode="" horiz-adv-x="461" d="M239 341 L431 341 L447 425 L138 425 L70 179 L112 116 C112 116 161 134 196 128 C239 120 275 92 265 31 C252 -35 199 -84 134 -84 C75 -84 14 -62 14 -62 L-26 -148 C-26 -148 68 -187 139 -187 C302 -187 393 -90 416 27 C433 108 400 226 243 226 C236 226 213 225 204 222 L239 341 Z " />
<glyph glyph-name="six.onum" unicode="" horiz-adv-x="504" d="M225 367 C274 468 343 537 424 578 C417 592 381 656 381 656 C167 564 57 405 28 246 C-4 73 90 -10 209 -10 C328 -10 446 63 474 188 C499 304 429 393 326 393 C289 393 254 383 225 367 L225 367 Z M167 193 C180 266 234 298 264 299 C316 302 344 260 332 198 C317 120 283 90 226 90 C180 90 157 137 167 193 L167 193 Z " />
<glyph glyph-name="seven.onum" unicode="" horiz-adv-x="492" d="M49 335 L359 334 C135 100 53 -185 53 -185 L200 -179 C270 141 486 335 486 335 L468 425 L69 425 L49 335 Z " />
<glyph glyph-name="eight.onum" unicode="" horiz-adv-x="535" d="M380 345 C412 357 498 390 510 470 C529 567 457 627 344 629 C242 631 137 580 120 483 C108 415 125 366 188 321 C136 310 55 255 37 188 C6 63 103 -2 218 -6 C348 -11 460 59 480 157 C498 247 450 303 380 345 L380 345 Z M251 476 C256 512 278 549 328 544 C366 540 395 511 387 470 C376 412 337 390 318 385 C285 403 245 433 251 476 L251 476 Z M333 158 C326 109 296 82 246 85 C195 88 154 119 165 175 C176 232 232 263 251 270 C300 243 342 221 333 158 L333 158 Z " />
<glyph glyph-name="nine.onum" unicode="" horiz-adv-x="511" d="M280 57 C232 -57 97 -146 97 -146 L148 -217 C378 -95 448 19 477 178 C509 351 415 434 296 434 C177 434 59 361 31 236 C6 120 76 31 179 31 C216 31 251 41 280 57 L280 57 Z M338 231 C325 158 271 126 241 125 C189 122 161 164 173 226 C188 304 222 334 279 334 C325 334 348 287 338 231 L338 231 Z " />
<glyph glyph-name="A.smcp" unicode="" horiz-adv-x="462" d="M205 164 L251 292 L260 292 L263 164 L205 164 Z M421 0 L367 428 L189 423 L-25 0 L131 -12 L176 84 L268 84 L273 -12 L421 0 Z " />
<glyph glyph-name="B.smcp" unicode="" horiz-adv-x="439" d="M14 12 C14 12 97 -7 176 -11 C298 -17 389 12 409 111 C427 198 381 221 320 222 C368 227 419 262 426 327 C435 415 342 431 274 430 C182 428 92 418 92 418 L14 12 Z M222 345 C251 351 295 348 290 308 C285 269 247 255 206 263 L222 345 Z M190 185 C190 185 200 188 214 188 C252 188 274 176 268 131 C261 89 239 69 201 69 C193 69 170 73 170 73 L190 185 Z " />
<glyph glyph-name="C.smcp" unicode="" horiz-adv-x="408" d="M408 403 C408 403 326 430 248 427 C144 422 59 343 34 225 C10 112 45 -3 166 -12 C217 -16 358 11 358 11 L347 96 C347 96 276 86 234 90 C190 94 173 145 187 214 C201 285 239 333 295 330 C333 328 384 313 384 313 L408 403 Z " />
<glyph glyph-name="D.smcp" unicode="" horiz-adv-x="478" d="M193 -12 C311 -12 437 54 463 223 C486 370 391 428 290 428 C219 428 93 419 93 419 L13 7 C49 -5 154 -12 193 -12 L193 -12 Z M223 344 C232 346 246 346 253 346 C292 346 335 333 314 213 C293 91 266 75 204 76 C193 76 173 79 173 79 L223 344 Z " />
<glyph glyph-name="E.smcp" unicode="" horiz-adv-x="378" d="M329 73 L173 73 L197 185 L335 185 L349 260 L210 260 L227 346 L378 346 L393 423 L94 423 L13 0 L317 0 L329 73 Z " />
<glyph glyph-name="F.smcp" unicode="" horiz-adv-x="381" d="M381 346 L396 423 L95 423 L10 -8 L158 0 L193 178 L334 178 L349 253 L207 253 L225 346 L381 346 Z " />
<glyph glyph-name="G.smcp" unicode="" horiz-adv-x="458" d="M35 225 C4 82 64 -12 203 -12 C269 -12 334 10 389 28 L424 205 L300 220 L274 89 C183 58 166 127 183 214 C201 302 245 336 321 329 C372 324 420 316 420 316 L439 406 C439 406 327 430 249 427 C145 422 60 343 35 225 L35 225 Z " />
<glyph glyph-name="H.smcp" unicode="" horiz-adv-x="470" d="M474 429 L327 423 L298 266 L209 266 L240 429 L94 423 L10 -8 L156 -1 L192 188 L282 188 L244 -8 L391 -1 L474 429 Z " />
<glyph glyph-name="I.smcp" unicode="" horiz-adv-x="233" d="M154 1 L236 430 L92 423 L10 -8 L154 1 Z " />
<glyph glyph-name="J.smcp" unicode="" horiz-adv-x="237" d="M24 69 C12 9 -47 -61 -47 -61 L18 -117 C18 -117 146 -55 177 104 L240 429 L93 423 L24 69 Z " />
<glyph glyph-name="K.smcp" unicode="" horiz-adv-x="462" d="M424 19 L324 212 L478 366 L379 443 L206 257 L239 429 L94 423 L10 -8 L156 0 L195 207 L285 -17 L424 19 Z " />
<glyph glyph-name="L.smcp" unicode="" horiz-adv-x="362" d="M176 91 L240 427 L92 423 L10 0 L330 0 L350 91 L176 91 Z " />
<glyph glyph-name="M.smcp" unicode="" horiz-adv-x="670" d="M206 271 L215 271 L237 -7 L373 0 L487 271 L496 271 L456 -7 L607 0 L638 429 L429 423 L342 181 L332 181 L325 428 L117 423 L0 -7 L148 0 L206 271 Z " />
<glyph glyph-name="N.smcp" unicode="" horiz-adv-x="479" d="M187 271 L195 271 L246 -8 L398 0 L482 429 L346 423 L322 193 L313 193 L261 429 L94 423 L10 -8 L157 0 L187 271 Z " />
<glyph glyph-name="O.smcp" unicode="" horiz-adv-x="480" d="M272 341 C313 341 326 297 311 212 C295 121 264 77 222 82 C196 85 167 115 186 218 C203 314 234 342 272 341 L272 341 Z M461 197 C493 364 395 425 292 429 C172 434 61 363 34 227 C2 59 107 -6 196 -12 C317 -20 435 63 461 197 L461 197 Z " />
<glyph glyph-name="P.smcp" unicode="" horiz-adv-x="444" d="M288 278 C281 229 261 207 222 207 L203 207 L226 342 C226 342 233 344 254 344 C274 344 295 327 288 278 L288 278 Z M436 283 C450 362 399 432 292 429 C257 428 97 418 97 418 L10 -8 L160 0 L187 132 C194 131 199 131 206 131 C327 131 414 162 436 283 L436 283 Z " />
<glyph glyph-name="Q.smcp" unicode="" horiz-adv-x="481" d="M461 197 C493 364 395 425 292 429 C172 434 61 363 34 227 C2 59 107 -6 196 -12 C217 -13 239 -12 260 -8 L316 -68 L391 -29 L363 38 C411 75 448 129 461 197 L461 197 Z M272 341 C313 341 326 297 311 212 C295 121 264 77 222 82 C196 85 167 115 186 218 C203 314 234 342 272 341 L272 341 Z " />
<glyph glyph-name="R.smcp" unicode="" horiz-adv-x="446" d="M431 48 C431 48 331 132 296 165 C356 174 429 195 438 300 C447 410 367 432 252 429 C204 428 93 415 93 415 L10 -8 L157 0 L187 138 L301 -34 L431 48 Z M202 220 L224 342 C224 342 233 344 252 344 C272 344 298 326 288 283 C280 249 264 220 220 218 C206 217 207 219 202 220 L202 220 Z " />
<glyph glyph-name="S.smcp" unicode="" horiz-adv-x="412" d="M277 341 C322 344 376 328 376 328 L397 411 C397 411 333 429 250 429 C180 429 86 417 61 327 C21 184 206 183 217 127 C225 88 177 79 144 79 C106 79 31 97 31 97 L6 18 C6 18 76 -8 155 -12 C267 -18 358 34 376 101 C417 251 205 246 209 298 C212 329 248 340 277 341 L277 341 Z " />
<glyph glyph-name="T.smcp" unicode="" horiz-adv-x="395" d="M60 423 L45 346 L159 346 L89 -12 L231 0 L303 346 L409 346 L424 423 L60 423 Z " />
<glyph glyph-name="U.smcp" unicode="" horiz-adv-x="462" d="M324 423 C324 423 293 258 277 180 C261 103 242 81 214 77 C173 71 170 96 186 176 L233 429 L87 423 L36 159 C16 50 95 -19 199 -12 C303 -4 399 62 421 172 L469 429 L324 423 Z " />
<glyph glyph-name="V.smcp" unicode="" horiz-adv-x="422" d="M56 420 L91 -4 L252 0 L462 423 L336 429 L211 133 L203 133 L192 429 L56 420 Z " />
<glyph glyph-name="W.smcp" unicode="" horiz-adv-x="624" d="M326 261 L332 261 L321 -8 L484 0 L662 423 L534 428 L432 157 L427 157 L430 428 L294 424 L200 157 L195 157 L200 428 L62 423 L80 -8 L237 0 L326 261 Z " />
<glyph glyph-name="X.smcp" unicode="" horiz-adv-x="434" d="M467 412 L341 421 L246 296 L240 296 L192 421 L56 415 L158 224 L-22 5 L112 -8 L215 130 L222 130 L275 -15 L396 21 L297 215 L467 412 Z " />
<glyph glyph-name="Y.smcp" unicode="" horiz-adv-x="400" d="M117 159 L83 -7 L230 0 L260 155 L436 420 L312 429 L221 268 L212 268 L192 428 L58 422 L117 159 Z " />
<glyph glyph-name="Z.smcp" unicode="" horiz-adv-x="432" d="M86 423 L84 345 L243 345 L16 80 L32 0 L377 0 L383 74 L178 74 L422 354 L404 423 L86 423 Z " />
<glyph glyph-name="ff" unicode="ﬀ" horiz-adv-x="638" d="M-67 -33 L-96 -116 C-96 -116 -62 -131 -16 -133 C78 -138 193 -78 221 71 C221 71 246 205 271 331 L406 331 L341 -7 C336 -35 315 -45 281 -45 C263 -45 237 -41 205 -33 L176 -116 C176 -116 210 -131 256 -133 C350 -138 465 -78 493 71 C493 71 518 205 543 331 L649 331 L666 419 L560 419 C567 453 566 464 571 483 C584 532 593 556 639 556 C658 556 697 549 716 544 L745 627 C745 627 695 642 649 644 C611 646 572 637 538 616 C502 623 430 642 392 644 C298 650 186 587 153 420 L60 420 L46 346 L136 331 L70 0 C64 -31 45 -45 9 -45 C-9 -45 -35 -41 -67 -33 L-67 -33 Z M299 483 C308 529 318 552 387 552 C416 552 433 549 464 540 C447 512 434 478 423 419 L287 419 L299 483 Z " />
<glyph glyph-name="fi" unicode="ﬁ" horiz-adv-x="558" d="M-67 -33 L-96 -116 C-96 -116 -62 -131 -16 -133 C78 -138 193 -78 221 71 C221 71 247 205 271 331 L402 331 L336 -6 L472 0 L554 419 L288 419 L300 483 C309 529 319 552 389 552 C425 552 497 534 497 534 L525 617 C525 617 439 642 393 644 C299 649 186 587 153 420 L74 420 L60 346 L136 331 L67 -11 C62 -35 40 -45 9 -45 C-9 -45 -35 -41 -67 -33 L-67 -33 Z " />
<glyph glyph-name="fl" unicode="ﬂ" horiz-adv-x="560" d="M-66 -33 L-95 -116 C-95 -116 -61 -131 -15 -133 C79 -138 194 -78 222 71 C222 71 247 205 271 331 L357 331 L374 419 L288 419 L300 483 C312 549 352 555 416 555 C430 555 443 550 443 550 L332 -11 L471 0 L591 615 C591 615 439 642 393 644 C299 649 186 587 157 438 L153 420 L62 420 L48 346 L136 331 L71 0 C65 -31 46 -45 10 -45 C-8 -45 -34 -41 -66 -33 L-66 -33 Z " />
<glyph glyph-name="ffi" unicode="ﬃ" horiz-adv-x="830" d="M214 -128 C213 -130 239 -132 254 -133 C348 -138 463 -78 491 71 C491 71 517 205 542 331 L670 331 L604 -6 L740 0 L822 419 L559 419 C564 438 569 470 571 483 C580 529 589 552 659 552 C695 552 747 546 822 534 L850 617 C850 617 695 642 648 644 C610 646 572 636 538 616 C494 623 432 642 396 644 C301 650 186 587 153 420 L61 419 L50 346 L136 331 L68 -11 C63 -35 41 -45 10 -45 C-8 -45 -34 -41 -66 -33 L-95 -116 C-95 -116 -61 -131 -15 -133 C79 -138 194 -78 222 71 C222 71 249 205 273 331 L406 331 L340 0 C334 -31 315 -45 279 -45 C267 -45 251 -44 233 -40 C234 -41 215 -126 214 -128 L214 -128 Z M423 419 L290 419 L302 483 C311 529 322 552 391 552 C420 552 442 546 463 540 C446 512 434 478 423 419 L423 419 Z " />
<glyph glyph-name="ffl" unicode="ﬄ" horiz-adv-x="837" d="M491 71 C504 142 525 257 540 331 L631 331 L648 419 L557 419 L569 483 C579 532 620 555 685 555 C700 555 717 549 717 549 L607 -11 L744 2 L864 612 C864 612 708 642 662 644 C625 646 572 637 538 616 C494 624 427 642 390 644 C296 650 185 587 156 438 L152 420 L74 420 L60 346 L135 331 L68 -11 C63 -35 41 -45 10 -45 C-8 -45 -34 -41 -66 -33 L-95 -116 C-95 -116 -61 -131 -15 -133 C79 -138 191 -77 219 72 C232 143 254 258 269 331 L404 331 L340 0 C334 -31 315 -45 279 -45 C267 -45 251 -44 233 -40 C234 -41 215 -126 214 -128 C213 -130 239 -132 254 -133 C348 -138 463 -78 491 71 L491 71 Z M421 419 L286 419 L298 483 C307 529 317 552 386 552 C415 552 435 549 462 540 C445 512 430 478 424 438 L421 419 Z " />
</font>
</svg>
