<?xml version="1.0" encoding="UTF-8"?>
<!-- Generator: Adobe Illustrator 17.1.0, SVG Export Plug-In . SVG Version: 6.00 Build 0)  --><svg xmlns="http://www.w3.org/2000/svg" xmlns:xlink="http://www.w3.org/1999/xlink" version="1.1" id="Layer_1" x="0px" y="0px" viewBox="0 0 38.8 38.8" style="enable-background:new 0 0 38.8 38.8;" xml:space="preserve">
<style type="text/css">
	.st0{fill:#C0C0C0;}
	.st1{fill:#64666D;}
	.st2{fill:#50525A;}
</style>
<path class="st0" d="M19.4,38.8C8.7,38.8,0,30.1,0,19.4S8.7,0,19.4,0c10.7,0,19.4,8.7,19.4,19.4S30.1,38.8,19.4,38.8z M19.4,1  C9.3,1,1,9.3,1,19.4c0,10.2,8.3,18.4,18.4,18.4c10.2,0,18.4-8.3,18.4-18.4C37.8,9.3,29.6,1,19.4,1z" />
<g>
	<polygon class="st1" points="11.8,25 11.8,20.1 14.3,17.7 16.7,20.1 21.7,15.2 26.6,20.1 26.6,25  " />
	<polygon class="st2" points="11.8,25 21.7,15.2 26.6,20.1 26.6,25  " />
	<polygon class="st1" points="21.7,15.2 23.6,25 26.6,25 26.6,20.1  " />
	<rect x="28.3" y="9.7" class="st2" width="1.1" height="5.6" />
	<rect x="26.1" y="11.9" class="st2" width="5.6" height="1.1" />
	<path class="st2" d="M28.8,17.4c-0.1,0-0.2,0-0.3,0v9.4H10V12.9h14c0-0.1,0-0.2,0-0.4c0-0.1,0-0.2,0-0.3H10c-0.4,0-0.7,0.3-0.7,0.7   v13.9c0,0.4,0.3,0.7,0.7,0.7h18.5c0.4,0,0.7-0.3,0.7-0.7v-9.4C29.1,17.4,29,17.4,28.8,17.4z" />
</g>
</svg>
