<?xml version="1.0" encoding="UTF-8"?>
<svg xmlns="http://www.w3.org/2000/svg" xmlns:xlink="http://www.w3.org/1999/xlink" version="1.2">
<font id="VectipedeRg-Bold">
<font-face font-family="Vectipede" units-per-em="1000" ascent="760" descent="-240" font-style="normal" font-weight="700" font-stretch="normal" cap-height="710" x-height="526" underline-position="-133" underline-thickness="20" />
<missing-glyph horiz-adv-x="698" d="M338 119 L159 167 L187 269 C218 383 284 377 361 389 C413 397 422 412 441 472 C449 499 450 508 450 517 C450 560 411 595 352 595 C337 595 322 592 307 586 L277 523 L134 562 L175 720 C211 742 255 754 306 754 C449 754 638 682 638 521 C638 500 635 477 629 453 L615 404 C590 317 560 278 463 260 C413 250 374 251 359 195 L338 119 Z M280 -150 L71 -94 L120 92 L330 35 L280 -150 Z M548 -240 C630 -240 672 -203 672 -134 L672 721 C672 793 630 828 548 828 L148 828 C65 828 26 793 26 721 L26 -134 C26 -203 65 -240 148 -240 L548 -240 Z " />
<glyph glyph-name="NULL" d="" />
<glyph glyph-name="CR" unicode="&#xD;" horiz-adv-x="283" d="" />
<glyph glyph-name="space" unicode=" " horiz-adv-x="283" d="" />
<glyph glyph-name="exclam" unicode="!" horiz-adv-x="223" d="M185 0 L185 156 L36 156 L36 0 L185 0 Z M150 213 C179 389 194 505 194 652 C194 676 192 694 189 710 L36 710 C31 696 29 676 29 652 C29 505 43 388 73 213 L150 213 Z " />
<glyph glyph-name="quotedbl" unicode="&quot;" horiz-adv-x="356" d="M141 443 L141 710 L30 710 L30 443 L141 443 Z M323 443 L323 710 L212 710 L212 443 L323 443 Z " />
<glyph glyph-name="numbersign" unicode="#" horiz-adv-x="565" d="M289 710 L197 710 L166 509 L67 509 L55 414 L151 414 L132 295 L37 295 L27 201 L118 201 L87 0 L182 0 L212 201 L302 201 L272 0 L368 0 L398 201 L498 201 L508 295 L413 295 L431 414 L523 414 L537 509 L445 509 L476 710 L380 710 L349 509 L259 509 L289 710 Z M244 414 L335 414 L317 295 L226 295 L244 414 Z " />
<glyph glyph-name="dollar" unicode="$" horiz-adv-x="505" d="M307 0 L307 80 C408 90 476 132 476 224 L476 273 C476 383 402 394 231 423 C173 433 154 440 154 482 C154 529 177 544 257 544 C286 544 313 542 337 531 L348 456 L449 456 L449 592 C415 616 368 629 307 633 L307 710 L193 710 L193 632 C99 622 28 584 28 489 L28 448 C28 337 119 325 268 301 C323 292 345 287 345 238 C345 197 322 178 237 178 C205 178 172 187 144 202 L135 268 L33 268 L33 132 C71 106 124 87 193 80 L193 0 L307 0 Z " />
<glyph glyph-name="percent" unicode="%" horiz-adv-x="704" d="M278 597 C278 697 229 729 152 729 C75 729 26 697 26 597 L26 487 C26 387 75 356 152 356 C229 356 278 387 278 487 L278 597 Z M194 475 C194 435 173 426 152 426 C131 426 110 435 110 475 L110 610 C110 649 132 658 152 658 C173 658 194 649 194 610 L194 475 Z M188 -21 L608 732 L514 732 L96 -21 L188 -21 Z M678 222 C678 322 629 354 552 354 C475 354 426 322 426 222 L426 112 C426 12 475 -19 552 -19 C629 -19 678 12 678 112 L678 222 Z M594 100 C594 60 573 51 552 51 C531 51 510 60 510 100 L510 235 C510 274 532 283 552 283 C573 283 594 274 594 235 L594 100 Z " />
<glyph glyph-name="ampersand" unicode="&amp;" horiz-adv-x="647" d="M500 0 L624 0 L624 90 L572 103 L550 124 C604 174 616 222 616 319 L616 340 L496 340 L496 323 C496 285 493 250 457 217 L338 335 C438 382 468 425 468 508 L468 566 C468 679 418 728 276 728 C134 728 75 679 75 566 L75 514 C75 454 93 408 139 362 L139 361 C64 327 26 289 26 205 L26 153 C26 20 107 -18 239 -18 C360 -18 415 -1 459 40 L500 0 Z M210 509 L210 556 C210 603 239 617 281 617 C322 617 347 603 347 556 L347 508 C347 464 325 447 258 416 L257 415 C228 445 210 470 210 509 L210 509 Z M365 133 C336 107 307 97 264 97 C203 97 169 117 169 179 C169 243 174 258 220 280 L366 134 L365 133 Z " />
<glyph glyph-name="quotesingle" unicode="'" horiz-adv-x="171" d="M141 443 L141 710 L30 710 L30 443 L141 443 Z " />
<glyph glyph-name="parenleft" unicode="(" horiz-adv-x="349" d="M358 -153 C266 0 221 159 221 320 C221 479 266 633 358 779 L253 779 C129 645 73 486 73 322 C73 150 134 -19 253 -153 L358 -153 Z " />
<glyph glyph-name="parenright" unicode=")" horiz-adv-x="349" d="M96 -153 C214 -19 276 150 276 322 C276 486 219 645 96 779 L-9 779 C83 632 127 478 127 320 C127 159 82 0 -9 -153 L96 -153 Z " />
<glyph glyph-name="asterisk" unicode="*" horiz-adv-x="431" d="M359 389 L276 504 L404 544 L379 613 L254 573 L254 716 L173 716 L174 573 L49 613 L26 544 L154 504 L71 389 L133 345 L214 457 L298 345 L359 389 Z " />
<glyph glyph-name="plus" unicode="+" horiz-adv-x="608" d="M355 113 L355 316 L557 316 L557 420 L355 420 L355 621 L251 621 L251 420 L50 420 L50 316 L251 316 L251 113 L355 113 Z " />
<glyph glyph-name="comma" unicode="," horiz-adv-x="214" d="M89 -137 C130 -103 167 -53 184 -7 L184 162 L32 162 L32 0 L115 0 C99 -34 71 -66 45 -91 L89 -137 Z " />
<glyph glyph-name="hyphen" unicode="-" horiz-adv-x="324" d="M295 273 L295 385 L29 385 L29 273 L295 273 Z " />
<glyph glyph-name="period" unicode="." horiz-adv-x="212" d="M182 0 L182 162 L30 162 L30 0 L182 0 Z " />
<glyph glyph-name="slash" unicode="/" horiz-adv-x="331" d="M124 -107 L326 710 L205 710 L5 -107 L124 -107 Z " />
<glyph glyph-name="zero" unicode="0" horiz-adv-x="559" d="M528 464 C528 664 431 728 280 728 C128 728 31 664 31 464 L31 245 C31 45 128 -18 280 -18 C431 -18 528 45 528 245 L528 464 Z M386 228 C386 126 337 101 280 101 C220 101 173 127 173 228 L173 481 C173 581 221 608 280 608 C338 608 386 581 386 481 L386 228 Z " />
<glyph glyph-name="one" unicode="1" horiz-adv-x="358" d="M330 0 L330 91 L278 104 L278 710 L176 710 C127 655 71 608 7 565 L68 475 C91 488 115 506 140 525 L140 104 L79 91 L79 0 L330 0 Z " />
<glyph glyph-name="two" unicode="2" horiz-adv-x="529" d="M506 0 L506 207 L418 207 L405 124 L199 124 C383 249 500 356 500 503 C500 659 421 728 270 728 C183 728 101 711 29 669 L72 549 C118 581 180 606 237 606 C312 606 363 562 363 490 C363 343 161 213 31 131 L31 0 L506 0 Z " />
<glyph glyph-name="three" unicode="3" horiz-adv-x="502" d="M21 15 C85 -10 150 -18 220 -18 C371 -18 475 45 475 193 C475 277 437 348 362 371 C426 393 461 458 461 532 C461 654 388 728 227 728 C157 728 80 712 22 674 L59 565 C98 592 155 609 207 609 C279 609 334 578 334 501 C334 438 298 413 240 413 L165 413 L165 309 L239 309 C301 309 342 278 342 211 C342 129 283 100 206 100 C152 100 95 114 57 130 L21 15 Z " />
<glyph glyph-name="four" unicode="4" horiz-adv-x="556" d="M482 0 L482 125 L537 125 L537 235 L482 235 L482 481 L354 481 L354 235 L154 235 C229 363 308 533 356 680 L237 725 C182 570 107 407 18 257 L18 125 L350 125 L350 0 L482 0 Z " />
<glyph glyph-name="five" unicode="5" horiz-adv-x="523" d="M25 33 C77 -2 149 -18 218 -18 C420 -18 498 57 498 226 C498 364 445 446 296 446 C241 446 196 434 163 411 L179 590 L364 590 L377 505 L464 505 L464 710 L64 710 L29 310 L119 290 C153 333 203 354 253 354 C327 354 370 317 370 233 C370 142 323 102 233 102 C166 102 109 119 64 142 L25 33 Z " />
<glyph glyph-name="six" unicode="6" horiz-adv-x="538" d="M354 728 C134 702 22 511 22 297 C22 109 77 -18 275 -18 C430 -18 516 67 516 225 C516 347 460 441 322 441 C241 441 188 406 158 365 C174 500 249 598 388 615 L354 728 Z M158 279 C187 320 231 348 282 348 C355 348 384 297 384 225 C384 148 353 94 277 94 C184 94 157 160 157 248 C157 258 158 270 158 279 L158 279 Z " />
<glyph glyph-name="seven" unicode="7" horiz-adv-x="505" d="M240 -16 C275 188 380 416 489 600 L489 710 L20 710 L20 501 L108 501 L121 586 L356 586 C232 409 142 219 95 15 L240 -16 Z " />
<glyph glyph-name="eight" unicode="8" horiz-adv-x="546" d="M393 380 C471 403 506 462 506 532 C506 680 409 728 278 728 C147 728 43 680 43 532 C43 456 84 393 163 365 C71 339 19 285 19 189 C19 44 133 -18 276 -18 C420 -18 527 44 527 199 C527 297 479 348 393 380 L393 380 Z M271 324 C340 310 386 274 386 210 C386 135 343 101 273 101 C203 101 158 135 158 206 C158 271 199 316 271 324 L271 324 Z M276 396 C209 410 167 451 167 509 C167 577 205 611 274 611 C343 611 379 577 379 504 C379 451 340 410 276 396 L276 396 Z " />
<glyph glyph-name="nine" unicode="9" horiz-adv-x="538" d="M183 -18 C402 8 514 199 514 408 C514 579 459 728 262 728 C107 728 20 643 20 485 C20 363 76 269 214 269 C296 269 348 303 379 344 C361 209 286 111 149 94 L183 -18 Z M378 430 C350 390 305 363 256 363 C183 363 154 413 154 483 C154 559 185 611 261 611 C352 611 379 546 379 460 C379 452 379 439 378 430 L378 430 Z " />
<glyph glyph-name="colon" unicode=":" horiz-adv-x="238" d="M194 0 L194 162 L43 162 L43 0 L194 0 Z M194 363 L194 523 L43 523 L43 363 L194 363 Z " />
<glyph glyph-name="semicolon" unicode=";" horiz-adv-x="240" d="M101 -137 C143 -103 180 -53 196 -7 L196 162 L44 162 L44 0 L128 0 C112 -34 83 -66 58 -91 L101 -137 Z M196 363 L196 523 L44 523 L44 363 L196 363 Z " />
<glyph glyph-name="less" unicode="&lt;" horiz-adv-x="608" d="M557 106 L557 221 L168 367 L557 512 L557 628 L50 419 L50 315 L557 106 Z " />
<glyph glyph-name="equal" unicode="=" horiz-adv-x="608" d="M557 421 L557 525 L50 525 L50 421 L557 421 Z M557 210 L557 314 L50 314 L50 210 L557 210 Z " />
<glyph glyph-name="greater" unicode="&gt;" horiz-adv-x="608" d="M557 315 L557 419 L50 628 L50 512 L440 367 L50 221 L50 106 L557 315 Z " />
<glyph glyph-name="question" unicode="?" horiz-adv-x="463" d="M269 224 L269 284 C269 332 296 344 344 364 C415 394 434 433 434 506 L434 548 C434 665 358 728 221 728 C133 728 69 706 29 662 L29 529 L130 529 L140 596 C161 613 186 623 217 623 C273 623 306 596 306 538 L306 520 C306 466 297 449 253 432 C181 405 142 389 142 303 L142 224 L269 224 Z M279 0 L279 156 L130 156 L130 0 L279 0 Z " />
<glyph glyph-name="at" unicode="@" horiz-adv-x="578" d="M445 -65 C412 -73 364 -78 311 -78 C224 -78 125 -47 125 139 L125 349 C125 512 160 545 296 545 C409 545 453 512 453 413 L453 388 C419 410 380 418 338 418 C254 418 225 377 225 286 L225 184 C225 87 254 45 336 45 C388 45 435 62 464 102 L468 57 L549 57 L549 410 C549 574 460 633 296 633 C109 633 29 574 29 345 L29 128 C29 -109 151 -168 316 -168 C365 -168 421 -160 463 -146 L445 -65 Z M453 168 C433 142 405 128 373 128 C332 128 321 150 321 193 L321 272 C321 323 334 340 380 340 C407 340 433 330 453 313 L453 168 Z " />
<glyph glyph-name="A" unicode="A" horiz-adv-x="642" d="M621 0 L621 90 L573 103 C524 305 477 507 428 710 L224 710 L68 103 L20 90 L20 0 L233 0 L233 90 L184 103 L214 223 L387 223 L414 103 L365 90 L365 0 L621 0 Z M369 315 L234 315 L305 595 L369 315 Z " />
<glyph glyph-name="B" unicode="B" horiz-adv-x="595" d="M370 0 C517 0 572 62 572 157 L572 208 C572 314 531 345 479 362 C529 382 557 412 557 509 L557 544 C557 643 510 710 377 710 L29 710 L29 619 L81 606 L81 104 L29 91 L29 0 L370 0 Z M417 198 C417 129 397 104 344 104 L230 104 L230 317 L346 317 C399 317 417 277 417 219 L417 198 Z M415 501 C415 443 392 410 346 410 L230 410 L230 605 L345 605 C395 605 415 571 415 521 L415 501 Z " />
<glyph glyph-name="C" unicode="C" horiz-adv-x="557" d="M533 198 L414 198 L405 126 C382 99 347 91 312 91 C215 91 185 144 185 281 L185 428 C185 559 216 618 312 618 C347 618 381 609 403 584 L412 512 L531 512 L531 661 C486 708 400 728 324 728 C110 728 28 655 28 428 L28 282 C28 55 110 -18 324 -18 C400 -18 478 0 533 54 L533 198 Z " />
<glyph glyph-name="D" unicode="D" horiz-adv-x="622" d="M340 0 C521 0 593 74 593 269 L593 441 C593 636 521 710 340 710 L29 710 L29 619 L81 606 L81 104 L29 91 L29 0 L340 0 Z M438 264 C438 146 406 108 340 108 L236 108 L236 602 L340 602 C407 602 438 563 438 446 L438 264 Z " />
<glyph glyph-name="E" unicode="E" horiz-adv-x="571" d="M538 0 L538 219 L452 219 L433 116 L233 116 L233 318 L398 318 L412 263 L484 263 L484 474 L412 474 L398 419 L233 419 L233 600 L432 600 L446 513 L532 513 L532 710 L29 710 L29 619 L81 606 L81 104 L29 91 L29 0 L538 0 Z " />
<glyph glyph-name="F" unicode="F" horiz-adv-x="562" d="M295 0 L295 91 L236 104 L236 288 L393 288 L406 232 L478 232 L478 446 L406 446 L393 391 L236 391 L236 596 L435 596 L452 497 L538 497 L538 710 L29 710 L29 619 L81 606 L81 104 L29 91 L29 0 L295 0 Z " />
<glyph glyph-name="G" unicode="G" horiz-adv-x="581" d="M407 126 C394 110 362 98 303 98 C215 98 184 156 184 272 L184 429 C184 568 219 618 313 618 C350 618 389 610 411 584 L420 512 L539 512 L539 661 C494 708 404 728 310 728 C114 728 29 652 29 428 L29 272 C29 68 104 -18 304 -18 C440 -18 530 33 553 58 L553 392 L319 392 L319 307 L407 294 L407 126 Z " />
<glyph glyph-name="H" unicode="H" horiz-adv-x="666" d="M637 0 L637 91 L584 104 L584 606 L637 619 L637 710 L385 710 L385 619 L434 606 L434 413 L232 413 L232 606 L280 619 L280 710 L29 710 L29 619 L81 606 L81 104 L29 91 L29 0 L280 0 L280 91 L232 104 L232 306 L434 306 L434 104 L385 91 L385 0 L637 0 Z " />
<glyph glyph-name="I" unicode="I" horiz-adv-x="317" d="M288 0 L288 91 L236 104 L236 606 L288 619 L288 710 L29 710 L29 619 L81 606 L81 104 L29 91 L29 0 L288 0 Z " />
<glyph glyph-name="J" unicode="J" horiz-adv-x="328" d="M-62 -152 C-38 -182 1 -206 64 -206 C204 -206 252 -114 252 40 L252 606 L299 618 L299 710 L41 710 L41 618 L99 606 L99 35 C99 -24 88 -87 15 -87 C-13 -87 -33 -78 -52 -61 L-62 -152 Z " />
<glyph glyph-name="K" unicode="K" horiz-adv-x="650" d="M628 0 L628 83 L572 104 L370 423 L541 601 L605 619 L605 710 L377 710 L377 619 L423 606 L233 404 L233 606 L281 619 L281 710 L29 710 L29 619 L81 606 L81 104 L29 91 L29 0 L281 0 L281 91 L233 104 L233 371 L449 0 L628 0 Z " />
<glyph glyph-name="L" unicode="L" horiz-adv-x="539" d="M512 0 L512 280 L424 280 L410 119 L236 119 L236 606 L289 619 L289 710 L29 710 L29 619 L81 606 L81 104 L29 92 L29 0 L512 0 Z " />
<glyph glyph-name="M" unicode="M" horiz-adv-x="872" d="M843 0 L843 91 L791 104 L791 606 L843 619 L843 710 L568 710 L448 176 L331 710 L29 710 L29 619 L81 606 L81 104 L29 91 L29 0 L259 0 L259 91 L211 104 L211 592 L354 0 L511 0 L657 592 L657 104 L609 91 L609 0 L843 0 Z " />
<glyph glyph-name="N" unicode="N" horiz-adv-x="671" d="M595 0 L595 606 L645 619 L645 710 L425 710 L425 619 L473 606 L473 260 L259 710 L29 710 L29 619 L81 606 L81 104 L29 91 L29 0 L260 0 L260 91 L203 104 L203 491 L464 0 L595 0 Z " />
<glyph glyph-name="O" unicode="O" horiz-adv-x="611" d="M582 426 C582 635 493 728 305 728 C117 728 29 635 29 426 L29 284 C29 75 117 -18 305 -18 C493 -18 582 75 582 284 L582 426 Z M426 284 C426 134 391 94 305 94 C220 94 184 134 184 284 L184 426 C184 574 220 616 305 616 C391 616 426 574 426 426 L426 284 Z " />
<glyph glyph-name="P" unicode="P" horiz-adv-x="580" d="M292 0 L292 91 L234 104 L234 259 L359 259 C504 259 559 325 559 485 C559 644 504 710 359 710 L29 710 L29 619 L81 606 L81 104 L29 91 L29 0 L292 0 Z M234 353 L234 605 L334 605 C388 605 411 570 411 481 C411 389 388 353 334 353 L234 353 Z " />
<glyph glyph-name="Q" unicode="Q" horiz-adv-x="624" d="M575 -71 C561 -83 548 -88 535 -88 C508 -88 467 -63 450 23 C546 60 595 146 595 291 L595 435 C595 637 500 728 312 728 C124 728 29 637 29 435 L29 291 C29 85 126 -1 318 -1 C351 -148 419 -181 480 -181 C529 -181 561 -167 575 -148 L575 -71 Z M440 299 C440 154 398 111 312 111 C226 111 184 154 184 299 L184 432 C184 575 226 620 312 620 C398 620 440 575 440 432 L440 299 Z " />
<glyph glyph-name="R" unicode="R" horiz-adv-x="646" d="M624 0 L624 91 L573 104 L573 203 C573 315 530 345 475 360 C526 377 559 410 559 509 L559 544 C559 643 513 710 379 710 L29 710 L29 619 L81 606 L81 104 L29 91 L29 0 L282 0 L282 91 L230 104 L230 309 L353 309 C401 309 421 282 421 225 L421 82 C421 22 438 0 502 0 L624 0 Z M415 499 C415 435 393 405 347 405 L230 405 L230 600 L344 600 C394 600 415 566 415 504 L415 499 Z " />
<glyph glyph-name="S" unicode="S" horiz-adv-x="553" d="M523 247 C523 377 442 403 330 428 C202 456 172 465 172 526 L172 541 C172 609 216 629 276 629 C317 629 348 623 374 605 L383 512 L497 512 L497 662 C448 708 377 728 276 728 C96 728 25 661 25 528 L25 488 C25 343 126 324 233 300 C359 272 379 259 379 206 L379 177 C379 126 343 93 259 93 C216 93 180 102 149 127 L143 198 L30 198 L30 51 C94 0 180 -18 262 -18 C432 -18 523 43 523 199 L523 247 Z " />
<glyph glyph-name="T" unicode="T" horiz-adv-x="588" d="M429 0 L429 91 L371 104 L371 596 L467 596 L481 430 L569 430 L569 710 L19 710 L19 430 L106 430 L120 596 L217 596 L217 104 L158 91 L158 0 L429 0 Z " />
<glyph glyph-name="U" unicode="U" horiz-adv-x="672" d="M465 224 C465 134 434 105 345 105 C260 105 227 133 227 224 L227 606 L275 619 L275 710 L24 710 L24 619 L70 606 L70 241 C70 53 130 -18 334 -18 C560 -18 602 53 602 241 L602 606 L649 619 L649 710 L417 710 L417 619 L465 606 L465 224 Z " />
<glyph glyph-name="V" unicode="V" horiz-adv-x="632" d="M399 0 L564 606 L612 619 L612 710 L390 710 L390 619 L437 606 L330 160 L234 606 L282 619 L282 710 L21 710 L21 619 L68 606 L222 0 L399 0 Z " />
<glyph glyph-name="W" unicode="W" horiz-adv-x="899" d="M724 0 L830 606 L878 619 L878 710 L655 710 L655 619 L702 606 L646 180 L533 710 L404 710 L285 180 L233 606 L280 619 L280 710 L21 710 L21 619 L69 606 L179 0 L345 0 L452 465 L552 0 L724 0 Z " />
<glyph glyph-name="X" unicode="X" horiz-adv-x="622" d="M602 0 L602 91 L552 104 L385 372 L539 606 L595 619 L595 710 L378 710 L378 619 L421 606 L331 454 L245 606 L287 619 L287 710 L27 710 L27 619 L81 606 L240 350 L78 104 L24 91 L24 0 L239 0 L239 91 L196 104 L294 268 L388 104 L346 91 L346 0 L602 0 Z " />
<glyph glyph-name="Y" unicode="Y" horiz-adv-x="601" d="M436 0 L436 91 L378 104 L378 273 L535 606 L580 619 L580 710 L382 710 L382 619 L425 606 L323 382 L223 606 L266 619 L266 710 L21 710 L21 619 L65 606 L223 273 L223 104 L165 91 L165 0 L436 0 Z " />
<glyph glyph-name="Z" unicode="Z" horiz-adv-x="552" d="M528 0 L528 280 L439 280 L421 114 L188 114 L516 602 L516 710 L25 710 L25 430 L115 430 L133 598 L341 598 L24 141 L24 0 L528 0 Z " />
<glyph glyph-name="bracketleft" unicode="[" horiz-adv-x="361" d="M344 -139 L344 -42 L222 -42 L222 671 L344 671 L344 769 L94 769 L94 -139 L344 -139 Z " />
<glyph glyph-name="backslash" unicode="\" horiz-adv-x="331" d="M326 -107 L126 710 L5 710 L207 -107 L326 -107 Z " />
<glyph glyph-name="bracketright" unicode="]" horiz-adv-x="358" d="M269 -139 L269 769 L17 769 L17 671 L141 671 L141 -42 L17 -42 L17 -139 L269 -139 Z " />
<glyph glyph-name="asciicircum" unicode="^" horiz-adv-x="361" d="M332 506 L215 710 L144 710 L29 506 L126 506 L181 611 L233 506 L332 506 Z " />
<glyph glyph-name="underscore" unicode="_" horiz-adv-x="451" d="M450 -146 L450 -73 L3 -73 L3 -146 L450 -146 Z " />
<glyph glyph-name="grave" unicode="`" horiz-adv-x="273" d="M244 580 L166 766 L29 766 L156 580 L244 580 Z " />
<glyph glyph-name="a" unicode="a" horiz-adv-x="546" d="M524 80 C517 73 511 70 501 70 C483 70 472 81 472 108 L472 379 C472 497 417 540 269 540 C191 540 111 528 46 485 L89 385 C137 416 192 428 247 428 C299 428 336 416 336 365 L336 299 C289 313 235 325 170 325 C68 325 19 278 19 184 L19 139 C19 47 65 -18 175 -18 C256 -18 322 16 349 68 C362 9 395 -17 454 -17 C485 -17 511 -10 530 7 L524 80 Z M336 132 C306 105 266 83 218 83 C172 83 157 105 157 151 L157 172 C157 220 175 243 224 243 C271 243 312 234 336 227 L336 132 Z " />
<glyph glyph-name="b" unicode="b" horiz-adv-x="564" d="M537 316 C537 470 489 540 372 540 C303 540 244 520 196 475 L196 719 L2 719 L2 628 L54 615 L54 0 L142 0 L170 55 C217 5 285 -18 355 -18 C489 -18 537 49 537 214 L537 316 Z M396 220 C396 135 374 99 302 99 C265 99 224 112 196 133 L196 375 C227 409 268 429 316 428 C373 427 396 396 396 308 L396 220 Z " />
<glyph glyph-name="c" unicode="c" horiz-adv-x="479" d="M409 177 C382 126 331 101 276 101 C194 101 164 147 164 223 L164 320 C164 397 193 435 260 435 C288 435 315 428 334 408 L343 341 L447 341 L447 474 C398 525 328 540 252 540 C91 540 25 451 25 323 L25 208 C25 65 102 -18 264 -18 C350 -18 420 19 464 95 L409 177 Z " />
<glyph glyph-name="d" unicode="d" horiz-adv-x="582" d="M560 0 L560 91 L508 104 L508 719 L314 719 L314 628 L366 615 L366 489 C324 526 264 542 207 542 C72 542 25 475 25 310 L25 208 C25 54 73 -15 189 -15 C258 -15 317 4 375 58 L379 0 L560 0 Z M366 153 C335 118 294 100 246 100 C188 100 165 132 165 220 L165 307 C165 392 188 429 259 429 C297 429 338 416 366 394 L366 153 Z " />
<glyph glyph-name="e" unicode="e" horiz-adv-x="507" d="M479 223 L479 290 C479 454 441 540 256 540 C86 540 26 461 26 298 L26 220 C26 82 98 -18 268 -18 C379 -18 443 16 474 71 L425 153 C397 116 360 93 287 93 C192 93 162 126 162 223 L479 223 Z M162 313 C162 388 174 443 258 443 C343 443 351 387 351 313 L162 313 Z " />
<glyph glyph-name="f" unicode="f" horiz-adv-x="344" d="M279 0 L279 91 L217 104 L217 432 L332 432 L332 526 L217 526 L217 578 C217 616 239 629 274 629 C299 629 314 625 327 618 L342 706 C322 719 290 728 230 728 C130 728 78 691 78 587 L78 526 L18 526 L18 432 L78 432 L78 104 L25 91 L25 0 L279 0 Z " />
<glyph glyph-name="g" unicode="g" horiz-adv-x="530" d="M362 5 C362 -83 337 -122 243 -122 C191 -122 138 -109 95 -80 L57 -174 C112 -227 191 -240 266 -240 C418 -240 502 -179 502 -14 L502 526 L415 526 L387 470 C350 513 289 539 204 539 C64 539 25 463 25 311 L25 244 C25 100 64 18 189 18 C255 18 315 40 362 86 L362 5 Z M362 182 C331 148 290 129 242 129 C179 130 163 170 163 244 L163 309 C163 382 178 430 255 430 C291 430 337 416 362 396 L362 182 Z " />
<glyph glyph-name="h" unicode="h" horiz-adv-x="634" d="M612 0 L612 91 L560 104 L560 396 C560 493 510 540 407 540 C335 540 271 526 217 483 L217 719 L23 719 L23 628 L75 615 L75 104 L23 91 L23 0 L266 0 L266 91 L217 104 L217 381 C254 416 298 426 348 426 C391 426 418 410 418 366 L418 104 L369 91 L369 0 L612 0 Z " />
<glyph glyph-name="i" unicode="i" horiz-adv-x="291" d="M269 0 L269 91 L217 104 L217 526 L23 526 L23 435 L75 422 L75 104 L23 91 L23 0 L269 0 Z M217 590 L217 719 L75 719 L75 590 L217 590 Z " />
<glyph glyph-name="j" unicode="j" horiz-adv-x="246" d="M-78 -190 C-53 -222 -12 -240 44 -240 C164 -240 208 -156 208 -16 L208 526 L12 526 L12 434 L66 422 L66 -16 C66 -68 56 -126 -8 -126 C-32 -126 -48 -120 -66 -105 L-78 -190 Z M207 590 L207 719 L65 719 L65 590 L207 590 Z " />
<glyph glyph-name="k" unicode="k" horiz-adv-x="570" d="M555 0 L555 91 L501 104 L347 302 L471 424 L527 435 L527 526 L315 526 L315 435 L364 424 L217 268 L217 719 L23 719 L23 628 L75 615 L75 104 L23 91 L23 0 L258 0 L258 91 L217 104 L217 241 L389 0 L555 0 Z " />
<glyph glyph-name="l" unicode="l" horiz-adv-x="291" d="M269 0 L269 91 L217 104 L217 719 L23 719 L23 628 L75 615 L75 104 L23 91 L23 0 L269 0 Z " />
<glyph glyph-name="m" unicode="m" horiz-adv-x="940" d="M918 0 L918 91 L866 104 L866 396 C866 493 818 540 719 540 C634 540 586 519 526 465 C507 516 463 540 393 540 C307 540 259 519 204 467 L201 526 L23 526 L23 435 L74 422 L74 104 L23 91 L23 0 L261 0 L261 91 L213 104 L213 382 C247 417 288 427 336 427 C376 427 402 411 402 366 L402 104 L355 91 L355 0 L588 0 L588 92 L540 104 L540 384 C575 417 615 427 662 427 C702 427 728 411 728 366 L728 104 L680 91 L680 0 L918 0 Z " />
<glyph glyph-name="n" unicode="n" horiz-adv-x="634" d="M612 0 L612 91 L560 104 L560 396 C560 493 510 540 407 540 C316 540 265 519 208 467 L205 526 L23 526 L23 435 L75 422 L75 104 L23 91 L23 0 L266 0 L266 91 L217 104 L217 382 C254 417 298 427 348 427 C391 427 418 411 418 366 L418 104 L369 91 L369 0 L612 0 Z " />
<glyph glyph-name="o" unicode="o" horiz-adv-x="525" d="M500 315 C500 471 428 540 262 540 C97 540 25 471 25 315 L25 208 C25 51 97 -18 262 -18 C428 -18 500 51 500 208 L500 315 Z M361 217 C361 118 338 91 262 91 C187 91 164 118 164 217 L164 306 C164 403 187 431 262 431 C338 431 361 403 361 306 L361 217 Z " />
<glyph glyph-name="p" unicode="p" horiz-adv-x="579" d="M275 -228 L275 -137 L213 -124 L213 36 C255 -1 314 -17 372 -17 C506 -17 554 50 554 215 L554 317 C554 471 506 540 389 540 C320 540 261 521 203 468 L200 526 L19 526 L19 435 L71 422 L71 -124 L19 -137 L19 -228 L275 -228 Z M413 214 C413 129 391 93 319 93 C282 93 240 106 213 128 L213 373 C243 407 285 425 333 425 C390 425 413 393 413 308 L413 214 Z " />
<glyph glyph-name="q" unicode="q" horiz-adv-x="539" d="M560 -228 L560 -137 L508 -124 L508 526 L420 526 L392 470 C344 520 277 540 207 540 C73 540 25 476 25 311 L25 209 C25 55 73 -18 190 -18 C258 -18 318 5 366 50 L366 -124 L304 -137 L304 -228 L560 -228 Z M366 148 C335 113 294 95 246 95 C188 95 166 127 166 215 L166 305 C166 390 188 426 260 426 C297 426 338 414 366 392 L366 148 Z " />
<glyph glyph-name="r" unicode="r" horiz-adv-x="409" d="M275 0 L275 91 L217 104 L217 360 C257 396 299 408 346 408 C362 408 374 407 389 404 L407 538 C401 539 387 540 375 540 C298 540 244 512 205 465 L200 526 L23 526 L23 435 L75 422 L75 104 L23 91 L23 0 L275 0 Z " />
<glyph glyph-name="s" unicode="s" horiz-adv-x="492" d="M472 174 C472 283 399 302 228 327 C166 336 149 350 149 385 C149 436 176 444 253 444 C285 444 309 441 331 432 L341 360 L445 360 L445 496 C403 526 341 540 248 540 C125 540 24 508 24 393 L24 356 C24 259 77 236 180 218 C252 205 281 206 306 197 C326 189 340 178 340 143 C340 94 303 84 233 84 C200 84 170 92 143 107 L134 172 L29 172 L29 36 C75 5 146 -18 242 -18 C379 -18 472 19 472 129 L472 174 Z " />
<glyph glyph-name="t" unicode="t" horiz-adv-x="361" d="M344 115 C326 100 309 93 285 93 C228 93 210 123 210 181 L210 432 L345 432 L345 526 L210 526 L210 666 L73 642 L73 526 L16 526 L16 432 L73 432 L73 183 C73 60 115 -18 237 -18 C294 -18 331 0 356 31 L344 115 Z " />
<glyph glyph-name="u" unicode="u" horiz-adv-x="579" d="M396 164 C396 115 373 96 300 96 C227 96 202 113 202 164 L202 422 L250 435 L250 526 L18 526 L18 435 L61 422 L61 162 C61 34 137 -18 293 -18 C449 -18 518 34 518 162 L518 422 L561 435 L561 526 L348 526 L348 435 L396 422 L396 164 Z " />
<glyph glyph-name="v" unicode="v" horiz-adv-x="577" d="M376 0 L519 426 L562 435 L562 526 L364 526 L364 435 L404 426 L303 113 L210 426 L252 435 L252 526 L16 526 L16 435 L58 426 L203 0 L376 0 Z " />
<glyph glyph-name="w" unicode="w" horiz-adv-x="809" d="M674 0 L751 426 L793 435 L793 526 L598 526 L598 435 L639 426 L591 115 L492 526 L356 526 L248 115 L203 426 L244 435 L244 526 L16 526 L16 434 L55 425 L138 0 L313 0 L408 366 L498 0 L674 0 Z " />
<glyph glyph-name="x" unicode="x" horiz-adv-x="573" d="M556 0 L556 91 L517 100 L367 274 L506 426 L548 435 L548 526 L345 526 L345 435 L384 426 L303 327 L226 426 L268 435 L268 526 L24 526 L24 435 L63 426 L206 261 L57 100 L18 91 L18 0 L217 0 L217 91 L181 100 L269 207 L352 100 L311 91 L311 0 L556 0 Z " />
<glyph glyph-name="y" unicode="y" horiz-adv-x="573" d="M220 -21 L213 -40 C196 -86 170 -116 123 -116 C87 -116 64 -105 44 -87 L8 -189 C40 -222 85 -239 138 -239 C252 -239 298 -155 340 -42 L514 425 L557 434 L557 526 L359 526 L359 434 L399 425 L299 125 L205 425 L247 434 L247 526 L14 526 L14 434 L58 425 L220 -21 Z " />
<glyph glyph-name="z" unicode="z" horiz-adv-x="517" d="M495 0 L495 207 L393 207 L375 97 L191 97 L483 446 L483 526 L23 526 L23 344 L125 344 L137 435 L302 435 L22 105 L22 0 L495 0 Z " />
<glyph glyph-name="braceleft" unicode="{" horiz-adv-x="376" d="M348 -140 L348 -49 L321 -49 C266 -49 247 -35 247 13 C247 80 257 127 257 197 C257 268 216 310 139 316 C216 324 257 365 257 454 C257 513 247 552 247 619 C247 664 266 679 321 679 L348 679 L348 770 L307 770 C153 770 126 717 126 626 C126 574 137 501 137 475 C137 393 111 363 45 363 L45 268 C111 268 137 240 137 159 C137 131 126 58 126 6 C126 -88 153 -140 307 -140 L348 -140 Z " />
<glyph glyph-name="bar" unicode="|" horiz-adv-x="281" d="M198 -134 L198 788 L84 788 L84 -134 L198 -134 Z " />
<glyph glyph-name="braceright" unicode="}" horiz-adv-x="377" d="M68 -140 C222 -140 249 -88 249 6 C249 58 238 131 238 159 C238 240 264 268 330 268 L330 363 C264 363 238 393 238 475 C238 501 249 574 249 626 C249 717 222 770 68 770 L27 770 L27 679 L54 679 C109 679 128 664 128 619 C128 552 118 513 118 454 C118 365 159 324 236 316 C159 310 118 268 118 197 C118 127 128 80 128 13 C128 -35 109 -49 54 -49 L27 -49 L27 -140 L68 -140 Z " />
<glyph glyph-name="asciitilde" unicode="~" horiz-adv-x="640" d="M589 432 C545 373 496 353 436 353 C366 353 295 421 192 421 C125 421 81 387 50 350 L50 237 C94 292 137 318 197 318 C271 318 343 250 429 250 C496 250 544 271 589 321 L589 432 Z " />
<glyph glyph-name="nbspace" unicode=" " horiz-adv-x="283" d="" />
<glyph glyph-name="exclamdown" unicode="¡" horiz-adv-x="223" d="M38 710 L38 554 L187 554 L187 710 L38 710 Z M73 497 C44 321 29 205 29 58 C29 34 31 16 34 0 L187 0 C192 14 194 34 194 58 C194 205 180 322 150 497 L73 497 Z " />
<glyph glyph-name="cent" unicode="¢" horiz-adv-x="487" d="M321 0 L321 83 C381 95 430 130 464 189 L409 272 C381 220 333 195 278 195 C196 195 168 243 168 318 L168 415 C168 492 195 529 262 529 C289 529 315 522 334 503 L343 435 L447 435 L447 568 C412 604 369 621 321 628 L321 710 L208 710 L208 631 C80 613 29 533 29 417 L29 302 C29 177 86 98 208 80 L208 0 L321 0 Z " />
<glyph glyph-name="sterling" unicode="£" horiz-adv-x="529" d="M502 146 C472 109 430 97 386 97 C346 97 295 104 260 127 C272 153 278 182 278 215 C278 233 275 255 269 273 L460 273 L460 355 L235 355 C208 401 182 447 182 512 L182 533 C182 598 215 622 271 622 C302 622 326 613 347 596 L356 529 L459 529 L459 662 C419 706 355 728 268 728 C129 728 54 663 54 544 L54 513 C54 447 77 404 111 355 L31 355 L31 273 L145 273 C150 259 154 238 154 223 C154 166 142 108 62 108 C41 108 27 112 16 116 L16 0 C34 -10 61 -18 92 -18 C145 -18 179 -2 212 34 C256 0 318 -18 372 -18 C418 -18 469 -5 502 28 L502 146 Z " />
<glyph glyph-name="currency" unicode="¤" horiz-adv-x="578" d="M474 102 L548 178 L477 243 C500 277 513 318 513 363 C513 407 500 447 477 483 L547 548 L473 622 L409 552 C374 574 332 587 289 587 C244 587 203 574 169 552 L103 622 L29 548 L100 482 C78 447 66 407 66 363 C66 319 78 280 100 244 L28 178 L103 102 L170 174 C205 152 245 140 289 140 C332 140 373 152 408 174 L474 102 Z M441 363 C441 279 374 212 289 212 C205 212 138 279 138 363 C138 448 205 515 289 515 C374 515 441 448 441 363 L441 363 Z " />
<glyph glyph-name="yen" unicode="¥" horiz-adv-x="600" d="M511 84 L511 169 L377 169 L377 257 L511 257 L511 340 L400 340 L533 606 L578 619 L578 710 L380 710 L380 619 L423 606 L323 393 L224 606 L267 619 L267 710 L22 710 L22 619 L67 606 L200 340 L84 340 L84 257 L223 257 L223 169 L84 169 L84 84 L223 84 L223 0 L377 0 L377 84 L511 84 Z " />
<glyph glyph-name="brokenbar" unicode="¦" horiz-adv-x="413" d="M263 -134 L263 264 L149 264 L149 -134 L263 -134 Z M263 425 L263 788 L149 788 L149 425 L263 425 Z " />
<glyph glyph-name="section" unicode="§" horiz-adv-x="493" d="M28 240 C28 119 100 98 269 70 C330 60 347 45 347 6 C347 -51 320 -60 244 -60 C213 -60 189 -56 167 -46 L157 34 L55 34 L55 -117 C96 -150 157 -166 249 -166 C370 -166 470 -131 470 -3 L470 38 C470 90 457 123 433 146 C459 175 476 214 476 262 L476 322 C476 443 404 464 235 492 C174 502 157 517 157 556 C157 613 184 622 260 622 C291 622 315 618 337 608 L347 528 L449 528 L449 679 C408 712 347 728 255 728 C134 728 34 693 34 565 L34 524 C34 471 46 439 70 416 C44 386 28 346 28 300 L28 240 Z M312 348 C332 339 346 320 346 272 C346 236 327 212 298 194 C240 206 215 206 192 214 C172 223 158 242 158 290 C158 326 176 349 206 366 C264 356 289 356 312 348 L312 348 Z " />
<glyph glyph-name="dieresis" unicode="¨" horiz-adv-x="435" d="M171 590 L171 719 L29 719 L29 590 L171 590 Z M406 590 L406 719 L264 719 L264 590 L406 590 Z " />
<glyph glyph-name="copyright" unicode="©" horiz-adv-x="632" d="M603 454 C603 654 510 728 316 728 C121 728 28 654 28 454 L28 256 C28 56 121 -18 316 -18 C510 -18 603 56 603 256 L603 454 Z M530 256 C530 108 461 54 316 54 C171 54 102 108 102 256 L102 454 C102 600 171 654 316 654 C461 654 530 600 530 454 L530 256 Z M446 276 L381 276 L376 230 C366 221 355 216 327 216 C278 216 257 241 257 306 L257 399 C257 471 273 502 327 502 C353 502 362 497 375 489 L380 443 L445 443 L445 521 C420 547 374 560 333 560 C219 560 175 520 175 399 L175 320 C175 198 219 159 333 159 C374 159 416 172 446 201 L446 276 Z " />
<glyph glyph-name="ordfeminine" unicode="ª" horiz-adv-x="361" d="M318 350 C314 348 311 347 307 347 C297 347 292 354 292 368 L292 508 C292 574 262 597 178 597 C135 597 90 590 54 567 L82 502 C106 517 135 524 164 524 C183 524 204 522 204 499 L204 468 C176 474 149 479 121 479 C66 479 39 453 39 401 L39 376 C39 326 64 290 123 290 C163 290 198 306 212 332 C223 305 241 290 275 290 C292 290 308 293 321 303 L318 350 Z M204 373 C188 363 170 356 152 356 C134 356 128 364 128 385 L128 394 C128 416 136 426 157 426 C175 426 193 423 204 422 L204 373 Z " />
<glyph glyph-name="guillemotleft" unicode="«" horiz-adv-x="454" d="M200 138 L200 246 L89 337 L200 428 L200 536 L27 392 L27 282 L200 138 Z M427 138 L427 246 L316 337 L427 428 L427 536 L254 392 L254 282 L427 138 Z " />
<glyph glyph-name="logicalnot" unicode="¬" horiz-adv-x="632" d="M603 0 L603 526 L29 526 L29 395 L472 395 L472 0 L603 0 Z " />
<glyph glyph-name="registered" unicode="®" horiz-adv-x="632" d="M483 169 L483 217 L454 223 L454 285 C454 338 433 354 405 363 C431 372 448 391 448 433 L448 461 C448 515 423 551 351 551 L163 551 L163 503 L191 497 L191 223 L163 217 L163 169 L298 169 L298 217 L269 223 L269 335 L337 335 C364 335 375 321 375 290 L375 214 C375 181 383 169 417 169 L483 169 Z M372 429 C372 402 360 386 335 386 L269 386 L269 493 L333 493 C360 493 372 475 372 448 L372 429 Z M603 454 C603 654 511 728 316 728 C121 728 29 654 29 454 L29 256 C29 56 121 -18 316 -18 C511 -18 603 56 603 256 L603 454 Z M531 256 C531 109 461 54 316 54 C171 54 102 109 102 256 L102 454 C102 601 171 655 316 655 C461 655 531 601 531 454 L531 256 Z " />
<glyph glyph-name="macron" unicode="¯" horiz-adv-x="403" d="M374 585 L374 680 L29 680 L29 585 L374 585 Z " />
<glyph glyph-name="degree" unicode="°" horiz-adv-x="378" d="M188 380 C302 380 349 456 349 550 C349 645 302 719 188 719 C74 719 29 645 29 550 C29 456 74 380 188 380 L188 380 Z M188 450 C127 450 104 496 104 551 C104 606 127 652 188 652 C250 652 273 606 273 551 C273 496 250 450 188 450 L188 450 Z " />
<glyph glyph-name="plusminus" unicode="±" horiz-adv-x="608" d="M355 113 L355 316 L557 316 L557 420 L355 420 L355 621 L251 621 L251 420 L50 420 L50 316 L251 316 L251 113 L355 113 Z M557 -34 L557 70 L50 70 L50 -34 L557 -34 Z " />
<glyph glyph-name="twosuperior" unicode="²" horiz-adv-x="295" d="M270 365 L270 472 L221 472 L214 438 L128 438 C220 499 267 547 267 613 C267 693 229 729 150 729 C106 729 64 720 28 699 L53 629 C74 643 104 657 131 657 C164 657 186 637 186 606 C186 540 91 479 29 442 L29 365 L270 365 Z " />
<glyph glyph-name="threesuperior" unicode="³" horiz-adv-x="282" d="M24 372 C56 360 89 356 125 356 C202 356 255 387 255 462 C255 501 238 537 203 550 C232 562 248 596 248 630 C248 692 210 729 129 729 C93 729 54 721 24 702 L46 638 C64 650 91 659 117 659 C146 659 172 647 172 611 C172 584 157 575 133 575 L97 575 L97 514 L133 514 C158 514 176 501 176 473 C176 437 149 425 117 425 C90 425 61 433 45 440 L24 372 Z " />
<glyph glyph-name="acute" unicode="´" horiz-adv-x="273" d="M117 580 L244 766 L109 766 L29 580 L117 580 Z " />
<glyph glyph-name="mu" unicode="µ" horiz-adv-x="593" d="M273 -228 L273 -137 L211 -124 L211 36 C253 -1 311 -17 369 -17 C505 -17 533 49 533 215 L533 422 L576 435 L576 526 L363 526 L363 435 L411 422 L411 214 C411 130 388 93 317 93 C279 93 238 106 211 128 L211 422 L258 435 L258 526 L25 526 L25 435 L69 422 L69 -124 L16 -137 L16 -228 L273 -228 Z " />
<glyph glyph-name="paragraph" unicode="¶" horiz-adv-x="539" d="M477 -166 L477 609 L525 621 L525 710 L140 710 C58 710 13 657 13 566 C13 475 50 420 128 420 L128 -166 L236 -166 L236 608 L371 608 L371 -166 L477 -166 Z " />
<glyph glyph-name="periodcentered" unicode="·" horiz-adv-x="212" d="M182 260 L182 422 L30 422 L30 260 L182 260 Z " />
<glyph glyph-name="cedilla" unicode="¸" horiz-adv-x="200" d="M88 -240 C122 -211 152 -172 162 -135 L162 -29 L40 -29 L40 -135 L100 -135 C87 -160 67 -185 46 -203 L88 -240 Z " />
<glyph glyph-name="onesuperior" unicode="¹" horiz-adv-x="219" d="M191 365 L191 419 L168 426 L168 720 L108 720 C81 690 51 665 16 642 L51 589 C62 594 74 602 87 611 L87 426 L59 419 L59 365 L191 365 Z " />
<glyph glyph-name="ordmasculine" unicode="º" horiz-adv-x="350" d="M308 473 C308 559 268 597 175 597 C82 597 42 559 42 473 L42 414 C42 328 82 290 175 290 C268 290 308 328 308 414 L308 473 Z M218 420 C218 371 209 361 175 361 C141 361 132 371 132 420 L132 467 C132 515 141 527 175 527 C209 527 218 515 218 467 L218 420 Z " />
<glyph glyph-name="guillemotright" unicode="»" horiz-adv-x="454" d="M200 281 L200 391 L26 535 L26 427 L136 337 L26 245 L26 138 L200 281 Z M427 281 L427 391 L253 535 L253 427 L363 337 L253 245 L253 138 L427 281 Z " />
<glyph glyph-name="onequarter" unicode="¼" horiz-adv-x="641" d="M201 365 L201 419 L178 426 L178 720 L118 720 C91 690 61 665 26 642 L61 589 C72 594 84 602 97 611 L97 426 L69 419 L69 365 L201 365 Z M140 -21 L560 732 L466 732 L48 -21 L140 -21 Z M589 -10 L589 51 L615 51 L615 116 L589 116 L589 230 L513 230 L513 116 L432 116 C466 179 500 255 524 326 L454 354 C425 275 391 201 352 130 L352 51 L511 51 L511 -10 L589 -10 Z " />
<glyph glyph-name="onehalf" unicode="½" horiz-adv-x="645" d="M201 365 L201 419 L178 426 L178 720 L118 720 C91 690 61 665 26 642 L61 589 C72 594 84 602 97 611 L97 426 L69 419 L69 365 L201 365 Z M140 -21 L560 732 L466 732 L48 -21 L140 -21 Z M619 -10 L619 97 L570 97 L563 63 L477 63 C569 124 616 172 616 238 C616 318 578 354 499 354 C455 354 413 345 377 324 L402 254 C423 268 453 282 480 282 C513 282 535 262 535 231 C535 165 440 104 378 67 L378 -10 L619 -10 Z " />
<glyph glyph-name="threequarters" unicode="¾" horiz-adv-x="626" d="M26 372 C58 360 91 356 127 356 C204 356 257 387 257 462 C257 501 240 537 205 550 C234 562 250 596 250 630 C250 692 212 729 131 729 C95 729 56 721 26 702 L48 638 C66 650 93 659 119 659 C148 659 174 647 174 611 C174 584 159 575 135 575 L99 575 L99 514 L135 514 C160 514 178 501 178 473 C178 437 151 425 119 425 C92 425 63 433 47 440 L26 372 Z M145 -21 L565 732 L471 732 L53 -21 L145 -21 Z M574 -10 L574 51 L600 51 L600 116 L574 116 L574 230 L498 230 L498 116 L417 116 C451 179 485 255 509 326 L439 354 C410 275 376 201 337 130 L337 51 L496 51 L496 -10 L574 -10 Z " />
<glyph glyph-name="questiondown" unicode="¿" horiz-adv-x="463" d="M194 486 L194 426 C194 378 167 366 119 346 C48 316 29 277 29 204 L29 162 C29 45 105 -18 242 -18 C330 -18 394 4 434 48 L434 181 L333 181 L323 114 C302 97 277 87 246 87 C190 87 157 114 157 172 L157 190 C157 244 166 261 210 278 C282 305 321 321 321 407 L321 486 L194 486 Z M184 710 L184 554 L333 554 L333 710 L184 710 Z " />
<glyph glyph-name="Agrave" unicode="À" horiz-adv-x="642" d="M621 0 L621 90 L573 103 C524 305 477 507 428 710 L224 710 L68 103 L20 90 L20 0 L233 0 L233 90 L184 103 L214 223 L387 223 L414 103 L365 90 L365 0 L621 0 Z M369 315 L234 315 L305 595 L369 315 Z M398 764 L320 950 L183 950 L310 764 L398 764 Z " />
<glyph glyph-name="Aacute" unicode="Á" horiz-adv-x="642" d="M621 0 L621 90 L573 103 C524 305 477 507 428 710 L224 710 L68 103 L20 90 L20 0 L233 0 L233 90 L184 103 L214 223 L387 223 L414 103 L365 90 L365 0 L621 0 Z M369 315 L234 315 L305 595 L369 315 Z M331 764 L458 950 L323 950 L243 764 L331 764 Z " />
<glyph glyph-name="Acircumflex" unicode="Â" horiz-adv-x="642" d="M621 0 L621 90 L573 103 C524 305 477 507 428 710 L224 710 L68 103 L20 90 L20 0 L233 0 L233 90 L184 103 L214 223 L387 223 L414 103 L365 90 L365 0 L621 0 Z M369 315 L234 315 L305 595 L369 315 Z M522 763 L379 939 L269 939 L125 763 L232 763 L324 877 L415 763 L522 763 Z " />
<glyph glyph-name="Atilde" unicode="Ã" horiz-adv-x="642" d="M621 0 L621 90 L573 103 C524 305 477 507 428 710 L224 710 L68 103 L20 90 L20 0 L233 0 L233 90 L184 103 L214 223 L387 223 L414 103 L365 90 L365 0 L621 0 Z M369 315 L234 315 L305 595 L369 315 Z M498 892 C469 857 441 841 403 841 C349 841 304 893 236 893 C193 893 164 871 144 847 L144 756 C172 791 200 808 239 808 C290 808 335 755 406 755 C449 755 478 777 498 801 L498 892 Z " />
<glyph glyph-name="Adieresis" unicode="Ä" horiz-adv-x="642" d="M621 0 L621 90 L573 103 C524 305 477 507 428 710 L224 710 L68 103 L20 90 L20 0 L233 0 L233 90 L184 103 L214 223 L387 223 L414 103 L365 90 L365 0 L621 0 Z M369 315 L234 315 L305 595 L369 315 Z M274 774 L274 903 L132 903 L132 774 L274 774 Z M509 774 L509 903 L367 903 L367 774 L509 774 Z " />
<glyph glyph-name="Aring" unicode="Å" horiz-adv-x="642" d="M621 0 L621 90 L573 103 C524 305 477 507 428 710 L224 710 L68 103 L20 90 L20 0 L233 0 L233 90 L184 103 L214 223 L387 223 L414 103 L365 90 L365 0 L621 0 Z M369 315 L234 315 L305 595 L369 315 Z M437 847 C437 913 406 950 326 950 C250 950 214 913 214 847 C214 779 251 745 326 745 C406 745 437 779 437 847 L437 847 Z M381 847 C381 813 363 796 326 796 C291 796 273 813 273 847 C273 883 291 902 326 902 C363 902 381 883 381 847 L381 847 Z " />
<glyph glyph-name="AE" unicode="Æ" horiz-adv-x="896" d="M863 0 L863 219 L776 219 L756 115 L562 115 L562 318 L723 318 L735 263 L808 263 L808 474 L735 474 L723 419 L562 419 L562 600 L755 600 L769 513 L857 513 L857 710 L221 710 L68 103 L20 91 L20 0 L242 0 L242 91 L193 103 L222 223 L410 223 L410 103 L358 91 L358 0 L863 0 Z M410 315 L242 315 L313 600 L410 600 L410 315 Z " />
<glyph glyph-name="Ccedilla" unicode="Ç" horiz-adv-x="557" d="M533 198 L414 198 L405 126 C382 99 347 91 312 91 C215 91 185 144 185 281 L185 428 C185 559 216 618 312 618 C347 618 381 609 403 584 L412 512 L531 512 L531 661 C486 708 400 728 324 728 C110 728 28 655 28 428 L28 282 C28 55 110 -18 324 -18 C400 -18 478 0 533 54 L533 198 Z M290 -240 C324 -211 354 -172 364 -135 L364 -29 L242 -29 L242 -135 L302 -135 C289 -160 269 -185 248 -203 L290 -240 Z " />
<glyph glyph-name="Egrave" unicode="È" horiz-adv-x="571" d="M538 0 L538 219 L452 219 L433 116 L233 116 L233 318 L398 318 L412 263 L484 263 L484 474 L412 474 L398 419 L233 419 L233 600 L432 600 L446 513 L532 513 L532 710 L29 710 L29 619 L81 606 L81 104 L29 91 L29 0 L538 0 Z M363 764 L285 950 L148 950 L275 764 L363 764 Z " />
<glyph glyph-name="Eacute" unicode="É" horiz-adv-x="571" d="M538 0 L538 219 L452 219 L433 116 L233 116 L233 318 L398 318 L412 263 L484 263 L484 474 L412 474 L398 419 L233 419 L233 600 L432 600 L446 513 L532 513 L532 710 L29 710 L29 619 L81 606 L81 104 L29 91 L29 0 L538 0 Z M301 764 L428 950 L293 950 L213 764 L301 764 Z " />
<glyph glyph-name="Ecircumflex" unicode="Ê" horiz-adv-x="571" d="M538 0 L538 219 L452 219 L433 116 L233 116 L233 318 L398 318 L412 263 L484 263 L484 474 L412 474 L398 419 L233 419 L233 600 L432 600 L446 513 L532 513 L532 710 L29 710 L29 619 L81 606 L81 104 L29 91 L29 0 L538 0 Z M484 763 L341 939 L231 939 L87 763 L194 763 L286 877 L377 763 L484 763 Z " />
<glyph glyph-name="Edieresis" unicode="Ë" horiz-adv-x="571" d="M538 0 L538 219 L452 219 L433 116 L233 116 L233 318 L398 318 L412 263 L484 263 L484 474 L412 474 L398 419 L233 419 L233 600 L432 600 L446 513 L532 513 L532 710 L29 710 L29 619 L81 606 L81 104 L29 91 L29 0 L538 0 Z M246 774 L246 903 L104 903 L104 774 L246 774 Z M481 774 L481 903 L339 903 L339 774 L481 774 Z " />
<glyph glyph-name="Igrave" unicode="Ì" horiz-adv-x="317" d="M288 0 L288 91 L236 104 L236 606 L288 619 L288 710 L29 710 L29 619 L81 606 L81 104 L29 91 L29 0 L288 0 Z M236 764 L158 950 L21 950 L148 764 L236 764 Z " />
<glyph glyph-name="Iacute" unicode="Í" horiz-adv-x="317" d="M288 0 L288 91 L236 104 L236 606 L288 619 L288 710 L29 710 L29 619 L81 606 L81 104 L29 91 L29 0 L288 0 Z M169 764 L296 950 L161 950 L81 764 L169 764 Z " />
<glyph glyph-name="Icircumflex" unicode="Î" horiz-adv-x="317" d="M288 0 L288 91 L236 104 L236 606 L288 619 L288 710 L29 710 L29 619 L81 606 L81 104 L29 91 L29 0 L288 0 Z M357 763 L214 939 L104 939 L-40 763 L67 763 L159 877 L250 763 L357 763 Z " />
<glyph glyph-name="Idieresis" unicode="Ï" horiz-adv-x="317" d="M288 0 L288 91 L236 104 L236 606 L288 619 L288 710 L29 710 L29 619 L81 606 L81 104 L29 91 L29 0 L288 0 Z M112 774 L112 903 L-30 903 L-30 774 L112 774 Z M347 774 L347 903 L205 903 L205 774 L347 774 Z " />
<glyph glyph-name="Eth" unicode="Ð" horiz-adv-x="622" d="M340 0 C521 0 593 74 593 269 L593 441 C593 636 521 710 340 710 L29 710 L29 619 L81 606 L81 419 L29 419 L29 318 L81 318 L81 104 L29 91 L29 0 L340 0 Z M438 264 C438 147 407 108 340 108 L236 108 L236 318 L341 318 L341 419 L236 419 L236 602 L340 602 C407 602 438 562 438 440 L438 264 Z " />
<glyph glyph-name="Ntilde" unicode="Ñ" horiz-adv-x="671" d="M595 0 L595 606 L645 619 L645 710 L425 710 L425 619 L473 606 L473 260 L259 710 L29 710 L29 619 L81 606 L81 104 L29 91 L29 0 L260 0 L260 91 L203 104 L203 491 L464 0 L595 0 Z M512 892 C483 857 455 841 417 841 C363 841 318 893 250 893 C207 893 178 871 158 847 L158 756 C186 791 214 808 253 808 C304 808 349 755 420 755 C463 755 492 777 512 801 L512 892 Z " />
<glyph glyph-name="Ograve" unicode="Ò" horiz-adv-x="611" d="M582 426 C582 635 493 728 305 728 C117 728 29 635 29 426 L29 284 C29 75 117 -18 305 -18 C493 -18 582 75 582 284 L582 426 Z M426 284 C426 134 391 94 305 94 C220 94 184 134 184 284 L184 426 C184 574 220 616 305 616 C391 616 426 574 426 426 L426 284 Z M383 764 L305 950 L168 950 L295 764 L383 764 Z " />
<glyph glyph-name="Oacute" unicode="Ó" horiz-adv-x="611" d="M582 426 C582 635 493 728 305 728 C117 728 29 635 29 426 L29 284 C29 75 117 -18 305 -18 C493 -18 582 75 582 284 L582 426 Z M426 284 C426 134 391 94 305 94 C220 94 184 134 184 284 L184 426 C184 574 220 616 305 616 C391 616 426 574 426 426 L426 284 Z M316 764 L443 950 L308 950 L228 764 L316 764 Z " />
<glyph glyph-name="Ocircumflex" unicode="Ô" horiz-adv-x="611" d="M582 426 C582 635 493 728 305 728 C117 728 29 635 29 426 L29 284 C29 75 117 -18 305 -18 C493 -18 582 75 582 284 L582 426 Z M426 284 C426 134 391 94 305 94 C220 94 184 134 184 284 L184 426 C184 574 220 616 305 616 C391 616 426 574 426 426 L426 284 Z M504 763 L361 939 L251 939 L107 763 L214 763 L306 877 L397 763 L504 763 Z " />
<glyph glyph-name="Otilde" unicode="Õ" horiz-adv-x="611" d="M582 426 C582 635 493 728 305 728 C117 728 29 635 29 426 L29 284 C29 75 117 -18 305 -18 C493 -18 582 75 582 284 L582 426 Z M426 284 C426 134 391 94 305 94 C220 94 184 134 184 284 L184 426 C184 574 220 616 305 616 C391 616 426 574 426 426 L426 284 Z M482 892 C453 857 425 841 387 841 C333 841 288 893 220 893 C177 893 148 871 128 847 L128 756 C156 791 184 808 223 808 C274 808 319 755 390 755 C433 755 462 777 482 801 L482 892 Z " />
<glyph glyph-name="Odieresis" unicode="Ö" horiz-adv-x="611" d="M582 426 C582 635 493 728 305 728 C117 728 29 635 29 426 L29 284 C29 75 117 -18 305 -18 C493 -18 582 75 582 284 L582 426 Z M426 284 C426 134 391 94 305 94 C220 94 184 134 184 284 L184 426 C184 574 220 616 305 616 C391 616 426 574 426 426 L426 284 Z M259 774 L259 903 L117 903 L117 774 L259 774 Z M494 774 L494 903 L352 903 L352 774 L494 774 Z " />
<glyph glyph-name="multiply" unicode="×" horiz-adv-x="639" d="M535 223 L392 367 L534 509 L461 583 L318 441 L176 582 L102 508 L243 367 L101 224 L175 150 L318 292 L461 149 L535 223 Z " />
<glyph glyph-name="Oslash" unicode="Ø" horiz-adv-x="611" d="M147 -75 L184 0 C219 -12 259 -18 305 -18 C493 -18 582 75 582 284 L582 426 C582 530 560 605 515 654 L581 785 L460 785 L423 711 C389 722 350 728 305 728 C117 728 29 635 29 426 L29 284 C29 181 50 106 94 57 L28 -75 L147 -75 Z M426 284 C426 134 391 94 305 94 C278 94 256 98 239 108 L424 475 C425 460 426 444 426 426 L426 284 Z M184 284 L184 426 C184 574 220 616 305 616 C330 616 351 612 368 603 L185 237 C184 251 184 267 184 284 L184 284 Z " />
<glyph glyph-name="Ugrave" unicode="Ù" horiz-adv-x="672" d="M465 224 C465 134 434 105 345 105 C260 105 227 133 227 224 L227 606 L275 619 L275 710 L24 710 L24 619 L70 606 L70 241 C70 53 130 -18 334 -18 C560 -18 602 53 602 241 L602 606 L649 619 L649 710 L417 710 L417 619 L465 606 L465 224 Z M413 764 L335 950 L198 950 L325 764 L413 764 Z " />
<glyph glyph-name="Uacute" unicode="Ú" horiz-adv-x="672" d="M465 224 C465 134 434 105 345 105 C260 105 227 133 227 224 L227 606 L275 619 L275 710 L24 710 L24 619 L70 606 L70 241 C70 53 130 -18 334 -18 C560 -18 602 53 602 241 L602 606 L649 619 L649 710 L417 710 L417 619 L465 606 L465 224 Z M346 764 L473 950 L338 950 L258 764 L346 764 Z " />
<glyph glyph-name="Ucircumflex" unicode="Û" horiz-adv-x="672" d="M465 224 C465 134 434 105 345 105 C260 105 227 133 227 224 L227 606 L275 619 L275 710 L24 710 L24 619 L70 606 L70 241 C70 53 130 -18 334 -18 C560 -18 602 53 602 241 L602 606 L649 619 L649 710 L417 710 L417 619 L465 606 L465 224 Z M534 763 L391 939 L281 939 L137 763 L244 763 L336 877 L427 763 L534 763 Z " />
<glyph glyph-name="Udieresis" unicode="Ü" horiz-adv-x="672" d="M465 224 C465 134 434 105 345 105 C260 105 227 133 227 224 L227 606 L275 619 L275 710 L24 710 L24 619 L70 606 L70 241 C70 53 130 -18 334 -18 C560 -18 602 53 602 241 L602 606 L649 619 L649 710 L417 710 L417 619 L465 606 L465 224 Z M289 774 L289 903 L147 903 L147 774 L289 774 Z M524 774 L524 903 L382 903 L382 774 L524 774 Z " />
<glyph glyph-name="Yacute" unicode="Ý" horiz-adv-x="601" d="M436 0 L436 91 L378 104 L378 273 L535 606 L580 619 L580 710 L382 710 L382 619 L425 606 L323 382 L223 606 L266 619 L266 710 L21 710 L21 619 L65 606 L223 273 L223 104 L165 91 L165 0 L436 0 Z M321 764 L448 950 L313 950 L233 764 L321 764 Z " />
<glyph glyph-name="Thorn" unicode="Þ" horiz-adv-x="580" d="M284 0 L284 91 L234 104 L234 146 L359 146 C502 146 559 203 559 355 C559 506 502 562 359 562 L234 562 L234 606 L284 619 L284 710 L29 710 L29 619 L81 606 L81 104 L29 91 L29 0 L284 0 Z M234 241 L234 468 L334 468 C388 468 411 442 411 355 C411 268 388 241 334 241 L234 241 Z " />
<glyph glyph-name="germandbls" unicode="ß" horiz-adv-x="698" d="M673 192 C673 277 637 315 557 340 C504 357 471 373 471 412 L471 585 C471 710 394 728 271 728 C148 728 72 710 72 585 L72 103 L20 91 L20 0 L253 0 L253 91 L212 103 L212 577 C212 618 236 629 271 629 C312 629 329 617 329 577 L329 407 C329 260 494 253 531 222 C552 205 554 191 554 165 L554 149 C554 104 535 82 491 82 C462 82 436 90 412 104 L402 168 L303 168 L303 37 C354 -4 420 -18 484 -18 C579 -18 673 11 673 129 L673 192 Z " />
<glyph glyph-name="agrave" unicode="à" horiz-adv-x="546" d="M524 80 C517 73 511 70 501 70 C483 70 472 81 472 108 L472 379 C472 497 417 540 269 540 C191 540 111 528 46 485 L89 385 C137 416 192 428 247 428 C299 428 336 416 336 365 L336 299 C289 313 235 325 170 325 C68 325 19 278 19 184 L19 139 C19 47 65 -18 175 -18 C256 -18 322 16 349 68 C362 9 395 -17 454 -17 C485 -17 511 -10 530 7 L524 80 Z M336 132 C306 105 266 83 218 83 C172 83 157 105 157 151 L157 172 C157 220 175 243 224 243 C271 243 312 234 336 227 L336 132 Z M350 580 L272 766 L135 766 L262 580 L350 580 Z " />
<glyph glyph-name="aacute" unicode="á" horiz-adv-x="546" d="M524 80 C517 73 511 70 501 70 C483 70 472 81 472 108 L472 379 C472 497 417 540 269 540 C191 540 111 528 46 485 L89 385 C137 416 192 428 247 428 C299 428 336 416 336 365 L336 299 C289 313 235 325 170 325 C68 325 19 278 19 184 L19 139 C19 47 65 -18 175 -18 C256 -18 322 16 349 68 C362 9 395 -17 454 -17 C485 -17 511 -10 530 7 L524 80 Z M336 132 C306 105 266 83 218 83 C172 83 157 105 157 151 L157 172 C157 220 175 243 224 243 C271 243 312 234 336 227 L336 132 Z M283 580 L410 766 L275 766 L195 580 L283 580 Z " />
<glyph glyph-name="acircumflex" unicode="â" horiz-adv-x="546" d="M524 80 C517 73 511 70 501 70 C483 70 472 81 472 108 L472 379 C472 497 417 540 269 540 C191 540 111 528 46 485 L89 385 C137 416 192 428 247 428 C299 428 336 416 336 365 L336 299 C289 313 235 325 170 325 C68 325 19 278 19 184 L19 139 C19 47 65 -18 175 -18 C256 -18 322 16 349 68 C362 9 395 -17 454 -17 C485 -17 511 -10 530 7 L524 80 Z M336 132 C306 105 266 83 218 83 C172 83 157 105 157 151 L157 172 C157 220 175 243 224 243 C271 243 312 234 336 227 L336 132 Z M471 579 L328 755 L218 755 L74 579 L181 579 L273 693 L364 579 L471 579 Z " />
<glyph glyph-name="atilde" unicode="ã" horiz-adv-x="546" d="M524 80 C517 73 511 70 501 70 C483 70 472 81 472 108 L472 379 C472 497 417 540 269 540 C191 540 111 528 46 485 L89 385 C137 416 192 428 247 428 C299 428 336 416 336 365 L336 299 C289 313 235 325 170 325 C68 325 19 278 19 184 L19 139 C19 47 65 -18 175 -18 C256 -18 322 16 349 68 C362 9 395 -17 454 -17 C485 -17 511 -10 530 7 L524 80 Z M336 132 C306 105 266 83 218 83 C172 83 157 105 157 151 L157 172 C157 220 175 243 224 243 C271 243 312 234 336 227 L336 132 Z M450 708 C421 673 393 657 355 657 C301 657 256 709 188 709 C145 709 116 687 96 663 L96 572 C124 607 152 624 191 624 C242 624 287 571 358 571 C401 571 430 593 450 617 L450 708 Z " />
<glyph glyph-name="adieresis" unicode="ä" horiz-adv-x="546" d="M524 80 C517 73 511 70 501 70 C483 70 472 81 472 108 L472 379 C472 497 417 540 269 540 C191 540 111 528 46 485 L89 385 C137 416 192 428 247 428 C299 428 336 416 336 365 L336 299 C289 313 235 325 170 325 C68 325 19 278 19 184 L19 139 C19 47 65 -18 175 -18 C256 -18 322 16 349 68 C362 9 395 -17 454 -17 C485 -17 511 -10 530 7 L524 80 Z M336 132 C306 105 266 83 218 83 C172 83 157 105 157 151 L157 172 C157 220 175 243 224 243 C271 243 312 234 336 227 L336 132 Z M226 590 L226 719 L84 719 L84 590 L226 590 Z M461 590 L461 719 L319 719 L319 590 L461 590 Z " />
<glyph glyph-name="aring" unicode="å" horiz-adv-x="546" d="M524 80 C517 73 511 70 501 70 C483 70 472 81 472 108 L472 379 C472 497 417 540 269 540 C191 540 111 528 46 485 L89 385 C137 416 192 428 247 428 C299 428 336 416 336 365 L336 299 C289 313 235 325 170 325 C68 325 19 278 19 184 L19 139 C19 47 65 -18 175 -18 C256 -18 322 16 349 68 C362 9 395 -17 454 -17 C485 -17 511 -10 530 7 L524 80 Z M336 132 C306 105 266 83 218 83 C172 83 157 105 157 151 L157 172 C157 220 175 243 224 243 C271 243 312 234 336 227 L336 132 Z M384 663 C384 729 353 766 273 766 C197 766 161 729 161 663 C161 595 198 561 273 561 C353 561 384 595 384 663 L384 663 Z M328 663 C328 629 310 612 273 612 C238 612 220 629 220 663 C220 699 238 718 273 718 C310 718 328 699 328 663 L328 663 Z " />
<glyph glyph-name="ae" unicode="æ" horiz-adv-x="818" d="M790 223 L790 290 C790 454 752 539 567 539 C498 539 446 518 419 480 C396 520 345 539 267 539 C190 539 109 527 45 485 L89 385 C137 415 191 428 247 428 C297 428 336 418 336 364 L336 299 C287 313 233 325 170 325 C68 325 19 278 19 184 L19 139 C19 47 64 -18 174 -18 C243 -18 329 6 380 78 C415 18 477 -17 580 -17 C690 -17 754 16 785 71 L735 151 C711 117 672 93 598 93 C512 93 474 140 473 223 L790 223 Z M336 136 C310 107 266 82 218 82 C171 82 156 105 156 151 L156 172 C156 219 174 243 223 243 C271 243 312 234 336 226 L336 136 Z M473 313 C473 390 486 443 568 443 C652 443 661 389 661 313 L473 313 Z " />
<glyph glyph-name="ccedilla" unicode="ç" horiz-adv-x="479" d="M409 177 C382 126 331 101 276 101 C194 101 164 147 164 223 L164 320 C164 397 193 435 260 435 C288 435 315 428 334 408 L343 341 L447 341 L447 474 C398 525 328 540 252 540 C91 540 25 451 25 323 L25 208 C25 65 102 -18 264 -18 C350 -18 420 19 464 95 L409 177 Z M241 -240 C275 -211 305 -172 315 -135 L315 -29 L193 -29 L193 -135 L253 -135 C240 -160 220 -185 199 -203 L241 -240 Z " />
<glyph glyph-name="egrave" unicode="è" horiz-adv-x="507" d="M479 223 L479 290 C479 454 441 540 256 540 C86 540 26 461 26 298 L26 220 C26 82 98 -18 268 -18 C379 -18 443 16 474 71 L425 153 C397 116 360 93 287 93 C192 93 162 126 162 223 L479 223 Z M162 313 C162 388 174 443 258 443 C343 443 351 387 351 313 L162 313 Z M341 580 L263 766 L126 766 L253 580 L341 580 Z " />
<glyph glyph-name="eacute" unicode="é" horiz-adv-x="507" d="M479 223 L479 290 C479 454 441 540 256 540 C86 540 26 461 26 298 L26 220 C26 82 98 -18 268 -18 C379 -18 443 16 474 71 L425 153 C397 116 360 93 287 93 C192 93 162 126 162 223 L479 223 Z M162 313 C162 388 174 443 258 443 C343 443 351 387 351 313 L162 313 Z M264 580 L391 766 L256 766 L176 580 L264 580 Z " />
<glyph glyph-name="ecircumflex" unicode="ê" horiz-adv-x="507" d="M479 223 L479 290 C479 454 441 540 256 540 C86 540 26 461 26 298 L26 220 C26 82 98 -18 268 -18 C379 -18 443 16 474 71 L425 153 C397 116 360 93 287 93 C192 93 162 126 162 223 L479 223 Z M162 313 C162 388 174 443 258 443 C343 443 351 387 351 313 L162 313 Z M452 579 L309 755 L199 755 L55 579 L162 579 L254 693 L345 579 L452 579 Z " />
<glyph glyph-name="edieresis" unicode="ë" horiz-adv-x="507" d="M479 223 L479 290 C479 454 441 540 256 540 C86 540 26 461 26 298 L26 220 C26 82 98 -18 268 -18 C379 -18 443 16 474 71 L425 153 C397 116 360 93 287 93 C192 93 162 126 162 223 L479 223 Z M162 313 C162 388 174 443 258 443 C343 443 351 387 351 313 L162 313 Z M207 590 L207 719 L65 719 L65 590 L207 590 Z M442 590 L442 719 L300 719 L300 590 L442 590 Z " />
<glyph glyph-name="igrave" unicode="ì" horiz-adv-x="291" d="M269 0 L269 91 L217 104 L217 526 L23 526 L23 435 L75 422 L75 104 L23 91 L23 0 L269 0 Z M223 580 L145 766 L8 766 L135 580 L223 580 Z " />
<glyph glyph-name="iacute" unicode="í" horiz-adv-x="291" d="M269 0 L269 91 L217 104 L217 526 L23 526 L23 435 L75 422 L75 104 L23 91 L23 0 L269 0 Z M156 580 L283 766 L148 766 L68 580 L156 580 Z " />
<glyph glyph-name="icircumflex" unicode="î" horiz-adv-x="362" d="M304 0 L304 91 L252 104 L252 526 L58 526 L58 435 L110 422 L110 104 L58 91 L58 0 L304 0 Z M379 579 L236 755 L126 755 L-18 579 L89 579 L181 693 L272 579 L379 579 Z " />
<glyph glyph-name="idieresis" unicode="ï" horiz-adv-x="358" d="M302 0 L302 91 L250 104 L250 526 L56 526 L56 435 L108 422 L108 104 L56 91 L56 0 L302 0 Z M132 590 L132 719 L-10 719 L-10 590 L132 590 Z M367 590 L367 719 L225 719 L225 590 L367 590 Z " />
<glyph glyph-name="eth" unicode="ð" horiz-adv-x="532" d="M500 639 L469 718 L375 683 C358 704 339 724 318 744 L221 709 C239 691 257 669 272 644 L159 602 L191 523 L311 568 C330 523 343 475 349 430 C331 451 297 465 239 465 C102 465 24 440 24 290 L24 190 C24 40 102 -18 266 -18 C432 -18 506 40 506 190 L506 271 C506 402 482 514 426 611 L500 639 Z M367 181 C367 116 333 88 266 88 C188 88 166 124 166 210 L166 284 C166 349 200 370 265 370 C329 370 361 342 367 284 L367 181 Z " />
<glyph glyph-name="ntilde" unicode="ñ" horiz-adv-x="634" d="M612 0 L612 91 L560 104 L560 396 C560 493 510 540 407 540 C316 540 265 519 208 467 L205 526 L23 526 L23 435 L75 422 L75 104 L23 91 L23 0 L266 0 L266 91 L217 104 L217 382 C254 417 298 427 348 427 C391 427 418 411 418 366 L418 104 L369 91 L369 0 L612 0 Z M494 708 C465 673 437 657 399 657 C345 657 300 709 232 709 C189 709 160 687 140 663 L140 572 C168 607 196 624 235 624 C286 624 331 571 402 571 C445 571 474 593 494 617 L494 708 Z " />
<glyph glyph-name="ograve" unicode="ò" horiz-adv-x="525" d="M500 315 C500 471 428 540 262 540 C97 540 25 471 25 315 L25 208 C25 51 97 -18 262 -18 C428 -18 500 51 500 208 L500 315 Z M361 217 C361 118 338 91 262 91 C187 91 164 118 164 217 L164 306 C164 403 187 431 262 431 C338 431 361 403 361 306 L361 217 Z M340 580 L262 766 L125 766 L252 580 L340 580 Z " />
<glyph glyph-name="oacute" unicode="ó" horiz-adv-x="525" d="M500 315 C500 471 428 540 262 540 C97 540 25 471 25 315 L25 208 C25 51 97 -18 262 -18 C428 -18 500 51 500 208 L500 315 Z M361 217 C361 118 338 91 262 91 C187 91 164 118 164 217 L164 306 C164 403 187 431 262 431 C338 431 361 403 361 306 L361 217 Z M273 580 L400 766 L265 766 L185 580 L273 580 Z " />
<glyph glyph-name="ocircumflex" unicode="ô" horiz-adv-x="525" d="M500 315 C500 471 428 540 262 540 C97 540 25 471 25 315 L25 208 C25 51 97 -18 262 -18 C428 -18 500 51 500 208 L500 315 Z M361 217 C361 118 338 91 262 91 C187 91 164 118 164 217 L164 306 C164 403 187 431 262 431 C338 431 361 403 361 306 L361 217 Z M461 579 L318 755 L208 755 L64 579 L171 579 L263 693 L354 579 L461 579 Z " />
<glyph glyph-name="otilde" unicode="õ" horiz-adv-x="525" d="M500 315 C500 471 428 540 262 540 C97 540 25 471 25 315 L25 208 C25 51 97 -18 262 -18 C428 -18 500 51 500 208 L500 315 Z M361 217 C361 118 338 91 262 91 C187 91 164 118 164 217 L164 306 C164 403 187 431 262 431 C338 431 361 403 361 306 L361 217 Z M439 708 C410 673 382 657 344 657 C290 657 245 709 177 709 C134 709 105 687 85 663 L85 572 C113 607 141 624 180 624 C231 624 276 571 347 571 C390 571 419 593 439 617 L439 708 Z " />
<glyph glyph-name="odieresis" unicode="ö" horiz-adv-x="525" d="M500 315 C500 471 428 540 262 540 C97 540 25 471 25 315 L25 208 C25 51 97 -18 262 -18 C428 -18 500 51 500 208 L500 315 Z M361 217 C361 118 338 91 262 91 C187 91 164 118 164 217 L164 306 C164 403 187 431 262 431 C338 431 361 403 361 306 L361 217 Z M216 590 L216 719 L74 719 L74 590 L216 590 Z M451 590 L451 719 L309 719 L309 590 L451 590 Z " />
<glyph glyph-name="divide" unicode="÷" horiz-adv-x="608" d="M557 316 L557 420 L50 420 L50 316 L557 316 Z M380 490 L380 652 L228 652 L228 490 L380 490 Z M380 84 L380 246 L228 246 L228 84 L380 84 Z " />
<glyph glyph-name="oslash" unicode="ø" horiz-adv-x="525" d="M143 -75 L177 -10 C202 -15 230 -18 262 -18 C428 -18 500 51 500 208 L500 315 C500 395 481 452 440 489 L499 601 L378 601 L342 533 C318 537 292 540 262 540 C97 540 25 471 25 315 L25 208 C25 129 43 72 82 35 L24 -75 L143 -75 Z M361 217 C361 118 338 91 262 91 C250 91 240 91 231 93 L361 338 L361 217 Z M164 306 C164 403 187 431 262 431 C271 431 280 430 288 429 L164 193 L164 306 Z " />
<glyph glyph-name="ugrave" unicode="ù" horiz-adv-x="579" d="M396 164 C396 115 373 96 300 96 C227 96 202 113 202 164 L202 422 L250 435 L250 526 L18 526 L18 435 L61 422 L61 162 C61 34 137 -18 293 -18 C449 -18 518 34 518 162 L518 422 L561 435 L561 526 L348 526 L348 435 L396 422 L396 164 Z M367 580 L289 766 L152 766 L279 580 L367 580 Z " />
<glyph glyph-name="uacute" unicode="ú" horiz-adv-x="579" d="M396 164 C396 115 373 96 300 96 C227 96 202 113 202 164 L202 422 L250 435 L250 526 L18 526 L18 435 L61 422 L61 162 C61 34 137 -18 293 -18 C449 -18 518 34 518 162 L518 422 L561 435 L561 526 L348 526 L348 435 L396 422 L396 164 Z M300 580 L427 766 L292 766 L212 580 L300 580 Z " />
<glyph glyph-name="ucircumflex" unicode="û" horiz-adv-x="579" d="M396 164 C396 115 373 96 300 96 C227 96 202 113 202 164 L202 422 L250 435 L250 526 L18 526 L18 435 L61 422 L61 162 C61 34 137 -18 293 -18 C449 -18 518 34 518 162 L518 422 L561 435 L561 526 L348 526 L348 435 L396 422 L396 164 Z M488 579 L345 755 L235 755 L91 579 L198 579 L290 693 L381 579 L488 579 Z " />
<glyph glyph-name="udieresis" unicode="ü" horiz-adv-x="579" d="M396 164 C396 115 373 96 300 96 C227 96 202 113 202 164 L202 422 L250 435 L250 526 L18 526 L18 435 L61 422 L61 162 C61 34 137 -18 293 -18 C449 -18 518 34 518 162 L518 422 L561 435 L561 526 L348 526 L348 435 L396 422 L396 164 Z M243 590 L243 719 L101 719 L101 590 L243 590 Z M478 590 L478 719 L336 719 L336 590 L478 590 Z " />
<glyph glyph-name="yacute" unicode="ý" horiz-adv-x="573" d="M220 -21 L213 -40 C196 -86 170 -116 123 -116 C87 -116 64 -105 44 -87 L8 -189 C40 -222 85 -239 138 -239 C252 -239 298 -155 340 -42 L514 425 L557 434 L557 526 L359 526 L359 434 L399 425 L299 125 L205 425 L247 434 L247 526 L14 526 L14 434 L58 425 L220 -21 Z M307 580 L434 766 L299 766 L219 580 L307 580 Z " />
<glyph glyph-name="thorn" unicode="þ" horiz-adv-x="564" d="M258 -228 L258 -137 L196 -124 L196 36 C238 -1 297 -17 355 -17 C489 -17 537 50 537 215 L537 316 C537 470 489 540 372 540 C303 540 244 520 196 475 L196 719 L2 719 L2 628 L54 615 L54 -124 L2 -137 L2 -228 L258 -228 Z M396 214 C396 129 374 93 302 93 C265 93 224 106 196 128 L196 375 C227 409 267 428 316 428 C374 428 396 394 396 308 L396 214 Z " />
<glyph glyph-name="ydieresis" unicode="ÿ" horiz-adv-x="573" d="M220 -21 L213 -40 C196 -86 170 -116 123 -116 C87 -116 64 -105 44 -87 L8 -189 C40 -222 85 -239 138 -239 C252 -239 298 -155 340 -42 L514 425 L557 434 L557 526 L359 526 L359 434 L399 425 L299 125 L205 425 L247 434 L247 526 L14 526 L14 434 L58 425 L220 -21 Z M253 590 L253 719 L111 719 L111 590 L253 590 Z M488 590 L488 719 L346 719 L346 590 L488 590 Z " />
<glyph glyph-name="Amacron" unicode="Ā" horiz-adv-x="642" d="M621 0 L621 90 L573 103 C524 305 477 507 428 710 L224 710 L68 103 L20 90 L20 0 L233 0 L233 90 L184 103 L214 223 L387 223 L414 103 L365 90 L365 0 L621 0 Z M369 315 L234 315 L305 595 L369 315 Z M493 769 L493 864 L148 864 L148 769 L493 769 Z " />
<glyph glyph-name="amacron" unicode="ā" horiz-adv-x="546" d="M524 80 C517 73 511 70 501 70 C483 70 472 81 472 108 L472 379 C472 497 417 540 269 540 C191 540 111 528 46 485 L89 385 C137 416 192 428 247 428 C299 428 336 416 336 365 L336 299 C289 313 235 325 170 325 C68 325 19 278 19 184 L19 139 C19 47 65 -18 175 -18 C256 -18 322 16 349 68 C362 9 395 -17 454 -17 C485 -17 511 -10 530 7 L524 80 Z M336 132 C306 105 266 83 218 83 C172 83 157 105 157 151 L157 172 C157 220 175 243 224 243 C271 243 312 234 336 227 L336 132 Z M445 585 L445 680 L100 680 L100 585 L445 585 Z " />
<glyph glyph-name="Abreve" unicode="Ă" horiz-adv-x="642" d="M621 0 L621 90 L573 103 C524 305 477 507 428 710 L224 710 L68 103 L20 90 L20 0 L233 0 L233 90 L184 103 L214 223 L387 223 L414 103 L365 90 L365 0 L621 0 Z M369 315 L234 315 L305 595 L369 315 Z M411 935 C409 874 378 840 324 840 C270 840 238 874 236 935 L150 935 C150 816 236 758 324 758 C413 758 497 816 497 935 L411 935 Z " />
<glyph glyph-name="abreve" unicode="ă" horiz-adv-x="546" d="M524 80 C517 73 511 70 501 70 C483 70 472 81 472 108 L472 379 C472 497 417 540 269 540 C191 540 111 528 46 485 L89 385 C137 416 192 428 247 428 C299 428 336 416 336 365 L336 299 C289 313 235 325 170 325 C68 325 19 278 19 184 L19 139 C19 47 65 -18 175 -18 C256 -18 322 16 349 68 C362 9 395 -17 454 -17 C485 -17 511 -10 530 7 L524 80 Z M336 132 C306 105 266 83 218 83 C172 83 157 105 157 151 L157 172 C157 220 175 243 224 243 C271 243 312 234 336 227 L336 132 Z M360 751 C358 690 327 656 273 656 C219 656 187 690 185 751 L99 751 C99 632 185 574 273 574 C362 574 446 632 446 751 L360 751 Z " />
<glyph glyph-name="Aogonek" unicode="Ą" horiz-adv-x="642" d="M564 -114 C547 -120 528 -124 506 -124 C459 -124 447 -109 447 -87 C447 -43 519 -23 583 0 L621 0 L621 90 L573 103 C524 305 477 507 428 710 L224 710 L68 103 L20 90 L20 0 L233 0 L233 90 L184 103 L214 223 L387 223 L414 103 L365 90 L365 0 L509 0 C409 -22 330 -55 330 -135 C330 -215 412 -240 490 -240 C539 -240 582 -231 613 -212 L564 -114 Z M369 315 L234 315 L305 595 L369 315 Z " />
<glyph glyph-name="aogonek" unicode="ą" horiz-adv-x="546" d="M501 -114 C484 -120 465 -124 443 -124 C396 -124 384 -109 384 -87 C384 -25 496 -24 530 7 L524 80 C517 73 511 70 501 70 C483 70 472 81 472 108 L472 379 C472 497 417 540 269 540 C191 540 111 528 46 485 L89 385 C137 416 192 428 247 428 C299 428 336 416 336 365 L336 299 C289 313 235 325 170 325 C68 325 19 278 19 184 L19 139 C19 47 65 -18 175 -18 C256 -18 322 16 349 68 C358 27 377 2 407 -9 C326 -31 267 -65 267 -135 C267 -215 349 -240 427 -240 C476 -240 519 -231 550 -212 L501 -114 Z M336 132 C306 105 266 83 218 83 C172 83 157 105 157 151 L157 172 C157 220 175 243 224 243 C271 243 312 234 336 227 L336 132 Z " />
<glyph glyph-name="Cacute" unicode="Ć" horiz-adv-x="557" d="M533 198 L414 198 L405 126 C382 99 347 91 312 91 C215 91 185 144 185 281 L185 428 C185 559 216 618 312 618 C347 618 381 609 403 584 L412 512 L531 512 L531 661 C486 708 400 728 324 728 C110 728 28 655 28 428 L28 282 C28 55 110 -18 324 -18 C400 -18 478 0 533 54 L533 198 Z M309 764 L436 950 L301 950 L221 764 L309 764 Z " />
<glyph glyph-name="cacute" unicode="ć" horiz-adv-x="479" d="M409 177 C382 126 331 101 276 101 C194 101 164 147 164 223 L164 320 C164 397 193 435 260 435 C288 435 315 428 334 408 L343 341 L447 341 L447 474 C398 525 328 540 252 540 C91 540 25 451 25 323 L25 208 C25 65 102 -18 264 -18 C350 -18 420 19 464 95 L409 177 Z M260 580 L387 766 L252 766 L172 580 L260 580 Z " />
<glyph glyph-name="Ccircumflex" unicode="Ĉ" horiz-adv-x="557" d="M533 198 L414 198 L405 126 C382 99 347 91 312 91 C215 91 185 144 185 281 L185 428 C185 559 216 618 312 618 C347 618 381 609 403 584 L412 512 L531 512 L531 661 C486 708 400 728 324 728 C110 728 28 655 28 428 L28 282 C28 55 110 -18 324 -18 C400 -18 478 0 533 54 L533 198 Z M487 763 L344 939 L234 939 L90 763 L197 763 L289 877 L380 763 L487 763 Z " />
<glyph glyph-name="ccircumflex" unicode="ĉ" horiz-adv-x="479" d="M409 177 C382 126 331 101 276 101 C194 101 164 147 164 223 L164 320 C164 397 193 435 260 435 C288 435 315 428 334 408 L343 341 L447 341 L447 474 C398 525 328 540 252 540 C91 540 25 451 25 323 L25 208 C25 65 102 -18 264 -18 C350 -18 420 19 464 95 L409 177 Z M444 579 L301 755 L191 755 L47 579 L154 579 L246 693 L337 579 L444 579 Z " />
<glyph glyph-name="Cdotaccent" unicode="Ċ" horiz-adv-x="557" d="M533 198 L414 198 L405 126 C382 99 347 91 312 91 C215 91 185 144 185 281 L185 428 C185 559 216 618 312 618 C347 618 381 609 403 584 L412 512 L531 512 L531 661 C486 708 400 728 324 728 C110 728 28 655 28 428 L28 282 C28 55 110 -18 324 -18 C400 -18 478 0 533 54 L533 198 Z M359 774 L359 903 L217 903 L217 774 L359 774 Z " />
<glyph glyph-name="cdotaccent" unicode="ċ" horiz-adv-x="479" d="M409 177 C382 126 331 101 276 101 C194 101 164 147 164 223 L164 320 C164 397 193 435 260 435 C288 435 315 428 334 408 L343 341 L447 341 L447 474 C398 525 328 540 252 540 C91 540 25 451 25 323 L25 208 C25 65 102 -18 264 -18 C350 -18 420 19 464 95 L409 177 Z M314 590 L314 719 L172 719 L172 590 L314 590 Z " />
<glyph glyph-name="Ccaron" unicode="Č" horiz-adv-x="557" d="M533 198 L414 198 L405 126 C382 99 347 91 312 91 C215 91 185 144 185 281 L185 428 C185 559 216 618 312 618 C347 618 381 609 403 584 L412 512 L531 512 L531 661 C486 708 400 728 324 728 C110 728 28 655 28 428 L28 282 C28 55 110 -18 324 -18 C400 -18 478 0 533 54 L533 198 Z M333 763 L477 939 L369 939 L278 826 L187 939 L79 939 L223 763 L333 763 Z " />
<glyph glyph-name="ccaron" unicode="č" horiz-adv-x="479" d="M409 177 C382 126 331 101 276 101 C194 101 164 147 164 223 L164 320 C164 397 193 435 260 435 C288 435 315 428 334 408 L343 341 L447 341 L447 474 C398 525 328 540 252 540 C91 540 25 451 25 323 L25 208 C25 65 102 -18 264 -18 C350 -18 420 19 464 95 L409 177 Z M304 579 L448 755 L340 755 L249 642 L158 755 L50 755 L194 579 L304 579 Z " />
<glyph glyph-name="Dcaron" unicode="Ď" horiz-adv-x="622" d="M340 0 C521 0 593 74 593 269 L593 441 C593 636 521 710 340 710 L29 710 L29 619 L81 606 L81 104 L29 91 L29 0 L340 0 Z M438 264 C438 146 406 108 340 108 L236 108 L236 602 L340 602 C407 602 438 563 438 446 L438 264 Z M356 763 L500 939 L392 939 L301 826 L210 939 L102 939 L246 763 L356 763 Z " />
<glyph glyph-name="dcaron" unicode="ď" horiz-adv-x="735" d="M560 0 L560 91 L508 104 L508 719 L314 719 L314 628 L366 615 L366 489 C324 526 264 542 207 542 C72 542 25 475 25 310 L25 208 C25 54 73 -15 189 -15 C258 -15 317 4 375 58 L379 0 L560 0 Z M366 153 C335 118 294 100 246 100 C188 100 165 132 165 220 L165 307 C165 392 188 429 259 429 C297 429 338 416 366 394 L366 153 Z M615 419 C656 454 693 504 710 550 L710 719 L558 719 L558 557 L641 557 C625 522 597 491 571 466 L615 419 Z " />
<glyph glyph-name="Dcroat" unicode="Đ" horiz-adv-x="622" d="M340 0 C521 0 593 74 593 269 L593 441 C593 636 521 710 340 710 L29 710 L29 619 L81 606 L81 419 L29 419 L29 318 L81 318 L81 104 L29 91 L29 0 L340 0 Z M438 264 C438 147 407 108 340 108 L236 108 L236 318 L341 318 L341 419 L236 419 L236 602 L340 602 C407 602 438 562 438 440 L438 264 Z " />
<glyph glyph-name="dcroat" unicode="đ" horiz-adv-x="582" d="M560 575 L560 670 L508 670 L508 719 L366 719 L366 670 L215 670 L215 575 L366 575 L366 489 C324 526 264 542 207 542 C72 542 25 475 25 310 L25 208 C25 54 73 -15 189 -15 C258 -15 317 4 375 58 L379 0 L560 0 L560 91 L508 104 L508 575 L560 575 Z M366 153 C335 118 294 100 246 100 C188 100 165 132 165 220 L165 307 C165 392 188 429 259 429 C297 429 338 416 366 394 L366 153 Z " />
<glyph glyph-name="Emacron" unicode="Ē" horiz-adv-x="571" d="M538 0 L538 219 L452 219 L433 116 L233 116 L233 318 L398 318 L412 263 L484 263 L484 474 L412 474 L398 419 L233 419 L233 600 L432 600 L446 513 L532 513 L532 710 L29 710 L29 619 L81 606 L81 104 L29 91 L29 0 L538 0 Z M458 769 L458 864 L113 864 L113 769 L458 769 Z " />
<glyph glyph-name="emacron" unicode="ē" horiz-adv-x="507" d="M479 223 L479 290 C479 454 441 540 256 540 C86 540 26 461 26 298 L26 220 C26 82 98 -18 268 -18 C379 -18 443 16 474 71 L425 153 C397 116 360 93 287 93 C192 93 162 126 162 223 L479 223 Z M162 313 C162 388 174 443 258 443 C343 443 351 387 351 313 L162 313 Z M426 585 L426 680 L81 680 L81 585 L426 585 Z " />
<glyph glyph-name="Ebreve" unicode="Ĕ" horiz-adv-x="571" d="M538 0 L538 219 L452 219 L433 116 L233 116 L233 318 L398 318 L412 263 L484 263 L484 474 L412 474 L398 419 L233 419 L233 600 L432 600 L446 513 L532 513 L532 710 L29 710 L29 619 L81 606 L81 104 L29 91 L29 0 L538 0 Z M373 935 C371 874 340 840 286 840 C232 840 200 874 198 935 L112 935 C112 816 198 758 286 758 C375 758 459 816 459 935 L373 935 Z " />
<glyph glyph-name="ebreve" unicode="ĕ" horiz-adv-x="507" d="M479 223 L479 290 C479 454 441 540 256 540 C86 540 26 461 26 298 L26 220 C26 82 98 -18 268 -18 C379 -18 443 16 474 71 L425 153 C397 116 360 93 287 93 C192 93 162 126 162 223 L479 223 Z M162 313 C162 388 174 443 258 443 C343 443 351 387 351 313 L162 313 Z M341 751 C339 690 308 656 254 656 C200 656 168 690 166 751 L80 751 C80 632 166 574 254 574 C343 574 427 632 427 751 L341 751 Z " />
<glyph glyph-name="Edotaccent" unicode="Ė" horiz-adv-x="571" d="M538 0 L538 219 L452 219 L433 116 L233 116 L233 318 L398 318 L412 263 L484 263 L484 474 L412 474 L398 419 L233 419 L233 600 L432 600 L446 513 L532 513 L532 710 L29 710 L29 619 L81 606 L81 104 L29 91 L29 0 L538 0 Z M356 774 L356 903 L214 903 L214 774 L356 774 Z " />
<glyph glyph-name="edotaccent" unicode="ė" horiz-adv-x="507" d="M479 223 L479 290 C479 454 441 540 256 540 C86 540 26 461 26 298 L26 220 C26 82 98 -18 268 -18 C379 -18 443 16 474 71 L425 153 C397 116 360 93 287 93 C192 93 162 126 162 223 L479 223 Z M162 313 C162 388 174 443 258 443 C343 443 351 387 351 313 L162 313 Z M324 590 L324 719 L182 719 L182 590 L324 590 Z " />
<glyph glyph-name="Eogonek" unicode="Ę" horiz-adv-x="571" d="M519 -114 C502 -120 483 -124 461 -124 C414 -124 402 -109 402 -87 C402 -43 474 -23 538 0 L538 219 L452 219 L433 116 L233 116 L233 318 L398 318 L412 263 L484 263 L484 474 L412 474 L398 419 L233 419 L233 600 L432 600 L446 513 L532 513 L532 710 L29 710 L29 619 L81 606 L81 104 L29 91 L29 0 L464 0 C364 -22 285 -55 285 -135 C285 -215 367 -240 445 -240 C494 -240 537 -231 568 -212 L519 -114 Z " />
<glyph glyph-name="eogonek" unicode="ę" horiz-adv-x="507" d="M366 -114 C349 -120 330 -124 308 -124 C261 -124 249 -109 249 -87 C249 -47 308 -24 368 -6 C420 10 454 35 474 71 L425 153 C397 116 360 93 287 93 C192 93 162 126 162 223 L479 223 L479 290 C479 454 441 540 256 540 C86 540 26 461 26 298 L26 220 C26 88 91 -9 245 -17 C178 -40 132 -73 132 -135 C132 -215 214 -240 292 -240 C341 -240 384 -231 415 -212 L366 -114 Z M162 313 C162 388 174 443 258 443 C343 443 351 387 351 313 L162 313 Z " />
<glyph glyph-name="Ecaron" unicode="Ě" horiz-adv-x="571" d="M538 0 L538 219 L452 219 L433 116 L233 116 L233 318 L398 318 L412 263 L484 263 L484 474 L412 474 L398 419 L233 419 L233 600 L432 600 L446 513 L532 513 L532 710 L29 710 L29 619 L81 606 L81 104 L29 91 L29 0 L538 0 Z M340 763 L484 939 L376 939 L285 826 L194 939 L86 939 L230 763 L340 763 Z " />
<glyph glyph-name="ecaron" unicode="ě" horiz-adv-x="507" d="M479 223 L479 290 C479 454 441 540 256 540 C86 540 26 461 26 298 L26 220 C26 82 98 -18 268 -18 C379 -18 443 16 474 71 L425 153 C397 116 360 93 287 93 C192 93 162 126 162 223 L479 223 Z M162 313 C162 388 174 443 258 443 C343 443 351 387 351 313 L162 313 Z M308 579 L452 755 L344 755 L253 642 L162 755 L54 755 L198 579 L308 579 Z " />
<glyph glyph-name="Gcircumflex" unicode="Ĝ" horiz-adv-x="581" d="M407 126 C394 110 362 98 303 98 C215 98 184 156 184 272 L184 429 C184 568 219 618 313 618 C350 618 389 610 411 584 L420 512 L539 512 L539 661 C494 708 404 728 310 728 C114 728 29 652 29 428 L29 272 C29 68 104 -18 304 -18 C440 -18 530 33 553 58 L553 392 L319 392 L319 307 L407 294 L407 126 Z M489 763 L346 939 L236 939 L92 763 L199 763 L291 877 L382 763 L489 763 Z " />
<glyph glyph-name="gcircumflex" unicode="ĝ" horiz-adv-x="530" d="M362 5 C362 -83 337 -122 243 -122 C191 -122 138 -109 95 -80 L57 -174 C112 -227 191 -240 266 -240 C418 -240 502 -179 502 -14 L502 526 L415 526 L387 470 C350 513 289 539 204 539 C64 539 25 463 25 311 L25 244 C25 100 64 18 189 18 C255 18 315 40 362 86 L362 5 Z M362 182 C331 148 290 129 242 129 C179 130 163 170 163 244 L163 309 C163 382 178 430 255 430 C291 430 337 416 362 396 L362 182 Z M463 579 L320 755 L210 755 L66 579 L173 579 L265 693 L356 579 L463 579 Z " />
<glyph glyph-name="Gbreve" unicode="Ğ" horiz-adv-x="581" d="M407 126 C394 110 362 98 303 98 C215 98 184 156 184 272 L184 429 C184 568 219 618 313 618 C350 618 389 610 411 584 L420 512 L539 512 L539 661 C494 708 404 728 310 728 C114 728 29 652 29 428 L29 272 C29 68 104 -18 304 -18 C440 -18 530 33 553 58 L553 392 L319 392 L319 307 L407 294 L407 126 Z M378 935 C376 874 345 840 291 840 C237 840 205 874 203 935 L117 935 C117 816 203 758 291 758 C380 758 464 816 464 935 L378 935 Z " />
<glyph glyph-name="gbreve" unicode="ğ" horiz-adv-x="530" d="M362 5 C362 -83 337 -122 243 -122 C191 -122 138 -109 95 -80 L57 -174 C112 -227 191 -240 266 -240 C418 -240 502 -179 502 -14 L502 526 L415 526 L387 470 C350 513 289 539 204 539 C64 539 25 463 25 311 L25 244 C25 100 64 18 189 18 C255 18 315 40 362 86 L362 5 Z M362 182 C331 148 290 129 242 129 C179 130 163 170 163 244 L163 309 C163 382 178 430 255 430 C291 430 337 416 362 396 L362 182 Z M352 751 C350 690 319 656 265 656 C211 656 179 690 177 751 L91 751 C91 632 177 574 265 574 C354 574 438 632 438 751 L352 751 Z " />
<glyph glyph-name="Gdotaccent" unicode="Ġ" horiz-adv-x="581" d="M407 126 C394 110 362 98 303 98 C215 98 184 156 184 272 L184 429 C184 568 219 618 313 618 C350 618 389 610 411 584 L420 512 L539 512 L539 661 C494 708 404 728 310 728 C114 728 29 652 29 428 L29 272 C29 68 104 -18 304 -18 C440 -18 530 33 553 58 L553 392 L319 392 L319 307 L407 294 L407 126 Z M366 774 L366 903 L224 903 L224 774 L366 774 Z " />
<glyph glyph-name="gdotaccent" unicode="ġ" horiz-adv-x="530" d="M362 5 C362 -83 337 -122 243 -122 C191 -122 138 -109 95 -80 L57 -174 C112 -227 191 -240 266 -240 C418 -240 502 -179 502 -14 L502 526 L415 526 L387 470 C350 513 289 539 204 539 C64 539 25 463 25 311 L25 244 C25 100 64 18 189 18 C255 18 315 40 362 86 L362 5 Z M362 182 C331 148 290 129 242 129 C179 130 163 170 163 244 L163 309 C163 382 178 430 255 430 C291 430 337 416 362 396 L362 182 Z M336 590 L336 719 L194 719 L194 590 L336 590 Z " />
<glyph glyph-name="Gcommaaccent" unicode="Ģ" horiz-adv-x="581" d="M407 126 C394 110 362 98 303 98 C215 98 184 156 184 272 L184 429 C184 568 219 618 313 618 C350 618 389 610 411 584 L420 512 L539 512 L539 661 C494 708 404 728 310 728 C114 728 29 652 29 428 L29 272 C29 68 104 -18 304 -18 C440 -18 530 33 553 58 L553 392 L319 392 L319 307 L407 294 L407 126 Z M287 -240 C321 -211 351 -172 361 -135 L361 -29 L239 -29 L239 -135 L299 -135 C286 -160 266 -185 245 -203 L287 -240 Z " />
<glyph glyph-name="gcommaaccent" unicode="ģ" horiz-adv-x="530" d="M362 5 C362 -83 337 -122 243 -122 C191 -122 138 -109 95 -80 L57 -174 C112 -227 191 -240 266 -240 C418 -240 502 -179 502 -14 L502 526 L415 526 L387 470 C350 513 289 539 204 539 C64 539 25 463 25 311 L25 244 C25 100 64 18 189 18 C255 18 315 40 362 86 L362 5 Z M362 182 C331 148 290 129 242 129 C179 130 163 170 163 244 L163 309 C163 382 178 430 255 430 C291 430 337 416 362 396 L362 182 Z M278 785 C244 756 214 717 204 680 L204 574 L326 574 L326 680 L266 680 C279 705 299 730 320 748 L278 785 Z " />
<glyph glyph-name="Hcircumflex" unicode="Ĥ" horiz-adv-x="666" d="M637 0 L637 91 L584 104 L584 606 L637 619 L637 710 L385 710 L385 619 L434 606 L434 413 L232 413 L232 606 L280 619 L280 710 L29 710 L29 619 L81 606 L81 104 L29 91 L29 0 L280 0 L280 91 L232 104 L232 306 L434 306 L434 104 L385 91 L385 0 L637 0 Z M531 763 L388 939 L278 939 L134 763 L241 763 L333 877 L424 763 L531 763 Z " />
<glyph glyph-name="hcircumflex" unicode="ĥ" horiz-adv-x="634" d="M612 0 L612 91 L560 104 L560 396 C560 493 510 540 407 540 C335 540 271 526 217 483 L217 719 L23 719 L23 628 L75 615 L75 104 L23 91 L23 0 L266 0 L266 91 L217 104 L217 381 C254 416 298 426 348 426 C391 426 418 410 418 366 L418 104 L369 91 L369 0 L612 0 Z M420 763 L277 939 L167 939 L23 763 L130 763 L222 877 L313 763 L420 763 Z " />
<glyph glyph-name="Hbar" unicode="Ħ" horiz-adv-x="666" d="M637 0 L637 91 L584 104 L584 606 L637 619 L637 710 L385 710 L385 619 L434 606 L434 559 L232 559 L232 606 L280 619 L280 710 L29 710 L29 619 L81 606 L81 104 L29 91 L29 0 L280 0 L280 91 L232 104 L232 306 L434 306 L434 104 L385 91 L385 0 L637 0 Z M232 413 L232 464 L434 464 L434 413 L232 413 Z " />
<glyph glyph-name="hbar" unicode="ħ" horiz-adv-x="634" d="M358 575 L358 670 L217 670 L217 719 L75 719 L75 670 L13 670 L13 575 L75 575 L75 104 L23 91 L23 0 L266 0 L266 91 L217 104 L217 381 C254 416 298 426 348 426 C391 426 418 410 418 366 L418 104 L369 91 L369 0 L612 0 L612 91 L560 104 L560 396 C560 493 510 540 407 540 C335 540 271 526 217 483 L217 575 L358 575 Z " />
<glyph glyph-name="Itilde" unicode="Ĩ" horiz-adv-x="317" d="M288 0 L288 91 L236 104 L236 606 L288 619 L288 710 L29 710 L29 619 L81 606 L81 104 L29 91 L29 0 L288 0 Z M336 892 C307 857 279 841 241 841 C187 841 142 893 74 893 C31 893 2 871 -18 847 L-18 756 C10 791 38 808 77 808 C128 808 173 755 244 755 C287 755 316 777 336 801 L336 892 Z " />
<glyph glyph-name="itilde" unicode="ĩ" horiz-adv-x="332" d="M289 0 L289 91 L237 104 L237 526 L43 526 L43 435 L95 422 L95 104 L43 91 L43 0 L289 0 Z M343 708 C314 673 286 657 248 657 C194 657 149 709 81 709 C38 709 9 687 -11 663 L-11 572 C17 607 45 624 84 624 C135 624 180 571 251 571 C294 571 323 593 343 617 L343 708 Z " />
<glyph glyph-name="uni012A" unicode="Ī" horiz-adv-x="317" d="M288 0 L288 91 L236 104 L236 606 L288 619 L288 710 L29 710 L29 619 L81 606 L81 104 L29 91 L29 0 L288 0 Z M331 769 L331 864 L-14 864 L-14 769 L331 769 Z " />
<glyph glyph-name="imacron" unicode="ī" horiz-adv-x="332" d="M289 0 L289 91 L237 104 L237 526 L43 526 L43 435 L95 422 L95 104 L43 91 L43 0 L289 0 Z M338 585 L338 680 L-7 680 L-7 585 L338 585 Z " />
<glyph glyph-name="Ibreve" unicode="Ĭ" horiz-adv-x="317" d="M288 0 L288 91 L236 104 L236 606 L288 619 L288 710 L29 710 L29 619 L81 606 L81 104 L29 91 L29 0 L288 0 Z M246 935 C244 874 213 840 159 840 C105 840 73 874 71 935 L-15 935 C-15 816 71 758 159 758 C248 758 332 816 332 935 L246 935 Z " />
<glyph glyph-name="ibreve" unicode="ĭ" horiz-adv-x="332" d="M289 0 L289 91 L237 104 L237 526 L43 526 L43 435 L95 422 L95 104 L43 91 L43 0 L289 0 Z M253 751 C251 690 220 656 166 656 C112 656 80 690 78 751 L-8 751 C-8 632 78 574 166 574 C255 574 339 632 339 751 L253 751 Z " />
<glyph glyph-name="Iogonek" unicode="Į" horiz-adv-x="317" d="M217 -114 C200 -120 181 -124 159 -124 C112 -124 100 -109 100 -87 C100 -43 172 -23 236 0 L288 0 L288 91 L236 104 L236 606 L288 619 L288 710 L29 710 L29 619 L81 606 L81 104 L29 91 L29 0 L162 0 C62 -22 -17 -55 -17 -135 C-17 -215 65 -240 143 -240 C192 -240 235 -231 266 -212 L217 -114 Z " />
<glyph glyph-name="iogonek" unicode="į" horiz-adv-x="291" d="M198 -114 C181 -120 162 -124 140 -124 C93 -124 81 -109 81 -87 C81 -43 153 -23 217 0 L269 0 L269 91 L217 104 L217 526 L23 526 L23 435 L75 422 L75 104 L23 91 L23 0 L143 0 C43 -22 -36 -55 -36 -135 C-36 -215 46 -240 124 -240 C173 -240 216 -231 247 -212 L198 -114 Z M217 590 L217 719 L75 719 L75 590 L217 590 Z " />
<glyph glyph-name="Idotaccent" unicode="İ" horiz-adv-x="317" d="M288 0 L288 91 L236 104 L236 606 L288 619 L288 710 L29 710 L29 619 L81 606 L81 104 L29 91 L29 0 L288 0 Z M229 774 L229 903 L87 903 L87 774 L229 774 Z " />
<glyph glyph-name="dotlessi" unicode="ı" horiz-adv-x="291" d="M269 0 L269 91 L217 104 L217 526 L23 526 L23 435 L75 422 L75 104 L23 91 L23 0 L269 0 Z " />
<glyph glyph-name="IJ" unicode="Ĳ" horiz-adv-x="645" d="M288 0 L288 91 L236 104 L236 606 L288 619 L288 710 L29 710 L29 619 L81 606 L81 104 L29 91 L29 0 L288 0 Z M255 -152 C279 -182 318 -206 381 -206 C521 -206 569 -114 569 40 L569 606 L616 618 L616 710 L358 710 L358 618 L416 606 L416 35 C416 -24 405 -87 332 -87 C304 -87 284 -78 265 -61 L255 -152 Z " />
<glyph glyph-name="ij" unicode="ĳ" horiz-adv-x="537" d="M269 0 L269 91 L217 104 L217 526 L23 526 L23 435 L75 422 L75 104 L23 91 L23 0 L269 0 Z M217 590 L217 719 L75 719 L75 590 L217 590 Z M213 -190 C238 -222 279 -240 335 -240 C455 -240 499 -156 499 -16 L499 526 L303 526 L303 434 L357 422 L357 -16 C357 -68 347 -126 283 -126 C259 -126 243 -120 225 -105 L213 -190 Z M498 590 L498 719 L356 719 L356 590 L498 590 Z " />
<glyph glyph-name="Jcircumflex" unicode="Ĵ" horiz-adv-x="328" d="M-62 -152 C-38 -182 1 -206 64 -206 C204 -206 252 -114 252 40 L252 606 L299 618 L299 710 L41 710 L41 618 L99 606 L99 35 C99 -24 88 -87 15 -87 C-13 -87 -33 -78 -52 -61 L-62 -152 Z M353 763 L210 939 L100 939 L-44 763 L63 763 L155 877 L246 763 L353 763 Z " />
<glyph glyph-name="jcircumflex" unicode="ĵ" horiz-adv-x="340" d="M-30 -190 C-5 -222 36 -240 92 -240 C212 -240 256 -156 256 -16 L256 526 L60 526 L60 434 L114 422 L114 -16 C114 -68 104 -126 40 -126 C16 -126 0 -120 -18 -105 L-30 -190 Z M360 579 L217 755 L107 755 L-37 579 L70 579 L162 693 L253 579 L360 579 Z " />
<glyph glyph-name="Kcommaaccent" unicode="Ķ" horiz-adv-x="650" d="M628 0 L628 83 L572 104 L370 423 L541 601 L605 619 L605 710 L377 710 L377 619 L423 606 L233 404 L233 606 L281 619 L281 710 L29 710 L29 619 L81 606 L81 104 L29 91 L29 0 L281 0 L281 91 L233 104 L233 371 L449 0 L628 0 Z M322 -240 C356 -211 386 -172 396 -135 L396 -29 L274 -29 L274 -135 L334 -135 C321 -160 301 -185 280 -203 L322 -240 Z " />
<glyph glyph-name="kcommaaccent" unicode="ķ" horiz-adv-x="570" d="M555 0 L555 91 L501 104 L347 302 L471 424 L527 435 L527 526 L315 526 L315 435 L364 424 L217 268 L217 719 L23 719 L23 628 L75 615 L75 104 L23 91 L23 0 L258 0 L258 91 L217 104 L217 241 L389 0 L555 0 Z M282 -240 C316 -211 346 -172 356 -135 L356 -29 L234 -29 L234 -135 L294 -135 C281 -160 261 -185 240 -203 L282 -240 Z " />
<glyph glyph-name="Lacute" unicode="Ĺ" horiz-adv-x="539" d="M512 0 L512 280 L424 280 L410 119 L236 119 L236 606 L289 619 L289 710 L29 710 L29 619 L81 606 L81 104 L29 92 L29 0 L512 0 Z M170 764 L297 950 L162 950 L82 764 L170 764 Z " />
<glyph glyph-name="lacute" unicode="ĺ" horiz-adv-x="291" d="M269 0 L269 91 L217 104 L217 719 L23 719 L23 628 L75 615 L75 104 L23 91 L23 0 L269 0 Z M156 764 L283 950 L148 950 L68 764 L156 764 Z " />
<glyph glyph-name="Lcommaaccent" unicode="Ļ" horiz-adv-x="539" d="M512 0 L512 280 L424 280 L410 119 L236 119 L236 606 L289 619 L289 710 L29 710 L29 619 L81 606 L81 104 L29 92 L29 0 L512 0 Z M276 -240 C310 -211 340 -172 350 -135 L350 -29 L228 -29 L228 -135 L288 -135 C275 -160 255 -185 234 -203 L276 -240 Z " />
<glyph glyph-name="lcommaaccent" unicode="ļ" horiz-adv-x="291" d="M269 0 L269 91 L217 104 L217 719 L23 719 L23 628 L75 615 L75 104 L23 91 L23 0 L269 0 Z M132 -240 C166 -211 196 -172 206 -135 L206 -29 L84 -29 L84 -135 L144 -135 C131 -160 111 -185 90 -203 L132 -240 Z " />
<glyph glyph-name="Lcaron" unicode="Ľ" horiz-adv-x="539" d="M512 0 L512 280 L424 280 L410 119 L236 119 L236 606 L289 619 L289 710 L29 710 L29 619 L81 606 L81 104 L29 92 L29 0 L512 0 Z M381 419 C422 454 459 504 476 550 L476 719 L324 719 L324 557 L407 557 C391 522 363 491 337 466 L381 419 Z " />
<glyph glyph-name="lcaron" unicode="ľ" horiz-adv-x="419" d="M269 0 L269 91 L217 104 L217 719 L23 719 L23 628 L75 615 L75 104 L23 91 L23 0 L269 0 Z M324 419 C365 454 402 504 419 550 L419 719 L267 719 L267 557 L350 557 C334 522 306 491 280 466 L324 419 Z " />
<glyph glyph-name="Ldot" unicode="Ŀ" horiz-adv-x="539" d="M512 0 L512 280 L424 280 L410 119 L236 119 L236 606 L289 619 L289 710 L29 710 L29 619 L81 606 L81 104 L29 92 L29 0 L512 0 Z M408 320 L408 449 L266 449 L266 320 L408 320 Z " />
<glyph glyph-name="ldot" unicode="ŀ" horiz-adv-x="411" d="M269 0 L269 91 L217 104 L217 719 L23 719 L23 628 L75 615 L75 104 L23 91 L23 0 L269 0 Z M411 300 L411 429 L269 429 L269 300 L411 300 Z " />
<glyph glyph-name="Lslash" unicode="Ł" horiz-adv-x="539" d="M512 0 L512 280 L429 280 L415 119 L236 119 L236 309 L411 398 L411 496 L236 409 L236 606 L289 619 L289 710 L29 710 L29 619 L81 606 L81 104 L29 91 L29 0 L512 0 Z " />
<glyph glyph-name="lslash" unicode="ł" horiz-adv-x="303" d="M277 0 L277 91 L224 104 L224 345 L284 373 L284 471 L224 443 L224 719 L30 719 L30 628 L83 615 L83 378 L23 351 L23 254 L83 281 L83 104 L30 91 L30 0 L277 0 Z " />
<glyph glyph-name="Nacute" unicode="Ń" horiz-adv-x="671" d="M595 0 L595 606 L645 619 L645 710 L425 710 L425 619 L473 606 L473 260 L259 710 L29 710 L29 619 L81 606 L81 104 L29 91 L29 0 L260 0 L260 91 L203 104 L203 491 L464 0 L595 0 Z M346 764 L473 950 L338 950 L258 764 L346 764 Z " />
<glyph glyph-name="nacute" unicode="ń" horiz-adv-x="634" d="M612 0 L612 91 L560 104 L560 396 C560 493 510 540 407 540 C316 540 265 519 208 467 L205 526 L23 526 L23 435 L75 422 L75 104 L23 91 L23 0 L266 0 L266 91 L217 104 L217 382 C254 417 298 427 348 427 C391 427 418 411 418 366 L418 104 L369 91 L369 0 L612 0 Z M327 580 L454 766 L319 766 L239 580 L327 580 Z " />
<glyph glyph-name="Ncommaaccent" unicode="Ņ" horiz-adv-x="671" d="M595 0 L595 606 L645 619 L645 710 L425 710 L425 619 L473 606 L473 260 L259 710 L29 710 L29 619 L81 606 L81 104 L29 91 L29 0 L260 0 L260 91 L203 104 L203 491 L464 0 L595 0 Z M332 -240 C366 -211 396 -172 406 -135 L406 -29 L284 -29 L284 -135 L344 -135 C331 -160 311 -185 290 -203 L332 -240 Z " />
<glyph glyph-name="ncommaaccent" unicode="ņ" horiz-adv-x="634" d="M612 0 L612 91 L560 104 L560 396 C560 493 510 540 407 540 C316 540 265 519 208 467 L205 526 L23 526 L23 435 L75 422 L75 104 L23 91 L23 0 L266 0 L266 91 L217 104 L217 382 C254 417 298 427 348 427 C391 427 418 411 418 366 L418 104 L369 91 L369 0 L612 0 Z M304 -240 C338 -211 368 -172 378 -135 L378 -29 L256 -29 L256 -135 L316 -135 C303 -160 283 -185 262 -203 L304 -240 Z " />
<glyph glyph-name="Ncaron" unicode="Ň" horiz-adv-x="671" d="M595 0 L595 606 L645 619 L645 710 L425 710 L425 619 L473 606 L473 260 L259 710 L29 710 L29 619 L81 606 L81 104 L29 91 L29 0 L260 0 L260 91 L203 104 L203 491 L464 0 L595 0 Z M390 763 L534 939 L426 939 L335 826 L244 939 L136 939 L280 763 L390 763 Z " />
<glyph glyph-name="ncaron" unicode="ň" horiz-adv-x="634" d="M612 0 L612 91 L560 104 L560 396 C560 493 510 540 407 540 C316 540 265 519 208 467 L205 526 L23 526 L23 435 L75 422 L75 104 L23 91 L23 0 L266 0 L266 91 L217 104 L217 382 C254 417 298 427 348 427 C391 427 418 411 418 366 L418 104 L369 91 L369 0 L612 0 Z M372 579 L516 755 L408 755 L317 642 L226 755 L118 755 L262 579 L372 579 Z " />
<glyph glyph-name="Eng" unicode="Ŋ" horiz-adv-x="671" d="M318 -190 C343 -222 384 -240 440 -240 C560 -240 595 -156 595 -16 L595 606 L645 619 L645 710 L425 710 L425 619 L473 606 L473 260 L259 710 L29 710 L29 619 L81 606 L81 104 L29 91 L29 0 L260 0 L260 91 L203 104 L203 491 L462 -2 C462 -68 452 -126 388 -126 C364 -126 348 -120 330 -105 L318 -190 Z " />
<glyph glyph-name="eng" unicode="ŋ" horiz-adv-x="634" d="M274 -190 C299 -222 340 -240 396 -240 C516 -240 560 -156 560 -16 L560 396 C560 493 510 540 407 540 C316 540 265 519 208 467 L205 526 L23 526 L23 435 L75 422 L75 104 L23 91 L23 0 L266 0 L266 91 L217 104 L217 382 C254 417 298 427 348 427 C391 427 418 411 418 366 L418 -16 C418 -68 408 -126 344 -126 C320 -126 304 -120 286 -105 L274 -190 Z " />
<glyph glyph-name="Omacron" unicode="Ō" horiz-adv-x="611" d="M582 426 C582 635 493 728 305 728 C117 728 29 635 29 426 L29 284 C29 75 117 -18 305 -18 C493 -18 582 75 582 284 L582 426 Z M426 284 C426 134 391 94 305 94 C220 94 184 134 184 284 L184 426 C184 574 220 616 305 616 C391 616 426 574 426 426 L426 284 Z M478 769 L478 864 L133 864 L133 769 L478 769 Z " />
<glyph glyph-name="omacron" unicode="ō" horiz-adv-x="525" d="M500 315 C500 471 428 540 262 540 C97 540 25 471 25 315 L25 208 C25 51 97 -18 262 -18 C428 -18 500 51 500 208 L500 315 Z M361 217 C361 118 338 91 262 91 C187 91 164 118 164 217 L164 306 C164 403 187 431 262 431 C338 431 361 403 361 306 L361 217 Z M435 585 L435 680 L90 680 L90 585 L435 585 Z " />
<glyph glyph-name="Obreve" unicode="Ŏ" horiz-adv-x="611" d="M582 426 C582 635 493 728 305 728 C117 728 29 635 29 426 L29 284 C29 75 117 -18 305 -18 C493 -18 582 75 582 284 L582 426 Z M426 284 C426 134 391 94 305 94 C220 94 184 134 184 284 L184 426 C184 574 220 616 305 616 C391 616 426 574 426 426 L426 284 Z M393 935 C391 874 360 840 306 840 C252 840 220 874 218 935 L132 935 C132 816 218 758 306 758 C395 758 479 816 479 935 L393 935 Z " />
<glyph glyph-name="obreve" unicode="ŏ" horiz-adv-x="525" d="M500 315 C500 471 428 540 262 540 C97 540 25 471 25 315 L25 208 C25 51 97 -18 262 -18 C428 -18 500 51 500 208 L500 315 Z M361 217 C361 118 338 91 262 91 C187 91 164 118 164 217 L164 306 C164 403 187 431 262 431 C338 431 361 403 361 306 L361 217 Z M350 751 C348 690 317 656 263 656 C209 656 177 690 175 751 L89 751 C89 632 175 574 263 574 C352 574 436 632 436 751 L350 751 Z " />
<glyph glyph-name="Ohungarumlaut" unicode="Ő" horiz-adv-x="611" d="M582 426 C582 635 493 728 305 728 C117 728 29 635 29 426 L29 284 C29 75 117 -18 305 -18 C493 -18 582 75 582 284 L582 426 Z M426 284 C426 134 391 94 305 94 C220 94 184 134 184 284 L184 426 C184 574 220 616 305 616 C391 616 426 574 426 426 L426 284 Z M217 764 L344 950 L209 950 L129 764 L217 764 Z M415 764 L542 950 L406 950 L327 764 L415 764 Z " />
<glyph glyph-name="ohungarumlaut" unicode="ő" horiz-adv-x="525" d="M500 315 C500 471 428 540 262 540 C97 540 25 471 25 315 L25 208 C25 51 97 -18 262 -18 C428 -18 500 51 500 208 L500 315 Z M361 217 C361 118 338 91 262 91 C187 91 164 118 164 217 L164 306 C164 403 187 431 262 431 C338 431 361 403 361 306 L361 217 Z M174 580 L301 766 L166 766 L86 580 L174 580 Z M372 580 L499 766 L363 766 L284 580 L372 580 Z " />
<glyph glyph-name="OE" unicode="Œ" horiz-adv-x="885" d="M852 0 L852 219 L766 219 L747 116 L557 116 L557 318 L712 318 L725 263 L798 263 L798 474 L725 474 L712 419 L557 419 L557 600 L746 600 L759 513 L846 513 L846 710 L283 710 C102 710 29 636 29 441 L29 269 C29 74 102 0 283 0 L852 0 Z M405 108 L283 108 C218 108 184 147 184 264 L184 446 C184 564 216 602 283 602 L405 602 L405 108 Z " />
<glyph glyph-name="oe" unicode="œ" horiz-adv-x="845" d="M817 223 L817 290 C817 454 779 540 594 540 C512 540 461 519 431 478 C398 519 342 539 259 539 C95 539 24 469 24 315 L24 208 C24 51 96 -18 262 -18 C350 -18 406 3 438 49 C470 7 525 -18 606 -18 C717 -18 781 16 812 71 L763 153 C738 110 699 93 625 93 C540 93 501 142 500 223 L817 223 Z M361 217 C361 118 337 91 262 91 C187 91 163 118 163 217 L163 305 C163 402 187 431 262 431 C337 431 361 402 361 305 L361 217 Z M500 313 C500 389 513 443 596 443 C680 443 689 388 689 313 L500 313 Z " />
<glyph glyph-name="Racute" unicode="Ŕ" horiz-adv-x="646" d="M624 0 L624 91 L573 104 L573 203 C573 315 530 345 475 360 C526 377 559 410 559 509 L559 544 C559 643 513 710 379 710 L29 710 L29 619 L81 606 L81 104 L29 91 L29 0 L282 0 L282 91 L230 104 L230 309 L353 309 C401 309 421 282 421 225 L421 82 C421 22 438 0 502 0 L624 0 Z M415 499 C415 435 393 405 347 405 L230 405 L230 600 L344 600 C394 600 415 566 415 504 L415 499 Z M313 764 L440 950 L305 950 L225 764 L313 764 Z " />
<glyph glyph-name="racute" unicode="ŕ" horiz-adv-x="409" d="M275 0 L275 91 L217 104 L217 360 C257 396 299 408 346 408 C362 408 374 407 389 404 L407 538 C401 539 387 540 375 540 C298 540 244 512 205 465 L200 526 L23 526 L23 435 L75 422 L75 104 L23 91 L23 0 L275 0 Z M215 580 L342 766 L207 766 L127 580 L215 580 Z " />
<glyph glyph-name="Rcommaaccent" unicode="Ŗ" horiz-adv-x="646" d="M624 0 L624 91 L573 104 L573 203 C573 315 530 345 475 360 C526 377 559 410 559 509 L559 544 C559 643 513 710 379 710 L29 710 L29 619 L81 606 L81 104 L29 91 L29 0 L282 0 L282 91 L230 104 L230 309 L353 309 C401 309 421 282 421 225 L421 82 C421 22 438 0 502 0 L624 0 Z M415 499 C415 435 393 405 347 405 L230 405 L230 600 L344 600 C394 600 415 566 415 504 L415 499 Z M320 -240 C354 -211 384 -172 394 -135 L394 -29 L272 -29 L272 -135 L332 -135 C319 -160 299 -185 278 -203 L320 -240 Z " />
<glyph glyph-name="rcommaaccent" unicode="ŗ" horiz-adv-x="409" d="M275 0 L275 91 L217 104 L217 360 C257 396 299 408 346 408 C362 408 374 407 389 404 L407 538 C401 539 387 540 375 540 C298 540 244 512 205 465 L200 526 L23 526 L23 435 L75 422 L75 104 L23 91 L23 0 L275 0 Z M141 -240 C175 -211 205 -172 215 -135 L215 -29 L93 -29 L93 -135 L153 -135 C140 -160 120 -185 99 -203 L141 -240 Z " />
<glyph glyph-name="Rcaron" unicode="Ř" horiz-adv-x="646" d="M624 0 L624 91 L573 104 L573 203 C573 315 530 345 475 360 C526 377 559 410 559 509 L559 544 C559 643 513 710 379 710 L29 710 L29 619 L81 606 L81 104 L29 91 L29 0 L282 0 L282 91 L230 104 L230 309 L353 309 C401 309 421 282 421 225 L421 82 C421 22 438 0 502 0 L624 0 Z M415 499 C415 435 393 405 347 405 L230 405 L230 600 L344 600 C394 600 415 566 415 504 L415 499 Z M348 763 L492 939 L384 939 L293 826 L202 939 L94 939 L238 763 L348 763 Z " />
<glyph glyph-name="rcaron" unicode="ř" horiz-adv-x="409" d="M275 0 L275 91 L217 104 L217 360 C257 396 299 408 346 408 C362 408 374 407 389 404 L407 538 C401 539 387 540 375 540 C298 540 244 512 205 465 L200 526 L23 526 L23 435 L75 422 L75 104 L23 91 L23 0 L275 0 Z M260 579 L404 755 L296 755 L205 642 L114 755 L6 755 L150 579 L260 579 Z " />
<glyph glyph-name="Sacute" unicode="Ś" horiz-adv-x="553" d="M523 247 C523 377 442 403 330 428 C202 456 172 465 172 526 L172 541 C172 609 216 629 276 629 C317 629 348 623 374 605 L383 512 L497 512 L497 662 C448 708 377 728 276 728 C96 728 25 661 25 528 L25 488 C25 343 126 324 233 300 C359 272 379 259 379 206 L379 177 C379 126 343 93 259 93 C216 93 180 102 149 127 L143 198 L30 198 L30 51 C94 0 180 -18 262 -18 C432 -18 523 43 523 199 L523 247 Z M287 764 L414 950 L279 950 L199 764 L287 764 Z " />
<glyph glyph-name="sacute" unicode="ś" horiz-adv-x="492" d="M472 174 C472 283 399 302 228 327 C166 336 149 350 149 385 C149 436 176 444 253 444 C285 444 309 441 331 432 L341 360 L445 360 L445 496 C403 526 341 540 248 540 C125 540 24 508 24 393 L24 356 C24 259 77 236 180 218 C252 205 281 206 306 197 C326 189 340 178 340 143 C340 94 303 84 233 84 C200 84 170 92 143 107 L134 172 L29 172 L29 36 C75 5 146 -18 242 -18 C379 -18 472 19 472 129 L472 174 Z M256 580 L383 766 L248 766 L168 580 L256 580 Z " />
<glyph glyph-name="Scircumflex" unicode="Ŝ" horiz-adv-x="553" d="M523 247 C523 377 442 403 330 428 C202 456 172 465 172 526 L172 541 C172 609 216 629 276 629 C317 629 348 623 374 605 L383 512 L497 512 L497 662 C448 708 377 728 276 728 C96 728 25 661 25 528 L25 488 C25 343 126 324 233 300 C359 272 379 259 379 206 L379 177 C379 126 343 93 259 93 C216 93 180 102 149 127 L143 198 L30 198 L30 51 C94 0 180 -18 262 -18 C432 -18 523 43 523 199 L523 247 Z M475 763 L332 939 L222 939 L78 763 L185 763 L277 877 L368 763 L475 763 Z " />
<glyph glyph-name="scircumflex" unicode="ŝ" horiz-adv-x="492" d="M472 174 C472 283 399 302 228 327 C166 336 149 350 149 385 C149 436 176 444 253 444 C285 444 309 441 331 432 L341 360 L445 360 L445 496 C403 526 341 540 248 540 C125 540 24 508 24 393 L24 356 C24 259 77 236 180 218 C252 205 281 206 306 197 C326 189 340 178 340 143 C340 94 303 84 233 84 C200 84 170 92 143 107 L134 172 L29 172 L29 36 C75 5 146 -18 242 -18 C379 -18 472 19 472 129 L472 174 Z M444 579 L301 755 L191 755 L47 579 L154 579 L246 693 L337 579 L444 579 Z " />
<glyph glyph-name="Scedilla" unicode="Ş" horiz-adv-x="553" d="M523 247 C523 377 442 403 330 428 C202 456 172 465 172 526 L172 541 C172 609 216 629 276 629 C317 629 348 623 374 605 L383 512 L497 512 L497 662 C448 708 377 728 276 728 C96 728 25 661 25 528 L25 488 C25 343 126 324 233 300 C359 272 379 259 379 206 L379 177 C379 126 343 93 259 93 C216 93 180 102 149 127 L143 198 L30 198 L30 51 C94 0 180 -18 262 -18 C432 -18 523 43 523 199 L523 247 Z M263 -240 C297 -211 327 -172 337 -135 L337 -29 L215 -29 L215 -135 L275 -135 C262 -160 242 -185 221 -203 L263 -240 Z " />
<glyph glyph-name="scedilla" unicode="ş" horiz-adv-x="492" d="M472 174 C472 283 399 302 228 327 C166 336 149 350 149 385 C149 436 176 444 253 444 C285 444 309 441 331 432 L341 360 L445 360 L445 496 C403 526 341 540 248 540 C125 540 24 508 24 393 L24 356 C24 259 77 236 180 218 C252 205 281 206 306 197 C326 189 340 178 340 143 C340 94 303 84 233 84 C200 84 170 92 143 107 L134 172 L29 172 L29 36 C75 5 146 -18 242 -18 C379 -18 472 19 472 129 L472 174 Z M233 -240 C267 -211 297 -172 307 -135 L307 -29 L185 -29 L185 -135 L245 -135 C232 -160 212 -185 191 -203 L233 -240 Z " />
<glyph glyph-name="Scaron" unicode="Š" horiz-adv-x="553" d="M523 247 C523 377 442 403 330 428 C202 456 172 465 172 526 L172 541 C172 609 216 629 276 629 C317 629 348 623 374 605 L383 512 L497 512 L497 662 C448 708 377 728 276 728 C96 728 25 661 25 528 L25 488 C25 343 126 324 233 300 C359 272 379 259 379 206 L379 177 C379 126 343 93 259 93 C216 93 180 102 149 127 L143 198 L30 198 L30 51 C94 0 180 -18 262 -18 C432 -18 523 43 523 199 L523 247 Z M331 763 L475 939 L367 939 L276 826 L185 939 L77 939 L221 763 L331 763 Z " />
<glyph glyph-name="scaron" unicode="š" horiz-adv-x="492" d="M472 174 C472 283 399 302 228 327 C166 336 149 350 149 385 C149 436 176 444 253 444 C285 444 309 441 331 432 L341 360 L445 360 L445 496 C403 526 341 540 248 540 C125 540 24 508 24 393 L24 356 C24 259 77 236 180 218 C252 205 281 206 306 197 C326 189 340 178 340 143 C340 94 303 84 233 84 C200 84 170 92 143 107 L134 172 L29 172 L29 36 C75 5 146 -18 242 -18 C379 -18 472 19 472 129 L472 174 Z M301 579 L445 755 L337 755 L246 642 L155 755 L47 755 L191 579 L301 579 Z " />
<glyph glyph-name="Tcommaaccent" unicode="Ţ" horiz-adv-x="588" d="M429 0 L429 91 L371 104 L371 596 L467 596 L481 430 L569 430 L569 710 L19 710 L19 430 L106 430 L120 596 L217 596 L217 104 L158 91 L158 0 L429 0 Z M281 -240 C315 -211 345 -172 355 -135 L355 -29 L233 -29 L233 -135 L293 -135 C280 -160 260 -185 239 -203 L281 -240 Z " />
<glyph glyph-name="tcommaaccent" unicode="ţ" horiz-adv-x="361" d="M344 115 C326 100 309 93 285 93 C228 93 210 123 210 181 L210 432 L345 432 L345 526 L210 526 L210 666 L73 642 L73 526 L16 526 L16 432 L73 432 L73 183 C73 60 115 -18 237 -18 C294 -18 331 0 356 31 L344 115 Z M197 -240 C231 -211 261 -172 271 -135 L271 -29 L149 -29 L149 -135 L209 -135 C196 -160 176 -185 155 -203 L197 -240 Z " />
<glyph glyph-name="Tcaron" unicode="Ť" horiz-adv-x="588" d="M429 0 L429 91 L371 104 L371 596 L467 596 L481 430 L569 430 L569 710 L19 710 L19 430 L106 430 L120 596 L217 596 L217 104 L158 91 L158 0 L429 0 Z M349 763 L493 939 L385 939 L294 826 L203 939 L95 939 L239 763 L349 763 Z " />
<glyph glyph-name="tcaron" unicode="ť" horiz-adv-x="506" d="M344 115 C326 100 309 93 285 93 C228 93 210 123 210 181 L210 432 L345 432 L345 526 L210 526 L210 666 L73 642 L73 526 L16 526 L16 432 L73 432 L73 183 C73 60 115 -18 237 -18 C294 -18 331 0 356 31 L344 115 Z M411 419 C452 454 489 504 506 550 L506 719 L354 719 L354 557 L437 557 C421 522 393 491 367 466 L411 419 Z " />
<glyph glyph-name="Tbar" unicode="Ŧ" horiz-adv-x="588" d="M447 257 L447 369 L371 369 L371 596 L467 596 L481 430 L569 430 L569 710 L19 710 L19 430 L106 430 L120 596 L217 596 L217 369 L141 369 L141 257 L217 257 L217 104 L158 91 L158 0 L429 0 L429 91 L371 104 L371 257 L447 257 Z " />
<glyph glyph-name="tbar" unicode="ŧ" horiz-adv-x="361" d="M313 193 L313 305 L210 305 L210 432 L345 432 L345 526 L210 526 L210 666 L73 642 L73 526 L16 526 L16 432 L73 432 L73 305 L29 305 L29 193 L73 193 L73 183 C73 60 115 -18 237 -18 C294 -18 331 0 356 31 L344 115 C326 100 309 93 285 93 C228 93 210 123 210 181 L210 193 L313 193 Z " />
<glyph glyph-name="Utilde" unicode="Ũ" horiz-adv-x="672" d="M465 224 C465 134 434 105 345 105 C260 105 227 133 227 224 L227 606 L275 619 L275 710 L24 710 L24 619 L70 606 L70 241 C70 53 130 -18 334 -18 C560 -18 602 53 602 241 L602 606 L649 619 L649 710 L417 710 L417 619 L465 606 L465 224 Z M513 892 C484 857 456 841 418 841 C364 841 319 893 251 893 C208 893 179 871 159 847 L159 756 C187 791 215 808 254 808 C305 808 350 755 421 755 C464 755 493 777 513 801 L513 892 Z " />
<glyph glyph-name="utilde" unicode="ũ" horiz-adv-x="579" d="M396 164 C396 115 373 96 300 96 C227 96 202 113 202 164 L202 422 L250 435 L250 526 L18 526 L18 435 L61 422 L61 162 C61 34 137 -18 293 -18 C449 -18 518 34 518 162 L518 422 L561 435 L561 526 L348 526 L348 435 L396 422 L396 164 Z M466 708 C437 673 409 657 371 657 C317 657 272 709 204 709 C161 709 132 687 112 663 L112 572 C140 607 168 624 207 624 C258 624 303 571 374 571 C417 571 446 593 466 617 L466 708 Z " />
<glyph glyph-name="Umacron" unicode="Ū" horiz-adv-x="672" d="M465 224 C465 134 434 105 345 105 C260 105 227 133 227 224 L227 606 L275 619 L275 710 L24 710 L24 619 L70 606 L70 241 C70 53 130 -18 334 -18 C560 -18 602 53 602 241 L602 606 L649 619 L649 710 L417 710 L417 619 L465 606 L465 224 Z M508 769 L508 864 L163 864 L163 769 L508 769 Z " />
<glyph glyph-name="umacron" unicode="ū" horiz-adv-x="579" d="M396 164 C396 115 373 96 300 96 C227 96 202 113 202 164 L202 422 L250 435 L250 526 L18 526 L18 435 L61 422 L61 162 C61 34 137 -18 293 -18 C449 -18 518 34 518 162 L518 422 L561 435 L561 526 L348 526 L348 435 L396 422 L396 164 Z M462 585 L462 680 L117 680 L117 585 L462 585 Z " />
<glyph glyph-name="Ubreve" unicode="Ŭ" horiz-adv-x="672" d="M465 224 C465 134 434 105 345 105 C260 105 227 133 227 224 L227 606 L275 619 L275 710 L24 710 L24 619 L70 606 L70 241 C70 53 130 -18 334 -18 C560 -18 602 53 602 241 L602 606 L649 619 L649 710 L417 710 L417 619 L465 606 L465 224 Z M423 935 C421 874 390 840 336 840 C282 840 250 874 248 935 L162 935 C162 816 248 758 336 758 C425 758 509 816 509 935 L423 935 Z " />
<glyph glyph-name="ubreve" unicode="ŭ" horiz-adv-x="579" d="M396 164 C396 115 373 96 300 96 C227 96 202 113 202 164 L202 422 L250 435 L250 526 L18 526 L18 435 L61 422 L61 162 C61 34 137 -18 293 -18 C449 -18 518 34 518 162 L518 422 L561 435 L561 526 L348 526 L348 435 L396 422 L396 164 Z M377 751 C375 690 344 656 290 656 C236 656 204 690 202 751 L116 751 C116 632 202 574 290 574 C379 574 463 632 463 751 L377 751 Z " />
<glyph glyph-name="Uring" unicode="Ů" horiz-adv-x="672" d="M465 224 C465 134 434 105 345 105 C260 105 227 133 227 224 L227 606 L275 619 L275 710 L24 710 L24 619 L70 606 L70 241 C70 53 130 -18 334 -18 C560 -18 602 53 602 241 L602 606 L649 619 L649 710 L417 710 L417 619 L465 606 L465 224 Z M447 847 C447 913 416 950 336 950 C260 950 224 913 224 847 C224 779 261 745 336 745 C416 745 447 779 447 847 L447 847 Z M391 847 C391 813 373 796 336 796 C301 796 283 813 283 847 C283 883 301 902 336 902 C373 902 391 883 391 847 L391 847 Z " />
<glyph glyph-name="uring" unicode="ů" horiz-adv-x="579" d="M396 164 C396 115 373 96 300 96 C227 96 202 113 202 164 L202 422 L250 435 L250 526 L18 526 L18 435 L61 422 L61 162 C61 34 137 -18 293 -18 C449 -18 518 34 518 162 L518 422 L561 435 L561 526 L348 526 L348 435 L396 422 L396 164 Z M401 663 C401 729 370 766 290 766 C214 766 178 729 178 663 C178 595 215 561 290 561 C370 561 401 595 401 663 L401 663 Z M345 663 C345 629 327 612 290 612 C255 612 237 629 237 663 C237 699 255 718 290 718 C327 718 345 699 345 663 L345 663 Z " />
<glyph glyph-name="Uhungarumlaut" unicode="Ű" horiz-adv-x="672" d="M465 224 C465 134 434 105 345 105 C260 105 227 133 227 224 L227 606 L275 619 L275 710 L24 710 L24 619 L70 606 L70 241 C70 53 130 -18 334 -18 C560 -18 602 53 602 241 L602 606 L649 619 L649 710 L417 710 L417 619 L465 606 L465 224 Z M247 764 L374 950 L239 950 L159 764 L247 764 Z M445 764 L572 950 L436 950 L357 764 L445 764 Z " />
<glyph glyph-name="uhungarumlaut" unicode="ű" horiz-adv-x="579" d="M396 164 C396 115 373 96 300 96 C227 96 202 113 202 164 L202 422 L250 435 L250 526 L18 526 L18 435 L61 422 L61 162 C61 34 137 -18 293 -18 C449 -18 518 34 518 162 L518 422 L561 435 L561 526 L348 526 L348 435 L396 422 L396 164 Z M201 580 L328 766 L193 766 L113 580 L201 580 Z M399 580 L526 766 L390 766 L311 580 L399 580 Z " />
<glyph glyph-name="Uogonek" unicode="Ų" horiz-adv-x="672" d="M428 -114 C411 -120 392 -124 370 -124 C323 -124 311 -109 311 -87 C311 -53 352 -26 404 -15 C566 21 602 74 602 241 L602 606 L649 619 L649 710 L417 710 L417 619 L465 606 L465 224 C465 134 434 105 345 105 C260 105 227 133 227 224 L227 606 L275 619 L275 710 L24 710 L24 619 L70 606 L70 241 C70 61 125 -11 307 -17 C240 -40 194 -73 194 -135 C194 -215 276 -240 354 -240 C403 -240 446 -231 477 -212 L428 -114 Z " />
<glyph glyph-name="uogonek" unicode="ų" horiz-adv-x="579" d="M362 -114 C345 -120 326 -124 304 -124 C257 -124 245 -109 245 -87 C245 -54 284 -27 334 -16 C458 11 518 46 518 162 L518 422 L561 435 L561 526 L348 526 L348 435 L396 422 L396 164 C396 115 373 96 300 96 C227 96 202 113 202 164 L202 422 L250 435 L250 526 L18 526 L18 435 L61 422 L61 162 C61 47 121 -6 246 -16 C177 -39 128 -72 128 -135 C128 -215 210 -240 288 -240 C337 -240 380 -231 411 -212 L362 -114 Z " />
<glyph glyph-name="Wcircumflex" unicode="Ŵ" horiz-adv-x="899" d="M724 0 L830 606 L878 619 L878 710 L655 710 L655 619 L702 606 L646 180 L533 710 L404 710 L285 180 L233 606 L280 619 L280 710 L21 710 L21 619 L69 606 L179 0 L345 0 L452 465 L552 0 L724 0 Z M659 763 L516 939 L406 939 L262 763 L369 763 L461 877 L552 763 L659 763 Z " />
<glyph glyph-name="wcircumflex" unicode="ŵ" horiz-adv-x="809" d="M674 0 L751 426 L793 435 L793 526 L598 526 L598 435 L639 426 L591 115 L492 526 L356 526 L248 115 L203 426 L244 435 L244 526 L16 526 L16 434 L55 425 L138 0 L313 0 L408 366 L498 0 L674 0 Z M620 579 L477 755 L367 755 L223 579 L330 579 L422 693 L513 579 L620 579 Z " />
<glyph glyph-name="Ycircumflex" unicode="Ŷ" horiz-adv-x="601" d="M436 0 L436 91 L378 104 L378 273 L535 606 L580 619 L580 710 L382 710 L382 619 L425 606 L323 382 L223 606 L266 619 L266 710 L21 710 L21 619 L65 606 L223 273 L223 104 L165 91 L165 0 L436 0 Z M509 763 L366 939 L256 939 L112 763 L219 763 L311 877 L402 763 L509 763 Z " />
<glyph glyph-name="ycircumflex" unicode="ŷ" horiz-adv-x="573" d="M220 -21 L213 -40 C196 -86 170 -116 123 -116 C87 -116 64 -105 44 -87 L8 -189 C40 -222 85 -239 138 -239 C252 -239 298 -155 340 -42 L514 425 L557 434 L557 526 L359 526 L359 434 L399 425 L299 125 L205 425 L247 434 L247 526 L14 526 L14 434 L58 425 L220 -21 Z M495 579 L352 755 L242 755 L98 579 L205 579 L297 693 L388 579 L495 579 Z " />
<glyph glyph-name="Ydieresis" unicode="Ÿ" horiz-adv-x="601" d="M436 0 L436 91 L378 104 L378 273 L535 606 L580 619 L580 710 L382 710 L382 619 L425 606 L323 382 L223 606 L266 619 L266 710 L21 710 L21 619 L65 606 L223 273 L223 104 L165 91 L165 0 L436 0 Z M254 774 L254 903 L112 903 L112 774 L254 774 Z M489 774 L489 903 L347 903 L347 774 L489 774 Z " />
<glyph glyph-name="Zacute" unicode="Ź" horiz-adv-x="552" d="M528 0 L528 280 L439 280 L421 114 L188 114 L516 602 L516 710 L25 710 L25 430 L115 430 L133 598 L341 598 L24 141 L24 0 L528 0 Z M286 764 L413 950 L278 950 L198 764 L286 764 Z " />
<glyph glyph-name="zacute" unicode="ź" horiz-adv-x="517" d="M495 0 L495 207 L393 207 L375 97 L191 97 L483 446 L483 526 L23 526 L23 344 L125 344 L137 435 L302 435 L22 105 L22 0 L495 0 Z M269 580 L396 766 L261 766 L181 580 L269 580 Z " />
<glyph glyph-name="Zdotaccent" unicode="Ż" horiz-adv-x="552" d="M528 0 L528 280 L439 280 L421 114 L188 114 L516 602 L516 710 L25 710 L25 430 L115 430 L133 598 L341 598 L24 141 L24 0 L528 0 Z M347 774 L347 903 L205 903 L205 774 L347 774 Z " />
<glyph glyph-name="zdotaccent" unicode="ż" horiz-adv-x="517" d="M495 0 L495 207 L393 207 L375 97 L191 97 L483 446 L483 526 L23 526 L23 344 L125 344 L137 435 L302 435 L22 105 L22 0 L495 0 Z M329 590 L329 719 L187 719 L187 590 L329 590 Z " />
<glyph glyph-name="Zcaron" unicode="Ž" horiz-adv-x="552" d="M528 0 L528 280 L439 280 L421 114 L188 114 L516 602 L516 710 L25 710 L25 430 L115 430 L133 598 L341 598 L24 141 L24 0 L528 0 Z M331 763 L475 939 L367 939 L276 826 L185 939 L77 939 L221 763 L331 763 Z " />
<glyph glyph-name="zcaron" unicode="ž" horiz-adv-x="517" d="M495 0 L495 207 L393 207 L375 97 L191 97 L483 446 L483 526 L23 526 L23 344 L125 344 L137 435 L302 435 L22 105 L22 0 L495 0 Z M313 579 L457 755 L349 755 L258 642 L167 755 L59 755 L203 579 L313 579 Z " />
<glyph glyph-name="florin" unicode="ƒ" horiz-adv-x="499" d="M55 -144 C207 -144 271 -101 291 35 L344 402 L447 402 L447 510 L359 510 L363 540 C368 577 390 600 436 600 L472 600 L472 719 L459 719 C300 719 233 682 211 547 L205 510 L119 510 L119 402 L188 402 L137 51 C129 -1 103 -23 47 -23 L25 -23 L25 -144 L55 -144 Z " />
<glyph glyph-name="Scommaaccent" unicode="Ș" horiz-adv-x="553" d="M523 247 C523 377 442 403 330 428 C202 456 172 465 172 526 L172 541 C172 609 216 629 276 629 C317 629 348 623 374 605 L383 512 L497 512 L497 662 C448 708 377 728 276 728 C96 728 25 661 25 528 L25 488 C25 343 126 324 233 300 C359 272 379 259 379 206 L379 177 C379 126 343 93 259 93 C216 93 180 102 149 127 L143 198 L30 198 L30 51 C94 0 180 -18 262 -18 C432 -18 523 43 523 199 L523 247 Z M263 -240 C297 -211 327 -172 337 -135 L337 -29 L215 -29 L215 -135 L275 -135 C262 -160 242 -185 221 -203 L263 -240 Z " />
<glyph glyph-name="scommaaccent" unicode="ș" horiz-adv-x="492" d="M472 174 C472 283 399 302 228 327 C166 336 149 350 149 385 C149 436 176 444 253 444 C285 444 309 441 331 432 L341 360 L445 360 L445 496 C403 526 341 540 248 540 C125 540 24 508 24 393 L24 356 C24 259 77 236 180 218 C252 205 281 206 306 197 C326 189 340 178 340 143 C340 94 303 84 233 84 C200 84 170 92 143 107 L134 172 L29 172 L29 36 C75 5 146 -18 242 -18 C379 -18 472 19 472 129 L472 174 Z M233 -240 C267 -211 297 -172 307 -135 L307 -29 L185 -29 L185 -135 L245 -135 C232 -160 212 -185 191 -203 L233 -240 Z " />
<glyph glyph-name="uni021A" unicode="Ț" horiz-adv-x="588" d="M429 0 L429 91 L371 104 L371 596 L467 596 L481 430 L569 430 L569 710 L19 710 L19 430 L106 430 L120 596 L217 596 L217 104 L158 91 L158 0 L429 0 Z M281 -240 C315 -211 345 -172 355 -135 L355 -29 L233 -29 L233 -135 L293 -135 C280 -160 260 -185 239 -203 L281 -240 Z " />
<glyph glyph-name="uni021B" unicode="ț" horiz-adv-x="361" d="M344 115 C326 100 309 93 285 93 C228 93 210 123 210 181 L210 432 L345 432 L345 526 L210 526 L210 666 L73 642 L73 526 L16 526 L16 432 L73 432 L73 183 C73 60 115 -18 237 -18 C294 -18 331 0 356 31 L344 115 Z M197 -240 C231 -211 261 -172 271 -135 L271 -29 L149 -29 L149 -135 L209 -135 C196 -160 176 -185 155 -203 L197 -240 Z " />
<glyph glyph-name="dotlessj" unicode="ȷ" horiz-adv-x="246" d="M-78 -190 C-53 -222 -12 -240 44 -240 C164 -240 208 -156 208 -16 L208 526 L12 526 L12 434 L66 422 L66 -16 C66 -68 56 -126 -8 -126 C-32 -126 -48 -120 -66 -105 L-78 -190 Z " />
<glyph glyph-name="circumflex" unicode="ˆ" horiz-adv-x="455" d="M426 579 L283 755 L173 755 L29 579 L136 579 L228 693 L319 579 L426 579 Z " />
<glyph glyph-name="caron" unicode="ˇ" horiz-adv-x="455" d="M282 579 L426 755 L318 755 L227 642 L136 755 L28 755 L172 579 L282 579 Z " />
<glyph glyph-name="breve" unicode="˘" horiz-adv-x="405" d="M290 751 C288 690 257 656 203 656 C149 656 117 690 115 751 L29 751 C29 632 115 574 203 574 C292 574 376 632 376 751 L290 751 Z " />
<glyph glyph-name="dotaccent" unicode="˙" horiz-adv-x="200" d="M171 590 L171 719 L29 719 L29 590 L171 590 Z " />
<glyph glyph-name="ring" unicode="˚" horiz-adv-x="281" d="M252 663 C252 729 221 766 141 766 C65 766 29 729 29 663 C29 595 66 561 141 561 C221 561 252 595 252 663 L252 663 Z M196 663 C196 629 178 612 141 612 C106 612 88 629 88 663 C88 699 106 718 141 718 C178 718 196 699 196 663 L196 663 Z " />
<glyph glyph-name="ogonek" unicode="˛" horiz-adv-x="285" d="M263 -114 C246 -120 227 -124 205 -124 C158 -124 146 -109 146 -87 C146 -43 218 -23 282 0 L208 0 C108 -22 29 -55 29 -135 C29 -215 111 -240 189 -240 C238 -240 281 -231 312 -212 L263 -114 Z " />
<glyph glyph-name="tilde" unicode="˜" horiz-adv-x="411" d="M382 708 C353 673 325 657 287 657 C233 657 188 709 120 709 C77 709 48 687 28 663 L28 572 C56 607 84 624 123 624 C174 624 219 571 290 571 C333 571 362 593 382 617 L382 708 Z " />
<glyph glyph-name="hungarumlaut" unicode="˝" horiz-adv-x="471" d="M117 580 L244 766 L109 766 L29 580 L117 580 Z M315 580 L442 766 L306 766 L227 580 L315 580 Z " />
<glyph glyph-name="pi" unicode="π" horiz-adv-x="673" d="M652 115 C633 99 619 92 595 92 C543 92 526 122 526 167 L526 422 L601 434 L601 526 L22 526 L22 434 L75 422 L75 103 L22 91 L22 0 L269 0 L269 91 L217 103 L217 419 L389 419 L389 189 C389 64 422 -18 546 -18 C604 -18 639 0 664 31 L652 115 Z " />
<glyph glyph-name="Wgrave" unicode="Ẁ" horiz-adv-x="899" d="M724 0 L830 606 L878 619 L878 710 L655 710 L655 619 L702 606 L646 180 L533 710 L404 710 L285 180 L233 606 L280 619 L280 710 L21 710 L21 619 L69 606 L179 0 L345 0 L452 465 L552 0 L724 0 Z M537 764 L459 950 L322 950 L449 764 L537 764 Z " />
<glyph glyph-name="wgrave" unicode="ẁ" horiz-adv-x="809" d="M674 0 L751 426 L793 435 L793 526 L598 526 L598 435 L639 426 L591 115 L492 526 L356 526 L248 115 L203 426 L244 435 L244 526 L16 526 L16 434 L55 425 L138 0 L313 0 L408 366 L498 0 L674 0 Z M492 580 L414 766 L277 766 L404 580 L492 580 Z " />
<glyph glyph-name="Wacute" unicode="Ẃ" horiz-adv-x="899" d="M724 0 L830 606 L878 619 L878 710 L655 710 L655 619 L702 606 L646 180 L533 710 L404 710 L285 180 L233 606 L280 619 L280 710 L21 710 L21 619 L69 606 L179 0 L345 0 L452 465 L552 0 L724 0 Z M470 764 L597 950 L462 950 L382 764 L470 764 Z " />
<glyph glyph-name="wacute" unicode="ẃ" horiz-adv-x="809" d="M674 0 L751 426 L793 435 L793 526 L598 526 L598 435 L639 426 L591 115 L492 526 L356 526 L248 115 L203 426 L244 435 L244 526 L16 526 L16 434 L55 425 L138 0 L313 0 L408 366 L498 0 L674 0 Z M425 580 L552 766 L417 766 L337 580 L425 580 Z " />
<glyph glyph-name="Wdieresis" unicode="Ẅ" horiz-adv-x="899" d="M724 0 L830 606 L878 619 L878 710 L655 710 L655 619 L702 606 L646 180 L533 710 L404 710 L285 180 L233 606 L280 619 L280 710 L21 710 L21 619 L69 606 L179 0 L345 0 L452 465 L552 0 L724 0 Z M419 774 L419 903 L277 903 L277 774 L419 774 Z M654 774 L654 903 L512 903 L512 774 L654 774 Z " />
<glyph glyph-name="wdieresis" unicode="ẅ" horiz-adv-x="809" d="M674 0 L751 426 L793 435 L793 526 L598 526 L598 435 L639 426 L591 115 L492 526 L356 526 L248 115 L203 426 L244 435 L244 526 L16 526 L16 434 L55 425 L138 0 L313 0 L408 366 L498 0 L674 0 Z M373 590 L373 719 L231 719 L231 590 L373 590 Z M608 590 L608 719 L466 719 L466 590 L608 590 Z " />
<glyph glyph-name="Ygrave" unicode="Ỳ" horiz-adv-x="601" d="M436 0 L436 91 L378 104 L378 273 L535 606 L580 619 L580 710 L382 710 L382 619 L425 606 L323 382 L223 606 L266 619 L266 710 L21 710 L21 619 L65 606 L223 273 L223 104 L165 91 L165 0 L436 0 Z M391 764 L313 950 L176 950 L303 764 L391 764 Z " />
<glyph glyph-name="ygrave" unicode="ỳ" horiz-adv-x="573" d="M220 -21 L213 -40 C196 -86 170 -116 123 -116 C87 -116 64 -105 44 -87 L8 -189 C40 -222 85 -239 138 -239 C252 -239 298 -155 340 -42 L514 425 L557 434 L557 526 L359 526 L359 434 L399 425 L299 125 L205 425 L247 434 L247 526 L14 526 L14 434 L58 425 L220 -21 Z M374 580 L296 766 L159 766 L286 580 L374 580 Z " />
<glyph glyph-name="endash" unicode="–" horiz-adv-x="536" d="M508 273 L508 385 L29 385 L29 273 L508 273 Z " />
<glyph glyph-name="emdash" unicode="—" horiz-adv-x="736" d="M707 273 L707 385 L29 385 L29 273 L707 273 Z " />
<glyph glyph-name="quoteleft" unicode="‘" horiz-adv-x="214" d="M170 466 C144 491 116 522 100 557 L184 557 L184 719 L32 719 L32 550 C48 504 85 454 126 419 L170 466 Z " />
<glyph glyph-name="quoteright" unicode="’" horiz-adv-x="214" d="M89 419 C130 454 167 504 184 550 L184 719 L32 719 L32 557 L115 557 C99 522 71 491 45 466 L89 419 Z " />
<glyph glyph-name="quotesinglbase" unicode="‚" horiz-adv-x="214" d="M89 -137 C130 -103 167 -53 184 -7 L184 162 L32 162 L32 0 L115 0 C99 -34 71 -66 45 -91 L89 -137 Z " />
<glyph glyph-name="quotedblleft" unicode="“" horiz-adv-x="428" d="M170 466 C144 491 116 522 100 557 L184 557 L184 719 L32 719 L32 550 C48 504 85 454 126 419 L170 466 Z M384 466 C358 491 330 522 314 557 L398 557 L398 719 L246 719 L246 550 C262 504 299 454 340 419 L384 466 Z " />
<glyph glyph-name="quotedblright" unicode="”" horiz-adv-x="428" d="M89 419 C130 454 167 504 184 550 L184 719 L32 719 L32 557 L115 557 C99 522 71 491 45 466 L89 419 Z M303 419 C344 454 381 504 398 550 L398 719 L246 719 L246 557 L329 557 C313 522 285 491 259 466 L303 419 Z " />
<glyph glyph-name="quotedblbase" unicode="„" horiz-adv-x="428" d="M89 -137 C130 -103 167 -53 184 -7 L184 162 L32 162 L32 0 L115 0 C99 -34 71 -66 45 -91 L89 -137 Z M303 -137 C344 -103 381 -53 398 -7 L398 162 L246 162 L246 0 L329 0 C313 -34 285 -66 259 -91 L303 -137 Z " />
<glyph glyph-name="dagger" unicode="†" horiz-adv-x="431" d="M273 0 L273 463 L402 463 L402 551 L273 551 L273 710 L160 710 L160 551 L29 551 L29 463 L160 463 L160 0 L273 0 Z " />
<glyph glyph-name="daggerdbl" unicode="‡" horiz-adv-x="431" d="M273 0 L273 159 L402 159 L402 247 L273 247 L273 462 L402 462 L402 551 L273 551 L273 710 L159 710 L159 551 L28 551 L28 462 L159 462 L159 247 L28 247 L28 159 L159 159 L159 0 L273 0 Z " />
<glyph glyph-name="bullet" unicode="•" horiz-adv-x="368" d="M339 367 C339 456 286 519 184 519 C84 519 29 456 29 367 C29 281 84 216 184 216 C286 216 339 281 339 367 L339 367 Z " />
<glyph glyph-name="ellipsis" unicode="…" horiz-adv-x="1060" d="M182 0 L182 162 L30 162 L30 0 L182 0 Z M606 0 L606 162 L454 162 L454 0 L606 0 Z M1030 0 L1030 162 L878 162 L878 0 L1030 0 Z " />
<glyph glyph-name="perthousand" unicode="‰" horiz-adv-x="934" d="M278 597 C278 697 229 729 152 729 C75 729 26 697 26 597 L26 487 C26 387 75 356 152 356 C229 356 278 387 278 487 L278 597 Z M194 475 C194 435 173 426 152 426 C131 426 110 435 110 475 L110 610 C110 649 132 658 152 658 C173 658 194 649 194 610 L194 475 Z M158 -21 L578 732 L484 732 L66 -21 L158 -21 Z M618 222 C618 322 569 354 492 354 C415 354 366 322 366 222 L366 112 C366 12 415 -19 492 -19 C569 -19 618 12 618 112 L618 222 Z M534 100 C534 60 513 51 492 51 C471 51 450 60 450 100 L450 235 C450 274 472 283 492 283 C513 283 534 274 534 235 L534 100 Z M908 222 C908 322 859 354 782 354 C705 354 656 322 656 222 L656 112 C656 12 705 -19 782 -19 C859 -19 908 12 908 112 L908 222 Z M824 100 C824 60 803 51 782 51 C761 51 740 60 740 100 L740 235 C740 274 762 283 782 283 C803 283 824 274 824 235 L824 100 Z " />
<glyph glyph-name="guilsinglleft" unicode="‹" horiz-adv-x="227" d="M200 138 L200 246 L89 337 L200 428 L200 536 L27 392 L27 282 L200 138 Z " />
<glyph glyph-name="guilsinglright" unicode="›" horiz-adv-x="227" d="M200 281 L200 391 L26 535 L26 427 L136 337 L26 245 L26 138 L200 281 Z " />
<glyph glyph-name="fraction" unicode="⁄" horiz-adv-x="190" d="M-69 -21 L351 732 L257 732 L-161 -21 L-69 -21 Z " />
<glyph glyph-name="zerosuperior" unicode="⁰" horiz-adv-x="310" d="M281 597 C281 697 232 729 155 729 C78 729 29 697 29 597 L29 487 C29 387 78 356 155 356 C232 356 281 387 281 487 L281 597 Z M197 475 C197 435 176 426 155 426 C134 426 113 435 113 475 L113 610 C113 649 135 658 155 658 C176 658 197 649 197 610 L197 475 Z " />
<glyph glyph-name="foursuperior" unicode="⁴" horiz-adv-x="309" d="M260 365 L260 426 L286 426 L286 491 L260 491 L260 605 L184 605 L184 491 L103 491 C137 554 171 630 195 701 L125 729 C96 650 62 576 23 505 L23 426 L182 426 L182 365 L260 365 Z " />
<glyph glyph-name="fivesuperior" unicode="⁵" horiz-adv-x="292" d="M26 381 C54 363 90 356 124 356 C227 356 266 393 266 478 C266 547 239 588 164 588 C139 588 121 584 108 579 L113 649 L193 649 L200 615 L249 615 L249 720 L46 720 L28 520 L81 508 C95 525 116 534 138 534 C170 534 191 519 191 482 C191 444 169 427 133 427 C98 427 72 434 49 446 L26 381 Z " />
<glyph glyph-name="sixsuperior" unicode="⁶" horiz-adv-x="300" d="M193 729 C82 716 25 620 25 513 C25 419 53 356 153 356 C232 356 276 398 276 477 C276 538 247 585 179 585 C141 585 118 570 105 554 C115 614 152 655 213 662 L193 729 Z M105 504 C117 520 135 531 155 531 C185 531 198 509 198 478 C198 446 187 422 154 422 C116 422 104 450 104 485 C104 491 105 499 105 504 L105 504 Z " />
<glyph glyph-name="sevensuperior" unicode="⁷" horiz-adv-x="284" d="M142 356 C159 456 208 562 262 655 L262 720 L24 720 L24 613 L73 613 L80 647 L184 647 C120 558 80 475 57 375 L142 356 Z " />
<glyph glyph-name="eightsuperior" unicode="⁸" horiz-adv-x="305" d="M221 556 C254 569 271 596 271 630 C271 705 222 729 155 729 C89 729 35 705 35 630 C35 592 55 563 89 547 C47 534 23 506 23 460 C23 387 81 356 154 356 C227 356 282 387 282 466 C282 513 260 539 221 556 L221 556 Z M151 523 C177 516 198 501 198 473 C198 441 182 426 152 426 C123 426 105 441 105 470 C105 499 123 520 151 523 L151 523 Z M154 566 C130 573 108 588 108 616 C108 644 123 660 153 660 C183 660 196 644 196 613 C196 588 176 573 154 566 L154 566 Z " />
<glyph glyph-name="ninesuperior" unicode="⁹" horiz-adv-x="300" d="M106 356 C218 369 275 464 275 569 C275 652 247 729 146 729 C68 729 24 686 24 607 C24 546 52 499 121 499 C158 499 181 515 195 531 C183 470 148 429 86 422 L106 356 Z M194 581 C182 565 164 555 145 555 C115 555 103 576 103 606 C103 637 114 660 146 660 C184 660 195 633 195 599 C195 594 195 586 194 581 L194 581 Z " />
<glyph glyph-name="zeroinferior" unicode="₀" horiz-adv-x="310" d="M281 222 C281 322 232 354 155 354 C78 354 29 322 29 222 L29 112 C29 12 78 -19 155 -19 C232 -19 281 12 281 112 L281 222 Z M197 100 C197 60 176 51 155 51 C134 51 113 60 113 100 L113 235 C113 274 135 283 155 283 C176 283 197 274 197 235 L197 100 Z " />
<glyph glyph-name="oneinferior" unicode="₁" horiz-adv-x="219" d="M191 -10 L191 44 L168 51 L168 345 L108 345 C81 315 51 290 16 267 L51 214 C62 219 74 227 87 236 L87 51 L59 44 L59 -10 L191 -10 Z " />
<glyph glyph-name="twoinferior" unicode="₂" horiz-adv-x="295" d="M270 -10 L270 97 L221 97 L214 63 L128 63 C220 124 267 172 267 238 C267 318 229 354 150 354 C106 354 64 345 28 324 L53 254 C74 268 104 282 131 282 C164 282 186 262 186 231 C186 165 91 104 29 67 L29 -10 L270 -10 Z " />
<glyph glyph-name="threeinferior" unicode="₃" horiz-adv-x="282" d="M24 -3 C56 -15 89 -19 125 -19 C202 -19 255 12 255 87 C255 126 238 162 203 175 C232 187 248 221 248 255 C248 317 210 354 129 354 C93 354 54 346 24 327 L46 263 C64 275 91 284 117 284 C146 284 172 272 172 236 C172 209 157 200 133 200 L97 200 L97 139 L133 139 C158 139 176 126 176 98 C176 62 149 50 117 50 C90 50 61 58 45 65 L24 -3 Z " />
<glyph glyph-name="fourinferior" unicode="₄" horiz-adv-x="309" d="M260 -10 L260 51 L286 51 L286 116 L260 116 L260 230 L184 230 L184 116 L103 116 C137 179 171 255 195 326 L125 354 C96 275 62 201 23 130 L23 51 L182 51 L182 -10 L260 -10 Z " />
<glyph glyph-name="fiveinferior" unicode="₅" horiz-adv-x="292" d="M26 6 C54 -12 90 -19 124 -19 C227 -19 266 18 266 103 C266 172 239 213 164 213 C139 213 121 209 108 204 L113 274 L193 274 L200 240 L249 240 L249 345 L46 345 L28 145 L81 133 C95 150 116 159 138 159 C170 159 191 144 191 107 C191 69 169 52 133 52 C98 52 72 59 49 71 L26 6 Z " />
<glyph glyph-name="sixinferior" unicode="₆" horiz-adv-x="300" d="M193 354 C82 341 25 245 25 138 C25 44 53 -19 153 -19 C232 -19 276 23 276 102 C276 163 247 210 179 210 C141 210 118 195 105 179 C115 239 152 280 213 287 L193 354 Z M105 129 C117 145 135 156 155 156 C185 156 198 134 198 103 C198 71 187 47 154 47 C116 47 104 75 104 110 C104 116 105 124 105 129 L105 129 Z " />
<glyph glyph-name="seveninferior" unicode="₇" horiz-adv-x="284" d="M142 -19 C159 81 208 187 262 280 L262 345 L24 345 L24 238 L73 238 L80 272 L184 272 C120 183 80 100 57 0 L142 -19 Z " />
<glyph glyph-name="eightinferior" unicode="₈" horiz-adv-x="305" d="M221 181 C254 194 271 221 271 255 C271 330 222 354 155 354 C89 354 35 330 35 255 C35 217 55 188 89 172 C47 159 23 131 23 85 C23 12 81 -19 154 -19 C227 -19 282 12 282 91 C282 138 260 164 221 181 L221 181 Z M151 148 C177 141 198 126 198 98 C198 66 182 51 152 51 C123 51 105 66 105 95 C105 124 123 145 151 148 L151 148 Z M154 191 C130 198 108 213 108 241 C108 269 123 285 153 285 C183 285 196 269 196 238 C196 213 176 198 154 191 L154 191 Z " />
<glyph glyph-name="nineinferior" unicode="₉" horiz-adv-x="300" d="M106 -19 C218 -6 275 89 275 194 C275 277 247 354 146 354 C68 354 24 311 24 232 C24 171 52 124 121 124 C158 124 181 140 195 156 C183 95 148 54 86 47 L106 -19 Z M194 206 C182 190 164 180 145 180 C115 180 103 201 103 231 C103 262 114 285 146 285 C184 285 195 258 195 224 C195 219 195 211 194 206 L194 206 Z " />
<glyph glyph-name="Euro" unicode="€" horiz-adv-x="560" d="M497 122 C460 101 413 94 359 94 C284 94 247 125 240 233 L343 233 L376 309 L238 309 L238 395 L411 395 L443 471 L239 471 C246 582 282 616 359 616 C410 616 456 609 491 589 L534 689 C487 716 427 728 359 728 C185 728 97 648 84 471 L27 471 L12 395 L83 395 L83 309 L27 309 L12 233 L85 233 C98 60 187 -18 359 -18 C436 -18 502 -2 551 31 L497 122 Z " />
<glyph glyph-name="uni2117" unicode="℗" horiz-adv-x="632" d="M603 454 C603 654 511 728 316 728 C121 728 29 654 29 454 L29 256 C29 56 121 -18 316 -18 C511 -18 603 56 603 256 L603 454 Z M531 256 C531 109 461 54 316 54 C171 54 102 109 102 256 L102 454 C102 601 171 655 316 655 C461 655 531 601 531 454 L531 256 Z M321 169 L321 217 L289 223 L289 308 L358 308 C435 308 465 343 465 429 C465 515 435 551 358 551 L180 551 L180 503 L209 497 L209 223 L180 217 L180 169 L321 169 Z M289 358 L289 496 L345 496 C375 496 387 477 387 428 C387 377 375 358 345 358 L289 358 Z " />
<glyph glyph-name="trademark" unicode="™" horiz-adv-x="904" d="M274 287 L274 341 L240 349 L240 642 L296 642 L304 543 L358 543 L358 710 L30 710 L30 543 L83 543 L92 642 L147 642 L147 349 L113 341 L113 287 L274 287 Z M873 287 L873 341 L842 349 L842 647 L873 656 L873 710 L706 710 L635 393 L567 710 L388 710 L388 656 L418 647 L418 349 L388 341 L388 287 L526 287 L526 341 L497 349 L497 639 L581 287 L675 287 L760 639 L760 349 L731 341 L731 287 L873 287 Z " />
<glyph glyph-name="Omega" unicode="Ω" horiz-adv-x="632" d="M570 0 L570 91 L483 104 C576 170 603 291 603 412 L603 463 C603 663 511 728 316 728 C121 728 29 663 29 463 L29 412 C29 291 56 177 150 104 L62 91 L62 0 L278 0 L278 104 C220 152 183 207 183 388 L183 480 C183 575 229 622 316 622 C405 622 450 574 450 480 L450 389 C450 207 412 153 354 104 L354 0 L570 0 Z " />
<glyph glyph-name="onethird" unicode="⅓" horiz-adv-x="640" d="M201 365 L201 419 L178 426 L178 720 L118 720 C91 690 61 665 26 642 L61 589 C72 594 84 602 97 611 L97 426 L69 419 L69 365 L201 365 Z M140 -21 L560 732 L466 732 L48 -21 L140 -21 Z M383 -3 C415 -15 448 -19 484 -19 C561 -19 614 12 614 87 C614 126 597 162 562 175 C591 187 607 221 607 255 C607 317 569 354 488 354 C452 354 413 346 383 327 L405 263 C423 275 450 284 476 284 C505 284 531 272 531 236 C531 209 516 200 492 200 L456 200 L456 139 L492 139 C517 139 535 126 535 98 C535 62 508 50 476 50 C449 50 420 58 404 65 L383 -3 Z " />
<glyph glyph-name="twothirds" unicode="⅔" horiz-adv-x="664" d="M268 365 L268 472 L219 472 L212 438 L126 438 C218 499 265 547 265 613 C265 693 227 729 148 729 C104 729 62 720 26 699 L51 629 C72 643 102 657 129 657 C162 657 184 637 184 606 C184 540 89 479 27 442 L27 365 L268 365 Z M174 -21 L594 732 L500 732 L82 -21 L174 -21 Z M407 -3 C439 -15 472 -19 508 -19 C585 -19 638 12 638 87 C638 126 621 162 586 175 C615 187 631 221 631 255 C631 317 593 354 512 354 C476 354 437 346 407 327 L429 263 C447 275 474 284 500 284 C529 284 555 272 555 236 C555 209 540 200 516 200 L480 200 L480 139 L516 139 C541 139 559 126 559 98 C559 62 532 50 500 50 C473 50 444 58 428 65 L407 -3 Z " />
<glyph glyph-name="oneeighth" unicode="⅛" horiz-adv-x="647" d="M201 365 L201 419 L178 426 L178 720 L118 720 C91 690 61 665 26 642 L61 589 C72 594 84 602 97 611 L97 426 L69 419 L69 365 L201 365 Z M140 -21 L560 732 L466 732 L48 -21 L140 -21 Z M560 181 C593 194 610 221 610 255 C610 330 561 354 494 354 C428 354 374 330 374 255 C374 217 394 188 428 172 C386 159 362 131 362 85 C362 12 420 -19 493 -19 C566 -19 621 12 621 91 C621 138 599 164 560 181 L560 181 Z M490 148 C516 141 537 126 537 98 C537 66 521 51 491 51 C462 51 444 66 444 95 C444 124 462 145 490 148 L490 148 Z M493 191 C469 198 447 213 447 241 C447 269 462 285 492 285 C522 285 535 269 535 238 C535 213 515 198 493 191 L493 191 Z " />
<glyph glyph-name="threeeighths" unicode="⅜" horiz-adv-x="642" d="M26 372 C58 360 91 356 127 356 C204 356 257 387 257 462 C257 501 240 537 205 550 C234 562 250 596 250 630 C250 692 212 729 131 729 C95 729 56 721 26 702 L48 638 C66 650 93 659 119 659 C148 659 174 647 174 611 C174 584 159 575 135 575 L99 575 L99 514 L135 514 C160 514 178 501 178 473 C178 437 151 425 119 425 C92 425 63 433 47 440 L26 372 Z M145 -21 L565 732 L471 732 L53 -21 L145 -21 Z M555 181 C588 194 605 221 605 255 C605 330 556 354 489 354 C423 354 369 330 369 255 C369 217 389 188 423 172 C381 159 357 131 357 85 C357 12 415 -19 488 -19 C561 -19 616 12 616 91 C616 138 594 164 555 181 L555 181 Z M485 148 C511 141 532 126 532 98 C532 66 516 51 486 51 C457 51 439 66 439 95 C439 124 457 145 485 148 L485 148 Z M488 191 C464 198 442 213 442 241 C442 269 457 285 487 285 C517 285 530 269 530 238 C530 213 510 198 488 191 L488 191 Z " />
<glyph glyph-name="fiveeighths" unicode="⅝" horiz-adv-x="650" d="M26 381 C54 363 90 356 124 356 C227 356 266 393 266 478 C266 547 239 588 164 588 C139 588 121 584 108 579 L113 649 L193 649 L200 615 L249 615 L249 720 L46 720 L28 520 L81 508 C95 525 116 534 138 534 C170 534 191 519 191 482 C191 444 169 427 133 427 C98 427 72 434 49 446 L26 381 Z M153 -21 L573 732 L479 732 L61 -21 L153 -21 Z M563 181 C596 194 613 221 613 255 C613 330 564 354 497 354 C431 354 377 330 377 255 C377 217 397 188 431 172 C389 159 365 131 365 85 C365 12 423 -19 496 -19 C569 -19 624 12 624 91 C624 138 602 164 563 181 L563 181 Z M493 148 C519 141 540 126 540 98 C540 66 524 51 494 51 C465 51 447 66 447 95 C447 124 465 145 493 148 L493 148 Z M496 191 C472 198 450 213 450 241 C450 269 465 285 495 285 C525 285 538 269 538 238 C538 213 518 198 496 191 L496 191 Z " />
<glyph glyph-name="seveneighths" unicode="⅞" horiz-adv-x="635" d="M145 356 C162 456 211 562 265 655 L265 720 L27 720 L27 613 L76 613 L83 647 L187 647 C123 558 83 475 60 375 L145 356 Z M118 -21 L538 732 L444 732 L26 -21 L118 -21 Z M548 181 C581 194 598 221 598 255 C598 330 549 354 482 354 C416 354 362 330 362 255 C362 217 382 188 416 172 C374 159 350 131 350 85 C350 12 408 -19 481 -19 C554 -19 609 12 609 91 C609 138 587 164 548 181 L548 181 Z M478 148 C504 141 525 126 525 98 C525 66 509 51 479 51 C450 51 432 66 432 95 C432 124 450 145 478 148 L478 148 Z M481 191 C457 198 435 213 435 241 C435 269 450 285 480 285 C510 285 523 269 523 238 C523 213 503 198 481 191 L481 191 Z " />
<glyph glyph-name="partialdiff" unicode="∂" horiz-adv-x="500" d="M204 600 C213 602 224 603 234 603 C324 603 365 534 365 430 C365 401 363 373 359 344 C338 426 276 460 208 460 C104 460 29 371 29 216 C29 68 80 -18 228 -18 C417 -18 471 197 471 432 C471 641 366 728 253 728 C236 728 219 725 204 722 L204 600 Z M344 277 C334 143 287 90 225 90 C160 90 131 135 131 216 C131 309 177 359 229 359 C299 359 328 327 344 277 L344 277 Z " />
<glyph glyph-name="Delta" unicode="∆" horiz-adv-x="641" d="M620 0 L620 91 L573 104 L415 710 L237 710 L69 104 L21 91 L21 0 L620 0 Z M405 104 L195 104 L305 550 L405 104 Z " />
<glyph glyph-name="product" unicode="∏" horiz-adv-x="510" d="M481 -228 L481 710 L29 710 L29 -228 L154 -228 L154 609 L354 609 L354 -228 L481 -228 Z " />
<glyph glyph-name="summation" unicode="∑" horiz-adv-x="444" d="M415 -195 L415 -76 L181 -76 L343 258 L181 590 L415 590 L415 710 L29 710 L29 623 L216 258 L29 -108 L29 -195 L415 -195 Z " />
<glyph glyph-name="minus" unicode="−" horiz-adv-x="608" d="M557 316 L557 420 L50 420 L50 316 L557 316 Z " />
<glyph glyph-name="radical" unicode="√" horiz-adv-x="516" d="M308 0 L496 710 L365 710 L240 182 L190 388 L29 388 L29 288 L93 288 L174 0 L308 0 Z " />
<glyph glyph-name="infinity" unicode="∞" horiz-adv-x="681" d="M340 276 C371 223 420 189 500 189 C585 189 652 248 652 364 C652 482 584 542 500 542 C421 542 376 507 340 454 C306 507 261 542 181 542 C98 542 29 482 29 364 C29 248 97 189 181 189 C261 189 311 223 340 276 L340 276 Z M297 362 C280 327 250 292 200 292 C147 292 125 317 125 364 C125 405 149 433 200 433 C245 433 273 403 297 362 L297 362 Z M385 362 C408 404 436 433 481 433 C532 433 557 405 557 364 C557 317 535 292 481 292 C432 292 401 326 385 362 L385 362 Z " />
<glyph glyph-name="integral" unicode="∫" horiz-adv-x="332" d="M14 -230 C38 -239 64 -240 93 -240 C182 -240 226 -196 226 -108 L226 587 C226 622 241 633 273 633 C289 633 302 633 317 628 L317 718 C292 727 266 728 237 728 C147 728 104 684 104 596 L104 -99 C104 -134 89 -146 56 -146 C42 -146 29 -146 14 -140 L14 -230 Z " />
<glyph glyph-name="approxequal" unicode="≈" horiz-adv-x="640" d="M589 312 C545 253 496 233 436 233 C366 233 295 301 192 301 C125 301 81 267 50 230 L50 117 C94 172 137 198 197 198 C271 198 343 130 429 130 C496 130 544 151 589 201 L589 312 Z M589 552 C545 493 496 473 436 473 C366 473 295 541 192 541 C125 541 81 507 50 470 L50 357 C94 412 137 438 197 438 C271 438 343 370 429 370 C496 370 544 391 589 441 L589 552 Z " />
<glyph glyph-name="notequal" unicode="≠" horiz-adv-x="608" d="M131 -21 L261 210 L557 210 L557 314 L319 314 L380 421 L557 421 L557 525 L438 525 L555 732 L475 732 L359 525 L50 525 L50 421 L300 421 L240 314 L50 314 L50 210 L182 210 L52 -21 L131 -21 Z " />
<glyph glyph-name="lessequal" unicode="≤" horiz-adv-x="608" d="M557 106 L557 221 L168 367 L557 512 L557 628 L50 419 L50 315 L557 106 Z M557 -24 L557 80 L50 80 L50 -24 L557 -24 Z " />
<glyph glyph-name="greaterequal" unicode="≥" horiz-adv-x="608" d="M557 315 L557 419 L50 628 L50 512 L440 367 L50 221 L50 106 L557 315 Z M557 -24 L557 80 L50 80 L50 -24 L557 -24 Z " />
<glyph glyph-name="lozenge" unicode="◊" horiz-adv-x="559" d="M363 4 L530 355 L363 706 L206 706 L29 355 L206 4 L363 4 Z M282 140 L179 355 L283 571 L386 355 L282 140 Z " />
<glyph glyph-name="zerooldstyle" unicode="" horiz-adv-x="545" d="M518 338 C518 518 422 575 272 575 C123 575 27 518 27 338 L27 220 C27 40 123 -16 272 -16 C422 -16 518 40 518 220 L518 338 Z M390 212 C390 124 334 100 272 100 C211 100 154 124 154 212 L154 345 C154 434 211 458 272 458 C334 458 390 434 390 345 L390 212 Z " />
<glyph glyph-name="oneoldstyle" unicode="" horiz-adv-x="352" d="M326 0 L326 91 L273 104 L273 559 L172 559 C122 509 66 466 3 428 L63 346 C86 359 111 375 136 393 L136 104 L74 91 L74 0 L326 0 Z " />
<glyph glyph-name="twooldstyle" unicode="" horiz-adv-x="524" d="M501 0 L501 186 L412 186 L401 108 L166 108 C299 160 490 242 490 411 C490 512 415 575 261 575 C167 575 100 558 25 522 L67 409 C116 439 174 463 258 463 C325 463 360 441 360 392 C360 274 165 183 27 118 L27 0 L501 0 Z " />
<glyph glyph-name="threeoldstyle" unicode="" horiz-adv-x="489" d="M16 -85 C79 -108 143 -116 213 -116 C362 -116 465 -57 465 80 C465 157 428 224 353 245 C416 265 451 325 451 393 C451 507 379 575 220 575 C150 575 74 561 17 525 L53 424 C92 448 148 465 200 465 C271 465 325 436 325 370 C325 307 290 283 232 283 L158 283 L158 187 L231 187 C293 187 333 158 333 96 C333 21 274 -6 199 -6 C145 -6 89 8 51 23 L16 -85 Z " />
<glyph glyph-name="fouroldstyle" unicode="" horiz-adv-x="542" d="M474 -123 L474 0 L527 0 L527 110 L474 110 L474 329 L347 329 L347 110 L153 110 C229 228 297 366 347 500 L233 549 C173 399 95 246 15 119 L15 0 L342 0 L342 -123 L474 -123 Z " />
<glyph glyph-name="fiveoldstyle" unicode="" horiz-adv-x="511" d="M460 368 L460 559 L60 559 L25 188 L114 170 C149 212 194 229 243 229 C323 229 361 188 361 112 C361 30 314 -7 225 -7 C150 -7 98 8 62 30 C48 -2 34 -36 20 -70 C76 -104 146 -116 227 -116 C388 -116 489 -46 489 103 C489 229 438 314 290 314 C246 314 190 305 155 276 L171 447 L362 447 L374 368 L460 368 Z " />
<glyph glyph-name="sixoldstyle" unicode="" horiz-adv-x="524" d="M346 653 C128 630 18 458 18 270 C18 119 72 -18 268 -18 C421 -18 506 58 506 200 C506 310 451 395 314 395 C231 395 181 362 152 327 C168 449 244 536 380 551 L346 653 Z M152 246 C177 280 222 306 274 306 C346 306 376 262 376 200 C376 132 344 86 270 86 C186 86 152 141 152 246 L152 246 Z " />
<glyph glyph-name="sevenoldstyle" unicode="" horiz-adv-x="476" d="M215 -115 C251 71 349 300 463 460 L463 559 L26 559 L26 369 L112 369 L123 448 L336 448 C213 287 122 98 76 -87 L215 -115 Z " />
<glyph glyph-name="eightoldstyle" unicode="" horiz-adv-x="533" d="M386 340 C462 361 497 414 497 477 C497 610 402 653 272 653 C142 653 38 610 38 476 C38 408 79 352 158 326 C73 307 15 255 15 169 C15 40 128 -18 273 -18 C417 -18 518 40 518 178 C518 276 466 315 386 340 L386 340 Z M269 289 C338 277 386 245 386 187 C386 120 342 90 271 90 C200 90 153 120 153 184 C153 242 196 282 269 289 L269 289 Z M273 355 C205 367 162 404 162 456 C162 517 201 548 272 548 C343 548 380 517 380 451 C380 404 338 367 273 355 L273 355 Z " />
<glyph glyph-name="nineoldstyle" unicode="" horiz-adv-x="524" d="M177 -116 C387 -93 504 86 504 287 C504 437 450 575 254 575 C102 575 16 496 16 353 C16 244 71 157 209 157 C290 157 341 188 371 224 C362 92 265 0 143 -14 L177 -116 Z M373 310 C346 274 299 247 251 247 C177 247 148 295 148 358 C148 427 178 477 254 477 C346 477 373 416 373 310 L373 310 Z " />
<glyph glyph-name="uniF8FF" unicode="" horiz-adv-x="283" d="" />
<glyph glyph-name="fi" unicode="ﬁ" horiz-adv-x="635" d="M279 0 L279 91 L217 104 L217 432 L332 432 L332 526 L217 526 L217 578 C217 616 239 629 274 629 C299 629 314 625 327 618 L342 706 C322 719 290 728 230 728 C130 728 78 691 78 587 L78 526 L18 526 L18 432 L78 432 L78 104 L25 91 L25 0 L279 0 Z M613 0 L613 91 L561 104 L561 526 L367 526 L367 435 L419 422 L419 104 L367 91 L367 0 L613 0 Z M561 590 L561 719 L419 719 L419 590 L561 590 Z " />
<glyph glyph-name="fl" unicode="ﬂ" horiz-adv-x="650" d="M279 0 L279 91 L217 104 L217 432 L332 432 L332 526 L217 526 L217 578 C217 616 239 629 274 629 C299 629 314 625 327 618 L342 706 C322 719 290 728 230 728 C130 728 78 691 78 587 L78 526 L18 526 L18 432 L78 432 L78 104 L25 91 L25 0 L279 0 Z M628 0 L628 91 L576 104 L576 719 L382 719 L382 628 L434 615 L434 104 L382 91 L382 0 L628 0 Z " />
</font>
</svg>
