<?xml version="1.0" encoding="UTF-8"?>
<svg xmlns="http://www.w3.org/2000/svg" xmlns:xlink="http://www.w3.org/1999/xlink" version="1.2">
<font id="VectipedeRg-Italic">
<font-face font-family="Vectipede" units-per-em="1000" ascent="760" descent="-240" font-style="italic" font-weight="400" font-stretch="normal" slope="-12" cap-height="710" x-height="526" underline-position="-133" underline-thickness="20" />
<missing-glyph horiz-adv-x="698" d="M338 119 L159 167 L187 269 C218 383 284 377 361 389 C413 397 422 412 441 472 C449 499 450 508 450 517 C450 560 411 595 352 595 C337 595 322 592 307 586 L277 523 L134 562 L175 720 C211 742 255 754 306 754 C449 754 638 682 638 521 C637 500 636 477 629 453 L615 404 C590 317 560 278 463 260 C413 250 374 251 359 195 L338 119 Z M280 -150 L71 -94 L120 92 L330 35 L280 -150 Z M548 -240 C630 -240 672 -203 672 -134 L672 721 C672 793 630 828 548 828 L148 828 C65 828 26 793 26 721 L26 -134 C26 -203 65 -240 148 -240 L548 -240 Z " />
<glyph glyph-name="NULL" d="" />
<glyph glyph-name="CR" unicode="&#xD;" horiz-adv-x="286" d="" />
<glyph glyph-name="space" unicode=" " horiz-adv-x="286" d="" />
<glyph glyph-name="exclam" unicode="!" horiz-adv-x="200" d="M160 0 L187 156 L65 156 L38 0 L160 0 Z M169 214 C232 412 273 541 289 710 L162 710 C118 541 113 412 105 214 L169 214 Z " />
<glyph glyph-name="quotedbl" unicode="&quot;" horiz-adv-x="326" d="M203 443 L250 710 L159 710 L112 443 L203 443 Z M370 443 L417 710 L326 710 L279 443 L370 443 Z " />
<glyph glyph-name="numbersign" unicode="#" horiz-adv-x="559" d="M270 0 L349 0 L420 209 L529 209 L551 287 L448 287 L495 422 L592 422 L618 500 L522 500 L595 710 L516 710 L443 500 L338 500 L411 710 L335 710 L262 500 L154 500 L130 422 L234 422 L187 287 L87 287 L65 209 L160 209 L88 0 L166 0 L237 209 L341 209 L270 0 Z M311 422 L416 422 L369 287 L264 287 L311 422 Z " />
<glyph glyph-name="dollar" unicode="$" horiz-adv-x="503" d="M295 0 L308 79 C419 89 493 128 510 224 L516 257 L520 294 C520 380 444 385 295 411 C234 422 215 427 215 457 C215 534 265 560 353 560 C389 560 423 558 448 542 L443 456 L525 456 L549 592 C517 619 468 630 406 633 L420 710 L327 710 L313 633 C216 624 134 588 117 490 L111 455 C109 445 108 435 108 427 C108 344 190 333 316 312 C384 301 408 290 408 259 C408 186 356 160 265 160 C226 160 188 170 160 189 L165 268 L83 268 L59 132 C95 103 147 85 215 79 L202 0 L295 0 Z " />
<glyph glyph-name="percent" unicode="%" horiz-adv-x="703" d="M383 597 C386 612 386 625 387 637 C387 706 346 729 282 729 C206 729 152 697 134 597 L114 487 C111 472 110 458 110 446 C110 378 151 356 216 356 C291 356 345 387 363 487 L383 597 Z M291 479 C283 433 255 415 227 415 C202 415 182 420 182 455 C182 462 182 470 184 479 L206 605 C214 649 241 669 271 669 C295 669 315 663 315 628 C315 621 314 614 313 605 L291 479 Z M167 -21 L726 732 L658 732 L100 -21 L167 -21 Z M713 222 C716 237 716 250 717 262 C717 331 676 354 612 354 C536 354 482 322 464 222 L444 112 C441 97 440 83 440 71 C440 3 481 -19 546 -19 C621 -19 675 12 693 112 L713 222 Z M621 104 C613 58 585 40 557 40 C532 40 512 45 512 80 C512 87 512 95 514 104 L536 230 C544 274 571 294 601 294 C625 294 645 288 645 253 C645 246 644 239 643 230 L621 104 Z " />
<glyph glyph-name="ampersand" unicode="&amp;" horiz-adv-x="634" d="M499 0 L615 0 L627 73 L571 84 L551 109 C615 164 646 222 663 319 L666 340 L568 340 L565 322 C558 278 543 235 488 185 L365 335 C478 381 521 417 538 512 L548 569 C551 586 552 602 552 616 C552 693 507 728 394 728 C258 728 195 678 174 568 L164 516 C161 501 160 488 160 475 C160 431 175 395 204 359 C119 324 76 284 62 202 L53 151 C50 135 49 120 49 107 C49 10 121 -18 233 -18 C347 -18 408 0 464 41 L499 0 Z M274 512 L282 560 C291 612 329 637 382 637 C424 637 449 627 449 586 C449 578 449 570 447 561 L439 512 C431 463 403 437 308 402 C286 429 271 453 271 486 C271 494 272 503 274 512 L274 512 Z M402 116 C363 88 324 76 270 76 C209 76 170 90 170 145 C170 153 171 162 173 172 C185 243 194 265 259 292 L402 116 Z " />
<glyph glyph-name="quotesingle" unicode="'" horiz-adv-x="159" d="M203 443 L250 710 L159 710 L112 443 L203 443 Z " />
<glyph glyph-name="parenleft" unicode="(" horiz-adv-x="340" d="M319 -153 C266 -46 240 89 240 206 C240 407 317 590 483 779 L396 779 C207 610 122 421 122 221 C122 90 158 -51 232 -153 L319 -153 Z " />
<glyph glyph-name="parenright" unicode=")" horiz-adv-x="340" d="M54 -153 C232 13 331 213 331 418 C331 543 295 677 218 779 L131 779 C186 675 211 545 211 430 C211 230 130 41 -33 -153 L54 -153 Z " />
<glyph glyph-name="asterisk" unicode="*" horiz-adv-x="430" d="M455 386 L366 507 L505 550 L484 608 L348 564 L348 716 L281 716 L281 564 L148 608 L128 550 L266 507 L177 385 L230 348 L316 469 L404 348 L455 386 Z " />
<glyph glyph-name="plus" unicode="+" horiz-adv-x="605" d="M364 117 L401 325 L608 325 L623 410 L416 410 L452 617 L367 617 L331 410 L125 410 L110 325 L316 325 L279 117 L364 117 Z " />
<glyph glyph-name="comma" unicode="," horiz-adv-x="197" d="M56 -132 C98 -98 139 -50 160 -6 L190 162 L65 162 L37 0 L105 0 C85 -35 55 -68 26 -94 L56 -132 Z " />
<glyph glyph-name="hyphen" unicode="-" horiz-adv-x="321" d="M340 283 L356 374 L95 374 L79 283 L340 283 Z " />
<glyph glyph-name="period" unicode="." horiz-adv-x="192" d="M158 0 L186 162 L62 162 L34 0 L158 0 Z " />
<glyph glyph-name="slash" unicode="/" horiz-adv-x="331" d="M87 -107 L448 710 L348 710 L-10 -107 L87 -107 Z " />
<glyph glyph-name="zero" unicode="0" horiz-adv-x="556" d="M603 464 C608 495 611 523 611 548 C611 682 532 728 406 728 C258 728 150 664 115 464 L77 245 C71 214 69 186 69 161 C69 27 148 -18 274 -18 C423 -18 529 45 565 245 L603 464 Z M448 236 C427 118 363 79 291 79 C227 79 184 97 184 176 C184 193 186 213 190 236 L232 472 C252 588 311 630 389 630 C452 630 496 613 496 531 C496 514 494 495 490 472 L448 236 Z " />
<glyph glyph-name="one" unicode="1" horiz-adv-x="338" d="M307 0 L319 73 L262 85 L373 710 L290 710 C237 659 178 615 113 575 L150 500 C178 515 205 534 234 556 L150 85 L81 73 L69 0 L307 0 Z " />
<glyph glyph-name="two" unicode="2" horiz-adv-x="527" d="M501 0 L536 200 L459 200 L429 101 L189 101 C423 245 590 372 590 569 C590 679 521 728 397 728 C311 728 228 711 149 669 L167 571 C223 605 291 628 352 628 C424 628 473 598 473 530 C473 361 214 203 52 107 L34 0 L501 0 Z " />
<glyph glyph-name="three" unicode="3" horiz-adv-x="500" d="M26 15 C85 -10 146 -18 215 -18 C364 -18 477 45 503 191 C506 206 507 221 507 235 C507 304 475 354 411 371 C498 393 553 479 553 579 C553 672 491 728 354 728 C285 728 207 712 143 674 L158 585 C206 614 268 631 321 631 C396 631 445 606 445 540 C445 457 392 405 313 405 L236 405 L221 320 L297 320 C361 320 401 296 401 235 C401 129 318 78 221 78 C166 78 111 90 72 108 L26 15 Z " />
<glyph glyph-name="four" unicode="4" horiz-adv-x="553" d="M474 0 L496 127 L553 127 L569 217 L512 217 L558 481 L453 481 L407 217 L173 217 C276 347 400 536 474 688 L380 723 C302 569 189 391 62 234 L43 127 L388 127 L366 0 L474 0 Z " />
<glyph glyph-name="five" unicode="5" horiz-adv-x="521" d="M33 33 C75 0 144 -18 213 -18 C412 -18 503 57 532 226 C536 251 539 275 539 296 C539 391 491 446 372 446 C311 446 253 430 208 394 L267 612 L479 612 L473 510 L548 510 L584 710 L191 710 L85 310 L157 293 C206 346 268 370 325 370 C395 370 433 347 433 279 C433 151 363 80 243 80 C180 80 121 98 80 122 L33 33 Z " />
<glyph glyph-name="six" unicode="6" horiz-adv-x="535" d="M479 728 C220 697 65 437 65 182 C65 59 118 -18 270 -18 C422 -18 522 67 550 225 C554 245 556 265 556 284 C556 376 508 441 393 441 C306 441 240 402 198 353 C237 500 336 617 490 635 L479 728 Z M185 280 C227 330 285 364 348 364 C418 364 447 331 447 271 C447 165 388 73 287 73 C201 73 174 116 174 185 C174 213 179 245 185 280 L185 280 Z " />
<glyph glyph-name="seven" unicode="7" horiz-adv-x="501" d="M224 -14 C298 193 450 438 592 620 L608 710 L147 710 L111 506 L188 506 L218 609 L479 609 C327 432 191 217 107 9 L224 -14 Z " />
<glyph glyph-name="eight" unicode="8" horiz-adv-x="542" d="M439 377 C555 403 597 493 597 582 C597 691 516 728 403 728 C255 728 135 648 135 499 C135 438 167 386 241 365 C126 337 50 271 50 145 C50 32 143 -18 269 -18 C431 -18 558 78 558 237 C558 311 515 351 439 377 L439 377 Z M327 331 C400 319 442 292 442 232 C442 139 373 79 284 79 C214 79 167 102 167 168 C167 254 223 321 327 331 L327 331 Z M341 390 C268 401 234 440 234 492 C234 582 300 632 383 632 C449 632 490 612 490 548 C490 494 457 407 341 390 L341 390 Z " />
<glyph glyph-name="nine" unicode="9" horiz-adv-x="535" d="M179 -18 C436 12 591 269 591 516 C591 639 541 728 389 728 C236 728 136 643 108 485 C104 464 102 445 102 426 C102 334 148 269 264 269 C353 269 418 307 461 356 C420 208 322 93 168 73 L179 -18 Z M473 428 C432 379 373 346 312 346 C242 346 213 381 213 440 C213 543 271 632 371 632 C454 632 484 591 484 521 C484 501 481 478 477 453 L473 428 Z " />
<glyph glyph-name="colon" unicode=":" horiz-adv-x="219" d="M171 0 L199 162 L75 162 L47 0 L171 0 Z M235 363 L263 523 L139 523 L111 363 L235 363 Z " />
<glyph glyph-name="semicolon" unicode=";" horiz-adv-x="222" d="M67 -132 C110 -98 151 -50 171 -6 L201 162 L77 162 L49 0 L117 0 C97 -35 67 -68 38 -94 L67 -132 Z M237 363 L265 523 L141 523 L113 363 L237 363 Z " />
<glyph glyph-name="less" unicode="&lt;" horiz-adv-x="605" d="M570 108 L586 201 L213 365 L644 528 L661 625 L125 409 L110 324 L570 108 Z " />
<glyph glyph-name="equal" unicode="=" horiz-adv-x="605" d="M626 429 L641 514 L143 514 L128 429 L626 429 Z M589 220 L604 306 L106 306 L91 220 L589 220 Z " />
<glyph glyph-name="greater" unicode="&gt;" horiz-adv-x="605" d="M608 324 L623 409 L163 625 L146 532 L519 369 L88 205 L72 108 L608 324 Z " />
<glyph glyph-name="question" unicode="?" horiz-adv-x="462" d="M297 224 L307 280 C315 327 339 339 401 364 C474 394 507 433 519 506 L526 548 C528 562 530 576 530 589 C530 680 466 728 348 728 C262 728 195 706 148 662 L125 529 L206 529 L229 608 C257 630 290 642 330 642 C389 642 424 621 424 568 C424 559 423 550 421 540 L417 517 C407 462 389 445 339 426 C250 392 220 370 206 295 L193 224 L297 224 Z M266 0 L293 156 L171 156 L144 0 L266 0 Z " />
<glyph glyph-name="at" unicode="@" horiz-adv-x="575" d="M426 -80 C393 -89 347 -94 293 -94 C204 -94 126 -77 126 57 C126 81 129 110 134 137 L171 348 C201 522 243 560 392 560 C492 560 541 540 541 462 C541 448 539 431 536 412 L530 375 C500 406 461 418 414 418 C325 418 290 377 274 285 L256 184 C252 163 250 145 250 129 C250 70 277 45 347 45 C402 45 454 67 493 114 L488 57 L553 57 L615 409 C619 432 621 452 621 471 C621 589 544 633 405 633 C221 633 132 574 92 344 L54 128 C48 93 45 62 45 35 C45 -125 145 -168 284 -168 C332 -168 387 -160 429 -147 L426 -80 Z M494 171 C464 133 428 113 388 113 C347 113 332 124 332 156 C333 166 333 177 336 191 L351 274 C361 328 379 353 437 353 C472 353 499 340 519 312 L494 171 Z " />
<glyph glyph-name="A" unicode="A" horiz-adv-x="637" d="M618 0 L630 73 L577 84 L532 710 L364 710 L87 84 L31 73 L19 0 L224 0 L236 73 L184 84 L249 233 L439 233 L448 84 L388 73 L376 0 L618 0 Z M436 308 L280 308 L415 616 L436 308 Z " />
<glyph glyph-name="B" unicode="B" horiz-adv-x="591" d="M367 0 C511 0 575 62 592 157 L601 208 C604 227 606 243 606 258 C606 325 572 350 526 362 C584 378 623 412 640 509 L646 544 C649 560 650 575 650 589 C650 664 608 710 499 710 L157 710 L144 636 L200 625 L104 85 L44 73 L32 0 L367 0 Z M472 186 C460 122 428 85 360 85 L227 85 L270 325 L408 325 C460 325 481 303 481 256 C482 242 479 226 476 208 L472 186 Z M524 508 C511 443 476 401 421 401 L283 401 L323 624 L458 624 C509 624 530 604 530 560 C530 549 530 537 527 523 L524 508 Z " />
<glyph glyph-name="C" unicode="C" horiz-adv-x="555" d="M561 198 L468 198 L444 112 C411 81 366 71 324 71 C235 71 197 99 197 184 C197 210 201 242 208 281 L234 428 C259 570 309 638 424 638 C466 638 508 627 528 598 L522 512 L615 512 L641 661 C605 708 525 728 450 728 C240 728 146 655 106 428 L80 282 C73 241 69 205 69 174 C69 31 146 -18 318 -18 C393 -18 473 0 536 54 L561 198 Z " />
<glyph glyph-name="D" unicode="D" horiz-adv-x="618" d="M337 0 C515 0 599 74 633 269 L663 441 C669 477 673 508 673 536 C673 660 607 710 462 710 L157 710 L144 636 L200 625 L104 85 L44 73 L32 0 L337 0 Z M506 265 C484 144 436 88 352 88 L231 88 L325 621 L446 621 C513 621 546 600 546 525 C546 503 543 477 538 445 L506 265 Z " />
<glyph glyph-name="E" unicode="E" horiz-adv-x="568" d="M532 0 L570 219 L496 219 L456 94 L230 94 L271 327 L454 327 L457 263 L520 263 L557 474 L494 474 L469 410 L286 410 L323 620 L547 620 L542 513 L616 513 L651 710 L157 710 L144 636 L200 625 L104 85 L44 73 L32 0 L532 0 Z " />
<glyph glyph-name="F" unicode="F" horiz-adv-x="559" d="M284 0 L296 73 L230 85 L268 297 L449 297 L449 232 L513 232 L551 446 L488 446 L464 382 L283 382 L324 617 L550 617 L545 497 L619 497 L657 710 L157 710 L144 636 L200 625 L104 85 L44 73 L32 0 L284 0 Z " />
<glyph glyph-name="G" unicode="G" horiz-adv-x="579" d="M447 113 C429 95 385 76 314 76 C230 76 197 110 197 190 C197 213 199 240 205 272 L233 428 C259 573 312 638 422 638 C468 638 516 628 536 598 L530 512 L623 512 L649 661 C613 708 528 728 436 728 C242 728 147 652 107 428 L79 272 C72 234 69 201 69 171 C69 39 137 -18 298 -18 C432 -18 529 33 557 58 L615 387 L385 387 L373 318 L482 307 L447 113 Z " />
<glyph glyph-name="H" unicode="H" horiz-adv-x="661" d="M629 0 L641 73 L584 85 L680 625 L741 636 L754 710 L517 710 L504 636 L558 625 L519 403 L284 403 L323 625 L380 636 L393 710 L157 710 L144 636 L200 625 L104 85 L44 73 L32 0 L268 0 L280 73 L227 85 L268 315 L503 315 L462 85 L404 73 L392 0 L629 0 Z " />
<glyph glyph-name="I" unicode="I" horiz-adv-x="306" d="M274 0 L286 73 L230 85 L326 625 L386 636 L399 710 L157 710 L144 636 L200 625 L104 85 L44 73 L32 0 L274 0 Z " />
<glyph glyph-name="J" unicode="J" horiz-adv-x="331" d="M-88 -152 C-71 -182 -36 -206 24 -206 C162 -206 226 -114 253 40 L356 625 L410 635 L424 710 L181 710 L167 635 L232 625 L128 36 C115 -34 86 -107 4 -107 C-27 -107 -49 -95 -67 -74 L-88 -152 Z " />
<glyph glyph-name="K" unicode="K" horiz-adv-x="641" d="M620 0 L631 67 L572 85 L396 412 L639 621 L710 636 L723 710 L504 710 L491 636 L542 625 L284 400 L324 625 L381 636 L394 710 L157 710 L144 636 L200 625 L104 85 L45 74 L32 0 L269 0 L282 74 L228 85 L279 372 L462 0 L620 0 Z " />
<glyph glyph-name="L" unicode="L" horiz-adv-x="536" d="M506 0 L555 280 L478 280 L433 97 L233 97 L326 625 L389 636 L402 710 L157 710 L144 636 L200 625 L104 85 L45 75 L32 0 L506 0 Z " />
<glyph glyph-name="M" unicode="M" horiz-adv-x="864" d="M832 0 L845 74 L788 85 L884 625 L944 636 L957 710 L720 710 L467 143 L421 710 L157 710 L144 636 L200 625 L104 85 L45 74 L32 0 L249 0 L262 74 L208 85 L301 612 L364 0 L493 0 L775 613 L681 85 L624 74 L611 0 L832 0 Z " />
<glyph glyph-name="N" unicode="N" horiz-adv-x="664" d="M581 0 L691 625 L749 636 L762 710 L553 710 L540 636 L593 625 L520 211 L359 710 L157 710 L144 636 L200 625 L104 85 L45 74 L32 0 L252 0 L265 74 L202 85 L281 530 L477 0 L581 0 Z " />
<glyph glyph-name="O" unicode="O" horiz-adv-x="607" d="M650 426 C656 461 659 493 659 522 C659 664 585 728 431 728 C245 728 144 635 107 426 L82 284 C75 248 72 215 72 186 C72 45 146 -18 299 -18 C484 -18 588 75 625 284 L650 426 Z M499 284 C472 132 417 73 315 73 C237 73 197 96 197 185 C197 212 201 244 208 284 L233 426 C260 578 313 636 415 636 C494 636 533 609 533 519 C533 493 530 463 524 426 L499 284 Z " />
<glyph glyph-name="P" unicode="P" horiz-adv-x="577" d="M280 0 L293 74 L229 85 L260 259 L401 259 C544 259 610 325 638 485 C643 515 646 543 646 566 C646 667 596 710 481 710 L157 710 L144 636 L200 625 L104 85 L45 74 L32 0 L280 0 Z M274 336 L325 624 L446 624 C499 624 523 605 523 547 C523 529 520 507 516 481 C499 381 464 336 395 336 L274 336 Z " />
<glyph glyph-name="Q" unicode="Q" horiz-adv-x="618" d="M553 -82 C535 -98 517 -104 502 -104 C470 -104 432 -75 431 17 C541 50 610 138 637 291 L662 433 C668 465 671 495 671 522 C671 663 591 728 437 728 C252 728 144 636 108 433 L83 291 C77 257 74 227 74 199 C74 55 158 -2 321 -2 C321 -114 384 -180 460 -180 C498 -180 527 -167 542 -146 L553 -82 Z M512 298 C486 150 425 89 324 89 C243 89 201 116 201 209 C201 234 204 263 210 298 L233 430 C258 576 319 639 421 639 C501 639 544 613 544 519 C544 495 541 465 535 430 L512 298 Z " />
<glyph glyph-name="R" unicode="R" horiz-adv-x="641" d="M619 0 L632 74 L576 85 L596 197 C600 221 602 242 602 260 C602 328 572 350 524 360 C580 373 624 408 641 509 L647 544 C650 560 651 575 651 590 C651 665 609 710 500 710 L157 710 L144 636 L200 625 L104 85 L45 74 L32 0 L271 0 L284 74 L227 85 L269 318 L414 318 C460 318 482 304 482 262 C482 252 480 240 478 226 L451 71 C449 62 448 53 448 46 C448 13 466 0 506 0 L619 0 Z M523 501 C510 428 478 397 423 397 L283 397 L322 620 L456 620 C507 620 529 600 529 553 C529 541 527 527 525 512 L523 501 Z " />
<glyph glyph-name="S" unicode="S" horiz-adv-x="552" d="M552 197 C561 248 563 264 563 278 C563 363 504 389 398 411 C300 431 239 442 239 498 C239 607 301 647 390 647 C436 647 472 639 499 615 L490 512 L583 512 L609 662 C568 709 499 728 404 728 C236 728 146 668 122 530 C114 483 113 468 113 454 C113 301 316 330 410 277 C430 266 439 254 439 230 C439 140 395 73 271 73 C222 73 182 83 151 113 L159 198 L68 198 L42 51 C97 0 177 -18 258 -18 C420 -18 524 39 552 197 L552 197 Z " />
<glyph glyph-name="T" unicode="T" horiz-adv-x="584" d="M420 0 L433 74 L368 85 L462 618 L581 618 L561 430 L637 430 L687 710 L147 710 L97 430 L172 430 L218 618 L337 618 L243 85 L176 74 L163 0 L420 0 Z " />
<glyph glyph-name="U" unicode="U" horiz-adv-x="677" d="M528 227 C510 128 468 82 359 82 C277 82 238 101 238 171 C238 187 240 205 244 227 L314 625 L372 636 L385 710 L150 710 L137 636 L187 625 L119 241 C113 205 109 173 109 145 C109 28 170 -18 332 -18 C554 -18 609 53 642 241 L710 625 L764 636 L777 710 L558 710 L545 636 L598 625 L528 227 Z " />
<glyph glyph-name="V" unicode="V" horiz-adv-x="619" d="M377 0 L656 625 L712 636 L725 710 L513 710 L500 636 L550 625 L340 129 L316 625 L375 636 L388 710 L144 710 L131 636 L183 625 L232 0 L377 0 Z " />
<glyph glyph-name="W" unicode="W" horiz-adv-x="883" d="M699 0 L918 625 L974 636 L987 710 L773 710 L760 636 L810 625 L657 146 L635 710 L528 710 L296 146 L317 625 L375 636 L388 710 L145 710 L132 636 L185 625 L185 0 L326 0 L533 512 L558 0 L699 0 Z " />
<glyph glyph-name="X" unicode="X" horiz-adv-x="615" d="M593 0 L606 74 L552 85 L433 369 L636 625 L699 636 L712 710 L503 710 L490 636 L538 625 L399 437 L330 625 L383 636 L396 710 L153 710 L140 636 L197 625 L310 351 L98 85 L38 74 L25 0 L232 0 L245 74 L197 85 L346 285 L419 85 L367 74 L354 0 L593 0 Z " />
<glyph glyph-name="Y" unicode="Y" horiz-adv-x="592" d="M423 0 L436 74 L372 85 L407 282 L630 625 L684 636 L697 710 L504 710 L491 636 L538 625 L376 371 L307 625 L362 636 L375 710 L144 710 L131 636 L180 625 L281 282 L246 85 L180 74 L167 0 L423 0 Z " />
<glyph glyph-name="Z" unicode="Z" horiz-adv-x="552" d="M524 0 L573 280 L496 280 L446 93 L179 93 L621 622 L637 710 L154 710 L104 430 L182 430 L232 618 L475 618 L48 115 L28 0 L524 0 Z " />
<glyph glyph-name="bracketleft" unicode="[" horiz-adv-x="354" d="M309 -139 L323 -60 L190 -60 L322 688 L455 688 L469 769 L232 769 L72 -139 L309 -139 Z " />
<glyph glyph-name="backslash" unicode="\" horiz-adv-x="331" d="M304 -107 L232 710 L133 710 L207 -107 L304 -107 Z " />
<glyph glyph-name="bracketright" unicode="]" horiz-adv-x="351" d="M234 -139 L394 769 L155 769 L141 688 L275 688 L143 -60 L9 -60 L-4 -139 L234 -139 Z " />
<glyph glyph-name="asciicircum" unicode="^" horiz-adv-x="358" d="M415 506 L333 710 L274 710 L121 506 L204 506 L292 628 L334 506 L415 506 Z " />
<glyph glyph-name="underscore" unicode="_" horiz-adv-x="448" d="M419 -139 L430 -79 L-7 -79 L-18 -139 L419 -139 Z " />
<glyph glyph-name="grave" unicode="`" horiz-adv-x="267" d="M337 580 L277 766 L167 766 L266 580 L337 580 Z " />
<glyph glyph-name="a" unicode="a" horiz-adv-x="545" d="M537 69 C528 58 519 54 507 54 C492 54 482 60 482 79 C482 83 482 87 483 92 L533 379 C536 396 538 412 538 427 C538 508 485 540 363 540 C286 540 205 528 134 485 L155 403 C212 437 271 448 328 448 C389 448 423 435 423 389 C423 383 422 375 421 367 L408 292 C366 309 310 325 231 325 C127 325 71 278 54 184 C43 125 42 111 42 98 C42 28 80 -18 176 -18 C267 -18 341 21 380 76 C379 70 379 65 379 59 C379 5 408 -17 459 -17 C490 -17 514 -8 531 8 L537 69 Z M380 131 C341 94 289 64 226 64 C177 64 157 78 157 117 C157 126 158 136 164 174 C172 228 203 257 262 257 C323 257 370 244 397 232 L380 131 Z " />
<glyph glyph-name="b" unicode="b" horiz-adv-x="564" d="M589 315 C594 346 597 375 597 399 C597 495 555 540 457 540 C382 540 312 515 256 461 L301 719 L127 719 L114 645 L171 634 L60 0 L131 0 L165 63 C201 8 270 -18 342 -18 C481 -18 542 50 571 213 L589 315 Z M458 218 C442 130 405 77 317 77 C270 77 221 96 197 129 L241 376 C281 423 337 448 395 448 C452 448 480 429 480 368 C480 350 477 328 473 303 L458 218 Z " />
<glyph glyph-name="c" unicode="c" horiz-adv-x="482" d="M446 162 C406 105 346 79 287 79 C209 79 174 107 174 172 C174 185 175 199 178 215 L197 320 C211 400 258 454 339 454 C374 454 407 445 426 420 L420 341 L507 341 L530 474 C490 525 423 540 348 540 C190 540 106 451 84 323 L64 208 C60 188 59 168 59 151 C59 43 124 -18 261 -18 C345 -18 423 19 479 95 L446 162 Z " />
<glyph glyph-name="d" unicode="d" horiz-adv-x="585" d="M561 0 L574 74 L516 85 L628 719 L454 719 L441 645 L498 634 L470 476 C438 522 372 541 311 541 C171 541 111 473 82 310 L64 208 C58 177 56 149 56 124 C56 29 99 -16 196 -16 C271 -16 341 8 406 69 L398 0 L561 0 Z M413 150 C372 102 316 78 258 78 C200 78 174 97 174 157 C174 175 176 197 181 223 L196 307 C212 399 249 449 336 449 C384 449 432 430 456 396 L413 150 Z " />
<glyph glyph-name="e" unicode="e" horiz-adv-x="505" d="M515 230 L526 290 C533 327 536 360 536 389 C536 488 491 540 350 540 C183 540 110 461 81 298 L67 220 C63 199 61 179 61 160 C61 54 121 -18 263 -18 C372 -18 441 16 482 71 L453 139 C412 96 370 73 294 73 C211 73 174 99 174 172 C174 189 176 208 180 230 L515 230 Z M193 304 C209 394 239 460 338 460 C410 460 432 433 432 380 C432 359 428 334 423 304 L193 304 Z " />
<glyph glyph-name="f" unicode="f" horiz-adv-x="343" d="M268 0 L281 74 L214 85 L279 449 L408 449 L421 526 L292 526 L302 582 C310 628 339 647 383 647 C411 647 427 642 440 634 L466 706 C448 719 420 728 361 728 C265 728 207 691 189 589 L178 526 L111 526 L98 449 L165 449 L100 85 L40 74 L27 0 L268 0 Z " />
<glyph glyph-name="g" unicode="g" horiz-adv-x="530" d="M384 1 C368 -92 323 -144 221 -144 C167 -144 112 -131 73 -97 L29 -174 C73 -227 149 -240 223 -240 C372 -240 466 -179 495 -14 L590 526 L519 526 L485 461 C455 512 389 538 308 538 C163 538 108 464 82 310 L70 240 C64 207 61 178 61 153 C61 62 100 15 203 15 C275 15 346 40 400 95 L384 1 Z M415 177 C374 130 318 105 259 105 C199 105 176 129 176 183 C175 199 178 218 182 240 L194 309 C209 394 242 450 333 450 C379 450 432 430 454 398 L415 177 Z " />
<glyph glyph-name="h" unicode="h" horiz-adv-x="643" d="M619 0 L632 74 L575 85 L631 398 C633 411 634 424 634 436 C634 506 590 540 502 540 C421 540 348 522 282 467 L326 719 L152 719 L139 645 L195 634 L98 85 L39 74 L26 0 L257 0 L270 74 L214 85 L267 382 C318 432 375 447 438 447 C484 447 512 436 512 396 C512 389 511 382 510 374 L459 85 L401 74 L388 0 L619 0 Z " />
<glyph glyph-name="i" unicode="i" horiz-adv-x="282" d="M258 0 L271 74 L214 85 L292 526 L118 526 L105 452 L161 441 L98 85 L39 74 L26 0 L258 0 Z M303 590 L325 719 L210 719 L188 590 L303 590 Z " />
<glyph glyph-name="j" unicode="j" horiz-adv-x="238" d="M-113 -191 C-95 -222 -59 -240 -5 -240 C109 -240 167 -158 191 -21 L287 526 L109 526 L96 451 L156 441 L75 -21 C64 -81 40 -146 -30 -146 C-57 -146 -75 -139 -91 -120 L-113 -191 Z M298 590 L320 719 L204 719 L182 590 L298 590 Z " />
<glyph glyph-name="k" unicode="k" horiz-adv-x="562" d="M549 0 L562 74 L501 85 L359 289 L537 442 L600 452 L613 526 L406 526 L393 452 L448 442 L247 268 L326 719 L152 719 L139 645 L195 634 L98 85 L39 74 L26 0 L247 0 L260 74 L214 85 L243 245 L396 0 L549 0 Z " />
<glyph glyph-name="l" unicode="l" horiz-adv-x="282" d="M258 0 L271 74 L214 85 L326 719 L152 719 L139 645 L195 634 L98 85 L39 74 L26 0 L258 0 Z " />
<glyph glyph-name="m" unicode="m" horiz-adv-x="951" d="M928 0 L941 74 L883 85 L939 398 C941 412 943 425 943 437 C943 506 901 540 819 540 C732 540 673 517 603 455 C597 513 557 540 484 540 C395 540 334 516 269 454 L277 526 L118 526 L105 452 L160 441 L97 85 L39 74 L26 0 L253 0 L266 74 L210 85 L263 383 C311 432 363 447 421 447 C463 447 489 437 489 397 C489 390 488 382 487 374 L436 85 L380 74 L367 0 L589 0 L602 75 L548 85 L602 387 C649 433 700 447 757 447 C799 447 824 437 824 397 C824 390 824 383 822 374 L771 85 L715 74 L702 0 L928 0 Z " />
<glyph glyph-name="n" unicode="n" horiz-adv-x="643" d="M619 0 L632 74 L575 85 L631 398 C633 411 634 424 634 436 C634 506 590 540 502 540 C406 540 341 516 272 454 L280 526 L118 526 L105 452 L161 441 L98 85 L39 74 L26 0 L257 0 L270 74 L214 85 L267 383 C318 432 375 447 438 447 C484 447 512 437 512 397 C512 390 511 382 510 374 L459 85 L401 74 L388 0 L619 0 Z " />
<glyph glyph-name="o" unicode="o" horiz-adv-x="522" d="M549 315 C553 340 556 363 556 383 C556 491 493 540 356 540 C193 540 111 471 83 315 L64 208 C59 183 57 160 57 139 C57 30 120 -18 257 -18 C420 -18 502 51 530 208 L549 315 Z M418 215 C400 118 363 71 273 71 C203 71 171 87 171 152 C171 169 173 190 178 215 L195 307 C214 408 250 451 340 451 C410 451 442 435 442 370 C442 353 439 332 435 307 L418 215 Z " />
<glyph glyph-name="p" unicode="p" horiz-adv-x="582" d="M223 -228 L236 -154 L169 -143 L203 48 C236 2 301 -17 363 -17 C502 -17 562 51 591 214 L609 316 C614 347 617 375 617 400 C617 495 575 540 477 540 C402 540 332 516 267 455 L275 526 L113 526 L100 452 L157 441 L54 -143 L-6 -154 L-19 -228 L223 -228 Z M477 213 C461 121 424 72 336 72 C289 72 240 91 217 125 L260 374 C300 422 357 446 415 446 C472 446 500 427 500 368 C500 351 497 330 493 306 L477 213 Z " />
<glyph glyph-name="q" unicode="q" horiz-adv-x="541" d="M520 -228 L533 -154 L477 -143 L595 526 L523 526 L489 461 C452 516 384 540 311 540 C172 540 111 474 82 310 L64 208 C58 177 56 149 56 125 C56 29 99 -18 196 -18 C271 -18 342 9 398 63 L361 -143 L291 -154 L278 -228 L520 -228 Z M412 146 C373 98 317 74 258 74 C201 74 174 92 174 153 C174 171 176 193 181 219 L196 306 C211 395 249 447 336 447 C383 447 433 428 456 394 L412 146 Z " />
<glyph glyph-name="r" unicode="r" horiz-adv-x="413" d="M264 0 L277 74 L214 85 L264 365 C317 415 374 432 431 432 C446 432 457 431 471 428 L504 537 C499 539 485 540 473 540 C391 540 322 509 269 453 L277 526 L118 526 L105 452 L161 441 L98 85 L39 74 L26 0 L264 0 Z " />
<glyph glyph-name="s" unicode="s" horiz-adv-x="491" d="M490 130 C496 159 500 180 500 197 C500 342 196 279 196 363 C196 441 237 461 333 461 C375 461 401 457 424 444 L418 360 L504 360 L528 496 C492 527 432 540 343 540 C200 540 89 498 89 331 C89 273 123 249 186 235 C306 208 388 216 388 167 C388 94 336 65 244 65 C205 65 174 74 145 93 L151 172 L62 172 L38 36 C80 3 146 -18 237 -18 C369 -18 465 18 490 130 L490 130 Z " />
<glyph glyph-name="t" unicode="t" horiz-adv-x="356" d="M355 100 C333 81 310 72 283 72 C233 72 211 87 211 133 C211 146 213 161 216 178 L264 449 L417 449 L430 526 L277 526 L301 661 L186 642 L165 526 L109 526 L96 449 L152 449 L104 180 C100 155 97 133 97 112 C97 30 134 -18 228 -18 C284 -18 323 -1 353 30 L355 100 Z " />
<glyph glyph-name="u" unicode="u" horiz-adv-x="587" d="M447 163 C437 106 401 75 315 75 C242 75 209 88 209 136 C209 144 210 153 212 163 L261 441 L318 452 L331 526 L112 526 L99 452 L146 441 L97 162 C94 145 92 130 92 116 C92 21 159 -18 293 -18 C445 -18 523 34 546 162 L595 441 L646 452 L659 526 L455 526 L442 452 L496 441 L447 163 Z " />
<glyph glyph-name="v" unicode="v" horiz-adv-x="571" d="M357 0 L584 444 L635 452 L648 526 L455 526 L442 452 L488 444 L311 92 L265 444 L318 452 L331 526 L107 526 L94 452 L143 444 L215 0 L357 0 Z " />
<glyph glyph-name="w" unicode="w" horiz-adv-x="800" d="M651 0 L812 444 L863 452 L876 526 L685 526 L672 452 L718 444 L597 94 L562 526 L450 526 L256 94 L256 444 L312 452 L325 526 L108 526 L95 451 L141 443 L153 0 L297 0 L473 396 L508 0 L651 0 Z " />
<glyph glyph-name="x" unicode="x" horiz-adv-x="567" d="M548 0 L561 74 L515 82 L396 270 L569 444 L619 452 L632 526 L435 526 L422 452 L467 444 L349 316 L281 444 L334 452 L347 526 L117 526 L104 452 L150 444 L266 266 L80 82 L32 74 L19 0 L213 0 L226 74 L183 82 L309 217 L383 82 L331 74 L318 0 L548 0 Z " />
<glyph glyph-name="y" unicode="y" horiz-adv-x="568" d="M97 -138 C57 -138 37 -127 20 -107 L-24 -191 C-3 -222 34 -238 84 -238 C198 -238 253 -160 323 -31 L580 443 L631 451 L644 526 L451 526 L438 451 L484 443 L309 102 L261 443 L314 451 L327 526 L106 526 L93 451 L143 443 L223 -18 L206 -50 C171 -115 142 -138 97 -138 L97 -138 Z " />
<glyph glyph-name="z" unicode="z" horiz-adv-x="516" d="M489 0 L525 207 L442 207 L404 79 L178 79 L558 460 L569 526 L119 526 L87 344 L170 344 L199 451 L407 451 L41 86 L26 0 L489 0 Z " />
<glyph glyph-name="braceleft" unicode="{" horiz-adv-x="367" d="M311 -140 L324 -66 L295 -66 C244 -66 224 -59 224 -22 C224 -13 225 -1 228 14 C239 75 257 140 268 202 C270 211 270 219 270 227 C270 278 238 310 183 316 C249 323 297 364 310 439 C320 496 323 556 334 617 C343 673 361 695 429 695 L458 695 L471 770 L435 770 C285 770 251 717 233 616 C225 572 221 496 216 465 C201 384 171 354 110 354 L96 276 C146 276 169 262 169 215 C169 202 167 186 164 168 C154 112 121 7 121 -43 C121 -108 155 -140 275 -140 L311 -140 Z " />
<glyph glyph-name="bar" unicode="|" horiz-adv-x="266" d="M156 -134 L318 788 L225 788 L63 -134 L156 -134 Z " />
<glyph glyph-name="braceright" unicode="}" horiz-adv-x="368" d="M41 -140 C191 -140 225 -89 243 14 C251 61 254 134 260 168 C274 248 302 276 366 276 L380 354 C329 354 307 373 307 421 C307 433 309 448 312 465 C322 520 355 626 355 672 C355 736 320 770 201 770 L165 770 L152 695 L181 695 C232 695 252 687 252 651 C252 642 250 631 248 617 C237 556 220 496 210 439 C208 428 207 417 207 408 C207 352 238 322 293 316 C227 309 180 268 168 202 C157 140 153 75 142 14 C132 -45 112 -66 47 -66 L18 -66 L5 -140 L41 -140 Z " />
<glyph glyph-name="asciitilde" unicode="~" horiz-adv-x="637" d="M657 422 C603 364 550 344 491 344 C420 344 362 410 262 410 C197 410 149 378 112 342 L96 247 C147 300 194 326 253 326 C330 326 387 260 472 260 C538 260 587 279 641 328 L657 422 Z " />
<glyph glyph-name="nbspace" unicode=" " horiz-adv-x="286" d="" />
<glyph glyph-name="exclamdown" unicode="¡" horiz-adv-x="200" d="M165 710 L138 554 L260 554 L287 710 L165 710 Z M156 496 C93 298 52 169 36 0 L163 0 C207 169 212 298 220 496 L156 496 Z " />
<glyph glyph-name="cent" unicode="¢" horiz-adv-x="485" d="M309 0 L323 82 C388 91 446 127 492 189 L459 257 C418 200 363 173 304 173 C227 173 194 197 194 262 C195 276 196 292 199 310 L218 416 C232 494 273 548 355 548 C389 548 419 541 438 517 L432 435 L518 435 L542 568 C512 606 469 623 419 629 L434 710 L341 710 L327 632 C192 614 126 537 105 417 L85 302 C81 280 79 260 79 241 C79 149 127 91 229 79 L216 0 L309 0 Z " />
<glyph glyph-name="sterling" unicode="£" horiz-adv-x="527" d="M506 280 L518 348 L283 348 C268 390 250 428 250 479 C250 583 292 641 383 641 C423 641 450 630 470 608 L464 529 L549 529 L572 662 C540 706 481 728 396 728 C229 728 145 627 145 477 C145 433 163 391 179 348 L96 348 L84 280 L200 280 C203 265 205 249 205 233 C205 166 172 85 81 85 C56 85 43 91 34 97 L17 1 C30 -9 53 -18 87 -18 C141 -18 180 0 216 36 C253 1 314 -18 366 -18 C415 -18 467 -1 504 37 L522 137 C485 92 441 76 394 76 C354 76 300 86 269 112 C294 154 305 196 305 240 C305 254 304 267 302 280 L506 280 Z " />
<glyph glyph-name="currency" unicode="¤" horiz-adv-x="560" d="M486 112 L557 174 L500 239 C537 281 563 335 563 396 C563 427 555 456 542 482 L622 547 L573 608 L497 539 C466 563 425 578 381 578 C335 578 291 563 253 539 L200 608 L128 547 L185 482 C147 437 123 381 123 322 C123 292 130 264 143 239 L61 174 L111 112 L191 182 C220 158 259 145 305 145 C349 145 393 158 433 182 L486 112 Z M317 211 C242 211 190 263 190 334 C190 430 278 512 370 512 C445 512 496 459 496 388 C496 289 405 211 317 211 L317 211 Z " />
<glyph glyph-name="yen" unicode="¥" horiz-adv-x="596" d="M522 97 L534 167 L389 167 L407 269 L552 269 L564 337 L438 337 L629 625 L683 636 L696 710 L503 710 L490 636 L537 625 L381 380 L312 625 L367 636 L380 710 L150 710 L137 636 L186 625 L274 337 L144 337 L132 269 L282 269 L264 167 L114 167 L102 97 L252 97 L235 0 L360 0 L377 97 L522 97 Z " />
<glyph glyph-name="brokenbar" unicode="¦" horiz-adv-x="398" d="M221 -134 L291 264 L198 264 L128 -134 L221 -134 Z M319 425 L383 788 L290 788 L226 425 L319 425 Z " />
<glyph glyph-name="section" unicode="§" horiz-adv-x="495" d="M81 299 C68 225 67 214 67 203 C67 127 128 100 279 78 C346 68 367 57 367 25 C367 -60 315 -76 230 -76 C188 -76 159 -71 136 -57 L143 30 L61 30 L36 -113 C71 -146 130 -159 219 -159 C356 -159 472 -113 472 58 C472 107 453 127 420 142 C472 165 503 196 516 269 C529 344 530 356 530 367 C530 448 466 470 319 490 C252 499 230 511 230 545 C230 629 285 644 368 644 C409 644 438 639 461 626 L454 538 L537 538 L563 681 C527 714 467 728 379 728 C236 728 126 668 126 520 C126 472 147 445 178 426 C129 405 94 373 81 299 L81 299 Z M385 374 C411 366 419 347 419 322 C419 252 388 187 320 174 C216 192 178 188 178 238 C178 323 205 371 283 392 C329 385 358 383 385 374 L385 374 Z " />
<glyph glyph-name="dieresis" unicode="¨" horiz-adv-x="410" d="M251 590 L273 719 L158 719 L136 590 L251 590 Z M482 590 L504 719 L389 719 L367 590 L482 590 Z " />
<glyph glyph-name="copyright" unicode="©" horiz-adv-x="628" d="M493 272 L438 272 L425 219 C408 205 388 198 360 198 C310 198 287 213 287 263 C287 276 288 292 292 311 L308 399 C323 480 349 518 417 518 C444 518 460 511 473 498 L468 445 L523 445 L537 524 C516 551 472 566 430 566 C314 566 262 525 240 399 L226 318 C222 295 219 274 219 256 C219 178 262 151 357 151 C399 151 444 167 480 197 L493 272 Z M676 454 C681 485 684 513 684 538 C684 675 603 728 442 728 C250 728 147 654 112 454 L77 256 C71 224 68 196 68 170 C68 34 148 -18 310 -18 C501 -18 605 56 641 256 L676 454 Z M581 256 C555 108 471 41 321 41 C195 41 130 75 130 184 C130 205 132 229 137 256 L172 454 C198 601 280 667 431 667 C558 667 622 632 622 522 C622 502 620 479 616 454 L581 256 Z " />
<glyph glyph-name="ordfeminine" unicode="ª" horiz-adv-x="360" d="M378 344 C373 340 370 338 365 338 C357 338 352 340 352 350 C352 352 352 355 353 359 L379 508 C381 518 382 526 382 534 C382 580 352 597 283 597 C240 597 195 590 154 567 L169 512 C198 529 230 535 260 535 C289 535 304 532 304 511 C304 508 304 505 303 501 L296 464 C272 472 243 479 208 479 C136 479 104 434 104 354 C104 316 126 290 177 290 C222 290 261 309 281 337 C284 306 298 291 331 291 C348 291 362 294 374 304 L378 344 Z M280 373 C261 358 237 346 211 346 C189 346 181 350 181 367 C181 410 194 434 229 434 C255 434 277 429 289 425 L280 373 Z " />
<glyph glyph-name="guillemotleft" unicode="«" horiz-adv-x="452" d="M222 141 L238 228 L138 335 L276 441 L291 532 L95 381 L79 292 L222 141 Z M448 141 L464 228 L364 335 L502 441 L517 532 L321 381 L305 292 L448 141 Z " />
<glyph glyph-name="logicalnot" unicode="¬" horiz-adv-x="628" d="M596 0 L688 526 L124 526 L105 419 L562 419 L489 0 L596 0 Z " />
<glyph glyph-name="registered" unicode="®" horiz-adv-x="628" d="M513 161 L520 200 L488 206 L502 285 C504 294 504 303 504 310 C504 342 489 354 465 361 C494 370 516 391 524 439 L528 463 C529 472 530 481 530 489 C530 531 507 556 447 556 L256 556 L249 517 L281 511 L227 206 L193 200 L186 161 L317 161 L324 200 L292 206 L315 338 L399 338 C426 338 439 331 439 306 C439 301 438 294 437 287 L422 202 C421 196 420 190 420 186 C420 168 428 161 450 161 L513 161 Z M461 435 C455 402 437 381 405 381 L323 381 L345 508 L423 508 C452 508 466 498 466 472 C466 466 465 459 464 451 L461 435 Z M676 454 C681 485 684 513 684 538 C684 675 603 728 442 728 C250 728 147 654 112 454 L77 256 C71 224 68 196 68 170 C68 34 148 -18 310 -18 C501 -18 605 56 641 256 L676 454 Z M581 256 C555 108 471 41 321 41 C195 41 130 75 130 184 C130 205 132 229 137 256 L172 454 C198 601 280 667 431 667 C558 667 622 632 622 522 C622 502 620 479 616 454 L581 256 Z " />
<glyph glyph-name="macron" unicode="¯" horiz-adv-x="403" d="M475 593 L489 671 L150 671 L136 593 L475 593 Z " />
<glyph glyph-name="degree" unicode="°" horiz-adv-x="378" d="M255 380 C389 380 447 481 447 586 C447 662 409 719 315 719 C179 719 125 618 125 513 C125 438 162 380 255 380 L255 380 Z M266 442 C213 442 192 479 192 525 C192 590 224 658 304 658 C358 658 379 621 379 575 C379 511 347 442 266 442 L266 442 Z " />
<glyph glyph-name="plusminus" unicode="±" horiz-adv-x="605" d="M364 117 L401 325 L608 325 L623 410 L416 410 L452 617 L367 617 L331 410 L125 410 L110 325 L316 325 L279 117 L364 117 Z M551 0 L566 85 L68 85 L53 0 L551 0 Z " />
<glyph glyph-name="twosuperior" unicode="²" horiz-adv-x="294" d="M332 365 L350 468 L306 468 L292 427 L191 427 C309 498 376 557 376 648 C376 703 342 729 278 729 C234 729 191 720 152 699 L163 639 C189 655 222 668 250 668 C283 668 304 656 304 624 C304 544 183 474 105 430 L94 365 L332 365 Z " />
<glyph glyph-name="threesuperior" unicode="³" horiz-adv-x="281" d="M90 372 C120 360 152 356 187 356 C265 356 335 393 335 482 C335 515 321 541 292 550 C332 563 358 608 358 653 C358 701 327 729 256 729 C221 729 182 721 149 702 L157 647 C180 661 209 669 235 669 C267 669 291 660 291 629 C291 593 268 571 235 571 L197 571 L188 519 L225 519 C252 519 269 512 269 485 C269 435 233 415 191 415 C164 415 136 422 118 430 L90 372 Z " />
<glyph glyph-name="acute" unicode="´" horiz-adv-x="267" d="M208 580 L370 766 L257 766 L134 580 L208 580 Z " />
<glyph glyph-name="mu" unicode="µ" horiz-adv-x="605" d="M220 -228 L233 -154 L167 -143 L201 48 C234 2 297 -17 359 -17 C502 -17 545 49 574 214 L614 441 L665 452 L678 526 L474 526 L461 452 L514 441 L474 213 C458 120 421 72 334 72 C286 72 238 91 215 125 L270 441 L326 452 L339 526 L119 526 L106 452 L154 441 L51 -143 L-9 -154 L-22 -228 L220 -228 Z " />
<glyph glyph-name="paragraph" unicode="¶" horiz-adv-x="526" d="M433 -166 L573 628 L621 637 L634 710 L264 710 C166 710 112 631 112 532 C112 467 143 423 219 423 L115 -166 L203 -166 L342 626 L486 626 L347 -166 L433 -166 Z " />
<glyph glyph-name="periodcentered" unicode="·" horiz-adv-x="192" d="M203 260 L231 422 L107 422 L79 260 L203 260 Z " />
<glyph glyph-name="cedilla" unicode="¸" horiz-adv-x="188" d="M37 -240 C76 -209 111 -168 123 -129 L140 -31 L39 -31 L21 -134 L70 -134 C55 -162 32 -189 7 -210 L37 -240 Z " />
<glyph glyph-name="onesuperior" unicode="¹" horiz-adv-x="209" d="M244 365 L252 410 L227 417 L280 720 L229 720 C199 692 167 669 131 647 L155 600 C168 606 181 615 195 625 L158 417 L126 410 L118 365 L244 365 Z " />
<glyph glyph-name="ordmasculine" unicode="º" horiz-adv-x="349" d="M302 419 C293 371 278 350 235 350 C203 350 189 357 189 387 C188 395 190 406 193 419 L202 468 C211 518 227 537 268 537 C300 537 315 530 315 501 C315 492 313 481 311 468 L302 419 Z M388 473 C390 486 391 498 391 509 C391 570 356 597 279 597 C187 597 143 559 127 473 L116 414 C113 401 112 389 112 378 C112 317 148 290 225 290 C317 290 361 328 377 414 L388 473 Z " />
<glyph glyph-name="guillemotright" unicode="»" horiz-adv-x="452" d="M249 291 L265 381 L120 532 L104 444 L204 339 L67 232 L51 141 L249 291 Z M475 291 L491 381 L346 532 L330 444 L430 339 L293 232 L277 141 L475 291 Z " />
<glyph glyph-name="onequarter" unicode="¼" horiz-adv-x="629" d="M255 365 L263 410 L238 417 L291 720 L240 720 C210 692 178 669 142 647 L166 600 C179 606 192 615 206 625 L169 417 L137 410 L129 365 L255 365 Z M109 -21 L668 732 L600 732 L42 -21 L109 -21 Z M571 -10 L582 52 L609 52 L618 107 L591 107 L613 230 L549 230 L527 107 L427 107 C476 171 531 256 568 330 L512 352 C471 275 419 193 361 118 L350 52 L516 52 L505 -10 L571 -10 Z " />
<glyph glyph-name="onehalf" unicode="½" horiz-adv-x="634" d="M255 365 L263 410 L238 417 L291 720 L240 720 C210 692 178 669 142 647 L166 600 C179 606 192 615 206 625 L169 417 L137 410 L129 365 L255 365 Z M109 -21 L668 732 L600 732 L42 -21 L109 -21 Z M603 -10 L621 93 L577 93 L563 52 L462 52 C580 123 647 182 647 273 C647 328 613 354 549 354 C505 354 462 345 423 324 L434 264 C460 280 493 293 521 293 C554 293 575 281 575 249 C575 169 454 99 376 55 L365 -10 L603 -10 Z " />
<glyph glyph-name="threequarters" unicode="¾" horiz-adv-x="634" d="M94 372 C124 360 156 356 191 356 C269 356 339 393 339 482 C339 515 325 541 296 550 C336 563 362 608 362 653 C362 701 331 729 260 729 C225 729 186 721 153 702 L161 647 C184 661 213 669 239 669 C271 669 295 660 295 629 C295 593 272 571 239 571 L201 571 L192 519 L229 519 C256 519 273 512 273 485 C273 435 237 415 195 415 C168 415 140 422 122 430 L94 372 Z M124 -21 L683 732 L615 732 L57 -21 L124 -21 Z M576 -10 L587 52 L614 52 L623 107 L596 107 L618 230 L554 230 L532 107 L432 107 C481 171 536 256 573 330 L517 352 C476 275 424 193 366 118 L355 52 L521 52 L510 -10 L576 -10 Z " />
<glyph glyph-name="questiondown" unicode="¿" horiz-adv-x="462" d="M290 486 L280 430 C272 383 248 371 186 346 C113 316 80 277 68 204 L61 162 C59 148 57 134 57 121 C57 30 121 -18 239 -18 C325 -18 392 4 439 48 L462 181 L381 181 L358 102 C330 80 297 68 257 68 C198 68 163 89 163 142 C163 151 164 160 166 170 L170 193 C180 248 198 265 248 284 C337 318 367 340 381 415 L394 486 L290 486 Z M321 710 L294 554 L416 554 L443 710 L321 710 Z " />
<glyph glyph-name="Agrave" unicode="À" horiz-adv-x="637" d="M618 0 L630 73 L577 84 L532 710 L364 710 L87 84 L31 73 L19 0 L224 0 L236 73 L184 84 L249 233 L439 233 L448 84 L388 73 L376 0 L618 0 Z M436 308 L280 308 L415 616 L436 308 Z M524 764 L464 950 L354 950 L453 764 L524 764 Z " />
<glyph glyph-name="Aacute" unicode="Á" horiz-adv-x="637" d="M618 0 L630 73 L577 84 L532 710 L364 710 L87 84 L31 73 L19 0 L224 0 L236 73 L184 84 L249 233 L439 233 L448 84 L388 73 L376 0 L618 0 Z M436 308 L280 308 L415 616 L436 308 Z M455 764 L617 950 L504 950 L381 764 L455 764 Z " />
<glyph glyph-name="Acircumflex" unicode="Â" horiz-adv-x="637" d="M618 0 L630 73 L577 84 L532 710 L364 710 L87 84 L31 73 L19 0 L224 0 L236 73 L184 84 L249 233 L439 233 L448 84 L388 73 L376 0 L618 0 Z M436 308 L280 308 L415 616 L436 308 Z M651 763 L532 939 L443 939 L261 763 L351 763 L479 887 L565 763 L651 763 Z " />
<glyph glyph-name="Atilde" unicode="Ã" horiz-adv-x="637" d="M618 0 L630 73 L577 84 L532 710 L364 710 L87 84 L31 73 L19 0 L224 0 L236 73 L184 84 L249 233 L439 233 L448 84 L388 73 L376 0 L618 0 Z M436 308 L280 308 L415 616 L436 308 Z M647 885 C613 852 582 835 545 835 C489 835 454 885 388 885 C345 885 315 866 291 842 L278 764 C311 798 342 815 380 815 C432 815 468 764 537 764 C579 764 610 784 634 808 L647 885 Z " />
<glyph glyph-name="Adieresis" unicode="Ä" horiz-adv-x="637" d="M618 0 L630 73 L577 84 L532 710 L364 710 L87 84 L31 73 L19 0 L224 0 L236 73 L184 84 L249 233 L439 233 L448 84 L388 73 L376 0 L618 0 Z M436 308 L280 308 L415 616 L436 308 Z M396 774 L418 903 L303 903 L281 774 L396 774 Z M627 774 L649 903 L534 903 L512 774 L627 774 Z " />
<glyph glyph-name="Aring" unicode="Å" horiz-adv-x="637" d="M618 0 L630 73 L577 84 L532 710 L364 710 L87 84 L31 73 L19 0 L224 0 L236 73 L184 84 L249 233 L439 233 L448 84 L388 73 L376 0 L618 0 Z M436 308 L280 308 L415 616 L436 308 Z M584 870 C584 921 556 950 490 950 C400 950 359 901 359 825 C359 772 390 745 454 745 C552 745 584 794 584 870 L584 870 Z M533 861 C533 815 512 789 462 789 C428 789 411 804 411 834 C411 879 436 907 482 907 C517 907 533 891 533 861 L533 861 Z " />
<glyph glyph-name="AE" unicode="Æ" horiz-adv-x="892" d="M856 0 L894 219 L819 219 L778 94 L558 94 L599 327 L778 327 L778 263 L843 263 L880 474 L816 474 L794 410 L614 410 L651 620 L869 620 L864 513 L940 513 L975 710 L357 710 L87 84 L32 74 L19 0 L241 0 L254 74 L200 84 L264 233 L460 233 L433 84 L373 74 L360 0 L856 0 Z M473 308 L295 308 L428 620 L528 620 L473 308 Z " />
<glyph glyph-name="Ccedilla" unicode="Ç" horiz-adv-x="555" d="M561 198 L468 198 L444 112 C411 81 366 71 324 71 C235 71 197 99 197 184 C197 210 201 242 208 281 L234 428 C259 570 309 638 424 638 C466 638 508 627 528 598 L522 512 L615 512 L641 661 C605 708 525 728 450 728 C240 728 146 655 106 428 L80 282 C73 241 69 205 69 174 C69 31 146 -18 318 -18 C393 -18 473 0 536 54 L561 198 Z M239 -240 C278 -209 313 -168 325 -129 L342 -31 L241 -31 L223 -134 L272 -134 C257 -162 234 -189 209 -210 L239 -240 Z " />
<glyph glyph-name="Egrave" unicode="È" horiz-adv-x="568" d="M532 0 L570 219 L496 219 L456 94 L230 94 L271 327 L454 327 L457 263 L520 263 L557 474 L494 474 L469 410 L286 410 L323 620 L547 620 L542 513 L616 513 L651 710 L157 710 L144 636 L200 625 L104 85 L44 73 L32 0 L532 0 Z M499 764 L439 950 L329 950 L428 764 L499 764 Z " />
<glyph glyph-name="Eacute" unicode="É" horiz-adv-x="568" d="M532 0 L570 219 L496 219 L456 94 L230 94 L271 327 L454 327 L457 263 L520 263 L557 474 L494 474 L469 410 L286 410 L323 620 L547 620 L542 513 L616 513 L651 710 L157 710 L144 636 L200 625 L104 85 L44 73 L32 0 L532 0 Z M430 764 L592 950 L479 950 L356 764 L430 764 Z " />
<glyph glyph-name="Ecircumflex" unicode="Ê" horiz-adv-x="568" d="M532 0 L570 219 L496 219 L456 94 L230 94 L271 327 L454 327 L457 263 L520 263 L557 474 L494 474 L469 410 L286 410 L323 620 L547 620 L542 513 L616 513 L651 710 L157 710 L144 636 L200 625 L104 85 L44 73 L32 0 L532 0 Z M613 763 L494 939 L405 939 L223 763 L313 763 L441 887 L527 763 L613 763 Z " />
<glyph glyph-name="Edieresis" unicode="Ë" horiz-adv-x="568" d="M532 0 L570 219 L496 219 L456 94 L230 94 L271 327 L454 327 L457 263 L520 263 L557 474 L494 474 L469 410 L286 410 L323 620 L547 620 L542 513 L616 513 L651 710 L157 710 L144 636 L200 625 L104 85 L44 73 L32 0 L532 0 Z M372 774 L394 903 L279 903 L257 774 L372 774 Z M603 774 L625 903 L510 903 L488 774 L603 774 Z " />
<glyph glyph-name="Igrave" unicode="Ì" horiz-adv-x="306" d="M274 0 L286 73 L230 85 L326 625 L386 636 L399 710 L157 710 L144 636 L200 625 L104 85 L44 73 L32 0 L274 0 Z M359 764 L299 950 L189 950 L288 764 L359 764 Z " />
<glyph glyph-name="Iacute" unicode="Í" horiz-adv-x="306" d="M274 0 L286 73 L230 85 L326 625 L386 636 L399 710 L157 710 L144 636 L200 625 L104 85 L44 73 L32 0 L274 0 Z M289 764 L451 950 L338 950 L215 764 L289 764 Z " />
<glyph glyph-name="Icircumflex" unicode="Î" horiz-adv-x="306" d="M274 0 L286 73 L230 85 L326 625 L386 636 L399 710 L157 710 L144 636 L200 625 L104 85 L44 73 L32 0 L274 0 Z M483 763 L364 939 L275 939 L93 763 L183 763 L311 887 L397 763 L483 763 Z " />
<glyph glyph-name="Idieresis" unicode="Ï" horiz-adv-x="306" d="M274 0 L286 73 L230 85 L326 625 L386 636 L399 710 L157 710 L144 636 L200 625 L104 85 L44 73 L32 0 L274 0 Z M232 774 L254 903 L139 903 L117 774 L232 774 Z M463 774 L485 903 L370 903 L348 774 L463 774 Z " />
<glyph glyph-name="Eth" unicode="Ð" horiz-adv-x="618" d="M337 0 C515 0 599 74 633 269 L663 441 C669 477 673 508 673 536 C673 660 607 710 462 710 L157 710 L144 636 L200 625 L162 410 L104 410 L89 327 L147 327 L104 85 L44 73 L32 0 L337 0 Z M506 265 C484 144 438 88 352 88 L231 88 L273 327 L396 327 L411 410 L288 410 L325 621 L446 621 C512 621 545 598 545 519 C545 496 542 467 536 432 L506 265 Z " />
<glyph glyph-name="Ntilde" unicode="Ñ" horiz-adv-x="664" d="M581 0 L691 625 L749 636 L762 710 L553 710 L540 636 L593 625 L520 211 L359 710 L157 710 L144 636 L200 625 L104 85 L45 74 L32 0 L252 0 L265 74 L202 85 L281 530 L477 0 L581 0 Z M661 885 C627 852 596 835 559 835 C503 835 468 885 402 885 C359 885 329 866 305 842 L292 764 C325 798 356 815 394 815 C446 815 482 764 551 764 C593 764 624 784 648 808 L661 885 Z " />
<glyph glyph-name="Ograve" unicode="Ò" horiz-adv-x="607" d="M650 426 C656 461 659 493 659 522 C659 664 585 728 431 728 C245 728 144 635 107 426 L82 284 C75 248 72 215 72 186 C72 45 146 -18 299 -18 C484 -18 588 75 625 284 L650 426 Z M499 284 C472 132 417 73 315 73 C237 73 197 96 197 185 C197 212 201 244 208 284 L233 426 C260 578 313 636 415 636 C494 636 533 609 533 519 C533 493 530 463 524 426 L499 284 Z M509 764 L449 950 L339 950 L438 764 L509 764 Z " />
<glyph glyph-name="Oacute" unicode="Ó" horiz-adv-x="607" d="M650 426 C656 461 659 493 659 522 C659 664 585 728 431 728 C245 728 144 635 107 426 L82 284 C75 248 72 215 72 186 C72 45 146 -18 299 -18 C484 -18 588 75 625 284 L650 426 Z M499 284 C472 132 417 73 315 73 C237 73 197 96 197 185 C197 212 201 244 208 284 L233 426 C260 578 313 636 415 636 C494 636 533 609 533 519 C533 493 530 463 524 426 L499 284 Z M440 764 L602 950 L489 950 L366 764 L440 764 Z " />
<glyph glyph-name="Ocircumflex" unicode="Ô" horiz-adv-x="607" d="M650 426 C656 461 659 493 659 522 C659 664 585 728 431 728 C245 728 144 635 107 426 L82 284 C75 248 72 215 72 186 C72 45 146 -18 299 -18 C484 -18 588 75 625 284 L650 426 Z M499 284 C472 132 417 73 315 73 C237 73 197 96 197 185 C197 212 201 244 208 284 L233 426 C260 578 313 636 415 636 C494 636 533 609 533 519 C533 493 530 463 524 426 L499 284 Z M632 763 L513 939 L424 939 L242 763 L332 763 L460 887 L546 763 L632 763 Z " />
<glyph glyph-name="Otilde" unicode="Õ" horiz-adv-x="607" d="M650 426 C656 461 659 493 659 522 C659 664 585 728 431 728 C245 728 144 635 107 426 L82 284 C75 248 72 215 72 186 C72 45 146 -18 299 -18 C484 -18 588 75 625 284 L650 426 Z M499 284 C472 132 417 73 315 73 C237 73 197 96 197 185 C197 212 201 244 208 284 L233 426 C260 578 313 636 415 636 C494 636 533 609 533 519 C533 493 530 463 524 426 L499 284 Z M632 885 C598 852 567 835 530 835 C474 835 439 885 373 885 C330 885 300 866 276 842 L263 764 C296 798 327 815 365 815 C417 815 453 764 522 764 C564 764 595 784 619 808 L632 885 Z " />
<glyph glyph-name="Odieresis" unicode="Ö" horiz-adv-x="607" d="M650 426 C656 461 659 493 659 522 C659 664 585 728 431 728 C245 728 144 635 107 426 L82 284 C75 248 72 215 72 186 C72 45 146 -18 299 -18 C484 -18 588 75 625 284 L650 426 Z M499 284 C472 132 417 73 315 73 C237 73 197 96 197 185 C197 212 201 244 208 284 L233 426 C260 578 313 636 415 636 C494 636 533 609 533 519 C533 493 530 463 524 426 L499 284 Z M381 774 L403 903 L288 903 L266 774 L381 774 Z M612 774 L634 903 L519 903 L497 774 L612 774 Z " />
<glyph glyph-name="multiply" unicode="×" horiz-adv-x="630" d="M559 220 L438 367 L610 513 L561 573 L389 428 L269 573 L197 512 L316 367 L144 220 L195 160 L367 306 L488 159 L559 220 Z " />
<glyph glyph-name="Oslash" unicode="Ø" horiz-adv-x="607" d="M115 -75 L170 4 C204 -10 247 -18 299 -18 C484 -18 588 75 625 284 L650 426 C656 461 659 493 659 521 C659 578 647 623 623 656 L713 785 L613 785 L558 706 C524 721 482 728 431 728 C245 728 144 635 107 426 L82 284 C76 248 72 215 72 185 C72 130 83 87 107 55 L17 -75 L115 -75 Z M499 284 C472 132 417 73 315 73 C279 73 251 78 231 92 L533 526 C533 499 531 466 524 426 L499 284 Z M208 284 L233 426 C260 578 313 636 415 636 C450 636 477 630 496 617 L197 185 C197 212 201 244 208 284 L208 284 Z " />
<glyph glyph-name="Ugrave" unicode="Ù" horiz-adv-x="677" d="M528 227 C510 128 468 82 359 82 C277 82 238 101 238 171 C238 187 240 205 244 227 L314 625 L372 636 L385 710 L150 710 L137 636 L187 625 L119 241 C113 205 109 173 109 145 C109 28 170 -18 332 -18 C554 -18 609 53 642 241 L710 625 L764 636 L777 710 L558 710 L545 636 L598 625 L528 227 Z M544 764 L484 950 L374 950 L473 764 L544 764 Z " />
<glyph glyph-name="Uacute" unicode="Ú" horiz-adv-x="677" d="M528 227 C510 128 468 82 359 82 C277 82 238 101 238 171 C238 187 240 205 244 227 L314 625 L372 636 L385 710 L150 710 L137 636 L187 625 L119 241 C113 205 109 173 109 145 C109 28 170 -18 332 -18 C554 -18 609 53 642 241 L710 625 L764 636 L777 710 L558 710 L545 636 L598 625 L528 227 Z M475 764 L637 950 L524 950 L401 764 L475 764 Z " />
<glyph glyph-name="Ucircumflex" unicode="Û" horiz-adv-x="677" d="M528 227 C510 128 468 82 359 82 C277 82 238 101 238 171 C238 187 240 205 244 227 L314 625 L372 636 L385 710 L150 710 L137 636 L187 625 L119 241 C113 205 109 173 109 145 C109 28 170 -18 332 -18 C554 -18 609 53 642 241 L710 625 L764 636 L777 710 L558 710 L545 636 L598 625 L528 227 Z M667 763 L548 939 L459 939 L277 763 L367 763 L495 887 L581 763 L667 763 Z " />
<glyph glyph-name="Udieresis" unicode="Ü" horiz-adv-x="677" d="M528 227 C510 128 468 82 359 82 C277 82 238 101 238 171 C238 187 240 205 244 227 L314 625 L372 636 L385 710 L150 710 L137 636 L187 625 L119 241 C113 205 109 173 109 145 C109 28 170 -18 332 -18 C554 -18 609 53 642 241 L710 625 L764 636 L777 710 L558 710 L545 636 L598 625 L528 227 Z M416 774 L438 903 L323 903 L301 774 L416 774 Z M647 774 L669 903 L554 903 L532 774 L647 774 Z " />
<glyph glyph-name="Yacute" unicode="Ý" horiz-adv-x="592" d="M423 0 L436 74 L372 85 L407 282 L630 625 L684 636 L697 710 L504 710 L491 636 L538 625 L376 371 L307 625 L362 636 L375 710 L144 710 L131 636 L180 625 L281 282 L246 85 L180 74 L167 0 L423 0 Z M442 764 L604 950 L491 950 L368 764 L442 764 Z " />
<glyph glyph-name="Thorn" unicode="Þ" horiz-adv-x="577" d="M273 0 L285 73 L228 85 L239 142 L381 142 C522 142 588 201 615 354 C620 381 622 406 622 427 C622 526 570 565 455 565 L313 565 L324 625 L385 636 L398 710 L157 710 L144 636 L200 625 L104 85 L44 73 L32 0 L273 0 Z M252 220 L300 488 L422 488 C475 488 501 473 501 417 C501 400 498 379 494 354 C477 260 443 220 374 220 L252 220 Z " />
<glyph glyph-name="germandbls" unicode="ß" horiz-adv-x="698" d="M598 145 C589 93 553 64 501 64 C467 64 439 72 414 90 L419 165 L335 165 L312 37 C355 -4 417 -18 480 -18 C574 -18 671 11 692 129 C706 206 707 220 707 232 C707 353 534 334 534 400 C534 406 534 412 536 421 L564 585 C567 601 568 615 568 627 C568 714 502 728 398 728 C279 728 204 710 182 585 L93 84 L34 74 L21 0 L243 0 L256 74 L207 84 L295 580 C304 630 336 647 384 647 C430 647 451 641 451 606 C451 599 450 591 448 581 L420 422 C418 412 418 403 418 394 C418 256 605 273 605 196 C605 186 603 174 598 145 L598 145 Z " />
<glyph glyph-name="agrave" unicode="à" horiz-adv-x="545" d="M537 69 C528 58 519 54 507 54 C492 54 482 60 482 79 C482 83 482 87 483 92 L533 379 C536 396 538 412 538 427 C538 508 485 540 363 540 C286 540 205 528 134 485 L155 403 C212 437 271 448 328 448 C389 448 423 435 423 389 C423 383 422 375 421 367 L408 292 C366 309 310 325 231 325 C127 325 71 278 54 184 C43 125 42 111 42 98 C42 28 80 -18 176 -18 C267 -18 341 21 380 76 C379 70 379 65 379 59 C379 5 408 -17 459 -17 C490 -17 514 -8 531 8 L537 69 Z M380 131 C341 94 289 64 226 64 C177 64 157 78 157 117 C157 126 158 136 164 174 C172 228 203 257 262 257 C323 257 370 244 397 232 L380 131 Z M446 580 L386 766 L276 766 L375 580 L446 580 Z " />
<glyph glyph-name="aacute" unicode="á" horiz-adv-x="545" d="M537 69 C528 58 519 54 507 54 C492 54 482 60 482 79 C482 83 482 87 483 92 L533 379 C536 396 538 412 538 427 C538 508 485 540 363 540 C286 540 205 528 134 485 L155 403 C212 437 271 448 328 448 C389 448 423 435 423 389 C423 383 422 375 421 367 L408 292 C366 309 310 325 231 325 C127 325 71 278 54 184 C43 125 42 111 42 98 C42 28 80 -18 176 -18 C267 -18 341 21 380 76 C379 70 379 65 379 59 C379 5 408 -17 459 -17 C490 -17 514 -8 531 8 L537 69 Z M380 131 C341 94 289 64 226 64 C177 64 157 78 157 117 C157 126 158 136 164 174 C172 228 203 257 262 257 C323 257 370 244 397 232 L380 131 Z M377 580 L539 766 L426 766 L303 580 L377 580 Z " />
<glyph glyph-name="acircumflex" unicode="â" horiz-adv-x="545" d="M537 69 C528 58 519 54 507 54 C492 54 482 60 482 79 C482 83 482 87 483 92 L533 379 C536 396 538 412 538 427 C538 508 485 540 363 540 C286 540 205 528 134 485 L155 403 C212 437 271 448 328 448 C389 448 423 435 423 389 C423 383 422 375 421 367 L408 292 C366 309 310 325 231 325 C127 325 71 278 54 184 C43 125 42 111 42 98 C42 28 80 -18 176 -18 C267 -18 341 21 380 76 C379 70 379 65 379 59 C379 5 408 -17 459 -17 C490 -17 514 -8 531 8 L537 69 Z M380 131 C341 94 289 64 226 64 C177 64 157 78 157 117 C157 126 158 136 164 174 C172 228 203 257 262 257 C323 257 370 244 397 232 L380 131 Z M569 579 L450 755 L361 755 L179 579 L269 579 L397 703 L483 579 L569 579 Z " />
<glyph glyph-name="atilde" unicode="ã" horiz-adv-x="545" d="M537 69 C528 58 519 54 507 54 C492 54 482 60 482 79 C482 83 482 87 483 92 L533 379 C536 396 538 412 538 427 C538 508 485 540 363 540 C286 540 205 528 134 485 L155 403 C212 437 271 448 328 448 C389 448 423 435 423 389 C423 383 422 375 421 367 L408 292 C366 309 310 325 231 325 C127 325 71 278 54 184 C43 125 42 111 42 98 C42 28 80 -18 176 -18 C267 -18 341 21 380 76 C379 70 379 65 379 59 C379 5 408 -17 459 -17 C490 -17 514 -8 531 8 L537 69 Z M380 131 C341 94 289 64 226 64 C177 64 157 78 157 117 C157 126 158 136 164 174 C172 228 203 257 262 257 C323 257 370 244 397 232 L380 131 Z M569 701 C535 668 504 651 467 651 C411 651 376 701 310 701 C267 701 237 682 213 658 L200 580 C233 614 264 631 302 631 C354 631 390 580 459 580 C501 580 532 600 556 624 L569 701 Z " />
<glyph glyph-name="adieresis" unicode="ä" horiz-adv-x="545" d="M537 69 C528 58 519 54 507 54 C492 54 482 60 482 79 C482 83 482 87 483 92 L533 379 C536 396 538 412 538 427 C538 508 485 540 363 540 C286 540 205 528 134 485 L155 403 C212 437 271 448 328 448 C389 448 423 435 423 389 C423 383 422 375 421 367 L408 292 C366 309 310 325 231 325 C127 325 71 278 54 184 C43 125 42 111 42 98 C42 28 80 -18 176 -18 C267 -18 341 21 380 76 C379 70 379 65 379 59 C379 5 408 -17 459 -17 C490 -17 514 -8 531 8 L537 69 Z M380 131 C341 94 289 64 226 64 C177 64 157 78 157 117 C157 126 158 136 164 174 C172 228 203 257 262 257 C323 257 370 244 397 232 L380 131 Z M318 590 L340 719 L225 719 L203 590 L318 590 Z M549 590 L571 719 L456 719 L434 590 L549 590 Z " />
<glyph glyph-name="aring" unicode="å" horiz-adv-x="545" d="M537 69 C528 58 519 54 507 54 C492 54 482 60 482 79 C482 83 482 87 483 92 L533 379 C536 396 538 412 538 427 C538 508 485 540 363 540 C286 540 205 528 134 485 L155 403 C212 437 271 448 328 448 C389 448 423 435 423 389 C423 383 422 375 421 367 L408 292 C366 309 310 325 231 325 C127 325 71 278 54 184 C43 125 42 111 42 98 C42 28 80 -18 176 -18 C267 -18 341 21 380 76 C379 70 379 65 379 59 C379 5 408 -17 459 -17 C490 -17 514 -8 531 8 L537 69 Z M380 131 C341 94 289 64 226 64 C177 64 157 78 157 117 C157 126 158 136 164 174 C172 228 203 257 262 257 C323 257 370 244 397 232 L380 131 Z M502 686 C502 737 474 766 408 766 C318 766 277 717 277 641 C277 588 308 561 372 561 C470 561 502 610 502 686 L502 686 Z M451 677 C451 631 430 605 380 605 C346 605 329 620 329 650 C329 695 354 723 400 723 C435 723 451 707 451 677 L451 677 Z " />
<glyph glyph-name="ae" unicode="æ" horiz-adv-x="833" d="M843 230 L854 290 C861 327 864 360 864 389 C864 488 819 539 679 539 C600 539 538 515 506 461 C498 519 448 539 359 539 C285 539 202 526 133 485 L155 403 C211 436 270 448 328 448 C388 448 423 440 423 392 C423 385 423 376 421 367 L408 292 C363 309 307 325 231 325 C127 325 71 278 54 184 C43 125 42 111 42 98 C42 28 80 -18 176 -18 C252 -18 351 13 409 92 C430 23 485 -17 595 -17 C702 -17 769 16 810 71 L778 135 C748 98 700 73 622 73 C538 73 503 105 503 177 C503 193 505 210 508 230 L843 230 Z M381 140 C349 99 289 64 226 64 C177 64 156 77 156 115 C156 124 157 135 164 174 C173 222 203 257 262 257 C323 257 370 244 397 232 L381 140 Z M521 304 C536 392 567 460 665 460 C737 460 760 435 760 381 C760 360 756 334 751 304 L521 304 Z " />
<glyph glyph-name="ccedilla" unicode="ç" horiz-adv-x="482" d="M446 162 C406 105 346 79 287 79 C209 79 174 107 174 172 C174 185 175 199 178 215 L197 320 C211 400 258 454 339 454 C374 454 407 445 426 420 L420 341 L507 341 L530 474 C490 525 423 540 348 540 C190 540 106 451 84 323 L64 208 C60 188 59 168 59 151 C59 43 124 -18 261 -18 C345 -18 423 19 479 95 L446 162 Z M202 -240 C241 -209 276 -168 288 -129 L305 -31 L204 -31 L186 -134 L235 -134 C220 -162 197 -189 172 -210 L202 -240 Z " />
<glyph glyph-name="egrave" unicode="è" horiz-adv-x="505" d="M515 230 L526 290 C533 327 536 360 536 389 C536 488 491 540 350 540 C183 540 110 461 81 298 L67 220 C63 199 61 179 61 160 C61 54 121 -18 263 -18 C372 -18 441 16 482 71 L453 139 C412 96 370 73 294 73 C211 73 174 99 174 172 C174 189 176 208 180 230 L515 230 Z M193 304 C209 394 239 460 338 460 C410 460 432 433 432 380 C432 359 428 334 423 304 L193 304 Z M426 580 L366 766 L256 766 L355 580 L426 580 Z " />
<glyph glyph-name="eacute" unicode="é" horiz-adv-x="505" d="M515 230 L526 290 C533 327 536 360 536 389 C536 488 491 540 350 540 C183 540 110 461 81 298 L67 220 C63 199 61 179 61 160 C61 54 121 -18 263 -18 C372 -18 441 16 482 71 L453 139 C412 96 370 73 294 73 C211 73 174 99 174 172 C174 189 176 208 180 230 L515 230 Z M193 304 C209 394 239 460 338 460 C410 460 432 433 432 380 C432 359 428 334 423 304 L193 304 Z M357 580 L519 766 L406 766 L283 580 L357 580 Z " />
<glyph glyph-name="ecircumflex" unicode="ê" horiz-adv-x="505" d="M515 230 L526 290 C533 327 536 360 536 389 C536 488 491 540 350 540 C183 540 110 461 81 298 L67 220 C63 199 61 179 61 160 C61 54 121 -18 263 -18 C372 -18 441 16 482 71 L453 139 C412 96 370 73 294 73 C211 73 174 99 174 172 C174 189 176 208 180 230 L515 230 Z M193 304 C209 394 239 460 338 460 C410 460 432 433 432 380 C432 359 428 334 423 304 L193 304 Z M549 579 L430 755 L341 755 L159 579 L249 579 L377 703 L463 579 L549 579 Z " />
<glyph glyph-name="edieresis" unicode="ë" horiz-adv-x="505" d="M515 230 L526 290 C533 327 536 360 536 389 C536 488 491 540 350 540 C183 540 110 461 81 298 L67 220 C63 199 61 179 61 160 C61 54 121 -18 263 -18 C372 -18 441 16 482 71 L453 139 C412 96 370 73 294 73 C211 73 174 99 174 172 C174 189 176 208 180 230 L515 230 Z M193 304 C209 394 239 460 338 460 C410 460 432 433 432 380 C432 359 428 334 423 304 L193 304 Z M298 590 L320 719 L205 719 L183 590 L298 590 Z M529 590 L551 719 L436 719 L414 590 L529 590 Z " />
<glyph glyph-name="igrave" unicode="ì" horiz-adv-x="282" d="M258 0 L271 74 L214 85 L292 526 L118 526 L105 452 L161 441 L98 85 L39 74 L26 0 L258 0 Z M315 580 L255 766 L145 766 L244 580 L315 580 Z " />
<glyph glyph-name="iacute" unicode="í" horiz-adv-x="282" d="M258 0 L271 74 L214 85 L292 526 L118 526 L105 452 L161 441 L98 85 L39 74 L26 0 L258 0 Z M245 580 L407 766 L294 766 L171 580 L245 580 Z " />
<glyph glyph-name="icircumflex" unicode="î" horiz-adv-x="350" d="M291 0 L304 74 L247 85 L325 526 L151 526 L138 452 L194 441 L131 85 L72 74 L59 0 L291 0 Z M471 579 L352 755 L263 755 L81 579 L171 579 L299 703 L385 579 L471 579 Z " />
<glyph glyph-name="idieresis" unicode="ï" horiz-adv-x="330" d="M281 0 L294 74 L237 85 L315 526 L141 526 L128 452 L184 441 L121 85 L62 74 L49 0 L281 0 Z M210 590 L232 719 L117 719 L95 590 L210 590 Z M441 590 L463 719 L348 719 L326 590 L441 590 Z " />
<glyph glyph-name="eth" unicode="ð" horiz-adv-x="529" d="M606 652 L590 718 L494 681 C479 703 464 724 447 744 L362 715 C378 696 393 673 404 646 L269 593 L286 527 L427 583 C439 541 446 494 446 448 C446 434 445 420 444 407 C429 441 394 465 322 465 C184 465 105 440 78 290 L60 190 C56 169 54 149 54 132 C54 25 123 -18 261 -18 C424 -18 508 40 534 190 L548 271 C557 324 562 373 562 419 C562 495 549 562 526 620 L606 652 Z M420 183 C406 107 358 69 277 69 C204 69 173 91 173 152 C173 168 175 185 179 206 L193 285 C206 360 251 387 330 387 C408 387 437 351 438 285 L420 183 Z " />
<glyph glyph-name="ntilde" unicode="ñ" horiz-adv-x="643" d="M619 0 L632 74 L575 85 L631 398 C633 411 634 424 634 436 C634 506 590 540 502 540 C406 540 341 516 272 454 L280 526 L118 526 L105 452 L161 441 L98 85 L39 74 L26 0 L257 0 L270 74 L214 85 L267 383 C318 432 375 447 438 447 C484 447 512 437 512 397 C512 390 511 382 510 374 L459 85 L401 74 L388 0 L619 0 Z M618 701 C584 668 553 651 516 651 C460 651 425 701 359 701 C316 701 286 682 262 658 L249 580 C282 614 313 631 351 631 C403 631 439 580 508 580 C550 580 581 600 605 624 L618 701 Z " />
<glyph glyph-name="ograve" unicode="ò" horiz-adv-x="522" d="M549 315 C553 340 556 363 556 383 C556 491 493 540 356 540 C193 540 111 471 83 315 L64 208 C59 183 57 160 57 139 C57 30 120 -18 257 -18 C420 -18 502 51 530 208 L549 315 Z M418 215 C400 118 363 71 273 71 C203 71 171 87 171 152 C171 169 173 190 178 215 L195 307 C214 408 250 451 340 451 C410 451 442 435 442 370 C442 353 439 332 435 307 L418 215 Z M434 580 L374 766 L264 766 L363 580 L434 580 Z " />
<glyph glyph-name="oacute" unicode="ó" horiz-adv-x="522" d="M549 315 C553 340 556 363 556 383 C556 491 493 540 356 540 C193 540 111 471 83 315 L64 208 C59 183 57 160 57 139 C57 30 120 -18 257 -18 C420 -18 502 51 530 208 L549 315 Z M418 215 C400 118 363 71 273 71 C203 71 171 87 171 152 C171 169 173 190 178 215 L195 307 C214 408 250 451 340 451 C410 451 442 435 442 370 C442 353 439 332 435 307 L418 215 Z M365 580 L527 766 L414 766 L291 580 L365 580 Z " />
<glyph glyph-name="ocircumflex" unicode="ô" horiz-adv-x="522" d="M549 315 C553 340 556 363 556 383 C556 491 493 540 356 540 C193 540 111 471 83 315 L64 208 C59 183 57 160 57 139 C57 30 120 -18 257 -18 C420 -18 502 51 530 208 L549 315 Z M418 215 C400 118 363 71 273 71 C203 71 171 87 171 152 C171 169 173 190 178 215 L195 307 C214 408 250 451 340 451 C410 451 442 435 442 370 C442 353 439 332 435 307 L418 215 Z M558 579 L439 755 L350 755 L168 579 L258 579 L386 703 L472 579 L558 579 Z " />
<glyph glyph-name="otilde" unicode="õ" horiz-adv-x="522" d="M549 315 C553 340 556 363 556 383 C556 491 493 540 356 540 C193 540 111 471 83 315 L64 208 C59 183 57 160 57 139 C57 30 120 -18 257 -18 C420 -18 502 51 530 208 L549 315 Z M418 215 C400 118 363 71 273 71 C203 71 171 87 171 152 C171 169 173 190 178 215 L195 307 C214 408 250 451 340 451 C410 451 442 435 442 370 C442 353 439 332 435 307 L418 215 Z M558 701 C524 668 493 651 456 651 C400 651 365 701 299 701 C256 701 226 682 202 658 L189 580 C222 614 253 631 291 631 C343 631 379 580 448 580 C490 580 521 600 545 624 L558 701 Z " />
<glyph glyph-name="odieresis" unicode="ö" horiz-adv-x="522" d="M549 315 C553 340 556 363 556 383 C556 491 493 540 356 540 C193 540 111 471 83 315 L64 208 C59 183 57 160 57 139 C57 30 120 -18 257 -18 C420 -18 502 51 530 208 L549 315 Z M418 215 C400 118 363 71 273 71 C203 71 171 87 171 152 C171 169 173 190 178 215 L195 307 C214 408 250 451 340 451 C410 451 442 435 442 370 C442 353 439 332 435 307 L418 215 Z M307 590 L329 719 L214 719 L192 590 L307 590 Z M538 590 L560 719 L445 719 L423 590 L538 590 Z " />
<glyph glyph-name="divide" unicode="÷" horiz-adv-x="605" d="M608 325 L623 410 L125 410 L110 325 L608 325 Z M448 480 L476 642 L352 642 L324 480 L448 480 Z M380 93 L408 255 L284 255 L256 93 L380 93 Z " />
<glyph glyph-name="oslash" unicode="ø" horiz-adv-x="522" d="M111 -75 L160 -7 C187 -14 219 -18 257 -18 C420 -18 502 51 530 208 L549 315 C553 339 555 361 555 381 C555 429 543 465 519 491 L599 601 L500 601 L448 530 C422 537 392 540 356 540 C193 540 111 471 83 315 L64 208 C59 183 57 160 57 139 C57 94 68 58 91 33 L13 -75 L111 -75 Z M418 215 C400 118 363 71 273 71 C252 71 234 72 220 76 L441 382 C441 361 440 338 435 307 L418 215 Z M178 215 L195 307 C214 408 250 451 340 451 C359 451 375 450 389 447 L171 145 C171 163 173 186 178 215 L178 215 Z " />
<glyph glyph-name="ugrave" unicode="ù" horiz-adv-x="587" d="M447 163 C437 106 401 75 315 75 C242 75 209 88 209 136 C209 144 210 153 212 163 L261 441 L318 452 L331 526 L112 526 L99 452 L146 441 L97 162 C94 145 92 130 92 116 C92 21 159 -18 293 -18 C445 -18 523 34 546 162 L595 441 L646 452 L659 526 L455 526 L442 452 L496 441 L447 163 Z M467 580 L407 766 L297 766 L396 580 L467 580 Z " />
<glyph glyph-name="uacute" unicode="ú" horiz-adv-x="587" d="M447 163 C437 106 401 75 315 75 C242 75 209 88 209 136 C209 144 210 153 212 163 L261 441 L318 452 L331 526 L112 526 L99 452 L146 441 L97 162 C94 145 92 130 92 116 C92 21 159 -18 293 -18 C445 -18 523 34 546 162 L595 441 L646 452 L659 526 L455 526 L442 452 L496 441 L447 163 Z M398 580 L560 766 L447 766 L324 580 L398 580 Z " />
<glyph glyph-name="ucircumflex" unicode="û" horiz-adv-x="587" d="M447 163 C437 106 401 75 315 75 C242 75 209 88 209 136 C209 144 210 153 212 163 L261 441 L318 452 L331 526 L112 526 L99 452 L146 441 L97 162 C94 145 92 130 92 116 C92 21 159 -18 293 -18 C445 -18 523 34 546 162 L595 441 L646 452 L659 526 L455 526 L442 452 L496 441 L447 163 Z M590 579 L471 755 L382 755 L200 579 L290 579 L418 703 L504 579 L590 579 Z " />
<glyph glyph-name="udieresis" unicode="ü" horiz-adv-x="587" d="M447 163 C437 106 401 75 315 75 C242 75 209 88 209 136 C209 144 210 153 212 163 L261 441 L318 452 L331 526 L112 526 L99 452 L146 441 L97 162 C94 145 92 130 92 116 C92 21 159 -18 293 -18 C445 -18 523 34 546 162 L595 441 L646 452 L659 526 L455 526 L442 452 L496 441 L447 163 Z M339 590 L361 719 L246 719 L224 590 L339 590 Z M570 590 L592 719 L477 719 L455 590 L570 590 Z " />
<glyph glyph-name="yacute" unicode="ý" horiz-adv-x="568" d="M97 -138 C57 -138 37 -127 20 -107 L-24 -191 C-3 -222 34 -238 84 -238 C198 -238 253 -160 323 -31 L580 443 L631 451 L644 526 L451 526 L438 451 L484 443 L309 102 L261 443 L314 451 L327 526 L106 526 L93 451 L143 443 L223 -18 L206 -50 C171 -115 142 -138 97 -138 L97 -138 Z M398 580 L560 766 L447 766 L324 580 L398 580 Z " />
<glyph glyph-name="thorn" unicode="þ" horiz-adv-x="564" d="M203 -228 L216 -155 L149 -143 L183 48 C216 2 281 -17 343 -17 C482 -17 542 51 571 214 L589 315 C594 346 597 375 597 399 C597 495 555 540 457 540 C382 540 312 515 256 461 L301 719 L127 719 L114 645 L171 634 L34 -143 L-26 -155 L-39 -228 L203 -228 Z M457 213 C441 122 404 72 316 72 C269 72 221 91 197 125 L241 376 C281 423 336 448 395 448 C453 448 480 428 480 367 C480 349 477 328 473 302 L457 213 Z " />
<glyph glyph-name="ydieresis" unicode="ÿ" horiz-adv-x="568" d="M97 -138 C57 -138 37 -127 20 -107 L-24 -191 C-3 -222 34 -238 84 -238 C198 -238 253 -160 323 -31 L580 443 L631 451 L644 526 L451 526 L438 451 L484 443 L309 102 L261 443 L314 451 L327 526 L106 526 L93 451 L143 443 L223 -18 L206 -50 C171 -115 142 -138 97 -138 L97 -138 Z M340 590 L362 719 L247 719 L225 590 L340 590 Z M571 590 L593 719 L478 719 L456 590 L571 590 Z " />
<glyph glyph-name="Amacron" unicode="Ā" horiz-adv-x="637" d="M618 0 L630 73 L577 84 L532 710 L364 710 L87 84 L31 73 L19 0 L224 0 L236 73 L184 84 L249 233 L439 233 L448 84 L388 73 L376 0 L618 0 Z M436 308 L280 308 L415 616 L436 308 Z M631 777 L645 855 L306 855 L292 777 L631 777 Z " />
<glyph glyph-name="amacron" unicode="ā" horiz-adv-x="545" d="M537 69 C528 58 519 54 507 54 C492 54 482 60 482 79 C482 83 482 87 483 92 L533 379 C536 396 538 412 538 427 C538 508 485 540 363 540 C286 540 205 528 134 485 L155 403 C212 437 271 448 328 448 C389 448 423 435 423 389 C423 383 422 375 421 367 L408 292 C366 309 310 325 231 325 C127 325 71 278 54 184 C43 125 42 111 42 98 C42 28 80 -18 176 -18 C267 -18 341 21 380 76 C379 70 379 65 379 59 C379 5 408 -17 459 -17 C490 -17 514 -8 531 8 L537 69 Z M380 131 C341 94 289 64 226 64 C177 64 157 78 157 117 C157 126 158 136 164 174 C172 228 203 257 262 257 C323 257 370 244 397 232 L380 131 Z M546 593 L560 671 L221 671 L207 593 L546 593 Z " />
<glyph glyph-name="Abreve" unicode="Ă" horiz-adv-x="637" d="M618 0 L630 73 L577 84 L532 710 L364 710 L87 84 L31 73 L19 0 L224 0 L236 73 L184 84 L249 233 L439 233 L448 84 L388 73 L376 0 L618 0 Z M436 308 L280 308 L415 616 L436 308 Z M583 935 C568 863 523 825 465 825 C414 825 381 854 381 910 C381 918 382 926 383 935 L315 935 C312 920 311 906 311 893 C311 802 373 758 455 758 C549 758 635 816 656 935 L583 935 Z " />
<glyph glyph-name="abreve" unicode="ă" horiz-adv-x="545" d="M537 69 C528 58 519 54 507 54 C492 54 482 60 482 79 C482 83 482 87 483 92 L533 379 C536 396 538 412 538 427 C538 508 485 540 363 540 C286 540 205 528 134 485 L155 403 C212 437 271 448 328 448 C389 448 423 435 423 389 C423 383 422 375 421 367 L408 292 C366 309 310 325 231 325 C127 325 71 278 54 184 C43 125 42 111 42 98 C42 28 80 -18 176 -18 C267 -18 341 21 380 76 C379 70 379 65 379 59 C379 5 408 -17 459 -17 C490 -17 514 -8 531 8 L537 69 Z M380 131 C341 94 289 64 226 64 C177 64 157 78 157 117 C157 126 158 136 164 174 C172 228 203 257 262 257 C323 257 370 244 397 232 L380 131 Z M502 751 C487 679 442 641 384 641 C333 641 300 670 300 726 C300 734 301 742 302 751 L234 751 C231 736 230 722 230 709 C230 618 292 574 374 574 C468 574 554 632 575 751 L502 751 Z " />
<glyph glyph-name="Aogonek" unicode="Ą" horiz-adv-x="637" d="M533 -134 C513 -140 492 -144 466 -144 C414 -144 400 -128 400 -107 C400 -45 508 -20 570 0 L618 0 L630 73 L577 84 L532 710 L364 710 L87 84 L31 73 L19 0 L224 0 L236 73 L184 84 L249 233 L439 233 L448 84 L388 73 L376 0 L508 0 C366 -28 298 -73 298 -155 C298 -215 359 -240 439 -240 C486 -240 530 -230 555 -215 L533 -134 Z M436 308 L280 308 L415 616 L436 308 Z " />
<glyph glyph-name="aogonek" unicode="ą" horiz-adv-x="545" d="M483 -134 C463 -140 442 -144 416 -144 C364 -144 350 -128 350 -107 C350 -62 408 -28 465 -17 C493 -12 515 -7 531 8 L537 69 C528 58 519 54 507 54 C492 54 482 60 482 79 C482 83 482 87 483 92 L533 379 C536 396 538 412 538 427 C538 508 485 540 363 540 C286 540 205 528 134 485 L155 403 C212 437 271 448 328 448 C389 448 423 438 423 391 C423 384 422 376 421 367 L408 292 C366 309 310 325 231 325 C127 325 71 278 54 184 C43 125 42 111 42 98 C42 28 80 -18 176 -18 C267 -18 341 21 380 76 C379 70 379 64 379 59 C379 22 391 0 415 -9 C304 -37 248 -82 248 -155 C248 -215 309 -240 389 -240 C436 -240 480 -230 505 -215 L483 -134 Z M380 131 C341 94 289 64 226 64 C177 64 157 78 157 117 C157 187 180 257 262 257 C323 257 370 244 397 232 L380 131 Z " />
<glyph glyph-name="Cacute" unicode="Ć" horiz-adv-x="555" d="M561 198 L468 198 L444 112 C411 81 366 71 324 71 C235 71 197 99 197 184 C197 210 201 242 208 281 L234 428 C259 570 309 638 424 638 C466 638 508 627 528 598 L522 512 L615 512 L641 661 C605 708 525 728 450 728 C240 728 146 655 106 428 L80 282 C73 241 69 205 69 174 C69 31 146 -18 318 -18 C393 -18 473 0 536 54 L561 198 Z M424 764 L586 950 L473 950 L350 764 L424 764 Z " />
<glyph glyph-name="cacute" unicode="ć" horiz-adv-x="482" d="M446 162 C406 105 346 79 287 79 C209 79 174 107 174 172 C174 185 175 199 178 215 L197 320 C211 400 258 454 339 454 C374 454 407 445 426 420 L420 341 L507 341 L530 474 C490 525 423 540 348 540 C190 540 106 451 84 323 L64 208 C60 188 59 168 59 151 C59 43 124 -18 261 -18 C345 -18 423 19 479 95 L446 162 Z M355 580 L517 766 L404 766 L281 580 L355 580 Z " />
<glyph glyph-name="Ccircumflex" unicode="Ĉ" horiz-adv-x="555" d="M561 198 L468 198 L444 112 C411 81 366 71 324 71 C235 71 197 99 197 184 C197 210 201 242 208 281 L234 428 C259 570 309 638 424 638 C466 638 508 627 528 598 L522 512 L615 512 L641 661 C605 708 525 728 450 728 C240 728 146 655 106 428 L80 282 C73 241 69 205 69 174 C69 31 146 -18 318 -18 C393 -18 473 0 536 54 L561 198 Z M621 763 L502 939 L413 939 L231 763 L321 763 L449 887 L535 763 L621 763 Z " />
<glyph glyph-name="ccircumflex" unicode="ĉ" horiz-adv-x="482" d="M446 162 C406 105 346 79 287 79 C209 79 174 107 174 172 C174 185 175 199 178 215 L197 320 C211 400 258 454 339 454 C374 454 407 445 426 420 L420 341 L507 341 L530 474 C490 525 423 540 348 540 C190 540 106 451 84 323 L64 208 C60 188 59 168 59 151 C59 43 124 -18 261 -18 C345 -18 423 19 479 95 L446 162 Z M548 579 L429 755 L340 755 L158 579 L248 579 L376 703 L462 579 L548 579 Z " />
<glyph glyph-name="Cdotaccent" unicode="Ċ" horiz-adv-x="555" d="M561 198 L468 198 L444 112 C411 81 366 71 324 71 C235 71 197 99 197 184 C197 210 201 242 208 281 L234 428 C259 570 309 638 424 638 C466 638 508 627 528 598 L522 512 L615 512 L641 661 C605 708 525 728 450 728 C240 728 146 655 106 428 L80 282 C73 241 69 205 69 174 C69 31 146 -18 318 -18 C393 -18 473 0 536 54 L561 198 Z M486 774 L508 903 L393 903 L371 774 L486 774 Z " />
<glyph glyph-name="cdotaccent" unicode="ċ" horiz-adv-x="482" d="M446 162 C406 105 346 79 287 79 C209 79 174 107 174 172 C174 185 175 199 178 215 L197 320 C211 400 258 454 339 454 C374 454 407 445 426 420 L420 341 L507 341 L530 474 C490 525 423 540 348 540 C190 540 106 451 84 323 L64 208 C60 188 59 168 59 151 C59 43 124 -18 261 -18 C345 -18 423 19 479 95 L446 162 Z M410 590 L432 719 L317 719 L295 590 L410 590 Z " />
<glyph glyph-name="Ccaron" unicode="Č" horiz-adv-x="555" d="M561 198 L468 198 L444 112 C411 81 366 71 324 71 C235 71 197 99 197 184 C197 210 201 242 208 281 L234 428 C259 570 309 638 424 638 C466 638 508 627 528 598 L522 512 L615 512 L641 661 C605 708 525 728 450 728 C240 728 146 655 106 428 L80 282 C73 241 69 205 69 174 C69 31 146 -18 318 -18 C393 -18 473 0 536 54 L561 198 Z M471 763 L653 939 L562 939 L433 815 L349 939 L262 939 L382 763 L471 763 Z " />
<glyph glyph-name="ccaron" unicode="č" horiz-adv-x="482" d="M446 162 C406 105 346 79 287 79 C209 79 174 107 174 172 C174 185 175 199 178 215 L197 320 C211 400 258 454 339 454 C374 454 407 445 426 420 L420 341 L507 341 L530 474 C490 525 423 540 348 540 C190 540 106 451 84 323 L64 208 C60 188 59 168 59 151 C59 43 124 -18 261 -18 C345 -18 423 19 479 95 L446 162 Z M397 579 L579 755 L488 755 L359 631 L275 755 L188 755 L308 579 L397 579 Z " />
<glyph glyph-name="Dcaron" unicode="Ď" horiz-adv-x="618" d="M337 0 C515 0 599 74 633 269 L663 441 C669 477 673 508 673 536 C673 660 607 710 462 710 L157 710 L144 636 L200 625 L104 85 L44 73 L32 0 L337 0 Z M506 265 C484 144 436 88 352 88 L231 88 L325 621 L446 621 C513 621 546 600 546 525 C546 503 543 477 538 445 L506 265 Z M477 763 L659 939 L568 939 L439 815 L355 939 L268 939 L388 763 L477 763 Z " />
<glyph glyph-name="dcaron" unicode="ď" horiz-adv-x="705" d="M561 0 L574 74 L516 85 L628 719 L454 719 L441 645 L498 634 L470 476 C438 522 372 541 311 541 C171 541 111 473 82 310 L64 208 C58 177 56 149 56 124 C56 29 99 -16 196 -16 C271 -16 341 8 406 69 L398 0 L561 0 Z M413 150 C372 102 316 78 258 78 C200 78 174 97 174 157 C174 175 176 197 181 223 L196 307 C212 399 249 449 336 449 C384 449 432 430 456 396 L413 150 Z M672 424 C714 459 755 506 777 551 L806 719 L681 719 L653 557 L721 557 C701 521 671 489 642 463 L672 424 Z " />
<glyph glyph-name="Dcroat" unicode="Đ" horiz-adv-x="618" d="M337 0 C515 0 599 74 633 269 L663 441 C669 477 673 508 673 536 C673 660 607 710 462 710 L157 710 L144 636 L200 625 L162 410 L104 410 L89 327 L147 327 L104 85 L44 73 L32 0 L337 0 Z M506 265 C484 144 438 88 352 88 L231 88 L273 327 L396 327 L411 410 L288 410 L325 621 L446 621 C512 621 545 598 545 519 C545 496 542 467 536 432 L506 265 Z " />
<glyph glyph-name="dcroat" unicode="đ" horiz-adv-x="585" d="M673 583 L687 661 L618 661 L628 719 L513 719 L503 661 L348 661 L334 583 L489 583 L470 476 C438 522 372 541 311 541 C171 541 111 473 82 310 L64 208 C58 177 56 149 56 124 C56 29 99 -16 196 -16 C271 -16 341 8 406 69 L398 0 L561 0 L574 74 L516 85 L604 583 L673 583 Z M413 150 C372 102 316 78 258 78 C200 78 174 96 174 156 C174 174 176 196 181 223 L196 307 C212 399 249 449 336 449 C384 449 432 430 456 396 L413 150 Z " />
<glyph glyph-name="Emacron" unicode="Ē" horiz-adv-x="568" d="M532 0 L570 219 L496 219 L456 94 L230 94 L271 327 L454 327 L457 263 L520 263 L557 474 L494 474 L469 410 L286 410 L323 620 L547 620 L542 513 L616 513 L651 710 L157 710 L144 636 L200 625 L104 85 L44 73 L32 0 L532 0 Z M589 777 L603 855 L264 855 L250 777 L589 777 Z " />
<glyph glyph-name="emacron" unicode="ē" horiz-adv-x="505" d="M515 230 L526 290 C533 327 536 360 536 389 C536 488 491 540 350 540 C183 540 110 461 81 298 L67 220 C63 199 61 179 61 160 C61 54 121 -18 263 -18 C372 -18 441 16 482 71 L453 139 C412 96 370 73 294 73 C211 73 174 99 174 172 C174 189 176 208 180 230 L515 230 Z M193 304 C209 394 239 460 338 460 C410 460 432 433 432 380 C432 359 428 334 423 304 L193 304 Z M526 593 L540 671 L201 671 L187 593 L526 593 Z " />
<glyph glyph-name="Ebreve" unicode="Ĕ" horiz-adv-x="568" d="M532 0 L570 219 L496 219 L456 94 L230 94 L271 327 L454 327 L457 263 L520 263 L557 474 L494 474 L469 410 L286 410 L323 620 L547 620 L542 513 L616 513 L651 710 L157 710 L144 636 L200 625 L104 85 L44 73 L32 0 L532 0 Z M555 935 C540 863 495 825 437 825 C386 825 353 854 353 910 C353 918 354 926 355 935 L287 935 C284 920 283 906 283 893 C283 802 345 758 427 758 C521 758 607 816 628 935 L555 935 Z " />
<glyph glyph-name="ebreve" unicode="ĕ" horiz-adv-x="505" d="M515 230 L526 290 C533 327 536 360 536 389 C536 488 491 540 350 540 C183 540 110 461 81 298 L67 220 C63 199 61 179 61 160 C61 54 121 -18 263 -18 C372 -18 441 16 482 71 L453 139 C412 96 370 73 294 73 C211 73 174 99 174 172 C174 189 176 208 180 230 L515 230 Z M193 304 C209 394 239 460 338 460 C410 460 432 433 432 380 C432 359 428 334 423 304 L193 304 Z M482 751 C467 679 422 641 364 641 C313 641 280 670 280 726 C280 734 281 742 282 751 L214 751 C211 736 210 722 210 709 C210 618 272 574 354 574 C448 574 534 632 555 751 L482 751 Z " />
<glyph glyph-name="Edotaccent" unicode="Ė" horiz-adv-x="568" d="M532 0 L570 219 L496 219 L456 94 L230 94 L271 327 L454 327 L457 263 L520 263 L557 474 L494 474 L469 410 L286 410 L323 620 L547 620 L542 513 L616 513 L651 710 L157 710 L144 636 L200 625 L104 85 L44 73 L32 0 L532 0 Z M492 774 L514 903 L399 903 L377 774 L492 774 Z " />
<glyph glyph-name="edotaccent" unicode="ė" horiz-adv-x="505" d="M515 230 L526 290 C533 327 536 360 536 389 C536 488 491 540 350 540 C183 540 110 461 81 298 L67 220 C63 199 61 179 61 160 C61 54 121 -18 263 -18 C372 -18 441 16 482 71 L453 139 C412 96 370 73 294 73 C211 73 174 99 174 172 C174 189 176 208 180 230 L515 230 Z M193 304 C209 394 239 460 338 460 C410 460 432 433 432 380 C432 359 428 334 423 304 L193 304 Z M414 590 L436 719 L321 719 L299 590 L414 590 Z " />
<glyph glyph-name="Eogonek" unicode="Ę" horiz-adv-x="568" d="M495 -134 C475 -140 454 -144 428 -144 C376 -144 362 -128 362 -107 C362 -45 470 -20 532 0 L570 219 L496 219 L456 94 L230 94 L271 327 L454 327 L457 263 L520 263 L557 474 L494 474 L469 410 L286 410 L323 620 L547 620 L542 513 L616 513 L651 710 L157 710 L144 636 L200 625 L104 85 L44 73 L32 0 L470 0 C328 -28 260 -73 260 -155 C260 -215 321 -240 401 -240 C448 -240 492 -230 517 -215 L495 -134 Z " />
<glyph glyph-name="eogonek" unicode="ę" horiz-adv-x="505" d="M347 -134 C327 -140 306 -144 280 -144 C228 -144 214 -128 214 -107 C214 -44 322 -22 384 0 C426 15 458 39 482 71 L453 139 C412 96 370 73 294 73 C211 73 174 99 174 171 C174 188 176 208 180 230 L515 230 L526 290 C533 327 536 360 536 389 C536 488 491 540 350 540 C183 540 110 461 81 298 L67 220 C63 199 61 179 61 160 C61 58 116 -13 248 -18 C159 -45 112 -88 112 -155 C112 -215 173 -240 253 -240 C300 -240 344 -230 369 -215 L347 -134 Z M193 304 C210 400 239 460 338 460 C410 460 432 434 432 381 C432 360 428 334 423 304 L193 304 Z " />
<glyph glyph-name="Ecaron" unicode="Ě" horiz-adv-x="568" d="M532 0 L570 219 L496 219 L456 94 L230 94 L271 327 L454 327 L457 263 L520 263 L557 474 L494 474 L469 410 L286 410 L323 620 L547 620 L542 513 L616 513 L651 710 L157 710 L144 636 L200 625 L104 85 L44 73 L32 0 L532 0 Z M472 763 L654 939 L563 939 L434 815 L350 939 L263 939 L383 763 L472 763 Z " />
<glyph glyph-name="ecaron" unicode="ě" horiz-adv-x="505" d="M515 230 L526 290 C533 327 536 360 536 389 C536 488 491 540 350 540 C183 540 110 461 81 298 L67 220 C63 199 61 179 61 160 C61 54 121 -18 263 -18 C372 -18 441 16 482 71 L453 139 C412 96 370 73 294 73 C211 73 174 99 174 172 C174 189 176 208 180 230 L515 230 Z M193 304 C209 394 239 460 338 460 C410 460 432 433 432 380 C432 359 428 334 423 304 L193 304 Z M399 579 L581 755 L490 755 L361 631 L277 755 L190 755 L310 579 L399 579 Z " />
<glyph glyph-name="Gcircumflex" unicode="Ĝ" horiz-adv-x="579" d="M447 113 C429 95 385 76 314 76 C230 76 197 110 197 190 C197 213 199 240 205 272 L233 428 C259 573 312 638 422 638 C468 638 516 628 536 598 L530 512 L623 512 L649 661 C613 708 528 728 436 728 C242 728 147 652 107 428 L79 272 C72 234 69 201 69 171 C69 39 137 -18 298 -18 C432 -18 529 33 557 58 L615 387 L385 387 L373 318 L482 307 L447 113 Z M625 763 L506 939 L417 939 L235 763 L325 763 L453 887 L539 763 L625 763 Z " />
<glyph glyph-name="gcircumflex" unicode="ĝ" horiz-adv-x="530" d="M384 1 C368 -92 323 -144 221 -144 C167 -144 112 -131 73 -97 L29 -174 C73 -227 149 -240 223 -240 C372 -240 466 -179 495 -14 L590 526 L519 526 L485 461 C455 512 389 538 308 538 C163 538 108 464 82 310 L70 240 C64 207 61 178 61 153 C61 62 100 15 203 15 C275 15 346 40 400 95 L384 1 Z M415 177 C374 130 318 105 259 105 C199 105 176 129 176 183 C175 199 178 218 182 240 L194 309 C209 394 242 450 333 450 C379 450 432 430 454 398 L415 177 Z M562 579 L443 755 L354 755 L172 579 L262 579 L390 703 L476 579 L562 579 Z " />
<glyph glyph-name="Gbreve" unicode="Ğ" horiz-adv-x="579" d="M447 113 C429 95 385 76 314 76 C230 76 197 110 197 190 C197 213 199 240 205 272 L233 428 C259 573 312 638 422 638 C468 638 516 628 536 598 L530 512 L623 512 L649 661 C613 708 528 728 436 728 C242 728 147 652 107 428 L79 272 C72 234 69 201 69 171 C69 39 137 -18 298 -18 C432 -18 529 33 557 58 L615 387 L385 387 L373 318 L482 307 L447 113 Z M551 935 C536 863 491 825 433 825 C382 825 349 854 349 910 C349 918 350 926 351 935 L283 935 C280 920 279 906 279 893 C279 802 341 758 423 758 C517 758 603 816 624 935 L551 935 Z " />
<glyph glyph-name="gbreve" unicode="ğ" horiz-adv-x="530" d="M384 1 C368 -92 323 -144 221 -144 C167 -144 112 -131 73 -97 L29 -174 C73 -227 149 -240 223 -240 C372 -240 466 -179 495 -14 L590 526 L519 526 L485 461 C455 512 389 538 308 538 C163 538 108 464 82 310 L70 240 C64 207 61 178 61 153 C61 62 100 15 203 15 C275 15 346 40 400 95 L384 1 Z M415 177 C374 130 318 105 259 105 C199 105 176 129 176 183 C175 199 178 218 182 240 L194 309 C209 394 242 450 333 450 C379 450 432 430 454 398 L415 177 Z M494 751 C479 679 434 641 376 641 C325 641 292 670 292 726 C292 734 293 742 294 751 L226 751 C223 736 222 722 222 709 C222 618 284 574 366 574 C460 574 546 632 567 751 L494 751 Z " />
<glyph glyph-name="Gdotaccent" unicode="Ġ" horiz-adv-x="579" d="M447 113 C429 95 385 76 314 76 C230 76 197 110 197 190 C197 213 199 240 205 272 L233 428 C259 573 312 638 422 638 C468 638 516 628 536 598 L530 512 L623 512 L649 661 C613 708 528 728 436 728 C242 728 147 652 107 428 L79 272 C72 234 69 201 69 171 C69 39 137 -18 298 -18 C432 -18 529 33 557 58 L615 387 L385 387 L373 318 L482 307 L447 113 Z M493 774 L515 903 L400 903 L378 774 L493 774 Z " />
<glyph glyph-name="gdotaccent" unicode="ġ" horiz-adv-x="530" d="M384 1 C368 -92 323 -144 221 -144 C167 -144 112 -131 73 -97 L29 -174 C73 -227 149 -240 223 -240 C372 -240 466 -179 495 -14 L590 526 L519 526 L485 461 C455 512 389 538 308 538 C163 538 108 464 82 310 L70 240 C64 207 61 178 61 153 C61 62 100 15 203 15 C275 15 346 40 400 95 L384 1 Z M415 177 C374 130 318 105 259 105 C199 105 176 129 176 183 C175 199 178 218 182 240 L194 309 C209 394 242 450 333 450 C379 450 432 430 454 398 L415 177 Z M426 590 L448 719 L333 719 L311 590 L426 590 Z " />
<glyph glyph-name="Gcommaaccent" unicode="Ģ" horiz-adv-x="579" d="M447 113 C429 95 385 76 314 76 C230 76 197 110 197 190 C197 213 199 240 205 272 L233 428 C259 573 312 638 422 638 C468 638 516 628 536 598 L530 512 L623 512 L649 661 C613 708 528 728 436 728 C242 728 147 652 107 428 L79 272 C72 234 69 201 69 171 C69 39 137 -18 298 -18 C432 -18 529 33 557 58 L615 387 L385 387 L373 318 L482 307 L447 113 Z M251 -240 C290 -209 325 -168 337 -129 L354 -31 L253 -31 L235 -134 L284 -134 C269 -162 246 -189 221 -210 L251 -240 Z " />
<glyph glyph-name="gcommaaccent" unicode="ģ" horiz-adv-x="530" d="M384 1 C368 -92 323 -144 221 -144 C167 -144 112 -131 73 -97 L29 -174 C73 -227 149 -240 223 -240 C372 -240 466 -179 495 -14 L590 526 L519 526 L485 461 C455 512 389 538 308 538 C163 538 108 464 82 310 L70 240 C64 207 61 178 61 153 C61 62 100 15 203 15 C275 15 346 40 400 95 L384 1 Z M415 177 C374 130 318 105 259 105 C199 105 176 129 176 183 C175 199 178 218 182 240 L194 309 C209 394 242 450 333 450 C379 450 432 430 454 398 L415 177 Z M408 783 C369 752 334 711 322 672 L305 574 L406 574 L424 677 L375 677 C390 705 413 732 438 753 L408 783 Z " />
<glyph glyph-name="Hcircumflex" unicode="Ĥ" horiz-adv-x="661" d="M629 0 L641 73 L584 85 L680 625 L741 636 L754 710 L517 710 L504 636 L558 625 L519 403 L284 403 L323 625 L380 636 L393 710 L157 710 L144 636 L200 625 L104 85 L44 73 L32 0 L268 0 L280 73 L227 85 L268 315 L503 315 L462 85 L404 73 L392 0 L629 0 Z M659 763 L540 939 L451 939 L269 763 L359 763 L487 887 L573 763 L659 763 Z " />
<glyph glyph-name="hcircumflex" unicode="ĥ" horiz-adv-x="643" d="M619 0 L632 74 L575 85 L631 398 C633 411 634 424 634 436 C634 506 590 540 502 540 C421 540 348 522 282 467 L326 719 L152 719 L139 645 L195 634 L98 85 L39 74 L26 0 L257 0 L270 74 L214 85 L267 382 C318 432 375 447 438 447 C484 447 512 436 512 396 C512 389 511 382 510 374 L459 85 L401 74 L388 0 L619 0 Z M550 763 L431 939 L342 939 L160 763 L250 763 L378 887 L464 763 L550 763 Z " />
<glyph glyph-name="Hbar" unicode="Ħ" horiz-adv-x="661" d="M629 0 L641 73 L584 85 L680 625 L741 636 L754 710 L517 710 L504 636 L558 625 L545 555 L310 555 L323 625 L380 636 L393 710 L157 710 L144 636 L200 625 L104 85 L44 73 L32 0 L268 0 L280 73 L227 85 L268 315 L503 315 L462 85 L404 73 L392 0 L629 0 Z M284 403 L297 477 L532 477 L519 403 L284 403 Z " />
<glyph glyph-name="hbar" unicode="ħ" horiz-adv-x="643" d="M457 583 L471 661 L316 661 L326 719 L210 719 L200 661 L132 661 L118 583 L186 583 L98 85 L39 74 L26 0 L257 0 L270 74 L214 85 L267 382 C318 432 375 447 438 447 C484 447 512 438 512 397 C512 390 511 382 510 374 L459 85 L401 74 L388 0 L619 0 L632 74 L575 85 L631 398 C633 411 634 424 634 436 C634 506 590 540 502 540 C421 540 348 522 282 467 L302 583 L457 583 Z " />
<glyph glyph-name="Itilde" unicode="Ĩ" horiz-adv-x="306" d="M274 0 L286 73 L230 85 L326 625 L386 636 L399 710 L157 710 L144 636 L200 625 L104 85 L44 73 L32 0 L274 0 Z M483 885 C449 852 418 835 381 835 C325 835 290 885 224 885 C181 885 151 866 127 842 L114 764 C147 798 178 815 216 815 C268 815 304 764 373 764 C415 764 446 784 470 808 L483 885 Z " />
<glyph glyph-name="itilde" unicode="ĩ" horiz-adv-x="325" d="M278 0 L291 74 L234 85 L312 526 L138 526 L125 452 L181 441 L118 85 L59 74 L46 0 L278 0 Z M458 701 C424 668 393 651 356 651 C300 651 265 701 199 701 C156 701 126 682 102 658 L89 580 C122 614 153 631 191 631 C243 631 279 580 348 580 C390 580 421 600 445 624 L458 701 Z " />
<glyph glyph-name="uni012A" unicode="Ī" horiz-adv-x="306" d="M274 0 L286 73 L230 85 L326 625 L386 636 L399 710 L157 710 L144 636 L200 625 L104 85 L44 73 L32 0 L274 0 Z M460 777 L474 855 L135 855 L121 777 L460 777 Z " />
<glyph glyph-name="imacron" unicode="ī" horiz-adv-x="321" d="M278 0 L291 74 L234 85 L312 526 L138 526 L125 452 L181 441 L118 85 L59 74 L46 0 L278 0 Z M435 593 L449 671 L110 671 L96 593 L435 593 Z " />
<glyph glyph-name="Ibreve" unicode="Ĭ" horiz-adv-x="306" d="M274 0 L286 73 L230 85 L326 625 L386 636 L399 710 L157 710 L144 636 L200 625 L104 85 L44 73 L32 0 L274 0 Z M416 935 C401 863 356 825 298 825 C247 825 214 854 214 910 C214 918 215 926 216 935 L148 935 C145 920 144 906 144 893 C144 802 206 758 288 758 C382 758 468 816 489 935 L416 935 Z " />
<glyph glyph-name="ibreve" unicode="ĭ" horiz-adv-x="306" d="M269 0 L282 74 L225 85 L303 526 L129 526 L116 452 L172 441 L109 85 L50 74 L37 0 L269 0 Z M382 751 C367 679 322 641 264 641 C213 641 180 670 180 726 C180 734 181 742 182 751 L114 751 C111 736 110 722 110 709 C110 618 172 574 254 574 C348 574 434 632 455 751 L382 751 Z " />
<glyph glyph-name="Iogonek" unicode="Į" horiz-adv-x="306" d="M179 -134 C159 -140 138 -144 112 -144 C60 -144 46 -128 46 -107 C46 -45 154 -20 216 0 L274 0 L286 73 L230 85 L326 625 L386 636 L399 710 L157 710 L144 636 L200 625 L104 85 L44 73 L32 0 L154 0 C12 -28 -55 -73 -55 -155 C-55 -215 6 -240 85 -240 C132 -240 176 -230 201 -215 L179 -134 Z " />
<glyph glyph-name="iogonek" unicode="į" horiz-adv-x="282" d="M179 -134 C159 -140 138 -144 112 -144 C60 -144 46 -128 46 -107 C46 -45 154 -20 216 0 L258 0 L271 74 L214 85 L292 526 L118 526 L105 452 L161 441 L98 85 L39 74 L26 0 L154 0 C12 -28 -55 -73 -55 -155 C-55 -215 6 -240 85 -240 C132 -240 176 -230 201 -215 L179 -134 Z M303 590 L325 719 L210 719 L188 590 L303 590 Z " />
<glyph glyph-name="Idotaccent" unicode="İ" horiz-adv-x="306" d="M274 0 L286 73 L230 85 L326 625 L386 636 L399 710 L157 710 L144 636 L200 625 L104 85 L44 73 L32 0 L274 0 Z M346 774 L368 903 L253 903 L231 774 L346 774 Z " />
<glyph glyph-name="dotlessi" unicode="ı" horiz-adv-x="282" d="M258 0 L271 74 L214 85 L292 526 L118 526 L105 452 L161 441 L98 85 L39 74 L26 0 L258 0 Z " />
<glyph glyph-name="IJ" unicode="Ĳ" horiz-adv-x="637" d="M274 0 L286 73 L230 85 L326 625 L386 636 L399 710 L157 710 L144 636 L200 625 L104 85 L44 73 L32 0 L274 0 Z M218 -152 C235 -182 270 -206 330 -206 C468 -206 532 -114 559 40 L662 625 L716 635 L730 710 L487 710 L473 635 L538 625 L434 36 C421 -34 392 -107 310 -107 C279 -107 257 -95 239 -74 L218 -152 Z " />
<glyph glyph-name="ij" unicode="ĳ" horiz-adv-x="520" d="M258 0 L271 74 L214 85 L292 526 L118 526 L105 452 L161 441 L98 85 L39 74 L26 0 L258 0 Z M303 590 L325 719 L210 719 L188 590 L303 590 Z M169 -191 C187 -222 223 -240 277 -240 C391 -240 449 -158 473 -21 L569 526 L391 526 L378 451 L438 441 L357 -21 C346 -81 322 -146 252 -146 C225 -146 207 -139 191 -120 L169 -191 Z M580 590 L602 719 L486 719 L464 590 L580 590 Z " />
<glyph glyph-name="Jcircumflex" unicode="Ĵ" horiz-adv-x="331" d="M-88 -152 C-71 -182 -36 -206 24 -206 C162 -206 226 -114 253 40 L356 625 L410 635 L424 710 L181 710 L167 635 L232 625 L128 36 C115 -34 86 -107 4 -107 C-27 -107 -49 -95 -67 -74 L-88 -152 Z M496 763 L377 939 L288 939 L106 763 L196 763 L324 887 L410 763 L496 763 Z " />
<glyph glyph-name="jcircumflex" unicode="ĵ" horiz-adv-x="305" d="M-76 -191 C-58 -222 -22 -240 32 -240 C146 -240 204 -158 228 -21 L324 526 L146 526 L133 451 L193 441 L112 -21 C102 -80 77 -146 7 -146 C-20 -146 -38 -139 -54 -120 L-76 -191 Z M433 579 L314 755 L225 755 L43 579 L133 579 L261 703 L347 579 L433 579 Z " />
<glyph glyph-name="Kcommaaccent" unicode="Ķ" horiz-adv-x="641" d="M620 0 L631 67 L572 85 L396 412 L639 621 L710 636 L723 710 L504 710 L491 636 L542 625 L284 400 L324 625 L381 636 L394 710 L157 710 L144 636 L200 625 L104 85 L45 74 L32 0 L269 0 L282 74 L228 85 L279 372 L462 0 L620 0 Z M292 -240 C331 -209 366 -168 378 -129 L395 -31 L294 -31 L276 -134 L325 -134 C310 -162 287 -189 262 -210 L292 -240 Z " />
<glyph glyph-name="kcommaaccent" unicode="ķ" horiz-adv-x="562" d="M549 0 L562 74 L501 85 L359 289 L537 442 L600 452 L613 526 L406 526 L393 452 L448 442 L247 268 L326 719 L152 719 L139 645 L195 634 L98 85 L39 74 L26 0 L247 0 L260 74 L214 85 L243 245 L396 0 L549 0 Z M252 -240 C291 -209 326 -168 338 -129 L355 -31 L254 -31 L236 -134 L285 -134 C270 -162 247 -189 222 -210 L252 -240 Z " />
<glyph glyph-name="Lacute" unicode="Ĺ" horiz-adv-x="536" d="M506 0 L555 280 L478 280 L433 97 L233 97 L326 625 L389 636 L402 710 L157 710 L144 636 L200 625 L104 85 L45 75 L32 0 L506 0 Z M294 764 L456 950 L343 950 L220 764 L294 764 Z " />
<glyph glyph-name="lacute" unicode="ĺ" horiz-adv-x="282" d="M258 0 L271 74 L214 85 L326 719 L152 719 L139 645 L195 634 L98 85 L39 74 L26 0 L258 0 Z M277 764 L439 950 L326 950 L203 764 L277 764 Z " />
<glyph glyph-name="Lcommaaccent" unicode="Ļ" horiz-adv-x="536" d="M506 0 L555 280 L478 280 L433 97 L233 97 L326 625 L389 636 L402 710 L157 710 L144 636 L200 625 L104 85 L45 75 L32 0 L506 0 Z M229 -240 C268 -209 303 -168 315 -129 L332 -31 L231 -31 L213 -134 L262 -134 C247 -162 224 -189 199 -210 L229 -240 Z " />
<glyph glyph-name="lcommaaccent" unicode="ļ" horiz-adv-x="282" d="M258 0 L271 74 L214 85 L326 719 L152 719 L139 645 L195 634 L98 85 L39 74 L26 0 L258 0 Z M86 -240 C125 -209 160 -168 172 -129 L189 -31 L88 -31 L70 -134 L119 -134 C104 -162 81 -189 56 -210 L86 -240 Z " />
<glyph glyph-name="Lcaron" unicode="Ľ" horiz-adv-x="536" d="M506 0 L555 280 L478 280 L433 97 L233 97 L326 625 L389 636 L402 710 L157 710 L144 636 L200 625 L104 85 L45 75 L32 0 L506 0 Z M426 424 C468 459 509 506 531 551 L560 719 L435 719 L407 557 L475 557 C455 521 425 489 396 463 L426 424 Z " />
<glyph glyph-name="lcaron" unicode="ľ" horiz-adv-x="378" d="M258 0 L271 74 L214 85 L326 719 L152 719 L139 645 L195 634 L98 85 L39 74 L26 0 L258 0 Z M370 424 C412 459 453 506 475 551 L504 719 L379 719 L351 557 L419 557 C399 521 369 489 340 463 L370 424 Z " />
<glyph glyph-name="Ldot" unicode="Ŀ" horiz-adv-x="536" d="M506 0 L555 280 L478 280 L433 97 L233 97 L326 625 L389 636 L402 710 L157 710 L144 636 L200 625 L104 85 L45 75 L32 0 L506 0 Z M436 311 L458 440 L343 440 L321 311 L436 311 Z " />
<glyph glyph-name="ldot" unicode="ŀ" horiz-adv-x="367" d="M258 0 L271 74 L214 85 L326 719 L152 719 L139 645 L195 634 L98 85 L39 74 L26 0 L258 0 Z M418 290 L440 419 L325 419 L303 290 L418 290 Z " />
<glyph glyph-name="Lslash" unicode="Ł" horiz-adv-x="536" d="M506 0 L555 280 L488 280 L444 97 L233 97 L269 306 L480 415 L494 496 L284 389 L326 625 L389 636 L402 710 L157 710 L144 636 L200 625 L104 85 L44 73 L32 0 L506 0 Z " />
<glyph glyph-name="lslash" unicode="ł" horiz-adv-x="294" d="M266 0 L278 73 L221 85 L268 349 L339 382 L353 463 L282 430 L333 719 L159 719 L146 645 L203 634 L157 373 L85 340 L71 260 L143 293 L106 85 L45 73 L33 0 L266 0 Z " />
<glyph glyph-name="Nacute" unicode="Ń" horiz-adv-x="664" d="M581 0 L691 625 L749 636 L762 710 L553 710 L540 636 L593 625 L520 211 L359 710 L157 710 L144 636 L200 625 L104 85 L45 74 L32 0 L252 0 L265 74 L202 85 L281 530 L477 0 L581 0 Z M468 764 L630 950 L517 950 L394 764 L468 764 Z " />
<glyph glyph-name="nacute" unicode="ń" horiz-adv-x="643" d="M619 0 L632 74 L575 85 L631 398 C633 411 634 424 634 436 C634 506 590 540 502 540 C406 540 341 516 272 454 L280 526 L118 526 L105 452 L161 441 L98 85 L39 74 L26 0 L257 0 L270 74 L214 85 L267 383 C318 432 375 447 438 447 C484 447 512 437 512 397 C512 390 511 382 510 374 L459 85 L401 74 L388 0 L619 0 Z M426 580 L588 766 L475 766 L352 580 L426 580 Z " />
<glyph glyph-name="Ncommaaccent" unicode="Ņ" horiz-adv-x="664" d="M581 0 L691 625 L749 636 L762 710 L553 710 L540 636 L593 625 L520 211 L359 710 L157 710 L144 636 L200 625 L104 85 L45 74 L32 0 L252 0 L265 74 L202 85 L281 530 L477 0 L581 0 Z M288 -240 C327 -209 362 -168 374 -129 L391 -31 L290 -31 L272 -134 L321 -134 C306 -162 283 -189 258 -210 L288 -240 Z " />
<glyph glyph-name="ncommaaccent" unicode="ņ" horiz-adv-x="643" d="M619 0 L632 74 L575 85 L631 398 C633 411 634 424 634 436 C634 506 590 540 502 540 C406 540 341 516 272 454 L280 526 L118 526 L105 452 L161 441 L98 85 L39 74 L26 0 L257 0 L270 74 L214 85 L267 383 C318 432 375 447 438 447 C484 447 512 437 512 397 C512 390 511 382 510 374 L459 85 L401 74 L388 0 L619 0 Z M268 -240 C307 -209 342 -168 354 -129 L371 -31 L270 -31 L252 -134 L301 -134 C286 -162 263 -189 238 -210 L268 -240 Z " />
<glyph glyph-name="Ncaron" unicode="Ň" horiz-adv-x="664" d="M581 0 L691 625 L749 636 L762 710 L553 710 L540 636 L593 625 L520 211 L359 710 L157 710 L144 636 L200 625 L104 85 L45 74 L32 0 L252 0 L265 74 L202 85 L281 530 L477 0 L581 0 Z M510 763 L692 939 L601 939 L472 815 L388 939 L301 939 L421 763 L510 763 Z " />
<glyph glyph-name="ncaron" unicode="ň" horiz-adv-x="643" d="M619 0 L632 74 L575 85 L631 398 C633 411 634 424 634 436 C634 506 590 540 502 540 C406 540 341 516 272 454 L280 526 L118 526 L105 452 L161 441 L98 85 L39 74 L26 0 L257 0 L270 74 L214 85 L267 383 C318 432 375 447 438 447 C484 447 512 437 512 397 C512 390 511 382 510 374 L459 85 L401 74 L388 0 L619 0 Z M468 579 L650 755 L559 755 L430 631 L346 755 L259 755 L379 579 L468 579 Z " />
<glyph glyph-name="Eng" unicode="Ŋ" horiz-adv-x="664" d="M274 -191 C292 -222 328 -240 382 -240 C497 -240 553 -158 577 -21 L691 625 L749 636 L762 710 L553 710 L540 636 L593 625 L520 211 L361 710 L157 710 L144 636 L200 625 L104 85 L45 74 L32 0 L252 0 L265 74 L202 85 L281 530 L469 15 L463 -21 C452 -85 428 -146 357 -146 C330 -146 312 -139 296 -120 C288 -144 281 -168 274 -191 L274 -191 Z " />
<glyph glyph-name="eng" unicode="ŋ" horiz-adv-x="643" d="M252 -191 C270 -222 306 -240 360 -240 C475 -240 533 -158 557 -21 L631 398 C633 411 634 424 634 436 C634 506 590 540 502 540 C406 540 341 516 272 454 L280 526 L118 526 L105 452 L161 441 L98 85 L39 74 L26 0 L257 0 L270 74 L214 85 L267 383 C318 432 375 447 438 447 C484 447 512 438 512 397 C512 390 511 382 510 374 L441 -21 C430 -85 406 -146 335 -146 C308 -146 290 -139 274 -120 C266 -144 259 -168 252 -191 L252 -191 Z " />
<glyph glyph-name="Omacron" unicode="Ō" horiz-adv-x="607" d="M650 426 C656 461 659 493 659 522 C659 664 585 728 431 728 C245 728 144 635 107 426 L82 284 C75 248 72 215 72 186 C72 45 146 -18 299 -18 C484 -18 588 75 625 284 L650 426 Z M499 284 C472 132 417 73 315 73 C237 73 197 96 197 185 C197 212 201 244 208 284 L233 426 C260 578 313 636 415 636 C494 636 533 609 533 519 C533 493 530 463 524 426 L499 284 Z M609 777 L623 855 L284 855 L270 777 L609 777 Z " />
<glyph glyph-name="omacron" unicode="ō" horiz-adv-x="522" d="M549 315 C553 340 556 363 556 383 C556 491 493 540 356 540 C193 540 111 471 83 315 L64 208 C59 183 57 160 57 139 C57 30 120 -18 257 -18 C420 -18 502 51 530 208 L549 315 Z M418 215 C400 118 363 71 273 71 C203 71 171 87 171 152 C171 169 173 190 178 215 L195 307 C214 408 250 451 340 451 C410 451 442 435 442 370 C442 353 439 332 435 307 L418 215 Z M534 593 L548 671 L209 671 L195 593 L534 593 Z " />
<glyph glyph-name="Obreve" unicode="Ŏ" horiz-adv-x="607" d="M650 426 C656 461 659 493 659 522 C659 664 585 728 431 728 C245 728 144 635 107 426 L82 284 C75 248 72 215 72 186 C72 45 146 -18 299 -18 C484 -18 588 75 625 284 L650 426 Z M499 284 C472 132 417 73 315 73 C237 73 197 96 197 185 C197 212 201 244 208 284 L233 426 C260 578 313 636 415 636 C494 636 533 609 533 519 C533 493 530 463 524 426 L499 284 Z M565 935 C550 863 505 825 447 825 C396 825 363 854 363 910 C363 918 364 926 365 935 L297 935 C294 920 293 906 293 893 C293 802 355 758 437 758 C531 758 617 816 638 935 L565 935 Z " />
<glyph glyph-name="obreve" unicode="ŏ" horiz-adv-x="522" d="M549 315 C553 340 556 363 556 383 C556 491 493 540 356 540 C193 540 111 471 83 315 L64 208 C59 183 57 160 57 139 C57 30 120 -18 257 -18 C420 -18 502 51 530 208 L549 315 Z M418 215 C400 118 363 71 273 71 C203 71 171 87 171 152 C171 169 173 190 178 215 L195 307 C214 408 250 451 340 451 C410 451 442 435 442 370 C442 353 439 332 435 307 L418 215 Z M490 751 C475 679 430 641 372 641 C321 641 288 670 288 726 C288 734 289 742 290 751 L222 751 C219 736 218 722 218 709 C218 618 280 574 362 574 C456 574 542 632 563 751 L490 751 Z " />
<glyph glyph-name="Ohungarumlaut" unicode="Ő" horiz-adv-x="607" d="M650 426 C656 461 659 493 659 522 C659 664 585 728 431 728 C245 728 144 635 107 426 L82 284 C75 248 72 215 72 186 C72 45 146 -18 299 -18 C484 -18 588 75 625 284 L650 426 Z M499 284 C472 132 417 73 315 73 C237 73 197 96 197 185 C197 212 201 244 208 284 L233 426 C260 578 313 636 415 636 C494 636 533 609 533 519 C533 493 530 463 524 426 L499 284 Z M344 764 L506 950 L393 950 L270 764 L344 764 Z M537 764 L698 950 L585 950 L462 764 L537 764 Z " />
<glyph glyph-name="ohungarumlaut" unicode="ő" horiz-adv-x="522" d="M549 315 C553 340 556 363 556 383 C556 491 493 540 356 540 C193 540 111 471 83 315 L64 208 C59 183 57 160 57 139 C57 30 120 -18 257 -18 C420 -18 502 51 530 208 L549 315 Z M418 215 C400 118 363 71 273 71 C203 71 171 87 171 152 C171 169 173 190 178 215 L195 307 C214 408 250 451 340 451 C410 451 442 435 442 370 C442 353 439 332 435 307 L418 215 Z M269 580 L431 766 L318 766 L195 580 L269 580 Z M462 580 L623 766 L510 766 L387 580 L462 580 Z " />
<glyph glyph-name="OE" unicode="Œ" horiz-adv-x="883" d="M847 0 L885 219 L811 219 L771 94 L555 94 L596 327 L769 327 L771 263 L835 263 L872 474 L808 474 L784 410 L611 410 L648 620 L862 620 L856 513 L931 513 L966 710 L406 710 C229 710 143 636 109 441 L79 269 C73 234 70 203 70 175 C70 50 135 0 281 0 L847 0 Z M430 88 L296 88 C233 88 196 109 196 189 C196 210 199 235 204 265 L236 445 C258 572 304 621 390 621 L524 621 L430 88 Z " />
<glyph glyph-name="oe" unicode="œ" horiz-adv-x="860" d="M869 230 L880 290 C887 327 890 361 890 390 C890 489 845 540 705 540 C614 540 556 512 519 458 C498 512 442 538 349 538 C190 538 109 467 82 315 L63 208 C58 183 56 160 56 140 C56 31 120 -18 257 -18 C353 -18 417 9 456 69 C476 15 527 -18 618 -18 C727 -18 796 16 836 71 L808 139 C770 85 727 73 649 73 C565 73 530 112 530 182 C530 197 532 213 535 230 L869 230 Z M418 215 C399 111 363 71 273 71 C202 71 170 87 170 152 C170 170 172 190 177 215 L194 307 C212 403 250 451 340 451 C411 451 441 431 441 367 C441 350 439 330 435 307 L418 215 Z M548 304 C565 401 596 460 692 460 C763 460 786 434 786 379 C786 358 783 333 778 304 L548 304 Z " />
<glyph glyph-name="Racute" unicode="Ŕ" horiz-adv-x="641" d="M619 0 L632 74 L576 85 L596 197 C600 221 602 242 602 260 C602 328 572 350 524 360 C580 373 624 408 641 509 L647 544 C650 560 651 575 651 590 C651 665 609 710 500 710 L157 710 L144 636 L200 625 L104 85 L45 74 L32 0 L271 0 L284 74 L227 85 L269 318 L414 318 C460 318 482 304 482 262 C482 252 480 240 478 226 L451 71 C449 62 448 53 448 46 C448 13 466 0 506 0 L619 0 Z M523 501 C510 428 478 397 423 397 L283 397 L322 620 L456 620 C507 620 529 600 529 553 C529 541 527 527 525 512 L523 501 Z M447 764 L609 950 L496 950 L373 764 L447 764 Z " />
<glyph glyph-name="racute" unicode="ŕ" horiz-adv-x="413" d="M264 0 L277 74 L214 85 L264 365 C317 415 374 432 431 432 C446 432 457 431 471 428 L504 537 C499 539 485 540 473 540 C391 540 322 509 269 453 L277 526 L118 526 L105 452 L161 441 L98 85 L39 74 L26 0 L264 0 Z M311 580 L473 766 L360 766 L237 580 L311 580 Z " />
<glyph glyph-name="Rcommaaccent" unicode="Ŗ" horiz-adv-x="641" d="M619 0 L632 74 L576 85 L596 197 C600 221 602 242 602 260 C602 328 572 350 524 360 C580 373 624 408 641 509 L647 544 C650 560 651 575 651 590 C651 665 609 710 500 710 L157 710 L144 636 L200 625 L104 85 L45 74 L32 0 L271 0 L284 74 L227 85 L269 318 L414 318 C460 318 482 304 482 262 C482 252 480 240 478 226 L451 71 C449 62 448 53 448 46 C448 13 466 0 506 0 L619 0 Z M523 501 C510 428 478 397 423 397 L283 397 L322 620 L456 620 C507 620 529 600 529 553 C529 541 527 527 525 512 L523 501 Z M282 -240 C321 -209 356 -168 368 -129 L385 -31 L284 -31 L266 -134 L315 -134 C300 -162 277 -189 252 -210 L282 -240 Z " />
<glyph glyph-name="rcommaaccent" unicode="ŗ" horiz-adv-x="413" d="M264 0 L277 74 L214 85 L264 365 C317 415 374 432 431 432 C446 432 457 431 471 428 L504 537 C499 539 485 540 473 540 C391 540 322 509 269 453 L277 526 L118 526 L105 452 L161 441 L98 85 L39 74 L26 0 L264 0 Z M80 -240 C119 -209 154 -168 166 -129 L183 -31 L82 -31 L64 -134 L113 -134 C98 -162 75 -189 50 -210 L80 -240 Z " />
<glyph glyph-name="Rcaron" unicode="Ř" horiz-adv-x="641" d="M619 0 L632 74 L576 85 L596 197 C600 221 602 242 602 260 C602 328 572 350 524 360 C580 373 624 408 641 509 L647 544 C650 560 651 575 651 590 C651 665 609 710 500 710 L157 710 L144 636 L200 625 L104 85 L45 74 L32 0 L271 0 L284 74 L227 85 L269 318 L414 318 C460 318 482 304 482 262 C482 252 480 240 478 226 L451 71 C449 62 448 53 448 46 C448 13 466 0 506 0 L619 0 Z M523 501 C510 428 478 397 423 397 L283 397 L322 620 L456 620 C507 620 529 600 529 553 C529 541 527 527 525 512 L523 501 Z M479 763 L661 939 L570 939 L441 815 L357 939 L270 939 L390 763 L479 763 Z " />
<glyph glyph-name="rcaron" unicode="ř" horiz-adv-x="413" d="M264 0 L277 74 L214 85 L264 365 C317 415 374 432 431 432 C446 432 457 431 471 428 L504 537 C499 539 485 540 473 540 C391 540 322 509 269 453 L277 526 L118 526 L105 452 L161 441 L98 85 L39 74 L26 0 L264 0 Z M353 579 L535 755 L444 755 L315 631 L231 755 L144 755 L264 579 L353 579 Z " />
<glyph glyph-name="Sacute" unicode="Ś" horiz-adv-x="552" d="M552 197 C561 248 563 264 563 278 C563 363 504 389 398 411 C300 431 239 442 239 498 C239 607 301 647 390 647 C436 647 472 639 499 615 L490 512 L583 512 L609 662 C568 709 499 728 404 728 C236 728 146 668 122 530 C114 483 113 468 113 454 C113 301 316 330 410 277 C430 266 439 254 439 230 C439 140 395 73 271 73 C222 73 182 83 151 113 L159 198 L68 198 L42 51 C97 0 177 -18 258 -18 C420 -18 524 39 552 197 L552 197 Z M412 764 L574 950 L461 950 L338 764 L412 764 Z " />
<glyph glyph-name="sacute" unicode="ś" horiz-adv-x="491" d="M490 130 C496 159 500 180 500 197 C500 342 196 279 196 363 C196 441 237 461 333 461 C375 461 401 457 424 444 L418 360 L504 360 L528 496 C492 527 432 540 343 540 C200 540 89 498 89 331 C89 273 123 249 186 235 C306 208 388 216 388 167 C388 94 336 65 244 65 C205 65 174 74 145 93 L151 172 L62 172 L38 36 C80 3 146 -18 237 -18 C369 -18 465 18 490 130 L490 130 Z M350 580 L512 766 L399 766 L276 580 L350 580 Z " />
<glyph glyph-name="Scircumflex" unicode="Ŝ" horiz-adv-x="552" d="M552 197 C561 248 563 264 563 278 C563 363 504 389 398 411 C300 431 239 442 239 498 C239 607 301 647 390 647 C436 647 472 639 499 615 L490 512 L583 512 L609 662 C568 709 499 728 404 728 C236 728 146 668 122 530 C114 483 113 468 113 454 C113 301 316 330 410 277 C430 266 439 254 439 230 C439 140 395 73 271 73 C222 73 182 83 151 113 L159 198 L68 198 L42 51 C97 0 177 -18 258 -18 C420 -18 524 39 552 197 L552 197 Z M605 763 L486 939 L397 939 L215 763 L305 763 L433 887 L519 763 L605 763 Z " />
<glyph glyph-name="scircumflex" unicode="ŝ" horiz-adv-x="491" d="M490 130 C496 159 500 180 500 197 C500 342 196 279 196 363 C196 441 237 461 333 461 C375 461 401 457 424 444 L418 360 L504 360 L528 496 C492 527 432 540 343 540 C200 540 89 498 89 331 C89 273 123 249 186 235 C306 208 388 216 388 167 C388 94 336 65 244 65 C205 65 174 74 145 93 L151 172 L62 172 L38 36 C80 3 146 -18 237 -18 C369 -18 465 18 490 130 L490 130 Z M542 579 L423 755 L334 755 L152 579 L242 579 L370 703 L456 579 L542 579 Z " />
<glyph glyph-name="Scedilla" unicode="Ş" horiz-adv-x="552" d="M552 197 C561 248 563 264 563 278 C563 363 504 389 398 411 C300 431 239 442 239 498 C239 607 301 647 390 647 C436 647 472 639 499 615 L490 512 L583 512 L609 662 C568 709 499 728 404 728 C236 728 146 668 122 530 C114 483 113 468 113 454 C113 301 316 330 410 277 C430 266 439 254 439 230 C439 140 395 73 271 73 C222 73 182 83 151 113 L159 198 L68 198 L42 51 C97 0 177 -18 258 -18 C420 -18 524 39 552 197 L552 197 Z M217 -240 C256 -209 291 -168 303 -129 L320 -31 L219 -31 L201 -134 L250 -134 C235 -162 212 -189 187 -210 L217 -240 Z " />
<glyph glyph-name="scedilla" unicode="ş" horiz-adv-x="491" d="M490 130 C496 159 500 180 500 197 C500 342 196 279 196 363 C196 441 237 461 333 461 C375 461 401 457 424 444 L418 360 L504 360 L528 496 C492 527 432 540 343 540 C200 540 89 498 89 331 C89 273 123 249 186 235 C306 208 388 216 388 167 C388 94 336 65 244 65 C205 65 174 74 145 93 L151 172 L62 172 L38 36 C80 3 146 -18 237 -18 C369 -18 465 18 490 130 L490 130 Z M187 -240 C226 -209 261 -168 273 -129 L290 -31 L189 -31 L171 -134 L220 -134 C205 -162 182 -189 157 -210 L187 -240 Z " />
<glyph glyph-name="Scaron" unicode="Š" horiz-adv-x="552" d="M552 197 C561 248 563 264 563 278 C563 363 504 389 398 411 C300 431 239 442 239 498 C239 607 301 647 390 647 C436 647 472 639 499 615 L490 512 L583 512 L609 662 C568 709 499 728 404 728 C236 728 146 668 122 530 C114 483 113 468 113 454 C113 301 316 330 410 277 C430 266 439 254 439 230 C439 140 395 73 271 73 C222 73 182 83 151 113 L159 198 L68 198 L42 51 C97 0 177 -18 258 -18 C420 -18 524 39 552 197 L552 197 Z M454 763 L636 939 L545 939 L416 815 L332 939 L245 939 L365 763 L454 763 Z " />
<glyph glyph-name="scaron" unicode="š" horiz-adv-x="491" d="M490 130 C496 159 500 180 500 197 C500 342 196 279 196 363 C196 441 237 461 333 461 C375 461 401 457 424 444 L418 360 L504 360 L528 496 C492 527 432 540 343 540 C200 540 89 498 89 331 C89 273 123 249 186 235 C306 208 388 216 388 167 C388 94 336 65 244 65 C205 65 174 74 145 93 L151 172 L62 172 L38 36 C80 3 146 -18 237 -18 C369 -18 465 18 490 130 L490 130 Z M392 579 L574 755 L483 755 L354 631 L270 755 L183 755 L303 579 L392 579 Z " />
<glyph glyph-name="Tcommaaccent" unicode="Ţ" horiz-adv-x="584" d="M420 0 L433 74 L368 85 L462 618 L581 618 L561 430 L637 430 L687 710 L147 710 L97 430 L172 430 L218 618 L337 618 L243 85 L176 74 L163 0 L420 0 Z M233 -240 C272 -209 307 -168 319 -129 L336 -31 L235 -31 L217 -134 L266 -134 C251 -162 228 -189 203 -210 L233 -240 Z " />
<glyph glyph-name="tcommaaccent" unicode="ţ" horiz-adv-x="356" d="M355 100 C333 81 310 72 283 72 C233 72 211 87 211 133 C211 146 213 161 216 178 L264 449 L417 449 L430 526 L277 526 L301 661 L186 642 L165 526 L109 526 L96 449 L152 449 L104 180 C100 155 97 133 97 112 C97 30 134 -18 228 -18 C284 -18 323 -1 353 30 L355 100 Z M154 -240 C193 -209 228 -168 240 -129 L257 -31 L156 -31 L138 -134 L187 -134 C172 -162 149 -189 124 -210 L154 -240 Z " />
<glyph glyph-name="Tcaron" unicode="Ť" horiz-adv-x="584" d="M420 0 L433 74 L368 85 L462 618 L581 618 L561 430 L637 430 L687 710 L147 710 L97 430 L172 430 L218 618 L337 618 L243 85 L176 74 L163 0 L420 0 Z M470 763 L652 939 L561 939 L432 815 L348 939 L261 939 L381 763 L470 763 Z " />
<glyph glyph-name="tcaron" unicode="ť" horiz-adv-x="478" d="M355 100 C333 81 310 72 283 72 C233 72 211 87 211 133 C211 146 213 161 216 178 L264 449 L417 449 L430 526 L277 526 L301 661 L186 642 L165 526 L109 526 L96 449 L152 449 L104 180 C100 155 97 133 97 112 C97 30 134 -18 228 -18 C284 -18 323 -1 353 30 L355 100 Z M470 424 C512 459 553 506 575 551 L604 719 L479 719 L451 557 L519 557 C499 521 469 489 440 463 L470 424 Z " />
<glyph glyph-name="Tbar" unicode="Ŧ" horiz-adv-x="584" d="M480 277 L496 368 L418 368 L462 618 L581 618 L561 430 L637 430 L687 710 L147 710 L97 430 L172 430 L218 618 L337 618 L293 368 L215 368 L199 277 L277 277 L243 85 L176 74 L163 0 L420 0 L433 74 L368 85 L402 277 L480 277 Z " />
<glyph glyph-name="tbar" unicode="ŧ" horiz-adv-x="356" d="M345 213 L361 304 L238 304 L264 449 L417 449 L430 526 L277 526 L301 661 L186 642 L165 526 L109 526 L96 449 L152 449 L126 304 L80 304 L64 213 L110 213 L104 180 C100 155 97 133 97 112 C97 30 134 -18 228 -18 C284 -18 323 -1 353 30 L355 100 C333 81 310 72 283 72 C233 72 211 84 211 131 C211 144 213 159 216 178 L222 213 L345 213 Z " />
<glyph glyph-name="Utilde" unicode="Ũ" horiz-adv-x="677" d="M528 227 C510 128 468 82 359 82 C277 82 238 101 238 171 C238 187 240 205 244 227 L314 625 L372 636 L385 710 L150 710 L137 636 L187 625 L119 241 C113 205 109 173 109 145 C109 28 170 -18 332 -18 C554 -18 609 53 642 241 L710 625 L764 636 L777 710 L558 710 L545 636 L598 625 L528 227 Z M667 885 C633 852 602 835 565 835 C509 835 474 885 408 885 C365 885 335 866 311 842 L298 764 C331 798 362 815 400 815 C452 815 488 764 557 764 C599 764 630 784 654 808 L667 885 Z " />
<glyph glyph-name="utilde" unicode="ũ" horiz-adv-x="587" d="M447 163 C437 106 401 75 315 75 C242 75 209 88 209 136 C209 144 210 153 212 163 L261 441 L318 452 L331 526 L112 526 L99 452 L146 441 L97 162 C94 145 92 130 92 116 C92 21 159 -18 293 -18 C445 -18 523 34 546 162 L595 441 L646 452 L659 526 L455 526 L442 452 L496 441 L447 163 Z M590 701 C556 668 525 651 488 651 C432 651 397 701 331 701 C288 701 258 682 234 658 L221 580 C254 614 285 631 323 631 C375 631 411 580 480 580 C522 580 553 600 577 624 L590 701 Z " />
<glyph glyph-name="Umacron" unicode="Ū" horiz-adv-x="677" d="M528 227 C510 128 468 82 359 82 C277 82 238 101 238 171 C238 187 240 205 244 227 L314 625 L372 636 L385 710 L150 710 L137 636 L187 625 L119 241 C113 205 109 173 109 145 C109 28 170 -18 332 -18 C554 -18 609 53 642 241 L710 625 L764 636 L777 710 L558 710 L545 636 L598 625 L528 227 Z M644 777 L658 855 L319 855 L305 777 L644 777 Z " />
<glyph glyph-name="umacron" unicode="ū" horiz-adv-x="587" d="M447 163 C437 106 401 75 315 75 C242 75 209 88 209 136 C209 144 210 153 212 163 L261 441 L318 452 L331 526 L112 526 L99 452 L146 441 L97 162 C94 145 92 130 92 116 C92 21 159 -18 293 -18 C445 -18 523 34 546 162 L595 441 L646 452 L659 526 L455 526 L442 452 L496 441 L447 163 Z M567 593 L581 671 L242 671 L228 593 L567 593 Z " />
<glyph glyph-name="Ubreve" unicode="Ŭ" horiz-adv-x="677" d="M528 227 C510 128 468 82 359 82 C277 82 238 101 238 171 C238 187 240 205 244 227 L314 625 L372 636 L385 710 L150 710 L137 636 L187 625 L119 241 C113 205 109 173 109 145 C109 28 170 -18 332 -18 C554 -18 609 53 642 241 L710 625 L764 636 L777 710 L558 710 L545 636 L598 625 L528 227 Z M600 935 C585 863 540 825 482 825 C431 825 398 854 398 910 C398 918 399 926 400 935 L332 935 C329 920 328 906 328 893 C328 802 390 758 472 758 C566 758 652 816 673 935 L600 935 Z " />
<glyph glyph-name="ubreve" unicode="ŭ" horiz-adv-x="587" d="M447 163 C437 106 401 75 315 75 C242 75 209 88 209 136 C209 144 210 153 212 163 L261 441 L318 452 L331 526 L112 526 L99 452 L146 441 L97 162 C94 145 92 130 92 116 C92 21 159 -18 293 -18 C445 -18 523 34 546 162 L595 441 L646 452 L659 526 L455 526 L442 452 L496 441 L447 163 Z M523 751 C508 679 463 641 405 641 C354 641 321 670 321 726 C321 734 322 742 323 751 L255 751 C252 736 251 722 251 709 C251 618 313 574 395 574 C489 574 575 632 596 751 L523 751 Z " />
<glyph glyph-name="Uring" unicode="Ů" horiz-adv-x="677" d="M528 227 C510 128 468 82 359 82 C277 82 238 101 238 171 C238 187 240 205 244 227 L314 625 L372 636 L385 710 L150 710 L137 636 L187 625 L119 241 C113 205 109 173 109 145 C109 28 170 -18 332 -18 C554 -18 609 53 642 241 L710 625 L764 636 L777 710 L558 710 L545 636 L598 625 L528 227 Z M600 870 C600 921 572 950 506 950 C416 950 375 901 375 825 C375 772 406 745 470 745 C568 745 600 794 600 870 L600 870 Z M549 861 C549 815 528 789 478 789 C444 789 427 804 427 834 C427 879 452 907 498 907 C533 907 549 891 549 861 L549 861 Z " />
<glyph glyph-name="uring" unicode="ů" horiz-adv-x="587" d="M447 163 C437 106 401 75 315 75 C242 75 209 88 209 136 C209 144 210 153 212 163 L261 441 L318 452 L331 526 L112 526 L99 452 L146 441 L97 162 C94 145 92 130 92 116 C92 21 159 -18 293 -18 C445 -18 523 34 546 162 L595 441 L646 452 L659 526 L455 526 L442 452 L496 441 L447 163 Z M523 686 C523 737 495 766 429 766 C339 766 298 717 298 641 C298 588 329 561 393 561 C491 561 523 610 523 686 L523 686 Z M472 677 C472 631 451 605 401 605 C367 605 350 620 350 650 C350 695 375 723 421 723 C456 723 472 707 472 677 L472 677 Z " />
<glyph glyph-name="Uhungarumlaut" unicode="Ű" horiz-adv-x="677" d="M528 227 C510 128 468 82 359 82 C277 82 238 101 238 171 C238 187 240 205 244 227 L314 625 L372 636 L385 710 L150 710 L137 636 L187 625 L119 241 C113 205 109 173 109 145 C109 28 170 -18 332 -18 C554 -18 609 53 642 241 L710 625 L764 636 L777 710 L558 710 L545 636 L598 625 L528 227 Z M379 764 L541 950 L428 950 L305 764 L379 764 Z M572 764 L733 950 L620 950 L497 764 L572 764 Z " />
<glyph glyph-name="uhungarumlaut" unicode="ű" horiz-adv-x="587" d="M447 163 C437 106 401 75 315 75 C242 75 209 88 209 136 C209 144 210 153 212 163 L261 441 L318 452 L331 526 L112 526 L99 452 L146 441 L97 162 C94 145 92 130 92 116 C92 21 159 -18 293 -18 C445 -18 523 34 546 162 L595 441 L646 452 L659 526 L455 526 L442 452 L496 441 L447 163 Z M302 580 L464 766 L351 766 L228 580 L302 580 Z M495 580 L656 766 L543 766 L420 580 L495 580 Z " />
<glyph glyph-name="Uogonek" unicode="Ų" horiz-adv-x="677" d="M413 -134 C393 -140 372 -144 346 -144 C294 -144 280 -128 280 -107 C280 -61 342 -27 400 -15 C567 19 612 74 642 241 L710 625 L764 636 L777 710 L558 710 L545 636 L598 625 L528 227 C510 126 469 82 359 82 C273 82 238 101 238 176 C238 191 241 208 244 227 L314 625 L372 636 L385 710 L150 710 L137 636 L187 625 L119 241 C113 205 109 173 109 145 C109 33 165 -14 314 -18 C225 -45 178 -88 178 -155 C178 -215 239 -240 319 -240 C366 -240 410 -230 435 -215 L413 -134 Z " />
<glyph glyph-name="uogonek" unicode="ų" horiz-adv-x="587" d="M367 -134 C347 -140 326 -144 300 -144 C248 -144 234 -128 234 -107 C234 -60 299 -27 357 -14 C467 10 527 53 546 162 L595 441 L646 452 L659 526 L455 526 L442 452 L496 441 L447 163 C436 100 401 75 315 75 C241 75 210 92 210 139 C210 146 210 154 212 163 L261 441 L318 452 L331 526 L112 526 L99 452 L146 441 L97 162 C94 145 93 130 93 116 C93 26 151 -13 270 -17 C179 -45 132 -88 132 -155 C132 -215 193 -240 273 -240 C320 -240 364 -230 389 -215 L367 -134 Z " />
<glyph glyph-name="Wcircumflex" unicode="Ŵ" horiz-adv-x="883" d="M699 0 L918 625 L974 636 L987 710 L773 710 L760 636 L810 625 L657 146 L635 710 L528 710 L296 146 L317 625 L375 636 L388 710 L145 710 L132 636 L185 625 L185 0 L326 0 L533 512 L558 0 L699 0 Z M785 763 L666 939 L577 939 L395 763 L485 763 L613 887 L699 763 L785 763 Z " />
<glyph glyph-name="wcircumflex" unicode="ŵ" horiz-adv-x="800" d="M651 0 L812 444 L863 452 L876 526 L685 526 L672 452 L718 444 L597 94 L562 526 L450 526 L256 94 L256 444 L312 452 L325 526 L108 526 L95 451 L141 443 L153 0 L297 0 L473 396 L508 0 L651 0 Z M707 579 L588 755 L499 755 L317 579 L407 579 L535 703 L621 579 L707 579 Z " />
<glyph glyph-name="Ycircumflex" unicode="Ŷ" horiz-adv-x="592" d="M423 0 L436 74 L372 85 L407 282 L630 625 L684 636 L697 710 L504 710 L491 636 L538 625 L376 371 L307 625 L362 636 L375 710 L144 710 L131 636 L180 625 L281 282 L246 85 L180 74 L167 0 L423 0 Z M635 763 L516 939 L427 939 L245 763 L335 763 L463 887 L549 763 L635 763 Z " />
<glyph glyph-name="ycircumflex" unicode="ŷ" horiz-adv-x="568" d="M97 -138 C57 -138 37 -127 20 -107 L-24 -191 C-3 -222 34 -238 84 -238 C198 -238 253 -160 323 -31 L580 443 L631 451 L644 526 L451 526 L438 451 L484 443 L309 102 L261 443 L314 451 L327 526 L106 526 L93 451 L143 443 L223 -18 L206 -50 C171 -115 142 -138 97 -138 L97 -138 Z M591 579 L472 755 L383 755 L201 579 L291 579 L419 703 L505 579 L591 579 Z " />
<glyph glyph-name="Ydieresis" unicode="Ÿ" horiz-adv-x="592" d="M423 0 L436 74 L372 85 L407 282 L630 625 L684 636 L697 710 L504 710 L491 636 L538 625 L376 371 L307 625 L362 636 L375 710 L144 710 L131 636 L180 625 L281 282 L246 85 L180 74 L167 0 L423 0 Z M387 774 L409 903 L294 903 L272 774 L387 774 Z M618 774 L640 903 L525 903 L503 774 L618 774 Z " />
<glyph glyph-name="Zacute" unicode="Ź" horiz-adv-x="552" d="M524 0 L573 280 L496 280 L446 93 L179 93 L621 622 L637 710 L154 710 L104 430 L182 430 L232 618 L475 618 L48 115 L28 0 L524 0 Z M412 764 L574 950 L461 950 L338 764 L412 764 Z " />
<glyph glyph-name="zacute" unicode="ź" horiz-adv-x="516" d="M489 0 L525 207 L442 207 L404 79 L178 79 L558 460 L569 526 L119 526 L87 344 L170 344 L199 451 L407 451 L41 86 L26 0 L489 0 Z M362 580 L524 766 L411 766 L288 580 L362 580 Z " />
<glyph glyph-name="Zdotaccent" unicode="Ż" horiz-adv-x="552" d="M524 0 L573 280 L496 280 L446 93 L179 93 L621 622 L637 710 L154 710 L104 430 L182 430 L232 618 L475 618 L48 115 L28 0 L524 0 Z M469 774 L491 903 L376 903 L354 774 L469 774 Z " />
<glyph glyph-name="zdotaccent" unicode="ż" horiz-adv-x="516" d="M489 0 L525 207 L442 207 L404 79 L178 79 L558 460 L569 526 L119 526 L87 344 L170 344 L199 451 L407 451 L41 86 L26 0 L489 0 Z M419 590 L441 719 L326 719 L304 590 L419 590 Z " />
<glyph glyph-name="Zcaron" unicode="Ž" horiz-adv-x="552" d="M524 0 L573 280 L496 280 L446 93 L179 93 L621 622 L637 710 L154 710 L104 430 L182 430 L232 618 L475 618 L48 115 L28 0 L524 0 Z M450 763 L632 939 L541 939 L412 815 L328 939 L241 939 L361 763 L450 763 Z " />
<glyph glyph-name="zcaron" unicode="ž" horiz-adv-x="516" d="M489 0 L525 207 L442 207 L404 79 L178 79 L558 460 L569 526 L119 526 L87 344 L170 344 L199 451 L407 451 L41 86 L26 0 L489 0 Z M404 579 L586 755 L495 755 L366 631 L282 755 L195 755 L315 579 L404 579 Z " />
<glyph glyph-name="florin" unicode="ƒ" horiz-adv-x="503" d="M25 -140 C175 -140 247 -85 287 41 L404 413 L511 413 L527 502 L432 502 L444 537 C462 590 489 622 556 622 L586 622 L603 719 L591 719 C444 719 367 678 323 549 L307 502 L214 502 L198 413 L277 413 L163 52 C145 -5 99 -41 35 -41 L17 -41 L0 -140 L25 -140 Z " />
<glyph glyph-name="Scommaaccent" unicode="Ș" horiz-adv-x="552" d="M552 197 C561 248 563 264 563 278 C563 363 504 389 398 411 C300 431 239 442 239 498 C239 607 301 647 390 647 C436 647 472 639 499 615 L490 512 L583 512 L609 662 C568 709 499 728 404 728 C236 728 146 668 122 530 C114 483 113 468 113 454 C113 301 316 330 410 277 C430 266 439 254 439 230 C439 140 395 73 271 73 C222 73 182 83 151 113 L159 198 L68 198 L42 51 C97 0 177 -18 258 -18 C420 -18 524 39 552 197 L552 197 Z M217 -240 C256 -209 291 -168 303 -129 L320 -31 L219 -31 L201 -134 L250 -134 C235 -162 212 -189 187 -210 L217 -240 Z " />
<glyph glyph-name="scommaaccent" unicode="ș" horiz-adv-x="491" d="M490 130 C496 159 500 180 500 197 C500 342 196 279 196 363 C196 441 237 461 333 461 C375 461 401 457 424 444 L418 360 L504 360 L528 496 C492 527 432 540 343 540 C200 540 89 498 89 331 C89 273 123 249 186 235 C306 208 388 216 388 167 C388 94 336 65 244 65 C205 65 174 74 145 93 L151 172 L62 172 L38 36 C80 3 146 -18 237 -18 C369 -18 465 18 490 130 L490 130 Z M187 -240 C226 -209 261 -168 273 -129 L290 -31 L189 -31 L171 -134 L220 -134 C205 -162 182 -189 157 -210 L187 -240 Z " />
<glyph glyph-name="uni021A" unicode="Ț" horiz-adv-x="584" d="M420 0 L433 74 L368 85 L462 618 L581 618 L561 430 L637 430 L687 710 L147 710 L97 430 L172 430 L218 618 L337 618 L243 85 L176 74 L163 0 L420 0 Z M233 -240 C272 -209 307 -168 319 -129 L336 -31 L235 -31 L217 -134 L266 -134 C251 -162 228 -189 203 -210 L233 -240 Z " />
<glyph glyph-name="uni021B" unicode="ț" horiz-adv-x="356" d="M355 100 C333 81 310 72 283 72 C233 72 211 87 211 133 C211 146 213 161 216 178 L264 449 L417 449 L430 526 L277 526 L301 661 L186 642 L165 526 L109 526 L96 449 L152 449 L104 180 C100 155 97 133 97 112 C97 30 134 -18 228 -18 C284 -18 323 -1 353 30 L355 100 Z M154 -240 C193 -209 228 -168 240 -129 L257 -31 L156 -31 L138 -134 L187 -134 C172 -162 149 -189 124 -210 L154 -240 Z " />
<glyph glyph-name="dotlessj" unicode="ȷ" horiz-adv-x="238" d="M-113 -191 C-95 -222 -59 -240 -5 -240 C109 -240 167 -158 191 -21 L287 526 L109 526 L96 451 L156 441 L75 -21 C65 -80 40 -146 -30 -146 C-57 -146 -75 -139 -91 -120 L-113 -191 Z " />
<glyph glyph-name="circumflex" unicode="ˆ" horiz-adv-x="454" d="M524 579 L405 755 L316 755 L134 579 L224 579 L352 703 L438 579 L524 579 Z " />
<glyph glyph-name="caron" unicode="ˇ" horiz-adv-x="454" d="M373 579 L555 755 L464 755 L335 631 L251 755 L164 755 L284 579 L373 579 Z " />
<glyph glyph-name="breve" unicode="˘" horiz-adv-x="405" d="M432 751 C417 679 372 641 314 641 C263 641 230 670 230 726 C230 734 231 742 232 751 L164 751 C161 736 160 722 160 709 C160 618 222 574 304 574 C398 574 484 632 505 751 L432 751 Z " />
<glyph glyph-name="dotaccent" unicode="˙" horiz-adv-x="179" d="M251 590 L273 719 L158 719 L136 590 L251 590 Z " />
<glyph glyph-name="ring" unicode="˚" horiz-adv-x="283" d="M371 686 C371 737 343 766 277 766 C187 766 146 717 146 641 C146 588 177 561 241 561 C339 561 371 610 371 686 L371 686 Z M320 677 C320 631 299 605 249 605 C215 605 198 620 198 650 C198 695 223 723 269 723 C304 723 320 707 320 677 L320 677 Z " />
<glyph glyph-name="ogonek" unicode="˛" horiz-adv-x="278" d="M241 -134 C221 -140 200 -144 174 -144 C122 -144 108 -128 108 -107 C108 -45 216 -20 278 0 L216 0 C75 -28 6 -72 6 -154 C6 -215 67 -240 147 -240 C194 -240 238 -230 263 -215 L241 -134 Z " />
<glyph glyph-name="tilde" unicode="˜" horiz-adv-x="411" d="M502 701 C468 668 437 651 400 651 C344 651 309 701 243 701 C200 701 170 682 146 658 L133 580 C166 614 197 631 235 631 C287 631 323 580 392 580 C434 580 465 600 489 624 L502 701 Z " />
<glyph glyph-name="hungarumlaut" unicode="˝" horiz-adv-x="459" d="M208 580 L370 766 L257 766 L134 580 L208 580 Z M401 580 L562 766 L449 766 L326 580 L401 580 Z " />
<glyph glyph-name="pi" unicode="π" horiz-adv-x="670" d="M665 100 C641 80 625 72 597 72 C551 72 536 86 536 121 C536 135 539 154 543 177 L589 441 L672 451 L685 526 L117 526 L104 451 L161 441 L98 84 L38 74 L25 0 L258 0 L271 74 L214 84 L277 438 L477 438 L433 192 C427 159 423 128 423 101 C423 28 452 -18 542 -18 C598 -18 634 0 663 30 L665 100 Z " />
<glyph glyph-name="Wgrave" unicode="Ẁ" horiz-adv-x="883" d="M699 0 L918 625 L974 636 L987 710 L773 710 L760 636 L810 625 L657 146 L635 710 L528 710 L296 146 L317 625 L375 636 L388 710 L145 710 L132 636 L185 625 L185 0 L326 0 L533 512 L558 0 L699 0 Z M657 764 L597 950 L487 950 L586 764 L657 764 Z " />
<glyph glyph-name="wgrave" unicode="ẁ" horiz-adv-x="800" d="M651 0 L812 444 L863 452 L876 526 L685 526 L672 452 L718 444 L597 94 L562 526 L450 526 L256 94 L256 444 L312 452 L325 526 L108 526 L95 451 L141 443 L153 0 L297 0 L473 396 L508 0 L651 0 Z M583 580 L523 766 L413 766 L512 580 L583 580 Z " />
<glyph glyph-name="Wacute" unicode="Ẃ" horiz-adv-x="883" d="M699 0 L918 625 L974 636 L987 710 L773 710 L760 636 L810 625 L657 146 L635 710 L528 710 L296 146 L317 625 L375 636 L388 710 L145 710 L132 636 L185 625 L185 0 L326 0 L533 512 L558 0 L699 0 Z M588 764 L750 950 L637 950 L514 764 L588 764 Z " />
<glyph glyph-name="wacute" unicode="ẃ" horiz-adv-x="800" d="M651 0 L812 444 L863 452 L876 526 L685 526 L672 452 L718 444 L597 94 L562 526 L450 526 L256 94 L256 444 L312 452 L325 526 L108 526 L95 451 L141 443 L153 0 L297 0 L473 396 L508 0 L651 0 Z M514 580 L676 766 L563 766 L440 580 L514 580 Z " />
<glyph glyph-name="Wdieresis" unicode="Ẅ" horiz-adv-x="883" d="M699 0 L918 625 L974 636 L987 710 L773 710 L760 636 L810 625 L657 146 L635 710 L528 710 L296 146 L317 625 L375 636 L388 710 L145 710 L132 636 L185 625 L185 0 L326 0 L533 512 L558 0 L699 0 Z M537 774 L559 903 L444 903 L422 774 L537 774 Z M768 774 L790 903 L675 903 L653 774 L768 774 Z " />
<glyph glyph-name="wdieresis" unicode="ẅ" horiz-adv-x="800" d="M651 0 L812 444 L863 452 L876 526 L685 526 L672 452 L718 444 L597 94 L562 526 L450 526 L256 94 L256 444 L312 452 L325 526 L108 526 L95 451 L141 443 L153 0 L297 0 L473 396 L508 0 L651 0 Z M456 590 L478 719 L363 719 L341 590 L456 590 Z M687 590 L709 719 L594 719 L572 590 L687 590 Z " />
<glyph glyph-name="Ygrave" unicode="Ỳ" horiz-adv-x="592" d="M423 0 L436 74 L372 85 L407 282 L630 625 L684 636 L697 710 L504 710 L491 636 L538 625 L376 371 L307 625 L362 636 L375 710 L144 710 L131 636 L180 625 L281 282 L246 85 L180 74 L167 0 L423 0 Z M515 764 L455 950 L345 950 L444 764 L515 764 Z " />
<glyph glyph-name="ygrave" unicode="ỳ" horiz-adv-x="568" d="M97 -138 C57 -138 37 -127 20 -107 L-24 -191 C-3 -222 34 -238 84 -238 C198 -238 253 -160 323 -31 L580 443 L631 451 L644 526 L451 526 L438 451 L484 443 L309 102 L261 443 L314 451 L327 526 L106 526 L93 451 L143 443 L223 -18 L206 -50 C171 -115 142 -138 97 -138 L97 -138 Z M467 580 L407 766 L297 766 L396 580 L467 580 Z " />
<glyph glyph-name="endash" unicode="–" horiz-adv-x="530" d="M550 283 L566 374 L95 374 L79 283 L550 283 Z " />
<glyph glyph-name="emdash" unicode="—" horiz-adv-x="726" d="M745 283 L761 374 L95 374 L79 283 L745 283 Z " />
<glyph glyph-name="quoteleft" unicode="‘" horiz-adv-x="197" d="M236 463 C217 489 197 521 191 557 L260 557 L288 719 L163 719 L134 551 C140 506 162 459 193 424 L236 463 Z " />
<glyph glyph-name="quoteright" unicode="’" horiz-adv-x="197" d="M154 424 C196 459 237 506 259 551 L288 719 L163 719 L135 557 L203 557 C183 521 153 489 124 463 L154 424 Z " />
<glyph glyph-name="quotesinglbase" unicode="‚" horiz-adv-x="197" d="M56 -132 C98 -98 139 -50 160 -6 L190 162 L65 162 L37 0 L105 0 C85 -35 55 -68 26 -94 L56 -132 Z " />
<glyph glyph-name="quotedblleft" unicode="“" horiz-adv-x="394" d="M236 463 C217 489 197 521 191 557 L260 557 L288 719 L163 719 L134 551 C140 506 162 459 193 424 L236 463 Z M433 463 C414 489 394 521 388 557 L457 557 L485 719 L360 719 L331 551 C337 506 359 459 390 424 L433 463 Z " />
<glyph glyph-name="quotedblright" unicode="”" horiz-adv-x="394" d="M154 424 C196 459 237 506 259 551 L288 719 L163 719 L135 557 L203 557 C183 521 153 489 124 463 L154 424 Z M351 424 C393 459 434 506 456 551 L485 719 L360 719 L332 557 L400 557 C380 521 350 489 321 463 L351 424 Z " />
<glyph glyph-name="quotedblbase" unicode="„" horiz-adv-x="394" d="M56 -132 C98 -98 139 -50 160 -6 L190 162 L65 162 L37 0 L105 0 C85 -35 55 -68 26 -94 L56 -132 Z M253 -132 C295 -98 336 -50 357 -6 L387 162 L262 162 L234 0 L302 0 C282 -35 252 -68 223 -94 L253 -132 Z " />
<glyph glyph-name="dagger" unicode="†" horiz-adv-x="412" d="M253 0 L337 478 L464 478 L477 551 L350 551 L378 710 L285 710 L257 551 L129 551 L116 478 L244 478 L160 0 L253 0 Z " />
<glyph glyph-name="daggerdbl" unicode="‡" horiz-adv-x="412" d="M253 0 L281 159 L408 159 L420 231 L293 231 L337 478 L464 478 L477 551 L350 551 L378 710 L285 710 L257 551 L128 551 L115 478 L244 478 L200 231 L71 231 L59 159 L188 159 L160 0 L253 0 Z " />
<glyph glyph-name="bullet" unicode="•" horiz-adv-x="342" d="M378 393 C378 458 339 504 260 504 C156 504 94 433 94 343 C94 278 133 230 212 230 C316 230 378 304 378 393 L378 393 Z " />
<glyph glyph-name="ellipsis" unicode="…" horiz-adv-x="960" d="M158 0 L186 162 L62 162 L34 0 L158 0 Z M542 0 L570 162 L446 162 L418 0 L542 0 Z M926 0 L954 162 L830 162 L802 0 L926 0 Z " />
<glyph glyph-name="perthousand" unicode="‰" horiz-adv-x="932" d="M383 597 C386 612 386 625 387 637 C387 706 346 729 282 729 C206 729 152 697 134 597 L114 487 C111 472 110 458 110 446 C110 378 151 356 216 356 C291 356 345 387 363 487 L383 597 Z M291 479 C283 433 255 415 227 415 C202 415 182 420 182 455 C182 462 182 470 184 479 L206 605 C214 649 241 669 271 669 C295 669 315 663 315 628 C315 621 314 614 313 605 L291 479 Z M137 -21 L696 732 L628 732 L70 -21 L137 -21 Z M653 222 C656 237 656 250 657 262 C657 331 616 354 552 354 C476 354 422 322 404 222 L384 112 C381 97 380 83 380 71 C380 3 421 -19 486 -19 C561 -19 615 12 633 112 L653 222 Z M561 104 C553 58 525 40 497 40 C472 40 452 45 452 80 C452 87 452 95 454 104 L476 230 C484 274 511 294 541 294 C565 294 585 288 585 253 C585 246 584 239 583 230 L561 104 Z M942 222 C945 237 945 250 946 262 C946 331 905 354 841 354 C765 354 711 322 693 222 L673 112 C670 97 669 83 669 71 C669 3 710 -19 775 -19 C850 -19 904 12 922 112 L942 222 Z M850 104 C842 58 814 40 786 40 C761 40 741 45 741 80 C741 87 741 95 743 104 L765 230 C773 274 800 294 830 294 C854 294 874 288 874 253 C874 246 873 239 872 230 L850 104 Z " />
<glyph glyph-name="guilsinglleft" unicode="‹" horiz-adv-x="226" d="M222 141 L238 228 L138 335 L276 441 L291 532 L95 381 L79 292 L222 141 Z " />
<glyph glyph-name="guilsinglright" unicode="›" horiz-adv-x="226" d="M249 291 L265 381 L120 532 L104 444 L204 339 L67 232 L51 141 L249 291 Z " />
<glyph glyph-name="fraction" unicode="⁄" horiz-adv-x="184" d="M-91 -21 L468 732 L400 732 L-158 -21 L-91 -21 Z " />
<glyph glyph-name="zerosuperior" unicode="⁰" horiz-adv-x="309" d="M384 597 C387 612 387 625 388 637 C388 706 347 729 283 729 C207 729 153 697 135 597 L115 487 C112 472 111 458 111 446 C111 378 152 356 217 356 C292 356 346 387 364 487 L384 597 Z M292 479 C284 433 256 415 228 415 C203 415 183 420 183 455 C183 462 183 470 185 479 L207 605 C215 649 242 669 272 669 C296 669 316 663 316 628 C316 621 315 614 314 605 L292 479 Z " />
<glyph glyph-name="foursuperior" unicode="⁴" horiz-adv-x="308" d="M320 365 L331 427 L358 427 L367 482 L340 482 L362 605 L298 605 L276 482 L176 482 C225 546 280 631 317 705 L261 727 C220 650 168 568 110 493 L99 427 L265 427 L254 365 L320 365 Z " />
<glyph glyph-name="fivesuperior" unicode="⁵" horiz-adv-x="291" d="M94 381 C117 364 151 356 186 356 C294 356 351 403 351 512 C351 560 327 588 266 588 C238 588 215 582 196 570 L220 660 L313 660 L311 617 L355 617 L373 720 L173 720 L120 520 L163 510 C184 531 211 542 236 542 C267 542 286 533 286 502 C286 450 256 416 204 416 C171 416 143 424 123 436 L94 381 Z " />
<glyph glyph-name="sixsuperior" unicode="⁶" horiz-adv-x="299" d="M320 729 C189 714 110 583 110 456 C110 394 137 356 214 356 C298 356 359 409 359 507 C359 553 336 585 279 585 C238 585 209 568 190 547 C210 615 255 664 327 672 L320 729 Z M182 504 C200 525 224 539 250 539 C279 539 292 527 292 500 C292 451 269 412 225 412 C186 412 176 436 176 462 C176 477 179 492 182 504 L182 504 Z " />
<glyph glyph-name="sevensuperior" unicode="⁷" horiz-adv-x="282" d="M199 357 C234 459 305 573 376 665 L385 720 L151 720 L133 615 L177 615 L190 658 L306 658 C229 569 169 474 127 372 L199 357 Z " />
<glyph glyph-name="eightsuperior" unicode="⁸" horiz-adv-x="303" d="M308 555 C358 568 381 610 381 655 C381 710 339 729 282 729 C216 729 145 701 145 613 C145 583 161 559 192 547 C139 533 102 499 102 439 C102 381 150 356 215 356 C290 356 361 393 361 486 C361 521 342 541 308 555 L308 555 Z M242 527 C272 521 291 507 291 481 C291 435 260 415 224 415 C193 415 175 427 175 455 C175 491 200 522 242 527 L242 527 Z M252 563 C223 569 206 584 206 608 C206 649 234 670 270 670 C298 670 314 661 314 635 C314 599 293 572 252 563 L252 563 Z " />
<glyph glyph-name="ninesuperior" unicode="⁹" horiz-adv-x="299" d="M168 356 C297 371 377 498 377 621 C377 682 351 729 274 729 C191 729 128 675 128 578 C128 532 151 499 209 499 C250 499 279 516 298 537 C277 469 231 420 161 412 L168 356 Z M306 580 C288 560 263 546 239 546 C209 546 196 559 196 586 C196 628 218 670 263 670 C300 670 311 653 311 624 C311 612 309 597 306 580 L306 580 Z " />
<glyph glyph-name="zeroinferior" unicode="₀" horiz-adv-x="309" d="M318 222 C321 237 321 250 322 262 C322 331 281 354 217 354 C141 354 87 322 69 222 L49 112 C46 97 45 83 45 71 C45 3 86 -19 151 -19 C226 -19 280 12 298 112 L318 222 Z M226 104 C218 58 190 40 162 40 C137 40 117 45 117 80 C117 87 117 95 119 104 L141 230 C149 274 176 294 206 294 C230 294 250 288 250 253 C250 246 249 239 248 230 L226 104 Z " />
<glyph glyph-name="oneinferior" unicode="₁" horiz-adv-x="209" d="M178 -10 L186 35 L161 42 L214 345 L163 345 C133 317 101 294 65 272 L89 225 C102 231 115 240 129 250 L92 42 L60 35 L52 -10 L178 -10 Z " />
<glyph glyph-name="twoinferior" unicode="₂" horiz-adv-x="294" d="M266 -10 L284 93 L240 93 L226 52 L125 52 C243 123 310 182 310 273 C310 328 276 354 212 354 C168 354 125 345 86 324 L97 264 C123 280 156 293 184 293 C217 293 238 281 238 249 C238 169 117 99 39 55 L28 -10 L266 -10 Z " />
<glyph glyph-name="threeinferior" unicode="₃" horiz-adv-x="281" d="M24 -3 C54 -15 86 -19 121 -19 C199 -19 269 18 269 107 C269 140 255 166 226 175 C266 188 292 233 292 278 C292 326 261 354 190 354 C155 354 116 346 83 327 L91 272 C114 286 143 294 169 294 C201 294 225 285 225 254 C225 218 202 196 169 196 L131 196 L122 144 L159 144 C186 144 203 137 203 110 C203 60 167 40 125 40 C98 40 70 47 52 55 L24 -3 Z " />
<glyph glyph-name="fourinferior" unicode="₄" horiz-adv-x="308" d="M254 -10 L265 52 L292 52 L301 107 L274 107 L296 230 L232 230 L210 107 L110 107 C159 171 214 256 251 330 L195 352 C154 275 102 193 44 118 L33 52 L199 52 L188 -10 L254 -10 Z " />
<glyph glyph-name="fiveinferior" unicode="₅" horiz-adv-x="291" d="M28 6 C51 -11 85 -19 120 -19 C228 -19 285 28 285 137 C285 185 261 213 200 213 C172 213 149 207 130 195 L154 285 L247 285 L245 242 L289 242 L307 345 L107 345 L54 145 L97 135 C118 156 145 167 170 167 C201 167 220 158 220 127 C220 75 190 41 138 41 C105 41 77 49 57 61 L28 6 Z " />
<glyph glyph-name="sixinferior" unicode="₆" horiz-adv-x="299" d="M254 354 C123 339 44 208 44 81 C44 19 71 -19 148 -19 C232 -19 293 34 293 132 C293 178 270 210 213 210 C172 210 143 193 124 172 C144 240 189 289 261 297 L254 354 Z M116 129 C134 150 158 164 184 164 C213 164 226 152 226 125 C226 76 203 37 159 37 C120 37 110 61 110 87 C110 102 113 117 116 129 L116 129 Z " />
<glyph glyph-name="seveninferior" unicode="₇" horiz-adv-x="282" d="M133 -18 C168 84 239 198 310 290 L319 345 L85 345 L67 240 L111 240 L124 283 L240 283 C163 194 103 99 61 -3 L133 -18 Z " />
<glyph glyph-name="eightinferior" unicode="₈" horiz-adv-x="303" d="M242 180 C292 193 315 235 315 280 C315 335 273 354 216 354 C150 354 79 326 79 238 C79 208 95 184 126 172 C73 158 36 124 36 64 C36 6 84 -19 149 -19 C224 -19 295 18 295 111 C295 146 276 166 242 180 L242 180 Z M176 152 C206 146 225 132 225 106 C225 60 194 40 158 40 C127 40 109 52 109 80 C109 116 134 147 176 152 L176 152 Z M186 188 C157 194 140 209 140 233 C140 274 168 295 204 295 C232 295 248 286 248 260 C248 224 227 197 186 188 L186 188 Z " />
<glyph glyph-name="nineinferior" unicode="₉" horiz-adv-x="299" d="M102 -19 C231 -4 311 123 311 246 C311 307 285 354 208 354 C125 354 62 300 62 203 C62 157 85 124 143 124 C184 124 213 141 232 162 C211 94 165 45 95 37 L102 -19 Z M240 205 C222 185 197 171 173 171 C143 171 130 184 130 211 C130 253 152 295 197 295 C234 295 245 278 245 249 C245 237 243 222 240 205 L240 205 Z " />
<glyph glyph-name="Euro" unicode="€" horiz-adv-x="553" d="M514 106 C473 82 422 73 365 73 C286 73 247 98 247 188 C247 202 248 218 250 235 L379 235 L417 298 L259 298 L278 405 L479 405 L516 468 L290 468 C318 588 372 636 465 636 C518 636 563 628 595 606 L645 688 C605 715 548 728 481 728 C309 728 208 647 164 468 L107 468 L83 405 L152 405 L133 298 L77 298 L53 235 L124 235 C122 217 121 200 121 184 C121 45 196 -18 349 -18 C425 -18 492 -2 546 31 L514 106 Z " />
<glyph glyph-name="uni2117" unicode="℗" horiz-adv-x="628" d="M339 161 L346 200 L309 206 L326 304 L408 304 C486 304 523 341 538 430 C541 447 543 463 543 477 C543 532 515 556 453 556 L272 556 L265 517 L297 511 L243 206 L209 200 L202 161 L339 161 Z M334 347 L362 510 L433 510 C464 510 478 501 478 467 C478 388 449 347 405 347 L334 347 Z M676 454 C681 485 684 513 684 538 C684 675 603 728 442 728 C250 728 147 654 112 454 L77 256 C71 224 68 196 68 170 C68 34 148 -18 310 -18 C501 -18 605 56 641 256 L676 454 Z M581 256 C555 108 471 41 321 41 C195 41 130 75 130 184 C130 205 132 229 137 256 L172 454 C198 601 280 667 431 667 C558 667 622 632 622 522 C622 502 620 479 616 454 L581 256 Z " />
<glyph glyph-name="trademark" unicode="™" horiz-adv-x="900" d="M320 287 L328 331 L291 338 L347 653 L415 653 L402 542 L450 542 L480 710 L158 710 L128 542 L175 542 L203 653 L270 653 L214 338 L175 331 L167 287 L320 287 Z M916 287 L924 331 L891 338 L947 657 L983 665 L991 710 L843 710 L694 374 L668 710 L514 710 L506 665 L538 657 L482 338 L447 331 L439 287 L571 287 L579 331 L547 338 L602 649 L636 287 L714 287 L878 649 L823 338 L789 331 L781 287 L916 287 Z " />
<glyph glyph-name="Omega" unicode="Ω" horiz-adv-x="628" d="M563 0 L576 74 L471 85 C598 157 643 276 668 413 L677 463 C682 494 685 521 685 546 C685 681 604 728 442 728 C249 728 149 663 113 463 L104 413 C96 370 92 330 92 292 C92 209 115 138 185 85 L77 74 L64 0 L276 0 L291 86 C240 124 211 163 211 254 C211 292 216 339 227 400 L240 471 C260 583 321 641 427 641 C514 641 560 611 560 527 C560 511 559 492 555 471 L542 401 C507 214 457 141 367 86 L352 0 L563 0 Z " />
<glyph glyph-name="onethird" unicode="⅓" horiz-adv-x="628" d="M255 365 L263 410 L238 417 L291 720 L240 720 C210 692 178 669 142 647 L166 600 C179 606 192 615 206 625 L169 417 L137 410 L129 365 L255 365 Z M109 -21 L668 732 L600 732 L42 -21 L109 -21 Z M371 -3 C401 -15 433 -19 468 -19 C546 -19 616 18 616 107 C616 140 602 166 573 175 C613 188 639 233 639 278 C639 326 608 354 537 354 C502 354 463 346 430 327 L438 272 C461 286 490 294 516 294 C548 294 572 285 572 254 C572 218 549 196 516 196 L478 196 L469 144 L506 144 C533 144 550 137 550 110 C550 60 514 40 472 40 C445 40 417 47 399 55 L371 -3 Z " />
<glyph glyph-name="twothirds" unicode="⅔" horiz-adv-x="662" d="M332 365 L350 468 L306 468 L292 427 L191 427 C309 498 376 557 376 648 C376 703 342 729 278 729 C234 729 191 720 152 699 L163 639 C189 655 222 668 250 668 C283 668 304 656 304 624 C304 544 183 474 105 430 L94 365 L332 365 Z M153 -21 L712 732 L644 732 L86 -21 L153 -21 Z M405 -3 C435 -15 467 -19 502 -19 C580 -19 650 18 650 107 C650 140 636 166 607 175 C647 188 673 233 673 278 C673 326 642 354 571 354 C536 354 497 346 464 327 L472 272 C495 286 524 294 550 294 C582 294 606 285 606 254 C606 218 583 196 550 196 L512 196 L503 144 L540 144 C567 144 584 137 584 110 C584 60 548 40 506 40 C479 40 451 47 433 55 L405 -3 Z " />
<glyph glyph-name="oneeighth" unicode="⅛" horiz-adv-x="634" d="M255 365 L263 410 L238 417 L291 720 L240 720 C210 692 178 669 142 647 L166 600 C179 606 192 615 206 625 L169 417 L137 410 L129 365 L255 365 Z M109 -21 L668 732 L600 732 L42 -21 L109 -21 Z M569 180 C619 193 642 235 642 280 C642 335 600 354 543 354 C477 354 406 326 406 238 C406 208 422 184 453 172 C400 158 363 124 363 64 C363 6 411 -19 476 -19 C551 -19 622 18 622 111 C622 146 603 166 569 180 L569 180 Z M503 152 C533 146 552 132 552 106 C552 60 521 40 485 40 C454 40 436 52 436 80 C436 116 461 147 503 152 L503 152 Z M513 188 C484 194 467 209 467 233 C467 274 495 295 531 295 C559 295 575 286 575 260 C575 224 554 197 513 188 L513 188 Z " />
<glyph glyph-name="threeeighths" unicode="⅜" horiz-adv-x="639" d="M94 372 C124 360 156 356 191 356 C269 356 339 393 339 482 C339 515 325 541 296 550 C336 563 362 608 362 653 C362 701 331 729 260 729 C225 729 186 721 153 702 L161 647 C184 661 213 669 239 669 C271 669 295 660 295 629 C295 593 272 571 239 571 L201 571 L192 519 L229 519 C256 519 273 512 273 485 C273 435 237 415 195 415 C168 415 140 422 122 430 L94 372 Z M124 -21 L683 732 L615 732 L57 -21 L124 -21 Z M574 180 C624 193 647 235 647 280 C647 335 605 354 548 354 C482 354 411 326 411 238 C411 208 427 184 458 172 C405 158 368 124 368 64 C368 6 416 -19 481 -19 C556 -19 627 18 627 111 C627 146 608 166 574 180 L574 180 Z M508 152 C538 146 557 132 557 106 C557 60 526 40 490 40 C459 40 441 52 441 80 C441 116 466 147 508 152 L508 152 Z M518 188 C489 194 472 209 472 233 C472 274 500 295 536 295 C564 295 580 286 580 260 C580 224 559 197 518 188 L518 188 Z " />
<glyph glyph-name="fiveeighths" unicode="⅝" horiz-adv-x="637" d="M96 381 C119 364 153 356 188 356 C296 356 353 403 353 512 C353 560 329 588 268 588 C240 588 217 582 198 570 L222 660 L315 660 L313 617 L357 617 L375 720 L175 720 L122 520 L165 510 C186 531 213 542 238 542 C269 542 288 533 288 502 C288 450 258 416 206 416 C173 416 145 424 125 436 L96 381 Z M122 -21 L681 732 L613 732 L55 -21 L122 -21 Z M572 180 C622 193 645 235 645 280 C645 335 603 354 546 354 C480 354 409 326 409 238 C409 208 425 184 456 172 C403 158 366 124 366 64 C366 6 414 -19 479 -19 C554 -19 625 18 625 111 C625 146 606 166 572 180 L572 180 Z M506 152 C536 146 555 132 555 106 C555 60 524 40 488 40 C457 40 439 52 439 80 C439 116 464 147 506 152 L506 152 Z M516 188 C487 194 470 209 470 233 C470 274 498 295 534 295 C562 295 578 286 578 260 C578 224 557 197 516 188 L516 188 Z " />
<glyph glyph-name="seveneighths" unicode="⅞" horiz-adv-x="621" d="M204 357 C239 459 310 573 381 665 L390 720 L156 720 L138 615 L182 615 L195 658 L311 658 C234 569 174 474 132 372 L204 357 Z M96 -21 L655 732 L587 732 L29 -21 L96 -21 Z M556 180 C606 193 629 235 629 280 C629 335 587 354 530 354 C464 354 393 326 393 238 C393 208 409 184 440 172 C387 158 350 124 350 64 C350 6 398 -19 463 -19 C538 -19 609 18 609 111 C609 146 590 166 556 180 L556 180 Z M490 152 C520 146 539 132 539 106 C539 60 508 40 472 40 C441 40 423 52 423 80 C423 116 448 147 490 152 L490 152 Z M500 188 C471 194 454 209 454 233 C454 274 482 295 518 295 C546 295 562 286 562 260 C562 224 541 197 500 188 L500 188 Z " />
<glyph glyph-name="partialdiff" unicode="∂" horiz-adv-x="498" d="M313 622 C323 624 336 626 347 626 C422 626 461 582 461 496 C461 448 447 382 431 326 C426 424 366 460 290 460 C175 460 61 340 61 135 C61 37 107 -18 223 -18 C409 -18 500 197 542 432 C548 465 550 495 550 522 C550 666 473 728 380 728 C363 728 345 725 331 722 L313 622 Z M405 265 C368 130 309 70 237 70 C175 70 147 97 147 160 C147 288 221 378 292 378 C370 378 401 339 405 265 L405 265 Z " />
<glyph glyph-name="Delta" unicode="∆" horiz-adv-x="636" d="M617 0 L630 74 L577 85 L522 710 L374 710 L88 85 L32 74 L19 0 L617 0 Z M441 85 L192 85 L409 580 L441 85 Z " />
<glyph glyph-name="product" unicode="∏" horiz-adv-x="499" d="M426 -228 L592 710 L157 710 L-8 -228 L93 -228 L244 627 L473 627 L322 -228 L426 -228 Z " />
<glyph glyph-name="summation" unicode="∑" horiz-adv-x="436" d="M369 -195 L386 -98 L140 -98 L374 257 L265 612 L511 612 L529 710 L157 710 L144 638 L270 257 L10 -124 L-2 -195 L369 -195 Z " />
<glyph glyph-name="minus" unicode="−" horiz-adv-x="605" d="M608 325 L623 410 L125 410 L110 325 L608 325 Z " />
<glyph glyph-name="radical" unicode="√" horiz-adv-x="513" d="M297 0 L615 710 L507 710 L266 147 L250 383 L99 383 L84 300 L155 300 L188 0 L297 0 Z " />
<glyph glyph-name="infinity" unicode="∞" horiz-adv-x="667" d="M384 290 C402 226 443 191 522 191 C618 191 703 265 703 402 C703 492 653 539 583 539 C505 539 455 503 410 439 C390 503 352 539 274 539 C179 539 92 464 92 327 C92 237 142 191 213 191 C291 191 345 226 384 290 L384 290 Z M362 362 C334 312 295 275 242 275 C195 275 172 299 172 343 C172 408 210 450 273 450 C322 450 348 418 362 362 L362 362 Z M434 362 C467 419 502 450 552 450 C599 450 623 424 623 381 C623 317 590 275 521 275 C468 275 442 310 434 362 L434 362 Z " />
<glyph glyph-name="integral" unicode="∫" horiz-adv-x="329" d="M-25 -230 C-5 -239 19 -240 46 -240 C131 -240 180 -192 194 -112 L318 594 C325 635 345 649 382 649 C398 649 412 649 427 643 L440 718 C418 727 394 728 367 728 C280 728 233 680 219 600 L95 -106 C88 -147 67 -161 30 -161 C15 -161 2 -161 -12 -155 L-25 -230 Z " />
<glyph glyph-name="approxequal" unicode="≈" horiz-adv-x="637" d="M638 312 C584 254 531 234 472 234 C401 234 343 300 243 300 C178 300 130 268 93 232 L77 137 C128 190 175 216 234 216 C311 216 368 150 453 150 C519 150 568 169 622 218 L638 312 Z M676 532 C622 474 569 454 510 454 C439 454 381 520 281 520 C216 520 168 488 131 452 L115 357 C166 410 213 436 272 436 C349 436 406 370 491 370 C557 370 606 389 660 438 L676 532 Z " />
<glyph glyph-name="notequal" unicode="≠" horiz-adv-x="605" d="M116 -21 L295 220 L589 220 L604 306 L359 306 L451 429 L626 429 L641 514 L515 514 L678 732 L612 732 L449 514 L143 514 L128 429 L386 429 L294 306 L106 306 L91 220 L230 220 L51 -21 L116 -21 Z " />
<glyph glyph-name="lessequal" unicode="≤" horiz-adv-x="605" d="M570 108 L586 201 L213 365 L644 528 L661 625 L125 409 L110 324 L570 108 Z M551 0 L566 85 L68 85 L53 0 L551 0 Z " />
<glyph glyph-name="greaterequal" unicode="≥" horiz-adv-x="605" d="M608 324 L623 409 L163 625 L146 532 L519 369 L88 205 L72 108 L608 324 Z M551 0 L566 85 L68 85 L53 0 L551 0 Z " />
<glyph glyph-name="lozenge" unicode="◊" horiz-adv-x="549" d="M344 7 L579 355 L466 702 L339 702 L94 355 L217 7 L344 7 Z M297 119 L217 355 L382 592 L462 355 L297 119 Z " />
<glyph glyph-name="zerooldstyle" unicode="" horiz-adv-x="542" d="M571 338 C575 364 578 387 578 408 C578 533 498 575 371 575 C225 575 121 518 89 338 L68 220 C63 195 61 172 61 152 C61 25 141 -16 267 -16 C415 -16 519 40 550 220 L571 338 Z M445 213 C428 117 360 78 283 78 C219 78 166 94 166 172 C166 184 167 198 170 213 L193 341 C211 443 280 479 354 479 C420 479 472 462 472 383 C472 370 471 356 468 341 L445 213 Z " />
<glyph glyph-name="oneoldstyle" unicode="" horiz-adv-x="331" d="M302 0 L315 74 L257 85 L341 559 L259 559 C205 512 147 471 84 435 L121 366 C148 382 176 400 205 420 L145 85 L77 74 L64 0 L302 0 Z " />
<glyph glyph-name="twooldstyle" unicode="" horiz-adv-x="521" d="M495 0 L526 181 L451 181 L425 88 L160 88 C311 151 560 253 560 443 C560 526 492 575 361 575 C269 575 199 558 120 522 L137 430 C195 460 258 483 342 483 C409 483 449 468 449 418 C449 286 215 174 47 97 L30 0 L495 0 Z " />
<glyph glyph-name="threeoldstyle" unicode="" horiz-adv-x="487" d="M4 -85 C61 -109 123 -116 191 -116 C338 -116 449 -58 473 78 C475 91 477 104 477 117 C477 181 444 229 381 244 C466 265 519 343 519 434 C519 522 456 575 320 575 C251 575 174 560 112 525 L126 442 C174 469 235 485 288 485 C363 485 412 463 412 402 C412 321 357 276 282 276 L206 276 L192 197 L267 197 C332 197 371 174 371 117 C371 18 289 -26 196 -26 C141 -26 87 -14 47 3 L4 -85 Z " />
<glyph glyph-name="fouroldstyle" unicode="" horiz-adv-x="539" d="M443 -123 L465 0 L521 0 L536 90 L480 90 L523 329 L420 329 L377 90 L146 90 C248 210 354 367 429 509 L343 549 C259 395 140 224 34 96 L18 0 L358 0 L336 -123 L443 -123 Z " />
<glyph glyph-name="fiveoldstyle" unicode="" horiz-adv-x="509" d="M520 373 L553 559 L160 559 L61 188 L131 173 C181 224 238 244 294 244 C367 244 403 218 403 153 C403 44 340 -27 217 -27 C146 -27 95 -12 59 12 L10 -70 C59 -104 126 -116 203 -116 C386 -116 509 -26 509 167 C509 258 463 314 344 314 C291 314 226 303 178 263 L234 467 L453 467 L446 373 L520 373 Z " />
<glyph glyph-name="sixoldstyle" unicode="" horiz-adv-x="521" d="M458 653 C206 626 59 400 59 181 C59 69 109 -18 263 -18 C413 -18 511 58 536 200 C539 217 540 233 540 249 C540 334 494 395 376 395 C286 395 224 358 185 316 C222 452 320 552 471 569 L458 653 Z M173 247 C208 289 265 322 331 322 C403 322 433 293 433 237 C433 143 377 67 279 67 C198 67 167 113 167 186 C167 205 169 225 173 247 L173 247 Z " />
<glyph glyph-name="sevenoldstyle" unicode="" horiz-adv-x="474" d="M186 -114 C257 76 401 317 542 478 L556 559 L127 559 L94 374 L168 374 L194 468 L434 468 C286 306 154 98 74 -92 L186 -114 Z " />
<glyph glyph-name="eightoldstyle" unicode="" horiz-adv-x="530" d="M425 337 C537 361 579 439 579 518 C579 619 499 653 384 653 C250 653 121 591 121 449 C121 393 154 346 229 326 C122 305 44 243 44 132 C44 29 138 -18 266 -18 C415 -18 546 61 546 212 C546 284 500 317 425 337 L425 337 Z M319 295 C393 284 439 258 439 202 C439 116 367 70 280 70 C208 70 159 92 159 154 C159 225 213 286 319 295 L319 295 Z M331 350 C256 360 220 393 220 441 C220 524 285 567 368 567 C438 567 479 546 479 486 C479 432 442 364 331 350 L331 350 Z " />
<glyph glyph-name="nineoldstyle" unicode="" horiz-adv-x="521" d="M156 -116 C395 -90 557 141 557 374 C557 487 507 575 354 575 C186 575 76 458 76 303 C76 219 122 157 241 157 C327 157 391 192 432 234 C398 95 299 -15 143 -33 L156 -116 Z M446 307 C408 264 348 231 288 231 C214 231 185 264 185 319 C185 408 238 494 340 494 C425 494 453 450 453 379 C453 358 450 333 446 307 L446 307 Z " />
<glyph glyph-name="uniF8FF" unicode="" horiz-adv-x="286" d="" />
<glyph glyph-name="fi" unicode="ﬁ" horiz-adv-x="625" d="M268 0 L281 74 L214 85 L279 449 L408 449 L421 526 L292 526 L302 582 C310 628 339 647 383 647 C411 647 427 642 440 634 L466 706 C448 719 420 728 361 728 C265 728 207 691 189 589 L178 526 L111 526 L98 449 L165 449 L100 85 L40 74 L27 0 L268 0 Z M601 0 L614 74 L557 85 L635 526 L461 526 L448 452 L504 441 L441 85 L382 74 L369 0 L601 0 Z M646 590 L668 719 L553 719 L531 590 L646 590 Z " />
<glyph glyph-name="fl" unicode="ﬂ" horiz-adv-x="640" d="M268 0 L281 74 L214 85 L279 449 L408 449 L421 526 L292 526 L302 582 C310 628 339 647 383 647 C411 647 427 642 440 634 L466 706 C448 719 420 728 361 728 C265 728 207 691 189 589 L178 526 L111 526 L98 449 L165 449 L100 85 L40 74 L27 0 L268 0 Z M616 0 L629 74 L572 85 L684 719 L510 719 L497 645 L553 634 L456 85 L397 74 L384 0 L616 0 Z " />
</font>
</svg>
