<?xml version="1.0" encoding="UTF-8"?>
<svg xmlns="http://www.w3.org/2000/svg" xmlns:xlink="http://www.w3.org/1999/xlink" version="1.2">
<font id="VectipedeRg-Regular">
<font-face font-family="Vectipede" units-per-em="1000" ascent="760" descent="-240" font-style="normal" font-weight="400" font-stretch="normal" cap-height="710" x-height="526" underline-position="-133" underline-thickness="20" />
<missing-glyph horiz-adv-x="698" d="M338 119 L159 167 L187 269 C218 383 284 377 361 389 C413 397 422 412 441 472 C449 499 450 508 450 517 C450 560 411 595 352 595 C337 595 322 592 307 586 L277 523 L134 562 L175 720 C211 742 255 754 306 754 C449 754 638 682 638 521 C638 500 635 477 629 453 L615 404 C590 317 560 278 463 260 C413 250 374 251 359 195 L338 119 Z M280 -150 L71 -94 L120 92 L330 35 L280 -150 Z M548 -240 C630 -240 672 -203 672 -134 L672 721 C672 793 630 828 548 828 L148 828 C65 828 26 793 26 721 L26 -134 C26 -203 65 -240 148 -240 L548 -240 Z " />
<glyph glyph-name="NULL" d="" />
<glyph glyph-name="CR" unicode="&#xD;" horiz-adv-x="286" d="" />
<glyph glyph-name="space" unicode=" " horiz-adv-x="286" d="" />
<glyph glyph-name="exclam" unicode="!" horiz-adv-x="200" d="M160 0 L160 156 L38 156 L38 0 L160 0 Z M132 214 C156 390 168 505 168 652 C168 675 167 694 164 710 L37 710 C33 695 32 675 32 652 C32 505 43 389 68 214 L132 214 Z " />
<glyph glyph-name="quotedbl" unicode="&quot;" horiz-adv-x="326" d="M125 443 L125 710 L34 710 L34 443 L125 443 Z M292 443 L292 710 L201 710 L201 443 L292 443 Z " />
<glyph glyph-name="numbersign" unicode="#" horiz-adv-x="559" d="M270 0 L349 0 L384 209 L493 209 L501 287 L398 287 L421 422 L518 422 L530 500 L434 500 L470 710 L391 710 L355 500 L250 500 L286 710 L210 710 L174 500 L66 500 L56 422 L160 422 L137 287 L37 287 L29 209 L124 209 L88 0 L166 0 L201 209 L305 209 L270 0 Z M237 422 L342 422 L319 287 L214 287 L237 422 Z " />
<glyph glyph-name="dollar" unicode="$" horiz-adv-x="503" d="M295 0 L295 79 C397 88 471 128 471 224 L471 257 C471 316 454 348 416 367 C376 388 312 396 223 411 C154 423 134 429 134 482 L134 488 C134 545 176 560 255 560 C291 560 325 558 353 542 L363 456 L445 456 L445 592 C408 619 357 630 295 633 L295 710 L202 710 L202 633 C106 624 31 588 31 490 L31 455 C31 346 118 335 261 312 C337 300 364 282 364 243 L364 235 C364 178 322 160 237 160 C198 160 159 170 127 189 L118 268 L36 268 L36 132 C77 103 133 85 202 79 L202 0 L295 0 Z " />
<glyph glyph-name="percent" unicode="%" horiz-adv-x="703" d="M278 597 C278 697 229 729 154 729 C78 729 29 697 29 597 L29 487 C29 387 78 356 154 356 C229 356 278 387 278 487 L278 597 Z M207 479 C207 428 182 415 154 415 C124 415 100 428 100 479 L100 605 C100 655 124 669 154 669 C183 669 207 655 207 605 L207 479 Z M168 -21 L597 732 L531 732 L103 -21 L168 -21 Z M674 222 C674 322 625 354 550 354 C474 354 425 322 425 222 L425 112 C425 12 474 -19 550 -19 C625 -19 674 12 674 112 L674 222 Z M603 104 C603 53 578 40 550 40 C520 40 496 53 496 104 L496 230 C496 280 520 294 550 294 C579 294 603 280 603 230 L603 104 Z " />
<glyph glyph-name="ampersand" unicode="&amp;" horiz-adv-x="634" d="M499 0 L615 0 L615 73 L557 84 L532 109 C587 164 607 222 607 319 L607 340 L509 340 L509 322 C509 278 502 235 456 185 L306 335 C411 381 448 417 448 512 L448 569 C448 679 400 728 266 728 C132 728 74 679 74 568 L74 516 C74 452 95 406 141 359 C62 324 27 284 27 202 L27 151 C27 18 110 -18 237 -18 C351 -18 408 0 457 41 L499 0 Z M184 512 L184 560 C184 617 217 637 270 637 C319 637 349 618 349 561 L349 512 C349 456 327 437 238 402 C205 436 184 467 184 512 L184 512 Z M382 116 C348 88 311 76 257 76 C187 76 143 98 143 172 C143 247 148 265 208 292 L382 116 Z " />
<glyph glyph-name="quotesingle" unicode="'" horiz-adv-x="159" d="M125 443 L125 710 L34 710 L34 443 L125 443 Z " />
<glyph glyph-name="parenleft" unicode="(" horiz-adv-x="340" d="M346 -153 C245 -3 196 158 196 320 C196 479 244 634 346 779 L259 779 C133 645 76 486 76 322 C76 150 138 -19 259 -153 L346 -153 Z " />
<glyph glyph-name="parenright" unicode=")" horiz-adv-x="340" d="M81 -153 C201 -19 264 150 264 322 C264 486 206 645 81 779 L-6 779 C96 633 143 478 143 320 C143 158 94 -3 -6 -153 L81 -153 Z " />
<glyph glyph-name="asterisk" unicode="*" horiz-adv-x="430" d="M353 386 L264 507 L403 550 L382 608 L246 564 L247 716 L179 716 L181 564 L46 608 L26 550 L164 507 L75 385 L128 348 L214 469 L302 348 L353 386 Z " />
<glyph glyph-name="plus" unicode="+" horiz-adv-x="605" d="M344 117 L344 325 L551 325 L551 410 L344 410 L344 617 L259 617 L259 410 L53 410 L53 325 L259 325 L259 117 L344 117 Z " />
<glyph glyph-name="comma" unicode="," horiz-adv-x="197" d="M80 -132 C116 -98 148 -50 162 -6 L162 162 L37 162 L37 0 L105 0 C92 -35 67 -68 43 -94 L80 -132 Z " />
<glyph glyph-name="hyphen" unicode="-" horiz-adv-x="321" d="M291 283 L291 374 L30 374 L30 283 L291 283 Z " />
<glyph glyph-name="period" unicode="." horiz-adv-x="192" d="M158 0 L158 162 L34 162 L34 0 L158 0 Z " />
<glyph glyph-name="slash" unicode="/" horiz-adv-x="331" d="M105 -107 L323 710 L224 710 L8 -107 L105 -107 Z " />
<glyph glyph-name="zero" unicode="0" horiz-adv-x="556" d="M522 464 C522 664 427 728 278 728 C129 728 34 664 34 464 L34 245 C34 45 129 -18 278 -18 C427 -18 522 45 522 245 L522 464 Z M407 236 C407 111 350 79 278 79 C200 79 149 113 149 236 L149 472 C149 594 201 630 278 630 C354 630 407 594 407 472 L407 236 Z " />
<glyph glyph-name="one" unicode="1" horiz-adv-x="338" d="M307 0 L307 73 L248 85 L248 710 L165 710 C121 659 70 615 12 575 L62 502 C87 517 111 537 136 558 L136 85 L69 73 L69 0 L307 0 Z " />
<glyph glyph-name="two" unicode="2" horiz-adv-x="527" d="M501 0 L501 200 L424 200 L412 101 L170 101 C355 229 495 346 495 509 C495 661 414 728 269 728 C183 728 103 711 32 669 L67 571 C117 605 181 628 242 628 C325 628 383 580 383 498 C383 336 170 197 34 107 L34 0 L501 0 Z " />
<glyph glyph-name="three" unicode="3" horiz-adv-x="500" d="M24 15 C87 -10 150 -18 219 -18 C368 -18 470 45 470 191 C470 282 427 351 346 371 C417 390 456 453 456 533 C456 654 384 728 226 728 C157 728 82 712 25 674 L55 585 C98 614 157 631 210 631 C296 631 353 592 353 508 C353 437 311 405 242 405 L165 405 L165 320 L241 320 C315 320 362 283 362 205 C362 113 296 78 208 78 C153 78 96 90 53 108 L24 15 Z " />
<glyph glyph-name="four" unicode="4" horiz-adv-x="553" d="M474 0 L474 127 L531 127 L531 217 L474 217 L474 481 L369 481 L369 217 L133 217 C213 347 304 536 351 688 L253 723 C202 569 121 391 21 234 L21 127 L366 127 L366 0 L474 0 Z " />
<glyph glyph-name="five" unicode="5" horiz-adv-x="521" d="M28 33 C75 0 148 -18 217 -18 C416 -18 493 57 493 226 C493 364 440 446 294 446 C233 446 178 430 139 394 L160 612 L372 612 L384 510 L459 510 L459 710 L66 710 L31 310 L106 293 C145 346 203 370 260 370 C344 370 388 326 388 231 C388 126 337 80 229 80 C166 80 104 98 59 122 L28 33 Z " />
<glyph glyph-name="six" unicode="6" horiz-adv-x="535" d="M351 728 C135 702 25 511 25 297 C25 109 79 -18 274 -18 C426 -18 511 67 511 225 C511 347 455 441 316 441 C229 441 170 402 136 353 C149 500 228 617 379 635 L351 728 Z M136 280 C169 330 221 364 284 364 C370 364 403 306 403 225 C403 133 363 73 275 73 C154 73 136 163 136 280 L136 280 Z " />
<glyph glyph-name="seven" unicode="7" horiz-adv-x="501" d="M225 -14 C262 193 373 438 483 620 L483 710 L22 710 L22 506 L99 506 L111 609 L374 609 C253 432 153 217 106 9 L225 -14 Z " />
<glyph glyph-name="eight" unicode="8" horiz-adv-x="542" d="M373 377 C463 398 499 462 499 533 C499 680 404 728 275 728 C146 728 45 680 45 533 C45 457 86 390 177 365 C77 340 22 287 22 187 C22 44 133 -18 273 -18 C415 -18 520 44 520 195 C520 297 468 347 373 377 L373 377 Z M269 331 C356 317 405 276 405 204 C405 118 352 79 271 79 C190 79 135 118 135 201 C135 274 180 322 269 331 L269 331 Z M273 390 C187 403 146 455 146 515 C146 596 193 632 272 632 C350 632 396 596 396 511 C396 455 357 403 273 390 L273 390 Z " />
<glyph glyph-name="nine" unicode="9" horiz-adv-x="535" d="M183 -18 C398 8 509 199 509 409 C509 583 455 728 261 728 C108 728 23 643 23 485 C23 363 78 269 217 269 C306 269 364 307 399 356 C384 208 306 93 156 73 L183 -18 Z M398 428 C366 379 312 346 251 346 C165 346 132 404 132 483 C132 574 172 632 260 632 C367 632 398 556 398 453 L398 428 Z " />
<glyph glyph-name="colon" unicode=":" horiz-adv-x="219" d="M171 0 L171 162 L47 162 L47 0 L171 0 Z M171 363 L171 523 L47 523 L47 363 L171 363 Z " />
<glyph glyph-name="semicolon" unicode=";" horiz-adv-x="222" d="M91 -132 C128 -98 160 -50 173 -6 L173 162 L49 162 L49 0 L117 0 C104 -35 79 -68 55 -94 L91 -132 Z M173 363 L173 523 L49 523 L49 363 L173 363 Z " />
<glyph glyph-name="less" unicode="&lt;" horiz-adv-x="605" d="M551 108 L551 203 L149 367 L551 530 L551 625 L53 409 L53 324 L551 108 Z " />
<glyph glyph-name="equal" unicode="=" horiz-adv-x="605" d="M551 429 L551 514 L53 514 L53 429 L551 429 Z M551 220 L551 306 L53 306 L53 220 L551 220 Z " />
<glyph glyph-name="greater" unicode="&gt;" horiz-adv-x="605" d="M551 324 L551 409 L53 625 L53 530 L455 367 L53 203 L53 108 L551 324 Z " />
<glyph glyph-name="question" unicode="?" horiz-adv-x="462" d="M258 224 L258 280 C258 327 280 341 338 366 C407 396 430 433 430 506 L430 548 C430 665 355 728 220 728 C134 728 71 706 32 662 L32 529 L113 529 L122 608 C146 630 177 642 217 642 C286 642 326 608 326 540 L326 517 C326 460 312 442 265 423 C183 389 154 371 154 295 L154 224 L258 224 Z M266 0 L266 156 L144 156 L144 0 L266 0 Z " />
<glyph glyph-name="at" unicode="@" horiz-adv-x="575" d="M441 -80 C409 -89 364 -94 310 -94 C211 -94 110 -58 110 137 L110 348 C110 522 152 560 294 560 C413 560 464 522 464 412 L464 375 C429 406 388 418 341 418 C252 418 224 377 224 285 L224 184 C224 86 252 45 340 45 C395 45 443 67 473 114 L478 57 L543 57 L543 409 C543 574 455 633 294 633 C110 633 32 574 32 344 L32 128 C32 -109 151 -168 314 -168 C362 -168 416 -160 455 -147 L441 -80 Z M464 171 C441 133 409 113 369 113 C316 113 303 138 303 191 L303 274 C303 332 318 353 375 353 C410 353 440 340 464 312 L464 171 Z " />
<glyph glyph-name="A" unicode="A" horiz-adv-x="637" d="M618 0 L618 73 L563 84 L407 710 L239 710 L73 84 L19 73 L19 0 L224 0 L224 73 L168 84 L206 233 L396 233 L432 84 L376 73 L376 0 L618 0 Z M380 308 L224 308 L305 616 L380 308 Z " />
<glyph glyph-name="B" unicode="B" horiz-adv-x="591" d="M367 0 C511 0 565 62 565 157 L565 208 C565 314 521 347 463 362 C518 378 551 412 551 509 L551 544 C551 646 503 710 374 710 L32 710 L32 636 L90 625 L90 85 L32 73 L32 0 L367 0 Z M440 186 C440 115 414 85 346 85 L213 85 L213 325 L351 325 C418 325 440 280 440 208 L440 186 Z M435 508 C435 436 405 401 351 401 L213 401 L213 624 L348 624 C412 624 435 586 435 523 L435 508 Z " />
<glyph glyph-name="C" unicode="C" horiz-adv-x="555" d="M527 198 L434 198 L425 112 C397 81 354 71 312 71 C195 71 159 130 159 281 L159 428 C159 577 197 638 312 638 C354 638 398 627 423 598 L432 512 L525 512 L525 661 C481 708 397 728 322 728 C112 728 31 655 31 428 L31 282 C31 55 112 -18 322 -18 C397 -18 473 0 527 54 L527 198 Z " />
<glyph glyph-name="D" unicode="D" horiz-adv-x="618" d="M337 0 C515 0 586 74 586 269 L586 441 C586 636 515 710 337 710 L32 710 L32 636 L90 625 L90 85 L32 73 L32 0 L337 0 Z M460 265 C460 131 421 88 337 88 L216 88 L216 621 L337 621 C423 621 460 576 460 445 L460 265 Z " />
<glyph glyph-name="E" unicode="E" horiz-adv-x="568" d="M532 0 L532 219 L458 219 L440 94 L214 94 L214 327 L397 327 L411 263 L474 263 L474 474 L411 474 L397 410 L214 410 L214 620 L438 620 L452 513 L526 513 L526 710 L32 710 L32 636 L90 625 L90 85 L32 73 L32 0 L532 0 Z " />
<glyph glyph-name="F" unicode="F" horiz-adv-x="559" d="M284 0 L284 73 L216 85 L216 297 L397 297 L410 232 L473 232 L473 446 L410 446 L397 382 L216 382 L216 617 L442 617 L458 497 L532 497 L532 710 L32 710 L32 636 L90 625 L90 85 L32 73 L32 0 L284 0 Z " />
<glyph glyph-name="G" unicode="G" horiz-adv-x="579" d="M428 113 C413 95 372 76 301 76 C193 76 158 143 158 272 L158 428 C158 583 201 638 310 638 C356 638 406 628 431 598 L440 512 L533 512 L533 661 C489 708 400 728 308 728 C115 728 32 652 32 428 L32 272 C32 68 105 -18 302 -18 C436 -18 524 33 547 58 L547 387 L317 387 L317 318 L428 307 L428 113 Z " />
<glyph glyph-name="H" unicode="H" horiz-adv-x="661" d="M629 0 L629 73 L570 85 L570 625 L629 636 L629 710 L392 710 L392 636 L448 625 L448 403 L213 403 L213 625 L268 636 L268 710 L32 710 L32 636 L90 625 L90 85 L32 73 L32 0 L268 0 L268 73 L213 85 L213 315 L448 315 L448 85 L392 73 L392 0 L629 0 Z " />
<glyph glyph-name="I" unicode="I" horiz-adv-x="306" d="M274 0 L274 73 L216 85 L216 625 L274 636 L274 710 L32 710 L32 636 L90 625 L90 85 L32 73 L32 0 L274 0 Z " />
<glyph glyph-name="J" unicode="J" horiz-adv-x="331" d="M-62 -152 C-39 -182 0 -206 61 -206 C199 -206 246 -114 246 40 L246 625 L299 635 L299 710 L56 710 L56 635 L122 625 L122 36 C122 -41 106 -107 23 -107 C-9 -107 -33 -95 -54 -74 L-62 -152 Z " />
<glyph glyph-name="K" unicode="K" horiz-adv-x="641" d="M620 0 L620 67 L558 85 L324 413 L530 621 L598 636 L598 710 L380 710 L380 636 L433 625 L214 400 L214 625 L269 636 L269 710 L32 710 L32 636 L90 625 L90 85 L32 74 L32 0 L269 0 L269 74 L214 85 L214 372 L464 0 L620 0 Z " />
<glyph glyph-name="L" unicode="L" horiz-adv-x="536" d="M506 0 L506 280 L429 280 L416 97 L216 97 L216 625 L277 636 L277 710 L32 710 L32 636 L90 625 L90 85 L32 75 L32 0 L506 0 Z " />
<glyph glyph-name="M" unicode="M" horiz-adv-x="864" d="M832 0 L832 74 L774 85 L774 625 L832 636 L832 710 L596 710 L443 143 L297 710 L32 710 L32 636 L90 625 L90 85 L32 74 L32 0 L249 0 L249 74 L194 85 L194 612 L364 0 L493 0 L667 613 L667 85 L611 74 L611 0 L832 0 Z " />
<glyph glyph-name="N" unicode="N" horiz-adv-x="664" d="M581 0 L581 625 L637 636 L637 710 L428 710 L428 636 L483 625 L483 211 L236 710 L32 710 L32 636 L90 625 L90 85 L32 74 L32 0 L252 0 L252 74 L188 85 L188 530 L475 0 L581 0 Z " />
<glyph glyph-name="O" unicode="O" horiz-adv-x="607" d="M575 426 C575 635 488 728 303 728 C118 728 32 635 32 426 L32 284 C32 75 118 -18 303 -18 C488 -18 575 75 575 284 L575 426 Z M449 284 C449 123 405 73 303 73 C202 73 158 123 158 284 L158 426 C158 584 202 636 303 636 C405 636 449 584 449 426 L449 284 Z " />
<glyph glyph-name="P" unicode="P" horiz-adv-x="577" d="M280 0 L280 74 L215 85 L215 259 L356 259 C499 259 553 325 553 485 C553 644 499 710 356 710 L32 710 L32 636 L90 625 L90 85 L32 74 L32 0 L280 0 Z M215 336 L215 624 L336 624 C405 624 432 583 432 481 C432 377 405 336 336 336 L215 336 Z " />
<glyph glyph-name="Q" unicode="Q" horiz-adv-x="618" d="M568 -82 C553 -98 536 -104 521 -104 C489 -104 446 -75 429 17 C533 50 586 138 586 291 L586 433 C586 636 493 728 309 728 C124 728 32 636 32 433 L32 291 C32 79 128 -2 322 -2 C351 -145 417 -180 477 -180 C521 -180 553 -167 568 -146 L568 -82 Z M460 298 C460 141 410 89 309 89 C207 89 158 141 158 298 L158 430 C158 585 207 639 309 639 C410 639 460 585 460 430 L460 298 Z " />
<glyph glyph-name="R" unicode="R" horiz-adv-x="641" d="M619 0 L619 74 L562 85 L562 197 C562 316 523 347 461 360 C516 373 552 408 552 509 L552 544 C552 646 505 710 375 710 L32 710 L32 636 L90 625 L90 85 L32 74 L32 0 L271 0 L271 74 L213 85 L213 318 L358 318 C415 318 439 290 439 226 L439 71 C439 20 457 0 506 0 L619 0 Z M435 501 C435 428 408 397 353 397 L213 397 L213 620 L347 620 C411 620 435 582 435 512 L435 501 Z " />
<glyph glyph-name="S" unicode="S" horiz-adv-x="552" d="M518 230 C518 327 482 366 408 391 C384 399 357 406 326 412 C281 421 242 427 211 439 C173 453 149 476 149 523 L149 544 C149 624 205 647 276 647 C322 647 360 639 391 615 L400 512 L493 512 L493 662 C443 709 371 728 276 728 C108 728 29 668 29 530 L29 500 C29 403 71 362 132 338 C165 325 204 317 245 309 C299 298 337 290 362 276 C389 261 401 241 401 202 L401 182 C401 109 358 73 259 73 C210 73 168 83 132 113 L125 198 L34 198 L34 51 C97 0 181 -18 262 -18 C424 -18 518 39 518 197 L518 230 Z " />
<glyph glyph-name="T" unicode="T" horiz-adv-x="584" d="M420 0 L420 74 L354 85 L354 618 L473 618 L486 430 L562 430 L562 710 L22 710 L22 430 L97 430 L110 618 L229 618 L229 85 L163 74 L163 0 L420 0 Z " />
<glyph glyph-name="U" unicode="U" horiz-adv-x="677" d="M488 227 C488 119 455 82 345 82 C244 82 204 118 204 227 L204 625 L260 636 L260 710 L25 710 L25 636 L77 625 L77 241 C77 53 136 -18 336 -18 C558 -18 600 53 600 241 L600 625 L652 636 L652 710 L433 710 L433 636 L488 625 L488 227 Z " />
<glyph glyph-name="V" unicode="V" horiz-adv-x="619" d="M377 0 L546 625 L600 636 L600 710 L388 710 L388 636 L442 625 L320 129 L208 625 L263 636 L263 710 L19 710 L19 636 L73 625 L232 0 L377 0 Z " />
<glyph glyph-name="W" unicode="W" horiz-adv-x="883" d="M699 0 L808 625 L862 636 L862 710 L648 710 L648 636 L702 625 L634 146 L510 710 L403 710 L273 146 L209 625 L263 636 L263 710 L20 710 L20 636 L75 625 L186 0 L324 0 L443 512 L556 0 L699 0 Z " />
<glyph glyph-name="X" unicode="X" horiz-adv-x="615" d="M593 0 L593 74 L538 85 L368 369 L526 625 L587 636 L587 710 L378 710 L378 636 L430 625 L324 437 L222 625 L271 636 L271 710 L28 710 L28 636 L87 625 L249 351 L84 85 L25 74 L25 0 L232 0 L232 74 L181 85 L294 285 L403 85 L354 74 L354 0 L593 0 Z " />
<glyph glyph-name="Y" unicode="Y" horiz-adv-x="592" d="M423 0 L423 74 L358 85 L358 282 L520 625 L572 636 L572 710 L379 710 L379 636 L430 625 L313 371 L199 625 L250 636 L250 710 L19 710 L19 636 L70 625 L232 282 L232 85 L167 74 L167 0 L423 0 Z " />
<glyph glyph-name="Z" unicode="Z" horiz-adv-x="552" d="M524 0 L524 280 L447 280 L430 93 L161 93 L512 622 L512 710 L29 710 L29 430 L107 430 L124 618 L369 618 L28 115 L28 0 L524 0 Z " />
<glyph glyph-name="bracketleft" unicode="[" horiz-adv-x="354" d="M334 -139 L334 -60 L201 -60 L201 688 L334 688 L334 769 L97 769 L97 -139 L334 -139 Z " />
<glyph glyph-name="backslash" unicode="\" horiz-adv-x="331" d="M323 -107 L107 710 L8 710 L226 -107 L323 -107 Z " />
<glyph glyph-name="bracketright" unicode="]" horiz-adv-x="351" d="M259 -139 L259 769 L20 769 L20 688 L154 688 L154 -60 L20 -60 L20 -139 L259 -139 Z " />
<glyph glyph-name="asciicircum" unicode="^" horiz-adv-x="358" d="M326 506 L208 710 L149 710 L32 506 L113 506 L180 628 L243 506 L326 506 Z " />
<glyph glyph-name="underscore" unicode="_" horiz-adv-x="448" d="M444 -139 L444 -79 L6 -79 L6 -139 L444 -139 Z " />
<glyph glyph-name="grave" unicode="`" horiz-adv-x="267" d="M235 580 L144 766 L32 766 L162 580 L235 580 Z " />
<glyph glyph-name="a" unicode="a" horiz-adv-x="545" d="M525 69 C518 58 510 54 498 54 C480 54 467 64 467 92 L467 379 C467 496 412 540 268 540 C191 540 112 528 49 485 L84 403 C135 437 193 448 250 448 C320 448 357 428 357 367 L357 292 C312 309 253 325 174 325 C70 325 22 278 22 184 L22 139 C22 47 67 -18 180 -18 C271 -18 338 21 367 76 C373 9 406 -17 462 -17 C493 -17 516 -8 530 8 L525 69 Z M357 131 C325 94 278 64 215 64 C154 64 134 94 134 148 L134 174 C134 230 157 257 217 257 C278 257 327 244 357 232 L357 131 Z " />
<glyph glyph-name="b" unicode="b" horiz-adv-x="564" d="M534 315 C534 468 485 540 362 540 C287 540 222 515 175 461 L175 719 L1 719 L1 645 L60 634 L60 0 L131 0 L154 63 C200 8 274 -18 346 -18 C485 -18 534 50 534 213 L534 315 Z M420 218 C420 120 392 77 304 77 C257 77 205 96 175 129 L175 376 C207 423 259 448 317 448 C391 448 420 406 420 303 L420 218 Z " />
<glyph glyph-name="c" unicode="c" horiz-adv-x="482" d="M418 162 C388 105 333 79 274 79 C181 79 141 130 141 215 L141 320 C141 406 178 454 259 454 C294 454 329 445 352 420 L360 341 L447 341 L447 474 C398 525 328 540 253 540 C95 540 28 451 28 323 L28 208 C28 65 105 -18 265 -18 C349 -18 420 19 463 95 L418 162 Z " />
<glyph glyph-name="d" unicode="d" horiz-adv-x="585" d="M561 0 L561 74 L502 85 L502 719 L328 719 L328 645 L387 634 L387 476 C346 522 277 541 216 541 C76 541 28 473 28 310 L28 208 C28 55 77 -16 199 -16 C274 -16 340 8 394 69 L398 0 L561 0 Z M387 150 C355 102 303 78 245 78 C170 78 142 120 142 223 L142 307 C142 405 170 449 257 449 C305 449 357 430 387 396 L387 150 Z " />
<glyph glyph-name="e" unicode="e" horiz-adv-x="505" d="M475 230 L475 290 C475 454 437 540 255 540 C88 540 29 461 29 298 L29 220 C29 82 100 -18 267 -18 C376 -18 439 16 470 71 L429 139 C396 96 358 73 282 73 C180 73 140 121 140 230 L475 230 Z M140 304 C140 400 158 460 257 460 C358 460 370 398 370 304 L140 304 Z " />
<glyph glyph-name="f" unicode="f" horiz-adv-x="343" d="M268 0 L268 74 L200 85 L200 449 L329 449 L329 526 L200 526 L200 582 C200 630 225 647 269 647 C297 647 314 642 329 634 L342 706 C322 719 292 728 233 728 C137 728 86 691 86 589 L86 526 L19 526 L19 449 L86 449 L86 85 L27 74 L27 0 L268 0 Z " />
<glyph glyph-name="g" unicode="g" horiz-adv-x="530" d="M384 1 C384 -101 349 -144 247 -144 C193 -144 136 -131 91 -97 L60 -174 C114 -227 192 -240 266 -240 C415 -240 498 -179 498 -14 L498 526 L427 526 L404 461 C365 512 295 538 214 538 C69 538 28 464 28 310 L28 240 C28 93 69 15 201 15 C273 15 339 40 384 95 L384 1 Z M384 177 C352 130 300 105 241 105 C163 105 140 153 140 240 L140 309 C140 397 162 450 254 450 C300 450 357 430 384 398 L384 177 Z " />
<glyph glyph-name="h" unicode="h" horiz-adv-x="643" d="M619 0 L619 74 L561 85 L561 398 C561 494 510 540 407 540 C326 540 256 522 200 467 L200 719 L26 719 L26 645 L84 634 L84 85 L26 74 L26 0 L257 0 L257 74 L200 85 L200 382 C242 432 297 447 360 447 C414 447 445 427 445 374 L445 85 L388 74 L388 0 L619 0 Z " />
<glyph glyph-name="i" unicode="i" horiz-adv-x="282" d="M258 0 L258 74 L200 85 L200 526 L26 526 L26 452 L84 441 L84 85 L26 74 L26 0 L258 0 Z M199 590 L199 719 L84 719 L84 590 L199 590 Z " />
<glyph glyph-name="j" unicode="j" horiz-adv-x="238" d="M-80 -191 C-56 -222 -17 -240 37 -240 C152 -240 195 -158 195 -21 L195 526 L17 526 L17 451 L79 441 L79 -21 C79 -85 66 -146 -5 -146 C-32 -146 -51 -139 -70 -120 L-80 -191 Z M194 590 L194 719 L78 719 L78 590 L194 590 Z " />
<glyph glyph-name="k" unicode="k" horiz-adv-x="562" d="M549 0 L549 74 L487 85 L306 295 L460 442 L521 452 L521 526 L316 526 L316 452 L371 442 L200 268 L200 719 L26 719 L26 645 L84 634 L84 85 L26 74 L26 0 L247 0 L247 74 L200 85 L200 245 L397 0 L549 0 Z " />
<glyph glyph-name="l" unicode="l" horiz-adv-x="282" d="M258 0 L258 74 L200 85 L200 719 L26 719 L26 645 L84 634 L84 85 L26 74 L26 0 L258 0 Z " />
<glyph glyph-name="m" unicode="m" horiz-adv-x="951" d="M928 0 L928 74 L869 85 L869 398 C869 494 821 540 724 540 C637 540 582 517 523 455 C507 513 462 540 389 540 C300 540 244 516 189 454 L185 526 L26 526 L26 452 L83 441 L83 85 L26 74 L26 0 L253 0 L253 74 L196 85 L196 383 C235 432 285 447 343 447 C392 447 422 427 422 374 L422 85 L367 74 L367 0 L589 0 L589 75 L534 85 L534 387 C573 433 622 447 679 447 C728 447 757 427 757 374 L757 85 L702 74 L702 0 L928 0 Z " />
<glyph glyph-name="n" unicode="n" horiz-adv-x="643" d="M619 0 L619 74 L561 85 L561 398 C561 494 510 540 407 540 C311 540 251 516 192 454 L188 526 L26 526 L26 452 L84 441 L84 85 L26 74 L26 0 L257 0 L257 74 L200 85 L200 383 C242 432 297 447 360 447 C414 447 445 427 445 374 L445 85 L388 74 L388 0 L619 0 Z " />
<glyph glyph-name="o" unicode="o" horiz-adv-x="522" d="M494 315 C494 471 424 540 261 540 C98 540 28 471 28 315 L28 208 C28 51 98 -18 261 -18 C424 -18 494 51 494 208 L494 315 Z M381 215 C381 106 350 71 261 71 C172 71 141 106 141 215 L141 307 C141 415 172 451 261 451 C350 451 381 415 381 307 L381 215 Z " />
<glyph glyph-name="p" unicode="p" horiz-adv-x="582" d="M264 -228 L264 -154 L195 -143 L195 48 C236 2 304 -17 366 -17 C505 -17 554 51 554 214 L554 316 C554 469 505 540 382 540 C307 540 242 516 187 455 L183 526 L21 526 L21 452 L80 441 L80 -143 L21 -154 L21 -228 L264 -228 Z M440 213 C440 115 412 72 324 72 C277 72 224 91 195 125 L195 374 C226 422 279 446 337 446 C411 446 440 404 440 306 L440 213 Z " />
<glyph glyph-name="q" unicode="q" horiz-adv-x="541" d="M561 -228 L561 -154 L503 -143 L503 526 L431 526 L408 461 C362 516 289 540 216 540 C77 540 28 474 28 310 L28 208 C28 56 78 -18 200 -18 C275 -18 341 9 387 63 L387 -143 L319 -154 L319 -228 L561 -228 Z M387 146 C356 98 304 74 245 74 C171 74 143 116 143 219 L143 306 C143 404 171 447 258 447 C305 447 358 428 387 394 L387 146 Z " />
<glyph glyph-name="r" unicode="r" horiz-adv-x="413" d="M264 0 L264 74 L200 85 L200 365 C244 415 298 432 355 432 C370 432 382 431 396 428 L410 537 C404 539 390 540 378 540 C296 540 233 509 190 453 L185 526 L26 526 L26 452 L84 441 L84 85 L26 74 L26 0 L264 0 Z " />
<glyph glyph-name="s" unicode="s" horiz-adv-x="491" d="M468 165 C468 234 440 266 380 286 C310 309 232 309 168 329 C138 338 130 357 130 380 L130 395 C130 450 174 461 252 461 C294 461 321 457 346 444 L355 360 L441 360 L441 496 C400 527 337 540 248 540 C128 540 28 509 28 394 L28 367 C28 282 67 250 145 233 C278 204 360 222 360 148 L360 135 C360 79 311 65 233 65 C194 65 161 74 129 93 L121 172 L32 172 L32 36 C80 3 150 -18 241 -18 C373 -18 468 18 468 130 L468 165 Z " />
<glyph glyph-name="t" unicode="t" horiz-adv-x="356" d="M338 100 C319 81 298 72 271 72 C207 72 185 103 185 178 L185 449 L338 449 L338 526 L185 526 L185 661 L73 642 L73 526 L17 526 L17 449 L73 449 L73 180 C73 58 114 -18 232 -18 C288 -18 324 -1 348 30 L338 100 Z " />
<glyph glyph-name="u" unicode="u" horiz-adv-x="587" d="M419 163 C419 100 388 75 302 75 C217 75 184 98 184 163 L184 441 L239 452 L239 526 L20 526 L20 452 L69 441 L69 162 C69 34 143 -18 297 -18 C450 -18 518 34 518 162 L518 441 L567 452 L567 526 L363 526 L363 452 L419 441 L419 163 Z " />
<glyph glyph-name="v" unicode="v" horiz-adv-x="571" d="M357 0 L506 444 L556 452 L556 526 L363 526 L363 452 L412 444 L297 92 L189 444 L239 452 L239 526 L15 526 L15 452 L65 444 L215 0 L357 0 Z " />
<glyph glyph-name="w" unicode="w" horiz-adv-x="800" d="M651 0 L734 444 L784 452 L784 526 L593 526 L593 452 L642 444 L583 94 L472 526 L360 526 L242 94 L183 444 L233 452 L233 526 L16 526 L16 451 L63 443 L153 0 L296 0 L403 396 L507 0 L651 0 Z " />
<glyph glyph-name="x" unicode="x" horiz-adv-x="567" d="M548 0 L548 74 L501 82 L349 272 L491 444 L540 452 L540 526 L343 526 L343 452 L391 444 L296 316 L205 444 L255 452 L255 526 L25 526 L25 452 L72 444 L218 262 L66 82 L19 74 L19 0 L213 0 L213 74 L167 82 L269 217 L367 82 L318 74 L318 0 L548 0 Z " />
<glyph glyph-name="y" unicode="y" horiz-adv-x="568" d="M122 -138 C82 -138 60 -127 39 -107 L9 -191 C36 -222 76 -238 131 -238 C240 -238 282 -160 329 -31 L502 443 L552 451 L552 526 L359 526 L359 451 L408 443 L294 102 L185 443 L235 451 L235 526 L14 526 L14 451 L65 443 L229 -18 L217 -50 C192 -114 167 -138 122 -138 L122 -138 Z " />
<glyph glyph-name="z" unicode="z" horiz-adv-x="516" d="M489 0 L489 207 L406 207 L391 79 L163 79 L477 460 L477 526 L27 526 L27 344 L110 344 L120 451 L330 451 L26 86 L26 0 L489 0 Z " />
<glyph glyph-name="braceleft" unicode="{" horiz-adv-x="367" d="M336 -140 L336 -66 L307 -66 C242 -66 226 -45 226 14 C226 75 233 140 233 202 C233 268 193 309 128 316 C193 323 233 364 233 439 C233 496 226 556 226 617 C226 673 242 695 307 695 L336 695 L336 770 L300 770 C150 770 125 717 125 616 C125 572 135 496 135 465 C135 384 112 354 48 354 L48 276 C112 276 135 248 135 168 C135 134 125 61 125 14 C125 -89 150 -140 300 -140 L336 -140 Z " />
<glyph glyph-name="bar" unicode="|" horiz-adv-x="266" d="M180 -134 L180 788 L87 788 L87 -134 L180 -134 Z " />
<glyph glyph-name="braceright" unicode="}" horiz-adv-x="368" d="M66 -140 C216 -140 241 -89 241 14 C241 61 231 134 231 168 C231 248 254 276 318 276 L318 354 C254 354 231 384 231 465 C231 496 241 572 241 616 C241 717 216 770 66 770 L30 770 L30 695 L59 695 C124 695 140 673 140 617 C140 556 133 496 133 439 C133 364 173 323 238 316 C173 309 133 268 133 202 C133 140 140 75 140 14 C140 -45 124 -66 59 -66 L30 -66 L30 -140 L66 -140 Z " />
<glyph glyph-name="asciitilde" unicode="~" horiz-adv-x="637" d="M583 422 C539 364 490 344 431 344 C360 344 292 410 192 410 C127 410 83 376 53 340 L53 247 C95 300 137 326 196 326 C273 326 340 260 425 260 C491 260 538 281 583 330 L583 422 Z " />
<glyph glyph-name="nbspace" unicode=" " horiz-adv-x="286" d="" />
<glyph glyph-name="exclamdown" unicode="¡" horiz-adv-x="200" d="M40 710 L40 554 L162 554 L162 710 L40 710 Z M68 496 C44 320 32 205 32 58 C32 35 33 16 36 0 L163 0 C167 15 168 35 168 58 C168 205 157 321 132 496 L68 496 Z " />
<glyph glyph-name="cent" unicode="¢" horiz-adv-x="485" d="M309 0 L309 82 C372 91 424 127 459 189 L414 257 C383 200 333 173 274 173 C181 173 145 228 145 310 L145 416 C145 501 177 548 259 548 C293 548 324 539 348 515 L356 435 L442 435 L442 568 C406 606 360 623 309 629 L309 710 L216 710 L216 632 C84 614 32 537 32 417 L32 302 C32 174 90 94 216 79 L216 0 L309 0 Z " />
<glyph glyph-name="sterling" unicode="£" horiz-adv-x="527" d="M498 137 C469 92 428 76 381 76 C341 76 285 86 250 112 C262 141 267 170 267 199 C267 226 262 254 253 280 L457 280 L457 348 L223 348 C192 401 162 454 162 523 L162 541 C162 609 201 641 270 641 C310 641 339 630 363 608 L371 529 L456 529 L456 662 C416 706 353 728 268 728 C131 728 58 661 58 549 L58 520 C58 450 85 401 121 348 L35 348 L35 280 L151 280 C160 257 167 229 167 207 C167 147 150 85 67 85 C42 85 27 91 17 97 L17 1 C32 -9 57 -18 91 -18 C145 -18 180 0 210 36 C253 1 318 -18 370 -18 C419 -18 468 -1 498 37 L498 137 Z " />
<glyph glyph-name="currency" unicode="¤" horiz-adv-x="560" d="M467 112 L527 174 L458 239 C482 273 497 314 497 361 C497 406 482 447 458 482 L526 547 L466 608 L402 539 C367 563 324 578 280 578 C234 578 192 563 158 539 L93 608 L32 547 L101 482 C77 447 64 406 64 361 C64 315 77 275 101 239 L31 174 L92 112 L159 182 C193 158 234 145 280 145 C324 145 366 158 401 182 L467 112 Z M431 361 C431 277 364 211 280 211 C196 211 130 277 130 361 C130 445 196 512 280 512 C364 512 431 445 431 361 L431 361 Z " />
<glyph glyph-name="yen" unicode="¥" horiz-adv-x="596" d="M505 97 L505 167 L360 167 L360 269 L505 269 L505 337 L379 337 L519 625 L571 636 L571 710 L378 710 L378 636 L429 625 L316 380 L204 625 L255 636 L255 710 L25 710 L25 636 L76 625 L215 337 L85 337 L85 269 L235 269 L235 167 L85 167 L85 97 L235 97 L235 0 L360 0 L360 97 L505 97 Z " />
<glyph glyph-name="brokenbar" unicode="¦" horiz-adv-x="398" d="M245 -134 L245 264 L152 264 L152 -134 L245 -134 Z M245 425 L245 788 L152 788 L152 425 L245 425 Z " />
<glyph glyph-name="section" unicode="§" horiz-adv-x="495" d="M29 237 C29 134 90 104 266 78 C336 68 365 53 365 2 L365 -2 C365 -64 321 -76 244 -76 C202 -76 172 -71 147 -57 L138 30 L56 30 L56 -113 C97 -146 159 -159 248 -159 C366 -159 466 -127 466 -6 L466 12 C466 96 441 123 395 142 C443 165 469 196 469 269 L469 331 C469 442 404 467 233 490 C162 500 133 515 133 566 L133 571 C133 633 178 644 255 644 C296 644 326 639 351 626 L360 538 L443 538 L443 681 C402 714 339 728 251 728 C132 728 32 696 32 574 L32 555 C32 472 57 442 103 426 C58 405 29 373 29 299 L29 237 Z M320 374 C358 363 365 329 365 290 C365 207 336 183 290 174 C162 196 134 186 134 273 C134 361 159 376 214 392 C262 385 291 383 320 374 L320 374 Z " />
<glyph glyph-name="dieresis" unicode="¨" horiz-adv-x="410" d="M147 590 L147 719 L32 719 L32 590 L147 590 Z M378 590 L378 719 L263 719 L263 590 L378 590 Z " />
<glyph glyph-name="copyright" unicode="©" horiz-adv-x="628" d="M596 454 C596 654 505 728 314 728 C122 728 31 654 31 454 L31 256 C31 56 122 -18 314 -18 C505 -18 596 56 596 256 L596 454 Z M536 256 C536 99 464 41 314 41 C164 41 92 99 92 256 L92 454 C92 609 164 667 314 667 C464 667 536 609 536 454 L536 256 Z M446 272 L391 272 L387 219 C372 205 354 198 326 198 C262 198 238 230 238 311 L238 399 C238 484 259 518 326 518 C353 518 370 511 386 498 L390 445 L445 445 L445 524 C419 551 373 566 331 566 C215 566 170 525 170 399 L170 318 C170 191 215 151 331 151 C373 151 415 167 446 197 L446 272 Z " />
<glyph glyph-name="ordfeminine" unicode="ª" horiz-adv-x="360" d="M318 344 C314 340 311 338 306 338 C296 338 290 345 290 359 L290 508 C290 573 259 597 178 597 C135 597 91 590 55 567 L79 512 C105 529 136 535 166 535 C194 535 215 529 215 501 L215 464 C189 472 159 479 124 479 C67 479 40 453 40 401 L40 376 C40 326 66 290 126 290 C171 290 207 309 222 337 C229 305 247 291 280 291 C297 291 311 294 321 304 L318 344 Z M215 373 C198 358 176 346 150 346 C125 346 116 358 116 383 L116 395 C116 421 126 434 153 434 C179 434 202 429 215 425 L215 373 Z " />
<glyph glyph-name="guillemotleft" unicode="«" horiz-adv-x="452" d="M198 141 L198 230 L79 337 L198 443 L198 532 L28 381 L28 292 L198 141 Z M424 141 L424 230 L305 337 L424 443 L424 532 L254 381 L254 292 L424 141 Z " />
<glyph glyph-name="logicalnot" unicode="¬" horiz-adv-x="628" d="M596 0 L596 526 L32 526 L32 419 L489 419 L489 0 L596 0 Z " />
<glyph glyph-name="registered" unicode="®" horiz-adv-x="628" d="M485 161 L485 200 L452 206 L452 285 C452 336 433 353 402 361 C430 370 447 391 447 439 L447 463 C447 521 421 556 349 556 L158 556 L158 517 L191 511 L191 206 L158 200 L158 161 L289 161 L289 200 L256 206 L256 338 L340 338 C373 338 387 323 387 287 L387 202 C387 173 395 161 422 161 L485 161 Z M385 435 C385 398 369 381 338 381 L256 381 L256 508 L334 508 C370 508 385 488 385 451 L385 435 Z M596 454 C596 654 505 728 314 728 C122 728 32 654 32 454 L32 256 C32 56 122 -18 314 -18 C505 -18 596 56 596 256 L596 454 Z M536 256 C536 99 464 41 314 41 C164 41 92 99 92 256 L92 454 C92 610 164 667 314 667 C464 667 536 610 536 454 L536 256 Z " />
<glyph glyph-name="macron" unicode="¯" horiz-adv-x="403" d="M371 593 L371 671 L32 671 L32 593 L371 593 Z " />
<glyph glyph-name="degree" unicode="°" horiz-adv-x="378" d="M188 380 C300 380 346 456 346 550 C346 645 300 719 188 719 C76 719 32 645 32 550 C32 456 76 380 188 380 L188 380 Z M188 442 C123 442 98 491 98 550 C98 609 123 658 188 658 C254 658 279 609 279 550 C279 491 254 442 188 442 L188 442 Z " />
<glyph glyph-name="plusminus" unicode="±" horiz-adv-x="605" d="M344 117 L344 325 L551 325 L551 410 L344 410 L344 617 L259 617 L259 410 L53 410 L53 325 L259 325 L259 117 L344 117 Z M551 0 L551 85 L53 85 L53 0 L551 0 Z " />
<glyph glyph-name="twosuperior" unicode="²" horiz-adv-x="294" d="M268 365 L268 468 L224 468 L217 427 L114 427 C206 489 265 543 265 616 C265 694 225 729 150 729 C106 729 65 720 29 699 L51 639 C74 655 105 668 133 668 C171 668 196 646 196 610 C196 536 95 471 30 430 L30 365 L268 365 Z " />
<glyph glyph-name="threesuperior" unicode="³" horiz-adv-x="281" d="M25 372 C57 360 90 356 125 356 C200 356 252 387 252 461 C252 503 233 539 196 550 C228 561 245 594 245 631 C245 692 209 729 128 729 C93 729 55 721 26 702 L44 647 C64 661 92 669 118 669 C154 669 182 654 182 615 C182 584 164 571 135 571 L97 571 L97 519 L134 519 C165 519 186 504 186 470 C186 429 156 415 118 415 C91 415 62 422 43 430 L25 372 Z " />
<glyph glyph-name="acute" unicode="´" horiz-adv-x="267" d="M104 580 L235 766 L124 766 L32 580 L104 580 Z " />
<glyph glyph-name="mu" unicode="µ" horiz-adv-x="605" d="M261 -228 L261 -154 L193 -143 L193 48 C234 2 300 -17 362 -17 C505 -17 537 49 537 214 L537 441 L586 452 L586 526 L382 526 L382 452 L437 441 L437 213 C437 116 409 72 322 72 C274 72 222 91 193 125 L193 441 L247 452 L247 526 L27 526 L27 452 L77 441 L77 -143 L18 -154 L18 -228 L261 -228 Z " />
<glyph glyph-name="paragraph" unicode="¶" horiz-adv-x="526" d="M462 -166 L462 628 L509 637 L509 710 L139 710 C57 710 16 651 16 566 C16 481 53 423 144 423 L144 -166 L232 -166 L232 626 L376 626 L376 -166 L462 -166 Z " />
<glyph glyph-name="periodcentered" unicode="·" horiz-adv-x="192" d="M158 260 L158 422 L34 422 L34 260 L158 260 Z " />
<glyph glyph-name="cedilla" unicode="¸" horiz-adv-x="188" d="M80 -240 C113 -209 141 -168 146 -129 L146 -31 L45 -31 L45 -134 L94 -134 C84 -162 66 -189 45 -210 L80 -240 Z " />
<glyph glyph-name="onesuperior" unicode="¹" horiz-adv-x="209" d="M180 365 L180 410 L154 417 L154 720 L103 720 C78 692 50 669 18 647 L49 602 C60 609 72 618 85 627 L85 417 L54 410 L54 365 L180 365 Z " />
<glyph glyph-name="ordmasculine" unicode="º" horiz-adv-x="349" d="M305 473 C305 559 265 597 174 597 C83 597 44 559 44 473 L44 414 C44 328 83 290 174 290 C265 290 305 328 305 414 L305 473 Z M229 419 C229 365 216 350 174 350 C133 350 120 365 120 419 L120 468 C120 522 133 537 174 537 C216 537 229 522 229 468 L229 419 Z " />
<glyph glyph-name="guillemotright" unicode="»" horiz-adv-x="452" d="M198 291 L198 381 L27 532 L27 442 L145 337 L27 230 L27 141 L198 291 Z M424 291 L424 381 L253 532 L253 442 L371 337 L253 230 L253 141 L424 291 Z " />
<glyph glyph-name="onequarter" unicode="¼" horiz-adv-x="629" d="M191 365 L191 410 L165 417 L165 720 L114 720 C89 692 61 669 29 647 L60 602 C71 609 83 618 96 627 L96 417 L65 410 L65 365 L191 365 Z M110 -21 L539 732 L473 732 L45 -21 L110 -21 Z M573 -10 L573 52 L600 52 L600 107 L573 107 L573 230 L509 230 L509 107 L409 107 C446 171 486 256 510 330 L450 352 C423 275 385 193 341 118 L341 52 L507 52 L507 -10 L573 -10 Z " />
<glyph glyph-name="onehalf" unicode="½" horiz-adv-x="634" d="M191 365 L191 410 L165 417 L165 720 L114 720 C89 692 61 669 29 647 L60 602 C71 609 83 618 96 627 L96 417 L65 410 L65 365 L191 365 Z M110 -21 L539 732 L473 732 L45 -21 L110 -21 Z M605 -10 L605 93 L561 93 L554 52 L451 52 C543 114 602 168 602 241 C602 319 562 354 487 354 C443 354 402 345 366 324 L388 264 C411 280 442 293 470 293 C508 293 533 271 533 235 C533 161 432 96 367 55 L367 -10 L605 -10 Z " />
<glyph glyph-name="threequarters" unicode="¾" horiz-adv-x="634" d="M29 372 C61 360 94 356 129 356 C204 356 256 387 256 461 C256 503 237 539 200 550 C232 561 249 594 249 631 C249 692 213 729 132 729 C97 729 59 721 30 702 L48 647 C68 661 96 669 122 669 C158 669 186 654 186 615 C186 584 168 571 139 571 L101 571 L101 519 L138 519 C169 519 190 504 190 470 C190 429 160 415 122 415 C95 415 66 422 47 430 L29 372 Z M125 -21 L554 732 L488 732 L60 -21 L125 -21 Z M578 -10 L578 52 L605 52 L605 107 L578 107 L578 230 L514 230 L514 107 L414 107 C451 171 491 256 515 330 L455 352 C428 275 390 193 346 118 L346 52 L512 52 L512 -10 L578 -10 Z " />
<glyph glyph-name="questiondown" unicode="¿" horiz-adv-x="462" d="M204 486 L204 430 C204 383 182 369 124 344 C55 314 32 277 32 204 L32 162 C32 45 107 -18 242 -18 C328 -18 391 4 430 48 L430 181 L349 181 L340 102 C316 80 285 68 245 68 C176 68 136 102 136 170 L136 193 C136 250 150 268 197 287 C279 321 308 339 308 415 L308 486 L204 486 Z M196 710 L196 554 L318 554 L318 710 L196 710 Z " />
<glyph glyph-name="Agrave" unicode="À" horiz-adv-x="637" d="M618 0 L618 73 L563 84 L407 710 L239 710 L73 84 L19 73 L19 0 L224 0 L224 73 L168 84 L206 233 L396 233 L432 84 L376 73 L376 0 L618 0 Z M380 308 L224 308 L305 616 L380 308 Z M390 764 L299 950 L187 950 L317 764 L390 764 Z " />
<glyph glyph-name="Aacute" unicode="Á" horiz-adv-x="637" d="M618 0 L618 73 L563 84 L407 710 L239 710 L73 84 L19 73 L19 0 L224 0 L224 73 L168 84 L206 233 L396 233 L432 84 L376 73 L376 0 L618 0 Z M380 308 L224 308 L305 616 L380 308 Z M319 764 L450 950 L339 950 L247 764 L319 764 Z " />
<glyph glyph-name="Acircumflex" unicode="Â" horiz-adv-x="637" d="M618 0 L618 73 L563 84 L407 710 L239 710 L73 84 L19 73 L19 0 L224 0 L224 73 L168 84 L206 233 L396 233 L432 84 L376 73 L376 0 L618 0 Z M380 308 L224 308 L305 616 L380 308 Z M517 763 L367 939 L278 939 L127 763 L215 763 L322 887 L429 763 L517 763 Z " />
<glyph glyph-name="Atilde" unicode="Ã" horiz-adv-x="637" d="M618 0 L618 73 L563 84 L407 710 L239 710 L73 84 L19 73 L19 0 L224 0 L224 73 L168 84 L206 233 L396 233 L432 84 L376 73 L376 0 L618 0 Z M380 308 L224 308 L305 616 L380 308 Z M492 885 C464 852 436 835 399 835 C343 835 301 885 235 885 C192 885 164 864 144 840 L144 764 C171 798 199 815 237 815 C289 815 332 764 401 764 C443 764 472 786 492 810 L492 885 Z " />
<glyph glyph-name="Adieresis" unicode="Ä" horiz-adv-x="637" d="M618 0 L618 73 L563 84 L407 710 L239 710 L73 84 L19 73 L19 0 L224 0 L224 73 L168 84 L206 233 L396 233 L432 84 L376 73 L376 0 L618 0 Z M380 308 L224 308 L305 616 L380 308 Z M260 774 L260 903 L145 903 L145 774 L260 774 Z M491 774 L491 903 L376 903 L376 774 L491 774 Z " />
<glyph glyph-name="Aring" unicode="Å" horiz-adv-x="637" d="M618 0 L618 73 L563 84 L407 710 L239 710 L73 84 L19 73 L19 0 L224 0 L224 73 L168 84 L206 233 L396 233 L432 84 L376 73 L376 0 L618 0 Z M380 308 L224 308 L305 616 L380 308 Z M432 847 C432 913 401 950 323 950 C248 950 213 913 213 847 C213 779 249 745 323 745 C401 745 432 779 432 847 L432 847 Z M383 847 C383 808 364 789 323 789 C284 789 264 808 264 847 C264 886 284 907 323 907 C364 907 383 886 383 847 L383 847 Z " />
<glyph glyph-name="AE" unicode="Æ" horiz-adv-x="892" d="M856 0 L856 219 L781 219 L762 94 L542 94 L542 327 L721 327 L733 263 L797 263 L797 474 L733 474 L722 410 L542 410 L542 620 L760 620 L774 513 L850 513 L850 710 L232 710 L73 84 L19 74 L19 0 L241 0 L241 74 L185 84 L222 233 L419 233 L419 84 L360 74 L360 0 L856 0 Z M419 308 L240 308 L318 620 L419 620 L419 308 Z " />
<glyph glyph-name="Ccedilla" unicode="Ç" horiz-adv-x="555" d="M527 198 L434 198 L425 112 C397 81 354 71 312 71 C195 71 159 130 159 281 L159 428 C159 577 197 638 312 638 C354 638 398 627 423 598 L432 512 L525 512 L525 661 C481 708 397 728 322 728 C112 728 31 655 31 428 L31 282 C31 55 112 -18 322 -18 C397 -18 473 0 527 54 L527 198 Z M282 -240 C315 -209 343 -168 348 -129 L348 -31 L247 -31 L247 -134 L296 -134 C286 -162 268 -189 247 -210 L282 -240 Z " />
<glyph glyph-name="Egrave" unicode="È" horiz-adv-x="568" d="M532 0 L532 219 L458 219 L440 94 L214 94 L214 327 L397 327 L411 263 L474 263 L474 474 L411 474 L397 410 L214 410 L214 620 L438 620 L452 513 L526 513 L526 710 L32 710 L32 636 L90 625 L90 85 L32 73 L32 0 L532 0 Z M365 764 L274 950 L162 950 L292 764 L365 764 Z " />
<glyph glyph-name="Eacute" unicode="É" horiz-adv-x="568" d="M532 0 L532 219 L458 219 L440 94 L214 94 L214 327 L397 327 L411 263 L474 263 L474 474 L411 474 L397 410 L214 410 L214 620 L438 620 L452 513 L526 513 L526 710 L32 710 L32 636 L90 625 L90 85 L32 73 L32 0 L532 0 Z M294 764 L425 950 L314 950 L222 764 L294 764 Z " />
<glyph glyph-name="Ecircumflex" unicode="Ê" horiz-adv-x="568" d="M532 0 L532 219 L458 219 L440 94 L214 94 L214 327 L397 327 L411 263 L474 263 L474 474 L411 474 L397 410 L214 410 L214 620 L438 620 L452 513 L526 513 L526 710 L32 710 L32 636 L90 625 L90 85 L32 73 L32 0 L532 0 Z M479 763 L329 939 L240 939 L89 763 L177 763 L284 887 L391 763 L479 763 Z " />
<glyph glyph-name="Edieresis" unicode="Ë" horiz-adv-x="568" d="M532 0 L532 219 L458 219 L440 94 L214 94 L214 327 L397 327 L411 263 L474 263 L474 474 L411 474 L397 410 L214 410 L214 620 L438 620 L452 513 L526 513 L526 710 L32 710 L32 636 L90 625 L90 85 L32 73 L32 0 L532 0 Z M236 774 L236 903 L121 903 L121 774 L236 774 Z M467 774 L467 903 L352 903 L352 774 L467 774 Z " />
<glyph glyph-name="Igrave" unicode="Ì" horiz-adv-x="306" d="M274 0 L274 73 L216 85 L216 625 L274 636 L274 710 L32 710 L32 636 L90 625 L90 85 L32 73 L32 0 L274 0 Z M225 764 L134 950 L22 950 L152 764 L225 764 Z " />
<glyph glyph-name="Iacute" unicode="Í" horiz-adv-x="306" d="M274 0 L274 73 L216 85 L216 625 L274 636 L274 710 L32 710 L32 636 L90 625 L90 85 L32 73 L32 0 L274 0 Z M153 764 L284 950 L173 950 L81 764 L153 764 Z " />
<glyph glyph-name="Icircumflex" unicode="Î" horiz-adv-x="306" d="M274 0 L274 73 L216 85 L216 625 L274 636 L274 710 L32 710 L32 636 L90 625 L90 85 L32 73 L32 0 L274 0 Z M348 763 L198 939 L109 939 L-42 763 L46 763 L153 887 L260 763 L348 763 Z " />
<glyph glyph-name="Idieresis" unicode="Ï" horiz-adv-x="306" d="M274 0 L274 73 L216 85 L216 625 L274 636 L274 710 L32 710 L32 636 L90 625 L90 85 L32 73 L32 0 L274 0 Z M95 774 L95 903 L-20 903 L-20 774 L95 774 Z M326 774 L326 903 L211 903 L211 774 L326 774 Z " />
<glyph glyph-name="Eth" unicode="Ð" horiz-adv-x="618" d="M337 0 C515 0 586 74 586 269 L586 441 C586 636 515 710 337 710 L32 710 L32 636 L90 625 L90 410 L32 410 L32 327 L90 327 L90 85 L32 73 L32 0 L337 0 Z M460 265 C460 133 423 88 337 88 L216 88 L216 327 L339 327 L339 410 L216 410 L216 621 L337 621 C423 621 460 574 460 432 L460 265 Z " />
<glyph glyph-name="Ntilde" unicode="Ñ" horiz-adv-x="664" d="M581 0 L581 625 L637 636 L637 710 L428 710 L428 636 L483 625 L483 211 L236 710 L32 710 L32 636 L90 625 L90 85 L32 74 L32 0 L252 0 L252 74 L188 85 L188 530 L475 0 L581 0 Z M506 885 C478 852 450 835 413 835 C357 835 315 885 249 885 C206 885 178 864 158 840 L158 764 C185 798 213 815 251 815 C303 815 346 764 415 764 C457 764 486 786 506 810 L506 885 Z " />
<glyph glyph-name="Ograve" unicode="Ò" horiz-adv-x="607" d="M575 426 C575 635 488 728 303 728 C118 728 32 635 32 426 L32 284 C32 75 118 -18 303 -18 C488 -18 575 75 575 284 L575 426 Z M449 284 C449 123 405 73 303 73 C202 73 158 123 158 284 L158 426 C158 584 202 636 303 636 C405 636 449 584 449 426 L449 284 Z M375 764 L284 950 L172 950 L302 764 L375 764 Z " />
<glyph glyph-name="Oacute" unicode="Ó" horiz-adv-x="607" d="M575 426 C575 635 488 728 303 728 C118 728 32 635 32 426 L32 284 C32 75 118 -18 303 -18 C488 -18 575 75 575 284 L575 426 Z M449 284 C449 123 405 73 303 73 C202 73 158 123 158 284 L158 426 C158 584 202 636 303 636 C405 636 449 584 449 426 L449 284 Z M304 764 L435 950 L324 950 L232 764 L304 764 Z " />
<glyph glyph-name="Ocircumflex" unicode="Ô" horiz-adv-x="607" d="M575 426 C575 635 488 728 303 728 C118 728 32 635 32 426 L32 284 C32 75 118 -18 303 -18 C488 -18 575 75 575 284 L575 426 Z M449 284 C449 123 405 73 303 73 C202 73 158 123 158 284 L158 426 C158 584 202 636 303 636 C405 636 449 584 449 426 L449 284 Z M498 763 L348 939 L259 939 L108 763 L196 763 L303 887 L410 763 L498 763 Z " />
<glyph glyph-name="Otilde" unicode="Õ" horiz-adv-x="607" d="M575 426 C575 635 488 728 303 728 C118 728 32 635 32 426 L32 284 C32 75 118 -18 303 -18 C488 -18 575 75 575 284 L575 426 Z M449 284 C449 123 405 73 303 73 C202 73 158 123 158 284 L158 426 C158 584 202 636 303 636 C405 636 449 584 449 426 L449 284 Z M477 885 C449 852 421 835 384 835 C328 835 286 885 220 885 C177 885 149 864 129 840 L129 764 C156 798 184 815 222 815 C274 815 317 764 386 764 C428 764 457 786 477 810 L477 885 Z " />
<glyph glyph-name="Odieresis" unicode="Ö" horiz-adv-x="607" d="M575 426 C575 635 488 728 303 728 C118 728 32 635 32 426 L32 284 C32 75 118 -18 303 -18 C488 -18 575 75 575 284 L575 426 Z M449 284 C449 123 405 73 303 73 C202 73 158 123 158 284 L158 426 C158 584 202 636 303 636 C405 636 449 584 449 426 L449 284 Z M245 774 L245 903 L130 903 L130 774 L245 774 Z M476 774 L476 903 L361 903 L361 774 L476 774 Z " />
<glyph glyph-name="multiply" unicode="×" horiz-adv-x="630" d="M521 220 L374 367 L520 513 L460 573 L314 428 L168 573 L107 512 L252 367 L106 220 L167 160 L314 306 L460 159 L521 220 Z " />
<glyph glyph-name="Oslash" unicode="Ø" horiz-adv-x="607" d="M129 -75 L170 5 C207 -10 251 -18 303 -18 C488 -18 575 75 575 284 L575 426 C575 531 553 606 508 656 L575 785 L475 785 L434 705 C398 720 354 728 303 728 C118 728 32 635 32 426 L32 284 C32 179 53 104 98 54 L31 -75 L129 -75 Z M449 284 C449 123 405 73 303 73 C267 73 238 79 217 95 L438 520 C445 495 449 464 449 426 L449 284 Z M158 284 L158 426 C158 584 202 636 303 636 C338 636 366 630 388 615 L168 190 C161 214 158 245 158 284 L158 284 Z " />
<glyph glyph-name="Ugrave" unicode="Ù" horiz-adv-x="677" d="M488 227 C488 119 455 82 345 82 C244 82 204 118 204 227 L204 625 L260 636 L260 710 L25 710 L25 636 L77 625 L77 241 C77 53 136 -18 336 -18 C558 -18 600 53 600 241 L600 625 L652 636 L652 710 L433 710 L433 636 L488 625 L488 227 Z M410 764 L319 950 L207 950 L337 764 L410 764 Z " />
<glyph glyph-name="Uacute" unicode="Ú" horiz-adv-x="677" d="M488 227 C488 119 455 82 345 82 C244 82 204 118 204 227 L204 625 L260 636 L260 710 L25 710 L25 636 L77 625 L77 241 C77 53 136 -18 336 -18 C558 -18 600 53 600 241 L600 625 L652 636 L652 710 L433 710 L433 636 L488 625 L488 227 Z M339 764 L470 950 L359 950 L267 764 L339 764 Z " />
<glyph glyph-name="Ucircumflex" unicode="Û" horiz-adv-x="677" d="M488 227 C488 119 455 82 345 82 C244 82 204 118 204 227 L204 625 L260 636 L260 710 L25 710 L25 636 L77 625 L77 241 C77 53 136 -18 336 -18 C558 -18 600 53 600 241 L600 625 L652 636 L652 710 L433 710 L433 636 L488 625 L488 227 Z M533 763 L383 939 L294 939 L143 763 L231 763 L338 887 L445 763 L533 763 Z " />
<glyph glyph-name="Udieresis" unicode="Ü" horiz-adv-x="677" d="M488 227 C488 119 455 82 345 82 C244 82 204 118 204 227 L204 625 L260 636 L260 710 L25 710 L25 636 L77 625 L77 241 C77 53 136 -18 336 -18 C558 -18 600 53 600 241 L600 625 L652 636 L652 710 L433 710 L433 636 L488 625 L488 227 Z M280 774 L280 903 L165 903 L165 774 L280 774 Z M511 774 L511 903 L396 903 L396 774 L511 774 Z " />
<glyph glyph-name="Yacute" unicode="Ý" horiz-adv-x="592" d="M423 0 L423 74 L358 85 L358 282 L520 625 L572 636 L572 710 L379 710 L379 636 L430 625 L313 371 L199 625 L250 636 L250 710 L19 710 L19 636 L70 625 L232 282 L232 85 L167 74 L167 0 L423 0 Z M306 764 L437 950 L326 950 L234 764 L306 764 Z " />
<glyph glyph-name="Thorn" unicode="Þ" horiz-adv-x="577" d="M273 0 L273 73 L214 85 L214 142 L356 142 C497 142 553 201 553 354 C553 507 497 565 356 565 L214 565 L214 625 L273 636 L273 710 L32 710 L32 636 L90 625 L90 85 L32 73 L32 0 L273 0 Z M214 220 L214 488 L336 488 C405 488 432 455 432 354 C432 254 405 220 336 220 L214 220 Z " />
<glyph glyph-name="germandbls" unicode="ß" horiz-adv-x="698" d="M573 145 C573 89 542 64 490 64 C456 64 427 71 399 89 L390 165 L306 165 L306 37 C356 -4 421 -18 484 -18 C578 -18 670 11 670 129 L670 190 C670 252 652 288 615 312 C576 337 534 344 499 363 C470 378 461 393 461 423 L461 585 C461 710 389 728 270 728 C151 728 79 710 79 585 L79 84 L21 74 L21 0 L243 0 L243 74 L193 84 L193 580 C193 635 222 647 270 647 C325 647 346 632 346 581 L346 422 C346 358 380 319 419 295 C462 269 502 259 537 238 C565 221 573 204 573 157 L573 145 Z " />
<glyph glyph-name="agrave" unicode="à" horiz-adv-x="545" d="M525 69 C518 58 510 54 498 54 C480 54 467 64 467 92 L467 379 C467 496 412 540 268 540 C191 540 112 528 49 485 L84 403 C135 437 193 448 250 448 C320 448 357 428 357 367 L357 292 C312 309 253 325 174 325 C70 325 22 278 22 184 L22 139 C22 47 67 -18 180 -18 C271 -18 338 21 367 76 C373 9 406 -17 462 -17 C493 -17 516 -8 530 8 L525 69 Z M357 131 C325 94 278 64 215 64 C154 64 134 94 134 148 L134 174 C134 230 157 257 217 257 C278 257 327 244 357 232 L357 131 Z M344 580 L253 766 L141 766 L271 580 L344 580 Z " />
<glyph glyph-name="aacute" unicode="á" horiz-adv-x="545" d="M525 69 C518 58 510 54 498 54 C480 54 467 64 467 92 L467 379 C467 496 412 540 268 540 C191 540 112 528 49 485 L84 403 C135 437 193 448 250 448 C320 448 357 428 357 367 L357 292 C312 309 253 325 174 325 C70 325 22 278 22 184 L22 139 C22 47 67 -18 180 -18 C271 -18 338 21 367 76 C373 9 406 -17 462 -17 C493 -17 516 -8 530 8 L525 69 Z M357 131 C325 94 278 64 215 64 C154 64 134 94 134 148 L134 174 C134 230 157 257 217 257 C278 257 327 244 357 232 L357 131 Z M273 580 L404 766 L293 766 L201 580 L273 580 Z " />
<glyph glyph-name="acircumflex" unicode="â" horiz-adv-x="545" d="M525 69 C518 58 510 54 498 54 C480 54 467 64 467 92 L467 379 C467 496 412 540 268 540 C191 540 112 528 49 485 L84 403 C135 437 193 448 250 448 C320 448 357 428 357 367 L357 292 C312 309 253 325 174 325 C70 325 22 278 22 184 L22 139 C22 47 67 -18 180 -18 C271 -18 338 21 367 76 C373 9 406 -17 462 -17 C493 -17 516 -8 530 8 L525 69 Z M357 131 C325 94 278 64 215 64 C154 64 134 94 134 148 L134 174 C134 230 157 257 217 257 C278 257 327 244 357 232 L357 131 Z M467 579 L317 755 L228 755 L77 579 L165 579 L272 703 L379 579 L467 579 Z " />
<glyph glyph-name="atilde" unicode="ã" horiz-adv-x="545" d="M525 69 C518 58 510 54 498 54 C480 54 467 64 467 92 L467 379 C467 496 412 540 268 540 C191 540 112 528 49 485 L84 403 C135 437 193 448 250 448 C320 448 357 428 357 367 L357 292 C312 309 253 325 174 325 C70 325 22 278 22 184 L22 139 C22 47 67 -18 180 -18 C271 -18 338 21 367 76 C373 9 406 -17 462 -17 C493 -17 516 -8 530 8 L525 69 Z M357 131 C325 94 278 64 215 64 C154 64 134 94 134 148 L134 174 C134 230 157 257 217 257 C278 257 327 244 357 232 L357 131 Z M446 701 C418 668 390 651 353 651 C297 651 255 701 189 701 C146 701 118 680 98 656 L98 580 C125 614 153 631 191 631 C243 631 286 580 355 580 C397 580 426 602 446 626 L446 701 Z " />
<glyph glyph-name="adieresis" unicode="ä" horiz-adv-x="545" d="M525 69 C518 58 510 54 498 54 C480 54 467 64 467 92 L467 379 C467 496 412 540 268 540 C191 540 112 528 49 485 L84 403 C135 437 193 448 250 448 C320 448 357 428 357 367 L357 292 C312 309 253 325 174 325 C70 325 22 278 22 184 L22 139 C22 47 67 -18 180 -18 C271 -18 338 21 367 76 C373 9 406 -17 462 -17 C493 -17 516 -8 530 8 L525 69 Z M357 131 C325 94 278 64 215 64 C154 64 134 94 134 148 L134 174 C134 230 157 257 217 257 C278 257 327 244 357 232 L357 131 Z M214 590 L214 719 L99 719 L99 590 L214 590 Z M445 590 L445 719 L330 719 L330 590 L445 590 Z " />
<glyph glyph-name="aring" unicode="å" horiz-adv-x="545" d="M525 69 C518 58 510 54 498 54 C480 54 467 64 467 92 L467 379 C467 496 412 540 268 540 C191 540 112 528 49 485 L84 403 C135 437 193 448 250 448 C320 448 357 428 357 367 L357 292 C312 309 253 325 174 325 C70 325 22 278 22 184 L22 139 C22 47 67 -18 180 -18 C271 -18 338 21 367 76 C373 9 406 -17 462 -17 C493 -17 516 -8 530 8 L525 69 Z M357 131 C325 94 278 64 215 64 C154 64 134 94 134 148 L134 174 C134 230 157 257 217 257 C278 257 327 244 357 232 L357 131 Z M382 663 C382 729 351 766 273 766 C198 766 163 729 163 663 C163 595 199 561 273 561 C351 561 382 595 382 663 L382 663 Z M333 663 C333 624 314 605 273 605 C234 605 214 624 214 663 C214 702 234 723 273 723 C314 723 333 702 333 663 L333 663 Z " />
<glyph glyph-name="ae" unicode="æ" horiz-adv-x="833" d="M803 230 L803 290 C803 454 765 539 584 539 C505 539 448 515 425 461 C407 519 353 539 264 539 C190 539 110 526 48 485 L84 403 C135 436 192 448 250 448 C316 448 357 433 357 367 L357 292 C309 309 250 325 174 325 C70 325 22 278 22 184 L22 139 C22 47 67 -18 180 -18 C256 -18 349 13 393 92 C426 23 488 -17 598 -17 C705 -17 767 16 798 71 L755 135 C731 98 688 73 610 73 C508 73 469 134 468 230 L803 230 Z M357 140 C332 99 278 64 215 64 C154 64 134 94 134 148 L134 174 C134 229 157 257 217 257 C278 257 327 244 357 232 L357 140 Z M468 304 C468 401 486 460 584 460 C684 460 698 400 698 304 L468 304 Z " />
<glyph glyph-name="ccedilla" unicode="ç" horiz-adv-x="482" d="M418 162 C388 105 333 79 274 79 C181 79 141 130 141 215 L141 320 C141 406 178 454 259 454 C294 454 329 445 352 420 L360 341 L447 341 L447 474 C398 525 328 540 253 540 C95 540 28 451 28 323 L28 208 C28 65 105 -18 265 -18 C349 -18 420 19 463 95 L418 162 Z M245 -240 C278 -209 306 -168 311 -129 L311 -31 L210 -31 L210 -134 L259 -134 C249 -162 231 -189 210 -210 L245 -240 Z " />
<glyph glyph-name="egrave" unicode="è" horiz-adv-x="505" d="M475 230 L475 290 C475 454 437 540 255 540 C88 540 29 461 29 298 L29 220 C29 82 100 -18 267 -18 C376 -18 439 16 470 71 L429 139 C396 96 358 73 282 73 C180 73 140 121 140 230 L475 230 Z M140 304 C140 400 158 460 257 460 C358 460 370 398 370 304 L140 304 Z M324 580 L233 766 L121 766 L251 580 L324 580 Z " />
<glyph glyph-name="eacute" unicode="é" horiz-adv-x="505" d="M475 230 L475 290 C475 454 437 540 255 540 C88 540 29 461 29 298 L29 220 C29 82 100 -18 267 -18 C376 -18 439 16 470 71 L429 139 C396 96 358 73 282 73 C180 73 140 121 140 230 L475 230 Z M140 304 C140 400 158 460 257 460 C358 460 370 398 370 304 L140 304 Z M253 580 L384 766 L273 766 L181 580 L253 580 Z " />
<glyph glyph-name="ecircumflex" unicode="ê" horiz-adv-x="505" d="M475 230 L475 290 C475 454 437 540 255 540 C88 540 29 461 29 298 L29 220 C29 82 100 -18 267 -18 C376 -18 439 16 470 71 L429 139 C396 96 358 73 282 73 C180 73 140 121 140 230 L475 230 Z M140 304 C140 400 158 460 257 460 C358 460 370 398 370 304 L140 304 Z M447 579 L297 755 L208 755 L57 579 L145 579 L252 703 L359 579 L447 579 Z " />
<glyph glyph-name="edieresis" unicode="ë" horiz-adv-x="505" d="M475 230 L475 290 C475 454 437 540 255 540 C88 540 29 461 29 298 L29 220 C29 82 100 -18 267 -18 C376 -18 439 16 470 71 L429 139 C396 96 358 73 282 73 C180 73 140 121 140 230 L475 230 Z M140 304 C140 400 158 460 257 460 C358 460 370 398 370 304 L140 304 Z M194 590 L194 719 L79 719 L79 590 L194 590 Z M425 590 L425 719 L310 719 L310 590 L425 590 Z " />
<glyph glyph-name="igrave" unicode="ì" horiz-adv-x="282" d="M258 0 L258 74 L200 85 L200 526 L26 526 L26 452 L84 441 L84 85 L26 74 L26 0 L258 0 Z M213 580 L122 766 L10 766 L140 580 L213 580 Z " />
<glyph glyph-name="iacute" unicode="í" horiz-adv-x="282" d="M258 0 L258 74 L200 85 L200 526 L26 526 L26 452 L84 441 L84 85 L26 74 L26 0 L258 0 Z M141 580 L272 766 L161 766 L69 580 L141 580 Z " />
<glyph glyph-name="icircumflex" unicode="î" horiz-adv-x="350" d="M291 0 L291 74 L233 85 L233 526 L59 526 L59 452 L117 441 L117 85 L59 74 L59 0 L291 0 Z M369 579 L219 755 L130 755 L-21 579 L67 579 L174 703 L281 579 L369 579 Z " />
<glyph glyph-name="idieresis" unicode="ï" horiz-adv-x="330" d="M281 0 L281 74 L223 85 L223 526 L49 526 L49 452 L107 441 L107 85 L49 74 L49 0 L281 0 Z M106 590 L106 719 L-9 719 L-9 590 L106 590 Z M337 590 L337 719 L222 719 L222 590 L337 590 Z " />
<glyph glyph-name="eth" unicode="ð" horiz-adv-x="529" d="M492 652 L464 718 L374 681 C356 703 337 724 316 744 L236 715 C256 696 275 673 291 646 L165 593 L194 527 L325 583 C350 528 367 466 373 407 C352 441 313 465 241 465 C104 465 27 440 27 290 L27 190 C27 40 104 -18 265 -18 C428 -18 501 40 501 190 L501 271 C501 414 471 527 417 620 L492 652 Z M388 183 C388 102 347 69 265 69 C174 69 143 108 143 206 L143 285 C143 365 183 387 262 387 C340 387 376 351 388 285 L388 183 Z " />
<glyph glyph-name="ntilde" unicode="ñ" horiz-adv-x="643" d="M619 0 L619 74 L561 85 L561 398 C561 494 510 540 407 540 C311 540 251 516 192 454 L188 526 L26 526 L26 452 L84 441 L84 85 L26 74 L26 0 L257 0 L257 74 L200 85 L200 383 C242 432 297 447 360 447 C414 447 445 427 445 374 L445 85 L388 74 L388 0 L619 0 Z M495 701 C467 668 439 651 402 651 C346 651 304 701 238 701 C195 701 167 680 147 656 L147 580 C174 614 202 631 240 631 C292 631 335 580 404 580 C446 580 475 602 495 626 L495 701 Z " />
<glyph glyph-name="ograve" unicode="ò" horiz-adv-x="522" d="M494 315 C494 471 424 540 261 540 C98 540 28 471 28 315 L28 208 C28 51 98 -18 261 -18 C424 -18 494 51 494 208 L494 315 Z M381 215 C381 106 350 71 261 71 C172 71 141 106 141 215 L141 307 C141 415 172 451 261 451 C350 451 381 415 381 307 L381 215 Z M332 580 L241 766 L129 766 L259 580 L332 580 Z " />
<glyph glyph-name="oacute" unicode="ó" horiz-adv-x="522" d="M494 315 C494 471 424 540 261 540 C98 540 28 471 28 315 L28 208 C28 51 98 -18 261 -18 C424 -18 494 51 494 208 L494 315 Z M381 215 C381 106 350 71 261 71 C172 71 141 106 141 215 L141 307 C141 415 172 451 261 451 C350 451 381 415 381 307 L381 215 Z M261 580 L392 766 L281 766 L189 580 L261 580 Z " />
<glyph glyph-name="ocircumflex" unicode="ô" horiz-adv-x="522" d="M494 315 C494 471 424 540 261 540 C98 540 28 471 28 315 L28 208 C28 51 98 -18 261 -18 C424 -18 494 51 494 208 L494 315 Z M381 215 C381 106 350 71 261 71 C172 71 141 106 141 215 L141 307 C141 415 172 451 261 451 C350 451 381 415 381 307 L381 215 Z M456 579 L306 755 L217 755 L66 579 L154 579 L261 703 L368 579 L456 579 Z " />
<glyph glyph-name="otilde" unicode="õ" horiz-adv-x="522" d="M494 315 C494 471 424 540 261 540 C98 540 28 471 28 315 L28 208 C28 51 98 -18 261 -18 C424 -18 494 51 494 208 L494 315 Z M381 215 C381 106 350 71 261 71 C172 71 141 106 141 215 L141 307 C141 415 172 451 261 451 C350 451 381 415 381 307 L381 215 Z M435 701 C407 668 379 651 342 651 C286 651 244 701 178 701 C135 701 107 680 87 656 L87 580 C114 614 142 631 180 631 C232 631 275 580 344 580 C386 580 415 602 435 626 L435 701 Z " />
<glyph glyph-name="odieresis" unicode="ö" horiz-adv-x="522" d="M494 315 C494 471 424 540 261 540 C98 540 28 471 28 315 L28 208 C28 51 98 -18 261 -18 C424 -18 494 51 494 208 L494 315 Z M381 215 C381 106 350 71 261 71 C172 71 141 106 141 215 L141 307 C141 415 172 451 261 451 C350 451 381 415 381 307 L381 215 Z M203 590 L203 719 L88 719 L88 590 L203 590 Z M434 590 L434 719 L319 719 L319 590 L434 590 Z " />
<glyph glyph-name="divide" unicode="÷" horiz-adv-x="605" d="M551 325 L551 410 L53 410 L53 325 L551 325 Z M364 480 L364 642 L240 642 L240 480 L364 480 Z M364 93 L364 255 L240 255 L240 93 L364 93 Z " />
<glyph glyph-name="oslash" unicode="ø" horiz-adv-x="522" d="M125 -75 L162 -6 C190 -14 223 -18 261 -18 C424 -18 494 51 494 208 L494 315 C494 396 475 454 433 490 L494 601 L395 601 L355 529 C328 536 297 540 261 540 C98 540 28 471 28 315 L28 208 C28 127 46 69 86 33 L27 -75 L125 -75 Z M381 215 C381 106 350 71 261 71 C239 71 222 72 208 78 L372 375 C378 349 381 319 381 283 L381 215 Z M141 307 C141 415 172 451 261 451 C280 451 296 448 310 444 L149 151 C143 176 141 206 141 240 L141 307 Z " />
<glyph glyph-name="ugrave" unicode="ù" horiz-adv-x="587" d="M419 163 C419 100 388 75 302 75 C217 75 184 98 184 163 L184 441 L239 452 L239 526 L20 526 L20 452 L69 441 L69 162 C69 34 143 -18 297 -18 C450 -18 518 34 518 162 L518 441 L567 452 L567 526 L363 526 L363 452 L419 441 L419 163 Z M365 580 L274 766 L162 766 L292 580 L365 580 Z " />
<glyph glyph-name="uacute" unicode="ú" horiz-adv-x="587" d="M419 163 C419 100 388 75 302 75 C217 75 184 98 184 163 L184 441 L239 452 L239 526 L20 526 L20 452 L69 441 L69 162 C69 34 143 -18 297 -18 C450 -18 518 34 518 162 L518 441 L567 452 L567 526 L363 526 L363 452 L419 441 L419 163 Z M294 580 L425 766 L314 766 L222 580 L294 580 Z " />
<glyph glyph-name="ucircumflex" unicode="û" horiz-adv-x="587" d="M419 163 C419 100 388 75 302 75 C217 75 184 98 184 163 L184 441 L239 452 L239 526 L20 526 L20 452 L69 441 L69 162 C69 34 143 -18 297 -18 C450 -18 518 34 518 162 L518 441 L567 452 L567 526 L363 526 L363 452 L419 441 L419 163 Z M488 579 L338 755 L249 755 L98 579 L186 579 L293 703 L400 579 L488 579 Z " />
<glyph glyph-name="udieresis" unicode="ü" horiz-adv-x="587" d="M419 163 C419 100 388 75 302 75 C217 75 184 98 184 163 L184 441 L239 452 L239 526 L20 526 L20 452 L69 441 L69 162 C69 34 143 -18 297 -18 C450 -18 518 34 518 162 L518 441 L567 452 L567 526 L363 526 L363 452 L419 441 L419 163 Z M235 590 L235 719 L120 719 L120 590 L235 590 Z M466 590 L466 719 L351 719 L351 590 L466 590 Z " />
<glyph glyph-name="yacute" unicode="ý" horiz-adv-x="568" d="M122 -138 C82 -138 60 -127 39 -107 L9 -191 C36 -222 76 -238 131 -238 C240 -238 282 -160 329 -31 L502 443 L552 451 L552 526 L359 526 L359 451 L408 443 L294 102 L185 443 L235 451 L235 526 L14 526 L14 451 L65 443 L229 -18 L217 -50 C192 -114 167 -138 122 -138 L122 -138 Z M294 580 L425 766 L314 766 L222 580 L294 580 Z " />
<glyph glyph-name="thorn" unicode="þ" horiz-adv-x="564" d="M244 -228 L244 -155 L175 -143 L175 48 C216 2 284 -17 346 -17 C485 -17 534 51 534 214 L534 315 C534 468 485 540 362 540 C287 540 222 515 175 461 L175 719 L1 719 L1 645 L60 634 L60 -143 L1 -155 L1 -228 L244 -228 Z M420 213 C420 115 392 72 304 72 C257 72 205 91 175 125 L175 376 C207 423 258 448 317 448 C392 448 420 404 420 302 L420 213 Z " />
<glyph glyph-name="ydieresis" unicode="ÿ" horiz-adv-x="568" d="M122 -138 C82 -138 60 -127 39 -107 L9 -191 C36 -222 76 -238 131 -238 C240 -238 282 -160 329 -31 L502 443 L552 451 L552 526 L359 526 L359 451 L408 443 L294 102 L185 443 L235 451 L235 526 L14 526 L14 451 L65 443 L229 -18 L217 -50 C192 -114 167 -138 122 -138 L122 -138 Z M236 590 L236 719 L121 719 L121 590 L236 590 Z M467 590 L467 719 L352 719 L352 590 L467 590 Z " />
<glyph glyph-name="Amacron" unicode="Ā" horiz-adv-x="637" d="M618 0 L618 73 L563 84 L407 710 L239 710 L73 84 L19 73 L19 0 L224 0 L224 73 L168 84 L206 233 L396 233 L432 84 L376 73 L376 0 L618 0 Z M380 308 L224 308 L305 616 L380 308 Z M495 777 L495 855 L156 855 L156 777 L495 777 Z " />
<glyph glyph-name="amacron" unicode="ā" horiz-adv-x="545" d="M525 69 C518 58 510 54 498 54 C480 54 467 64 467 92 L467 379 C467 496 412 540 268 540 C191 540 112 528 49 485 L84 403 C135 437 193 448 250 448 C320 448 357 428 357 367 L357 292 C312 309 253 325 174 325 C70 325 22 278 22 184 L22 139 C22 47 67 -18 180 -18 C271 -18 338 21 367 76 C373 9 406 -17 462 -17 C493 -17 516 -8 530 8 L525 69 Z M357 131 C325 94 278 64 215 64 C154 64 134 94 134 148 L134 174 C134 230 157 257 217 257 C278 257 327 244 357 232 L357 131 Z M442 593 L442 671 L103 671 L103 593 L442 593 Z " />
<glyph glyph-name="Abreve" unicode="Ă" horiz-adv-x="637" d="M618 0 L618 73 L563 84 L407 710 L239 710 L73 84 L19 73 L19 0 L224 0 L224 73 L168 84 L206 233 L396 233 L432 84 L376 73 L376 0 L618 0 Z M380 308 L224 308 L305 616 L380 308 Z M421 935 C419 863 380 825 322 825 C264 825 223 863 221 935 L151 935 C151 816 228 758 322 758 C416 758 492 816 492 935 L421 935 Z " />
<glyph glyph-name="abreve" unicode="ă" horiz-adv-x="545" d="M525 69 C518 58 510 54 498 54 C480 54 467 64 467 92 L467 379 C467 496 412 540 268 540 C191 540 112 528 49 485 L84 403 C135 437 193 448 250 448 C320 448 357 428 357 367 L357 292 C312 309 253 325 174 325 C70 325 22 278 22 184 L22 139 C22 47 67 -18 180 -18 C271 -18 338 21 367 76 C373 9 406 -17 462 -17 C493 -17 516 -8 530 8 L525 69 Z M357 131 C325 94 278 64 215 64 C154 64 134 94 134 148 L134 174 C134 230 157 257 217 257 C278 257 327 244 357 232 L357 131 Z M372 751 C370 679 331 641 273 641 C215 641 174 679 172 751 L102 751 C102 632 179 574 273 574 C367 574 443 632 443 751 L372 751 Z " />
<glyph glyph-name="Aogonek" unicode="Ą" horiz-adv-x="637" d="M557 -134 C538 -140 518 -144 492 -144 C433 -144 419 -123 419 -97 C419 -42 516 -19 570 0 L618 0 L618 73 L563 84 L407 710 L239 710 L73 84 L19 73 L19 0 L224 0 L224 73 L168 84 L206 233 L396 233 L432 84 L376 73 L376 0 L508 0 C381 -26 324 -65 324 -135 C324 -210 394 -240 482 -240 C529 -240 571 -230 593 -215 L557 -134 Z M380 308 L224 308 L305 616 L380 308 Z " />
<glyph glyph-name="aogonek" unicode="ą" horiz-adv-x="545" d="M507 -134 C488 -140 468 -144 442 -144 C383 -144 369 -123 369 -97 C369 -57 418 -27 468 -17 C496 -12 517 -7 530 8 L525 69 C518 58 510 54 498 54 C480 54 467 64 467 92 L467 379 C467 496 412 540 268 540 C191 540 112 528 49 485 L84 403 C135 437 193 448 250 448 C320 448 357 428 357 367 L357 292 C312 309 253 325 174 325 C70 325 22 278 22 184 L22 139 C22 47 67 -18 180 -18 C271 -18 338 21 367 76 C371 29 388 2 417 -9 C319 -35 274 -73 274 -135 C274 -210 344 -240 432 -240 C479 -240 521 -230 543 -215 L507 -134 Z M357 131 C325 94 278 64 215 64 C154 64 134 94 134 148 L134 174 C134 230 157 257 217 257 C278 257 327 244 357 232 L357 131 Z " />
<glyph glyph-name="Cacute" unicode="Ć" horiz-adv-x="555" d="M527 198 L434 198 L425 112 C397 81 354 71 312 71 C195 71 159 130 159 281 L159 428 C159 577 197 638 312 638 C354 638 398 627 423 598 L432 512 L525 512 L525 661 C481 708 397 728 322 728 C112 728 31 655 31 428 L31 282 C31 55 112 -18 322 -18 C397 -18 473 0 527 54 L527 198 Z M288 764 L419 950 L308 950 L216 764 L288 764 Z " />
<glyph glyph-name="cacute" unicode="ć" horiz-adv-x="482" d="M418 162 C388 105 333 79 274 79 C181 79 141 130 141 215 L141 320 C141 406 178 454 259 454 C294 454 329 445 352 420 L360 341 L447 341 L447 474 C398 525 328 540 253 540 C95 540 28 451 28 323 L28 208 C28 65 105 -18 265 -18 C349 -18 420 19 463 95 L418 162 Z M251 580 L382 766 L271 766 L179 580 L251 580 Z " />
<glyph glyph-name="Ccircumflex" unicode="Ĉ" horiz-adv-x="555" d="M527 198 L434 198 L425 112 C397 81 354 71 312 71 C195 71 159 130 159 281 L159 428 C159 577 197 638 312 638 C354 638 398 627 423 598 L432 512 L525 512 L525 661 C481 708 397 728 322 728 C112 728 31 655 31 428 L31 282 C31 55 112 -18 322 -18 C397 -18 473 0 527 54 L527 198 Z M487 763 L337 939 L248 939 L97 763 L185 763 L292 887 L399 763 L487 763 Z " />
<glyph glyph-name="ccircumflex" unicode="ĉ" horiz-adv-x="482" d="M418 162 C388 105 333 79 274 79 C181 79 141 130 141 215 L141 320 C141 406 178 454 259 454 C294 454 329 445 352 420 L360 341 L447 341 L447 474 C398 525 328 540 253 540 C95 540 28 451 28 323 L28 208 C28 65 105 -18 265 -18 C349 -18 420 19 463 95 L418 162 Z M446 579 L296 755 L207 755 L56 579 L144 579 L251 703 L358 579 L446 579 Z " />
<glyph glyph-name="Cdotaccent" unicode="Ċ" horiz-adv-x="555" d="M527 198 L434 198 L425 112 C397 81 354 71 312 71 C195 71 159 130 159 281 L159 428 C159 577 197 638 312 638 C354 638 398 627 423 598 L432 512 L525 512 L525 661 C481 708 397 728 322 728 C112 728 31 655 31 428 L31 282 C31 55 112 -18 322 -18 C397 -18 473 0 527 54 L527 198 Z M350 774 L350 903 L235 903 L235 774 L350 774 Z " />
<glyph glyph-name="cdotaccent" unicode="ċ" horiz-adv-x="482" d="M418 162 C388 105 333 79 274 79 C181 79 141 130 141 215 L141 320 C141 406 178 454 259 454 C294 454 329 445 352 420 L360 341 L447 341 L447 474 C398 525 328 540 253 540 C95 540 28 451 28 323 L28 208 C28 65 105 -18 265 -18 C349 -18 420 19 463 95 L418 162 Z M306 590 L306 719 L191 719 L191 590 L306 590 Z " />
<glyph glyph-name="Ccaron" unicode="Č" horiz-adv-x="555" d="M527 198 L434 198 L425 112 C397 81 354 71 312 71 C195 71 159 130 159 281 L159 428 C159 577 197 638 312 638 C354 638 398 627 423 598 L432 512 L525 512 L525 661 C481 708 397 728 322 728 C112 728 31 655 31 428 L31 282 C31 55 112 -18 322 -18 C397 -18 473 0 527 54 L527 198 Z M337 763 L488 939 L399 939 L292 815 L186 939 L97 939 L248 763 L337 763 Z " />
<glyph glyph-name="ccaron" unicode="č" horiz-adv-x="482" d="M418 162 C388 105 333 79 274 79 C181 79 141 130 141 215 L141 320 C141 406 178 454 259 454 C294 454 329 445 352 420 L360 341 L447 341 L447 474 C398 525 328 540 253 540 C95 540 28 451 28 323 L28 208 C28 65 105 -18 265 -18 C349 -18 420 19 463 95 L418 162 Z M295 579 L446 755 L357 755 L250 631 L144 755 L55 755 L206 579 L295 579 Z " />
<glyph glyph-name="Dcaron" unicode="Ď" horiz-adv-x="618" d="M337 0 C515 0 586 74 586 269 L586 441 C586 636 515 710 337 710 L32 710 L32 636 L90 625 L90 85 L32 73 L32 0 L337 0 Z M460 265 C460 131 421 88 337 88 L216 88 L216 621 L337 621 C423 621 460 576 460 445 L460 265 Z M343 763 L494 939 L405 939 L298 815 L192 939 L103 939 L254 763 L343 763 Z " />
<glyph glyph-name="dcaron" unicode="ď" horiz-adv-x="705" d="M561 0 L561 74 L502 85 L502 719 L328 719 L328 645 L387 634 L387 476 C346 522 277 541 216 541 C76 541 28 473 28 310 L28 208 C28 55 77 -16 199 -16 C274 -16 340 8 394 69 L398 0 L561 0 Z M387 150 C355 102 303 78 245 78 C170 78 142 120 142 223 L142 307 C142 405 170 449 257 449 C305 449 357 430 387 396 L387 150 Z M598 424 C634 459 666 506 680 551 L680 719 L555 719 L555 557 L623 557 C610 521 585 489 561 463 L598 424 Z " />
<glyph glyph-name="Dcroat" unicode="Đ" horiz-adv-x="618" d="M337 0 C515 0 586 74 586 269 L586 441 C586 636 515 710 337 710 L32 710 L32 636 L90 625 L90 410 L32 410 L32 327 L90 327 L90 85 L32 73 L32 0 L337 0 Z M460 265 C460 133 423 88 337 88 L216 88 L216 327 L339 327 L339 410 L216 410 L216 621 L337 621 C423 621 460 574 460 432 L460 265 Z " />
<glyph glyph-name="dcroat" unicode="đ" horiz-adv-x="585" d="M571 583 L571 661 L502 661 L502 719 L387 719 L387 661 L232 661 L232 583 L387 583 L387 476 C346 522 277 541 216 541 C76 541 28 473 28 310 L28 208 C28 55 77 -16 199 -16 C274 -16 340 8 394 69 L398 0 L561 0 L561 74 L502 85 L502 583 L571 583 Z M387 150 C355 102 303 78 245 78 C170 78 142 120 142 223 L142 307 C142 405 170 449 257 449 C305 449 357 430 387 396 L387 150 Z " />
<glyph glyph-name="Emacron" unicode="Ē" horiz-adv-x="568" d="M532 0 L532 219 L458 219 L440 94 L214 94 L214 327 L397 327 L411 263 L474 263 L474 474 L411 474 L397 410 L214 410 L214 620 L438 620 L452 513 L526 513 L526 710 L32 710 L32 636 L90 625 L90 85 L32 73 L32 0 L532 0 Z M453 777 L453 855 L114 855 L114 777 L453 777 Z " />
<glyph glyph-name="emacron" unicode="ē" horiz-adv-x="505" d="M475 230 L475 290 C475 454 437 540 255 540 C88 540 29 461 29 298 L29 220 C29 82 100 -18 267 -18 C376 -18 439 16 470 71 L429 139 C396 96 358 73 282 73 C180 73 140 121 140 230 L475 230 Z M140 304 C140 400 158 460 257 460 C358 460 370 398 370 304 L140 304 Z M422 593 L422 671 L83 671 L83 593 L422 593 Z " />
<glyph glyph-name="Ebreve" unicode="Ĕ" horiz-adv-x="568" d="M532 0 L532 219 L458 219 L440 94 L214 94 L214 327 L397 327 L411 263 L474 263 L474 474 L411 474 L397 410 L214 410 L214 620 L438 620 L452 513 L526 513 L526 710 L32 710 L32 636 L90 625 L90 85 L32 73 L32 0 L532 0 Z M393 935 C391 863 352 825 294 825 C236 825 195 863 193 935 L123 935 C123 816 200 758 294 758 C388 758 464 816 464 935 L393 935 Z " />
<glyph glyph-name="ebreve" unicode="ĕ" horiz-adv-x="505" d="M475 230 L475 290 C475 454 437 540 255 540 C88 540 29 461 29 298 L29 220 C29 82 100 -18 267 -18 C376 -18 439 16 470 71 L429 139 C396 96 358 73 282 73 C180 73 140 121 140 230 L475 230 Z M140 304 C140 400 158 460 257 460 C358 460 370 398 370 304 L140 304 Z M352 751 C350 679 311 641 253 641 C195 641 154 679 152 751 L82 751 C82 632 159 574 253 574 C347 574 423 632 423 751 L352 751 Z " />
<glyph glyph-name="Edotaccent" unicode="Ė" horiz-adv-x="568" d="M532 0 L532 219 L458 219 L440 94 L214 94 L214 327 L397 327 L411 263 L474 263 L474 474 L411 474 L397 410 L214 410 L214 620 L438 620 L452 513 L526 513 L526 710 L32 710 L32 636 L90 625 L90 85 L32 73 L32 0 L532 0 Z M356 774 L356 903 L241 903 L241 774 L356 774 Z " />
<glyph glyph-name="edotaccent" unicode="ė" horiz-adv-x="505" d="M475 230 L475 290 C475 454 437 540 255 540 C88 540 29 461 29 298 L29 220 C29 82 100 -18 267 -18 C376 -18 439 16 470 71 L429 139 C396 96 358 73 282 73 C180 73 140 121 140 230 L475 230 Z M140 304 C140 400 158 460 257 460 C358 460 370 398 370 304 L140 304 Z M310 590 L310 719 L195 719 L195 590 L310 590 Z " />
<glyph glyph-name="Eogonek" unicode="Ę" horiz-adv-x="568" d="M519 -134 C500 -140 480 -144 454 -144 C395 -144 381 -123 381 -97 C381 -42 478 -19 532 0 L532 219 L458 219 L440 94 L214 94 L214 327 L397 327 L411 263 L474 263 L474 474 L411 474 L397 410 L214 410 L214 620 L438 620 L452 513 L526 513 L526 710 L32 710 L32 636 L90 625 L90 85 L32 73 L32 0 L470 0 C343 -26 286 -65 286 -135 C286 -210 356 -240 444 -240 C491 -240 533 -230 555 -215 L519 -134 Z " />
<glyph glyph-name="eogonek" unicode="ę" horiz-adv-x="505" d="M371 -134 C352 -140 332 -144 306 -144 C247 -144 233 -123 233 -97 C233 -42 330 -20 384 0 C424 15 452 39 470 71 L429 139 C396 96 358 73 282 73 C180 73 140 121 140 230 L475 230 L475 290 C475 454 437 540 255 540 C88 540 29 461 29 298 L29 220 C29 86 95 -12 252 -18 C174 -43 138 -79 138 -135 C138 -210 208 -240 296 -240 C343 -240 385 -230 407 -215 L371 -134 Z M140 304 C140 400 158 460 257 460 C358 460 370 398 370 304 L140 304 Z " />
<glyph glyph-name="Ecaron" unicode="Ě" horiz-adv-x="568" d="M532 0 L532 219 L458 219 L440 94 L214 94 L214 327 L397 327 L411 263 L474 263 L474 474 L411 474 L397 410 L214 410 L214 620 L438 620 L452 513 L526 513 L526 710 L32 710 L32 636 L90 625 L90 85 L32 73 L32 0 L532 0 Z M338 763 L489 939 L400 939 L293 815 L187 939 L98 939 L249 763 L338 763 Z " />
<glyph glyph-name="ecaron" unicode="ě" horiz-adv-x="505" d="M475 230 L475 290 C475 454 437 540 255 540 C88 540 29 461 29 298 L29 220 C29 82 100 -18 267 -18 C376 -18 439 16 470 71 L429 139 C396 96 358 73 282 73 C180 73 140 121 140 230 L475 230 Z M140 304 C140 400 158 460 257 460 C358 460 370 398 370 304 L140 304 Z M297 579 L448 755 L359 755 L252 631 L146 755 L57 755 L208 579 L297 579 Z " />
<glyph glyph-name="Gcircumflex" unicode="Ĝ" horiz-adv-x="579" d="M428 113 C413 95 372 76 301 76 C193 76 158 143 158 272 L158 428 C158 583 201 638 310 638 C356 638 406 628 431 598 L440 512 L533 512 L533 661 C489 708 400 728 308 728 C115 728 32 652 32 428 L32 272 C32 68 105 -18 302 -18 C436 -18 524 33 547 58 L547 387 L317 387 L317 318 L428 307 L428 113 Z M491 763 L341 939 L252 939 L101 763 L189 763 L296 887 L403 763 L491 763 Z " />
<glyph glyph-name="gcircumflex" unicode="ĝ" horiz-adv-x="530" d="M384 1 C384 -101 349 -144 247 -144 C193 -144 136 -131 91 -97 L60 -174 C114 -227 192 -240 266 -240 C415 -240 498 -179 498 -14 L498 526 L427 526 L404 461 C365 512 295 538 214 538 C69 538 28 464 28 310 L28 240 C28 93 69 15 201 15 C273 15 339 40 384 95 L384 1 Z M384 177 C352 130 300 105 241 105 C163 105 140 153 140 240 L140 309 C140 397 162 450 254 450 C300 450 357 430 384 398 L384 177 Z M460 579 L310 755 L221 755 L70 579 L158 579 L265 703 L372 579 L460 579 Z " />
<glyph glyph-name="Gbreve" unicode="Ğ" horiz-adv-x="579" d="M428 113 C413 95 372 76 301 76 C193 76 158 143 158 272 L158 428 C158 583 201 638 310 638 C356 638 406 628 431 598 L440 512 L533 512 L533 661 C489 708 400 728 308 728 C115 728 32 652 32 428 L32 272 C32 68 105 -18 302 -18 C436 -18 524 33 547 58 L547 387 L317 387 L317 318 L428 307 L428 113 Z M389 935 C387 863 348 825 290 825 C232 825 191 863 189 935 L119 935 C119 816 196 758 290 758 C384 758 460 816 460 935 L389 935 Z " />
<glyph glyph-name="gbreve" unicode="ğ" horiz-adv-x="530" d="M384 1 C384 -101 349 -144 247 -144 C193 -144 136 -131 91 -97 L60 -174 C114 -227 192 -240 266 -240 C415 -240 498 -179 498 -14 L498 526 L427 526 L404 461 C365 512 295 538 214 538 C69 538 28 464 28 310 L28 240 C28 93 69 15 201 15 C273 15 339 40 384 95 L384 1 Z M384 177 C352 130 300 105 241 105 C163 105 140 153 140 240 L140 309 C140 397 162 450 254 450 C300 450 357 430 384 398 L384 177 Z M364 751 C362 679 323 641 265 641 C207 641 166 679 164 751 L94 751 C94 632 171 574 265 574 C359 574 435 632 435 751 L364 751 Z " />
<glyph glyph-name="Gdotaccent" unicode="Ġ" horiz-adv-x="579" d="M428 113 C413 95 372 76 301 76 C193 76 158 143 158 272 L158 428 C158 583 201 638 310 638 C356 638 406 628 431 598 L440 512 L533 512 L533 661 C489 708 400 728 308 728 C115 728 32 652 32 428 L32 272 C32 68 105 -18 302 -18 C436 -18 524 33 547 58 L547 387 L317 387 L317 318 L428 307 L428 113 Z M357 774 L357 903 L242 903 L242 774 L357 774 Z " />
<glyph glyph-name="gdotaccent" unicode="ġ" horiz-adv-x="530" d="M384 1 C384 -101 349 -144 247 -144 C193 -144 136 -131 91 -97 L60 -174 C114 -227 192 -240 266 -240 C415 -240 498 -179 498 -14 L498 526 L427 526 L404 461 C365 512 295 538 214 538 C69 538 28 464 28 310 L28 240 C28 93 69 15 201 15 C273 15 339 40 384 95 L384 1 Z M384 177 C352 130 300 105 241 105 C163 105 140 153 140 240 L140 309 C140 397 162 450 254 450 C300 450 357 430 384 398 L384 177 Z M322 590 L322 719 L207 719 L207 590 L322 590 Z " />
<glyph glyph-name="Gcommaaccent" unicode="Ģ" horiz-adv-x="579" d="M428 113 C413 95 372 76 301 76 C193 76 158 143 158 272 L158 428 C158 583 201 638 310 638 C356 638 406 628 431 598 L440 512 L533 512 L533 661 C489 708 400 728 308 728 C115 728 32 652 32 428 L32 272 C32 68 105 -18 302 -18 C436 -18 524 33 547 58 L547 387 L317 387 L317 318 L428 307 L428 113 Z M294 -240 C327 -209 355 -168 360 -129 L360 -31 L259 -31 L259 -134 L308 -134 C298 -162 280 -189 259 -210 L294 -240 Z " />
<glyph glyph-name="gcommaaccent" unicode="ģ" horiz-adv-x="530" d="M384 1 C384 -101 349 -144 247 -144 C193 -144 136 -131 91 -97 L60 -174 C114 -227 192 -240 266 -240 C415 -240 498 -179 498 -14 L498 526 L427 526 L404 461 C365 512 295 538 214 538 C69 538 28 464 28 310 L28 240 C28 93 69 15 201 15 C273 15 339 40 384 95 L384 1 Z M384 177 C352 130 300 105 241 105 C163 105 140 153 140 240 L140 309 C140 397 162 450 254 450 C300 450 357 430 384 398 L384 177 Z M270 783 C237 752 209 711 204 672 L204 574 L305 574 L305 677 L256 677 C266 705 284 732 305 753 L270 783 Z " />
<glyph glyph-name="Hcircumflex" unicode="Ĥ" horiz-adv-x="661" d="M629 0 L629 73 L570 85 L570 625 L629 636 L629 710 L392 710 L392 636 L448 625 L448 403 L213 403 L213 625 L268 636 L268 710 L32 710 L32 636 L90 625 L90 85 L32 73 L32 0 L268 0 L268 73 L213 85 L213 315 L448 315 L448 85 L392 73 L392 0 L629 0 Z M525 763 L375 939 L286 939 L135 763 L223 763 L330 887 L437 763 L525 763 Z " />
<glyph glyph-name="hcircumflex" unicode="ĥ" horiz-adv-x="643" d="M619 0 L619 74 L561 85 L561 398 C561 494 510 540 407 540 C326 540 256 522 200 467 L200 719 L26 719 L26 645 L84 634 L84 85 L26 74 L26 0 L257 0 L257 74 L200 85 L200 382 C242 432 297 447 360 447 C414 447 445 427 445 374 L445 85 L388 74 L388 0 L619 0 Z M416 763 L266 939 L177 939 L26 763 L114 763 L221 887 L328 763 L416 763 Z " />
<glyph glyph-name="Hbar" unicode="Ħ" horiz-adv-x="661" d="M629 0 L629 73 L570 85 L570 625 L629 636 L629 710 L392 710 L392 636 L448 625 L448 555 L213 555 L213 625 L268 636 L268 710 L32 710 L32 636 L90 625 L90 85 L32 73 L32 0 L268 0 L268 73 L213 85 L213 315 L448 315 L448 85 L392 73 L392 0 L629 0 Z M213 403 L213 477 L448 477 L448 403 L213 403 Z " />
<glyph glyph-name="hbar" unicode="ħ" horiz-adv-x="643" d="M355 583 L355 661 L200 661 L200 719 L84 719 L84 661 L16 661 L16 583 L84 583 L84 85 L26 74 L26 0 L257 0 L257 74 L200 85 L200 382 C242 432 297 447 360 447 C414 447 445 427 445 374 L445 85 L388 74 L388 0 L619 0 L619 74 L561 85 L561 398 C561 494 510 540 407 540 C326 540 256 522 200 467 L200 583 L355 583 Z " />
<glyph glyph-name="Itilde" unicode="Ĩ" horiz-adv-x="306" d="M274 0 L274 73 L216 85 L216 625 L274 636 L274 710 L32 710 L32 636 L90 625 L90 85 L32 73 L32 0 L274 0 Z M327 885 C299 852 271 835 234 835 C178 835 136 885 70 885 C27 885 -1 864 -21 840 L-21 764 C6 798 34 815 72 815 C124 815 167 764 236 764 C278 764 307 786 327 810 L327 885 Z " />
<glyph glyph-name="itilde" unicode="ĩ" horiz-adv-x="325" d="M278 0 L278 74 L220 85 L220 526 L46 526 L46 452 L104 441 L104 85 L46 74 L46 0 L278 0 Z M335 701 C307 668 279 651 242 651 C186 651 144 701 78 701 C35 701 7 680 -13 656 L-13 580 C14 614 42 631 80 631 C132 631 175 580 244 580 C286 580 315 602 335 626 L335 701 Z " />
<glyph glyph-name="uni012A" unicode="Ī" horiz-adv-x="306" d="M274 0 L274 73 L216 85 L216 625 L274 636 L274 710 L32 710 L32 636 L90 625 L90 85 L32 73 L32 0 L274 0 Z M323 777 L323 855 L-16 855 L-16 777 L323 777 Z " />
<glyph glyph-name="imacron" unicode="ī" horiz-adv-x="321" d="M278 0 L278 74 L220 85 L220 526 L46 526 L46 452 L104 441 L104 85 L46 74 L46 0 L278 0 Z M331 593 L331 671 L-8 671 L-8 593 L331 593 Z " />
<glyph glyph-name="Ibreve" unicode="Ĭ" horiz-adv-x="306" d="M274 0 L274 73 L216 85 L216 625 L274 636 L274 710 L32 710 L32 636 L90 625 L90 85 L32 73 L32 0 L274 0 Z M253 935 C251 863 212 825 154 825 C96 825 55 863 53 935 L-17 935 C-17 816 60 758 154 758 C248 758 324 816 324 935 L253 935 Z " />
<glyph glyph-name="ibreve" unicode="ĭ" horiz-adv-x="306" d="M269 0 L269 74 L211 85 L211 526 L37 526 L37 452 L95 441 L95 85 L37 74 L37 0 L269 0 Z M252 751 C250 679 211 641 153 641 C95 641 54 679 52 751 L-18 751 C-18 632 59 574 153 574 C247 574 323 632 323 751 L252 751 Z " />
<glyph glyph-name="Iogonek" unicode="Į" horiz-adv-x="306" d="M203 -134 C184 -140 164 -144 138 -144 C79 -144 65 -123 65 -97 C65 -42 162 -19 216 0 L274 0 L274 73 L216 85 L216 625 L274 636 L274 710 L32 710 L32 636 L90 625 L90 85 L32 73 L32 0 L154 0 C27 -26 -30 -65 -30 -135 C-30 -210 40 -240 128 -240 C175 -240 217 -230 239 -215 L203 -134 Z " />
<glyph glyph-name="iogonek" unicode="į" horiz-adv-x="282" d="M203 -134 C184 -140 164 -144 138 -144 C79 -144 65 -123 65 -97 C65 -42 162 -19 216 0 L258 0 L258 74 L200 85 L200 526 L26 526 L26 452 L84 441 L84 85 L26 74 L26 0 L154 0 C27 -26 -30 -65 -30 -135 C-30 -210 40 -240 128 -240 C175 -240 217 -230 239 -215 L203 -134 Z M199 590 L199 719 L84 719 L84 590 L199 590 Z " />
<glyph glyph-name="Idotaccent" unicode="İ" horiz-adv-x="306" d="M274 0 L274 73 L216 85 L216 625 L274 636 L274 710 L32 710 L32 636 L90 625 L90 85 L32 73 L32 0 L274 0 Z M210 774 L210 903 L95 903 L95 774 L210 774 Z " />
<glyph glyph-name="dotlessi" unicode="ı" horiz-adv-x="282" d="M258 0 L258 74 L200 85 L200 526 L26 526 L26 452 L84 441 L84 85 L26 74 L26 0 L258 0 Z " />
<glyph glyph-name="IJ" unicode="Ĳ" horiz-adv-x="637" d="M274 0 L274 73 L216 85 L216 625 L274 636 L274 710 L32 710 L32 636 L90 625 L90 85 L32 73 L32 0 L274 0 Z M244 -152 C267 -182 306 -206 367 -206 C505 -206 552 -114 552 40 L552 625 L605 635 L605 710 L362 710 L362 635 L428 625 L428 36 C428 -41 412 -107 329 -107 C297 -107 273 -95 252 -74 L244 -152 Z " />
<glyph glyph-name="ij" unicode="ĳ" horiz-adv-x="520" d="M258 0 L258 74 L200 85 L200 526 L26 526 L26 452 L84 441 L84 85 L26 74 L26 0 L258 0 Z M199 590 L199 719 L84 719 L84 590 L199 590 Z M202 -191 C226 -222 265 -240 319 -240 C434 -240 477 -158 477 -21 L477 526 L299 526 L299 451 L361 441 L361 -21 C361 -85 348 -146 277 -146 C250 -146 231 -139 212 -120 L202 -191 Z M476 590 L476 719 L360 719 L360 590 L476 590 Z " />
<glyph glyph-name="Jcircumflex" unicode="Ĵ" horiz-adv-x="331" d="M-62 -152 C-39 -182 0 -206 61 -206 C199 -206 246 -114 246 40 L246 625 L299 635 L299 710 L56 710 L56 635 L122 625 L122 36 C122 -41 106 -107 23 -107 C-9 -107 -33 -95 -54 -74 L-62 -152 Z M361 763 L211 939 L122 939 L-29 763 L59 763 L166 887 L273 763 L361 763 Z " />
<glyph glyph-name="jcircumflex" unicode="ĵ" horiz-adv-x="305" d="M-43 -191 C-19 -222 20 -240 74 -240 C189 -240 232 -158 232 -21 L232 526 L54 526 L54 451 L116 441 L116 -21 C116 -85 103 -146 32 -146 C5 -146 -14 -139 -33 -120 L-43 -191 Z M331 579 L181 755 L92 755 L-59 579 L29 579 L136 703 L243 579 L331 579 Z " />
<glyph glyph-name="Kcommaaccent" unicode="Ķ" horiz-adv-x="641" d="M620 0 L620 67 L558 85 L324 413 L530 621 L598 636 L598 710 L380 710 L380 636 L433 625 L214 400 L214 625 L269 636 L269 710 L32 710 L32 636 L90 625 L90 85 L32 74 L32 0 L269 0 L269 74 L214 85 L214 372 L464 0 L620 0 Z M335 -240 C368 -209 396 -168 401 -129 L401 -31 L300 -31 L300 -134 L349 -134 C339 -162 321 -189 300 -210 L335 -240 Z " />
<glyph glyph-name="kcommaaccent" unicode="ķ" horiz-adv-x="562" d="M549 0 L549 74 L487 85 L306 295 L460 442 L521 452 L521 526 L316 526 L316 452 L371 442 L200 268 L200 719 L26 719 L26 645 L84 634 L84 85 L26 74 L26 0 L247 0 L247 74 L200 85 L200 245 L397 0 L549 0 Z M295 -240 C328 -209 356 -168 361 -129 L361 -31 L260 -31 L260 -134 L309 -134 C299 -162 281 -189 260 -210 L295 -240 Z " />
<glyph glyph-name="Lacute" unicode="Ĺ" horiz-adv-x="536" d="M506 0 L506 280 L429 280 L416 97 L216 97 L216 625 L277 636 L277 710 L32 710 L32 636 L90 625 L90 85 L32 75 L32 0 L506 0 Z M158 764 L289 950 L178 950 L86 764 L158 764 Z " />
<glyph glyph-name="lacute" unicode="ĺ" horiz-adv-x="282" d="M258 0 L258 74 L200 85 L200 719 L26 719 L26 645 L84 634 L84 85 L26 74 L26 0 L258 0 Z M141 764 L272 950 L161 950 L69 764 L141 764 Z " />
<glyph glyph-name="Lcommaaccent" unicode="Ļ" horiz-adv-x="536" d="M506 0 L506 280 L429 280 L416 97 L216 97 L216 625 L277 636 L277 710 L32 710 L32 636 L90 625 L90 85 L32 75 L32 0 L506 0 Z M272 -240 C305 -209 333 -168 338 -129 L338 -31 L237 -31 L237 -134 L286 -134 C276 -162 258 -189 237 -210 L272 -240 Z " />
<glyph glyph-name="lcommaaccent" unicode="ļ" horiz-adv-x="282" d="M258 0 L258 74 L200 85 L200 719 L26 719 L26 645 L84 634 L84 85 L26 74 L26 0 L258 0 Z M129 -240 C162 -209 190 -168 195 -129 L195 -31 L94 -31 L94 -134 L143 -134 C133 -162 115 -189 94 -210 L129 -240 Z " />
<glyph glyph-name="Lcaron" unicode="Ľ" horiz-adv-x="536" d="M506 0 L506 280 L429 280 L416 97 L216 97 L216 625 L277 636 L277 710 L32 710 L32 636 L90 625 L90 85 L32 75 L32 0 L506 0 Z M346 424 C382 459 414 506 428 551 L428 719 L303 719 L303 557 L371 557 C358 521 333 489 309 463 L346 424 Z " />
<glyph glyph-name="lcaron" unicode="ľ" horiz-adv-x="378" d="M258 0 L258 74 L200 85 L200 719 L26 719 L26 645 L84 634 L84 85 L26 74 L26 0 L258 0 Z M296 424 C332 459 364 506 378 551 L378 719 L253 719 L253 557 L321 557 C308 521 283 489 259 463 L296 424 Z " />
<glyph glyph-name="Ldot" unicode="Ŀ" horiz-adv-x="536" d="M506 0 L506 280 L429 280 L416 97 L216 97 L216 625 L277 636 L277 710 L32 710 L32 636 L90 625 L90 85 L32 75 L32 0 L506 0 Z M382 311 L382 440 L267 440 L267 311 L382 311 Z " />
<glyph glyph-name="ldot" unicode="ŀ" horiz-adv-x="367" d="M258 0 L258 74 L200 85 L200 719 L26 719 L26 645 L84 634 L84 85 L26 74 L26 0 L258 0 Z M367 290 L367 419 L252 419 L252 290 L367 290 Z " />
<glyph glyph-name="Lslash" unicode="Ł" horiz-adv-x="536" d="M506 0 L506 280 L439 280 L427 97 L216 97 L216 306 L407 415 L407 496 L216 389 L216 625 L277 636 L277 710 L32 710 L32 636 L90 625 L90 85 L32 73 L32 0 L506 0 Z " />
<glyph glyph-name="lslash" unicode="ł" horiz-adv-x="294" d="M266 0 L266 73 L207 85 L207 349 L272 382 L272 463 L207 430 L207 719 L33 719 L33 645 L92 634 L92 373 L26 340 L26 260 L92 293 L92 85 L33 73 L33 0 L266 0 Z " />
<glyph glyph-name="Nacute" unicode="Ń" horiz-adv-x="664" d="M581 0 L581 625 L637 636 L637 710 L428 710 L428 636 L483 625 L483 211 L236 710 L32 710 L32 636 L90 625 L90 85 L32 74 L32 0 L252 0 L252 74 L188 85 L188 530 L475 0 L581 0 Z M332 764 L463 950 L352 950 L260 764 L332 764 Z " />
<glyph glyph-name="nacute" unicode="ń" horiz-adv-x="643" d="M619 0 L619 74 L561 85 L561 398 C561 494 510 540 407 540 C311 540 251 516 192 454 L188 526 L26 526 L26 452 L84 441 L84 85 L26 74 L26 0 L257 0 L257 74 L200 85 L200 383 C242 432 297 447 360 447 C414 447 445 427 445 374 L445 85 L388 74 L388 0 L619 0 Z M322 580 L453 766 L342 766 L250 580 L322 580 Z " />
<glyph glyph-name="Ncommaaccent" unicode="Ņ" horiz-adv-x="664" d="M581 0 L581 625 L637 636 L637 710 L428 710 L428 636 L483 625 L483 211 L236 710 L32 710 L32 636 L90 625 L90 85 L32 74 L32 0 L252 0 L252 74 L188 85 L188 530 L475 0 L581 0 Z M331 -240 C364 -209 392 -168 397 -129 L397 -31 L296 -31 L296 -134 L345 -134 C335 -162 317 -189 296 -210 L331 -240 Z " />
<glyph glyph-name="ncommaaccent" unicode="ņ" horiz-adv-x="643" d="M619 0 L619 74 L561 85 L561 398 C561 494 510 540 407 540 C311 540 251 516 192 454 L188 526 L26 526 L26 452 L84 441 L84 85 L26 74 L26 0 L257 0 L257 74 L200 85 L200 383 C242 432 297 447 360 447 C414 447 445 427 445 374 L445 85 L388 74 L388 0 L619 0 Z M311 -240 C344 -209 372 -168 377 -129 L377 -31 L276 -31 L276 -134 L325 -134 C315 -162 297 -189 276 -210 L311 -240 Z " />
<glyph glyph-name="Ncaron" unicode="Ň" horiz-adv-x="664" d="M581 0 L581 625 L637 636 L637 710 L428 710 L428 636 L483 625 L483 211 L236 710 L32 710 L32 636 L90 625 L90 85 L32 74 L32 0 L252 0 L252 74 L188 85 L188 530 L475 0 L581 0 Z M376 763 L527 939 L438 939 L331 815 L225 939 L136 939 L287 763 L376 763 Z " />
<glyph glyph-name="ncaron" unicode="ň" horiz-adv-x="643" d="M619 0 L619 74 L561 85 L561 398 C561 494 510 540 407 540 C311 540 251 516 192 454 L188 526 L26 526 L26 452 L84 441 L84 85 L26 74 L26 0 L257 0 L257 74 L200 85 L200 383 C242 432 297 447 360 447 C414 447 445 427 445 374 L445 85 L388 74 L388 0 L619 0 Z M366 579 L517 755 L428 755 L321 631 L215 755 L126 755 L277 579 L366 579 Z " />
<glyph glyph-name="Eng" unicode="Ŋ" horiz-adv-x="664" d="M308 -191 C332 -222 371 -240 425 -240 C540 -240 581 -158 581 -21 L581 625 L637 636 L637 710 L428 710 L428 636 L483 625 L483 211 L236 710 L32 710 L32 636 L90 625 L90 85 L32 74 L32 0 L252 0 L252 74 L188 85 L188 530 L467 15 L467 -21 C467 -85 454 -146 383 -146 C356 -146 337 -139 318 -120 C314 -144 311 -168 308 -191 L308 -191 Z " />
<glyph glyph-name="eng" unicode="ŋ" horiz-adv-x="643" d="M286 -191 C310 -222 349 -240 403 -240 C518 -240 561 -158 561 -21 L561 398 C561 494 510 540 407 540 C311 540 251 516 192 454 L188 526 L26 526 L26 452 L84 441 L84 85 L26 74 L26 0 L257 0 L257 74 L200 85 L200 383 C242 432 297 447 360 447 C414 447 445 427 445 374 L445 -21 C445 -85 432 -146 361 -146 C334 -146 315 -139 296 -120 C292 -144 289 -168 286 -191 L286 -191 Z " />
<glyph glyph-name="Omacron" unicode="Ō" horiz-adv-x="607" d="M575 426 C575 635 488 728 303 728 C118 728 32 635 32 426 L32 284 C32 75 118 -18 303 -18 C488 -18 575 75 575 284 L575 426 Z M449 284 C449 123 405 73 303 73 C202 73 158 123 158 284 L158 426 C158 584 202 636 303 636 C405 636 449 584 449 426 L449 284 Z M473 777 L473 855 L134 855 L134 777 L473 777 Z " />
<glyph glyph-name="omacron" unicode="ō" horiz-adv-x="522" d="M494 315 C494 471 424 540 261 540 C98 540 28 471 28 315 L28 208 C28 51 98 -18 261 -18 C424 -18 494 51 494 208 L494 315 Z M381 215 C381 106 350 71 261 71 C172 71 141 106 141 215 L141 307 C141 415 172 451 261 451 C350 451 381 415 381 307 L381 215 Z M430 593 L430 671 L91 671 L91 593 L430 593 Z " />
<glyph glyph-name="Obreve" unicode="Ŏ" horiz-adv-x="607" d="M575 426 C575 635 488 728 303 728 C118 728 32 635 32 426 L32 284 C32 75 118 -18 303 -18 C488 -18 575 75 575 284 L575 426 Z M449 284 C449 123 405 73 303 73 C202 73 158 123 158 284 L158 426 C158 584 202 636 303 636 C405 636 449 584 449 426 L449 284 Z M403 935 C401 863 362 825 304 825 C246 825 205 863 203 935 L133 935 C133 816 210 758 304 758 C398 758 474 816 474 935 L403 935 Z " />
<glyph glyph-name="obreve" unicode="ŏ" horiz-adv-x="522" d="M494 315 C494 471 424 540 261 540 C98 540 28 471 28 315 L28 208 C28 51 98 -18 261 -18 C424 -18 494 51 494 208 L494 315 Z M381 215 C381 106 350 71 261 71 C172 71 141 106 141 215 L141 307 C141 415 172 451 261 451 C350 451 381 415 381 307 L381 215 Z M360 751 C358 679 319 641 261 641 C203 641 162 679 160 751 L90 751 C90 632 167 574 261 574 C355 574 431 632 431 751 L360 751 Z " />
<glyph glyph-name="Ohungarumlaut" unicode="Ő" horiz-adv-x="607" d="M575 426 C575 635 488 728 303 728 C118 728 32 635 32 426 L32 284 C32 75 118 -18 303 -18 C488 -18 575 75 575 284 L575 426 Z M449 284 C449 123 405 73 303 73 C202 73 158 123 158 284 L158 426 C158 584 202 636 303 636 C405 636 449 584 449 426 L449 284 Z M208 764 L339 950 L228 950 L136 764 L208 764 Z M401 764 L531 950 L420 950 L328 764 L401 764 Z " />
<glyph glyph-name="ohungarumlaut" unicode="ő" horiz-adv-x="522" d="M494 315 C494 471 424 540 261 540 C98 540 28 471 28 315 L28 208 C28 51 98 -18 261 -18 C424 -18 494 51 494 208 L494 315 Z M381 215 C381 106 350 71 261 71 C172 71 141 106 141 215 L141 307 C141 415 172 451 261 451 C350 451 381 415 381 307 L381 215 Z M165 580 L296 766 L185 766 L93 580 L165 580 Z M358 580 L488 766 L377 766 L285 580 L358 580 Z " />
<glyph glyph-name="OE" unicode="Œ" horiz-adv-x="883" d="M847 0 L847 219 L773 219 L755 94 L539 94 L539 327 L712 327 L725 263 L789 263 L789 474 L725 474 L712 410 L539 410 L539 620 L753 620 L766 513 L841 513 L841 710 L281 710 C103 710 32 636 32 441 L32 269 C32 74 103 0 281 0 L847 0 Z M415 88 L281 88 C201 88 158 133 158 265 L158 445 C158 578 197 621 281 621 L415 621 L415 88 Z " />
<glyph glyph-name="oe" unicode="œ" horiz-adv-x="860" d="M829 230 L829 290 C829 454 792 540 610 540 C519 540 466 512 439 458 C408 512 348 538 255 538 C96 538 27 467 27 315 L27 208 C27 51 98 -18 261 -18 C357 -18 416 9 444 69 C474 15 531 -18 622 -18 C731 -18 794 16 824 71 L784 139 C756 85 715 73 637 73 C536 73 495 137 495 230 L829 230 Z M381 215 C381 106 350 71 261 71 C172 71 140 106 140 215 L140 307 C140 414 172 451 261 451 C350 451 381 414 381 307 L381 215 Z M495 304 C495 401 515 460 611 460 C709 460 725 401 725 304 L495 304 Z " />
<glyph glyph-name="Racute" unicode="Ŕ" horiz-adv-x="641" d="M619 0 L619 74 L562 85 L562 197 C562 316 523 347 461 360 C516 373 552 408 552 509 L552 544 C552 646 505 710 375 710 L32 710 L32 636 L90 625 L90 85 L32 74 L32 0 L271 0 L271 74 L213 85 L213 318 L358 318 C415 318 439 290 439 226 L439 71 C439 20 457 0 506 0 L619 0 Z M435 501 C435 428 408 397 353 397 L213 397 L213 620 L347 620 C411 620 435 582 435 512 L435 501 Z M311 764 L442 950 L331 950 L239 764 L311 764 Z " />
<glyph glyph-name="racute" unicode="ŕ" horiz-adv-x="413" d="M264 0 L264 74 L200 85 L200 365 C244 415 298 432 355 432 C370 432 382 431 396 428 L410 537 C404 539 390 540 378 540 C296 540 233 509 190 453 L185 526 L26 526 L26 452 L84 441 L84 85 L26 74 L26 0 L264 0 Z M207 580 L338 766 L227 766 L135 580 L207 580 Z " />
<glyph glyph-name="Rcommaaccent" unicode="Ŗ" horiz-adv-x="641" d="M619 0 L619 74 L562 85 L562 197 C562 316 523 347 461 360 C516 373 552 408 552 509 L552 544 C552 646 505 710 375 710 L32 710 L32 636 L90 625 L90 85 L32 74 L32 0 L271 0 L271 74 L213 85 L213 318 L358 318 C415 318 439 290 439 226 L439 71 C439 20 457 0 506 0 L619 0 Z M435 501 C435 428 408 397 353 397 L213 397 L213 620 L347 620 C411 620 435 582 435 512 L435 501 Z M325 -240 C358 -209 386 -168 391 -129 L391 -31 L290 -31 L290 -134 L339 -134 C329 -162 311 -189 290 -210 L325 -240 Z " />
<glyph glyph-name="rcommaaccent" unicode="ŗ" horiz-adv-x="413" d="M264 0 L264 74 L200 85 L200 365 C244 415 298 432 355 432 C370 432 382 431 396 428 L410 537 C404 539 390 540 378 540 C296 540 233 509 190 453 L185 526 L26 526 L26 452 L84 441 L84 85 L26 74 L26 0 L264 0 Z M123 -240 C156 -209 184 -168 189 -129 L189 -31 L88 -31 L88 -134 L137 -134 C127 -162 109 -189 88 -210 L123 -240 Z " />
<glyph glyph-name="Rcaron" unicode="Ř" horiz-adv-x="641" d="M619 0 L619 74 L562 85 L562 197 C562 316 523 347 461 360 C516 373 552 408 552 509 L552 544 C552 646 505 710 375 710 L32 710 L32 636 L90 625 L90 85 L32 74 L32 0 L271 0 L271 74 L213 85 L213 318 L358 318 C415 318 439 290 439 226 L439 71 C439 20 457 0 506 0 L619 0 Z M435 501 C435 428 408 397 353 397 L213 397 L213 620 L347 620 C411 620 435 582 435 512 L435 501 Z M345 763 L496 939 L407 939 L300 815 L194 939 L105 939 L256 763 L345 763 Z " />
<glyph glyph-name="rcaron" unicode="ř" horiz-adv-x="413" d="M264 0 L264 74 L200 85 L200 365 C244 415 298 432 355 432 C370 432 382 431 396 428 L410 537 C404 539 390 540 378 540 C296 540 233 509 190 453 L185 526 L26 526 L26 452 L84 441 L84 85 L26 74 L26 0 L264 0 Z M251 579 L402 755 L313 755 L206 631 L100 755 L11 755 L162 579 L251 579 Z " />
<glyph glyph-name="Sacute" unicode="Ś" horiz-adv-x="552" d="M518 230 C518 327 482 366 408 391 C384 399 357 406 326 412 C281 421 242 427 211 439 C173 453 149 476 149 523 L149 544 C149 624 205 647 276 647 C322 647 360 639 391 615 L400 512 L493 512 L493 662 C443 709 371 728 276 728 C108 728 29 668 29 530 L29 500 C29 403 71 362 132 338 C165 325 204 317 245 309 C299 298 337 290 362 276 C389 261 401 241 401 202 L401 182 C401 109 358 73 259 73 C210 73 168 83 132 113 L125 198 L34 198 L34 51 C97 0 181 -18 262 -18 C424 -18 518 39 518 197 L518 230 Z M276 764 L407 950 L296 950 L204 764 L276 764 Z " />
<glyph glyph-name="sacute" unicode="ś" horiz-adv-x="491" d="M468 165 C468 234 440 266 380 286 C310 309 232 309 168 329 C138 338 130 357 130 380 L130 395 C130 450 174 461 252 461 C294 461 321 457 346 444 L355 360 L441 360 L441 496 C400 527 337 540 248 540 C128 540 28 509 28 394 L28 367 C28 282 67 250 145 233 C278 204 360 222 360 148 L360 135 C360 79 311 65 233 65 C194 65 161 74 129 93 L121 172 L32 172 L32 36 C80 3 150 -18 241 -18 C373 -18 468 18 468 130 L468 165 Z M246 580 L377 766 L266 766 L174 580 L246 580 Z " />
<glyph glyph-name="Scircumflex" unicode="Ŝ" horiz-adv-x="552" d="M518 230 C518 327 482 366 408 391 C384 399 357 406 326 412 C281 421 242 427 211 439 C173 453 149 476 149 523 L149 544 C149 624 205 647 276 647 C322 647 360 639 391 615 L400 512 L493 512 L493 662 C443 709 371 728 276 728 C108 728 29 668 29 530 L29 500 C29 403 71 362 132 338 C165 325 204 317 245 309 C299 298 337 290 362 276 C389 261 401 241 401 202 L401 182 C401 109 358 73 259 73 C210 73 168 83 132 113 L125 198 L34 198 L34 51 C97 0 181 -18 262 -18 C424 -18 518 39 518 197 L518 230 Z M471 763 L321 939 L232 939 L81 763 L169 763 L276 887 L383 763 L471 763 Z " />
<glyph glyph-name="scircumflex" unicode="ŝ" horiz-adv-x="491" d="M468 165 C468 234 440 266 380 286 C310 309 232 309 168 329 C138 338 130 357 130 380 L130 395 C130 450 174 461 252 461 C294 461 321 457 346 444 L355 360 L441 360 L441 496 C400 527 337 540 248 540 C128 540 28 509 28 394 L28 367 C28 282 67 250 145 233 C278 204 360 222 360 148 L360 135 C360 79 311 65 233 65 C194 65 161 74 129 93 L121 172 L32 172 L32 36 C80 3 150 -18 241 -18 C373 -18 468 18 468 130 L468 165 Z M440 579 L290 755 L201 755 L50 579 L138 579 L245 703 L352 579 L440 579 Z " />
<glyph glyph-name="Scedilla" unicode="Ş" horiz-adv-x="552" d="M518 230 C518 327 482 366 408 391 C384 399 357 406 326 412 C281 421 242 427 211 439 C173 453 149 476 149 523 L149 544 C149 624 205 647 276 647 C322 647 360 639 391 615 L400 512 L493 512 L493 662 C443 709 371 728 276 728 C108 728 29 668 29 530 L29 500 C29 403 71 362 132 338 C165 325 204 317 245 309 C299 298 337 290 362 276 C389 261 401 241 401 202 L401 182 C401 109 358 73 259 73 C210 73 168 83 132 113 L125 198 L34 198 L34 51 C97 0 181 -18 262 -18 C424 -18 518 39 518 197 L518 230 Z M260 -240 C293 -209 321 -168 326 -129 L326 -31 L225 -31 L225 -134 L274 -134 C264 -162 246 -189 225 -210 L260 -240 Z " />
<glyph glyph-name="scedilla" unicode="ş" horiz-adv-x="491" d="M468 165 C468 234 440 266 380 286 C310 309 232 309 168 329 C138 338 130 357 130 380 L130 395 C130 450 174 461 252 461 C294 461 321 457 346 444 L355 360 L441 360 L441 496 C400 527 337 540 248 540 C128 540 28 509 28 394 L28 367 C28 282 67 250 145 233 C278 204 360 222 360 148 L360 135 C360 79 311 65 233 65 C194 65 161 74 129 93 L121 172 L32 172 L32 36 C80 3 150 -18 241 -18 C373 -18 468 18 468 130 L468 165 Z M230 -240 C263 -209 291 -168 296 -129 L296 -31 L195 -31 L195 -134 L244 -134 C234 -162 216 -189 195 -210 L230 -240 Z " />
<glyph glyph-name="Scaron" unicode="Š" horiz-adv-x="552" d="M518 230 C518 327 482 366 408 391 C384 399 357 406 326 412 C281 421 242 427 211 439 C173 453 149 476 149 523 L149 544 C149 624 205 647 276 647 C322 647 360 639 391 615 L400 512 L493 512 L493 662 C443 709 371 728 276 728 C108 728 29 668 29 530 L29 500 C29 403 71 362 132 338 C165 325 204 317 245 309 C299 298 337 290 362 276 C389 261 401 241 401 202 L401 182 C401 109 358 73 259 73 C210 73 168 83 132 113 L125 198 L34 198 L34 51 C97 0 181 -18 262 -18 C424 -18 518 39 518 197 L518 230 Z M320 763 L471 939 L382 939 L275 815 L169 939 L80 939 L231 763 L320 763 Z " />
<glyph glyph-name="scaron" unicode="š" horiz-adv-x="491" d="M468 165 C468 234 440 266 380 286 C310 309 232 309 168 329 C138 338 130 357 130 380 L130 395 C130 450 174 461 252 461 C294 461 321 457 346 444 L355 360 L441 360 L441 496 C400 527 337 540 248 540 C128 540 28 509 28 394 L28 367 C28 282 67 250 145 233 C278 204 360 222 360 148 L360 135 C360 79 311 65 233 65 C194 65 161 74 129 93 L121 172 L32 172 L32 36 C80 3 150 -18 241 -18 C373 -18 468 18 468 130 L468 165 Z M290 579 L441 755 L352 755 L245 631 L139 755 L50 755 L201 579 L290 579 Z " />
<glyph glyph-name="Tcommaaccent" unicode="Ţ" horiz-adv-x="584" d="M420 0 L420 74 L354 85 L354 618 L473 618 L486 430 L562 430 L562 710 L22 710 L22 430 L97 430 L110 618 L229 618 L229 85 L163 74 L163 0 L420 0 Z M276 -240 C309 -209 337 -168 342 -129 L342 -31 L241 -31 L241 -134 L290 -134 C280 -162 262 -189 241 -210 L276 -240 Z " />
<glyph glyph-name="tcommaaccent" unicode="ţ" horiz-adv-x="356" d="M338 100 C319 81 298 72 271 72 C207 72 185 103 185 178 L185 449 L338 449 L338 526 L185 526 L185 661 L73 642 L73 526 L17 526 L17 449 L73 449 L73 180 C73 58 114 -18 232 -18 C288 -18 324 -1 348 30 L338 100 Z M197 -240 C230 -209 258 -168 263 -129 L263 -31 L162 -31 L162 -134 L211 -134 C201 -162 183 -189 162 -210 L197 -240 Z " />
<glyph glyph-name="Tcaron" unicode="Ť" horiz-adv-x="584" d="M420 0 L420 74 L354 85 L354 618 L473 618 L486 430 L562 430 L562 710 L22 710 L22 430 L97 430 L110 618 L229 618 L229 85 L163 74 L163 0 L420 0 Z M336 763 L487 939 L398 939 L291 815 L185 939 L96 939 L247 763 L336 763 Z " />
<glyph glyph-name="tcaron" unicode="ť" horiz-adv-x="478" d="M338 100 C319 81 298 72 271 72 C207 72 185 103 185 178 L185 449 L338 449 L338 526 L185 526 L185 661 L73 642 L73 526 L17 526 L17 449 L73 449 L73 180 C73 58 114 -18 232 -18 C288 -18 324 -1 348 30 L338 100 Z M396 424 C432 459 464 506 478 551 L478 719 L353 719 L353 557 L421 557 C408 521 383 489 359 463 L396 424 Z " />
<glyph glyph-name="Tbar" unicode="Ŧ" horiz-adv-x="584" d="M432 277 L432 368 L354 368 L354 618 L473 618 L486 430 L562 430 L562 710 L22 710 L22 430 L97 430 L110 618 L229 618 L229 368 L151 368 L151 277 L229 277 L229 85 L163 74 L163 0 L420 0 L420 74 L354 85 L354 277 L432 277 Z " />
<glyph glyph-name="tbar" unicode="ŧ" horiz-adv-x="356" d="M308 213 L308 304 L185 304 L185 449 L338 449 L338 526 L185 526 L185 661 L73 642 L73 526 L17 526 L17 449 L73 449 L73 304 L27 304 L27 213 L73 213 L73 180 C73 58 114 -18 232 -18 C288 -18 324 -1 348 30 L338 100 C319 81 298 72 271 72 C207 72 185 103 185 178 L185 213 L308 213 Z " />
<glyph glyph-name="Utilde" unicode="Ũ" horiz-adv-x="677" d="M488 227 C488 119 455 82 345 82 C244 82 204 118 204 227 L204 625 L260 636 L260 710 L25 710 L25 636 L77 625 L77 241 C77 53 136 -18 336 -18 C558 -18 600 53 600 241 L600 625 L652 636 L652 710 L433 710 L433 636 L488 625 L488 227 Z M512 885 C484 852 456 835 419 835 C363 835 321 885 255 885 C212 885 184 864 164 840 L164 764 C191 798 219 815 257 815 C309 815 352 764 421 764 C463 764 492 786 512 810 L512 885 Z " />
<glyph glyph-name="utilde" unicode="ũ" horiz-adv-x="587" d="M419 163 C419 100 388 75 302 75 C217 75 184 98 184 163 L184 441 L239 452 L239 526 L20 526 L20 452 L69 441 L69 162 C69 34 143 -18 297 -18 C450 -18 518 34 518 162 L518 441 L567 452 L567 526 L363 526 L363 452 L419 441 L419 163 Z M467 701 C439 668 411 651 374 651 C318 651 276 701 210 701 C167 701 139 680 119 656 L119 580 C146 614 174 631 212 631 C264 631 307 580 376 580 C418 580 447 602 467 626 L467 701 Z " />
<glyph glyph-name="Umacron" unicode="Ū" horiz-adv-x="677" d="M488 227 C488 119 455 82 345 82 C244 82 204 118 204 227 L204 625 L260 636 L260 710 L25 710 L25 636 L77 625 L77 241 C77 53 136 -18 336 -18 C558 -18 600 53 600 241 L600 625 L652 636 L652 710 L433 710 L433 636 L488 625 L488 227 Z M508 777 L508 855 L169 855 L169 777 L508 777 Z " />
<glyph glyph-name="umacron" unicode="ū" horiz-adv-x="587" d="M419 163 C419 100 388 75 302 75 C217 75 184 98 184 163 L184 441 L239 452 L239 526 L20 526 L20 452 L69 441 L69 162 C69 34 143 -18 297 -18 C450 -18 518 34 518 162 L518 441 L567 452 L567 526 L363 526 L363 452 L419 441 L419 163 Z M463 593 L463 671 L124 671 L124 593 L463 593 Z " />
<glyph glyph-name="Ubreve" unicode="Ŭ" horiz-adv-x="677" d="M488 227 C488 119 455 82 345 82 C244 82 204 118 204 227 L204 625 L260 636 L260 710 L25 710 L25 636 L77 625 L77 241 C77 53 136 -18 336 -18 C558 -18 600 53 600 241 L600 625 L652 636 L652 710 L433 710 L433 636 L488 625 L488 227 Z M438 935 C436 863 397 825 339 825 C281 825 240 863 238 935 L168 935 C168 816 245 758 339 758 C433 758 509 816 509 935 L438 935 Z " />
<glyph glyph-name="ubreve" unicode="ŭ" horiz-adv-x="587" d="M419 163 C419 100 388 75 302 75 C217 75 184 98 184 163 L184 441 L239 452 L239 526 L20 526 L20 452 L69 441 L69 162 C69 34 143 -18 297 -18 C450 -18 518 34 518 162 L518 441 L567 452 L567 526 L363 526 L363 452 L419 441 L419 163 Z M393 751 C391 679 352 641 294 641 C236 641 195 679 193 751 L123 751 C123 632 200 574 294 574 C388 574 464 632 464 751 L393 751 Z " />
<glyph glyph-name="Uring" unicode="Ů" horiz-adv-x="677" d="M488 227 C488 119 455 82 345 82 C244 82 204 118 204 227 L204 625 L260 636 L260 710 L25 710 L25 636 L77 625 L77 241 C77 53 136 -18 336 -18 C558 -18 600 53 600 241 L600 625 L652 636 L652 710 L433 710 L433 636 L488 625 L488 227 Z M448 847 C448 913 417 950 339 950 C264 950 229 913 229 847 C229 779 265 745 339 745 C417 745 448 779 448 847 L448 847 Z M399 847 C399 808 380 789 339 789 C300 789 280 808 280 847 C280 886 300 907 339 907 C380 907 399 886 399 847 L399 847 Z " />
<glyph glyph-name="uring" unicode="ů" horiz-adv-x="587" d="M419 163 C419 100 388 75 302 75 C217 75 184 98 184 163 L184 441 L239 452 L239 526 L20 526 L20 452 L69 441 L69 162 C69 34 143 -18 297 -18 C450 -18 518 34 518 162 L518 441 L567 452 L567 526 L363 526 L363 452 L419 441 L419 163 Z M403 663 C403 729 372 766 294 766 C219 766 184 729 184 663 C184 595 220 561 294 561 C372 561 403 595 403 663 L403 663 Z M354 663 C354 624 335 605 294 605 C255 605 235 624 235 663 C235 702 255 723 294 723 C335 723 354 702 354 663 L354 663 Z " />
<glyph glyph-name="Uhungarumlaut" unicode="Ű" horiz-adv-x="677" d="M488 227 C488 119 455 82 345 82 C244 82 204 118 204 227 L204 625 L260 636 L260 710 L25 710 L25 636 L77 625 L77 241 C77 53 136 -18 336 -18 C558 -18 600 53 600 241 L600 625 L652 636 L652 710 L433 710 L433 636 L488 625 L488 227 Z M243 764 L374 950 L263 950 L171 764 L243 764 Z M436 764 L566 950 L455 950 L363 764 L436 764 Z " />
<glyph glyph-name="uhungarumlaut" unicode="ű" horiz-adv-x="587" d="M419 163 C419 100 388 75 302 75 C217 75 184 98 184 163 L184 441 L239 452 L239 526 L20 526 L20 452 L69 441 L69 162 C69 34 143 -18 297 -18 C450 -18 518 34 518 162 L518 441 L567 452 L567 526 L363 526 L363 452 L419 441 L419 163 Z M198 580 L329 766 L218 766 L126 580 L198 580 Z M391 580 L521 766 L410 766 L318 580 L391 580 Z " />
<glyph glyph-name="Uogonek" unicode="Ų" horiz-adv-x="677" d="M437 -134 C418 -140 398 -144 372 -144 C313 -144 299 -123 299 -97 C299 -56 351 -26 403 -15 C564 19 600 74 600 241 L600 625 L652 636 L652 710 L433 710 L433 636 L488 625 L488 227 C488 119 455 82 345 82 C244 82 204 118 204 227 L204 625 L260 636 L260 710 L25 710 L25 636 L77 625 L77 241 C77 59 132 -13 318 -18 C240 -43 204 -79 204 -135 C204 -210 274 -240 362 -240 C409 -240 451 -230 473 -215 L437 -134 Z " />
<glyph glyph-name="uogonek" unicode="ų" horiz-adv-x="587" d="M391 -134 C372 -140 352 -144 326 -144 C267 -144 253 -123 253 -97 C253 -55 308 -26 360 -14 C466 10 518 53 518 162 L518 441 L567 452 L567 526 L363 526 L363 452 L419 441 L419 163 C419 100 388 75 302 75 C217 75 184 98 184 163 L184 441 L239 452 L239 526 L20 526 L20 452 L69 441 L69 162 C69 40 135 -12 273 -17 C194 -43 158 -79 158 -135 C158 -210 228 -240 316 -240 C363 -240 405 -230 427 -215 L391 -134 Z " />
<glyph glyph-name="Wcircumflex" unicode="Ŵ" horiz-adv-x="883" d="M699 0 L808 625 L862 636 L862 710 L648 710 L648 636 L702 625 L634 146 L510 710 L403 710 L273 146 L209 625 L263 636 L263 710 L20 710 L20 636 L75 625 L186 0 L324 0 L443 512 L556 0 L699 0 Z M651 763 L501 939 L412 939 L261 763 L349 763 L456 887 L563 763 L651 763 Z " />
<glyph glyph-name="wcircumflex" unicode="ŵ" horiz-adv-x="800" d="M651 0 L734 444 L784 452 L784 526 L593 526 L593 452 L642 444 L583 94 L472 526 L360 526 L242 94 L183 444 L233 452 L233 526 L16 526 L16 451 L63 443 L153 0 L296 0 L403 396 L507 0 L651 0 Z M605 579 L455 755 L366 755 L215 579 L303 579 L410 703 L517 579 L605 579 Z " />
<glyph glyph-name="Ycircumflex" unicode="Ŷ" horiz-adv-x="592" d="M423 0 L423 74 L358 85 L358 282 L520 625 L572 636 L572 710 L379 710 L379 636 L430 625 L313 371 L199 625 L250 636 L250 710 L19 710 L19 636 L70 625 L232 282 L232 85 L167 74 L167 0 L423 0 Z M501 763 L351 939 L262 939 L111 763 L199 763 L306 887 L413 763 L501 763 Z " />
<glyph glyph-name="ycircumflex" unicode="ŷ" horiz-adv-x="568" d="M122 -138 C82 -138 60 -127 39 -107 L9 -191 C36 -222 76 -238 131 -238 C240 -238 282 -160 329 -31 L502 443 L552 451 L552 526 L359 526 L359 451 L408 443 L294 102 L185 443 L235 451 L235 526 L14 526 L14 451 L65 443 L229 -18 L217 -50 C192 -114 167 -138 122 -138 L122 -138 Z M489 579 L339 755 L250 755 L99 579 L187 579 L294 703 L401 579 L489 579 Z " />
<glyph glyph-name="Ydieresis" unicode="Ÿ" horiz-adv-x="592" d="M423 0 L423 74 L358 85 L358 282 L520 625 L572 636 L572 710 L379 710 L379 636 L430 625 L313 371 L199 625 L250 636 L250 710 L19 710 L19 636 L70 625 L232 282 L232 85 L167 74 L167 0 L423 0 Z M251 774 L251 903 L136 903 L136 774 L251 774 Z M482 774 L482 903 L367 903 L367 774 L482 774 Z " />
<glyph glyph-name="Zacute" unicode="Ź" horiz-adv-x="552" d="M524 0 L524 280 L447 280 L430 93 L161 93 L512 622 L512 710 L29 710 L29 430 L107 430 L124 618 L369 618 L28 115 L28 0 L524 0 Z M276 764 L407 950 L296 950 L204 764 L276 764 Z " />
<glyph glyph-name="zacute" unicode="ź" horiz-adv-x="516" d="M489 0 L489 207 L406 207 L391 79 L163 79 L477 460 L477 526 L27 526 L27 344 L110 344 L120 451 L330 451 L26 86 L26 0 L489 0 Z M258 580 L389 766 L278 766 L186 580 L258 580 Z " />
<glyph glyph-name="Zdotaccent" unicode="Ż" horiz-adv-x="552" d="M524 0 L524 280 L447 280 L430 93 L161 93 L512 622 L512 710 L29 710 L29 430 L107 430 L124 618 L369 618 L28 115 L28 0 L524 0 Z M333 774 L333 903 L218 903 L218 774 L333 774 Z " />
<glyph glyph-name="zdotaccent" unicode="ż" horiz-adv-x="516" d="M489 0 L489 207 L406 207 L391 79 L163 79 L477 460 L477 526 L27 526 L27 344 L110 344 L120 451 L330 451 L26 86 L26 0 L489 0 Z M315 590 L315 719 L200 719 L200 590 L315 590 Z " />
<glyph glyph-name="Zcaron" unicode="Ž" horiz-adv-x="552" d="M524 0 L524 280 L447 280 L430 93 L161 93 L512 622 L512 710 L29 710 L29 430 L107 430 L124 618 L369 618 L28 115 L28 0 L524 0 Z M316 763 L467 939 L378 939 L271 815 L165 939 L76 939 L227 763 L316 763 Z " />
<glyph glyph-name="zcaron" unicode="ž" horiz-adv-x="516" d="M489 0 L489 207 L406 207 L391 79 L163 79 L477 460 L477 526 L27 526 L27 344 L110 344 L120 451 L330 451 L26 86 L26 0 L489 0 Z M302 579 L453 755 L364 755 L257 631 L151 755 L62 755 L213 579 L302 579 Z " />
<glyph glyph-name="florin" unicode="ƒ" horiz-adv-x="503" d="M50 -140 C200 -140 262 -85 280 41 L332 413 L439 413 L439 502 L344 502 L350 537 C359 590 380 622 447 622 L477 622 L477 719 L465 719 C317 719 249 678 227 549 L219 502 L126 502 L126 413 L205 413 L154 52 C145 -12 108 -41 43 -41 L25 -41 L25 -140 L50 -140 Z " />
<glyph glyph-name="Scommaaccent" unicode="Ș" horiz-adv-x="552" d="M518 230 C518 327 482 366 408 391 C384 399 357 406 326 412 C281 421 242 427 211 439 C173 453 149 476 149 523 L149 544 C149 624 205 647 276 647 C322 647 360 639 391 615 L400 512 L493 512 L493 662 C443 709 371 728 276 728 C108 728 29 668 29 530 L29 500 C29 403 71 362 132 338 C165 325 204 317 245 309 C299 298 337 290 362 276 C389 261 401 241 401 202 L401 182 C401 109 358 73 259 73 C210 73 168 83 132 113 L125 198 L34 198 L34 51 C97 0 181 -18 262 -18 C424 -18 518 39 518 197 L518 230 Z M260 -240 C293 -209 321 -168 326 -129 L326 -31 L225 -31 L225 -134 L274 -134 C264 -162 246 -189 225 -210 L260 -240 Z " />
<glyph glyph-name="scommaaccent" unicode="ș" horiz-adv-x="491" d="M468 165 C468 234 440 266 380 286 C310 309 232 309 168 329 C138 338 130 357 130 380 L130 395 C130 450 174 461 252 461 C294 461 321 457 346 444 L355 360 L441 360 L441 496 C400 527 337 540 248 540 C128 540 28 509 28 394 L28 367 C28 282 67 250 145 233 C278 204 360 222 360 148 L360 135 C360 79 311 65 233 65 C194 65 161 74 129 93 L121 172 L32 172 L32 36 C80 3 150 -18 241 -18 C373 -18 468 18 468 130 L468 165 Z M230 -240 C263 -209 291 -168 296 -129 L296 -31 L195 -31 L195 -134 L244 -134 C234 -162 216 -189 195 -210 L230 -240 Z " />
<glyph glyph-name="uni021A" unicode="Ț" horiz-adv-x="584" d="M420 0 L420 74 L354 85 L354 618 L473 618 L486 430 L562 430 L562 710 L22 710 L22 430 L97 430 L110 618 L229 618 L229 85 L163 74 L163 0 L420 0 Z M276 -240 C309 -209 337 -168 342 -129 L342 -31 L241 -31 L241 -134 L290 -134 C280 -162 262 -189 241 -210 L276 -240 Z " />
<glyph glyph-name="uni021B" unicode="ț" horiz-adv-x="356" d="M338 100 C319 81 298 72 271 72 C207 72 185 103 185 178 L185 449 L338 449 L338 526 L185 526 L185 661 L73 642 L73 526 L17 526 L17 449 L73 449 L73 180 C73 58 114 -18 232 -18 C288 -18 324 -1 348 30 L338 100 Z M197 -240 C230 -209 258 -168 263 -129 L263 -31 L162 -31 L162 -134 L211 -134 C201 -162 183 -189 162 -210 L197 -240 Z " />
<glyph glyph-name="dotlessj" unicode="ȷ" horiz-adv-x="238" d="M-80 -191 C-56 -222 -17 -240 37 -240 C152 -240 195 -158 195 -21 L195 526 L17 526 L17 451 L79 441 L79 -21 C79 -85 66 -146 -5 -146 C-32 -146 -51 -139 -70 -120 L-80 -191 Z " />
<glyph glyph-name="circumflex" unicode="ˆ" horiz-adv-x="454" d="M422 579 L272 755 L183 755 L32 579 L120 579 L227 703 L334 579 L422 579 Z " />
<glyph glyph-name="caron" unicode="ˇ" horiz-adv-x="454" d="M271 579 L422 755 L333 755 L226 631 L120 755 L31 755 L182 579 L271 579 Z " />
<glyph glyph-name="breve" unicode="˘" horiz-adv-x="405" d="M302 751 C300 679 261 641 203 641 C145 641 104 679 102 751 L32 751 C32 632 109 574 203 574 C297 574 373 632 373 751 L302 751 Z " />
<glyph glyph-name="dotaccent" unicode="˙" horiz-adv-x="179" d="M147 590 L147 719 L32 719 L32 590 L147 590 Z " />
<glyph glyph-name="ring" unicode="˚" horiz-adv-x="283" d="M251 663 C251 729 220 766 142 766 C67 766 32 729 32 663 C32 595 68 561 142 561 C220 561 251 595 251 663 L251 663 Z M202 663 C202 624 183 605 142 605 C103 605 83 624 83 663 C83 702 103 723 142 723 C183 723 202 702 202 663 L202 663 Z " />
<glyph glyph-name="ogonek" unicode="˛" horiz-adv-x="278" d="M265 -134 C246 -140 226 -144 200 -144 C141 -144 127 -123 127 -97 C127 -42 224 -19 278 0 L216 0 C89 -26 32 -65 32 -135 C32 -210 102 -240 190 -240 C237 -240 279 -230 301 -215 L265 -134 Z " />
<glyph glyph-name="tilde" unicode="˜" horiz-adv-x="411" d="M379 701 C351 668 323 651 286 651 C230 651 188 701 122 701 C79 701 51 680 31 656 L31 580 C58 614 86 631 124 631 C176 631 219 580 288 580 C330 580 359 602 379 626 L379 701 Z " />
<glyph glyph-name="hungarumlaut" unicode="˝" horiz-adv-x="459" d="M104 580 L235 766 L124 766 L32 580 L104 580 Z M297 580 L427 766 L316 766 L224 580 L297 580 Z " />
<glyph glyph-name="pi" unicode="π" horiz-adv-x="670" d="M648 100 C627 80 613 72 585 72 C519 72 512 115 512 177 L512 441 L593 451 L593 526 L25 526 L25 451 L84 441 L84 84 L25 74 L25 0 L258 0 L258 74 L200 84 L200 438 L400 438 L400 192 C400 67 423 -18 546 -18 C602 -18 634 0 658 30 L648 100 Z " />
<glyph glyph-name="Wgrave" unicode="Ẁ" horiz-adv-x="883" d="M699 0 L808 625 L862 636 L862 710 L648 710 L648 636 L702 625 L634 146 L510 710 L403 710 L273 146 L209 625 L263 636 L263 710 L20 710 L20 636 L75 625 L186 0 L324 0 L443 512 L556 0 L699 0 Z M523 764 L432 950 L320 950 L450 764 L523 764 Z " />
<glyph glyph-name="wgrave" unicode="ẁ" horiz-adv-x="800" d="M651 0 L734 444 L784 452 L784 526 L593 526 L593 452 L642 444 L583 94 L472 526 L360 526 L242 94 L183 444 L233 452 L233 526 L16 526 L16 451 L63 443 L153 0 L296 0 L403 396 L507 0 L651 0 Z M481 580 L390 766 L278 766 L408 580 L481 580 Z " />
<glyph glyph-name="Wacute" unicode="Ẃ" horiz-adv-x="883" d="M699 0 L808 625 L862 636 L862 710 L648 710 L648 636 L702 625 L634 146 L510 710 L403 710 L273 146 L209 625 L263 636 L263 710 L20 710 L20 636 L75 625 L186 0 L324 0 L443 512 L556 0 L699 0 Z M452 764 L583 950 L472 950 L380 764 L452 764 Z " />
<glyph glyph-name="wacute" unicode="ẃ" horiz-adv-x="800" d="M651 0 L734 444 L784 452 L784 526 L593 526 L593 452 L642 444 L583 94 L472 526 L360 526 L242 94 L183 444 L233 452 L233 526 L16 526 L16 451 L63 443 L153 0 L296 0 L403 396 L507 0 L651 0 Z M410 580 L541 766 L430 766 L338 580 L410 580 Z " />
<glyph glyph-name="Wdieresis" unicode="Ẅ" horiz-adv-x="883" d="M699 0 L808 625 L862 636 L862 710 L648 710 L648 636 L702 625 L634 146 L510 710 L403 710 L273 146 L209 625 L263 636 L263 710 L20 710 L20 636 L75 625 L186 0 L324 0 L443 512 L556 0 L699 0 Z M401 774 L401 903 L286 903 L286 774 L401 774 Z M632 774 L632 903 L517 903 L517 774 L632 774 Z " />
<glyph glyph-name="wdieresis" unicode="ẅ" horiz-adv-x="800" d="M651 0 L734 444 L784 452 L784 526 L593 526 L593 452 L642 444 L583 94 L472 526 L360 526 L242 94 L183 444 L233 452 L233 526 L16 526 L16 451 L63 443 L153 0 L296 0 L403 396 L507 0 L651 0 Z M352 590 L352 719 L237 719 L237 590 L352 590 Z M583 590 L583 719 L468 719 L468 590 L583 590 Z " />
<glyph glyph-name="Ygrave" unicode="Ỳ" horiz-adv-x="592" d="M423 0 L423 74 L358 85 L358 282 L520 625 L572 636 L572 710 L379 710 L379 636 L430 625 L313 371 L199 625 L250 636 L250 710 L19 710 L19 636 L70 625 L232 282 L232 85 L167 74 L167 0 L423 0 Z M381 764 L290 950 L178 950 L308 764 L381 764 Z " />
<glyph glyph-name="ygrave" unicode="ỳ" horiz-adv-x="568" d="M122 -138 C82 -138 60 -127 39 -107 L9 -191 C36 -222 76 -238 131 -238 C240 -238 282 -160 329 -31 L502 443 L552 451 L552 526 L359 526 L359 451 L408 443 L294 102 L185 443 L235 451 L235 526 L14 526 L14 451 L65 443 L229 -18 L217 -50 C192 -114 167 -138 122 -138 L122 -138 Z M365 580 L274 766 L162 766 L292 580 L365 580 Z " />
<glyph glyph-name="endash" unicode="–" horiz-adv-x="530" d="M501 283 L501 374 L30 374 L30 283 L501 283 Z " />
<glyph glyph-name="emdash" unicode="—" horiz-adv-x="726" d="M696 283 L696 374 L30 374 L30 283 L696 283 Z " />
<glyph glyph-name="quoteleft" unicode="‘" horiz-adv-x="197" d="M155 463 C131 489 106 521 93 557 L162 557 L162 719 L37 719 L37 551 C51 506 82 459 119 424 L155 463 Z " />
<glyph glyph-name="quoteright" unicode="’" horiz-adv-x="197" d="M80 424 C116 459 148 506 162 551 L162 719 L37 719 L37 557 L105 557 C92 521 67 489 43 463 L80 424 Z " />
<glyph glyph-name="quotesinglbase" unicode="‚" horiz-adv-x="197" d="M80 -132 C116 -98 148 -50 162 -6 L162 162 L37 162 L37 0 L105 0 C92 -35 67 -68 43 -94 L80 -132 Z " />
<glyph glyph-name="quotedblleft" unicode="“" horiz-adv-x="394" d="M155 463 C131 489 106 521 93 557 L162 557 L162 719 L37 719 L37 551 C51 506 82 459 119 424 L155 463 Z M352 463 C328 489 303 521 290 557 L359 557 L359 719 L234 719 L234 551 C248 506 279 459 316 424 L352 463 Z " />
<glyph glyph-name="quotedblright" unicode="”" horiz-adv-x="394" d="M80 424 C116 459 148 506 162 551 L162 719 L37 719 L37 557 L105 557 C92 521 67 489 43 463 L80 424 Z M277 424 C313 459 345 506 359 551 L359 719 L234 719 L234 557 L302 557 C289 521 264 489 240 463 L277 424 Z " />
<glyph glyph-name="quotedblbase" unicode="„" horiz-adv-x="394" d="M80 -132 C116 -98 148 -50 162 -6 L162 162 L37 162 L37 0 L105 0 C92 -35 67 -68 43 -94 L80 -132 Z M277 -132 C313 -98 345 -50 359 -6 L359 162 L234 162 L234 0 L302 0 C289 -35 264 -68 240 -94 L277 -132 Z " />
<glyph glyph-name="dagger" unicode="†" horiz-adv-x="412" d="M253 0 L253 478 L380 478 L380 551 L253 551 L253 710 L160 710 L160 551 L32 551 L32 478 L160 478 L160 0 L253 0 Z " />
<glyph glyph-name="daggerdbl" unicode="‡" horiz-adv-x="412" d="M253 0 L253 159 L380 159 L380 231 L253 231 L253 478 L380 478 L380 551 L253 551 L253 710 L160 710 L160 551 L31 551 L31 478 L160 478 L160 231 L31 231 L31 159 L160 159 L160 0 L253 0 Z " />
<glyph glyph-name="bullet" unicode="•" horiz-adv-x="342" d="M310 367 C310 447 262 504 171 504 C81 504 32 447 32 367 C32 289 81 230 171 230 C262 230 310 289 310 367 L310 367 Z " />
<glyph glyph-name="ellipsis" unicode="…" horiz-adv-x="960" d="M158 0 L158 162 L34 162 L34 0 L158 0 Z M542 0 L542 162 L418 162 L418 0 L542 0 Z M926 0 L926 162 L802 162 L802 0 L926 0 Z " />
<glyph glyph-name="perthousand" unicode="‰" horiz-adv-x="932" d="M278 597 C278 697 229 729 154 729 C78 729 29 697 29 597 L29 487 C29 387 78 356 154 356 C229 356 278 387 278 487 L278 597 Z M207 479 C207 428 182 415 154 415 C124 415 100 428 100 479 L100 605 C100 655 124 669 154 669 C183 669 207 655 207 605 L207 479 Z M138 -21 L567 732 L501 732 L73 -21 L138 -21 Z M614 222 C614 322 565 354 490 354 C414 354 365 322 365 222 L365 112 C365 12 414 -19 490 -19 C565 -19 614 12 614 112 L614 222 Z M543 104 C543 53 518 40 490 40 C460 40 436 53 436 104 L436 230 C436 280 460 294 490 294 C519 294 543 280 543 230 L543 104 Z M903 222 C903 322 854 354 779 354 C703 354 654 322 654 222 L654 112 C654 12 703 -19 779 -19 C854 -19 903 12 903 112 L903 222 Z M832 104 C832 53 807 40 779 40 C749 40 725 53 725 104 L725 230 C725 280 749 294 779 294 C808 294 832 280 832 230 L832 104 Z " />
<glyph glyph-name="guilsinglleft" unicode="‹" horiz-adv-x="226" d="M198 141 L198 230 L79 337 L198 443 L198 532 L28 381 L28 292 L198 141 Z " />
<glyph glyph-name="guilsinglright" unicode="›" horiz-adv-x="226" d="M198 291 L198 381 L27 532 L27 442 L145 337 L27 230 L27 141 L198 291 Z " />
<glyph glyph-name="fraction" unicode="⁄" horiz-adv-x="184" d="M-90 -21 L339 732 L273 732 L-155 -21 L-90 -21 Z " />
<glyph glyph-name="zerosuperior" unicode="⁰" horiz-adv-x="309" d="M279 597 C279 697 230 729 155 729 C79 729 30 697 30 597 L30 487 C30 387 79 356 155 356 C230 356 279 387 279 487 L279 597 Z M208 479 C208 428 183 415 155 415 C125 415 101 428 101 479 L101 605 C101 655 125 669 155 669 C184 669 208 655 208 605 L208 479 Z " />
<glyph glyph-name="foursuperior" unicode="⁴" horiz-adv-x="308" d="M256 365 L256 427 L283 427 L283 482 L256 482 L256 605 L192 605 L192 482 L92 482 C129 546 169 631 193 705 L133 727 C106 650 68 568 24 493 L24 427 L190 427 L190 365 L256 365 Z " />
<glyph glyph-name="fivesuperior" unicode="⁵" horiz-adv-x="291" d="M27 381 C53 364 89 356 124 356 C225 356 264 393 264 478 C264 547 237 588 163 588 C135 588 113 582 96 570 L104 660 L197 660 L203 617 L247 617 L247 720 L47 720 L29 520 L74 510 C91 531 116 542 141 542 C178 542 200 523 200 481 C200 436 176 416 131 416 C98 416 69 424 47 436 L27 381 Z " />
<glyph glyph-name="sixsuperior" unicode="⁶" horiz-adv-x="299" d="M192 729 C82 716 26 620 26 513 C26 419 53 356 152 356 C230 356 273 398 273 477 C273 538 245 585 176 585 C135 585 109 568 94 547 C102 615 139 664 209 672 L192 729 Z M94 504 C108 525 130 539 156 539 C192 539 207 513 207 477 C207 439 191 412 153 412 C107 412 93 445 93 489 C93 494 94 500 94 504 L94 504 Z " />
<glyph glyph-name="sevensuperior" unicode="⁷" horiz-adv-x="282" d="M135 357 C152 459 205 573 259 665 L259 720 L25 720 L25 615 L69 615 L75 658 L193 658 C131 569 86 474 62 372 L135 357 Z " />
<glyph glyph-name="eightsuperior" unicode="⁸" horiz-adv-x="303" d="M211 555 C250 566 268 596 268 631 C268 705 219 729 154 729 C88 729 36 705 36 631 C36 593 57 561 96 547 C50 534 24 507 24 459 C24 387 81 356 153 356 C225 356 278 387 278 464 C278 513 254 539 211 555 L211 555 Z M150 527 C185 520 208 502 208 470 C208 432 186 415 151 415 C116 415 94 432 94 468 C94 500 114 523 150 527 L150 527 Z M153 563 C119 570 98 590 98 619 C98 653 117 670 152 670 C186 670 204 653 204 617 C204 590 185 570 153 563 L153 563 Z " />
<glyph glyph-name="ninesuperior" unicode="⁹" horiz-adv-x="299" d="M106 356 C216 369 272 464 272 569 C272 654 244 729 146 729 C68 729 25 686 25 607 C25 546 53 499 122 499 C163 499 189 516 204 537 C195 469 158 420 89 412 L106 356 Z M204 580 C190 560 167 546 143 546 C106 546 92 571 92 606 C92 644 107 670 145 670 C198 670 204 630 204 580 L204 580 Z " />
<glyph glyph-name="zeroinferior" unicode="₀" horiz-adv-x="309" d="M279 222 C279 322 230 354 155 354 C79 354 30 322 30 222 L30 112 C30 12 79 -19 155 -19 C230 -19 279 12 279 112 L279 222 Z M208 104 C208 53 183 40 155 40 C125 40 101 53 101 104 L101 230 C101 280 125 294 155 294 C184 294 208 280 208 230 L208 104 Z " />
<glyph glyph-name="oneinferior" unicode="₁" horiz-adv-x="209" d="M180 -10 L180 35 L154 42 L154 345 L103 345 C78 317 50 294 18 272 L49 227 C60 234 72 243 85 252 L85 42 L54 35 L54 -10 L180 -10 Z " />
<glyph glyph-name="twoinferior" unicode="₂" horiz-adv-x="294" d="M268 -10 L268 93 L224 93 L217 52 L114 52 C206 114 265 168 265 241 C265 319 225 354 150 354 C106 354 65 345 29 324 L51 264 C74 280 105 293 133 293 C171 293 196 271 196 235 C196 161 95 96 30 55 L30 -10 L268 -10 Z " />
<glyph glyph-name="threeinferior" unicode="₃" horiz-adv-x="281" d="M25 -3 C57 -15 90 -19 125 -19 C200 -19 252 12 252 86 C252 128 233 164 196 175 C228 186 245 219 245 256 C245 317 209 354 128 354 C93 354 55 346 26 327 L44 272 C64 286 92 294 118 294 C154 294 182 279 182 240 C182 209 164 196 135 196 L97 196 L97 144 L134 144 C165 144 186 129 186 95 C186 54 156 40 118 40 C91 40 62 47 43 55 L25 -3 Z " />
<glyph glyph-name="fourinferior" unicode="₄" horiz-adv-x="308" d="M256 -10 L256 52 L283 52 L283 107 L256 107 L256 230 L192 230 L192 107 L92 107 C129 171 169 256 193 330 L133 352 C106 275 68 193 24 118 L24 52 L190 52 L190 -10 L256 -10 Z " />
<glyph glyph-name="fiveinferior" unicode="₅" horiz-adv-x="291" d="M27 6 C53 -11 89 -19 124 -19 C225 -19 264 18 264 103 C264 172 237 213 163 213 C135 213 113 207 96 195 L104 285 L197 285 L203 242 L247 242 L247 345 L47 345 L29 145 L74 135 C91 156 116 167 141 167 C178 167 200 148 200 106 C200 61 176 41 131 41 C98 41 69 49 47 61 L27 6 Z " />
<glyph glyph-name="sixinferior" unicode="₆" horiz-adv-x="299" d="M192 354 C82 341 26 245 26 138 C26 44 53 -19 152 -19 C230 -19 273 23 273 102 C273 163 245 210 176 210 C135 210 109 193 94 172 C102 240 139 289 209 297 L192 354 Z M94 129 C108 150 130 164 156 164 C192 164 207 138 207 102 C207 64 191 37 153 37 C107 37 93 70 93 114 C93 119 94 125 94 129 L94 129 Z " />
<glyph glyph-name="seveninferior" unicode="₇" horiz-adv-x="282" d="M135 -18 C152 84 205 198 259 290 L259 345 L25 345 L25 240 L69 240 L75 283 L193 283 C131 194 86 99 62 -3 L135 -18 Z " />
<glyph glyph-name="eightinferior" unicode="₈" horiz-adv-x="303" d="M211 180 C250 191 268 221 268 256 C268 330 219 354 154 354 C88 354 36 330 36 256 C36 218 57 186 96 172 C50 159 24 132 24 84 C24 12 81 -19 153 -19 C225 -19 278 12 278 89 C278 138 254 164 211 180 L211 180 Z M150 152 C185 145 208 127 208 95 C208 57 186 40 151 40 C116 40 94 57 94 93 C94 125 114 148 150 152 L150 152 Z M153 188 C119 195 98 215 98 244 C98 278 117 295 152 295 C186 295 204 278 204 242 C204 215 185 195 153 188 L153 188 Z " />
<glyph glyph-name="nineinferior" unicode="₉" horiz-adv-x="299" d="M106 -19 C216 -6 272 89 272 194 C272 279 244 354 146 354 C68 354 25 311 25 232 C25 171 53 124 122 124 C163 124 189 141 204 162 C195 94 158 45 89 37 L106 -19 Z M204 205 C190 185 167 171 143 171 C106 171 92 196 92 231 C92 269 107 295 145 295 C198 295 204 255 204 205 L204 205 Z " />
<glyph glyph-name="Euro" unicode="€" horiz-adv-x="553" d="M496 106 C459 82 410 73 353 73 C262 73 217 114 209 235 L338 235 L365 298 L207 298 L207 405 L408 405 L434 468 L208 468 C215 593 260 636 353 636 C406 636 453 628 489 606 L524 688 C479 715 420 728 353 728 C181 728 94 647 82 468 L25 468 L12 405 L81 405 L81 298 L25 298 L12 235 L83 235 C95 60 183 -18 353 -18 C429 -18 493 -2 541 31 L496 106 Z " />
<glyph glyph-name="uni2117" unicode="℗" horiz-adv-x="628" d="M596 454 C596 654 505 728 314 728 C122 728 32 654 32 454 L32 256 C32 56 122 -18 314 -18 C505 -18 596 56 596 256 L596 454 Z M536 256 C536 99 464 41 314 41 C164 41 92 99 92 256 L92 454 C92 610 164 667 314 667 C464 667 536 610 536 454 L536 256 Z M311 161 L311 200 L273 206 L273 304 L355 304 C433 304 463 341 463 430 C463 519 433 556 355 556 L174 556 L174 517 L207 511 L207 206 L174 200 L174 161 L311 161 Z M273 347 L273 510 L344 510 C384 510 399 487 399 429 C399 369 384 347 344 347 L273 347 Z " />
<glyph glyph-name="trademark" unicode="™" horiz-adv-x="900" d="M270 287 L270 331 L232 338 L232 653 L300 653 L307 542 L355 542 L355 710 L33 710 L33 542 L80 542 L88 653 L155 653 L155 338 L117 331 L117 287 L270 287 Z M866 287 L866 331 L832 338 L832 657 L866 665 L866 710 L720 710 L631 374 L545 710 L389 710 L389 665 L423 657 L423 338 L389 331 L389 287 L521 287 L521 331 L488 338 L488 649 L586 287 L664 287 L764 649 L764 338 L731 331 L731 287 L866 287 Z " />
<glyph glyph-name="Omega" unicode="Ω" horiz-adv-x="628" d="M563 0 L563 74 L457 85 C571 157 596 276 596 413 L596 463 C596 663 505 728 314 728 C122 728 32 663 32 463 L32 413 C32 276 56 162 171 85 L64 74 L64 0 L276 0 L276 86 C195 140 157 205 157 400 L157 471 C157 590 210 641 314 641 C419 641 472 588 472 471 L472 401 C472 205 433 141 352 86 L352 0 L563 0 Z " />
<glyph glyph-name="onethird" unicode="⅓" horiz-adv-x="628" d="M191 365 L191 410 L165 417 L165 720 L114 720 C89 692 61 669 29 647 L60 602 C71 609 83 618 96 627 L96 417 L65 410 L65 365 L191 365 Z M110 -21 L539 732 L473 732 L45 -21 L110 -21 Z M372 -3 C404 -15 437 -19 472 -19 C547 -19 599 12 599 86 C599 128 580 164 543 175 C575 186 592 219 592 256 C592 317 556 354 475 354 C440 354 402 346 373 327 L391 272 C411 286 439 294 465 294 C501 294 529 279 529 240 C529 209 511 196 482 196 L444 196 L444 144 L481 144 C512 144 533 129 533 95 C533 54 503 40 465 40 C438 40 409 47 390 55 L372 -3 Z " />
<glyph glyph-name="twothirds" unicode="⅔" horiz-adv-x="662" d="M268 365 L268 468 L224 468 L217 427 L114 427 C206 489 265 543 265 616 C265 694 225 729 150 729 C106 729 65 720 29 699 L51 639 C74 655 105 668 133 668 C171 668 196 646 196 610 C196 536 95 471 30 430 L30 365 L268 365 Z M154 -21 L583 732 L517 732 L89 -21 L154 -21 Z M406 -3 C438 -15 471 -19 506 -19 C581 -19 633 12 633 86 C633 128 614 164 577 175 C609 186 626 219 626 256 C626 317 590 354 509 354 C474 354 436 346 407 327 L425 272 C445 286 473 294 499 294 C535 294 563 279 563 240 C563 209 545 196 516 196 L478 196 L478 144 L515 144 C546 144 567 129 567 95 C567 54 537 40 499 40 C472 40 443 47 424 55 L406 -3 Z " />
<glyph glyph-name="oneeighth" unicode="⅛" horiz-adv-x="634" d="M191 365 L191 410 L165 417 L165 720 L114 720 C89 692 61 669 29 647 L60 602 C71 609 83 618 96 627 L96 417 L65 410 L65 365 L191 365 Z M110 -21 L539 732 L473 732 L45 -21 L110 -21 Z M538 180 C577 191 595 221 595 256 C595 330 546 354 481 354 C415 354 363 330 363 256 C363 218 384 186 423 172 C377 159 351 132 351 84 C351 12 408 -19 480 -19 C552 -19 605 12 605 89 C605 138 581 164 538 180 L538 180 Z M477 152 C512 145 535 127 535 95 C535 57 513 40 478 40 C443 40 421 57 421 93 C421 125 441 148 477 152 L477 152 Z M480 188 C446 195 425 215 425 244 C425 278 444 295 479 295 C513 295 531 278 531 242 C531 215 512 195 480 188 L480 188 Z " />
<glyph glyph-name="threeeighths" unicode="⅜" horiz-adv-x="639" d="M29 372 C61 360 94 356 129 356 C204 356 256 387 256 461 C256 503 237 539 200 550 C232 561 249 594 249 631 C249 692 213 729 132 729 C97 729 59 721 30 702 L48 647 C68 661 96 669 122 669 C158 669 186 654 186 615 C186 584 168 571 139 571 L101 571 L101 519 L138 519 C169 519 190 504 190 470 C190 429 160 415 122 415 C95 415 66 422 47 430 L29 372 Z M125 -21 L554 732 L488 732 L60 -21 L125 -21 Z M543 180 C582 191 600 221 600 256 C600 330 551 354 486 354 C420 354 368 330 368 256 C368 218 389 186 428 172 C382 159 356 132 356 84 C356 12 413 -19 485 -19 C557 -19 610 12 610 89 C610 138 586 164 543 180 L543 180 Z M482 152 C517 145 540 127 540 95 C540 57 518 40 483 40 C448 40 426 57 426 93 C426 125 446 148 482 152 L482 152 Z M485 188 C451 195 430 215 430 244 C430 278 449 295 484 295 C518 295 536 278 536 242 C536 215 517 195 485 188 L485 188 Z " />
<glyph glyph-name="fiveeighths" unicode="⅝" horiz-adv-x="637" d="M29 381 C55 364 91 356 126 356 C227 356 266 393 266 478 C266 547 239 588 165 588 C137 588 115 582 98 570 L106 660 L199 660 L205 617 L249 617 L249 720 L49 720 L31 520 L76 510 C93 531 118 542 143 542 C180 542 202 523 202 481 C202 436 178 416 133 416 C100 416 71 424 49 436 L29 381 Z M123 -21 L552 732 L486 732 L58 -21 L123 -21 Z M541 180 C580 191 598 221 598 256 C598 330 549 354 484 354 C418 354 366 330 366 256 C366 218 387 186 426 172 C380 159 354 132 354 84 C354 12 411 -19 483 -19 C555 -19 608 12 608 89 C608 138 584 164 541 180 L541 180 Z M480 152 C515 145 538 127 538 95 C538 57 516 40 481 40 C446 40 424 57 424 93 C424 125 444 148 480 152 L480 152 Z M483 188 C449 195 428 215 428 244 C428 278 447 295 482 295 C516 295 534 278 534 242 C534 215 515 195 483 188 L483 188 Z " />
<glyph glyph-name="seveneighths" unicode="⅞" horiz-adv-x="621" d="M140 357 C157 459 210 573 264 665 L264 720 L30 720 L30 615 L74 615 L80 658 L198 658 C136 569 91 474 67 372 L140 357 Z M97 -21 L526 732 L460 732 L32 -21 L97 -21 Z M525 180 C564 191 582 221 582 256 C582 330 533 354 468 354 C402 354 350 330 350 256 C350 218 371 186 410 172 C364 159 338 132 338 84 C338 12 395 -19 467 -19 C539 -19 592 12 592 89 C592 138 568 164 525 180 L525 180 Z M464 152 C499 145 522 127 522 95 C522 57 500 40 465 40 C430 40 408 57 408 93 C408 125 428 148 464 152 L464 152 Z M467 188 C433 195 412 215 412 244 C412 278 431 295 466 295 C500 295 518 278 518 242 C518 215 499 195 467 188 L467 188 Z " />
<glyph glyph-name="partialdiff" unicode="∂" horiz-adv-x="498" d="M204 622 C213 624 226 626 237 626 C331 626 380 549 380 424 C380 391 377 358 374 326 C352 424 285 460 209 460 C107 460 32 373 32 218 C32 68 82 -18 227 -18 C413 -18 466 197 466 432 C466 641 363 728 252 728 C235 728 218 725 204 722 L204 622 Z M359 265 C346 130 297 70 225 70 C147 70 115 123 115 218 C115 322 166 378 226 378 C304 378 342 339 359 265 L359 265 Z " />
<glyph glyph-name="Delta" unicode="∆" horiz-adv-x="636" d="M617 0 L617 74 L563 85 L397 710 L249 710 L74 85 L19 74 L19 0 L617 0 Z M425 85 L176 85 L305 580 L425 85 Z " />
<glyph glyph-name="product" unicode="∏" horiz-adv-x="499" d="M467 -228 L467 710 L32 710 L32 -228 L134 -228 L134 627 L363 627 L363 -228 L467 -228 Z " />
<glyph glyph-name="summation" unicode="∑" horiz-adv-x="436" d="M404 -195 L404 -98 L158 -98 L329 257 L158 612 L404 612 L404 710 L32 710 L32 638 L225 257 L32 -124 L32 -195 L404 -195 Z " />
<glyph glyph-name="minus" unicode="−" horiz-adv-x="605" d="M551 325 L551 410 L53 410 L53 325 L551 325 Z " />
<glyph glyph-name="radical" unicode="√" horiz-adv-x="513" d="M297 0 L490 710 L383 710 L242 147 L184 383 L32 383 L32 300 L103 300 L188 0 L297 0 Z " />
<glyph glyph-name="infinity" unicode="∞" horiz-adv-x="667" d="M333 290 C362 226 409 191 488 191 C570 191 635 249 635 364 C635 480 570 539 488 539 C410 539 366 503 333 439 C301 503 257 539 179 539 C98 539 32 480 32 364 C32 249 97 191 179 191 C257 191 305 226 333 290 L333 290 Z M298 362 C279 312 247 275 194 275 C138 275 110 306 110 364 C110 417 140 450 194 450 C243 450 274 418 298 362 L298 362 Z M370 362 C393 419 423 450 473 450 C527 450 557 417 557 364 C557 306 529 275 473 275 C420 275 387 310 370 362 L370 362 Z " />
<glyph glyph-name="integral" unicode="∫" horiz-adv-x="329" d="M15 -230 C37 -239 62 -240 89 -240 C174 -240 214 -192 214 -112 L214 594 C214 635 231 649 268 649 C284 649 298 649 314 643 L314 718 C290 727 266 728 239 728 C152 728 114 680 114 600 L114 -106 C114 -147 96 -161 59 -161 C44 -161 31 -161 15 -155 L15 -230 Z " />
<glyph glyph-name="approxequal" unicode="≈" horiz-adv-x="637" d="M583 312 C539 254 490 234 431 234 C360 234 292 300 192 300 C127 300 83 266 53 230 L53 137 C95 190 137 216 196 216 C273 216 340 150 425 150 C491 150 538 171 583 220 L583 312 Z M583 532 C539 474 490 454 431 454 C360 454 292 520 192 520 C127 520 83 486 53 450 L53 357 C95 410 137 436 196 436 C273 436 340 370 425 370 C491 370 538 391 583 440 L583 532 Z " />
<glyph glyph-name="notequal" unicode="≠" horiz-adv-x="605" d="M120 -21 L257 220 L551 220 L551 306 L306 306 L376 429 L551 429 L551 514 L425 514 L549 732 L483 732 L359 514 L53 514 L53 429 L311 429 L241 306 L53 306 L53 220 L192 220 L55 -21 L120 -21 Z " />
<glyph glyph-name="lessequal" unicode="≤" horiz-adv-x="605" d="M551 108 L551 203 L149 367 L551 530 L551 625 L53 409 L53 324 L551 108 Z M551 0 L551 85 L53 85 L53 0 L551 0 Z " />
<glyph glyph-name="greaterequal" unicode="≥" horiz-adv-x="605" d="M551 324 L551 409 L53 625 L53 530 L455 367 L53 203 L53 108 L551 324 Z M551 0 L551 85 L53 85 L53 0 L551 0 Z " />
<glyph glyph-name="lozenge" unicode="◊" horiz-adv-x="549" d="M343 7 L517 355 L343 702 L216 702 L32 355 L216 7 L343 7 Z M277 119 L154 355 L278 592 L400 355 L277 119 Z " />
<glyph glyph-name="zerooldstyle" unicode="" horiz-adv-x="542" d="M512 338 C512 518 418 575 270 575 C124 575 30 518 30 338 L30 220 C30 40 124 -16 270 -16 C418 -16 512 40 512 220 L512 338 Z M408 213 C408 108 346 78 270 78 C196 78 133 108 133 213 L133 341 C133 449 196 479 270 479 C346 479 408 449 408 341 L408 213 Z " />
<glyph glyph-name="oneoldstyle" unicode="" horiz-adv-x="331" d="M302 0 L302 74 L243 85 L243 559 L161 559 C115 512 64 471 8 435 L57 368 C81 384 106 402 131 422 L131 85 L64 74 L64 0 L302 0 Z " />
<glyph glyph-name="twooldstyle" unicode="" horiz-adv-x="521" d="M495 0 L495 181 L420 181 L410 88 L143 88 C279 149 485 240 485 412 C485 514 407 575 260 575 C168 575 101 558 28 522 L62 430 C114 460 173 483 257 483 C332 483 377 457 377 399 C377 268 178 170 30 97 L30 0 L495 0 Z " />
<glyph glyph-name="threeoldstyle" unicode="" horiz-adv-x="487" d="M19 -85 C81 -109 144 -116 212 -116 C359 -116 460 -58 460 78 C460 161 418 226 338 244 C407 262 446 321 446 394 C446 506 375 575 219 575 C150 575 76 560 20 525 L49 442 C92 469 150 485 203 485 C288 485 344 449 344 376 C344 306 303 276 234 276 L158 276 L158 197 L233 197 C307 197 353 163 353 91 C353 6 287 -26 201 -26 C146 -26 90 -14 47 3 L19 -85 Z " />
<glyph glyph-name="fouroldstyle" unicode="" horiz-adv-x="539" d="M465 -123 L465 0 L521 0 L521 90 L465 90 L465 329 L362 329 L362 90 L131 90 C211 210 290 367 340 509 L247 549 C190 395 101 224 18 96 L18 0 L358 0 L358 -123 L465 -123 Z " />
<glyph glyph-name="fiveoldstyle" unicode="" horiz-adv-x="509" d="M455 373 L455 559 L62 559 L28 188 L101 173 C142 224 195 244 251 244 C338 244 380 197 380 111 C380 16 329 -27 222 -27 C151 -27 98 -12 57 12 L23 -70 C78 -104 147 -116 224 -116 C390 -116 485 -46 485 104 C485 231 434 314 289 314 C236 314 173 303 132 263 L152 467 L371 467 L381 373 L455 373 Z " />
<glyph glyph-name="sixoldstyle" unicode="" horiz-adv-x="521" d="M343 653 C129 630 21 458 21 270 C21 119 74 -18 267 -18 C417 -18 501 58 501 200 C501 310 447 395 307 395 C217 395 161 358 130 316 C143 452 223 552 371 569 L343 653 Z M130 247 C158 289 209 322 275 322 C361 322 395 270 395 200 C395 118 354 67 268 67 C167 67 130 142 130 247 L130 247 Z " />
<glyph glyph-name="sevenoldstyle" unicode="" horiz-adv-x="474" d="M205 -114 C242 76 346 317 458 478 L458 559 L29 559 L29 374 L103 374 L112 468 L354 468 C235 306 137 98 91 -92 L205 -114 Z " />
<glyph glyph-name="eightoldstyle" unicode="" horiz-adv-x="530" d="M366 337 C455 357 491 414 491 478 C491 610 398 653 269 653 C141 653 40 610 40 477 C40 409 81 349 172 326 C78 307 18 257 18 167 C18 39 128 -18 270 -18 C411 -18 512 39 512 174 C512 273 457 314 366 337 L366 337 Z M267 295 C353 283 405 247 405 182 C405 104 350 70 268 70 C187 70 130 104 130 179 C130 244 177 287 267 295 L267 295 Z M270 350 C183 361 141 407 141 461 C141 534 189 567 269 567 C349 567 396 534 396 457 C396 407 355 361 270 350 L270 350 Z " />
<glyph glyph-name="nineoldstyle" unicode="" horiz-adv-x="521" d="M177 -116 C384 -93 499 86 499 287 C499 437 445 575 253 575 C103 575 19 496 19 353 C19 244 73 157 214 157 C300 157 358 192 391 234 C382 95 302 -15 149 -33 L177 -116 Z M392 307 C362 264 308 231 248 231 C159 231 127 286 127 357 C127 439 165 494 253 494 C364 494 392 412 392 307 L392 307 Z " />
<glyph glyph-name="uniF8FF" unicode="" horiz-adv-x="286" d="" />
<glyph glyph-name="fi" unicode="ﬁ" horiz-adv-x="625" d="M268 0 L268 74 L200 85 L200 449 L329 449 L329 526 L200 526 L200 582 C200 630 225 647 269 647 C297 647 314 642 329 634 L342 706 C322 719 292 728 233 728 C137 728 86 691 86 589 L86 526 L19 526 L19 449 L86 449 L86 85 L27 74 L27 0 L268 0 Z M601 0 L601 74 L543 85 L543 526 L369 526 L369 452 L427 441 L427 85 L369 74 L369 0 L601 0 Z M542 590 L542 719 L427 719 L427 590 L542 590 Z " />
<glyph glyph-name="fl" unicode="ﬂ" horiz-adv-x="640" d="M268 0 L268 74 L200 85 L200 449 L329 449 L329 526 L200 526 L200 582 C200 630 225 647 269 647 C297 647 314 642 329 634 L342 706 C322 719 292 728 233 728 C137 728 86 691 86 589 L86 526 L19 526 L19 449 L86 449 L86 85 L27 74 L27 0 L268 0 Z M616 0 L616 74 L558 85 L558 719 L384 719 L384 645 L442 634 L442 85 L384 74 L384 0 L616 0 Z " />
</font>
</svg>
