<?xml version="1.0" encoding="UTF-8"?>
<svg xmlns="http://www.w3.org/2000/svg" xmlns:xlink="http://www.w3.org/1999/xlink" version="1.2">
<font id="VectipedeRg-BoldItalic">
<font-face font-family="Vectipede" units-per-em="1000" ascent="760" descent="-240" font-style="italic" font-weight="700" font-stretch="normal" slope="-12" cap-height="710" x-height="526" underline-position="-133" underline-thickness="20" />
<missing-glyph horiz-adv-x="698" d="M338 119 L159 167 L187 269 C218 383 284 377 361 389 C413 397 422 412 441 472 C449 499 450 508 450 517 C450 560 411 595 352 595 C337 595 322 592 307 586 L277 523 L134 562 L175 720 C211 742 255 754 306 754 C449 754 638 682 638 521 C637 500 636 477 629 453 L615 404 C590 317 560 278 463 260 C413 250 374 251 359 195 L338 119 Z M280 -150 L71 -94 L120 92 L330 35 L280 -150 Z M548 -240 C630 -240 672 -203 672 -134 L672 721 C672 793 630 828 548 828 L148 828 C65 828 26 793 26 721 L26 -134 C26 -203 65 -240 148 -240 L548 -240 Z " />
<glyph glyph-name="NULL" d="" />
<glyph glyph-name="CR" unicode="&#xD;" horiz-adv-x="283" d="" />
<glyph glyph-name="space" unicode=" " horiz-adv-x="283" d="" />
<glyph glyph-name="exclam" unicode="!" horiz-adv-x="223" d="M185 0 L212 156 L63 156 L36 0 L185 0 Z M187 213 C255 411 295 534 314 710 L161 710 C114 534 110 411 110 213 L187 213 Z " />
<glyph glyph-name="quotedbl" unicode="&quot;" horiz-adv-x="356" d="M219 443 L266 710 L155 710 L108 443 L219 443 Z M401 443 L448 710 L337 710 L290 443 L401 443 Z " />
<glyph glyph-name="numbersign" unicode="#" horiz-adv-x="565" d="M414 710 L322 710 L255 509 L156 509 L127 414 L223 414 L184 295 L89 295 L62 201 L153 201 L87 0 L182 0 L247 201 L337 201 L272 0 L368 0 L433 201 L533 201 L560 295 L465 295 L503 414 L595 414 L626 509 L534 509 L601 710 L505 710 L438 509 L348 509 L414 710 Z M316 414 L407 414 L369 295 L278 295 L316 414 Z " />
<glyph glyph-name="dollar" unicode="$" horiz-adv-x="505" d="M307 0 L321 80 C424 90 498 132 515 224 L524 273 C526 284 527 295 527 304 C527 392 422 399 305 421 C253 430 236 437 236 463 C236 518 263 544 352 544 C381 544 408 542 430 531 L430 456 L529 456 L553 592 C523 616 478 629 418 633 L432 710 L318 710 L304 632 C207 622 132 584 114 489 L106 448 C104 437 103 427 103 418 C103 332 217 320 321 303 C371 294 388 289 388 260 C388 210 369 178 268 178 C236 178 204 187 179 202 L182 268 L80 268 L56 132 C89 106 139 87 207 80 L193 0 L307 0 Z " />
<glyph glyph-name="percent" unicode="%" horiz-adv-x="704" d="M383 597 C386 612 386 625 387 637 C387 706 346 729 280 729 C202 729 149 697 131 597 L111 487 C108 472 107 459 107 447 C107 379 148 356 214 356 C291 356 345 387 363 487 L383 597 Z M277 475 C270 435 247 426 226 426 C208 426 191 432 191 458 C191 463 192 469 193 475 L217 610 C224 649 247 658 267 658 C285 658 302 652 302 625 C302 620 302 615 301 610 L277 475 Z M187 -21 L737 732 L641 732 L93 -21 L187 -21 Z M717 222 C720 237 720 250 721 262 C721 331 680 354 614 354 C536 354 483 322 465 222 L445 112 C442 97 441 84 441 72 C441 4 482 -19 548 -19 C625 -19 679 12 697 112 L717 222 Z M611 100 C604 60 581 51 560 51 C542 51 525 57 525 83 C525 88 526 94 527 100 L551 235 C558 274 581 283 601 283 C619 283 636 277 636 250 C636 245 636 240 635 235 L611 100 Z " />
<glyph glyph-name="ampersand" unicode="&amp;" horiz-adv-x="647" d="M500 0 L624 0 L639 90 L590 103 L571 124 C634 174 655 222 672 319 L675 340 L555 340 L552 323 C545 285 537 250 495 217 L397 335 C504 382 543 425 557 508 L567 566 C570 583 572 600 572 614 C572 693 524 728 404 728 C262 728 194 679 174 566 L165 514 C162 499 161 485 161 472 C161 431 173 397 202 362 L202 361 C119 327 78 288 62 205 L52 153 C49 137 48 122 48 108 C48 11 119 -18 235 -18 C356 -18 414 -1 466 40 L500 0 Z M299 509 L308 556 C317 602 346 617 389 617 C424 617 447 611 447 576 C447 570 446 563 445 556 L436 508 C429 469 403 447 331 416 L330 415 C306 445 296 461 296 484 C296 491 297 500 299 509 L299 509 Z M388 133 C354 107 324 97 281 97 C225 97 197 108 197 152 C197 160 198 169 200 179 C211 241 219 258 269 280 L389 134 L388 133 Z " />
<glyph glyph-name="quotesingle" unicode="'" horiz-adv-x="171" d="M219 443 L266 710 L155 710 L108 443 L219 443 Z " />
<glyph glyph-name="parenleft" unicode="(" horiz-adv-x="349" d="M331 -153 C286 -47 264 84 264 198 C264 404 340 586 495 779 L390 779 C203 609 119 420 119 219 C119 89 154 -52 226 -153 L331 -153 Z " />
<glyph glyph-name="parenright" unicode=")" horiz-adv-x="349" d="M69 -153 C245 13 343 214 343 419 C343 544 309 678 233 779 L128 779 C174 677 196 549 196 438 C196 236 120 49 -36 -153 L69 -153 Z " />
<glyph glyph-name="asterisk" unicode="*" horiz-adv-x="431" d="M453 389 L370 504 L498 544 L473 613 L348 573 L348 716 L267 716 L267 573 L143 613 L120 544 L248 504 L165 389 L227 345 L308 457 L392 345 L453 389 Z " />
<glyph glyph-name="plus" unicode="+" horiz-adv-x="608" d="M374 113 L410 316 L612 316 L631 420 L429 420 L464 621 L360 621 L325 420 L124 420 L105 316 L306 316 L270 113 L374 113 Z " />
<glyph glyph-name="comma" unicode="," horiz-adv-x="214" d="M64 -137 C111 -103 157 -53 182 -7 L212 162 L60 162 L32 0 L115 0 C93 -34 59 -66 28 -91 L64 -137 Z " />
<glyph glyph-name="hyphen" unicode="-" horiz-adv-x="324" d="M343 273 L362 385 L96 385 L77 273 L343 273 Z " />
<glyph glyph-name="period" unicode="." horiz-adv-x="212" d="M182 0 L210 162 L58 162 L30 0 L182 0 Z " />
<glyph glyph-name="slash" unicode="/" horiz-adv-x="331" d="M105 -107 L451 710 L330 710 L-13 -107 L105 -107 Z " />
<glyph glyph-name="zero" unicode="0" horiz-adv-x="559" d="M609 464 C614 494 617 522 617 546 C617 682 536 728 408 728 C257 728 147 664 112 464 L74 245 C69 214 66 187 66 162 C66 27 147 -18 276 -18 C427 -18 535 45 571 245 L609 464 Z M426 228 C410 138 354 101 297 101 C247 101 208 114 208 182 C208 195 210 210 213 228 L257 481 C273 576 328 608 387 608 C435 608 475 595 475 528 C475 514 473 499 470 481 L426 228 Z " />
<glyph glyph-name="one" unicode="1" horiz-adv-x="358" d="M330 0 L346 91 L296 104 L403 710 L301 710 C242 655 178 608 106 565 L151 473 C177 486 204 504 232 523 L158 104 L95 91 L79 0 L330 0 Z " />
<glyph glyph-name="two" unicode="2" horiz-adv-x="529" d="M506 0 L542 207 L454 207 L426 124 L222 124 C458 267 594 384 594 567 C594 678 526 728 398 728 C311 728 226 711 146 669 L168 549 C220 581 286 606 343 606 C408 606 452 582 452 520 C452 372 213 221 54 131 L31 0 L506 0 Z " />
<glyph glyph-name="three" unicode="3" horiz-adv-x="502" d="M23 15 C83 -10 146 -18 216 -18 C367 -18 482 45 509 193 C512 208 513 222 513 236 C513 300 485 352 427 371 C509 397 558 486 558 578 C558 672 495 728 355 728 C285 728 205 712 140 674 L158 565 C202 592 262 609 314 609 C377 609 425 594 425 530 C425 457 380 413 312 413 L237 413 L219 309 L293 309 C347 309 381 292 381 238 C381 143 308 100 223 100 C169 100 115 114 79 130 L23 15 Z " />
<glyph glyph-name="four" unicode="4" horiz-adv-x="556" d="M482 0 L504 125 L559 125 L578 235 L523 235 L566 481 L438 481 L395 235 L197 235 C295 363 403 533 477 680 L364 725 C282 570 178 407 63 257 L40 125 L372 125 L350 0 L482 0 Z " />
<glyph glyph-name="five" unicode="5" horiz-adv-x="523" d="M30 33 C76 -2 145 -18 214 -18 C416 -18 507 57 537 226 C541 251 544 274 544 295 C544 391 496 446 374 446 C319 446 272 434 235 411 L283 590 L468 590 L466 505 L553 505 L589 710 L189 710 L83 310 L170 290 C211 333 265 354 315 354 C378 354 414 335 414 271 C414 158 350 102 250 102 C183 102 129 119 89 142 L30 33 Z " />
<glyph glyph-name="six" unicode="6" horiz-adv-x="538" d="M482 728 C219 697 63 438 63 184 C63 60 116 -18 271 -18 C426 -18 527 67 555 225 C559 246 561 265 561 284 C561 376 514 441 399 441 C318 441 259 406 222 365 C262 500 354 598 496 615 L482 728 Z M207 279 C243 320 292 348 343 348 C401 348 428 323 428 270 C428 198 388 94 293 94 C220 94 194 127 194 189 C194 215 200 247 207 279 L207 279 Z " />
<glyph glyph-name="seven" unicode="7" horiz-adv-x="505" d="M239 -16 C310 188 453 416 594 600 L614 710 L145 710 L108 501 L196 501 L224 586 L457 586 C302 409 180 219 97 15 L239 -16 Z " />
<glyph glyph-name="eight" unicode="8" horiz-adv-x="546" d="M460 380 C561 408 603 490 603 580 C603 691 521 728 406 728 C257 728 133 649 133 498 C133 438 164 389 227 365 C119 336 48 268 48 146 C48 32 144 -18 272 -18 C436 -18 566 79 566 241 C566 312 527 353 460 380 L460 380 Z M328 324 C386 312 425 288 425 233 C425 154 367 101 290 101 C230 101 191 120 191 176 C191 247 241 314 328 324 L328 324 Z M345 396 C289 408 254 436 254 487 C254 562 307 611 381 611 C439 611 471 593 471 539 C471 476 432 414 345 396 L345 396 Z " />
<glyph glyph-name="nine" unicode="9" horiz-adv-x="538" d="M179 -18 C441 12 595 269 595 514 C595 636 544 728 390 728 C207 728 100 591 100 427 C100 334 146 269 261 269 C343 269 401 303 439 344 C397 209 305 111 165 94 L179 -18 Z M453 430 C418 390 369 363 320 363 C261 363 234 386 234 439 C234 531 281 611 368 611 C439 611 465 574 465 514 C465 490 463 459 453 430 L453 430 Z " />
<glyph glyph-name="colon" unicode=":" horiz-adv-x="238" d="M194 0 L222 162 L71 162 L43 0 L194 0 Z M258 363 L286 523 L135 523 L107 363 L258 363 Z " />
<glyph glyph-name="semicolon" unicode=";" horiz-adv-x="240" d="M76 -137 C124 -103 170 -53 194 -7 L224 162 L72 162 L44 0 L128 0 C106 -34 71 -66 41 -91 L76 -137 Z M260 363 L288 523 L136 523 L108 363 L260 363 Z " />
<glyph glyph-name="less" unicode="&lt;" horiz-adv-x="608" d="M575 106 L595 219 L232 365 L647 510 L667 628 L123 419 L105 315 L575 106 Z " />
<glyph glyph-name="equal" unicode="=" horiz-adv-x="608" d="M631 421 L649 525 L142 525 L124 421 L631 421 Z M594 210 L612 314 L105 314 L87 210 L594 210 Z " />
<glyph glyph-name="greater" unicode="&gt;" horiz-adv-x="608" d="M612 315 L630 419 L160 628 L140 514 L504 369 L88 223 L68 106 L612 315 Z " />
<glyph glyph-name="question" unicode="?" horiz-adv-x="463" d="M308 224 L319 284 C328 332 355 345 408 366 C483 396 511 433 523 506 L530 548 C532 562 533 575 533 588 C533 679 469 728 349 728 C261 728 193 706 145 662 L122 529 L223 529 L245 596 C269 613 295 623 326 623 C374 623 402 610 402 564 C402 557 402 548 400 538 L397 520 C388 466 376 447 329 430 C252 403 210 389 195 303 L181 224 L308 224 Z M279 0 L306 156 L157 156 L130 0 L279 0 Z " />
<glyph glyph-name="at" unicode="@" horiz-adv-x="578" d="M433 -65 C399 -73 350 -78 297 -78 C222 -78 141 -64 141 64 C141 85 144 110 149 139 L186 349 C213 502 256 545 392 545 C486 545 530 531 530 461 C530 447 528 431 525 413 L521 388 C491 410 453 418 411 418 C327 418 291 377 275 286 L257 184 C253 163 251 146 251 130 C251 71 278 45 343 45 C395 45 445 62 481 102 L478 57 L559 57 L621 410 C625 432 627 453 627 471 C627 589 549 633 407 633 C221 633 129 574 89 345 L51 128 C45 94 42 64 42 37 C42 -125 144 -168 286 -168 C335 -168 392 -160 437 -146 L433 -65 Z M482 168 C458 142 427 128 395 128 C364 128 352 137 352 163 C352 172 353 181 355 193 L368 272 C375 317 393 340 439 340 C466 340 491 330 508 313 L482 168 Z " />
<glyph glyph-name="A" unicode="A" horiz-adv-x="642" d="M621 0 L636 90 L591 103 C577 305 566 507 553 710 L349 710 L86 103 L35 90 L20 0 L233 0 L248 90 L204 103 L255 223 L428 223 L434 103 L380 90 L365 0 L621 0 Z M426 315 L291 315 L411 595 L426 315 Z " />
<glyph glyph-name="B" unicode="B" horiz-adv-x="595" d="M370 0 C517 0 582 62 599 157 L608 208 C611 228 613 245 613 260 C613 325 582 348 542 362 C596 382 629 412 646 509 L652 544 C655 560 656 575 656 589 C656 663 614 710 502 710 L154 710 L138 619 L187 606 L99 104 L45 91 L29 0 L370 0 Z M451 198 C439 136 415 104 362 104 L248 104 L285 317 L401 317 C442 317 459 300 459 260 C459 248 458 235 455 219 L451 198 Z M503 501 C495 450 463 410 418 410 L302 410 L336 605 L451 605 C491 605 509 591 509 553 C509 544 508 533 506 521 L503 501 Z " />
<glyph glyph-name="C" unicode="C" horiz-adv-x="557" d="M567 198 L448 198 L427 126 C399 99 363 91 328 91 C255 91 224 113 224 188 C224 212 227 243 234 281 L260 428 C281 550 323 618 420 618 C455 618 488 609 505 584 L502 512 L621 512 L647 661 C610 708 528 728 452 728 C238 728 143 655 103 428 L77 282 C70 241 66 206 66 175 C66 31 144 -18 320 -18 C396 -18 478 0 542 54 L567 198 Z " />
<glyph glyph-name="D" unicode="D" horiz-adv-x="622" d="M340 0 C521 0 606 74 640 269 L670 441 C676 476 679 508 679 535 C679 660 613 710 465 710 L154 710 L138 619 L187 606 L99 104 L45 91 L29 0 L340 0 Z M484 264 C465 159 424 108 359 108 L255 108 L342 602 L446 602 C497 602 524 586 524 522 C524 501 521 477 516 446 L484 264 Z " />
<glyph glyph-name="E" unicode="E" horiz-adv-x="571" d="M538 0 L576 219 L490 219 L453 116 L253 116 L289 318 L454 318 L458 263 L530 263 L567 474 L495 474 L471 419 L306 419 L338 600 L537 600 L537 513 L622 513 L657 710 L154 710 L138 619 L187 606 L99 104 L45 91 L29 0 L538 0 Z " />
<glyph glyph-name="F" unicode="F" horiz-adv-x="562" d="M295 0 L311 91 L254 104 L286 288 L443 288 L446 232 L518 232 L556 446 L484 446 L461 391 L304 391 L341 596 L540 596 L540 497 L625 497 L663 710 L154 710 L138 619 L187 606 L99 104 L45 91 L29 0 L295 0 Z " />
<glyph glyph-name="G" unicode="G" horiz-adv-x="581" d="M429 126 C413 110 379 98 320 98 C252 98 223 124 223 195 C223 217 226 242 231 272 L259 429 C282 559 327 618 421 618 C458 618 496 610 513 584 L510 512 L629 512 L655 661 C618 708 532 728 438 728 C241 728 144 652 104 428 L76 272 C69 235 66 202 66 173 C66 40 136 -18 300 -18 C436 -18 535 33 563 58 L622 392 L388 392 L373 307 L458 294 L429 126 Z " />
<glyph glyph-name="H" unicode="H" horiz-adv-x="666" d="M637 0 L653 91 L602 104 L690 606 L746 619 L762 710 L510 710 L494 619 L540 606 L506 413 L304 413 L338 606 L389 619 L405 710 L154 710 L138 619 L187 606 L99 104 L45 91 L29 0 L280 0 L296 91 L250 104 L285 306 L487 306 L452 104 L401 91 L385 0 L637 0 Z " />
<glyph glyph-name="I" unicode="I" horiz-adv-x="317" d="M288 0 L304 91 L254 104 L342 606 L397 619 L413 710 L154 710 L138 619 L187 606 L99 104 L45 91 L29 0 L288 0 Z " />
<glyph glyph-name="J" unicode="J" horiz-adv-x="328" d="M-88 -152 C-70 -182 -35 -206 27 -206 C167 -206 232 -114 259 40 L358 606 L407 618 L424 710 L166 710 L149 618 L205 606 L105 35 C95 -24 66 -87 0 -87 C-28 -87 -46 -78 -62 -61 L-88 -152 Z " />
<glyph glyph-name="K" unicode="K" horiz-adv-x="650" d="M628 0 L642 83 L590 104 L445 421 L646 601 L714 619 L730 710 L500 710 L484 619 L527 606 L304 404 L339 606 L390 619 L406 710 L154 710 L138 619 L187 606 L99 104 L45 91 L29 0 L281 0 L297 91 L251 104 L298 371 L450 0 L628 0 Z " />
<glyph glyph-name="L" unicode="L" horiz-adv-x="539" d="M512 0 L561 280 L473 280 L430 119 L256 119 L342 606 L398 619 L414 710 L154 710 L138 619 L187 606 L99 104 L45 92 L29 0 L512 0 Z " />
<glyph glyph-name="M" unicode="M" horiz-adv-x="872" d="M843 0 L859 91 L809 104 L897 606 L952 619 L968 710 L691 710 L477 176 L454 710 L154 710 L138 619 L187 606 L99 104 L45 91 L29 0 L259 0 L275 91 L229 104 L315 592 L354 0 L511 0 L761 592 L675 104 L625 91 L609 0 L843 0 Z " />
<glyph glyph-name="N" unicode="N" horiz-adv-x="671" d="M595 0 L701 606 L754 619 L770 710 L550 710 L534 619 L579 606 L518 260 L382 710 L154 710 L138 619 L187 606 L99 104 L45 91 L29 0 L260 0 L276 91 L221 104 L289 491 L466 0 L595 0 Z " />
<glyph glyph-name="O" unicode="O" horiz-adv-x="611" d="M657 426 C663 460 666 492 666 520 C666 663 590 728 433 728 C244 728 141 635 104 426 L79 284 C73 248 69 216 69 187 C69 46 145 -18 301 -18 C489 -18 595 75 632 284 L657 426 Z M476 284 C451 145 406 94 321 94 C257 94 223 111 223 188 C223 213 227 245 234 284 L259 426 C283 561 328 616 413 616 C478 616 511 598 511 520 C511 495 508 464 501 426 L476 284 Z " />
<glyph glyph-name="P" unicode="P" horiz-adv-x="580" d="M292 0 L308 91 L252 104 L279 259 L404 259 C549 259 616 325 644 485 C649 515 652 542 652 565 C652 667 601 710 484 710 L154 710 L138 619 L187 606 L99 104 L45 91 L29 0 L292 0 Z M296 353 L340 605 L440 605 C481 605 501 591 501 541 C501 525 499 505 495 481 C480 398 450 353 396 353 L296 353 Z " />
<glyph glyph-name="Q" unicode="Q" horiz-adv-x="624" d="M562 -71 C546 -83 532 -88 519 -88 C491 -88 454 -62 454 23 C555 60 621 146 646 291 L671 435 C676 467 679 496 679 522 C679 663 598 728 440 728 C253 728 140 637 105 435 L80 291 C74 259 71 229 71 203 C71 60 155 -1 317 -1 C317 -119 386 -181 464 -181 C504 -181 536 -167 548 -148 L562 -71 Z M492 299 C467 163 418 111 331 111 C264 111 227 131 227 214 C227 237 230 265 236 299 L260 432 C284 564 334 620 421 620 C488 620 524 597 524 514 C524 492 522 464 516 432 L492 299 Z " />
<glyph glyph-name="R" unicode="R" horiz-adv-x="646" d="M624 0 L640 91 L591 104 L608 203 C611 224 613 242 613 257 C613 325 580 348 538 360 C592 377 631 410 648 509 L654 544 C657 560 658 575 658 589 C658 663 616 710 504 710 L154 710 L138 619 L187 606 L99 104 L45 91 L29 0 L282 0 L298 91 L248 104 L284 309 L407 309 C445 309 463 296 463 258 C463 249 462 238 460 225 L435 82 C433 70 431 59 431 50 C431 14 451 0 502 0 L624 0 Z M502 499 C492 443 464 405 418 405 L301 405 L335 600 L449 600 C488 600 507 588 507 545 C507 532 505 517 502 499 L502 499 Z " />
<glyph glyph-name="S" unicode="S" horiz-adv-x="553" d="M558 199 C567 245 570 270 570 290 C570 383 500 405 405 426 C292 451 261 462 261 502 C261 595 318 629 386 629 C427 629 457 623 480 605 L473 512 L587 512 L613 662 C572 708 505 728 404 728 C224 728 141 661 118 528 C108 472 107 457 107 444 C107 346 205 322 285 302 C392 275 418 268 418 232 C418 165 392 93 275 93 C232 93 197 102 171 127 L177 198 L64 198 L38 51 C94 0 176 -18 258 -18 C428 -18 527 42 558 199 L558 199 Z " />
<glyph glyph-name="T" unicode="T" horiz-adv-x="588" d="M429 0 L445 91 L389 104 L476 596 L572 596 L556 430 L644 430 L694 710 L144 710 L94 430 L181 430 L225 596 L322 596 L235 104 L174 91 L158 0 L429 0 Z " />
<glyph glyph-name="U" unicode="U" horiz-adv-x="672" d="M504 224 C489 140 452 105 363 105 C293 105 261 119 261 178 C261 191 263 206 266 224 L333 606 L384 619 L400 710 L149 710 L133 619 L176 606 L112 241 C106 205 102 174 102 146 C102 28 164 -18 330 -18 C556 -18 611 53 644 241 L708 606 L758 619 L774 710 L542 710 L526 619 L571 606 L504 224 Z " />
<glyph glyph-name="V" unicode="V" horiz-adv-x="632" d="M399 0 L670 606 L721 619 L737 710 L515 710 L499 619 L541 606 L356 160 L338 606 L391 619 L407 710 L146 710 L130 619 L174 606 L222 0 L399 0 Z " />
<glyph glyph-name="W" unicode="W" horiz-adv-x="899" d="M724 0 L936 606 L987 619 L1003 710 L780 710 L764 619 L806 606 L675 180 L657 710 L529 710 L314 180 L337 606 L389 619 L405 710 L146 710 L130 619 L175 606 L175 0 L347 0 L535 465 L554 0 L724 0 Z " />
<glyph glyph-name="X" unicode="X" horiz-adv-x="622" d="M602 0 L618 91 L570 104 L455 370 L645 606 L704 619 L720 710 L503 710 L487 619 L525 606 L409 454 L349 606 L396 619 L412 710 L152 710 L136 619 L187 606 L302 353 L96 104 L40 91 L24 0 L239 0 L255 91 L216 104 L343 268 L408 104 L362 91 L346 0 L602 0 Z " />
<glyph glyph-name="Y" unicode="Y" horiz-adv-x="601" d="M436 0 L452 91 L396 104 L426 273 L641 606 L689 619 L705 710 L507 710 L491 619 L529 606 L388 382 L327 606 L375 619 L391 710 L146 710 L130 619 L171 606 L271 273 L241 104 L181 91 L165 0 L436 0 Z " />
<glyph glyph-name="Z" unicode="Z" horiz-adv-x="552" d="M528 0 L577 280 L488 280 L441 114 L210 114 L622 602 L641 710 L150 710 L100 430 L190 430 L238 598 L444 598 L48 141 L24 0 L528 0 Z " />
<glyph glyph-name="bracketleft" unicode="[" horiz-adv-x="361" d="M319 -139 L336 -42 L214 -42 L340 671 L462 671 L479 769 L229 769 L69 -139 L319 -139 Z " />
<glyph glyph-name="backslash" unicode="\" horiz-adv-x="331" d="M307 -107 L251 710 L130 710 L188 -107 L307 -107 Z " />
<glyph glyph-name="bracketright" unicode="]" horiz-adv-x="358" d="M244 -139 L404 769 L152 769 L135 671 L259 671 L133 -42 L9 -42 L-7 -139 L244 -139 Z " />
<glyph glyph-name="asciicircum" unicode="^" horiz-adv-x="361" d="M421 506 L340 710 L269 710 L118 506 L217 506 L290 611 L324 506 L421 506 Z " />
<glyph glyph-name="underscore" unicode="_" horiz-adv-x="451" d="M424 -146 L437 -73 L-9 -73 L-22 -146 L424 -146 Z " />
<glyph glyph-name="grave" unicode="`" horiz-adv-x="273" d="M346 580 L299 766 L164 766 L260 580 L346 580 Z " />
<glyph glyph-name="a" unicode="a" horiz-adv-x="546" d="M538 80 C529 73 523 70 513 70 C498 70 490 76 490 94 C490 98 490 103 491 108 L538 379 C541 396 543 412 543 427 C543 509 490 540 364 540 C286 540 204 528 131 485 L156 385 C210 416 267 428 322 428 C375 428 402 423 402 385 C402 379 401 372 400 365 L388 299 C344 313 292 325 227 325 C125 325 68 278 51 184 C40 125 39 111 39 98 C39 28 78 -18 171 -18 C252 -18 324 16 360 68 C363 14 392 -17 451 -17 C482 -17 509 -10 531 7 L538 80 Z M359 132 C324 105 280 83 232 83 C195 83 180 93 180 123 C180 185 203 243 266 243 C313 243 353 234 376 227 L359 132 Z " />
<glyph glyph-name="b" unicode="b" horiz-adv-x="564" d="M592 316 C598 348 600 377 600 402 C600 496 559 540 467 540 C398 540 335 520 279 475 L322 719 L128 719 L112 628 L162 615 L54 0 L142 0 L179 55 C217 5 281 -18 351 -18 C485 -18 545 49 574 214 L592 316 Z M434 220 C420 145 391 99 319 99 C282 99 243 112 219 133 L262 375 C299 409 342 428 391 428 C435 428 456 415 456 365 C456 350 454 331 450 308 L434 220 Z " />
<glyph glyph-name="c" unicode="c" horiz-adv-x="479" d="M440 177 C404 126 348 101 293 101 C227 101 198 123 198 178 C198 191 200 206 203 223 L220 320 C231 386 269 435 336 435 C364 435 390 428 405 408 L403 341 L507 341 L530 474 C490 525 423 540 347 540 C186 540 103 451 81 323 L61 208 C57 188 56 168 56 151 C56 43 121 -18 260 -18 C346 -18 423 19 480 95 L440 177 Z " />
<glyph glyph-name="d" unicode="d" horiz-adv-x="582" d="M560 0 L576 91 L526 104 L634 719 L440 719 L424 628 L474 615 L452 489 C416 526 359 542 302 542 C167 542 108 475 79 310 L61 208 C55 176 52 147 52 123 C52 28 94 -15 186 -15 C255 -15 317 4 385 58 L379 0 L560 0 Z M392 153 C355 118 311 100 263 100 C218 100 197 115 197 165 C198 180 199 198 203 220 L219 307 C234 387 262 429 334 429 C372 429 411 416 435 394 L392 153 Z " />
<glyph glyph-name="e" unicode="e" horiz-adv-x="507" d="M518 223 L530 290 C536 327 540 360 540 389 C540 488 494 540 351 540 C181 540 107 461 78 298 L64 220 C60 199 58 180 58 161 C58 54 119 -18 264 -18 C375 -18 445 16 486 71 L451 153 C417 116 376 93 303 93 C227 93 195 110 195 170 C195 185 197 203 201 223 L518 223 Z M217 313 C229 381 252 443 336 443 C396 443 413 419 413 376 C413 358 410 337 406 313 L217 313 Z " />
<glyph glyph-name="f" unicode="f" horiz-adv-x="344" d="M279 0 L295 91 L235 104 L293 432 L408 432 L424 526 L309 526 L318 578 C324 613 349 629 384 629 C409 629 424 625 435 618 L466 706 C448 719 418 728 358 728 C257 728 200 691 181 587 L170 526 L110 526 L94 432 L154 432 L96 104 L41 91 L25 0 L279 0 Z " />
<glyph glyph-name="g" unicode="g" horiz-adv-x="530" d="M362 5 C348 -68 316 -122 221 -122 C169 -122 118 -109 80 -80 L26 -174 C71 -227 148 -240 223 -240 C375 -240 470 -179 499 -14 L594 526 L507 526 L469 470 C440 513 384 539 299 539 C160 539 104 463 79 311 L68 244 C62 211 59 181 59 155 C59 66 96 18 192 18 C258 18 322 40 377 86 L362 5 Z M394 182 C357 148 312 129 264 129 C217 129 200 148 200 190 C199 205 202 223 206 244 L217 309 C228 377 253 430 330 430 C366 430 410 416 431 396 L394 182 Z " />
<glyph glyph-name="h" unicode="h" horiz-adv-x="634" d="M612 0 L628 91 L578 104 L629 396 C631 410 633 423 633 435 C633 506 590 540 502 540 C430 540 363 526 302 483 L343 719 L149 719 L133 628 L183 615 L93 104 L39 91 L23 0 L266 0 L282 91 L235 104 L284 381 C327 416 373 426 423 426 C460 426 484 418 484 384 C484 379 483 373 482 366 L436 104 L385 91 L369 0 L612 0 Z " />
<glyph glyph-name="i" unicode="i" horiz-adv-x="291" d="M269 0 L285 91 L235 104 L309 526 L115 526 L99 435 L149 422 L93 104 L39 91 L23 0 L269 0 Z M321 590 L343 719 L201 719 L179 590 L321 590 Z " />
<glyph glyph-name="j" unicode="j" horiz-adv-x="246" d="M-111 -190 C-92 -222 -54 -240 1 -240 C121 -240 180 -156 205 -16 L300 526 L104 526 L88 434 L140 422 L63 -16 C55 -61 33 -126 -30 -126 C-54 -126 -69 -120 -84 -105 L-111 -190 Z M311 590 L333 719 L191 719 L169 590 L311 590 Z " />
<glyph glyph-name="k" unicode="k" horiz-adv-x="570" d="M555 0 L571 91 L519 104 L402 301 L545 424 L603 435 L619 526 L405 526 L389 435 L436 424 L264 268 L343 719 L149 719 L133 628 L183 615 L93 104 L39 91 L23 0 L258 0 L274 91 L235 104 L259 241 L393 0 L555 0 Z " />
<glyph glyph-name="l" unicode="l" horiz-adv-x="291" d="M269 0 L285 91 L235 104 L343 719 L149 719 L133 628 L183 615 L93 104 L39 91 L23 0 L269 0 Z " />
<glyph glyph-name="m" unicode="m" horiz-adv-x="940" d="M918 0 L934 91 L884 104 L935 396 C937 411 939 424 939 436 C939 506 898 540 814 540 C729 540 677 519 607 465 C597 516 558 540 488 540 C402 540 350 519 286 467 L293 526 L115 526 L99 435 L148 422 L92 104 L39 91 L23 0 L261 0 L277 91 L231 104 L280 382 C320 417 363 427 411 427 C445 427 468 419 468 385 C468 379 467 373 466 366 L420 104 L371 91 L355 0 L588 0 L604 92 L558 104 L607 384 C648 417 690 427 737 427 C771 427 794 419 794 385 C794 379 793 373 792 366 L746 104 L696 91 L680 0 L918 0 Z " />
<glyph glyph-name="n" unicode="n" horiz-adv-x="634" d="M612 0 L628 91 L578 104 L629 396 C631 410 633 423 633 435 C633 506 590 540 502 540 C411 540 356 519 290 467 L297 526 L115 526 L99 435 L149 422 L93 104 L39 91 L23 0 L266 0 L282 91 L235 104 L284 382 C327 417 373 427 423 427 C460 427 484 419 484 385 C484 379 483 373 482 366 L436 104 L385 91 L369 0 L612 0 Z " />
<glyph glyph-name="o" unicode="o" horiz-adv-x="525" d="M555 315 C559 339 561 362 561 382 C561 491 497 540 357 540 C192 540 108 471 80 315 L61 208 C56 183 54 161 54 140 C54 31 119 -18 258 -18 C424 -18 508 51 536 208 L555 315 Z M399 217 C384 129 353 91 278 91 C220 91 195 102 195 156 C195 172 198 192 202 217 L217 306 C231 392 263 431 337 431 C395 431 421 420 421 367 C422 351 418 331 414 306 L399 217 Z " />
<glyph glyph-name="p" unicode="p" horiz-adv-x="579" d="M234 -228 L250 -137 L191 -124 L219 36 C254 -1 311 -17 369 -17 C503 -17 562 50 591 215 L609 317 C615 350 618 379 618 404 C618 497 576 540 484 540 C415 540 352 521 285 468 L292 526 L111 526 L95 435 L145 422 L49 -124 L-5 -137 L-21 -228 L234 -228 Z M450 214 C436 135 407 93 335 93 C298 93 258 106 235 128 L278 373 C314 407 359 425 407 425 C451 425 473 412 473 362 C473 348 471 330 467 308 L450 214 Z " />
<glyph glyph-name="q" unicode="q" horiz-adv-x="539" d="M519 -228 L535 -137 L486 -124 L600 526 L512 526 L474 470 C435 520 372 540 302 540 C168 540 108 476 79 311 L61 209 C55 176 52 148 52 122 C52 27 94 -18 186 -18 C254 -18 318 5 374 50 L344 -124 L279 -137 L263 -228 L519 -228 Z M392 148 C354 113 310 95 262 95 C218 95 197 108 197 157 C197 173 199 192 203 215 L219 305 C232 381 262 426 335 426 C372 426 410 414 435 392 L392 148 Z " />
<glyph glyph-name="r" unicode="r" horiz-adv-x="409" d="M275 0 L291 91 L235 104 L280 360 C326 396 370 408 417 408 C433 408 445 407 460 404 L501 538 C496 539 482 540 470 540 C393 540 334 512 286 465 L292 526 L115 526 L99 435 L149 422 L93 104 L39 91 L23 0 L275 0 Z " />
<glyph glyph-name="s" unicode="s" horiz-adv-x="492" d="M494 129 C502 166 505 189 505 206 C505 286 434 300 285 323 C226 332 214 340 214 367 C214 432 245 444 331 444 C363 444 386 441 407 432 L404 360 L508 360 L532 496 C495 526 436 540 343 540 C198 540 85 494 85 332 C85 251 160 233 218 222 C352 197 367 207 367 164 C367 97 325 84 247 84 C214 84 186 92 161 107 L164 172 L59 172 L35 36 C75 5 142 -18 238 -18 C375 -18 470 17 494 129 L494 129 Z " />
<glyph glyph-name="t" unicode="t" horiz-adv-x="361" d="M364 115 C343 100 325 93 301 93 C256 93 237 108 237 146 C237 156 239 168 241 181 L286 432 L421 432 L437 526 L302 526 L327 666 L186 642 L165 526 L108 526 L92 432 L149 432 L105 183 C100 158 98 135 98 114 C98 32 136 -18 233 -18 C290 -18 331 0 361 31 L364 115 Z " />
<glyph glyph-name="u" unicode="u" horiz-adv-x="579" d="M424 164 C416 119 390 96 316 96 C254 96 228 105 228 142 C228 149 228 156 230 164 L276 422 L326 435 L342 526 L110 526 L94 435 L135 422 L89 162 C86 146 84 130 84 116 C84 21 153 -18 289 -18 C445 -18 523 34 546 162 L592 422 L637 435 L653 526 L440 526 L424 435 L470 422 L424 164 Z " />
<glyph glyph-name="v" unicode="v" horiz-adv-x="577" d="M376 0 L594 426 L638 435 L654 526 L454 526 L438 435 L477 426 L320 113 L283 426 L326 435 L342 526 L108 526 L92 435 L133 426 L203 0 L376 0 Z " />
<glyph glyph-name="w" unicode="w" horiz-adv-x="809" d="M674 0 L826 426 L869 435 L885 526 L688 526 L672 435 L712 426 L609 115 L582 526 L446 526 L266 115 L276 426 L318 435 L334 526 L108 526 L92 434 L129 425 L138 0 L314 0 L473 366 L499 0 L674 0 Z " />
<glyph glyph-name="x" unicode="x" horiz-adv-x="573" d="M556 0 L572 91 L534 100 L414 272 L581 426 L624 435 L640 526 L435 526 L419 435 L457 426 L358 327 L299 426 L342 435 L358 526 L116 526 L100 435 L138 426 L256 266 L74 100 L34 91 L18 0 L219 0 L235 91 L200 100 L307 207 L371 100 L329 91 L313 0 L556 0 Z " />
<glyph glyph-name="y" unicode="y" horiz-adv-x="573" d="M214 -21 L203 -40 C176 -86 150 -116 102 -116 C66 -116 45 -105 28 -87 L-25 -189 C0 -222 42 -239 95 -239 C209 -239 270 -155 332 -42 L588 425 L633 434 L649 526 L449 526 L433 434 L471 425 L319 125 L277 425 L321 434 L337 526 L106 526 L90 434 L132 425 L214 -21 Z " />
<glyph glyph-name="z" unicode="z" horiz-adv-x="517" d="M495 0 L531 207 L429 207 L392 97 L210 97 L561 446 L575 526 L115 526 L83 344 L185 344 L213 435 L376 435 L40 105 L22 0 L495 0 Z " />
<glyph glyph-name="braceleft" unicode="{" horiz-adv-x="376" d="M323 -140 L339 -49 L312 -49 C266 -49 246 -44 246 -12 C246 -5 247 3 249 13 C261 80 279 127 291 197 C293 207 294 216 294 225 C294 279 259 311 194 316 C273 324 321 365 337 454 C347 513 344 552 356 619 C364 664 385 679 440 679 L467 679 L483 770 L442 770 C288 770 252 717 236 626 C227 574 224 501 220 475 C205 393 174 363 109 363 L92 268 C144 268 170 257 170 206 C170 193 168 178 165 159 C158 118 122 9 122 -43 C122 -106 157 -140 282 -140 L323 -140 Z " />
<glyph glyph-name="bar" unicode="|" horiz-adv-x="281" d="M174 -134 L336 788 L222 788 L60 -134 L174 -134 Z " />
<glyph glyph-name="braceright" unicode="}" horiz-adv-x="377" d="M43 -140 C197 -140 233 -88 250 6 C259 58 261 131 266 159 C280 240 311 268 377 268 L394 363 C341 363 316 375 316 427 C316 440 318 456 321 475 C327 513 364 620 364 672 C364 735 328 770 203 770 L162 770 L146 679 L173 679 C219 679 239 672 239 640 C239 634 238 627 237 619 C225 552 208 513 198 454 C195 439 194 426 194 414 C194 353 228 323 291 316 C212 310 164 268 152 197 C139 127 142 80 130 13 C121 -35 100 -49 45 -49 L18 -49 L2 -140 L43 -140 Z " />
<glyph glyph-name="asciitilde" unicode="~" horiz-adv-x="640" d="M665 432 C610 373 558 353 498 353 C428 353 365 421 262 421 C195 421 149 391 111 354 L91 237 C145 292 193 318 253 318 C327 318 391 250 477 250 C544 250 591 267 645 317 L665 432 Z " />
<glyph glyph-name="nbspace" unicode=" " horiz-adv-x="283" d="" />
<glyph glyph-name="exclamdown" unicode="¡" horiz-adv-x="223" d="M163 710 L136 554 L285 554 L312 710 L163 710 Z M161 497 C93 299 53 176 34 0 L187 0 C234 176 238 299 238 497 L161 497 Z " />
<glyph glyph-name="cent" unicode="¢" horiz-adv-x="487" d="M321 0 L335 83 C397 95 452 130 497 189 L456 272 C419 220 367 195 312 195 C246 195 219 215 219 270 C218 283 221 299 224 318 L241 415 C253 484 288 529 355 529 C382 529 407 522 422 503 L419 435 L523 435 L547 568 C518 604 478 621 431 628 L446 710 L333 710 L319 631 C188 613 122 533 102 417 L82 302 C78 281 76 261 76 243 C76 152 123 95 222 80 L208 0 L321 0 Z " />
<glyph glyph-name="sterling" unicode="£" horiz-adv-x="529" d="M508 273 L522 355 L295 355 C281 393 268 431 268 471 C268 551 297 622 380 622 C411 622 434 613 452 596 L449 529 L552 529 L575 662 C543 706 483 728 396 728 C228 728 140 631 140 470 C140 428 154 391 168 355 L93 355 L79 273 L193 273 C194 264 195 255 195 246 C195 196 170 108 81 108 C60 108 46 112 36 116 L16 0 C32 -10 57 -18 88 -18 C141 -18 178 -2 217 34 C256 0 314 -18 368 -18 C414 -18 468 -5 506 28 L527 146 C491 109 447 97 403 97 C363 97 313 104 282 127 C303 154 318 203 318 249 C318 257 317 265 316 273 L508 273 Z " />
<glyph glyph-name="currency" unicode="¤" horiz-adv-x="578" d="M491 102 L579 178 L519 243 C555 285 580 340 580 399 C580 429 573 457 562 483 L643 548 L582 622 L506 552 C475 574 435 587 392 587 C347 587 304 574 266 552 L212 622 L125 548 L184 482 C148 437 126 381 126 323 C126 295 132 269 143 244 L59 178 L120 102 L200 174 C231 152 269 140 313 140 C356 140 399 152 438 174 L491 102 Z M326 212 C251 212 199 265 199 336 C199 433 286 515 379 515 C455 515 507 461 507 389 C507 292 417 212 326 212 L326 212 Z " />
<glyph glyph-name="yen" unicode="¥" horiz-adv-x="600" d="M525 84 L540 169 L406 169 L422 257 L556 257 L570 340 L459 340 L639 606 L687 619 L703 710 L503 710 L487 619 L527 606 L390 393 L328 606 L374 619 L390 710 L147 710 L131 619 L173 606 L259 340 L143 340 L129 257 L268 257 L252 169 L113 169 L98 84 L237 84 L223 0 L377 0 L391 84 L525 84 Z " />
<glyph glyph-name="brokenbar" unicode="¦" horiz-adv-x="413" d="M239 -134 L309 264 L195 264 L125 -134 L239 -134 Z M337 425 L401 788 L287 788 L223 425 L337 425 Z " />
<glyph glyph-name="section" unicode="§" horiz-adv-x="493" d="M80 300 C75 273 70 246 70 220 C70 125 121 98 281 70 C332 61 349 49 349 21 C349 -50 310 -60 233 -60 C202 -60 179 -56 158 -46 L162 34 L60 34 L34 -117 C69 -150 127 -166 219 -166 C339 -166 447 -131 469 -3 L476 38 C478 50 479 62 479 72 C479 108 468 136 449 151 C489 175 514 214 522 262 C528 302 532 332 532 356 C532 448 462 468 321 492 C268 501 252 508 252 534 C252 610 289 622 369 622 C400 622 423 618 444 608 L440 528 L542 528 L568 679 C533 712 475 728 383 728 C263 728 155 693 133 565 L126 524 C125 516 124 509 124 502 C124 468 140 445 164 424 C119 400 88 346 80 300 L80 300 Z M373 348 C386 342 396 329 396 302 C396 252 379 215 332 194 C237 214 206 201 206 260 C206 313 228 344 270 366 C326 356 352 358 373 348 L373 348 Z " />
<glyph glyph-name="dieresis" unicode="¨" horiz-adv-x="435" d="M275 590 L297 719 L155 719 L133 590 L275 590 Z M510 590 L532 719 L390 719 L368 590 L510 590 Z " />
<glyph glyph-name="copyright" unicode="©" horiz-adv-x="632" d="M494 276 L429 276 L416 230 C404 221 393 216 365 216 C326 216 306 228 306 269 C306 280 307 292 310 306 L327 399 C339 464 361 502 415 502 C441 502 449 497 461 489 L458 443 L523 443 L536 521 C516 547 472 560 431 560 C317 560 266 520 245 399 L231 320 C227 298 225 279 225 262 C225 185 267 159 361 159 C402 159 446 172 481 201 L494 276 Z M683 454 C688 485 691 512 691 537 C691 675 609 728 444 728 C249 728 144 654 109 454 L74 256 C68 225 65 196 65 171 C65 35 147 -18 312 -18 C507 -18 612 56 648 256 L683 454 Z M576 256 C552 120 470 54 325 54 C203 54 140 86 140 190 C139 209 142 231 147 256 L182 454 C206 593 283 655 431 655 C554 655 617 622 617 516 C617 498 615 477 611 454 L576 256 Z " />
<glyph glyph-name="ordfeminine" unicode="ª" horiz-adv-x="361" d="M379 350 C375 348 372 347 368 347 C360 347 355 350 355 360 C355 362 355 365 356 368 L381 508 C383 518 384 527 384 535 C384 580 354 597 283 597 C240 597 194 590 153 567 L170 502 C197 517 227 524 256 524 C278 524 292 522 292 507 C292 505 292 502 291 499 L286 468 C259 474 233 479 205 479 C133 479 103 428 103 354 C103 316 124 290 174 290 C214 290 251 306 270 332 C276 305 292 290 326 290 C343 290 359 293 374 303 L379 350 Z M269 373 C252 363 232 356 214 356 C199 356 194 360 194 372 C194 414 210 426 232 426 C250 426 267 423 278 422 L269 373 Z " />
<glyph glyph-name="guillemotleft" unicode="«" horiz-adv-x="454" d="M224 138 L243 244 L148 335 L275 426 L294 536 L96 392 L76 282 L224 138 Z M451 138 L470 244 L375 335 L502 426 L521 536 L323 392 L303 282 L451 138 Z " />
<glyph glyph-name="logicalnot" unicode="¬" horiz-adv-x="632" d="M603 0 L695 526 L121 526 L98 395 L541 395 L472 0 L603 0 Z " />
<glyph glyph-name="registered" unicode="®" horiz-adv-x="632" d="M512 169 L521 217 L493 223 L504 285 C505 294 506 303 506 310 C506 343 490 355 469 363 C494 372 516 391 524 433 L529 461 C530 469 531 477 531 485 C531 525 509 551 448 551 L260 551 L251 503 L278 497 L230 223 L201 217 L192 169 L327 169 L336 217 L308 223 L328 335 L396 335 C418 335 428 330 428 308 C428 303 427 297 426 290 L412 214 C411 207 410 200 410 195 C410 176 419 169 446 169 L512 169 Z M447 429 C443 402 427 386 403 386 L337 386 L355 493 L419 493 C441 493 451 483 451 463 C451 458 451 453 450 448 L447 429 Z M683 454 C688 485 691 512 691 537 C691 675 609 728 444 728 C249 728 144 654 109 454 L74 256 C68 225 65 196 65 171 C65 35 147 -18 312 -18 C507 -18 612 56 648 256 L683 454 Z M576 256 C552 120 470 54 325 54 C203 54 140 86 140 190 C139 209 142 231 147 256 L182 454 C206 593 284 655 431 655 C554 655 617 622 617 516 C617 498 615 477 611 454 L576 256 Z " />
<glyph glyph-name="macron" unicode="¯" horiz-adv-x="403" d="M477 585 L493 680 L148 680 L132 585 L477 585 Z " />
<glyph glyph-name="degree" unicode="°" horiz-adv-x="378" d="M255 380 C391 380 450 480 450 585 C450 661 411 719 315 719 C177 719 122 619 122 514 C122 439 160 380 255 380 L255 380 Z M267 450 C217 450 198 484 198 527 C198 587 227 652 303 652 C354 652 373 618 373 575 C373 515 344 450 267 450 L267 450 Z " />
<glyph glyph-name="plusminus" unicode="±" horiz-adv-x="608" d="M374 113 L410 316 L612 316 L631 420 L429 420 L464 621 L360 621 L325 420 L124 420 L105 316 L306 316 L270 113 L374 113 Z M551 -34 L570 70 L63 70 L44 -34 L551 -34 Z " />
<glyph glyph-name="twosuperior" unicode="²" horiz-adv-x="295" d="M334 365 L353 472 L304 472 L291 438 L207 438 C327 510 377 562 377 648 C377 703 344 729 278 729 C234 729 190 720 151 699 L163 629 C187 643 219 657 246 657 C274 657 293 646 293 620 C293 550 181 482 106 442 L93 365 L334 365 Z " />
<glyph glyph-name="threesuperior" unicode="³" horiz-adv-x="282" d="M89 372 C119 360 151 356 187 356 C268 356 338 393 338 484 C338 514 326 539 299 550 C337 565 360 612 360 653 C360 701 327 729 257 729 C221 729 181 721 147 702 L158 638 C178 650 207 659 233 659 C258 659 280 653 280 624 C280 595 263 575 234 575 L198 575 L187 514 L223 514 C244 514 260 507 260 485 C260 445 226 425 191 425 C164 425 137 433 122 440 L89 372 Z " />
<glyph glyph-name="acute" unicode="´" horiz-adv-x="273" d="M221 580 L379 766 L242 766 L131 580 L221 580 Z " />
<glyph glyph-name="mu" unicode="µ" horiz-adv-x="593" d="M232 -228 L248 -137 L189 -124 L217 36 C252 -1 308 -17 366 -17 C502 -17 540 49 570 215 L607 422 L652 435 L668 526 L455 526 L439 435 L485 422 L448 214 C434 137 404 93 333 93 C295 93 256 106 233 128 L285 422 L334 435 L350 526 L117 526 L101 435 L143 422 L47 -124 L-8 -137 L-24 -228 L232 -228 Z " />
<glyph glyph-name="paragraph" unicode="¶" horiz-adv-x="539" d="M448 -166 L584 609 L634 621 L650 710 L265 710 C166 710 108 639 108 528 C108 461 138 420 202 420 L99 -166 L207 -166 L343 608 L478 608 L342 -166 L448 -166 Z " />
<glyph glyph-name="periodcentered" unicode="·" horiz-adv-x="212" d="M227 260 L255 422 L103 422 L75 260 L227 260 Z " />
<glyph glyph-name="cedilla" unicode="¸" horiz-adv-x="200" d="M45 -240 C84 -211 121 -172 138 -135 L156 -29 L34 -29 L16 -135 L76 -135 C58 -160 34 -185 10 -203 L45 -240 Z " />
<glyph glyph-name="onesuperior" unicode="¹" horiz-adv-x="219" d="M255 365 L264 419 L242 426 L294 720 L234 720 C202 690 168 665 129 642 L154 587 C166 592 180 600 194 609 L161 426 L132 419 L123 365 L255 365 Z " />
<glyph glyph-name="ordmasculine" unicode="º" horiz-adv-x="350" d="M391 473 C393 486 394 498 394 509 C394 570 359 597 280 597 C186 597 141 559 125 473 L114 414 C112 401 110 389 110 378 C110 317 147 290 226 290 C319 290 365 328 380 414 L391 473 Z M292 420 C285 377 271 361 238 361 C213 361 202 365 202 388 C202 396 203 406 206 420 L214 467 C221 509 233 527 267 527 C292 527 303 522 303 498 C303 490 302 480 300 467 L292 420 Z " />
<glyph glyph-name="guillemotright" unicode="»" horiz-adv-x="454" d="M249 281 L268 391 L120 535 L101 429 L195 339 L69 247 L50 138 L249 281 Z M476 281 L495 391 L347 535 L328 429 L422 339 L296 247 L277 138 L476 281 Z " />
<glyph glyph-name="onequarter" unicode="¼" horiz-adv-x="641" d="M265 365 L274 419 L252 426 L304 720 L244 720 C212 690 178 665 139 642 L164 587 C176 592 190 600 204 609 L171 426 L142 419 L133 365 L265 365 Z M139 -21 L689 732 L593 732 L45 -21 L139 -21 Z M587 -10 L597 51 L623 51 L635 116 L609 116 L629 230 L553 230 L533 116 L454 116 C499 179 546 255 583 326 L516 354 C473 275 426 201 374 130 L360 51 L519 51 L509 -10 L587 -10 Z " />
<glyph glyph-name="onehalf" unicode="½" horiz-adv-x="645" d="M265 365 L274 419 L252 426 L304 720 L244 720 C212 690 178 665 139 642 L164 587 C176 592 190 600 204 609 L171 426 L142 419 L133 365 L265 365 Z M139 -21 L689 732 L593 732 L45 -21 L139 -21 Z M617 -10 L636 97 L587 97 L574 63 L490 63 C610 135 660 187 660 273 C660 328 627 354 561 354 C517 354 473 345 434 324 L446 254 C470 268 502 282 529 282 C557 282 576 271 576 245 C576 175 464 107 389 67 L376 -10 L617 -10 Z " />
<glyph glyph-name="threequarters" unicode="¾" horiz-adv-x="626" d="M91 372 C121 360 153 356 189 356 C270 356 340 393 340 484 C340 514 328 539 301 550 C339 565 362 612 362 653 C362 701 329 729 259 729 C223 729 183 721 149 702 L160 638 C180 650 209 659 235 659 C260 659 282 653 282 624 C282 595 265 575 236 575 L200 575 L189 514 L225 514 C246 514 262 507 262 485 C262 445 228 425 193 425 C166 425 139 433 124 440 L91 372 Z M144 -21 L694 732 L598 732 L50 -21 L144 -21 Z M572 -10 L582 51 L608 51 L620 116 L594 116 L614 230 L538 230 L518 116 L439 116 C484 179 531 255 568 326 L501 354 C458 275 411 201 359 130 L345 51 L504 51 L494 -10 L572 -10 Z " />
<glyph glyph-name="questiondown" unicode="¿" horiz-adv-x="463" d="M280 486 L269 426 C260 378 233 365 180 344 C105 314 77 277 65 204 L58 162 C56 148 55 135 55 122 C55 31 119 -18 239 -18 C327 -18 395 4 443 48 L466 181 L365 181 L343 114 C319 97 293 87 262 87 C214 87 186 100 186 146 C186 153 186 162 188 172 L191 190 C200 244 212 263 259 280 C336 307 378 321 393 407 L407 486 L280 486 Z M309 710 L282 554 L431 554 L458 710 L309 710 Z " />
<glyph glyph-name="Agrave" unicode="À" horiz-adv-x="642" d="M621 0 L636 90 L591 103 C577 305 566 507 553 710 L349 710 L86 103 L35 90 L20 0 L233 0 L248 90 L204 103 L255 223 L428 223 L434 103 L380 90 L365 0 L621 0 Z M426 315 L291 315 L411 595 L426 315 Z M532 764 L485 950 L350 950 L446 764 L532 764 Z " />
<glyph glyph-name="Aacute" unicode="Á" horiz-adv-x="642" d="M621 0 L636 90 L591 103 C577 305 566 507 553 710 L349 710 L86 103 L35 90 L20 0 L233 0 L248 90 L204 103 L255 223 L428 223 L434 103 L380 90 L365 0 L621 0 Z M426 315 L291 315 L411 595 L426 315 Z M467 764 L625 950 L488 950 L377 764 L467 764 Z " />
<glyph glyph-name="Acircumflex" unicode="Â" horiz-adv-x="642" d="M621 0 L636 90 L591 103 C577 305 566 507 553 710 L349 710 L86 103 L35 90 L20 0 L233 0 L248 90 L204 103 L255 223 L428 223 L434 103 L380 90 L365 0 L621 0 Z M426 315 L291 315 L411 595 L426 315 Z M656 763 L544 939 L434 939 L259 763 L368 763 L480 877 L551 763 L656 763 Z " />
<glyph glyph-name="Atilde" unicode="Ã" horiz-adv-x="642" d="M621 0 L636 90 L591 103 C577 305 566 507 553 710 L349 710 L86 103 L35 90 L20 0 L233 0 L248 90 L204 103 L255 223 L428 223 L434 103 L380 90 L365 0 L621 0 Z M426 315 L291 315 L411 595 L426 315 Z M654 892 C619 857 588 841 550 841 C496 841 459 893 391 893 C348 893 317 873 292 849 L276 756 C311 791 342 808 381 808 C432 808 469 755 540 755 C583 755 614 775 638 799 L654 892 Z " />
<glyph glyph-name="Adieresis" unicode="Ä" horiz-adv-x="642" d="M621 0 L636 90 L591 103 C577 305 566 507 553 710 L349 710 L86 103 L35 90 L20 0 L233 0 L248 90 L204 103 L255 223 L428 223 L434 103 L380 90 L365 0 L621 0 Z M426 315 L291 315 L411 595 L426 315 Z M410 774 L432 903 L290 903 L268 774 L410 774 Z M645 774 L667 903 L525 903 L503 774 L645 774 Z " />
<glyph glyph-name="Aring" unicode="Å" horiz-adv-x="642" d="M621 0 L636 90 L591 103 C577 305 566 507 553 710 L349 710 L86 103 L35 90 L20 0 L233 0 L248 90 L204 103 L255 223 L428 223 L434 103 L380 90 L365 0 L621 0 Z M426 315 L291 315 L411 595 L426 315 Z M589 870 C589 921 561 950 493 950 C403 950 360 901 360 825 C360 772 392 745 457 745 C558 745 589 795 589 870 L589 870 Z M531 859 C531 819 510 796 466 796 C436 796 421 810 421 836 C421 876 442 902 485 902 C516 902 531 887 531 859 L531 859 Z " />
<glyph glyph-name="AE" unicode="Æ" horiz-adv-x="896" d="M863 0 L901 219 L814 219 L776 115 L582 115 L618 318 L779 318 L781 263 L854 263 L891 474 L818 474 L796 419 L635 419 L667 600 L860 600 L860 513 L947 513 L982 710 L346 710 L86 103 L36 91 L20 0 L243 0 L259 91 L212 103 L262 223 L449 223 L428 103 L374 91 L358 0 L863 0 Z M465 315 L298 315 L419 600 L515 600 L465 315 Z " />
<glyph glyph-name="Ccedilla" unicode="Ç" horiz-adv-x="557" d="M567 198 L448 198 L427 126 C399 99 363 91 328 91 C255 91 224 113 224 188 C224 212 227 243 234 281 L260 428 C281 550 323 618 420 618 C455 618 488 609 505 584 L502 512 L621 512 L647 661 C610 708 528 728 452 728 C238 728 143 655 103 428 L77 282 C70 241 66 206 66 175 C66 31 144 -18 320 -18 C396 -18 478 0 542 54 L567 198 Z M247 -240 C286 -211 323 -172 340 -135 L358 -29 L236 -29 L218 -135 L278 -135 C260 -160 236 -185 212 -203 L247 -240 Z " />
<glyph glyph-name="Egrave" unicode="È" horiz-adv-x="571" d="M538 0 L576 219 L490 219 L453 116 L253 116 L289 318 L454 318 L458 263 L530 263 L567 474 L495 474 L471 419 L306 419 L338 600 L537 600 L537 513 L622 513 L657 710 L154 710 L138 619 L187 606 L99 104 L45 91 L29 0 L538 0 Z M497 764 L450 950 L315 950 L411 764 L497 764 Z " />
<glyph glyph-name="Eacute" unicode="É" horiz-adv-x="571" d="M538 0 L576 219 L490 219 L453 116 L253 116 L289 318 L454 318 L458 263 L530 263 L567 474 L495 474 L471 419 L306 419 L338 600 L537 600 L537 513 L622 513 L657 710 L154 710 L138 619 L187 606 L99 104 L45 91 L29 0 L538 0 Z M437 764 L595 950 L458 950 L347 764 L437 764 Z " />
<glyph glyph-name="Ecircumflex" unicode="Ê" horiz-adv-x="571" d="M538 0 L576 219 L490 219 L453 116 L253 116 L289 318 L454 318 L458 263 L530 263 L567 474 L495 474 L471 419 L306 419 L338 600 L537 600 L537 513 L622 513 L657 710 L154 710 L138 619 L187 606 L99 104 L45 91 L29 0 L538 0 Z M618 763 L506 939 L396 939 L221 763 L330 763 L442 877 L513 763 L618 763 Z " />
<glyph glyph-name="Edieresis" unicode="Ë" horiz-adv-x="571" d="M538 0 L576 219 L490 219 L453 116 L253 116 L289 318 L454 318 L458 263 L530 263 L567 474 L495 474 L471 419 L306 419 L338 600 L537 600 L537 513 L622 513 L657 710 L154 710 L138 619 L187 606 L99 104 L45 91 L29 0 L538 0 Z M382 774 L404 903 L262 903 L240 774 L382 774 Z M617 774 L639 903 L497 903 L475 774 L617 774 Z " />
<glyph glyph-name="Igrave" unicode="Ì" horiz-adv-x="317" d="M288 0 L304 91 L254 104 L342 606 L397 619 L413 710 L154 710 L138 619 L187 606 L99 104 L45 91 L29 0 L288 0 Z M370 764 L323 950 L188 950 L284 764 L370 764 Z " />
<glyph glyph-name="Iacute" unicode="Í" horiz-adv-x="317" d="M288 0 L304 91 L254 104 L342 606 L397 619 L413 710 L154 710 L138 619 L187 606 L99 104 L45 91 L29 0 L288 0 Z M305 764 L463 950 L326 950 L215 764 L305 764 Z " />
<glyph glyph-name="Icircumflex" unicode="Î" horiz-adv-x="317" d="M288 0 L304 91 L254 104 L342 606 L397 619 L413 710 L154 710 L138 619 L187 606 L99 104 L45 91 L29 0 L288 0 Z M492 763 L380 939 L270 939 L95 763 L204 763 L316 877 L387 763 L492 763 Z " />
<glyph glyph-name="Idieresis" unicode="Ï" horiz-adv-x="317" d="M288 0 L304 91 L254 104 L342 606 L397 619 L413 710 L154 710 L138 619 L187 606 L99 104 L45 91 L29 0 L288 0 Z M249 774 L271 903 L129 903 L107 774 L249 774 Z M484 774 L506 903 L364 903 L342 774 L484 774 Z " />
<glyph glyph-name="Eth" unicode="Ð" horiz-adv-x="622" d="M340 0 C521 0 606 74 640 269 L670 441 C676 476 679 508 679 535 C679 660 613 710 465 710 L154 710 L138 619 L187 606 L154 419 L102 419 L85 318 L137 318 L99 104 L45 91 L29 0 L340 0 Z M484 264 C465 155 425 108 359 108 L255 108 L292 318 L397 318 L414 419 L309 419 L342 602 L446 602 C497 602 523 583 523 518 C523 497 520 471 515 440 L484 264 Z " />
<glyph glyph-name="Ntilde" unicode="Ñ" horiz-adv-x="671" d="M595 0 L701 606 L754 619 L770 710 L550 710 L534 619 L579 606 L518 260 L382 710 L154 710 L138 619 L187 606 L99 104 L45 91 L29 0 L260 0 L276 91 L221 104 L289 491 L466 0 L595 0 Z M668 892 C633 857 602 841 564 841 C510 841 473 893 405 893 C362 893 331 873 306 849 L290 756 C325 791 356 808 395 808 C446 808 483 755 554 755 C597 755 628 775 652 799 L668 892 Z " />
<glyph glyph-name="Ograve" unicode="Ò" horiz-adv-x="611" d="M657 426 C663 460 666 492 666 520 C666 663 590 728 433 728 C244 728 141 635 104 426 L79 284 C73 248 69 216 69 187 C69 46 145 -18 301 -18 C489 -18 595 75 632 284 L657 426 Z M476 284 C451 145 406 94 321 94 C257 94 223 111 223 188 C223 213 227 245 234 284 L259 426 C283 561 328 616 413 616 C478 616 511 598 511 520 C511 495 508 464 501 426 L476 284 Z M517 764 L470 950 L335 950 L431 764 L517 764 Z " />
<glyph glyph-name="Oacute" unicode="Ó" horiz-adv-x="611" d="M657 426 C663 460 666 492 666 520 C666 663 590 728 433 728 C244 728 141 635 104 426 L79 284 C73 248 69 216 69 187 C69 46 145 -18 301 -18 C489 -18 595 75 632 284 L657 426 Z M476 284 C451 145 406 94 321 94 C257 94 223 111 223 188 C223 213 227 245 234 284 L259 426 C283 561 328 616 413 616 C478 616 511 598 511 520 C511 495 508 464 501 426 L476 284 Z M452 764 L610 950 L473 950 L362 764 L452 764 Z " />
<glyph glyph-name="Ocircumflex" unicode="Ô" horiz-adv-x="611" d="M657 426 C663 460 666 492 666 520 C666 663 590 728 433 728 C244 728 141 635 104 426 L79 284 C73 248 69 216 69 187 C69 46 145 -18 301 -18 C489 -18 595 75 632 284 L657 426 Z M476 284 C451 145 406 94 321 94 C257 94 223 111 223 188 C223 213 227 245 234 284 L259 426 C283 561 328 616 413 616 C478 616 511 598 511 520 C511 495 508 464 501 426 L476 284 Z M638 763 L526 939 L416 939 L241 763 L350 763 L462 877 L533 763 L638 763 Z " />
<glyph glyph-name="Otilde" unicode="Õ" horiz-adv-x="611" d="M657 426 C663 460 666 492 666 520 C666 663 590 728 433 728 C244 728 141 635 104 426 L79 284 C73 248 69 216 69 187 C69 46 145 -18 301 -18 C489 -18 595 75 632 284 L657 426 Z M476 284 C451 145 406 94 321 94 C257 94 223 111 223 188 C223 213 227 245 234 284 L259 426 C283 561 328 616 413 616 C478 616 511 598 511 520 C511 495 508 464 501 426 L476 284 Z M638 892 C603 857 572 841 534 841 C480 841 443 893 375 893 C332 893 301 873 276 849 L260 756 C295 791 326 808 365 808 C416 808 453 755 524 755 C567 755 598 775 622 799 L638 892 Z " />
<glyph glyph-name="Odieresis" unicode="Ö" horiz-adv-x="611" d="M657 426 C663 460 666 492 666 520 C666 663 590 728 433 728 C244 728 141 635 104 426 L79 284 C73 248 69 216 69 187 C69 46 145 -18 301 -18 C489 -18 595 75 632 284 L657 426 Z M476 284 C451 145 406 94 321 94 C257 94 223 111 223 188 C223 213 227 245 234 284 L259 426 C283 561 328 616 413 616 C478 616 511 598 511 520 C511 495 508 464 501 426 L476 284 Z M395 774 L417 903 L275 903 L253 774 L395 774 Z M630 774 L652 903 L510 903 L488 774 L630 774 Z " />
<glyph glyph-name="multiply" unicode="×" horiz-adv-x="639" d="M574 223 L456 367 L623 509 L563 583 L395 441 L278 582 L191 508 L307 367 L140 224 L201 150 L369 292 L487 149 L574 223 Z " />
<glyph glyph-name="Oslash" unicode="Ø" horiz-adv-x="611" d="M135 -75 L185 -1 C217 -12 255 -18 301 -18 C489 -18 595 75 632 284 L657 426 C663 460 666 491 666 520 C666 576 654 621 630 654 L719 785 L596 785 L546 712 C515 722 477 728 433 728 C244 728 141 635 104 426 L79 284 C73 248 69 215 69 186 C69 132 80 89 103 57 L14 -75 L135 -75 Z M476 284 C452 145 405 94 321 94 C294 94 273 97 257 106 L509 478 L476 284 Z M259 426 C282 561 326 616 413 616 C438 616 459 613 474 605 L226 237 L259 426 Z " />
<glyph glyph-name="Ugrave" unicode="Ù" horiz-adv-x="672" d="M504 224 C489 140 452 105 363 105 C293 105 261 119 261 178 C261 191 263 206 266 224 L333 606 L384 619 L400 710 L149 710 L133 619 L176 606 L112 241 C106 205 102 174 102 146 C102 28 164 -18 330 -18 C556 -18 611 53 644 241 L708 606 L758 619 L774 710 L542 710 L526 619 L571 606 L504 224 Z M547 764 L500 950 L365 950 L461 764 L547 764 Z " />
<glyph glyph-name="Uacute" unicode="Ú" horiz-adv-x="672" d="M504 224 C489 140 452 105 363 105 C293 105 261 119 261 178 C261 191 263 206 266 224 L333 606 L384 619 L400 710 L149 710 L133 619 L176 606 L112 241 C106 205 102 174 102 146 C102 28 164 -18 330 -18 C556 -18 611 53 644 241 L708 606 L758 619 L774 710 L542 710 L526 619 L571 606 L504 224 Z M482 764 L640 950 L503 950 L392 764 L482 764 Z " />
<glyph glyph-name="Ucircumflex" unicode="Û" horiz-adv-x="672" d="M504 224 C489 140 452 105 363 105 C293 105 261 119 261 178 C261 191 263 206 266 224 L333 606 L384 619 L400 710 L149 710 L133 619 L176 606 L112 241 C106 205 102 174 102 146 C102 28 164 -18 330 -18 C556 -18 611 53 644 241 L708 606 L758 619 L774 710 L542 710 L526 619 L571 606 L504 224 Z M668 763 L556 939 L446 939 L271 763 L380 763 L492 877 L563 763 L668 763 Z " />
<glyph glyph-name="Udieresis" unicode="Ü" horiz-adv-x="672" d="M504 224 C489 140 452 105 363 105 C293 105 261 119 261 178 C261 191 263 206 266 224 L333 606 L384 619 L400 710 L149 710 L133 619 L176 606 L112 241 C106 205 102 174 102 146 C102 28 164 -18 330 -18 C556 -18 611 53 644 241 L708 606 L758 619 L774 710 L542 710 L526 619 L571 606 L504 224 Z M425 774 L447 903 L305 903 L283 774 L425 774 Z M660 774 L682 903 L540 903 L518 774 L660 774 Z " />
<glyph glyph-name="Yacute" unicode="Ý" horiz-adv-x="601" d="M436 0 L452 91 L396 104 L426 273 L641 606 L689 619 L705 710 L507 710 L491 619 L529 606 L388 382 L327 606 L375 619 L391 710 L146 710 L130 619 L171 606 L271 273 L241 104 L181 91 L165 0 L436 0 Z M457 764 L615 950 L478 950 L367 764 L457 764 Z " />
<glyph glyph-name="Thorn" unicode="Þ" horiz-adv-x="580" d="M284 0 L300 91 L252 104 L259 146 L384 146 C527 146 594 203 621 355 C626 382 628 406 628 427 C628 524 575 562 458 562 L333 562 L340 606 L393 619 L409 710 L154 710 L138 619 L187 606 L99 104 L45 91 L29 0 L284 0 Z M276 241 L316 468 L416 468 C457 468 479 458 479 410 C479 395 477 377 473 355 C459 275 430 241 376 241 L276 241 Z " />
<glyph glyph-name="germandbls" unicode="ß" horiz-adv-x="698" d="M695 129 C708 206 710 219 710 230 C710 289 678 316 615 337 C570 352 541 364 541 397 C541 400 541 404 542 409 L574 585 C577 600 579 613 579 631 C579 714 507 728 399 728 C276 728 197 710 175 585 L90 103 L36 91 L20 0 L253 0 L269 91 L230 103 L313 577 C320 618 346 629 381 629 C415 629 432 623 432 596 C432 590 431 584 430 577 L400 407 C398 396 397 386 397 377 C397 259 540 251 570 222 C582 210 586 203 586 190 C586 140 565 82 505 82 C476 82 451 90 430 104 L431 168 L332 168 L309 37 C353 -4 416 -18 480 -18 C575 -18 674 11 695 129 L695 129 Z " />
<glyph glyph-name="agrave" unicode="à" horiz-adv-x="546" d="M538 80 C529 73 523 70 513 70 C498 70 490 76 490 94 C490 98 490 103 491 108 L538 379 C541 396 543 412 543 427 C543 509 490 540 364 540 C286 540 204 528 131 485 L156 385 C210 416 267 428 322 428 C375 428 402 423 402 385 C402 379 401 372 400 365 L388 299 C344 313 292 325 227 325 C125 325 68 278 51 184 C40 125 39 111 39 98 C39 28 78 -18 171 -18 C252 -18 324 16 360 68 C363 14 392 -17 451 -17 C482 -17 509 -10 531 7 L538 80 Z M359 132 C324 105 280 83 232 83 C195 83 180 93 180 123 C180 185 203 243 266 243 C313 243 353 234 376 227 L359 132 Z M452 580 L405 766 L270 766 L366 580 L452 580 Z " />
<glyph glyph-name="aacute" unicode="á" horiz-adv-x="546" d="M538 80 C529 73 523 70 513 70 C498 70 490 76 490 94 C490 98 490 103 491 108 L538 379 C541 396 543 412 543 427 C543 509 490 540 364 540 C286 540 204 528 131 485 L156 385 C210 416 267 428 322 428 C375 428 402 423 402 385 C402 379 401 372 400 365 L388 299 C344 313 292 325 227 325 C125 325 68 278 51 184 C40 125 39 111 39 98 C39 28 78 -18 171 -18 C252 -18 324 16 360 68 C363 14 392 -17 451 -17 C482 -17 509 -10 531 7 L538 80 Z M359 132 C324 105 280 83 232 83 C195 83 180 93 180 123 C180 185 203 243 266 243 C313 243 353 234 376 227 L359 132 Z M387 580 L545 766 L408 766 L297 580 L387 580 Z " />
<glyph glyph-name="acircumflex" unicode="â" horiz-adv-x="546" d="M538 80 C529 73 523 70 513 70 C498 70 490 76 490 94 C490 98 490 103 491 108 L538 379 C541 396 543 412 543 427 C543 509 490 540 364 540 C286 540 204 528 131 485 L156 385 C210 416 267 428 322 428 C375 428 402 423 402 385 C402 379 401 372 400 365 L388 299 C344 313 292 325 227 325 C125 325 68 278 51 184 C40 125 39 111 39 98 C39 28 78 -18 171 -18 C252 -18 324 16 360 68 C363 14 392 -17 451 -17 C482 -17 509 -10 531 7 L538 80 Z M359 132 C324 105 280 83 232 83 C195 83 180 93 180 123 C180 185 203 243 266 243 C313 243 353 234 376 227 L359 132 Z M573 579 L461 755 L351 755 L176 579 L285 579 L397 693 L468 579 L573 579 Z " />
<glyph glyph-name="atilde" unicode="ã" horiz-adv-x="546" d="M538 80 C529 73 523 70 513 70 C498 70 490 76 490 94 C490 98 490 103 491 108 L538 379 C541 396 543 412 543 427 C543 509 490 540 364 540 C286 540 204 528 131 485 L156 385 C210 416 267 428 322 428 C375 428 402 423 402 385 C402 379 401 372 400 365 L388 299 C344 313 292 325 227 325 C125 325 68 278 51 184 C40 125 39 111 39 98 C39 28 78 -18 171 -18 C252 -18 324 16 360 68 C363 14 392 -17 451 -17 C482 -17 509 -10 531 7 L538 80 Z M359 132 C324 105 280 83 232 83 C195 83 180 93 180 123 C180 185 203 243 266 243 C313 243 353 234 376 227 L359 132 Z M574 708 C539 673 508 657 470 657 C416 657 379 709 311 709 C268 709 237 689 212 665 L196 572 C231 607 262 624 301 624 C352 624 389 571 460 571 C503 571 534 591 558 615 L574 708 Z " />
<glyph glyph-name="adieresis" unicode="ä" horiz-adv-x="546" d="M538 80 C529 73 523 70 513 70 C498 70 490 76 490 94 C490 98 490 103 491 108 L538 379 C541 396 543 412 543 427 C543 509 490 540 364 540 C286 540 204 528 131 485 L156 385 C210 416 267 428 322 428 C375 428 402 423 402 385 C402 379 401 372 400 365 L388 299 C344 313 292 325 227 325 C125 325 68 278 51 184 C40 125 39 111 39 98 C39 28 78 -18 171 -18 C252 -18 324 16 360 68 C363 14 392 -17 451 -17 C482 -17 509 -10 531 7 L538 80 Z M359 132 C324 105 280 83 232 83 C195 83 180 93 180 123 C180 185 203 243 266 243 C313 243 353 234 376 227 L359 132 Z M330 590 L352 719 L210 719 L188 590 L330 590 Z M565 590 L587 719 L445 719 L423 590 L565 590 Z " />
<glyph glyph-name="aring" unicode="å" horiz-adv-x="546" d="M538 80 C529 73 523 70 513 70 C498 70 490 76 490 94 C490 98 490 103 491 108 L538 379 C541 396 543 412 543 427 C543 509 490 540 364 540 C286 540 204 528 131 485 L156 385 C210 416 267 428 322 428 C375 428 402 423 402 385 C402 379 401 372 400 365 L388 299 C344 313 292 325 227 325 C125 325 68 278 51 184 C40 125 39 111 39 98 C39 28 78 -18 171 -18 C252 -18 324 16 360 68 C363 14 392 -17 451 -17 C482 -17 509 -10 531 7 L538 80 Z M359 132 C324 105 280 83 232 83 C195 83 180 93 180 123 C180 185 203 243 266 243 C313 243 353 234 376 227 L359 132 Z M504 686 C504 737 476 766 408 766 C318 766 275 717 275 641 C275 588 307 561 372 561 C473 561 504 611 504 686 L504 686 Z M446 675 C446 635 425 612 381 612 C351 612 336 626 336 652 C336 692 357 718 400 718 C431 718 446 703 446 675 L446 675 Z " />
<glyph glyph-name="ae" unicode="æ" horiz-adv-x="818" d="M829 223 L841 290 C848 327 851 360 851 389 C851 488 805 539 662 539 C593 539 537 518 503 480 C487 520 440 539 362 539 C285 539 201 527 130 485 L156 385 C210 415 266 428 322 428 C373 428 402 421 402 382 C402 377 401 370 400 364 L388 299 C342 313 290 325 227 325 C125 325 68 278 51 184 C40 125 39 111 39 98 C39 28 77 -18 170 -18 C239 -18 330 6 393 78 C418 18 474 -17 577 -17 C687 -17 756 16 797 71 L761 151 C731 117 688 93 614 93 C542 93 508 120 508 183 C508 195 510 208 512 223 L829 223 Z M359 136 C328 107 280 82 232 82 C194 82 179 92 179 123 C179 131 180 140 186 172 C194 219 216 243 265 243 C313 243 353 234 375 226 L359 136 Z M528 313 C541 390 564 443 646 443 C706 443 723 422 723 378 C723 360 720 338 716 313 L528 313 Z " />
<glyph glyph-name="ccedilla" unicode="ç" horiz-adv-x="479" d="M440 177 C404 126 348 101 293 101 C227 101 198 123 198 178 C198 191 200 206 203 223 L220 320 C231 386 269 435 336 435 C364 435 390 428 405 408 L403 341 L507 341 L530 474 C490 525 423 540 347 540 C186 540 103 451 81 323 L61 208 C57 188 56 168 56 151 C56 43 121 -18 260 -18 C346 -18 423 19 480 95 L440 177 Z M198 -240 C237 -211 274 -172 291 -135 L309 -29 L187 -29 L169 -135 L229 -135 C211 -160 187 -185 163 -203 L198 -240 Z " />
<glyph glyph-name="egrave" unicode="è" horiz-adv-x="507" d="M518 223 L530 290 C536 327 540 360 540 389 C540 488 494 540 351 540 C181 540 107 461 78 298 L64 220 C60 199 58 180 58 161 C58 54 119 -18 264 -18 C375 -18 445 16 486 71 L451 153 C417 116 376 93 303 93 C227 93 195 110 195 170 C195 185 197 203 201 223 L518 223 Z M217 313 C229 381 252 443 336 443 C396 443 413 419 413 376 C413 358 410 337 406 313 L217 313 Z M443 580 L396 766 L261 766 L357 580 L443 580 Z " />
<glyph glyph-name="eacute" unicode="é" horiz-adv-x="507" d="M518 223 L530 290 C536 327 540 360 540 389 C540 488 494 540 351 540 C181 540 107 461 78 298 L64 220 C60 199 58 180 58 161 C58 54 119 -18 264 -18 C375 -18 445 16 486 71 L451 153 C417 116 376 93 303 93 C227 93 195 110 195 170 C195 185 197 203 201 223 L518 223 Z M217 313 C229 381 252 443 336 443 C396 443 413 419 413 376 C413 358 410 337 406 313 L217 313 Z M368 580 L526 766 L389 766 L278 580 L368 580 Z " />
<glyph glyph-name="ecircumflex" unicode="ê" horiz-adv-x="507" d="M518 223 L530 290 C536 327 540 360 540 389 C540 488 494 540 351 540 C181 540 107 461 78 298 L64 220 C60 199 58 180 58 161 C58 54 119 -18 264 -18 C375 -18 445 16 486 71 L451 153 C417 116 376 93 303 93 C227 93 195 110 195 170 C195 185 197 203 201 223 L518 223 Z M217 313 C229 381 252 443 336 443 C396 443 413 419 413 376 C413 358 410 337 406 313 L217 313 Z M554 579 L442 755 L332 755 L157 579 L266 579 L378 693 L449 579 L554 579 Z " />
<glyph glyph-name="edieresis" unicode="ë" horiz-adv-x="507" d="M518 223 L530 290 C536 327 540 360 540 389 C540 488 494 540 351 540 C181 540 107 461 78 298 L64 220 C60 199 58 180 58 161 C58 54 119 -18 264 -18 C375 -18 445 16 486 71 L451 153 C417 116 376 93 303 93 C227 93 195 110 195 170 C195 185 197 203 201 223 L518 223 Z M217 313 C229 381 252 443 336 443 C396 443 413 419 413 376 C413 358 410 337 406 313 L217 313 Z M311 590 L333 719 L191 719 L169 590 L311 590 Z M546 590 L568 719 L426 719 L404 590 L546 590 Z " />
<glyph glyph-name="igrave" unicode="ì" horiz-adv-x="291" d="M269 0 L285 91 L235 104 L309 526 L115 526 L99 435 L149 422 L93 104 L39 91 L23 0 L269 0 Z M325 580 L278 766 L143 766 L239 580 L325 580 Z " />
<glyph glyph-name="iacute" unicode="í" horiz-adv-x="291" d="M269 0 L285 91 L235 104 L309 526 L115 526 L99 435 L149 422 L93 104 L39 91 L23 0 L269 0 Z M260 580 L418 766 L281 766 L170 580 L260 580 Z " />
<glyph glyph-name="icircumflex" unicode="î" horiz-adv-x="362" d="M304 0 L320 91 L270 104 L344 526 L150 526 L134 435 L184 422 L128 104 L74 91 L58 0 L304 0 Z M481 579 L369 755 L259 755 L84 579 L193 579 L305 693 L376 579 L481 579 Z " />
<glyph glyph-name="idieresis" unicode="ï" horiz-adv-x="358" d="M302 0 L318 91 L268 104 L342 526 L148 526 L132 435 L182 422 L126 104 L72 91 L56 0 L302 0 Z M236 590 L258 719 L116 719 L94 590 L236 590 Z M471 590 L493 719 L351 719 L329 590 L471 590 Z " />
<glyph glyph-name="eth" unicode="ð" horiz-adv-x="532" d="M612 639 L595 718 L495 683 C482 704 466 724 449 744 L346 709 C360 691 374 669 385 644 L265 602 L283 523 L411 568 C420 530 424 491 424 452 L424 430 C410 451 378 465 320 465 C182 465 102 440 75 290 L57 190 C53 169 51 150 51 132 C51 25 121 -18 262 -18 C428 -18 513 40 539 190 L553 271 C562 324 567 373 567 420 C567 489 556 553 533 611 L612 639 Z M398 181 C388 126 349 88 281 88 C221 88 197 106 197 156 C197 171 199 189 203 210 L216 284 C226 342 265 370 330 370 C390 370 417 345 417 295 L417 284 L398 181 Z " />
<glyph glyph-name="ntilde" unicode="ñ" horiz-adv-x="634" d="M612 0 L628 91 L578 104 L629 396 C631 410 633 423 633 435 C633 506 590 540 502 540 C411 540 356 519 290 467 L297 526 L115 526 L99 435 L149 422 L93 104 L39 91 L23 0 L266 0 L282 91 L235 104 L284 382 C327 417 373 427 423 427 C460 427 484 419 484 385 C484 379 483 373 482 366 L436 104 L385 91 L369 0 L612 0 Z M618 708 C583 673 552 657 514 657 C460 657 423 709 355 709 C312 709 281 689 256 665 L240 572 C275 607 306 624 345 624 C396 624 433 571 504 571 C547 571 578 591 602 615 L618 708 Z " />
<glyph glyph-name="ograve" unicode="ò" horiz-adv-x="525" d="M555 315 C559 339 561 362 561 382 C561 491 497 540 357 540 C192 540 108 471 80 315 L61 208 C56 183 54 161 54 140 C54 31 119 -18 258 -18 C424 -18 508 51 536 208 L555 315 Z M399 217 C384 129 353 91 278 91 C220 91 195 102 195 156 C195 172 198 192 202 217 L217 306 C231 392 263 431 337 431 C395 431 421 420 421 367 C422 351 418 331 414 306 L399 217 Z M442 580 L395 766 L260 766 L356 580 L442 580 Z " />
<glyph glyph-name="oacute" unicode="ó" horiz-adv-x="525" d="M555 315 C559 339 561 362 561 382 C561 491 497 540 357 540 C192 540 108 471 80 315 L61 208 C56 183 54 161 54 140 C54 31 119 -18 258 -18 C424 -18 508 51 536 208 L555 315 Z M399 217 C384 129 353 91 278 91 C220 91 195 102 195 156 C195 172 198 192 202 217 L217 306 C231 392 263 431 337 431 C395 431 421 420 421 367 C422 351 418 331 414 306 L399 217 Z M377 580 L535 766 L398 766 L287 580 L377 580 Z " />
<glyph glyph-name="ocircumflex" unicode="ô" horiz-adv-x="525" d="M555 315 C559 339 561 362 561 382 C561 491 497 540 357 540 C192 540 108 471 80 315 L61 208 C56 183 54 161 54 140 C54 31 119 -18 258 -18 C424 -18 508 51 536 208 L555 315 Z M399 217 C384 129 353 91 278 91 C220 91 195 102 195 156 C195 172 198 192 202 217 L217 306 C231 392 263 431 337 431 C395 431 421 420 421 367 C422 351 418 331 414 306 L399 217 Z M563 579 L451 755 L341 755 L166 579 L275 579 L387 693 L458 579 L563 579 Z " />
<glyph glyph-name="otilde" unicode="õ" horiz-adv-x="525" d="M555 315 C559 339 561 362 561 382 C561 491 497 540 357 540 C192 540 108 471 80 315 L61 208 C56 183 54 161 54 140 C54 31 119 -18 258 -18 C424 -18 508 51 536 208 L555 315 Z M399 217 C384 129 353 91 278 91 C220 91 195 102 195 156 C195 172 198 192 202 217 L217 306 C231 392 263 431 337 431 C395 431 421 420 421 367 C422 351 418 331 414 306 L399 217 Z M563 708 C528 673 497 657 459 657 C405 657 368 709 300 709 C257 709 226 689 201 665 L185 572 C220 607 251 624 290 624 C341 624 378 571 449 571 C492 571 523 591 547 615 L563 708 Z " />
<glyph glyph-name="odieresis" unicode="ö" horiz-adv-x="525" d="M555 315 C559 339 561 362 561 382 C561 491 497 540 357 540 C192 540 108 471 80 315 L61 208 C56 183 54 161 54 140 C54 31 119 -18 258 -18 C424 -18 508 51 536 208 L555 315 Z M399 217 C384 129 353 91 278 91 C220 91 195 102 195 156 C195 172 198 192 202 217 L217 306 C231 392 263 431 337 431 C395 431 421 420 421 367 C422 351 418 331 414 306 L399 217 Z M320 590 L342 719 L200 719 L178 590 L320 590 Z M555 590 L577 719 L435 719 L413 590 L555 590 Z " />
<glyph glyph-name="divide" unicode="÷" horiz-adv-x="608" d="M612 316 L631 420 L124 420 L105 316 L612 316 Z M466 490 L494 652 L342 652 L314 490 L466 490 Z M394 84 L422 246 L270 246 L242 84 L394 84 Z " />
<glyph glyph-name="oslash" unicode="ø" horiz-adv-x="525" d="M129 -75 L174 -10 C198 -15 226 -18 258 -18 C424 -18 508 51 536 208 L555 315 C559 339 561 361 561 381 C561 428 549 464 525 489 L604 601 L483 601 L435 533 C412 538 386 540 357 540 C192 540 108 471 80 315 L61 208 C56 183 54 160 54 140 C54 95 65 60 87 35 L10 -75 L129 -75 Z M399 217 C384 129 353 91 278 91 C266 91 255 91 246 92 L419 338 L399 217 Z M217 306 C231 392 261 431 337 431 C346 431 355 431 363 430 L198 194 L217 306 Z " />
<glyph glyph-name="ugrave" unicode="ù" horiz-adv-x="579" d="M424 164 C416 119 390 96 316 96 C254 96 228 105 228 142 C228 149 228 156 230 164 L276 422 L326 435 L342 526 L110 526 L94 435 L135 422 L89 162 C86 146 84 130 84 116 C84 21 153 -18 289 -18 C445 -18 523 34 546 162 L592 422 L637 435 L653 526 L440 526 L424 435 L470 422 L424 164 Z M469 580 L422 766 L287 766 L383 580 L469 580 Z " />
<glyph glyph-name="uacute" unicode="ú" horiz-adv-x="579" d="M424 164 C416 119 390 96 316 96 C254 96 228 105 228 142 C228 149 228 156 230 164 L276 422 L326 435 L342 526 L110 526 L94 435 L135 422 L89 162 C86 146 84 130 84 116 C84 21 153 -18 289 -18 C445 -18 523 34 546 162 L592 422 L637 435 L653 526 L440 526 L424 435 L470 422 L424 164 Z M404 580 L562 766 L425 766 L314 580 L404 580 Z " />
<glyph glyph-name="ucircumflex" unicode="û" horiz-adv-x="579" d="M424 164 C416 119 390 96 316 96 C254 96 228 105 228 142 C228 149 228 156 230 164 L276 422 L326 435 L342 526 L110 526 L94 435 L135 422 L89 162 C86 146 84 130 84 116 C84 21 153 -18 289 -18 C445 -18 523 34 546 162 L592 422 L637 435 L653 526 L440 526 L424 435 L470 422 L424 164 Z M590 579 L478 755 L368 755 L193 579 L302 579 L414 693 L485 579 L590 579 Z " />
<glyph glyph-name="udieresis" unicode="ü" horiz-adv-x="579" d="M424 164 C416 119 390 96 316 96 C254 96 228 105 228 142 C228 149 228 156 230 164 L276 422 L326 435 L342 526 L110 526 L94 435 L135 422 L89 162 C86 146 84 130 84 116 C84 21 153 -18 289 -18 C445 -18 523 34 546 162 L592 422 L637 435 L653 526 L440 526 L424 435 L470 422 L424 164 Z M347 590 L369 719 L227 719 L205 590 L347 590 Z M582 590 L604 719 L462 719 L440 590 L582 590 Z " />
<glyph glyph-name="yacute" unicode="ý" horiz-adv-x="573" d="M214 -21 L203 -40 C176 -86 150 -116 102 -116 C66 -116 45 -105 28 -87 L-25 -189 C0 -222 42 -239 95 -239 C209 -239 270 -155 332 -42 L588 425 L633 434 L649 526 L449 526 L433 434 L471 425 L319 125 L277 425 L321 434 L337 526 L106 526 L90 434 L132 425 L214 -21 Z M411 580 L569 766 L432 766 L321 580 L411 580 Z " />
<glyph glyph-name="thorn" unicode="þ" horiz-adv-x="564" d="M217 -228 L233 -137 L174 -124 L202 36 C237 -1 294 -17 352 -17 C486 -17 544 50 574 215 L592 316 C598 348 600 377 600 402 C600 496 559 540 467 540 C398 540 335 520 279 475 L322 719 L128 719 L112 628 L162 615 L32 -124 L-22 -137 L-38 -228 L217 -228 Z M433 214 C420 140 390 93 318 93 C281 93 242 106 218 128 L262 375 C299 409 342 428 391 428 C435 428 456 416 456 366 C456 351 454 332 450 308 L433 214 Z " />
<glyph glyph-name="ydieresis" unicode="ÿ" horiz-adv-x="573" d="M214 -21 L203 -40 C176 -86 150 -116 102 -116 C66 -116 45 -105 28 -87 L-25 -189 C0 -222 42 -239 95 -239 C209 -239 270 -155 332 -42 L588 425 L633 434 L649 526 L449 526 L433 434 L471 425 L319 125 L277 425 L321 434 L337 526 L106 526 L90 434 L132 425 L214 -21 Z M357 590 L379 719 L237 719 L215 590 L357 590 Z M592 590 L614 719 L472 719 L450 590 L592 590 Z " />
<glyph glyph-name="Amacron" unicode="Ā" horiz-adv-x="642" d="M621 0 L636 90 L591 103 C577 305 566 507 553 710 L349 710 L86 103 L35 90 L20 0 L233 0 L248 90 L204 103 L255 223 L428 223 L434 103 L380 90 L365 0 L621 0 Z M426 315 L291 315 L411 595 L426 315 Z M628 769 L644 864 L299 864 L283 769 L628 769 Z " />
<glyph glyph-name="amacron" unicode="ā" horiz-adv-x="546" d="M538 80 C529 73 523 70 513 70 C498 70 490 76 490 94 C490 98 490 103 491 108 L538 379 C541 396 543 412 543 427 C543 509 490 540 364 540 C286 540 204 528 131 485 L156 385 C210 416 267 428 322 428 C375 428 402 423 402 385 C402 379 401 372 400 365 L388 299 C344 313 292 325 227 325 C125 325 68 278 51 184 C40 125 39 111 39 98 C39 28 78 -18 171 -18 C252 -18 324 16 360 68 C363 14 392 -17 451 -17 C482 -17 509 -10 531 7 L538 80 Z M359 132 C324 105 280 83 232 83 C195 83 180 93 180 123 C180 185 203 243 266 243 C313 243 353 234 376 227 L359 132 Z M548 585 L564 680 L219 680 L203 585 L548 585 Z " />
<glyph glyph-name="Abreve" unicode="Ă" horiz-adv-x="642" d="M621 0 L636 90 L591 103 C577 305 566 507 553 710 L349 710 L86 103 L35 90 L20 0 L233 0 L248 90 L204 103 L255 223 L428 223 L434 103 L380 90 L365 0 L621 0 Z M426 315 L291 315 L411 595 L426 315 Z M574 935 C561 874 524 840 470 840 C423 840 397 866 397 912 C397 919 398 927 399 935 L314 935 C311 921 310 909 310 897 C310 803 379 758 457 758 C546 758 640 816 661 935 L574 935 Z " />
<glyph glyph-name="abreve" unicode="ă" horiz-adv-x="546" d="M538 80 C529 73 523 70 513 70 C498 70 490 76 490 94 C490 98 490 103 491 108 L538 379 C541 396 543 412 543 427 C543 509 490 540 364 540 C286 540 204 528 131 485 L156 385 C210 416 267 428 322 428 C375 428 402 423 402 385 C402 379 401 372 400 365 L388 299 C344 313 292 325 227 325 C125 325 68 278 51 184 C40 125 39 111 39 98 C39 28 78 -18 171 -18 C252 -18 324 16 360 68 C363 14 392 -17 451 -17 C482 -17 509 -10 531 7 L538 80 Z M359 132 C324 105 280 83 232 83 C195 83 180 93 180 123 C180 185 203 243 266 243 C313 243 353 234 376 227 L359 132 Z M491 751 C478 690 441 656 387 656 C340 656 314 682 314 728 C314 735 315 743 316 751 L231 751 C228 737 227 725 227 713 C227 619 296 574 374 574 C463 574 557 632 578 751 L491 751 Z " />
<glyph glyph-name="Aogonek" unicode="Ą" horiz-adv-x="642" d="M543 -114 C525 -120 506 -124 484 -124 C443 -124 430 -113 430 -95 C430 -45 509 -25 583 0 L621 0 L636 90 L591 103 C577 305 566 507 553 710 L349 710 L86 103 L35 90 L20 0 L235 0 L250 90 L204 103 L255 223 L428 223 L434 103 L382 90 L367 0 L509 0 C400 -23 304 -61 304 -153 C304 -219 375 -240 447 -240 C496 -240 541 -231 575 -212 L543 -114 Z M426 315 L291 315 L411 595 L426 315 Z " />
<glyph glyph-name="aogonek" unicode="ą" horiz-adv-x="546" d="M480 -114 C462 -120 443 -124 421 -124 C380 -124 367 -113 367 -95 C367 -26 490 -24 531 7 L538 80 C529 73 523 70 513 70 C498 70 489 74 489 92 C489 97 490 102 491 108 L538 379 C541 396 543 412 543 427 C543 509 490 540 364 540 C286 540 204 528 131 485 L156 385 C210 416 267 428 322 428 C368 428 402 424 402 383 C402 377 401 371 400 365 L388 299 C344 313 292 325 227 325 C125 325 68 278 51 184 C40 125 39 111 39 98 C39 28 78 -18 171 -18 C252 -18 324 16 360 68 C362 27 377 2 405 -9 C315 -32 241 -72 241 -153 C241 -219 312 -240 384 -240 C433 -240 478 -231 512 -212 L480 -114 Z M359 132 C324 105 280 83 232 83 C195 83 180 89 180 121 C180 129 181 139 187 172 C195 216 216 243 266 243 C313 243 353 234 376 227 L359 132 Z " />
<glyph glyph-name="Cacute" unicode="Ć" horiz-adv-x="557" d="M567 198 L448 198 L427 126 C399 99 363 91 328 91 C255 91 224 113 224 188 C224 212 227 243 234 281 L260 428 C281 550 323 618 420 618 C455 618 488 609 505 584 L502 512 L621 512 L647 661 C610 708 528 728 452 728 C238 728 143 655 103 428 L77 282 C70 241 66 206 66 175 C66 31 144 -18 320 -18 C396 -18 478 0 542 54 L567 198 Z M445 764 L603 950 L466 950 L355 764 L445 764 Z " />
<glyph glyph-name="cacute" unicode="ć" horiz-adv-x="479" d="M440 177 C404 126 348 101 293 101 C227 101 198 123 198 178 C198 191 200 206 203 223 L220 320 C231 386 269 435 336 435 C364 435 390 428 405 408 L403 341 L507 341 L530 474 C490 525 423 540 347 540 C186 540 103 451 81 323 L61 208 C57 188 56 168 56 151 C56 43 121 -18 260 -18 C346 -18 423 19 480 95 L440 177 Z M364 580 L522 766 L385 766 L274 580 L364 580 Z " />
<glyph glyph-name="Ccircumflex" unicode="Ĉ" horiz-adv-x="557" d="M567 198 L448 198 L427 126 C399 99 363 91 328 91 C255 91 224 113 224 188 C224 212 227 243 234 281 L260 428 C281 550 323 618 420 618 C455 618 488 609 505 584 L502 512 L621 512 L647 661 C610 708 528 728 452 728 C238 728 143 655 103 428 L77 282 C70 241 66 206 66 175 C66 31 144 -18 320 -18 C396 -18 478 0 542 54 L567 198 Z M621 763 L509 939 L399 939 L224 763 L333 763 L445 877 L516 763 L621 763 Z " />
<glyph glyph-name="ccircumflex" unicode="ĉ" horiz-adv-x="479" d="M440 177 C404 126 348 101 293 101 C227 101 198 123 198 178 C198 191 200 206 203 223 L220 320 C231 386 269 435 336 435 C364 435 390 428 405 408 L403 341 L507 341 L530 474 C490 525 423 540 347 540 C186 540 103 451 81 323 L61 208 C57 188 56 168 56 151 C56 43 121 -18 260 -18 C346 -18 423 19 480 95 L440 177 Z M546 579 L434 755 L324 755 L149 579 L258 579 L370 693 L441 579 L546 579 Z " />
<glyph glyph-name="Cdotaccent" unicode="Ċ" horiz-adv-x="557" d="M567 198 L448 198 L427 126 C399 99 363 91 328 91 C255 91 224 113 224 188 C224 212 227 243 234 281 L260 428 C281 550 323 618 420 618 C455 618 488 609 505 584 L502 512 L621 512 L647 661 C610 708 528 728 452 728 C238 728 143 655 103 428 L77 282 C70 241 66 206 66 175 C66 31 144 -18 320 -18 C396 -18 478 0 542 54 L567 198 Z M495 774 L517 903 L375 903 L353 774 L495 774 Z " />
<glyph glyph-name="cdotaccent" unicode="ċ" horiz-adv-x="479" d="M440 177 C404 126 348 101 293 101 C227 101 198 123 198 178 C198 191 200 206 203 223 L220 320 C231 386 269 435 336 435 C364 435 390 428 405 408 L403 341 L507 341 L530 474 C490 525 423 540 347 540 C186 540 103 451 81 323 L61 208 C57 188 56 168 56 151 C56 43 121 -18 260 -18 C346 -18 423 19 480 95 L440 177 Z M418 590 L440 719 L298 719 L276 590 L418 590 Z " />
<glyph glyph-name="Ccaron" unicode="Č" horiz-adv-x="557" d="M567 198 L448 198 L427 126 C399 99 363 91 328 91 C255 91 224 113 224 188 C224 212 227 243 234 281 L260 428 C281 550 323 618 420 618 C455 618 488 609 505 584 L502 512 L621 512 L647 661 C610 708 528 728 452 728 C238 728 143 655 103 428 L77 282 C70 241 66 206 66 175 C66 31 144 -18 320 -18 C396 -18 478 0 542 54 L567 198 Z M467 763 L642 939 L532 939 L421 826 L350 939 L244 939 L357 763 L467 763 Z " />
<glyph glyph-name="ccaron" unicode="č" horiz-adv-x="479" d="M440 177 C404 126 348 101 293 101 C227 101 198 123 198 178 C198 191 200 206 203 223 L220 320 C231 386 269 435 336 435 C364 435 390 428 405 408 L403 341 L507 341 L530 474 C490 525 423 540 347 540 C186 540 103 451 81 323 L61 208 C57 188 56 168 56 151 C56 43 121 -18 260 -18 C346 -18 423 19 480 95 L440 177 Z M406 579 L581 755 L471 755 L360 642 L289 755 L183 755 L296 579 L406 579 Z " />
<glyph glyph-name="Dcaron" unicode="Ď" horiz-adv-x="622" d="M340 0 C521 0 606 74 640 269 L670 441 C676 476 679 508 679 535 C679 660 613 710 465 710 L154 710 L138 619 L187 606 L99 104 L45 91 L29 0 L340 0 Z M484 264 C465 159 424 108 359 108 L255 108 L342 602 L446 602 C497 602 524 586 524 522 C524 501 521 477 516 446 L484 264 Z M490 763 L665 939 L555 939 L444 826 L373 939 L267 939 L380 763 L490 763 Z " />
<glyph glyph-name="dcaron" unicode="ď" horiz-adv-x="735" d="M560 0 L576 91 L526 104 L634 719 L440 719 L424 628 L474 615 L452 489 C416 526 359 542 302 542 C167 542 108 475 79 310 L61 208 C55 176 52 147 52 123 C52 28 94 -15 186 -15 C255 -15 317 4 385 58 L379 0 L560 0 Z M392 153 C355 118 311 100 263 100 C218 100 197 115 197 165 C198 180 199 198 203 220 L219 307 C234 387 262 429 334 429 C372 429 411 416 435 394 L392 153 Z M688 419 C736 454 781 504 806 550 L836 719 L684 719 L656 557 L739 557 C717 522 683 491 653 466 L688 419 Z " />
<glyph glyph-name="Dcroat" unicode="Đ" horiz-adv-x="622" d="M340 0 C521 0 606 74 640 269 L670 441 C676 476 679 508 679 535 C679 660 613 710 465 710 L154 710 L138 619 L187 606 L154 419 L102 419 L85 318 L137 318 L99 104 L45 91 L29 0 L340 0 Z M484 264 C465 155 425 108 359 108 L255 108 L292 318 L397 318 L414 419 L309 419 L342 602 L446 602 C497 602 523 583 523 518 C523 497 520 471 515 440 L484 264 Z " />
<glyph glyph-name="dcroat" unicode="đ" horiz-adv-x="582" d="M661 575 L678 670 L626 670 L634 719 L492 719 L484 670 L333 670 L316 575 L467 575 L452 489 C416 526 359 542 302 542 C167 542 108 475 79 310 L61 208 C55 176 52 147 52 123 C52 28 94 -15 186 -15 C255 -15 317 4 385 58 L379 0 L560 0 L576 91 L526 104 L609 575 L661 575 Z M392 153 C355 118 311 100 263 100 C218 100 197 116 197 166 C197 181 199 198 203 220 L219 307 C234 388 262 429 334 429 C372 429 411 416 435 394 L392 153 Z " />
<glyph glyph-name="Emacron" unicode="Ē" horiz-adv-x="571" d="M538 0 L576 219 L490 219 L453 116 L253 116 L289 318 L454 318 L458 263 L530 263 L567 474 L495 474 L471 419 L306 419 L338 600 L537 600 L537 513 L622 513 L657 710 L154 710 L138 619 L187 606 L99 104 L45 91 L29 0 L538 0 Z M593 769 L609 864 L264 864 L248 769 L593 769 Z " />
<glyph glyph-name="emacron" unicode="ē" horiz-adv-x="507" d="M518 223 L530 290 C536 327 540 360 540 389 C540 488 494 540 351 540 C181 540 107 461 78 298 L64 220 C60 199 58 180 58 161 C58 54 119 -18 264 -18 C375 -18 445 16 486 71 L451 153 C417 116 376 93 303 93 C227 93 195 110 195 170 C195 185 197 203 201 223 L518 223 Z M217 313 C229 381 252 443 336 443 C396 443 413 419 413 376 C413 358 410 337 406 313 L217 313 Z M529 585 L545 680 L200 680 L184 585 L529 585 Z " />
<glyph glyph-name="Ebreve" unicode="Ĕ" horiz-adv-x="571" d="M538 0 L576 219 L490 219 L453 116 L253 116 L289 318 L454 318 L458 263 L530 263 L567 474 L495 474 L471 419 L306 419 L338 600 L537 600 L537 513 L622 513 L657 710 L154 710 L138 619 L187 606 L99 104 L45 91 L29 0 L538 0 Z M536 935 C523 874 486 840 432 840 C385 840 359 866 359 912 C359 919 360 927 361 935 L276 935 C273 921 272 909 272 897 C272 803 341 758 419 758 C508 758 602 816 623 935 L536 935 Z " />
<glyph glyph-name="ebreve" unicode="ĕ" horiz-adv-x="507" d="M518 223 L530 290 C536 327 540 360 540 389 C540 488 494 540 351 540 C181 540 107 461 78 298 L64 220 C60 199 58 180 58 161 C58 54 119 -18 264 -18 C375 -18 445 16 486 71 L451 153 C417 116 376 93 303 93 C227 93 195 110 195 170 C195 185 197 203 201 223 L518 223 Z M217 313 C229 381 252 443 336 443 C396 443 413 419 413 376 C413 358 410 337 406 313 L217 313 Z M472 751 C459 690 422 656 368 656 C321 656 295 682 295 728 C295 735 296 743 297 751 L212 751 C209 737 208 725 208 713 C208 619 277 574 355 574 C444 574 538 632 559 751 L472 751 Z " />
<glyph glyph-name="Edotaccent" unicode="Ė" horiz-adv-x="571" d="M538 0 L576 219 L490 219 L453 116 L253 116 L289 318 L454 318 L458 263 L530 263 L567 474 L495 474 L471 419 L306 419 L338 600 L537 600 L537 513 L622 513 L657 710 L154 710 L138 619 L187 606 L99 104 L45 91 L29 0 L538 0 Z M492 774 L514 903 L372 903 L350 774 L492 774 Z " />
<glyph glyph-name="edotaccent" unicode="ė" horiz-adv-x="507" d="M518 223 L530 290 C536 327 540 360 540 389 C540 488 494 540 351 540 C181 540 107 461 78 298 L64 220 C60 199 58 180 58 161 C58 54 119 -18 264 -18 C375 -18 445 16 486 71 L451 153 C417 116 376 93 303 93 C227 93 195 110 195 170 C195 185 197 203 201 223 L518 223 Z M217 313 C229 381 252 443 336 443 C396 443 413 419 413 376 C413 358 410 337 406 313 L217 313 Z M428 590 L450 719 L308 719 L286 590 L428 590 Z " />
<glyph glyph-name="Eogonek" unicode="Ę" horiz-adv-x="571" d="M498 -114 C480 -120 461 -124 439 -124 C398 -124 385 -113 385 -95 C385 -45 464 -25 538 0 L576 219 L490 219 L453 116 L253 116 L289 318 L454 318 L458 263 L530 263 L567 474 L495 474 L471 419 L306 419 L338 600 L537 600 L537 513 L622 513 L657 710 L154 710 L138 619 L187 606 L99 104 L45 91 L29 0 L464 0 C355 -23 259 -61 259 -153 C259 -219 330 -240 402 -240 C451 -240 496 -231 530 -212 L498 -114 Z " />
<glyph glyph-name="eogonek" unicode="ę" horiz-adv-x="507" d="M345 -114 C327 -120 308 -124 286 -124 C245 -124 232 -113 232 -95 C232 -50 298 -25 366 -6 C421 10 460 35 486 71 L451 153 C417 116 376 93 303 93 C227 93 195 108 195 168 C195 183 197 201 201 223 L518 223 L530 290 C536 327 540 360 540 389 C540 488 494 540 351 540 C181 540 107 461 78 298 L64 220 C60 199 58 180 58 161 C58 60 113 -10 242 -17 C165 -42 106 -80 106 -153 C106 -219 177 -240 249 -240 C298 -240 343 -231 377 -212 L345 -114 Z M217 313 C229 383 252 443 336 443 C396 443 413 422 413 379 C413 361 410 339 406 313 L217 313 Z " />
<glyph glyph-name="Ecaron" unicode="Ě" horiz-adv-x="571" d="M538 0 L576 219 L490 219 L453 116 L253 116 L289 318 L454 318 L458 263 L530 263 L567 474 L495 474 L471 419 L306 419 L338 600 L537 600 L537 513 L622 513 L657 710 L154 710 L138 619 L187 606 L99 104 L45 91 L29 0 L538 0 Z M474 763 L649 939 L539 939 L428 826 L357 939 L251 939 L364 763 L474 763 Z " />
<glyph glyph-name="ecaron" unicode="ě" horiz-adv-x="507" d="M518 223 L530 290 C536 327 540 360 540 389 C540 488 494 540 351 540 C181 540 107 461 78 298 L64 220 C60 199 58 180 58 161 C58 54 119 -18 264 -18 C375 -18 445 16 486 71 L451 153 C417 116 376 93 303 93 C227 93 195 110 195 170 C195 185 197 203 201 223 L518 223 Z M217 313 C229 381 252 443 336 443 C396 443 413 419 413 376 C413 358 410 337 406 313 L217 313 Z M410 579 L585 755 L475 755 L364 642 L293 755 L187 755 L300 579 L410 579 Z " />
<glyph glyph-name="Gcircumflex" unicode="Ĝ" horiz-adv-x="581" d="M429 126 C413 110 379 98 320 98 C252 98 223 124 223 195 C223 217 226 242 231 272 L259 429 C282 559 327 618 421 618 C458 618 496 610 513 584 L510 512 L629 512 L655 661 C618 708 532 728 438 728 C241 728 144 652 104 428 L76 272 C69 235 66 202 66 173 C66 40 136 -18 300 -18 C436 -18 535 33 563 58 L622 392 L388 392 L373 307 L458 294 L429 126 Z M623 763 L511 939 L401 939 L226 763 L335 763 L447 877 L518 763 L623 763 Z " />
<glyph glyph-name="gcircumflex" unicode="ĝ" horiz-adv-x="530" d="M362 5 C348 -68 316 -122 221 -122 C169 -122 118 -109 80 -80 L26 -174 C71 -227 148 -240 223 -240 C375 -240 470 -179 499 -14 L594 526 L507 526 L469 470 C440 513 384 539 299 539 C160 539 104 463 79 311 L68 244 C62 211 59 181 59 155 C59 66 96 18 192 18 C258 18 322 40 377 86 L362 5 Z M394 182 C357 148 312 129 264 129 C217 129 200 148 200 190 C199 205 202 223 206 244 L217 309 C228 377 253 430 330 430 C366 430 410 416 431 396 L394 182 Z M565 579 L453 755 L343 755 L168 579 L277 579 L389 693 L460 579 L565 579 Z " />
<glyph glyph-name="Gbreve" unicode="Ğ" horiz-adv-x="581" d="M429 126 C413 110 379 98 320 98 C252 98 223 124 223 195 C223 217 226 242 231 272 L259 429 C282 559 327 618 421 618 C458 618 496 610 513 584 L510 512 L629 512 L655 661 C618 708 532 728 438 728 C241 728 144 652 104 428 L76 272 C69 235 66 202 66 173 C66 40 136 -18 300 -18 C436 -18 535 33 563 58 L622 392 L388 392 L373 307 L458 294 L429 126 Z M541 935 C528 874 491 840 437 840 C390 840 364 866 364 912 C364 919 365 927 366 935 L281 935 C278 921 277 909 277 897 C277 803 346 758 424 758 C513 758 607 816 628 935 L541 935 Z " />
<glyph glyph-name="gbreve" unicode="ğ" horiz-adv-x="530" d="M362 5 C348 -68 316 -122 221 -122 C169 -122 118 -109 80 -80 L26 -174 C71 -227 148 -240 223 -240 C375 -240 470 -179 499 -14 L594 526 L507 526 L469 470 C440 513 384 539 299 539 C160 539 104 463 79 311 L68 244 C62 211 59 181 59 155 C59 66 96 18 192 18 C258 18 322 40 377 86 L362 5 Z M394 182 C357 148 312 129 264 129 C217 129 200 148 200 190 C199 205 202 223 206 244 L217 309 C228 377 253 430 330 430 C366 430 410 416 431 396 L394 182 Z M483 751 C470 690 433 656 379 656 C332 656 306 682 306 728 C306 735 307 743 308 751 L223 751 C220 737 219 725 219 713 C219 619 288 574 366 574 C455 574 549 632 570 751 L483 751 Z " />
<glyph glyph-name="Gdotaccent" unicode="Ġ" horiz-adv-x="581" d="M429 126 C413 110 379 98 320 98 C252 98 223 124 223 195 C223 217 226 242 231 272 L259 429 C282 559 327 618 421 618 C458 618 496 610 513 584 L510 512 L629 512 L655 661 C618 708 532 728 438 728 C241 728 144 652 104 428 L76 272 C69 235 66 202 66 173 C66 40 136 -18 300 -18 C436 -18 535 33 563 58 L622 392 L388 392 L373 307 L458 294 L429 126 Z M502 774 L524 903 L382 903 L360 774 L502 774 Z " />
<glyph glyph-name="gdotaccent" unicode="ġ" horiz-adv-x="530" d="M362 5 C348 -68 316 -122 221 -122 C169 -122 118 -109 80 -80 L26 -174 C71 -227 148 -240 223 -240 C375 -240 470 -179 499 -14 L594 526 L507 526 L469 470 C440 513 384 539 299 539 C160 539 104 463 79 311 L68 244 C62 211 59 181 59 155 C59 66 96 18 192 18 C258 18 322 40 377 86 L362 5 Z M394 182 C357 148 312 129 264 129 C217 129 200 148 200 190 C199 205 202 223 206 244 L217 309 C228 377 253 430 330 430 C366 430 410 416 431 396 L394 182 Z M440 590 L462 719 L320 719 L298 590 L440 590 Z " />
<glyph glyph-name="Gcommaaccent" unicode="Ģ" horiz-adv-x="581" d="M429 126 C413 110 379 98 320 98 C252 98 223 124 223 195 C223 217 226 242 231 272 L259 429 C282 559 327 618 421 618 C458 618 496 610 513 584 L510 512 L629 512 L655 661 C618 708 532 728 438 728 C241 728 144 652 104 428 L76 272 C69 235 66 202 66 173 C66 40 136 -18 300 -18 C436 -18 535 33 563 58 L622 392 L388 392 L373 307 L458 294 L429 126 Z M244 -240 C283 -211 320 -172 337 -135 L355 -29 L233 -29 L215 -135 L275 -135 C257 -160 233 -185 209 -203 L244 -240 Z " />
<glyph glyph-name="gcommaaccent" unicode="ģ" horiz-adv-x="530" d="M362 5 C348 -68 316 -122 221 -122 C169 -122 118 -109 80 -80 L26 -174 C71 -227 148 -240 223 -240 C375 -240 470 -179 499 -14 L594 526 L507 526 L469 470 C440 513 384 539 299 539 C160 539 104 463 79 311 L68 244 C62 211 59 181 59 155 C59 66 96 18 192 18 C258 18 322 40 377 86 L362 5 Z M394 182 C357 148 312 129 264 129 C217 129 200 148 200 190 C199 205 202 223 206 244 L217 309 C228 377 253 430 330 430 C366 430 410 416 431 396 L394 182 Z M417 785 C378 756 341 717 324 680 L306 574 L428 574 L446 680 L386 680 C404 705 428 730 452 748 L417 785 Z " />
<glyph glyph-name="Hcircumflex" unicode="Ĥ" horiz-adv-x="666" d="M637 0 L653 91 L602 104 L690 606 L746 619 L762 710 L510 710 L494 619 L540 606 L506 413 L304 413 L338 606 L389 619 L405 710 L154 710 L138 619 L187 606 L99 104 L45 91 L29 0 L280 0 L296 91 L250 104 L285 306 L487 306 L452 104 L401 91 L385 0 L637 0 Z M665 763 L553 939 L443 939 L268 763 L377 763 L489 877 L560 763 L665 763 Z " />
<glyph glyph-name="hcircumflex" unicode="ĥ" horiz-adv-x="634" d="M612 0 L628 91 L578 104 L629 396 C631 410 633 423 633 435 C633 506 590 540 502 540 C430 540 363 526 302 483 L343 719 L149 719 L133 628 L183 615 L93 104 L39 91 L23 0 L266 0 L282 91 L235 104 L284 381 C327 416 373 426 423 426 C460 426 484 418 484 384 C484 379 483 373 482 366 L436 104 L385 91 L369 0 L612 0 Z M554 763 L442 939 L332 939 L157 763 L266 763 L378 877 L449 763 L554 763 Z " />
<glyph glyph-name="Hbar" unicode="Ħ" horiz-adv-x="666" d="M637 0 L653 91 L602 104 L690 606 L746 619 L762 710 L510 710 L494 619 L540 606 L532 559 L330 559 L338 606 L389 619 L405 710 L154 710 L138 619 L187 606 L99 104 L45 91 L29 0 L280 0 L296 91 L250 104 L285 306 L487 306 L452 104 L401 91 L385 0 L637 0 Z M304 413 L313 464 L515 464 L506 413 L304 413 Z " />
<glyph glyph-name="hbar" unicode="ħ" horiz-adv-x="634" d="M459 575 L476 670 L335 670 L343 719 L201 719 L193 670 L131 670 L114 575 L176 575 L93 104 L39 91 L23 0 L266 0 L282 91 L235 104 L284 381 C327 416 373 426 423 426 C460 426 484 420 484 385 C484 379 483 373 482 366 L436 104 L385 91 L369 0 L612 0 L628 91 L578 104 L629 396 C631 410 633 424 633 435 C633 506 590 540 502 540 C430 540 363 526 302 483 L318 575 L459 575 Z " />
<glyph glyph-name="Itilde" unicode="Ĩ" horiz-adv-x="317" d="M288 0 L304 91 L254 104 L342 606 L397 619 L413 710 L154 710 L138 619 L187 606 L99 104 L45 91 L29 0 L288 0 Z M493 892 C458 857 427 841 389 841 C335 841 298 893 230 893 C187 893 156 873 131 849 L115 756 C150 791 181 808 220 808 C271 808 308 755 379 755 C422 755 453 775 477 799 L493 892 Z " />
<glyph glyph-name="itilde" unicode="ĩ" horiz-adv-x="332" d="M289 0 L305 91 L255 104 L329 526 L135 526 L119 435 L169 422 L113 104 L59 91 L43 0 L289 0 Z M467 708 C432 673 401 657 363 657 C309 657 272 709 204 709 C161 709 130 689 105 665 L89 572 C124 607 155 624 194 624 C245 624 282 571 353 571 C396 571 427 591 451 615 L467 708 Z " />
<glyph glyph-name="uni012A" unicode="Ī" horiz-adv-x="317" d="M288 0 L304 91 L254 104 L342 606 L397 619 L413 710 L154 710 L138 619 L187 606 L99 104 L45 91 L29 0 L288 0 Z M467 769 L483 864 L138 864 L122 769 L467 769 Z " />
<glyph glyph-name="imacron" unicode="ī" horiz-adv-x="332" d="M289 0 L305 91 L255 104 L329 526 L135 526 L119 435 L169 422 L113 104 L59 91 L43 0 L289 0 Z M441 585 L457 680 L112 680 L96 585 L441 585 Z " />
<glyph glyph-name="Ibreve" unicode="Ĭ" horiz-adv-x="317" d="M288 0 L304 91 L254 104 L342 606 L397 619 L413 710 L154 710 L138 619 L187 606 L99 104 L45 91 L29 0 L288 0 Z M410 935 C397 874 360 840 306 840 C259 840 233 866 233 912 C233 919 234 927 235 935 L150 935 C147 921 146 909 146 897 C146 803 215 758 293 758 C382 758 476 816 497 935 L410 935 Z " />
<glyph glyph-name="ibreve" unicode="ĭ" horiz-adv-x="332" d="M289 0 L305 91 L255 104 L329 526 L135 526 L119 435 L169 422 L113 104 L59 91 L43 0 L289 0 Z M384 751 C371 690 334 656 280 656 C233 656 207 682 207 728 C207 735 208 743 209 751 L124 751 C121 737 120 725 120 713 C120 619 189 574 267 574 C356 574 450 632 471 751 L384 751 Z " />
<glyph glyph-name="Iogonek" unicode="Į" horiz-adv-x="317" d="M196 -114 C178 -120 159 -124 137 -124 C96 -124 83 -113 83 -95 C83 -45 162 -25 236 0 L288 0 L304 91 L254 104 L342 606 L397 619 L413 710 L154 710 L138 619 L187 606 L99 104 L45 91 L29 0 L162 0 C53 -23 -42 -61 -42 -153 C-42 -219 28 -240 100 -240 C149 -240 194 -231 228 -212 L196 -114 Z " />
<glyph glyph-name="iogonek" unicode="į" horiz-adv-x="291" d="M177 -114 C159 -120 140 -124 118 -124 C77 -124 64 -113 64 -95 C64 -45 143 -25 217 0 L269 0 L285 91 L235 104 L309 526 L115 526 L99 435 L149 422 L93 104 L39 91 L23 0 L143 0 C34 -23 -61 -61 -61 -153 C-61 -219 9 -240 81 -240 C130 -240 175 -231 209 -212 L177 -114 Z M321 590 L343 719 L201 719 L179 590 L321 590 Z " />
<glyph glyph-name="Idotaccent" unicode="İ" horiz-adv-x="317" d="M288 0 L304 91 L254 104 L342 606 L397 619 L413 710 L154 710 L138 619 L187 606 L99 104 L45 91 L29 0 L288 0 Z M365 774 L387 903 L245 903 L223 774 L365 774 Z " />
<glyph glyph-name="dotlessi" unicode="ı" horiz-adv-x="291" d="M269 0 L285 91 L235 104 L309 526 L115 526 L99 435 L149 422 L93 104 L39 91 L23 0 L269 0 Z " />
<glyph glyph-name="IJ" unicode="Ĳ" horiz-adv-x="645" d="M288 0 L304 91 L254 104 L342 606 L397 619 L413 710 L154 710 L138 619 L187 606 L99 104 L45 91 L29 0 L288 0 Z M229 -152 C247 -182 282 -206 344 -206 C484 -206 549 -114 576 40 L675 606 L724 618 L741 710 L483 710 L466 618 L522 606 L422 35 C412 -24 383 -87 317 -87 C289 -87 271 -78 255 -61 L229 -152 Z " />
<glyph glyph-name="ij" unicode="ĳ" horiz-adv-x="537" d="M269 0 L285 91 L235 104 L309 526 L115 526 L99 435 L149 422 L93 104 L39 91 L23 0 L269 0 Z M321 590 L343 719 L201 719 L179 590 L321 590 Z M180 -190 C199 -222 237 -240 292 -240 C412 -240 471 -156 496 -16 L591 526 L395 526 L379 434 L431 422 L354 -16 C346 -61 324 -126 261 -126 C237 -126 222 -120 207 -105 L180 -190 Z M602 590 L624 719 L482 719 L460 590 L602 590 Z " />
<glyph glyph-name="Jcircumflex" unicode="Ĵ" horiz-adv-x="328" d="M-88 -152 C-70 -182 -35 -206 27 -206 C167 -206 232 -114 259 40 L358 606 L407 618 L424 710 L166 710 L149 618 L205 606 L105 35 C95 -24 66 -87 0 -87 C-28 -87 -46 -78 -62 -61 L-88 -152 Z M488 763 L376 939 L266 939 L91 763 L200 763 L312 877 L383 763 L488 763 Z " />
<glyph glyph-name="jcircumflex" unicode="ĵ" horiz-adv-x="340" d="M-63 -190 C-44 -222 -6 -240 49 -240 C169 -240 228 -156 253 -16 L348 526 L152 526 L136 434 L188 422 L111 -16 C103 -59 81 -126 18 -126 C-6 -126 -21 -120 -36 -105 L-63 -190 Z M462 579 L350 755 L240 755 L65 579 L174 579 L286 693 L357 579 L462 579 Z " />
<glyph glyph-name="Kcommaaccent" unicode="Ķ" horiz-adv-x="650" d="M628 0 L642 83 L590 104 L445 421 L646 601 L714 619 L730 710 L500 710 L484 619 L527 606 L304 404 L339 606 L390 619 L406 710 L154 710 L138 619 L187 606 L99 104 L45 91 L29 0 L281 0 L297 91 L251 104 L298 371 L450 0 L628 0 Z M279 -240 C318 -211 355 -172 372 -135 L390 -29 L268 -29 L250 -135 L310 -135 C292 -160 268 -185 244 -203 L279 -240 Z " />
<glyph glyph-name="kcommaaccent" unicode="ķ" horiz-adv-x="570" d="M555 0 L571 91 L519 104 L402 301 L545 424 L603 435 L619 526 L405 526 L389 435 L436 424 L264 268 L343 719 L149 719 L133 628 L183 615 L93 104 L39 91 L23 0 L258 0 L274 91 L235 104 L259 241 L393 0 L555 0 Z M239 -240 C278 -211 315 -172 332 -135 L350 -29 L228 -29 L210 -135 L270 -135 C252 -160 228 -185 204 -203 L239 -240 Z " />
<glyph glyph-name="Lacute" unicode="Ĺ" horiz-adv-x="539" d="M512 0 L561 280 L473 280 L430 119 L256 119 L342 606 L398 619 L414 710 L154 710 L138 619 L187 606 L99 104 L45 92 L29 0 L512 0 Z M306 764 L464 950 L327 950 L216 764 L306 764 Z " />
<glyph glyph-name="lacute" unicode="ĺ" horiz-adv-x="291" d="M269 0 L285 91 L235 104 L343 719 L149 719 L133 628 L183 615 L93 104 L39 91 L23 0 L269 0 Z M292 764 L450 950 L313 950 L202 764 L292 764 Z " />
<glyph glyph-name="Lcommaaccent" unicode="Ļ" horiz-adv-x="539" d="M512 0 L561 280 L473 280 L430 119 L256 119 L342 606 L398 619 L414 710 L154 710 L138 619 L187 606 L99 104 L45 92 L29 0 L512 0 Z M233 -240 C272 -211 309 -172 326 -135 L344 -29 L222 -29 L204 -135 L264 -135 C246 -160 222 -185 198 -203 L233 -240 Z " />
<glyph glyph-name="lcommaaccent" unicode="ļ" horiz-adv-x="291" d="M269 0 L285 91 L235 104 L343 719 L149 719 L133 628 L183 615 L93 104 L39 91 L23 0 L269 0 Z M89 -240 C128 -211 165 -172 182 -135 L200 -29 L78 -29 L60 -135 L120 -135 C102 -160 78 -185 54 -203 L89 -240 Z " />
<glyph glyph-name="Lcaron" unicode="Ľ" horiz-adv-x="539" d="M512 0 L561 280 L473 280 L430 119 L256 119 L342 606 L398 619 L414 710 L154 710 L138 619 L187 606 L99 104 L45 92 L29 0 L512 0 Z M454 419 C502 454 547 504 572 550 L602 719 L450 719 L422 557 L505 557 C483 522 449 491 419 466 L454 419 Z " />
<glyph glyph-name="lcaron" unicode="ľ" horiz-adv-x="419" d="M269 0 L285 91 L235 104 L343 719 L149 719 L133 628 L183 615 L93 104 L39 91 L23 0 L269 0 Z M397 419 C445 454 490 504 515 550 L545 719 L393 719 L365 557 L448 557 C426 522 392 491 362 466 L397 419 Z " />
<glyph glyph-name="Ldot" unicode="Ŀ" horiz-adv-x="539" d="M512 0 L561 280 L473 280 L430 119 L256 119 L342 606 L398 619 L414 710 L154 710 L138 619 L187 606 L99 104 L45 92 L29 0 L512 0 Z M464 320 L486 449 L344 449 L322 320 L464 320 Z " />
<glyph glyph-name="ldot" unicode="ŀ" horiz-adv-x="411" d="M269 0 L285 91 L235 104 L343 719 L149 719 L133 628 L183 615 L93 104 L39 91 L23 0 L269 0 Z M463 300 L485 429 L343 429 L321 300 L463 300 Z " />
<glyph glyph-name="Lslash" unicode="Ł" horiz-adv-x="539" d="M512 0 L561 280 L478 280 L435 119 L256 119 L290 309 L481 398 L498 496 L308 409 L342 606 L398 619 L414 710 L154 710 L138 619 L187 606 L99 104 L45 91 L29 0 L512 0 Z " />
<glyph glyph-name="lslash" unicode="ł" horiz-adv-x="303" d="M277 0 L293 91 L242 104 L284 345 L349 373 L367 471 L302 443 L350 719 L156 719 L140 628 L191 615 L149 378 L84 351 L67 254 L132 281 L101 104 L46 91 L30 0 L277 0 Z " />
<glyph glyph-name="Nacute" unicode="Ń" horiz-adv-x="671" d="M595 0 L701 606 L754 619 L770 710 L550 710 L534 619 L579 606 L518 260 L382 710 L154 710 L138 619 L187 606 L99 104 L45 91 L29 0 L260 0 L276 91 L221 104 L289 491 L466 0 L595 0 Z M482 764 L640 950 L503 950 L392 764 L482 764 Z " />
<glyph glyph-name="nacute" unicode="ń" horiz-adv-x="634" d="M612 0 L628 91 L578 104 L629 396 C631 410 633 423 633 435 C633 506 590 540 502 540 C411 540 356 519 290 467 L297 526 L115 526 L99 435 L149 422 L93 104 L39 91 L23 0 L266 0 L282 91 L235 104 L284 382 C327 417 373 427 423 427 C460 427 484 419 484 385 C484 379 483 373 482 366 L436 104 L385 91 L369 0 L612 0 Z M431 580 L589 766 L452 766 L341 580 L431 580 Z " />
<glyph glyph-name="Ncommaaccent" unicode="Ņ" horiz-adv-x="671" d="M595 0 L701 606 L754 619 L770 710 L550 710 L534 619 L579 606 L518 260 L382 710 L154 710 L138 619 L187 606 L99 104 L45 91 L29 0 L260 0 L276 91 L221 104 L289 491 L466 0 L595 0 Z M289 -240 C328 -211 365 -172 382 -135 L400 -29 L278 -29 L260 -135 L320 -135 C302 -160 278 -185 254 -203 L289 -240 Z " />
<glyph glyph-name="ncommaaccent" unicode="ņ" horiz-adv-x="634" d="M612 0 L628 91 L578 104 L629 396 C631 410 633 423 633 435 C633 506 590 540 502 540 C411 540 356 519 290 467 L297 526 L115 526 L99 435 L149 422 L93 104 L39 91 L23 0 L266 0 L282 91 L235 104 L284 382 C327 417 373 427 423 427 C460 427 484 419 484 385 C484 379 483 373 482 366 L436 104 L385 91 L369 0 L612 0 Z M261 -240 C300 -211 337 -172 354 -135 L372 -29 L250 -29 L232 -135 L292 -135 C274 -160 250 -185 226 -203 L261 -240 Z " />
<glyph glyph-name="Ncaron" unicode="Ň" horiz-adv-x="671" d="M595 0 L701 606 L754 619 L770 710 L550 710 L534 619 L579 606 L518 260 L382 710 L154 710 L138 619 L187 606 L99 104 L45 91 L29 0 L260 0 L276 91 L221 104 L289 491 L466 0 L595 0 Z M524 763 L699 939 L589 939 L478 826 L407 939 L301 939 L414 763 L524 763 Z " />
<glyph glyph-name="ncaron" unicode="ň" horiz-adv-x="634" d="M612 0 L628 91 L578 104 L629 396 C631 410 633 423 633 435 C633 506 590 540 502 540 C411 540 356 519 290 467 L297 526 L115 526 L99 435 L149 422 L93 104 L39 91 L23 0 L266 0 L282 91 L235 104 L284 382 C327 417 373 427 423 427 C460 427 484 419 484 385 C484 379 483 373 482 366 L436 104 L385 91 L369 0 L612 0 Z M474 579 L649 755 L539 755 L428 642 L357 755 L251 755 L364 579 L474 579 Z " />
<glyph glyph-name="Eng" unicode="Ŋ" horiz-adv-x="671" d="M284 -190 C303 -222 341 -240 397 -240 C517 -240 567 -156 592 -16 L701 606 L754 619 L770 710 L550 710 L534 619 L579 606 L518 260 L382 710 L154 710 L138 619 L187 606 L99 104 L45 91 L29 0 L260 0 L276 91 L221 104 L289 491 L462 1 C452 -56 429 -126 365 -126 C341 -126 326 -120 311 -105 L284 -190 Z " />
<glyph glyph-name="eng" unicode="ŋ" horiz-adv-x="634" d="M240 -190 C259 -222 297 -240 353 -240 C471 -240 532 -156 557 -16 L629 396 C631 410 633 425 633 435 C633 506 590 540 502 540 C411 540 356 519 290 467 L297 526 L115 526 L99 435 L149 422 L93 104 L39 91 L23 0 L266 0 L282 91 L235 104 L284 382 C327 417 373 427 423 427 C460 427 484 419 484 384 C484 379 483 373 482 366 L415 -16 C407 -63 385 -126 321 -126 C297 -126 282 -120 267 -105 L240 -190 Z " />
<glyph glyph-name="Omacron" unicode="Ō" horiz-adv-x="611" d="M657 426 C663 460 666 492 666 520 C666 663 590 728 433 728 C244 728 141 635 104 426 L79 284 C73 248 69 216 69 187 C69 46 145 -18 301 -18 C489 -18 595 75 632 284 L657 426 Z M476 284 C451 145 406 94 321 94 C257 94 223 111 223 188 C223 213 227 245 234 284 L259 426 C283 561 328 616 413 616 C478 616 511 598 511 520 C511 495 508 464 501 426 L476 284 Z M613 769 L629 864 L284 864 L268 769 L613 769 Z " />
<glyph glyph-name="omacron" unicode="ō" horiz-adv-x="525" d="M555 315 C559 339 561 362 561 382 C561 491 497 540 357 540 C192 540 108 471 80 315 L61 208 C56 183 54 161 54 140 C54 31 119 -18 258 -18 C424 -18 508 51 536 208 L555 315 Z M399 217 C384 129 353 91 278 91 C220 91 195 102 195 156 C195 172 198 192 202 217 L217 306 C231 392 263 431 337 431 C395 431 421 420 421 367 C422 351 418 331 414 306 L399 217 Z M538 585 L554 680 L209 680 L193 585 L538 585 Z " />
<glyph glyph-name="Obreve" unicode="Ŏ" horiz-adv-x="611" d="M657 426 C663 460 666 492 666 520 C666 663 590 728 433 728 C244 728 141 635 104 426 L79 284 C73 248 69 216 69 187 C69 46 145 -18 301 -18 C489 -18 595 75 632 284 L657 426 Z M476 284 C451 145 406 94 321 94 C257 94 223 111 223 188 C223 213 227 245 234 284 L259 426 C283 561 328 616 413 616 C478 616 511 598 511 520 C511 495 508 464 501 426 L476 284 Z M556 935 C543 874 506 840 452 840 C405 840 379 866 379 912 C379 919 380 927 381 935 L296 935 C293 921 292 909 292 897 C292 803 361 758 439 758 C528 758 622 816 643 935 L556 935 Z " />
<glyph glyph-name="obreve" unicode="ŏ" horiz-adv-x="525" d="M555 315 C559 339 561 362 561 382 C561 491 497 540 357 540 C192 540 108 471 80 315 L61 208 C56 183 54 161 54 140 C54 31 119 -18 258 -18 C424 -18 508 51 536 208 L555 315 Z M399 217 C384 129 353 91 278 91 C220 91 195 102 195 156 C195 172 198 192 202 217 L217 306 C231 392 263 431 337 431 C395 431 421 420 421 367 C422 351 418 331 414 306 L399 217 Z M481 751 C468 690 431 656 377 656 C330 656 304 682 304 728 C304 735 305 743 306 751 L221 751 C218 737 217 725 217 713 C217 619 286 574 364 574 C453 574 547 632 568 751 L481 751 Z " />
<glyph glyph-name="Ohungarumlaut" unicode="Ő" horiz-adv-x="611" d="M657 426 C663 460 666 492 666 520 C666 663 590 728 433 728 C244 728 141 635 104 426 L79 284 C73 248 69 216 69 187 C69 46 145 -18 301 -18 C489 -18 595 75 632 284 L657 426 Z M476 284 C451 145 406 94 321 94 C257 94 223 111 223 188 C223 213 227 245 234 284 L259 426 C283 561 328 616 413 616 C478 616 511 598 511 520 C511 495 508 464 501 426 L476 284 Z M353 764 L511 950 L374 950 L263 764 L353 764 Z M551 764 L709 950 L571 950 L461 764 L551 764 Z " />
<glyph glyph-name="ohungarumlaut" unicode="ő" horiz-adv-x="525" d="M555 315 C559 339 561 362 561 382 C561 491 497 540 357 540 C192 540 108 471 80 315 L61 208 C56 183 54 161 54 140 C54 31 119 -18 258 -18 C424 -18 508 51 536 208 L555 315 Z M399 217 C384 129 353 91 278 91 C220 91 195 102 195 156 C195 172 198 192 202 217 L217 306 C231 392 263 431 337 431 C395 431 421 420 421 367 C422 351 418 331 414 306 L399 217 Z M278 580 L436 766 L299 766 L188 580 L278 580 Z M476 580 L634 766 L496 766 L386 580 L476 580 Z " />
<glyph glyph-name="OE" unicode="Œ" horiz-adv-x="885" d="M852 0 L890 219 L804 219 L767 116 L577 116 L613 318 L768 318 L771 263 L844 263 L881 474 L808 474 L785 419 L630 419 L662 600 L851 600 L849 513 L936 513 L971 710 L408 710 C228 710 140 636 106 441 L76 269 C70 234 67 204 67 177 C67 50 134 0 283 0 L852 0 Z M424 108 L302 108 C252 108 222 122 222 189 C222 209 225 234 230 264 L262 446 C283 565 322 602 389 602 L511 602 L424 108 Z " />
<glyph glyph-name="oe" unicode="œ" horiz-adv-x="845" d="M856 223 L868 290 C874 327 878 360 878 389 C878 488 832 540 689 540 C607 540 552 519 515 478 C489 519 437 539 354 539 C190 539 106 469 79 315 L60 208 C55 183 53 161 53 141 C53 31 118 -18 258 -18 C346 -18 406 3 446 49 C471 7 521 -18 602 -18 C713 -18 783 16 824 71 L789 153 C757 110 715 93 641 93 C569 93 536 124 536 186 C536 197 537 210 539 223 L856 223 Z M399 217 C384 129 352 91 278 91 C220 91 194 103 194 157 C194 173 197 193 201 217 L216 305 C231 394 263 431 337 431 C395 431 420 419 420 365 C420 349 418 329 414 305 L399 217 Z M555 313 C566 379 591 443 674 443 C733 443 751 420 751 376 C751 359 748 337 744 313 L555 313 Z " />
<glyph glyph-name="Racute" unicode="Ŕ" horiz-adv-x="646" d="M624 0 L640 91 L591 104 L608 203 C611 224 613 242 613 257 C613 325 580 348 538 360 C592 377 631 410 648 509 L654 544 C657 560 658 575 658 589 C658 663 616 710 504 710 L154 710 L138 619 L187 606 L99 104 L45 91 L29 0 L282 0 L298 91 L248 104 L284 309 L407 309 C445 309 463 296 463 258 C463 249 462 238 460 225 L435 82 C433 70 431 59 431 50 C431 14 451 0 502 0 L624 0 Z M502 499 C492 443 464 405 418 405 L301 405 L335 600 L449 600 C488 600 507 588 507 545 C507 532 505 517 502 499 L502 499 Z M449 764 L607 950 L470 950 L359 764 L449 764 Z " />
<glyph glyph-name="racute" unicode="ŕ" horiz-adv-x="409" d="M275 0 L291 91 L235 104 L280 360 C326 396 370 408 417 408 C433 408 445 407 460 404 L501 538 C496 539 482 540 470 540 C393 540 334 512 286 465 L292 526 L115 526 L99 435 L149 422 L93 104 L39 91 L23 0 L275 0 Z M319 580 L477 766 L340 766 L229 580 L319 580 Z " />
<glyph glyph-name="Rcommaaccent" unicode="Ŗ" horiz-adv-x="646" d="M624 0 L640 91 L591 104 L608 203 C611 224 613 242 613 257 C613 325 580 348 538 360 C592 377 631 410 648 509 L654 544 C657 560 658 575 658 589 C658 663 616 710 504 710 L154 710 L138 619 L187 606 L99 104 L45 91 L29 0 L282 0 L298 91 L248 104 L284 309 L407 309 C445 309 463 296 463 258 C463 249 462 238 460 225 L435 82 C433 70 431 59 431 50 C431 14 451 0 502 0 L624 0 Z M502 499 C492 443 464 405 418 405 L301 405 L335 600 L449 600 C488 600 507 588 507 545 C507 532 505 517 502 499 L502 499 Z M277 -240 C316 -211 353 -172 370 -135 L388 -29 L266 -29 L248 -135 L308 -135 C290 -160 266 -185 242 -203 L277 -240 Z " />
<glyph glyph-name="rcommaaccent" unicode="ŗ" horiz-adv-x="409" d="M275 0 L291 91 L235 104 L280 360 C326 396 370 408 417 408 C433 408 445 407 460 404 L501 538 C496 539 482 540 470 540 C393 540 334 512 286 465 L292 526 L115 526 L99 435 L149 422 L93 104 L39 91 L23 0 L275 0 Z M98 -240 C137 -211 174 -172 191 -135 L209 -29 L87 -29 L69 -135 L129 -135 C111 -160 87 -185 63 -203 L98 -240 Z " />
<glyph glyph-name="Rcaron" unicode="Ř" horiz-adv-x="646" d="M624 0 L640 91 L591 104 L608 203 C611 224 613 242 613 257 C613 325 580 348 538 360 C592 377 631 410 648 509 L654 544 C657 560 658 575 658 589 C658 663 616 710 504 710 L154 710 L138 619 L187 606 L99 104 L45 91 L29 0 L282 0 L298 91 L248 104 L284 309 L407 309 C445 309 463 296 463 258 C463 249 462 238 460 225 L435 82 C433 70 431 59 431 50 C431 14 451 0 502 0 L624 0 Z M502 499 C492 443 464 405 418 405 L301 405 L335 600 L449 600 C488 600 507 588 507 545 C507 532 505 517 502 499 L502 499 Z M482 763 L657 939 L547 939 L436 826 L365 939 L259 939 L372 763 L482 763 Z " />
<glyph glyph-name="rcaron" unicode="ř" horiz-adv-x="409" d="M275 0 L291 91 L235 104 L280 360 C326 396 370 408 417 408 C433 408 445 407 460 404 L501 538 C496 539 482 540 470 540 C393 540 334 512 286 465 L292 526 L115 526 L99 435 L149 422 L93 104 L39 91 L23 0 L275 0 Z M362 579 L537 755 L427 755 L316 642 L245 755 L139 755 L252 579 L362 579 Z " />
<glyph glyph-name="Sacute" unicode="Ś" horiz-adv-x="553" d="M558 199 C567 245 570 270 570 290 C570 383 500 405 405 426 C292 451 261 462 261 502 C261 595 318 629 386 629 C427 629 457 623 480 605 L473 512 L587 512 L613 662 C572 708 505 728 404 728 C224 728 141 661 118 528 C108 472 107 457 107 444 C107 346 205 322 285 302 C392 275 418 268 418 232 C418 165 392 93 275 93 C232 93 197 102 171 127 L177 198 L64 198 L38 51 C94 0 176 -18 258 -18 C428 -18 527 42 558 199 L558 199 Z M423 764 L581 950 L444 950 L333 764 L423 764 Z " />
<glyph glyph-name="sacute" unicode="ś" horiz-adv-x="492" d="M494 129 C502 166 505 189 505 206 C505 286 434 300 285 323 C226 332 214 340 214 367 C214 432 245 444 331 444 C363 444 386 441 407 432 L404 360 L508 360 L532 496 C495 526 436 540 343 540 C198 540 85 494 85 332 C85 251 160 233 218 222 C352 197 367 207 367 164 C367 97 325 84 247 84 C214 84 186 92 161 107 L164 172 L59 172 L35 36 C75 5 142 -18 238 -18 C375 -18 470 17 494 129 L494 129 Z M360 580 L518 766 L381 766 L270 580 L360 580 Z " />
<glyph glyph-name="Scircumflex" unicode="Ŝ" horiz-adv-x="553" d="M558 199 C567 245 570 270 570 290 C570 383 500 405 405 426 C292 451 261 462 261 502 C261 595 318 629 386 629 C427 629 457 623 480 605 L473 512 L587 512 L613 662 C572 708 505 728 404 728 C224 728 141 661 118 528 C108 472 107 457 107 444 C107 346 205 322 285 302 C392 275 418 268 418 232 C418 165 392 93 275 93 C232 93 197 102 171 127 L177 198 L64 198 L38 51 C94 0 176 -18 258 -18 C428 -18 527 42 558 199 L558 199 Z M609 763 L497 939 L387 939 L212 763 L321 763 L433 877 L504 763 L609 763 Z " />
<glyph glyph-name="scircumflex" unicode="ŝ" horiz-adv-x="492" d="M494 129 C502 166 505 189 505 206 C505 286 434 300 285 323 C226 332 214 340 214 367 C214 432 245 444 331 444 C363 444 386 441 407 432 L404 360 L508 360 L532 496 C495 526 436 540 343 540 C198 540 85 494 85 332 C85 251 160 233 218 222 C352 197 367 207 367 164 C367 97 325 84 247 84 C214 84 186 92 161 107 L164 172 L59 172 L35 36 C75 5 142 -18 238 -18 C375 -18 470 17 494 129 L494 129 Z M546 579 L434 755 L324 755 L149 579 L258 579 L370 693 L441 579 L546 579 Z " />
<glyph glyph-name="Scedilla" unicode="Ş" horiz-adv-x="553" d="M558 199 C567 245 570 270 570 290 C570 383 500 405 405 426 C292 451 261 462 261 502 C261 595 318 629 386 629 C427 629 457 623 480 605 L473 512 L587 512 L613 662 C572 708 505 728 404 728 C224 728 141 661 118 528 C108 472 107 457 107 444 C107 346 205 322 285 302 C392 275 418 268 418 232 C418 165 392 93 275 93 C232 93 197 102 171 127 L177 198 L64 198 L38 51 C94 0 176 -18 258 -18 C428 -18 527 42 558 199 L558 199 Z M220 -240 C259 -211 296 -172 313 -135 L331 -29 L209 -29 L191 -135 L251 -135 C233 -160 209 -185 185 -203 L220 -240 Z " />
<glyph glyph-name="scedilla" unicode="ş" horiz-adv-x="492" d="M494 129 C502 166 505 189 505 206 C505 286 434 300 285 323 C226 332 214 340 214 367 C214 432 245 444 331 444 C363 444 386 441 407 432 L404 360 L508 360 L532 496 C495 526 436 540 343 540 C198 540 85 494 85 332 C85 251 160 233 218 222 C352 197 367 207 367 164 C367 97 325 84 247 84 C214 84 186 92 161 107 L164 172 L59 172 L35 36 C75 5 142 -18 238 -18 C375 -18 470 17 494 129 L494 129 Z M190 -240 C229 -211 266 -172 283 -135 L301 -29 L179 -29 L161 -135 L221 -135 C203 -160 179 -185 155 -203 L190 -240 Z " />
<glyph glyph-name="Scaron" unicode="Š" horiz-adv-x="553" d="M558 199 C567 245 570 270 570 290 C570 383 500 405 405 426 C292 451 261 462 261 502 C261 595 318 629 386 629 C427 629 457 623 480 605 L473 512 L587 512 L613 662 C572 708 505 728 404 728 C224 728 141 661 118 528 C108 472 107 457 107 444 C107 346 205 322 285 302 C392 275 418 268 418 232 C418 165 392 93 275 93 C232 93 197 102 171 127 L177 198 L64 198 L38 51 C94 0 176 -18 258 -18 C428 -18 527 42 558 199 L558 199 Z M465 763 L640 939 L530 939 L419 826 L348 939 L242 939 L355 763 L465 763 Z " />
<glyph glyph-name="scaron" unicode="š" horiz-adv-x="492" d="M494 129 C502 166 505 189 505 206 C505 286 434 300 285 323 C226 332 214 340 214 367 C214 432 245 444 331 444 C363 444 386 441 407 432 L404 360 L508 360 L532 496 C495 526 436 540 343 540 C198 540 85 494 85 332 C85 251 160 233 218 222 C352 197 367 207 367 164 C367 97 325 84 247 84 C214 84 186 92 161 107 L164 172 L59 172 L35 36 C75 5 142 -18 238 -18 C375 -18 470 17 494 129 L494 129 Z M403 579 L578 755 L468 755 L357 642 L286 755 L180 755 L293 579 L403 579 Z " />
<glyph glyph-name="Tcommaaccent" unicode="Ţ" horiz-adv-x="588" d="M429 0 L445 91 L389 104 L476 596 L572 596 L556 430 L644 430 L694 710 L144 710 L94 430 L181 430 L225 596 L322 596 L235 104 L174 91 L158 0 L429 0 Z M238 -240 C277 -211 314 -172 331 -135 L349 -29 L227 -29 L209 -135 L269 -135 C251 -160 227 -185 203 -203 L238 -240 Z " />
<glyph glyph-name="tcommaaccent" unicode="ţ" horiz-adv-x="361" d="M364 115 C343 100 325 93 301 93 C256 93 237 108 237 146 C237 156 239 168 241 181 L286 432 L421 432 L437 526 L302 526 L327 666 L186 642 L165 526 L108 526 L92 432 L149 432 L105 183 C100 158 98 135 98 114 C98 32 136 -18 233 -18 C290 -18 331 0 361 31 L364 115 Z M154 -240 C193 -211 230 -172 247 -135 L265 -29 L143 -29 L125 -135 L185 -135 C167 -160 143 -185 119 -203 L154 -240 Z " />
<glyph glyph-name="Tcaron" unicode="Ť" horiz-adv-x="588" d="M429 0 L445 91 L389 104 L476 596 L572 596 L556 430 L644 430 L694 710 L144 710 L94 430 L181 430 L225 596 L322 596 L235 104 L174 91 L158 0 L429 0 Z M483 763 L658 939 L548 939 L437 826 L366 939 L260 939 L373 763 L483 763 Z " />
<glyph glyph-name="tcaron" unicode="ť" horiz-adv-x="506" d="M364 115 C343 100 325 93 301 93 C256 93 237 108 237 146 C237 156 239 168 241 181 L286 432 L421 432 L437 526 L302 526 L327 666 L186 642 L165 526 L108 526 L92 432 L149 432 L105 183 C100 158 98 135 98 114 C98 32 136 -18 233 -18 C290 -18 331 0 361 31 L364 115 Z M484 419 C532 454 577 504 602 550 L632 719 L480 719 L452 557 L535 557 C513 522 479 491 449 466 L484 419 Z " />
<glyph glyph-name="Tbar" unicode="Ŧ" horiz-adv-x="588" d="M492 257 L512 369 L436 369 L476 596 L572 596 L556 430 L644 430 L694 710 L144 710 L94 430 L181 430 L225 596 L322 596 L282 369 L206 369 L186 257 L262 257 L235 104 L174 91 L158 0 L429 0 L445 91 L389 104 L416 257 L492 257 Z " />
<glyph glyph-name="tbar" unicode="ŧ" horiz-adv-x="361" d="M347 193 L366 305 L263 305 L286 432 L421 432 L437 526 L302 526 L327 666 L186 642 L165 526 L108 526 L92 432 L149 432 L126 305 L82 305 L63 193 L107 193 L105 183 C100 158 98 135 98 114 C98 32 136 -18 233 -18 C290 -18 331 0 361 31 L364 115 C343 100 325 93 301 93 C257 93 240 103 240 146 C240 158 241 174 244 193 L347 193 Z " />
<glyph glyph-name="Utilde" unicode="Ũ" horiz-adv-x="672" d="M504 224 C489 140 452 105 363 105 C293 105 261 119 261 178 C261 191 263 206 266 224 L333 606 L384 619 L400 710 L149 710 L133 619 L176 606 L112 241 C106 205 102 174 102 146 C102 28 164 -18 330 -18 C556 -18 611 53 644 241 L708 606 L758 619 L774 710 L542 710 L526 619 L571 606 L504 224 Z M669 892 C634 857 603 841 565 841 C511 841 474 893 406 893 C363 893 332 873 307 849 L291 756 C326 791 357 808 396 808 C447 808 484 755 555 755 C598 755 629 775 653 799 L669 892 Z " />
<glyph glyph-name="utilde" unicode="ũ" horiz-adv-x="579" d="M424 164 C416 119 390 96 316 96 C254 96 228 105 228 142 C228 149 228 156 230 164 L276 422 L326 435 L342 526 L110 526 L94 435 L135 422 L89 162 C86 146 84 130 84 116 C84 21 153 -18 289 -18 C445 -18 523 34 546 162 L592 422 L637 435 L653 526 L440 526 L424 435 L470 422 L424 164 Z M590 708 C555 673 524 657 486 657 C432 657 395 709 327 709 C284 709 253 689 228 665 L212 572 C247 607 278 624 317 624 C368 624 405 571 476 571 C519 571 550 591 574 615 L590 708 Z " />
<glyph glyph-name="Umacron" unicode="Ū" horiz-adv-x="672" d="M504 224 C489 140 452 105 363 105 C293 105 261 119 261 178 C261 191 263 206 266 224 L333 606 L384 619 L400 710 L149 710 L133 619 L176 606 L112 241 C106 205 102 174 102 146 C102 28 164 -18 330 -18 C556 -18 611 53 644 241 L708 606 L758 619 L774 710 L542 710 L526 619 L571 606 L504 224 Z M643 769 L659 864 L314 864 L298 769 L643 769 Z " />
<glyph glyph-name="umacron" unicode="ū" horiz-adv-x="579" d="M424 164 C416 119 390 96 316 96 C254 96 228 105 228 142 C228 149 228 156 230 164 L276 422 L326 435 L342 526 L110 526 L94 435 L135 422 L89 162 C86 146 84 130 84 116 C84 21 153 -18 289 -18 C445 -18 523 34 546 162 L592 422 L637 435 L653 526 L440 526 L424 435 L470 422 L424 164 Z M565 585 L581 680 L236 680 L220 585 L565 585 Z " />
<glyph glyph-name="Ubreve" unicode="Ŭ" horiz-adv-x="672" d="M504 224 C489 140 452 105 363 105 C293 105 261 119 261 178 C261 191 263 206 266 224 L333 606 L384 619 L400 710 L149 710 L133 619 L176 606 L112 241 C106 205 102 174 102 146 C102 28 164 -18 330 -18 C556 -18 611 53 644 241 L708 606 L758 619 L774 710 L542 710 L526 619 L571 606 L504 224 Z M586 935 C573 874 536 840 482 840 C435 840 409 866 409 912 C409 919 410 927 411 935 L326 935 C323 921 322 909 322 897 C322 803 391 758 469 758 C558 758 652 816 673 935 L586 935 Z " />
<glyph glyph-name="ubreve" unicode="ŭ" horiz-adv-x="579" d="M424 164 C416 119 390 96 316 96 C254 96 228 105 228 142 C228 149 228 156 230 164 L276 422 L326 435 L342 526 L110 526 L94 435 L135 422 L89 162 C86 146 84 130 84 116 C84 21 153 -18 289 -18 C445 -18 523 34 546 162 L592 422 L637 435 L653 526 L440 526 L424 435 L470 422 L424 164 Z M508 751 C495 690 458 656 404 656 C357 656 331 682 331 728 C331 735 332 743 333 751 L248 751 C245 737 244 725 244 713 C244 619 313 574 391 574 C480 574 574 632 595 751 L508 751 Z " />
<glyph glyph-name="Uring" unicode="Ů" horiz-adv-x="672" d="M504 224 C489 140 452 105 363 105 C293 105 261 119 261 178 C261 191 263 206 266 224 L333 606 L384 619 L400 710 L149 710 L133 619 L176 606 L112 241 C106 205 102 174 102 146 C102 28 164 -18 330 -18 C556 -18 611 53 644 241 L708 606 L758 619 L774 710 L542 710 L526 619 L571 606 L504 224 Z M599 870 C599 921 571 950 503 950 C413 950 370 901 370 825 C370 772 402 745 467 745 C568 745 599 795 599 870 L599 870 Z M541 859 C541 819 520 796 476 796 C446 796 431 810 431 836 C431 876 452 902 495 902 C526 902 541 887 541 859 L541 859 Z " />
<glyph glyph-name="uring" unicode="ů" horiz-adv-x="579" d="M424 164 C416 119 390 96 316 96 C254 96 228 105 228 142 C228 149 228 156 230 164 L276 422 L326 435 L342 526 L110 526 L94 435 L135 422 L89 162 C86 146 84 130 84 116 C84 21 153 -18 289 -18 C445 -18 523 34 546 162 L592 422 L637 435 L653 526 L440 526 L424 435 L470 422 L424 164 Z M521 686 C521 737 493 766 425 766 C335 766 292 717 292 641 C292 588 324 561 389 561 C490 561 521 611 521 686 L521 686 Z M463 675 C463 635 442 612 398 612 C368 612 353 626 353 652 C353 692 374 718 417 718 C448 718 463 703 463 675 L463 675 Z " />
<glyph glyph-name="Uhungarumlaut" unicode="Ű" horiz-adv-x="672" d="M504 224 C489 140 452 105 363 105 C293 105 261 119 261 178 C261 191 263 206 266 224 L333 606 L384 619 L400 710 L149 710 L133 619 L176 606 L112 241 C106 205 102 174 102 146 C102 28 164 -18 330 -18 C556 -18 611 53 644 241 L708 606 L758 619 L774 710 L542 710 L526 619 L571 606 L504 224 Z M383 764 L541 950 L404 950 L293 764 L383 764 Z M581 764 L739 950 L601 950 L491 764 L581 764 Z " />
<glyph glyph-name="uhungarumlaut" unicode="ű" horiz-adv-x="579" d="M424 164 C416 119 390 96 316 96 C254 96 228 105 228 142 C228 149 228 156 230 164 L276 422 L326 435 L342 526 L110 526 L94 435 L135 422 L89 162 C86 146 84 130 84 116 C84 21 153 -18 289 -18 C445 -18 523 34 546 162 L592 422 L637 435 L653 526 L440 526 L424 435 L470 422 L424 164 Z M305 580 L463 766 L326 766 L215 580 L305 580 Z M503 580 L661 766 L523 766 L413 580 L503 580 Z " />
<glyph glyph-name="Uogonek" unicode="Ų" horiz-adv-x="672" d="M407 -114 C389 -120 370 -124 348 -124 C307 -124 294 -113 294 -95 C294 -58 342 -28 401 -15 C569 20 615 73 644 241 L708 606 L758 619 L774 710 L542 710 L526 619 L571 606 L504 224 C489 140 452 105 363 105 C293 105 261 120 261 179 C261 192 263 206 266 224 L333 606 L384 619 L400 710 L149 710 L133 619 L176 606 L112 241 C106 205 102 174 102 147 C102 35 159 -12 304 -17 C227 -42 168 -80 168 -153 C168 -219 239 -240 311 -240 C360 -240 405 -231 439 -212 L407 -114 Z " />
<glyph glyph-name="uogonek" unicode="ų" horiz-adv-x="579" d="M341 -114 C323 -120 304 -124 282 -124 C241 -124 228 -113 228 -95 C228 -59 274 -28 331 -16 C459 11 525 46 546 162 L592 422 L637 435 L653 526 L440 526 L424 435 L470 422 L424 164 C417 124 389 96 316 96 C254 96 228 104 228 142 C228 148 228 156 230 164 L276 422 L326 435 L342 526 L110 526 L94 435 L135 422 L89 162 C86 146 85 130 85 116 C85 33 137 -8 243 -16 C165 -41 102 -79 102 -153 C102 -219 173 -240 245 -240 C294 -240 339 -231 373 -212 L341 -114 Z " />
<glyph glyph-name="Wcircumflex" unicode="Ŵ" horiz-adv-x="899" d="M724 0 L936 606 L987 619 L1003 710 L780 710 L764 619 L806 606 L675 180 L657 710 L529 710 L314 180 L337 606 L389 619 L405 710 L146 710 L130 619 L175 606 L175 0 L347 0 L535 465 L554 0 L724 0 Z M793 763 L681 939 L571 939 L396 763 L505 763 L617 877 L688 763 L793 763 Z " />
<glyph glyph-name="wcircumflex" unicode="ŵ" horiz-adv-x="809" d="M674 0 L826 426 L869 435 L885 526 L688 526 L672 435 L712 426 L609 115 L582 526 L446 526 L266 115 L276 426 L318 435 L334 526 L108 526 L92 434 L129 425 L138 0 L314 0 L473 366 L499 0 L674 0 Z M722 579 L610 755 L500 755 L325 579 L434 579 L546 693 L617 579 L722 579 Z " />
<glyph glyph-name="Ycircumflex" unicode="Ŷ" horiz-adv-x="601" d="M436 0 L452 91 L396 104 L426 273 L641 606 L689 619 L705 710 L507 710 L491 619 L529 606 L388 382 L327 606 L375 619 L391 710 L146 710 L130 619 L171 606 L271 273 L241 104 L181 91 L165 0 L436 0 Z M643 763 L531 939 L421 939 L246 763 L355 763 L467 877 L538 763 L643 763 Z " />
<glyph glyph-name="ycircumflex" unicode="ŷ" horiz-adv-x="573" d="M214 -21 L203 -40 C176 -86 150 -116 102 -116 C66 -116 45 -105 28 -87 L-25 -189 C0 -222 42 -239 95 -239 C209 -239 270 -155 332 -42 L588 425 L633 434 L649 526 L449 526 L433 434 L471 425 L319 125 L277 425 L321 434 L337 526 L106 526 L90 434 L132 425 L214 -21 Z M597 579 L485 755 L375 755 L200 579 L309 579 L421 693 L492 579 L597 579 Z " />
<glyph glyph-name="Ydieresis" unicode="Ÿ" horiz-adv-x="601" d="M436 0 L452 91 L396 104 L426 273 L641 606 L689 619 L705 710 L507 710 L491 619 L529 606 L388 382 L327 606 L375 619 L391 710 L146 710 L130 619 L171 606 L271 273 L241 104 L181 91 L165 0 L436 0 Z M390 774 L412 903 L270 903 L248 774 L390 774 Z M625 774 L647 903 L505 903 L483 774 L625 774 Z " />
<glyph glyph-name="Zacute" unicode="Ź" horiz-adv-x="552" d="M528 0 L577 280 L488 280 L441 114 L210 114 L622 602 L641 710 L150 710 L100 430 L190 430 L238 598 L444 598 L48 141 L24 0 L528 0 Z M422 764 L580 950 L443 950 L332 764 L422 764 Z " />
<glyph glyph-name="zacute" unicode="ź" horiz-adv-x="517" d="M495 0 L531 207 L429 207 L392 97 L210 97 L561 446 L575 526 L115 526 L83 344 L185 344 L213 435 L376 435 L40 105 L22 0 L495 0 Z M373 580 L531 766 L394 766 L283 580 L373 580 Z " />
<glyph glyph-name="Zdotaccent" unicode="Ż" horiz-adv-x="552" d="M528 0 L577 280 L488 280 L441 114 L210 114 L622 602 L641 710 L150 710 L100 430 L190 430 L238 598 L444 598 L48 141 L24 0 L528 0 Z M483 774 L505 903 L363 903 L341 774 L483 774 Z " />
<glyph glyph-name="zdotaccent" unicode="ż" horiz-adv-x="517" d="M495 0 L531 207 L429 207 L392 97 L210 97 L561 446 L575 526 L115 526 L83 344 L185 344 L213 435 L376 435 L40 105 L22 0 L495 0 Z M433 590 L455 719 L313 719 L291 590 L433 590 Z " />
<glyph glyph-name="Zcaron" unicode="Ž" horiz-adv-x="552" d="M528 0 L577 280 L488 280 L441 114 L210 114 L622 602 L641 710 L150 710 L100 430 L190 430 L238 598 L444 598 L48 141 L24 0 L528 0 Z M465 763 L640 939 L530 939 L419 826 L348 939 L242 939 L355 763 L465 763 Z " />
<glyph glyph-name="zcaron" unicode="ž" horiz-adv-x="517" d="M495 0 L531 207 L429 207 L392 97 L210 97 L561 446 L575 526 L115 526 L83 344 L185 344 L213 435 L376 435 L40 105 L22 0 L495 0 Z M415 579 L590 755 L480 755 L369 642 L298 755 L192 755 L305 579 L415 579 Z " />
<glyph glyph-name="florin" unicode="ƒ" horiz-adv-x="499" d="M29 -144 C180 -144 253 -101 297 35 L414 402 L517 402 L536 510 L448 510 L458 540 C470 576 494 600 541 600 L577 600 L598 719 L585 719 C425 719 354 681 307 547 L294 510 L208 510 L189 402 L258 402 L145 51 C128 -1 98 -23 42 -23 L20 -23 L0 -144 L29 -144 Z " />
<glyph glyph-name="Scommaaccent" unicode="Ș" horiz-adv-x="553" d="M558 199 C567 245 570 270 570 290 C570 383 500 405 405 426 C292 451 261 462 261 502 C261 595 318 629 386 629 C427 629 457 623 480 605 L473 512 L587 512 L613 662 C572 708 505 728 404 728 C224 728 141 661 118 528 C108 472 107 457 107 444 C107 346 205 322 285 302 C392 275 418 268 418 232 C418 165 392 93 275 93 C232 93 197 102 171 127 L177 198 L64 198 L38 51 C94 0 176 -18 258 -18 C428 -18 527 42 558 199 L558 199 Z M220 -240 C259 -211 296 -172 313 -135 L331 -29 L209 -29 L191 -135 L251 -135 C233 -160 209 -185 185 -203 L220 -240 Z " />
<glyph glyph-name="scommaaccent" unicode="ș" horiz-adv-x="492" d="M494 129 C502 166 505 189 505 206 C505 286 434 300 285 323 C226 332 214 340 214 367 C214 432 245 444 331 444 C363 444 386 441 407 432 L404 360 L508 360 L532 496 C495 526 436 540 343 540 C198 540 85 494 85 332 C85 251 160 233 218 222 C352 197 367 207 367 164 C367 97 325 84 247 84 C214 84 186 92 161 107 L164 172 L59 172 L35 36 C75 5 142 -18 238 -18 C375 -18 470 17 494 129 L494 129 Z M190 -240 C229 -211 266 -172 283 -135 L301 -29 L179 -29 L161 -135 L221 -135 C203 -160 179 -185 155 -203 L190 -240 Z " />
<glyph glyph-name="uni021A" unicode="Ț" horiz-adv-x="588" d="M429 0 L445 91 L389 104 L476 596 L572 596 L556 430 L644 430 L694 710 L144 710 L94 430 L181 430 L225 596 L322 596 L235 104 L174 91 L158 0 L429 0 Z M238 -240 C277 -211 314 -172 331 -135 L349 -29 L227 -29 L209 -135 L269 -135 C251 -160 227 -185 203 -203 L238 -240 Z " />
<glyph glyph-name="uni021B" unicode="ț" horiz-adv-x="361" d="M364 115 C343 100 325 93 301 93 C256 93 237 108 237 146 C237 156 239 168 241 181 L286 432 L421 432 L437 526 L302 526 L327 666 L186 642 L165 526 L108 526 L92 432 L149 432 L105 183 C100 158 98 135 98 114 C98 32 136 -18 233 -18 C290 -18 331 0 361 31 L364 115 Z M154 -240 C193 -211 230 -172 247 -135 L265 -29 L143 -29 L125 -135 L185 -135 C167 -160 143 -185 119 -203 L154 -240 Z " />
<glyph glyph-name="dotlessj" unicode="ȷ" horiz-adv-x="246" d="M-111 -190 C-92 -222 -54 -240 1 -240 C121 -240 180 -156 205 -16 L300 526 L104 526 L88 434 L140 422 L63 -16 C55 -59 33 -126 -30 -126 C-54 -126 -69 -120 -84 -105 L-111 -190 Z " />
<glyph glyph-name="circumflex" unicode="ˆ" horiz-adv-x="455" d="M528 579 L416 755 L306 755 L131 579 L240 579 L352 693 L423 579 L528 579 Z " />
<glyph glyph-name="caron" unicode="ˇ" horiz-adv-x="455" d="M384 579 L559 755 L449 755 L338 642 L267 755 L161 755 L274 579 L384 579 Z " />
<glyph glyph-name="breve" unicode="˘" horiz-adv-x="405" d="M421 751 C408 690 371 656 317 656 C270 656 244 682 244 728 C244 735 245 743 246 751 L161 751 C158 737 157 725 157 713 C157 619 226 574 304 574 C393 574 487 632 508 751 L421 751 Z " />
<glyph glyph-name="dotaccent" unicode="˙" horiz-adv-x="200" d="M275 590 L297 719 L155 719 L133 590 L275 590 Z " />
<glyph glyph-name="ring" unicode="˚" horiz-adv-x="281" d="M372 686 C372 737 344 766 276 766 C186 766 143 717 143 641 C143 588 175 561 240 561 C341 561 372 611 372 686 L372 686 Z M314 675 C314 635 293 612 249 612 C219 612 204 626 204 652 C204 692 225 718 268 718 C299 718 314 703 314 675 L314 675 Z " />
<glyph glyph-name="ogonek" unicode="˛" horiz-adv-x="285" d="M242 -114 C224 -120 205 -124 183 -124 C142 -124 129 -113 129 -95 C129 -45 208 -25 282 0 L208 0 C99 -23 3 -60 3 -152 C3 -219 74 -240 146 -240 C195 -240 240 -231 274 -212 L242 -114 Z " />
<glyph glyph-name="tilde" unicode="˜" horiz-adv-x="411" d="M506 708 C471 673 440 657 402 657 C348 657 311 709 243 709 C200 709 169 689 144 665 L128 572 C163 607 194 624 233 624 C284 624 321 571 392 571 C435 571 466 591 490 615 L506 708 Z " />
<glyph glyph-name="hungarumlaut" unicode="˝" horiz-adv-x="471" d="M221 580 L379 766 L242 766 L131 580 L221 580 Z M419 580 L577 766 L439 766 L329 580 L419 580 Z " />
<glyph glyph-name="pi" unicode="π" horiz-adv-x="673" d="M672 115 C650 99 635 92 611 92 C569 92 552 104 552 138 C552 146 553 156 555 167 L600 422 L677 434 L693 526 L114 526 L98 434 L149 422 L93 103 L38 91 L22 0 L269 0 L285 91 L235 103 L290 419 L462 419 L422 189 C417 160 414 133 414 110 C414 30 447 -18 542 -18 C600 -18 639 0 669 31 L672 115 Z " />
<glyph glyph-name="Wgrave" unicode="Ẁ" horiz-adv-x="899" d="M724 0 L936 606 L987 619 L1003 710 L780 710 L764 619 L806 606 L675 180 L657 710 L529 710 L314 180 L337 606 L389 619 L405 710 L146 710 L130 619 L175 606 L175 0 L347 0 L535 465 L554 0 L724 0 Z M671 764 L624 950 L489 950 L585 764 L671 764 Z " />
<glyph glyph-name="wgrave" unicode="ẁ" horiz-adv-x="809" d="M674 0 L826 426 L869 435 L885 526 L688 526 L672 435 L712 426 L609 115 L582 526 L446 526 L266 115 L276 426 L318 435 L334 526 L108 526 L92 434 L129 425 L138 0 L314 0 L473 366 L499 0 L674 0 Z M594 580 L547 766 L412 766 L508 580 L594 580 Z " />
<glyph glyph-name="Wacute" unicode="Ẃ" horiz-adv-x="899" d="M724 0 L936 606 L987 619 L1003 710 L780 710 L764 619 L806 606 L675 180 L657 710 L529 710 L314 180 L337 606 L389 619 L405 710 L146 710 L130 619 L175 606 L175 0 L347 0 L535 465 L554 0 L724 0 Z M606 764 L764 950 L627 950 L516 764 L606 764 Z " />
<glyph glyph-name="wacute" unicode="ẃ" horiz-adv-x="809" d="M674 0 L826 426 L869 435 L885 526 L688 526 L672 435 L712 426 L609 115 L582 526 L446 526 L266 115 L276 426 L318 435 L334 526 L108 526 L92 434 L129 425 L138 0 L314 0 L473 366 L499 0 L674 0 Z M529 580 L687 766 L550 766 L439 580 L529 580 Z " />
<glyph glyph-name="Wdieresis" unicode="Ẅ" horiz-adv-x="899" d="M724 0 L936 606 L987 619 L1003 710 L780 710 L764 619 L806 606 L675 180 L657 710 L529 710 L314 180 L337 606 L389 619 L405 710 L146 710 L130 619 L175 606 L175 0 L347 0 L535 465 L554 0 L724 0 Z M555 774 L577 903 L435 903 L413 774 L555 774 Z M790 774 L812 903 L670 903 L648 774 L790 774 Z " />
<glyph glyph-name="wdieresis" unicode="ẅ" horiz-adv-x="809" d="M674 0 L826 426 L869 435 L885 526 L688 526 L672 435 L712 426 L609 115 L582 526 L446 526 L266 115 L276 426 L318 435 L334 526 L108 526 L92 434 L129 425 L138 0 L314 0 L473 366 L499 0 L674 0 Z M477 590 L499 719 L357 719 L335 590 L477 590 Z M712 590 L734 719 L592 719 L570 590 L712 590 Z " />
<glyph glyph-name="Ygrave" unicode="Ỳ" horiz-adv-x="601" d="M436 0 L452 91 L396 104 L426 273 L641 606 L689 619 L705 710 L507 710 L491 619 L529 606 L388 382 L327 606 L375 619 L391 710 L146 710 L130 619 L171 606 L271 273 L241 104 L181 91 L165 0 L436 0 Z M525 764 L478 950 L343 950 L439 764 L525 764 Z " />
<glyph glyph-name="ygrave" unicode="ỳ" horiz-adv-x="573" d="M214 -21 L203 -40 C176 -86 150 -116 102 -116 C66 -116 45 -105 28 -87 L-25 -189 C0 -222 42 -239 95 -239 C209 -239 270 -155 332 -42 L588 425 L633 434 L649 526 L449 526 L433 434 L471 425 L319 125 L277 425 L321 434 L337 526 L106 526 L90 434 L132 425 L214 -21 Z M476 580 L429 766 L294 766 L390 580 L476 580 Z " />
<glyph glyph-name="endash" unicode="–" horiz-adv-x="536" d="M556 273 L575 385 L96 385 L77 273 L556 273 Z " />
<glyph glyph-name="emdash" unicode="—" horiz-adv-x="736" d="M755 273 L774 385 L96 385 L77 273 L755 273 Z " />
<glyph glyph-name="quoteleft" unicode="‘" horiz-adv-x="214" d="M252 466 C230 491 208 522 198 557 L282 557 L310 719 L158 719 L128 550 C136 504 165 454 199 419 L252 466 Z " />
<glyph glyph-name="quoteright" unicode="’" horiz-adv-x="214" d="M162 419 C210 454 255 504 280 550 L310 719 L158 719 L130 557 L213 557 C191 522 157 491 127 466 L162 419 Z " />
<glyph glyph-name="quotesinglbase" unicode="‚" horiz-adv-x="214" d="M64 -137 C111 -103 157 -53 182 -7 L212 162 L60 162 L32 0 L115 0 C93 -34 59 -66 28 -91 L64 -137 Z " />
<glyph glyph-name="quotedblleft" unicode="“" horiz-adv-x="428" d="M252 466 C230 491 208 522 198 557 L282 557 L310 719 L158 719 L128 550 C136 504 165 454 199 419 L252 466 Z M466 466 C444 491 422 522 412 557 L496 557 L524 719 L372 719 L342 550 C350 504 379 454 413 419 L466 466 Z " />
<glyph glyph-name="quotedblright" unicode="”" horiz-adv-x="428" d="M162 419 C210 454 255 504 280 550 L310 719 L158 719 L130 557 L213 557 C191 522 157 491 127 466 L162 419 Z M376 419 C424 454 469 504 494 550 L524 719 L372 719 L344 557 L427 557 C405 522 371 491 341 466 L376 419 Z " />
<glyph glyph-name="quotedblbase" unicode="„" horiz-adv-x="428" d="M64 -137 C111 -103 157 -53 182 -7 L212 162 L60 162 L32 0 L115 0 C93 -34 59 -66 28 -91 L64 -137 Z M278 -137 C325 -103 371 -53 396 -7 L426 162 L274 162 L246 0 L329 0 C307 -34 273 -66 242 -91 L278 -137 Z " />
<glyph glyph-name="dagger" unicode="†" horiz-adv-x="431" d="M273 0 L354 463 L483 463 L499 551 L370 551 L398 710 L285 710 L257 551 L126 551 L110 463 L241 463 L160 0 L273 0 Z " />
<glyph glyph-name="daggerdbl" unicode="‡" horiz-adv-x="431" d="M273 0 L301 159 L430 159 L445 247 L316 247 L354 462 L483 462 L499 551 L370 551 L398 710 L284 710 L256 551 L125 551 L109 462 L240 462 L202 247 L71 247 L56 159 L187 159 L159 0 L273 0 Z " />
<glyph glyph-name="bullet" unicode="•" horiz-adv-x="368" d="M407 395 C407 468 364 519 276 519 C160 519 91 440 91 341 C91 269 135 216 222 216 C339 216 407 297 407 395 L407 395 Z " />
<glyph glyph-name="ellipsis" unicode="…" horiz-adv-x="1060" d="M182 0 L210 162 L58 162 L30 0 L182 0 Z M606 0 L634 162 L482 162 L454 0 L606 0 Z M1030 0 L1058 162 L906 162 L878 0 L1030 0 Z " />
<glyph glyph-name="perthousand" unicode="‰" horiz-adv-x="934" d="M383 597 C386 612 386 625 387 637 C387 706 346 729 280 729 C202 729 149 697 131 597 L111 487 C108 472 107 459 107 447 C107 379 148 356 214 356 C291 356 345 387 363 487 L383 597 Z M277 475 C270 435 247 426 226 426 C208 426 191 432 191 458 C191 463 192 469 193 475 L217 610 C224 649 247 658 267 658 C285 658 302 652 302 625 C302 620 302 615 301 610 L277 475 Z M157 -21 L707 732 L611 732 L63 -21 L157 -21 Z M657 222 C660 237 660 250 661 262 C661 331 620 354 554 354 C476 354 423 322 405 222 L385 112 C382 97 381 84 381 72 C381 4 422 -19 488 -19 C565 -19 619 12 637 112 L657 222 Z M551 100 C544 60 521 51 500 51 C482 51 465 57 465 83 C465 88 466 94 467 100 L491 235 C498 274 521 283 541 283 C559 283 576 277 576 250 C576 245 576 240 575 235 L551 100 Z M947 222 C950 237 950 250 951 262 C951 331 910 354 844 354 C766 354 713 322 695 222 L675 112 C672 97 671 84 671 72 C671 4 712 -19 778 -19 C855 -19 909 12 927 112 L947 222 Z M841 100 C834 60 811 51 790 51 C772 51 755 57 755 83 C755 88 756 94 757 100 L781 235 C788 274 811 283 831 283 C849 283 866 277 866 250 C866 245 866 240 865 235 L841 100 Z " />
<glyph glyph-name="guilsinglleft" unicode="‹" horiz-adv-x="227" d="M224 138 L243 244 L148 335 L275 426 L294 536 L96 392 L76 282 L224 138 Z " />
<glyph glyph-name="guilsinglright" unicode="›" horiz-adv-x="227" d="M249 281 L268 391 L120 535 L101 429 L195 339 L69 247 L50 138 L249 281 Z " />
<glyph glyph-name="fraction" unicode="⁄" horiz-adv-x="190" d="M-70 -21 L480 732 L384 732 L-164 -21 L-70 -21 Z " />
<glyph glyph-name="zerosuperior" unicode="⁰" horiz-adv-x="310" d="M386 597 C389 612 389 625 390 637 C390 706 349 729 283 729 C205 729 152 697 134 597 L114 487 C111 472 110 459 110 447 C110 379 151 356 217 356 C294 356 348 387 366 487 L386 597 Z M280 475 C273 435 250 426 229 426 C211 426 194 432 194 458 C194 463 195 469 196 475 L220 610 C227 649 250 658 270 658 C288 658 305 652 305 625 C305 620 305 615 304 610 L280 475 Z " />
<glyph glyph-name="foursuperior" unicode="⁴" horiz-adv-x="309" d="M324 365 L334 426 L360 426 L372 491 L346 491 L366 605 L290 605 L270 491 L191 491 C236 554 283 630 320 701 L253 729 C210 650 163 576 111 505 L97 426 L256 426 L246 365 L324 365 Z " />
<glyph glyph-name="fivesuperior" unicode="⁵" horiz-adv-x="292" d="M93 381 C117 363 152 356 186 356 C296 356 353 403 353 512 C353 560 329 588 267 588 C242 588 223 584 209 579 L227 649 L307 649 L308 615 L357 615 L375 720 L172 720 L119 520 L170 508 C187 525 210 534 232 534 C259 534 276 526 276 498 C276 453 249 427 208 427 C173 427 148 434 127 446 L93 381 Z " />
<glyph glyph-name="sixsuperior" unicode="⁶" horiz-adv-x="300" d="M321 729 C189 714 109 583 109 457 C109 395 137 356 215 356 C300 356 362 409 362 507 C362 553 338 585 282 585 C244 585 218 570 202 554 C223 614 267 655 329 662 L321 729 Z M193 504 C208 520 228 531 248 531 C272 531 284 520 284 496 C284 456 266 422 228 422 C196 422 186 436 186 459 C186 472 189 487 193 504 L193 504 Z " />
<glyph glyph-name="sevensuperior" unicode="⁷" horiz-adv-x="284" d="M206 356 C241 456 306 562 377 655 L388 720 L150 720 L131 613 L180 613 L193 647 L295 647 C216 558 163 475 123 375 L206 356 Z " />
<glyph glyph-name="eightsuperior" unicode="⁸" horiz-adv-x="305" d="M318 556 C363 572 383 610 383 655 C383 710 342 729 283 729 C218 729 144 701 144 614 C144 584 158 561 185 547 C137 533 101 497 101 440 C101 381 150 356 216 356 C290 356 366 392 366 487 C366 521 348 542 318 556 L318 556 Z M243 523 C264 517 282 506 282 482 C282 448 258 426 226 426 C201 426 186 436 186 459 C186 487 209 519 243 523 L243 523 Z M253 566 C232 572 216 584 216 608 C216 636 235 660 269 660 C293 660 305 651 305 630 C305 603 286 576 253 566 L253 566 Z " />
<glyph glyph-name="ninesuperior" unicode="⁹" horiz-adv-x="300" d="M168 356 C299 371 379 496 379 619 C379 680 354 729 274 729 C191 729 127 675 127 578 C127 532 150 499 208 499 C245 499 271 515 288 531 C265 470 223 429 160 422 L168 356 Z M296 581 C281 565 261 555 242 555 C218 555 207 565 207 588 C207 627 225 660 262 660 C292 660 302 640 302 617 C302 605 299 592 296 581 L296 581 Z " />
<glyph glyph-name="zeroinferior" unicode="₀" horiz-adv-x="310" d="M320 222 C323 237 323 250 324 262 C324 331 283 354 217 354 C139 354 86 322 68 222 L48 112 C45 97 44 84 44 72 C44 4 85 -19 151 -19 C228 -19 282 12 300 112 L320 222 Z M214 100 C207 60 184 51 163 51 C145 51 128 57 128 83 C128 88 129 94 130 100 L154 235 C161 274 184 283 204 283 C222 283 239 277 239 250 C239 245 239 240 238 235 L214 100 Z " />
<glyph glyph-name="oneinferior" unicode="₁" horiz-adv-x="219" d="M189 -10 L198 44 L176 51 L228 345 L168 345 C136 315 102 290 63 267 L88 212 C100 217 114 225 128 234 L95 51 L66 44 L57 -10 L189 -10 Z " />
<glyph glyph-name="twoinferior" unicode="₂" horiz-adv-x="295" d="M268 -10 L287 97 L238 97 L225 63 L141 63 C261 135 311 187 311 273 C311 328 278 354 212 354 C168 354 124 345 85 324 L97 254 C121 268 153 282 180 282 C208 282 227 271 227 245 C227 175 115 107 40 67 L27 -10 L268 -10 Z " />
<glyph glyph-name="threeinferior" unicode="₃" horiz-adv-x="282" d="M23 -3 C53 -15 85 -19 121 -19 C202 -19 272 18 272 109 C272 139 260 164 233 175 C271 190 294 237 294 278 C294 326 261 354 191 354 C155 354 115 346 81 327 L92 263 C112 275 141 284 167 284 C192 284 214 278 214 249 C214 220 197 200 168 200 L132 200 L121 139 L157 139 C178 139 194 132 194 110 C194 70 160 50 125 50 C98 50 71 58 56 65 L23 -3 Z " />
<glyph glyph-name="fourinferior" unicode="₄" horiz-adv-x="309" d="M258 -10 L268 51 L294 51 L306 116 L280 116 L300 230 L224 230 L204 116 L125 116 C170 179 217 255 254 326 L187 354 C144 275 97 201 45 130 L31 51 L190 51 L180 -10 L258 -10 Z " />
<glyph glyph-name="fiveinferior" unicode="₅" horiz-adv-x="292" d="M27 6 C51 -12 86 -19 120 -19 C230 -19 287 28 287 137 C287 185 263 213 201 213 C176 213 157 209 143 204 L161 274 L241 274 L242 240 L291 240 L309 345 L106 345 L53 145 L104 133 C121 150 144 159 166 159 C193 159 210 151 210 123 C210 78 183 52 142 52 C107 52 82 59 61 71 L27 6 Z " />
<glyph glyph-name="sixinferior" unicode="₆" horiz-adv-x="300" d="M255 354 C123 339 43 208 43 82 C43 20 71 -19 149 -19 C234 -19 296 34 296 132 C296 178 272 210 216 210 C178 210 152 195 136 179 C157 239 201 280 263 287 L255 354 Z M127 129 C142 145 162 156 182 156 C206 156 218 145 218 121 C218 81 200 47 162 47 C130 47 120 61 120 84 C120 97 123 112 127 129 L127 129 Z " />
<glyph glyph-name="seveninferior" unicode="₇" horiz-adv-x="284" d="M140 -19 C175 81 240 187 311 280 L322 345 L84 345 L65 238 L114 238 L127 272 L229 272 C150 183 97 100 57 0 L140 -19 Z " />
<glyph glyph-name="eightinferior" unicode="₈" horiz-adv-x="305" d="M252 181 C297 197 317 235 317 280 C317 335 276 354 217 354 C152 354 78 326 78 239 C78 209 92 186 119 172 C71 158 35 122 35 65 C35 6 84 -19 150 -19 C224 -19 300 17 300 112 C300 146 282 167 252 181 L252 181 Z M177 148 C198 142 216 131 216 107 C216 73 192 51 160 51 C135 51 120 61 120 84 C120 112 143 144 177 148 L177 148 Z M187 191 C166 197 150 209 150 233 C150 261 169 285 203 285 C227 285 239 276 239 255 C239 228 220 201 187 191 L187 191 Z " />
<glyph glyph-name="nineinferior" unicode="₉" horiz-adv-x="300" d="M102 -19 C233 -4 313 121 313 244 C313 305 288 354 208 354 C125 354 61 300 61 203 C61 157 84 124 142 124 C179 124 205 140 222 156 C199 95 157 54 94 47 L102 -19 Z M230 206 C215 190 195 180 176 180 C152 180 141 190 141 213 C141 252 159 285 196 285 C226 285 236 265 236 242 C236 230 233 217 230 206 L230 206 Z " />
<glyph glyph-name="Euro" unicode="€" horiz-adv-x="560" d="M518 122 C477 101 429 94 375 94 C311 94 278 112 278 189 C278 202 279 216 281 233 L384 233 L430 309 L292 309 L307 395 L480 395 L526 471 L322 471 C346 575 390 616 467 616 C518 616 563 609 594 589 L655 689 C613 716 555 728 487 728 C313 728 211 648 167 471 L110 471 L81 395 L152 395 L137 309 L81 309 L53 233 L126 233 C124 216 123 200 123 185 C123 46 199 -18 355 -18 C432 -18 501 -2 556 31 L518 122 Z " />
<glyph glyph-name="uni2117" unicode="℗" horiz-adv-x="632" d="M350 169 L359 217 L328 223 L343 308 L412 308 C489 308 525 343 540 429 C543 445 544 460 544 473 C544 527 517 551 455 551 L277 551 L268 503 L296 497 L248 223 L218 217 L209 169 L350 169 Z M352 358 L376 496 L432 496 C454 496 466 489 466 462 C466 397 441 358 408 358 L352 358 Z M683 454 C688 485 691 512 691 537 C691 675 609 728 444 728 C249 728 144 654 109 454 L74 256 C68 225 65 196 65 171 C65 35 147 -18 312 -18 C507 -18 612 56 648 256 L683 454 Z M576 256 C552 120 470 54 325 54 C198 54 140 87 140 197 C139 215 143 234 147 256 L182 454 C206 593 283 655 431 655 C554 655 617 622 617 516 C617 498 615 477 611 454 L576 256 Z " />
<glyph glyph-name="trademark" unicode="™" horiz-adv-x="904" d="M324 287 L334 341 L301 349 L353 642 L409 642 L399 543 L453 543 L483 710 L155 710 L125 543 L178 543 L205 642 L260 642 L208 349 L173 341 L163 287 L324 287 Z M923 287 L933 341 L903 349 L956 647 L988 656 L998 710 L828 710 L701 393 L689 710 L513 710 L503 656 L532 647 L479 349 L448 341 L438 287 L576 287 L586 341 L558 349 L609 639 L631 287 L725 287 L872 639 L821 349 L791 341 L781 287 L923 287 Z " />
<glyph glyph-name="Omega" unicode="Ω" horiz-adv-x="632" d="M570 0 L586 91 L501 104 C605 170 654 291 675 412 L684 463 C689 493 692 521 692 545 C692 681 609 728 444 728 C249 728 145 663 110 463 L101 412 C95 375 91 340 91 306 C91 226 111 155 168 104 L78 91 L62 0 L278 0 L296 104 C261 137 236 167 236 249 C236 284 240 329 251 388 L267 480 C283 571 338 622 425 622 C499 622 539 596 539 526 C539 513 537 497 534 480 L518 389 C487 214 438 153 372 104 L354 0 L570 0 Z " />
<glyph glyph-name="onethird" unicode="⅓" horiz-adv-x="640" d="M265 365 L274 419 L252 426 L304 720 L244 720 C212 690 178 665 139 642 L164 587 C176 592 190 600 204 609 L171 426 L142 419 L133 365 L265 365 Z M139 -21 L689 732 L593 732 L45 -21 L139 -21 Z M382 -3 C412 -15 444 -19 480 -19 C561 -19 631 18 631 109 C631 139 619 164 592 175 C630 190 653 237 653 278 C653 326 620 354 550 354 C514 354 474 346 440 327 L451 263 C471 275 500 284 526 284 C551 284 573 278 573 249 C573 220 556 200 527 200 L491 200 L480 139 L516 139 C537 139 553 132 553 110 C553 70 519 50 484 50 C457 50 430 58 415 65 L382 -3 Z " />
<glyph glyph-name="twothirds" unicode="⅔" horiz-adv-x="664" d="M332 365 L351 472 L302 472 L289 438 L205 438 C325 510 375 562 375 648 C375 703 342 729 276 729 C232 729 188 720 149 699 L161 629 C185 643 217 657 244 657 C272 657 291 646 291 620 C291 550 179 482 104 442 L91 365 L332 365 Z M173 -21 L723 732 L627 732 L79 -21 L173 -21 Z M406 -3 C436 -15 468 -19 504 -19 C585 -19 655 18 655 109 C655 139 643 164 616 175 C654 190 677 237 677 278 C677 326 644 354 574 354 C538 354 498 346 464 327 L475 263 C495 275 524 284 550 284 C575 284 597 278 597 249 C597 220 580 200 551 200 L515 200 L504 139 L540 139 C561 139 577 132 577 110 C577 70 543 50 508 50 C481 50 454 58 439 65 L406 -3 Z " />
<glyph glyph-name="oneeighth" unicode="⅛" horiz-adv-x="647" d="M265 365 L274 419 L252 426 L304 720 L244 720 C212 690 178 665 139 642 L164 587 C176 592 190 600 204 609 L171 426 L142 419 L133 365 L265 365 Z M139 -21 L689 732 L593 732 L45 -21 L139 -21 Z M591 181 C636 197 656 235 656 280 C656 335 615 354 556 354 C491 354 417 326 417 239 C417 209 431 186 458 172 C410 158 374 122 374 65 C374 6 423 -19 489 -19 C563 -19 639 17 639 112 C639 146 621 167 591 181 L591 181 Z M516 148 C537 142 555 131 555 107 C555 73 531 51 499 51 C474 51 459 61 459 84 C459 112 482 144 516 148 L516 148 Z M526 191 C505 197 489 209 489 233 C489 261 508 285 542 285 C566 285 578 276 578 255 C578 228 559 201 526 191 L526 191 Z " />
<glyph glyph-name="threeeighths" unicode="⅜" horiz-adv-x="642" d="M91 372 C121 360 153 356 189 356 C270 356 340 393 340 484 C340 514 328 539 301 550 C339 565 362 612 362 653 C362 701 329 729 259 729 C223 729 183 721 149 702 L160 638 C180 650 209 659 235 659 C260 659 282 653 282 624 C282 595 265 575 236 575 L200 575 L189 514 L225 514 C246 514 262 507 262 485 C262 445 228 425 193 425 C166 425 139 433 124 440 L91 372 Z M144 -21 L694 732 L598 732 L50 -21 L144 -21 Z M586 181 C631 197 651 235 651 280 C651 335 610 354 551 354 C486 354 412 326 412 239 C412 209 426 186 453 172 C405 158 369 122 369 65 C369 6 418 -19 484 -19 C558 -19 634 17 634 112 C634 146 616 167 586 181 L586 181 Z M511 148 C532 142 550 131 550 107 C550 73 526 51 494 51 C469 51 454 61 454 84 C454 112 477 144 511 148 L511 148 Z M521 191 C500 197 484 209 484 233 C484 261 503 285 537 285 C561 285 573 276 573 255 C573 228 554 201 521 191 L521 191 Z " />
<glyph glyph-name="fiveeighths" unicode="⅝" horiz-adv-x="650" d="M93 381 C117 363 152 356 186 356 C296 356 353 403 353 512 C353 560 329 588 267 588 C242 588 223 584 209 579 L227 649 L307 649 L308 615 L357 615 L375 720 L172 720 L119 520 L170 508 C187 525 210 534 232 534 C259 534 276 526 276 498 C276 453 249 427 208 427 C173 427 148 434 127 446 L93 381 Z M152 -21 L702 732 L606 732 L58 -21 L152 -21 Z M594 181 C639 197 659 235 659 280 C659 335 618 354 559 354 C494 354 420 326 420 239 C420 209 434 186 461 172 C413 158 377 122 377 65 C377 6 426 -19 492 -19 C566 -19 642 17 642 112 C642 146 624 167 594 181 L594 181 Z M519 148 C540 142 558 131 558 107 C558 73 534 51 502 51 C477 51 462 61 462 84 C462 112 485 144 519 148 L519 148 Z M529 191 C508 197 492 209 492 233 C492 261 511 285 545 285 C569 285 581 276 581 255 C581 228 562 201 529 191 L529 191 Z " />
<glyph glyph-name="seveneighths" unicode="⅞" horiz-adv-x="635" d="M209 356 C244 456 309 562 380 655 L391 720 L153 720 L134 613 L183 613 L196 647 L298 647 C219 558 166 475 126 375 L209 356 Z M117 -21 L667 732 L571 732 L23 -21 L117 -21 Z M579 181 C624 197 644 235 644 280 C644 335 603 354 544 354 C479 354 405 326 405 239 C405 209 419 186 446 172 C398 158 362 122 362 65 C362 6 411 -19 477 -19 C551 -19 627 17 627 112 C627 146 609 167 579 181 L579 181 Z M504 148 C525 142 543 131 543 107 C543 73 519 51 487 51 C462 51 447 61 447 84 C447 112 470 144 504 148 L504 148 Z M514 191 C493 197 477 209 477 233 C477 261 496 285 530 285 C554 285 566 276 566 255 C566 228 547 201 514 191 L514 191 Z " />
<glyph glyph-name="partialdiff" unicode="∂" horiz-adv-x="500" d="M309 600 C319 602 330 603 340 603 C412 603 446 563 446 489 C446 448 434 393 419 344 C413 426 357 460 289 460 C172 460 59 338 59 135 C59 37 105 -18 224 -18 C413 -18 505 197 547 432 C553 464 555 494 555 521 C555 666 476 728 381 728 C364 728 346 725 331 722 L309 600 Z M392 277 C359 143 302 90 240 90 C188 90 164 112 164 166 C164 273 229 359 292 359 C362 359 385 327 392 277 L392 277 Z " />
<glyph glyph-name="Delta" unicode="∆" horiz-adv-x="641" d="M620 0 L636 91 L591 104 L540 710 L362 710 L87 104 L37 91 L21 0 L620 0 Z M425 104 L215 104 L403 550 L425 104 Z " />
<glyph glyph-name="product" unicode="∏" horiz-adv-x="510" d="M440 -228 L606 710 L154 710 L-11 -228 L113 -228 L261 609 L461 609 L313 -228 L440 -228 Z " />
<glyph glyph-name="summation" unicode="∑" horiz-adv-x="444" d="M380 -195 L401 -76 L171 -76 L388 258 L279 590 L519 590 L540 710 L154 710 L138 623 L264 262 L9 -108 L-5 -195 L380 -195 Z " />
<glyph glyph-name="minus" unicode="−" horiz-adv-x="608" d="M612 316 L631 420 L124 420 L105 316 L612 316 Z " />
<glyph glyph-name="radical" unicode="√" horiz-adv-x="516" d="M308 0 L621 710 L488 710 L270 182 L256 388 L97 388 L79 288 L143 288 L174 0 L308 0 Z " />
<glyph glyph-name="infinity" unicode="∞" horiz-adv-x="681" d="M389 276 C410 223 453 189 533 189 C633 189 720 264 720 402 C720 494 668 542 596 542 C517 542 465 507 420 454 C395 507 357 542 277 542 C180 542 89 466 89 327 C89 237 142 189 214 189 C294 189 350 223 389 276 L389 276 Z M361 362 C338 327 301 292 251 292 C207 292 187 312 187 347 C187 397 217 433 276 433 C321 433 344 403 361 362 L361 362 Z M449 362 C479 404 512 433 557 433 C602 433 623 410 623 377 C623 327 600 292 532 292 C483 292 458 326 449 362 L449 362 Z " />
<glyph glyph-name="integral" unicode="∫" horiz-adv-x="332" d="M-26 -230 C-4 -239 21 -240 50 -240 C139 -240 190 -196 206 -108 L329 587 C335 622 352 633 384 633 C400 633 413 633 427 628 L443 718 C420 727 394 728 365 728 C274 728 224 684 209 596 L86 -99 C80 -134 63 -146 30 -146 C16 -146 3 -146 -10 -140 L-26 -230 Z " />
<glyph glyph-name="approxequal" unicode="≈" horiz-adv-x="640" d="M644 312 C589 253 537 233 477 233 C407 233 344 301 241 301 C174 301 128 271 90 234 L70 117 C124 172 172 198 232 198 C306 198 370 130 456 130 C523 130 570 147 624 197 L644 312 Z M686 552 C631 493 579 473 519 473 C449 473 386 541 283 541 C216 541 170 511 132 474 L112 357 C166 412 214 438 274 438 C348 438 412 370 498 370 C565 370 612 387 666 437 L686 552 Z " />
<glyph glyph-name="notequal" unicode="≠" horiz-adv-x="608" d="M127 -21 L298 210 L594 210 L612 314 L374 314 L454 421 L631 421 L649 525 L530 525 L684 732 L604 732 L451 525 L142 525 L124 421 L374 421 L295 314 L105 314 L87 210 L219 210 L48 -21 L127 -21 Z " />
<glyph glyph-name="lessequal" unicode="≤" horiz-adv-x="608" d="M575 106 L595 219 L232 365 L647 510 L667 628 L123 419 L105 315 L575 106 Z M553 -24 L572 80 L65 80 L46 -24 L553 -24 Z " />
<glyph glyph-name="greaterequal" unicode="≥" horiz-adv-x="608" d="M612 315 L630 419 L160 628 L140 514 L504 369 L88 223 L68 106 L612 315 Z M553 -24 L572 80 L65 80 L46 -24 L553 -24 Z " />
<glyph glyph-name="lozenge" unicode="◊" horiz-adv-x="559" d="M363 4 L592 355 L487 706 L330 706 L91 355 L206 4 L363 4 Z M306 140 L241 355 L383 571 L448 355 L306 140 Z " />
<glyph glyph-name="zerooldstyle" unicode="" horiz-adv-x="545" d="M577 338 C581 363 584 386 584 406 C584 533 502 575 373 575 C224 575 118 518 86 338 L65 220 C60 195 59 173 59 153 C59 26 140 -16 269 -16 C419 -16 525 40 556 220 L577 338 Z M427 212 C413 132 351 100 289 100 C236 100 188 114 188 180 C188 189 189 200 191 212 L214 345 C229 430 291 458 352 458 C406 458 453 444 453 378 C453 368 452 357 450 345 L427 212 Z " />
<glyph glyph-name="oneoldstyle" unicode="" horiz-adv-x="352" d="M326 0 L342 91 L291 104 L371 559 L270 559 C211 509 148 466 78 428 L124 344 C149 357 177 373 205 391 L154 104 L90 91 L74 0 L326 0 Z " />
<glyph glyph-name="twooldstyle" unicode="" horiz-adv-x="524" d="M501 0 L533 186 L444 186 L420 108 L189 108 C334 161 565 254 565 443 C565 525 499 575 362 575 C268 575 198 558 117 522 L139 409 C193 439 255 463 339 463 C398 463 431 450 431 409 C431 296 206 187 47 118 L27 0 L501 0 Z " />
<glyph glyph-name="threeoldstyle" unicode="" horiz-adv-x="489" d="M1 -85 C59 -108 122 -116 192 -116 C341 -116 454 -57 479 80 C481 93 482 105 482 118 C482 178 455 227 396 245 C475 269 524 349 524 433 C524 523 460 575 321 575 C251 575 172 561 109 525 L127 424 C170 448 229 465 281 465 C344 465 392 449 392 392 C392 319 344 283 281 283 L207 283 L190 187 L263 187 C317 187 351 171 351 121 C351 39 282 -6 197 -6 C143 -6 90 8 55 23 L1 -85 Z " />
<glyph glyph-name="fouroldstyle" unicode="" horiz-adv-x="542" d="M452 -123 L474 0 L527 0 L546 110 L493 110 L532 329 L405 329 L366 110 L174 110 C271 228 363 366 437 500 L329 549 C243 399 138 246 35 119 L15 0 L342 0 L320 -123 L452 -123 Z " />
<glyph glyph-name="fiveoldstyle" unicode="" horiz-adv-x="511" d="M524 368 L558 559 L158 559 L58 188 L143 170 C186 212 234 229 283 229 C350 229 384 209 384 151 C384 59 328 -7 223 -7 C148 -7 99 8 67 30 C47 -2 27 -36 7 -70 C57 -104 125 -116 206 -116 C385 -116 513 -26 513 165 C513 256 467 314 345 314 C301 314 243 305 203 276 L249 447 L440 447 L438 368 L524 368 Z " />
<glyph glyph-name="sixoldstyle" unicode="" horiz-adv-x="524" d="M461 653 C205 626 56 401 56 182 C56 70 107 -18 264 -18 C428 -18 545 76 545 249 C545 334 499 395 383 395 C300 395 244 362 209 327 C247 449 338 536 477 551 L461 653 Z M195 246 C226 280 275 306 327 306 C387 306 414 283 414 233 C414 148 368 86 285 86 C218 86 190 129 190 193 C190 209 191 227 195 246 L195 246 Z " />
<glyph glyph-name="sevenoldstyle" unicode="" horiz-adv-x="476" d="M196 -115 C265 71 401 300 544 460 L561 559 L124 559 L91 369 L177 369 L201 448 L412 448 C261 287 139 98 60 -87 L196 -115 Z " />
<glyph glyph-name="eightoldstyle" unicode="" horiz-adv-x="533" d="M445 340 C542 365 585 437 585 517 C585 619 503 653 387 653 C253 653 118 592 118 449 C118 393 151 348 215 326 C117 305 41 241 41 135 C41 30 137 -18 269 -18 C420 -18 552 51 552 216 C552 287 510 318 445 340 L445 340 Z M319 289 C378 278 420 257 420 208 C420 134 362 90 286 90 C223 90 183 109 183 161 C183 227 234 281 319 289 L319 289 Z M335 355 C276 366 240 393 240 438 C240 511 294 548 368 548 C428 548 462 532 462 482 C462 431 425 371 335 355 L335 355 Z " />
<glyph glyph-name="nineoldstyle" unicode="" horiz-adv-x="524" d="M156 -116 C399 -90 562 141 562 374 C562 486 512 575 355 575 C187 575 73 461 73 304 C73 219 119 157 236 157 C317 157 374 188 410 224 C378 92 265 0 140 -14 L156 -116 Z M427 310 C394 274 342 247 294 247 C233 247 207 272 207 322 C207 408 252 477 338 477 C408 477 434 445 434 381 C434 361 432 337 427 310 L427 310 Z " />
<glyph glyph-name="uniF8FF" unicode="" horiz-adv-x="283" d="" />
<glyph glyph-name="fi" unicode="ﬁ" horiz-adv-x="635" d="M279 0 L295 91 L235 104 L293 432 L408 432 L424 526 L309 526 L318 578 C324 613 349 629 384 629 C409 629 424 625 435 618 L466 706 C448 719 418 728 358 728 C257 728 200 691 181 587 L170 526 L110 526 L94 432 L154 432 L96 104 L41 91 L25 0 L279 0 Z M613 0 L629 91 L579 104 L653 526 L459 526 L443 435 L493 422 L437 104 L383 91 L367 0 L613 0 Z M665 590 L687 719 L545 719 L523 590 L665 590 Z " />
<glyph glyph-name="fl" unicode="ﬂ" horiz-adv-x="650" d="M279 0 L295 91 L235 104 L293 432 L408 432 L424 526 L309 526 L318 578 C324 613 349 629 384 629 C409 629 424 625 435 618 L466 706 C448 719 418 728 358 728 C257 728 200 691 181 587 L170 526 L110 526 L94 432 L154 432 L96 104 L41 91 L25 0 L279 0 Z M628 0 L644 91 L594 104 L702 719 L508 719 L492 628 L542 615 L452 104 L398 91 L382 0 L628 0 Z " />
</font>
</svg>
