<?xml version="1.0" encoding="UTF-8"?>
<svg xmlns="http://www.w3.org/2000/svg" xmlns:xlink="http://www.w3.org/1999/xlink" version="1.2">
<font id="That-Book">
<font-face font-family="That" units-per-em="1000" ascent="700" descent="-230" font-style="normal" font-weight="400" font-stretch="normal" cap-height="640" x-height="460" underline-position="-90" underline-thickness="60" />
<missing-glyph horiz-adv-x="500" d="" />
<glyph glyph-name="NULL" d="" />
<glyph glyph-name="CR" unicode="&#xD;" horiz-adv-x="250" d="" />
<glyph glyph-name="space" unicode=" " horiz-adv-x="302" d="" />
<glyph glyph-name="exclam" unicode="!" horiz-adv-x="197" d="M98 152 L124 179 L147 650 L50 640 L69 157 L98 152 Z M93 -5 C122 -5 151 17 151 46 C151 74 133 92 104 92 C74 92 46 69 46 41 C46 13 64 -5 93 -5 L93 -5 Z " />
<glyph glyph-name="quotedbl" unicode="&quot;" horiz-adv-x="329" d="M202 450 L264 450 L279 640 L187 640 L202 450 Z M65 450 L128 450 L143 640 L50 640 L65 450 Z " />
<glyph glyph-name="numbersign" unicode="#" horiz-adv-x="549" d="M124 0 L168 0 L185 199 L334 199 L317 0 L360 0 L377 199 L506 199 L506 241 L382 241 L393 381 L506 381 L506 423 L398 423 L414 620 L371 620 L354 423 L205 423 L222 620 L178 620 L161 423 L33 423 L33 381 L157 381 L145 241 L33 241 L33 199 L141 199 L124 0 Z M189 241 L201 381 L350 381 L338 241 L189 241 Z " />
<glyph glyph-name="dollar" unicode="$" horiz-adv-x="549" d="M251 -78 L274 -78 L274 -8 C352 -1 470 50 470 178 C470 280 373 325 274 366 L274 597 C317 594 373 576 373 576 L390 501 L419 504 C419 504 428 600 432 622 C432 622 349 632 274 632 L274 704 L251 704 L251 632 C130 625 68 557 68 465 C68 380 127 336 218 297 C228 292 241 287 251 281 L251 25 C193 25 119 47 119 47 L102 122 L73 119 C73 119 64 22 60 0 C60 0 142 -11 251 -10 L251 -78 Z M251 375 C182 404 141 429 141 480 C141 535 172 594 251 597 L251 375 Z M274 25 L274 271 C349 235 389 201 389 159 C389 69 324 31 274 25 L274 25 Z " />
<glyph glyph-name="percent" unicode="%" horiz-adv-x="549" d="M145 332 C237 332 295 389 295 480 C295 571 247 630 155 630 C64 630 6 574 6 482 C6 391 55 332 145 332 L145 332 Z M56 3 L82 0 L507 605 L498 618 L461 620 L46 19 L56 3 Z M387 -10 C479 -10 536 47 536 138 C536 229 488 288 397 288 C306 288 248 232 248 140 C248 49 297 -10 387 -10 L387 -10 Z M154 364 C94 364 68 422 68 488 C68 535 85 576 96 587 C96 587 115 598 147 598 C206 598 233 540 233 474 C233 427 216 386 204 375 C204 375 186 364 154 364 L154 364 Z M396 22 C336 22 309 80 309 146 C309 193 327 234 338 245 C338 245 356 256 389 256 C448 256 475 198 475 132 C475 85 457 44 446 33 C446 33 428 22 396 22 L396 22 Z " />
<glyph glyph-name="ampersand" unicode="&amp;" horiz-adv-x="647" d="M229 -10 C311 -10 379 18 431 60 L483 0 L540 0 C591 0 633 -5 633 -5 L639 23 L564 41 L491 122 C521 166 537 217 537 267 C537 298 512 346 512 346 L606 357 L608 385 L504 385 C451 385 392 390 392 390 L386 362 L438 340 C438 340 477 307 477 250 C477 215 469 184 459 158 L291 346 C245 398 199 443 199 497 C199 555 232 617 317 617 C349 617 419 589 419 589 L436 514 L465 517 C465 517 474 611 478 633 C478 633 401 650 329 650 C189 650 123 580 123 485 C123 428 153 383 182 348 C112 320 46 250 46 169 C46 62 132 -10 229 -10 L229 -10 Z M265 32 C198 32 128 88 128 177 C128 263 163 308 184 323 L199 327 L411 83 C391 60 374 48 374 48 C363 43 310 32 265 32 L265 32 Z " />
<glyph glyph-name="quotesingle" unicode="'" horiz-adv-x="193" d="M65 450 L128 450 L143 640 L50 640 L65 450 Z " />
<glyph glyph-name="parenleft" unicode="(" horiz-adv-x="287" d="M269 -163 L284 -157 L289 -136 C217 -91 119 61 119 291 C119 517 217 673 289 718 L284 739 L269 745 C171 688 37 519 37 291 C37 54 171 -106 269 -163 L269 -163 Z " />
<glyph glyph-name="parenright" unicode=")" horiz-adv-x="287" d="M20 -163 C118 -106 252 54 252 291 C252 519 118 688 20 745 L5 739 L0 718 C72 673 170 517 170 291 C170 61 72 -91 0 -136 L5 -157 L20 -163 Z " />
<glyph glyph-name="asterisk" unicode="*" horiz-adv-x="320" d="M164 563 C189 563 215 583 215 609 C215 634 199 650 172 650 C147 650 121 630 121 604 C121 578 137 563 164 563 L164 563 Z M245 500 C271 500 296 520 296 545 C296 571 280 587 253 587 C227 587 202 567 202 541 C202 516 218 500 245 500 L245 500 Z M67 500 C92 500 118 520 118 545 C118 571 102 587 75 587 C50 587 24 567 24 541 C24 516 41 500 67 500 L67 500 Z M202 401 C228 401 253 421 253 446 C253 472 237 488 210 488 C185 488 159 468 159 443 C159 417 175 401 202 401 L202 401 Z M92 401 C117 401 142 421 142 446 C142 472 126 488 99 488 C74 488 49 468 49 443 C49 417 65 401 92 401 L92 401 Z " />
<glyph glyph-name="plus" unicode="+" horiz-adv-x="549" d="M250 119 L313 124 L308 288 L478 288 L494 318 L494 340 L308 340 L313 515 L250 510 L255 340 L85 340 L69 310 L69 288 L255 288 L250 119 Z " />
<glyph glyph-name="comma" unicode="," horiz-adv-x="198" d="M8 -137 C77 -123 155 -49 155 21 C155 70 122 92 92 92 C62 92 39 67 39 33 C43 21 91 16 91 -26 C91 -47 69 -97 2 -118 L8 -137 Z " />
<glyph glyph-name="hyphen" unicode="-" horiz-adv-x="267" d="M33 245 L217 245 L233 273 L233 288 L49 288 L33 260 L33 245 Z " />
<glyph glyph-name="period" unicode="." horiz-adv-x="197" d="M93 -5 C122 -5 151 17 151 46 C151 74 133 92 104 92 C74 92 46 69 46 41 C46 13 64 -5 93 -5 L93 -5 Z " />
<glyph glyph-name="slash" unicode="/" horiz-adv-x="454" d="M11 -53 L46 -54 L454 675 L444 689 L398 690 L0 -35 L11 -53 Z " />
<glyph glyph-name="zero" unicode="0" horiz-adv-x="549" d="M260 -10 C432 -10 507 111 507 310 C507 491 448 630 281 630 C106 630 36 511 36 312 C36 121 97 -10 260 -10 L260 -10 Z M280 30 C154 30 117 148 117 326 C117 526 152 559 152 559 C152 559 183 590 261 590 C387 590 426 474 426 296 C426 93 378 56 378 56 C378 56 358 30 280 30 L280 30 Z " />
<glyph glyph-name="one" unicode="1" horiz-adv-x="549" d="M430 -5 L436 23 L339 39 C339 39 334 63 334 327 C334 559 339 632 339 632 C289 619 136 600 136 600 L142 571 L252 572 C252 572 257 528 257 327 C257 71 252 40 252 40 L167 28 L165 0 L297 0 C348 0 430 -5 430 -5 L430 -5 Z " />
<glyph glyph-name="two" unicode="2" horiz-adv-x="549" d="M51 0 L491 0 L499 63 L474 76 L435 67 L131 59 L131 61 L315 216 C433 314 484 375 484 466 C484 585 384 630 290 630 C169 630 72 544 72 544 L71 529 L91 516 C91 516 164 575 269 575 C353 575 404 525 404 460 C404 389 373 344 245 225 L29 26 L51 0 Z " />
<glyph glyph-name="three" unicode="3" horiz-adv-x="549" d="M174 -20 C328 -20 480 66 480 234 C480 331 374 375 332 378 L332 380 C382 413 432 464 432 511 C432 598 350 630 273 630 C171 630 82 567 82 567 L81 552 L101 539 C101 539 160 575 250 575 C308 575 351 552 351 503 C351 433 308 401 234 369 L134 326 L133 313 L150 302 L259 338 C314 338 400 302 400 212 C400 94 306 35 306 35 C306 35 250 20 185 20 C116 20 66 45 66 45 L39 17 L39 -5 C39 -5 89 -20 174 -20 L174 -20 Z " />
<glyph glyph-name="four" unicode="4" horiz-adv-x="549" d="M366 -20 L387 -9 C387 -9 382 53 382 161 L514 161 L526 192 L518 206 L382 204 L382 375 C382 583 385 610 385 610 L334 624 L11 195 L28 161 L307 161 C307 54 302 -8 302 -8 L366 -20 Z M66 201 L303 511 L305 511 C305 511 307 475 307 363 L307 204 L66 201 Z " />
<glyph glyph-name="five" unicode="5" horiz-adv-x="549" d="M154 -20 C329 -20 454 57 454 192 C454 329 266 385 155 418 L169 565 L410 553 L429 617 L420 629 L365 620 L135 620 L106 352 C235 317 375 270 375 169 C375 86 315 41 315 41 C315 41 260 20 167 20 C133 20 65 37 65 37 L39 8 L39 -14 C39 -14 118 -20 154 -20 L154 -20 Z " />
<glyph glyph-name="six" unicode="6" horiz-adv-x="549" d="M253 -10 C390 -10 495 73 495 201 C495 319 407 394 282 394 C224 394 167 371 141 350 L139 350 C183 476 317 604 387 649 L383 669 L371 674 C219 588 38 393 38 201 C38 73 116 -10 253 -10 L253 -10 Z M268 30 C160 30 121 97 121 223 C121 287 132 318 136 324 C146 330 203 352 260 352 C363 352 410 285 410 190 C410 106 378 64 356 47 C356 47 318 30 268 30 L268 30 Z " />
<glyph glyph-name="seven" unicode="7" horiz-adv-x="549" d="M165 -39 L201 -32 L507 596 L485 620 L42 620 L34 555 L60 543 L99 552 L417 560 L417 558 L155 -32 L165 -39 Z " />
<glyph glyph-name="eight" unicode="8" horiz-adv-x="549" d="M259 -10 C386 -10 480 74 480 168 C480 257 425 322 343 345 L343 347 C387 360 451 424 451 492 C451 583 382 640 273 640 C161 640 82 568 82 495 C82 412 131 356 190 341 L190 339 C109 309 52 241 52 167 C52 73 130 -10 259 -10 L259 -10 Z M272 359 C193 359 155 422 155 502 C155 545 174 575 189 589 C189 589 216 601 261 601 C340 601 377 549 377 487 C377 423 351 393 336 378 C336 378 314 359 272 359 L272 359 Z M271 28 C181 28 131 99 131 176 C131 248 162 290 179 307 C179 307 214 327 260 327 C351 327 401 255 401 158 C401 103 364 59 345 41 C345 41 320 28 271 28 L271 28 Z " />
<glyph glyph-name="nine" unicode="9" horiz-adv-x="549" d="M176 -54 C328 32 499 227 499 417 C499 547 407 630 283 630 C146 630 45 547 45 408 C45 301 134 211 247 211 C306 211 365 235 391 255 L393 255 C349 130 226 14 156 -30 L160 -51 L176 -54 Z M272 254 C197 254 128 326 128 416 C128 513 159 556 181 573 C181 573 218 590 268 590 C377 590 418 511 418 397 C418 317 396 282 395 282 C385 275 328 254 272 254 L272 254 Z " />
<glyph glyph-name="colon" unicode=":" horiz-adv-x="197" d="M93 363 C122 363 151 386 151 414 C151 442 133 460 104 460 C74 460 46 438 46 409 C46 381 64 363 93 363 L93 363 Z M93 -5 C122 -5 151 17 151 46 C151 74 133 92 104 92 C74 92 46 69 46 41 C46 13 64 -5 93 -5 L93 -5 Z " />
<glyph glyph-name="semicolon" unicode=";" horiz-adv-x="198" d="M93 363 C122 363 151 386 151 414 C151 442 133 460 104 460 C74 460 46 438 46 409 C46 381 64 363 93 363 L93 363 Z M8 -137 C77 -123 155 -49 155 21 C155 70 122 92 92 92 C62 92 39 67 39 33 C43 21 91 16 91 -26 C91 -47 69 -97 2 -118 L8 -137 Z " />
<glyph glyph-name="less" unicode="&lt;" horiz-adv-x="549" d="M415 36 L448 52 L462 71 L125 306 L462 541 L448 560 L415 576 L75 321 L75 291 L415 36 Z " />
<glyph glyph-name="equal" unicode="=" horiz-adv-x="549" d="M69 369 L478 369 L494 398 L494 420 L85 420 L69 391 L69 369 Z M69 220 L478 220 L494 249 L494 271 L85 271 L69 242 L69 220 Z " />
<glyph glyph-name="greater" unicode="&gt;" horiz-adv-x="549" d="M133 36 L473 291 L473 321 L133 576 L100 560 L86 541 L423 306 L86 71 L100 52 L133 36 Z " />
<glyph glyph-name="question" unicode="?" horiz-adv-x="249" d="M127 145 L157 180 C137 199 105 245 103 257 C117 282 239 387 239 445 C239 524 128 627 70 650 L27 643 L5 595 C54 577 172 502 172 391 C172 339 53 265 53 223 C53 200 95 145 95 145 L127 145 Z M102 -5 C132 -5 161 17 161 46 C161 74 142 92 114 92 C84 92 56 69 56 41 C56 13 74 -5 102 -5 L102 -5 Z " />
<glyph glyph-name="at" unicode="@" horiz-adv-x="791" d="M346 -200 C477 -200 579 -148 594 -138 L594 -123 L577 -113 C577 -113 509 -151 377 -151 C228 -151 110 -4 110 207 C110 433 179 551 263 618 C263 618 340 648 436 648 C552 648 634 587 634 476 L634 450 C609 463 561 470 514 470 C365 470 276 355 276 214 C276 57 381 -10 488 -10 C515 -10 590 12 629 79 L631 79 L638 0 L673 0 C726 0 773 -5 773 -5 L779 23 L712 39 C712 39 707 69 707 278 C707 339 712 437 712 480 C712 626 592 689 457 689 C170 689 30 460 30 193 C30 -28 139 -200 346 -200 L346 -200 Z M505 42 C455 42 353 80 353 219 C353 318 388 389 410 411 C410 411 446 430 501 430 C539 430 602 408 634 393 L634 272 C634 149 620 102 612 82 C612 82 571 42 505 42 L505 42 Z " />
<glyph glyph-name="A" unicode="A" horiz-adv-x="672" d="M3 -5 C3 -5 49 0 85 0 L157 0 L159 28 L110 33 L177 204 L455 204 L520 35 L460 28 L458 0 L559 0 C614 0 661 -5 661 -5 L667 23 L617 34 L367 640 L305 640 L53 32 L6 23 L3 -5 Z M193 246 L316 561 L318 561 L439 246 L193 246 Z " />
<glyph glyph-name="B" unicode="B" horiz-adv-x="592" d="M321 -10 C437 -10 559 41 559 197 C559 271 495 329 406 344 L406 346 C458 377 493 426 493 495 C493 582 421 650 295 650 C268 650 189 640 143 640 C104 640 39 645 39 645 L33 617 L100 601 C100 601 105 570 105 337 C105 78 100 40 100 40 L45 28 L43 0 L145 0 C178 0 262 -10 321 -10 L321 -10 Z M182 344 C182 568 187 599 187 599 C187 599 230 610 272 610 C369 610 410 544 410 479 C410 397 359 361 359 361 C359 361 322 344 261 344 L182 344 Z M297 30 C241 30 187 52 187 52 C187 52 182 80 182 314 C182 314 214 309 236 309 L332 309 C418 309 476 248 476 177 C476 88 426 47 426 47 C426 47 390 30 297 30 L297 30 Z " />
<glyph glyph-name="C" unicode="C" horiz-adv-x="642" d="M349 -10 C480 -10 582 42 597 52 L597 67 L580 78 C580 78 513 40 379 40 C232 40 118 151 118 336 C118 470 179 542 229 583 C229 583 289 610 368 610 C456 610 520 570 520 570 L537 500 L566 503 C566 503 575 608 579 630 C579 630 474 650 387 650 C178 650 34 523 34 322 C34 121 140 -10 349 -10 L349 -10 Z " />
<glyph glyph-name="D" unicode="D" horiz-adv-x="692" d="M327 -10 C530 -10 657 129 657 330 C657 529 551 650 347 650 C280 650 163 640 143 640 C91 640 39 645 39 645 L33 617 L100 601 C100 601 105 568 105 337 C105 79 100 40 100 40 L45 28 L43 0 C43 0 104 0 143 0 C183 0 276 -10 327 -10 L327 -10 Z M346 30 C291 30 194 43 194 43 L187 50 C187 50 182 82 182 328 C182 574 187 595 187 595 L198 601 C198 601 269 610 325 610 C469 610 573 494 573 316 C573 182 520 96 472 57 C472 57 426 30 346 30 L346 30 Z " />
<glyph glyph-name="E" unicode="E" horiz-adv-x="577" d="M43 0 L522 0 C522 26 539 139 539 139 L510 142 L476 45 L194 38 L187 40 C187 40 182 70 182 311 L404 308 L426 220 L455 223 C455 223 448 285 448 332 C448 379 455 427 455 427 L426 430 L404 352 L182 348 C182 566 187 599 187 599 L198 601 L463 595 L467 498 L496 501 L519 640 L143 640 C98 640 39 645 39 645 L33 617 L100 601 C100 601 105 570 105 337 C105 80 100 40 100 40 L45 28 L43 0 Z " />
<glyph glyph-name="F" unicode="F" horiz-adv-x="551" d="M248 -5 L254 23 L187 39 C187 39 182 68 182 311 L416 307 L438 218 L467 221 C467 221 460 284 460 331 C460 378 467 427 467 427 L438 430 L416 351 L182 347 C182 565 187 599 187 599 L198 601 L486 595 L490 498 L519 501 L540 640 L143 640 C98 640 39 645 39 645 L33 617 L100 601 C100 601 105 570 105 337 C105 78 100 40 100 40 L45 28 L43 0 L145 0 C198 0 248 -5 248 -5 L248 -5 Z " />
<glyph glyph-name="G" unicode="G" horiz-adv-x="708" d="M349 -10 C498 -10 617 49 618 51 L618 270 L673 282 L675 310 L540 310 C507 310 441 320 441 320 L435 292 L531 269 C531 269 541 244 541 57 C541 57 483 40 379 40 C232 40 118 151 118 336 C118 470 179 542 229 583 C229 583 291 610 370 610 C452 610 530 571 530 571 L548 499 L577 502 C577 502 586 608 590 630 C590 630 502 650 388 650 C179 650 34 523 34 322 C34 121 140 -10 349 -10 L349 -10 Z " />
<glyph glyph-name="H" unicode="H" horiz-adv-x="708" d="M248 -5 L254 23 L187 39 C187 39 182 68 182 310 L527 310 C527 75 522 40 522 40 L467 28 L465 0 L567 0 C622 0 671 -5 671 -5 L677 23 L610 39 C610 39 605 70 605 337 C605 567 610 600 610 600 L665 612 L667 640 L565 640 C512 640 461 645 461 645 L455 617 L522 601 C522 601 527 572 527 352 L182 352 C182 568 187 600 187 600 L242 612 L244 640 L143 640 C89 640 39 645 39 645 L33 617 L100 601 C100 601 105 570 105 337 C105 78 100 40 100 40 L45 28 L43 0 L145 0 C199 0 248 -5 248 -5 L248 -5 Z " />
<glyph glyph-name="I" unicode="I" horiz-adv-x="277" d="M248 -5 L254 23 L187 39 C187 39 182 71 182 337 C182 567 187 600 187 600 L242 612 L244 640 L143 640 C89 640 39 645 39 645 L33 617 L100 601 C100 601 105 571 105 337 C105 77 100 40 100 40 L45 28 L43 0 L145 0 C198 0 248 -5 248 -5 L248 -5 Z " />
<glyph glyph-name="J" unicode="J" horiz-adv-x="277" d="M32 -237 C102 -194 185 -91 185 37 C185 37 182 133 182 353 C182 552 187 600 187 600 L242 612 L244 640 L147 640 C96 640 39 645 39 645 L33 617 L100 601 C100 601 105 585 105 353 L105 37 C105 -72 75 -175 19 -219 L32 -237 Z " />
<glyph glyph-name="K" unicode="K" horiz-adv-x="652" d="M248 -5 L254 23 L187 39 C187 39 182 71 182 304 L216 333 L489 0 L547 0 C598 0 640 -5 640 -5 L646 23 L572 41 L313 344 C292 369 262 371 260 373 L519 605 L578 614 L581 645 C581 645 533 640 498 640 L414 640 L412 609 L455 604 L182 346 C182 563 187 600 187 600 L242 612 L244 640 L143 640 C89 640 39 645 39 645 L33 617 L100 601 C100 601 105 570 105 337 C105 79 100 40 100 40 L45 28 L43 0 L145 0 C196 0 248 -5 248 -5 L248 -5 Z " />
<glyph glyph-name="L" unicode="L" horiz-adv-x="524" d="M43 0 L504 0 C504 26 521 139 521 139 L492 142 L458 45 L193 38 L187 40 C187 40 182 72 182 337 C182 566 187 600 187 600 L242 612 L244 640 L143 640 C89 640 39 645 39 645 L33 617 L100 601 C100 601 105 570 105 337 C105 78 100 40 100 40 L45 28 L43 0 Z " />
<glyph glyph-name="M" unicode="M" horiz-adv-x="919" d="M192 -5 L198 23 L132 39 L149 337 C154 427 165 523 165 523 L167 523 L404 0 L463 0 L706 540 L708 540 L726 337 C739 188 743 40 743 40 L688 28 L687 0 L791 0 C843 0 892 -5 892 -5 L899 23 L830 39 L803 337 C792 460 790 600 790 600 L845 612 L846 640 L695 640 L456 87 L454 87 L212 640 L150 640 C113 640 64 645 64 645 L55 617 L121 601 L108 337 C99 155 82 40 82 40 L26 28 L23 0 L108 0 C151 0 192 -5 192 -5 L192 -5 Z " />
<glyph glyph-name="N" unicode="N" horiz-adv-x="694" d="M543 -14 L609 0 C609 0 604 31 604 107 L604 337 C604 567 609 600 609 600 L664 612 L666 640 L582 640 C544 640 496 645 496 645 L490 617 L557 601 C557 601 562 572 562 337 C562 231 560 101 560 101 L558 101 L179 640 L124 640 C75 640 39 645 39 645 L33 617 L100 601 C100 601 105 572 105 337 C105 76 100 40 100 40 L45 28 L43 0 L126 0 C170 0 212 -5 212 -5 L218 23 L151 39 C151 39 146 71 146 337 L146 540 L148 540 L543 -14 Z " />
<glyph glyph-name="O" unicode="O" horiz-adv-x="723" d="M350 -10 C553 -10 688 121 688 320 C688 517 574 650 371 650 C168 650 35 521 35 322 C35 123 146 -10 350 -10 L350 -10 Z M369 30 C228 30 118 158 118 336 C118 471 174 547 219 583 C219 583 272 610 351 610 C493 610 604 482 604 306 C604 173 537 94 492 57 C492 57 448 30 369 30 L369 30 Z " />
<glyph glyph-name="P" unicode="P" horiz-adv-x="524" d="M248 -5 L254 23 L187 39 C187 39 182 71 182 337 C182 563 187 599 187 599 C187 599 232 610 290 610 C389 610 431 544 431 474 C431 385 382 345 382 345 C382 345 350 328 299 328 C247 328 224 339 224 339 L204 320 L204 297 C204 297 238 288 274 288 C391 288 515 338 515 494 C515 583 440 650 317 650 C274 650 189 640 143 640 C100 640 39 645 39 645 L33 617 L100 601 C100 601 105 570 105 337 C105 77 100 40 100 40 L45 28 L43 0 L145 0 C198 0 248 -5 248 -5 L248 -5 Z " />
<glyph glyph-name="Q" unicode="Q" horiz-adv-x="718" d="M350 -10 C553 -10 688 121 688 320 C688 517 574 650 371 650 C168 650 35 521 35 322 C35 123 146 -10 350 -10 L350 -10 Z M548 -161 C588 -161 677 -104 693 -81 L693 -67 L678 -58 C661 -76 630 -99 578 -99 C551 -99 370 -17 306 -17 C266 -17 180 -72 164 -94 L164 -108 L180 -117 C203 -93 246 -70 287 -70 C339 -70 495 -161 548 -161 L548 -161 Z M369 30 C228 30 118 158 118 336 C118 471 174 547 219 583 C219 583 272 610 351 610 C493 610 604 482 604 306 C604 173 537 94 492 57 C492 57 448 30 369 30 L369 30 Z " />
<glyph glyph-name="R" unicode="R" horiz-adv-x="650" d="M248 -5 L254 23 L187 39 C187 39 182 71 182 337 C182 563 187 599 187 599 C187 599 232 610 290 610 C389 610 434 544 434 474 C434 385 382 349 382 349 C382 349 350 333 299 333 C247 333 224 343 224 343 L204 324 L204 301 C204 301 249 297 260 293 L490 0 L547 0 C598 0 640 -5 640 -5 L646 23 L572 41 L378 275 C366 290 350 298 346 298 L346 300 C435 314 518 371 518 494 C518 583 440 650 317 650 C274 650 189 640 143 640 C100 640 39 645 39 645 L33 617 L100 601 C100 601 105 570 105 337 C105 77 100 40 100 40 L45 28 L43 0 L145 0 C198 0 248 -5 248 -5 L248 -5 Z " />
<glyph glyph-name="S" unicode="S" horiz-adv-x="469" d="M212 -10 C300 -10 439 37 439 178 C439 282 338 336 233 379 C154 410 111 444 111 498 C111 555 145 615 232 615 C276 615 342 593 342 593 L359 518 L388 521 C388 521 397 618 401 640 C401 640 318 650 244 650 C107 650 37 580 37 483 C37 398 97 344 187 306 C298 258 359 210 359 159 C359 62 280 25 227 25 C171 25 88 47 88 47 L71 122 L42 119 C42 119 33 22 29 0 C29 0 110 -10 212 -10 L212 -10 Z " />
<glyph glyph-name="T" unicode="T" horiz-adv-x="590" d="M392 -5 L398 23 L331 39 C331 39 326 71 326 303 C326 571 331 600 331 600 L528 595 L532 498 L562 501 L585 640 L13 640 C13 614 6 501 6 501 L35 498 L59 595 L238 602 L244 600 C244 600 249 566 249 303 C249 75 244 40 244 40 L189 28 L187 0 L288 0 C339 0 392 -5 392 -5 L392 -5 Z " />
<glyph glyph-name="U" unicode="U" horiz-adv-x="673" d="M344 -10 C530 -10 595 96 595 294 L595 337 C595 470 602 600 602 600 L652 612 L654 640 L567 640 C528 640 481 645 481 645 L475 617 L539 601 C539 601 545 454 545 337 L545 298 C545 145 504 74 491 62 C491 62 431 37 364 37 C237 37 172 115 172 294 L172 337 C172 570 177 600 177 600 L232 612 L234 640 L133 640 C79 640 29 645 29 645 L23 617 L90 601 C90 601 95 577 95 337 L95 294 C95 118 142 -10 344 -10 L344 -10 Z " />
<glyph glyph-name="V" unicode="V" horiz-adv-x="676" d="M304 0 L365 0 L618 608 L665 617 L668 645 C668 645 622 640 585 640 L513 640 L511 612 L560 607 L354 79 L352 79 L151 605 L211 612 L213 640 L112 640 C57 640 10 645 10 645 L4 617 L54 606 L304 0 Z " />
<glyph glyph-name="W" unicode="W" horiz-adv-x="1059" d="M283 0 L345 0 L535 501 L537 501 L719 0 L781 0 L1003 608 L1050 617 L1053 645 C1053 645 1007 640 972 640 L899 640 L897 612 L947 607 L770 85 L768 85 L581 639 L534 639 L333 86 L331 86 L150 605 L211 612 L213 640 L112 640 C57 640 10 645 10 645 L4 617 L55 606 L283 0 Z " />
<glyph glyph-name="X" unicode="X" horiz-adv-x="675" d="M10 -5 C10 -5 56 0 91 0 L165 0 L167 28 L117 33 L323 296 L496 35 L455 28 L453 0 L554 0 C609 0 656 -5 656 -5 L662 23 L604 34 L370 353 L584 608 L633 617 L636 645 C636 645 590 640 555 640 L482 640 L480 612 L529 607 L352 379 L196 605 L245 612 L247 640 L146 640 C91 640 44 645 44 645 L38 617 L89 606 L305 321 L61 32 L13 23 L10 -5 Z " />
<glyph glyph-name="Y" unicode="Y" horiz-adv-x="610" d="M409 -5 L415 23 L348 39 C348 39 344 59 344 238 L344 309 L553 608 L600 617 L603 645 C603 645 557 640 521 640 L449 640 L447 612 L495 607 L322 340 L320 340 L159 605 L209 612 L211 640 L112 640 C57 640 10 645 10 645 L4 617 L52 606 L266 293 L266 238 C266 66 261 40 261 40 L206 28 L204 0 L306 0 C360 0 409 -5 409 -5 L409 -5 Z " />
<glyph glyph-name="Z" unicode="Z" horiz-adv-x="585" d="M64 0 L550 0 C546 22 537 139 537 139 L508 142 L494 45 L140 40 L536 614 L514 640 L44 640 C48 618 57 504 57 504 L87 501 L101 595 L431 603 L37 35 L64 0 Z " />
<glyph glyph-name="bracketleft" unicode="[" horiz-adv-x="253" d="M59 -139 L242 -139 L242 -107 L226 -81 L137 -95 L118 308 L137 677 L226 663 L242 689 L242 721 L59 721 L69 308 L59 -139 Z " />
<glyph glyph-name="backslash" unicode="\" horiz-adv-x="456" d="M441 -52 L452 -31 L52 690 L7 689 L-4 671 L406 -54 L441 -52 Z " />
<glyph glyph-name="bracketright" unicode="]" horiz-adv-x="253" d="M9 -139 L192 -139 L182 308 L192 721 L9 721 L9 689 L25 663 L114 677 L133 308 L114 -95 L25 -81 L9 -107 L9 -139 Z " />
<glyph glyph-name="asciicircum" unicode="^" horiz-adv-x="549" d="M47 141 L273 469 L498 141 L518 155 L534 188 L288 519 L257 519 L11 188 L27 155 L47 141 Z " />
<glyph glyph-name="underscore" unicode="_" horiz-adv-x="180" d="M0 -145 L180 -145 L180 -120 L0 -120 L0 -145 Z " />
<glyph glyph-name="grave" unicode="`" horiz-adv-x="512" d="M305 510 L328 522 L246 654 L211 651 L191 620 L305 510 Z " />
<glyph glyph-name="a" unicode="a" horiz-adv-x="429" d="M168 -10 C194 -10 241 28 267 53 L269 53 L274 0 L310 0 C363 0 410 -5 410 -5 L416 23 L349 39 C349 39 344 57 344 358 C344 423 302 470 227 470 C140 470 72 421 72 421 L72 406 L85 391 C85 391 143 414 190 414 C250 414 271 379 271 339 L271 257 L160 230 C77 209 41 163 33 132 C33 53 69 -10 168 -10 L168 -10 Z M180 38 C138 47 107 84 107 129 C107 161 130 187 178 199 L271 224 C271 132 269 91 269 91 C254 66 213 41 180 38 L180 38 Z " />
<glyph glyph-name="b" unicode="b" horiz-adv-x="553" d="M270 -10 C434 -10 513 126 513 237 C513 394 428 470 321 470 C274 470 199 448 160 381 L158 381 C158 585 163 710 163 710 C105 700 19 700 19 700 L16 671 L79 662 C79 662 84 572 84 337 C84 76 79 8 79 8 L93 8 C118 8 203 -10 270 -10 L270 -10 Z M282 30 C205 30 161 68 161 68 C160 106 158 178 158 281 C158 353 176 378 176 378 C176 378 217 418 304 418 C354 418 436 371 436 232 C436 139 394 72 371 49 C371 49 336 30 282 30 L282 30 Z " />
<glyph glyph-name="c" unicode="c" horiz-adv-x="479" d="M259 -10 C344 -10 410 25 425 35 L425 50 L408 61 C408 61 354 35 275 35 C183 35 116 114 116 228 C116 318 160 387 196 412 C196 412 232 427 286 427 C324 427 362 401 362 401 L379 330 L409 333 C409 333 418 438 422 460 C422 460 364 470 298 470 C139 470 36 369 36 223 C36 77 119 -10 259 -10 L259 -10 Z " />
<glyph glyph-name="d" unicode="d" horiz-adv-x="553" d="M249 -10 C276 -10 351 12 390 79 L392 79 L399 0 L434 0 C487 0 534 -5 534 -5 L540 23 L473 39 C473 39 468 77 468 335 C468 570 473 710 473 710 C417 700 330 700 330 700 L327 671 L390 662 C390 662 393 599 395 450 C370 463 322 470 275 470 C126 470 37 355 37 214 C37 57 142 -10 249 -10 L249 -10 Z M266 42 C216 42 114 80 114 219 C114 318 149 389 171 411 C171 411 207 430 262 430 C300 430 363 408 395 393 L395 272 C395 149 381 102 373 82 C373 82 332 42 266 42 L266 42 Z " />
<glyph glyph-name="e" unicode="e" horiz-adv-x="481" d="M270 -10 C355 -10 409 23 424 33 L424 49 L407 59 C407 59 365 35 286 35 C184 35 117 131 116 244 L415 244 L441 270 C441 383 376 470 255 470 C141 470 36 378 36 232 C36 86 126 -10 270 -10 L270 -10 Z M117 279 C123 352 150 399 170 415 C171 415 199 426 246 426 C306 426 359 378 359 285 L117 279 Z " />
<glyph glyph-name="f" unicode="f" horiz-adv-x="285" d="M234 -5 L240 23 L173 39 C173 39 168 54 168 423 L247 420 L273 446 L273 460 L168 460 L168 525 C168 601 195 642 195 642 C195 642 232 660 241 660 C298 660 369 625 369 625 L385 644 L385 682 C385 682 342 700 300 700 C210 700 95 637 95 516 L95 460 L27 460 L22 427 L95 425 C95 59 90 40 90 40 L35 28 L33 0 L133 0 C187 0 234 -5 234 -5 L234 -5 Z " />
<glyph glyph-name="g" unicode="g" horiz-adv-x="503" d="M215 -230 C339 -230 430 -144 430 -59 C430 12 367 51 305 55 L144 67 C128 68 118 78 118 84 C118 104 141 122 191 136 C201 135 212 134 223 134 C335 134 408 201 408 295 C408 364 372 410 345 422 L345 424 L469 420 L495 447 L495 460 L235 460 C123 460 50 396 50 299 C50 220 84 167 151 147 L151 145 C96 125 48 99 41 87 C41 45 61 14 104 5 C84 -26 25 -82 25 -108 C25 -173 93 -230 215 -230 L215 -230 Z M235 174 C169 174 122 222 122 303 C122 356 138 393 155 407 C155 407 180 420 224 420 C299 420 338 359 338 291 C338 239 321 201 304 187 C304 187 279 174 235 174 L235 174 Z M255 -196 C156 -196 86 -122 86 -90 C86 -71 112 -23 137 1 L279 -12 C320 -15 354 -41 354 -80 C354 -147 305 -196 255 -196 L255 -196 Z " />
<glyph glyph-name="h" unicode="h" horiz-adv-x="560" d="M234 -5 L240 23 L173 39 C173 39 169 68 168 283 C170 350 187 376 187 376 C187 376 228 417 313 417 C363 417 402 387 402 333 C402 63 397 40 397 40 L342 28 L340 0 L444 0 C495 0 541 -5 541 -5 L547 23 L480 39 C480 39 475 65 475 350 C475 407 438 470 331 470 C287 470 210 449 170 380 L168 380 C169 587 173 710 173 710 C120 700 30 700 30 700 L27 671 L90 662 C90 662 95 571 95 336 C95 77 90 40 90 40 L35 28 L33 0 L133 0 C184 0 234 -5 234 -5 L234 -5 Z " />
<glyph glyph-name="i" unicode="i" horiz-adv-x="273" d="M137 546 C163 546 190 567 190 593 C190 619 173 635 147 635 C120 635 94 614 94 588 C94 562 110 546 137 546 L137 546 Z M244 -5 L250 23 L183 39 C183 39 178 85 178 241 C178 354 183 470 183 470 C127 460 40 460 40 460 L37 431 L100 422 C100 422 105 348 105 241 C105 86 100 40 100 40 L45 28 L43 0 L143 0 C197 0 244 -5 244 -5 L244 -5 Z " />
<glyph glyph-name="j" unicode="j" horiz-adv-x="260" d="M137 546 C163 546 190 567 190 593 C190 619 173 635 147 635 C120 635 94 614 94 588 C94 562 110 546 137 546 L137 546 Z M32 -237 C102 -194 181 -91 181 37 C181 37 178 85 178 241 C178 354 183 470 183 470 C127 460 40 460 40 460 L37 431 L100 422 C100 422 105 348 105 241 L105 37 C105 -72 73 -175 19 -219 L32 -237 Z " />
<glyph glyph-name="k" unicode="k" horiz-adv-x="529" d="M234 -5 L240 23 L173 39 C173 39 168 65 168 247 L191 245 L387 0 L430 0 C481 0 523 -5 523 -5 L529 23 L455 41 L284 241 C267 260 251 274 232 274 L232 276 L416 428 L472 437 L475 465 C475 465 430 460 395 460 L318 460 L316 432 L359 427 L191 277 L168 274 L168 337 C168 579 173 710 173 710 C120 700 30 700 30 700 L27 671 L90 662 C90 662 95 572 95 337 C95 76 90 40 90 40 L35 28 L33 0 L133 0 C186 0 234 -5 234 -5 L234 -5 Z " />
<glyph glyph-name="l" unicode="l" horiz-adv-x="273" d="M244 -5 L250 23 L183 39 C183 39 178 71 178 336 C178 572 183 710 183 710 C127 700 40 700 40 700 L37 671 L100 662 C100 662 105 571 105 336 C105 77 100 40 100 40 L45 28 L43 0 L143 0 C197 0 244 -5 244 -5 L244 -5 Z " />
<glyph glyph-name="m" unicode="m" horiz-adv-x="837" d="M234 -5 L240 23 L173 39 C173 39 168 85 168 241 C168 267 169 292 170 316 C175 356 187 376 187 376 C187 376 221 417 305 417 C353 417 386 390 386 337 C386 67 381 40 381 40 L326 28 L324 0 L429 0 C480 0 526 -5 526 -5 L532 23 L465 39 C465 39 460 61 460 294 C461 338 479 376 479 376 C479 376 511 417 596 417 C644 417 678 390 678 337 C678 62 673 40 673 40 L618 28 L616 0 L720 0 C771 0 817 -5 817 -5 L823 23 L756 39 C756 39 751 56 751 354 C751 414 718 470 614 470 C571 470 496 447 458 377 L455 377 C445 426 409 470 323 470 C283 470 213 451 173 388 L171 388 L163 470 C110 460 30 460 30 460 L27 431 L90 422 C90 422 95 348 95 241 C95 86 90 40 90 40 L35 28 L33 0 L133 0 C184 0 234 -5 234 -5 L234 -5 Z " />
<glyph glyph-name="n" unicode="n" horiz-adv-x="560" d="M234 -5 L240 23 L173 39 C173 39 168 85 168 241 C168 267 169 292 170 316 C175 356 187 376 187 376 C187 376 228 417 313 417 C363 417 402 387 402 333 C402 65 397 40 397 40 L342 28 L340 0 L444 0 C495 0 541 -5 541 -5 L547 23 L480 39 C480 39 475 60 475 350 C475 407 438 470 331 470 C288 470 214 450 174 387 L172 387 L163 470 C110 460 30 460 30 460 L27 431 L90 422 C90 422 95 348 95 241 C95 86 90 40 90 40 L35 28 L33 0 L133 0 C184 0 234 -5 234 -5 L234 -5 Z " />
<glyph glyph-name="o" unicode="o" horiz-adv-x="517" d="M250 -10 C398 -10 482 84 482 229 C482 374 414 470 266 470 C120 470 35 376 35 231 C35 86 103 -10 250 -10 L250 -10 Z M265 30 C164 30 114 125 114 241 C114 322 142 390 163 410 C163 410 195 430 251 430 C354 430 403 336 403 219 C403 138 376 70 354 50 C354 50 322 30 265 30 L265 30 Z " />
<glyph glyph-name="p" unicode="p" horiz-adv-x="565" d="M234 -235 L240 -207 L173 -191 C173 -191 170 -167 168 -1 C198 -5 243 -10 280 -10 C444 -10 532 126 532 237 C532 394 438 470 331 470 C287 470 214 450 174 388 L172 388 L163 470 C110 460 30 460 30 460 L27 431 L90 422 C90 422 95 343 95 116 C95 -152 90 -190 90 -190 L35 -202 L33 -230 L133 -230 C187 -230 234 -235 234 -235 L234 -235 Z M293 30 C232 30 186 55 169 64 C169 76 168 93 168 113 C168 256 170 318 172 343 C178 368 187 378 187 378 C187 378 228 418 314 418 C364 418 455 371 455 232 C455 139 411 72 387 49 C387 49 347 30 293 30 L293 30 Z " />
<glyph glyph-name="q" unicode="q" horiz-adv-x="541" d="M532 -235 L538 -207 L471 -191 C471 -191 466 -154 466 123 C466 384 471 452 471 452 L457 452 C432 452 365 470 289 470 C125 470 37 334 37 223 C37 66 122 -10 229 -10 C275 -10 351 12 390 79 L392 79 C392 -162 387 -190 387 -190 L332 -202 L330 -230 L430 -230 C485 -230 532 -235 532 -235 L532 -235 Z M246 42 C196 42 114 89 114 228 C114 321 155 389 179 411 C179 411 223 430 276 430 C351 430 389 391 389 391 C389 354 392 282 392 186 C392 110 373 82 373 82 C373 82 332 42 246 42 L246 42 Z " />
<glyph glyph-name="r" unicode="r" horiz-adv-x="353" d="M234 -5 L240 23 L173 39 C173 39 168 76 168 178 L168 291 C171 339 192 376 192 376 C192 376 220 398 274 398 C308 398 330 381 330 381 L341 464 C341 464 312 470 297 470 C249 470 199 446 171 391 L169 391 L163 470 C109 460 30 460 30 460 L27 431 L90 422 C90 422 95 348 95 241 C95 86 90 40 90 40 L35 28 L33 0 L133 0 C187 0 234 -5 234 -5 L234 -5 Z " />
<glyph glyph-name="s" unicode="s" horiz-adv-x="373" d="M153 -10 C276 -10 339 48 339 129 C339 211 266 249 193 277 C130 302 111 328 111 360 C111 412 146 437 192 437 C231 437 257 415 257 415 L274 341 L304 344 C304 344 313 438 317 460 C317 460 253 470 204 470 C119 470 42 421 42 348 C42 281 76 239 154 207 C224 178 264 145 264 107 C264 52 229 24 172 24 C125 24 90 45 90 45 L73 120 L44 117 C44 117 35 23 31 1 C31 1 87 -10 153 -10 L153 -10 Z " />
<glyph glyph-name="t" unicode="t" horiz-adv-x="363" d="M214 -10 C269 -10 333 23 348 33 L348 48 L331 58 C309 47 264 35 236 34 C197 40 168 72 168 111 L168 423 L296 420 L322 446 L322 460 L168 460 L168 510 L150 524 L23 445 L25 427 L91 425 C92 398 95 325 95 106 C95 28 153 -10 214 -10 L214 -10 Z " />
<glyph glyph-name="u" unicode="u" horiz-adv-x="570" d="M239 -10 C281 -10 359 14 399 77 L401 77 L408 0 L445 0 C498 0 545 -5 545 -5 L551 23 L484 39 C484 39 479 112 479 219 C479 375 484 470 484 470 C427 460 340 460 340 460 L337 431 L400 422 C400 422 405 379 405 223 C405 198 405 172 403 149 C398 108 386 89 386 89 C386 89 342 43 257 43 C207 43 163 76 163 132 C163 390 168 470 168 470 C112 460 25 460 25 460 L22 431 L85 422 C85 422 90 393 90 120 C90 60 131 -10 239 -10 L239 -10 Z " />
<glyph glyph-name="v" unicode="v" horiz-adv-x="515" d="M224 0 L290 0 L464 428 L510 437 L513 465 C513 465 468 460 433 460 L358 460 L356 432 L407 427 L276 67 L274 67 L145 425 L205 432 L207 460 L105 460 C52 460 6 465 6 465 L0 437 L48 426 L224 0 Z " />
<glyph glyph-name="w" unicode="w" horiz-adv-x="807" d="M211 0 L278 0 L405 322 L407 322 L531 0 L597 0 L754 428 L802 437 L805 465 C805 465 760 460 725 460 L649 460 L647 432 L699 427 L582 67 L580 67 L437 460 L405 459 L262 67 L260 67 L144 425 L205 432 L207 460 L105 460 C52 460 6 465 6 465 L0 437 L49 426 L211 0 Z " />
<glyph glyph-name="x" unicode="x" horiz-adv-x="535" d="M16 -5 C16 -5 61 0 96 0 L171 0 L173 28 L123 33 L248 198 L354 35 L314 28 L312 0 L414 0 C468 0 514 -5 514 -5 L520 23 L462 34 L295 254 L445 428 L493 437 L496 465 C496 465 451 460 416 460 L341 460 L339 432 L389 427 L276 279 L180 425 L229 432 L231 460 L130 460 C77 460 31 465 31 465 L25 437 L73 426 L230 223 L66 32 L19 23 L16 -5 Z " />
<glyph glyph-name="y" unicode="y" horiz-adv-x="515" d="M112 -230 C174 -230 217 -188 240 -132 L464 428 L510 437 L513 465 C513 465 468 460 433 460 L358 460 L356 432 L407 427 L276 66 L274 66 L146 425 L205 432 L207 460 L106 460 C53 460 6 465 6 465 L0 437 L48 426 L224 0 L252 0 L210 -114 C192 -163 163 -179 143 -184 C107 -184 64 -166 64 -166 L36 -194 L36 -219 C36 -219 75 -230 112 -230 L112 -230 Z " />
<glyph glyph-name="z" unicode="z" horiz-adv-x="472" d="M75 0 L434 0 C430 22 421 116 421 116 L392 119 L378 40 L148 35 L423 435 L401 460 L49 460 C53 438 62 344 62 344 L91 341 L105 420 L322 428 L48 33 L75 0 Z " />
<glyph glyph-name="braceleft" unicode="{" horiz-adv-x="253" d="M154 -139 L242 -139 L242 -107 L225 -80 C225 -80 188 -94 163 -94 C137 -94 137 -65 137 -43 L137 212 C137 265 94 290 94 290 L94 292 C94 292 137 313 137 364 L137 631 C137 651 137 676 163 676 C188 676 225 662 225 662 L242 689 L242 721 L154 721 C101 721 59 679 59 624 L59 345 C59 321 48 308 7 308 L1 291 L12 274 C47 274 59 256 59 231 L59 -56 C59 -97 85 -139 154 -139 L154 -139 Z " />
<glyph glyph-name="bar" unicode="|" horiz-adv-x="166" d="M63 -52 L108 -52 L108 724 L63 724 L63 -52 Z " />
<glyph glyph-name="braceright" unicode="}" horiz-adv-x="253" d="M8 -139 L97 -139 C166 -139 192 -97 192 -56 L192 231 C192 256 204 274 239 274 L250 291 L244 308 C203 308 192 321 192 345 L192 624 C192 679 150 721 97 721 L8 721 L8 689 L26 662 C26 662 62 676 87 676 C113 676 113 651 113 631 L113 364 C113 313 156 292 156 292 L156 290 C156 290 113 265 113 212 L113 -43 C113 -65 113 -94 87 -94 C62 -94 26 -80 26 -80 L8 -107 L8 -139 Z " />
<glyph glyph-name="asciitilde" unicode="~" horiz-adv-x="509" d="M329 212 C373 212 457 265 476 292 L476 308 L460 317 C443 299 387 272 356 272 C319 272 248 325 170 325 C127 325 42 271 23 244 L23 229 L40 220 C56 238 112 264 143 264 C181 264 252 212 329 212 L329 212 Z " />
<glyph glyph-name="uni00A0" unicode=" " horiz-adv-x="302" d="" />
<glyph glyph-name="exclamdown" unicode="¡" horiz-adv-x="197" d="M92 553 C121 553 150 576 150 604 C150 632 131 650 102 650 C73 650 44 628 44 599 C44 571 62 553 92 553 L92 553 Z M47 -5 L145 5 L126 488 L97 493 L70 466 L47 -5 Z " />
<glyph glyph-name="cent" unicode="¢" horiz-adv-x="549" d="M293 0 L315 0 L315 80 C392 84 451 115 465 125 L465 141 L448 151 C448 151 394 125 315 125 L315 516 C317 516 324 516 329 516 C364 516 403 491 403 491 L420 419 L449 422 C449 422 458 528 462 550 C462 550 405 560 341 560 C332 560 316 559 315 559 L315 640 L293 640 L293 557 C159 539 77 444 77 313 C77 170 157 83 293 80 L293 0 Z M293 127 C213 139 157 214 157 318 C157 408 201 477 236 502 C236 502 257 511 293 514 L293 127 Z " />
<glyph glyph-name="sterling" unicode="£" horiz-adv-x="549" d="M50 -10 C68 9 125 38 154 38 C194 38 299 -10 352 -10 C434 -10 498 49 498 49 L496 67 L480 76 C480 76 455 42 395 42 C360 42 236 95 185 95 C167 95 147 87 142 82 L141 83 C160 102 178 148 192 297 L342 294 L368 319 L368 334 L195 334 L207 472 C212 535 244 574 244 574 C244 574 279 592 322 592 C380 592 429 545 429 545 L446 475 L475 478 C475 478 484 583 488 605 C488 605 402 630 341 630 C259 630 144 566 133 461 L122 334 L58 334 L53 301 L119 299 C101 100 80 67 53 32 L32 16 L32 1 L50 -10 Z " />
<glyph glyph-name="yen" unicode="¥" horiz-adv-x="549" d="M379 -5 L385 23 L318 39 C318 39 314 61 314 134 L314 212 L513 212 L529 229 L529 251 L314 251 L314 292 L352 350 L513 350 L529 367 L529 389 L378 389 L511 590 L545 597 L548 625 C548 625 515 622 479 622 L407 622 L405 594 L453 589 L291 323 L289 323 L139 587 L189 594 L191 622 L91 622 C36 622 6 625 6 625 L0 597 L32 588 L162 389 L44 389 L28 372 L28 350 L188 350 L236 277 L236 251 L44 251 L28 234 L28 212 L236 212 L236 134 C236 66 231 40 231 40 L176 28 L174 0 L275 0 C329 0 379 -5 379 -5 L379 -5 Z " />
<glyph glyph-name="brokenbar" unicode="¦" horiz-adv-x="166" d="M63 416 L108 416 L108 724 L63 724 L63 416 Z M63 -52 L108 -52 L108 256 L63 256 L63 -52 Z " />
<glyph glyph-name="section" unicode="§" horiz-adv-x="389" d="M152 -10 C267 -10 329 45 329 121 C329 169 299 197 263 220 L263 222 C311 245 340 283 340 331 C340 409 268 444 199 471 C139 493 122 516 122 546 C122 595 155 619 197 619 C235 619 260 598 260 598 L276 528 L304 531 C304 531 312 620 315 640 C315 640 256 650 210 650 C130 650 55 603 55 536 C55 483 81 452 126 424 L126 422 C81 404 45 370 45 325 C45 261 80 222 152 192 C219 164 256 136 256 100 C256 49 223 21 170 21 C126 21 93 43 93 43 L77 113 L49 110 C49 110 41 21 37 0 C37 0 90 -10 152 -10 L152 -10 Z M224 241 C211 247 200 252 188 256 C129 280 113 305 113 336 C113 375 136 398 167 404 C231 377 266 345 266 311 C266 277 250 251 224 241 L224 241 Z " />
<glyph glyph-name="dieresis" unicode="¨" horiz-adv-x="517" d="M335 546 C362 546 389 567 389 593 C389 619 372 635 346 635 C319 635 292 614 292 588 C292 562 309 546 335 546 L335 546 Z M175 546 C202 546 228 567 228 593 C228 619 211 635 185 635 C158 635 131 614 131 588 C131 562 148 546 175 546 L175 546 Z " />
<glyph glyph-name="copyright" unicode="©" horiz-adv-x="718" d="M348 -10 C549 -10 683 121 683 320 C683 515 569 650 368 650 C167 650 35 521 35 322 C35 125 147 -10 348 -10 L348 -10 Z M348 12 C160 12 57 138 57 322 C57 508 180 628 368 628 C556 628 661 502 661 320 C661 134 536 12 348 12 L348 12 Z M355 103 C441 103 520 144 520 144 L520 159 L504 169 C504 169 459 143 374 143 C281 143 209 213 209 330 C209 414 246 464 277 489 C277 489 315 502 366 502 C417 502 462 478 462 478 L474 431 L500 434 C500 434 506 503 511 524 C511 524 433 537 379 537 C243 537 147 453 147 321 C147 190 218 103 355 103 L355 103 Z " />
<glyph glyph-name="ordfeminine" unicode="ª" horiz-adv-x="306" d="M117 314 C135 314 168 341 186 358 L188 358 L191 321 L225 321 C262 321 293 318 293 318 L297 337 L250 348 C250 348 247 360 247 573 C247 617 210 650 157 650 C99 650 50 615 50 615 L50 601 L59 592 C59 592 100 608 131 608 C173 608 189 583 189 555 L189 500 L119 481 C64 466 28 435 22 413 C22 358 48 314 117 314 L117 314 Z M33 225 L247 225 L263 252 L263 267 L49 267 L33 241 L33 225 Z M133 350 C104 356 82 378 82 411 C82 433 99 447 132 456 L189 472 C189 409 188 389 188 389 C176 370 156 352 133 350 L133 350 Z " />
<glyph glyph-name="guillemotleft" unicode="«" horiz-adv-x="343" d="M288 55 L303 60 L307 77 L212 226 L307 375 L303 392 L288 397 L146 245 L146 207 L288 55 Z M169 55 L183 60 L187 77 L92 226 L187 375 L183 392 L169 397 L27 245 L27 207 L169 55 Z " />
<glyph glyph-name="logicalnot" unicode="¬" horiz-adv-x="549" d="M394 114 L458 119 L458 343 L85 343 L69 317 L69 291 L404 291 L394 114 Z " />
<glyph glyph-name="registered" unicode="®" horiz-adv-x="718" d="M348 -10 C549 -10 683 121 683 320 C683 515 569 650 368 650 C167 650 35 521 35 322 C35 125 147 -10 348 -10 L348 -10 Z M348 12 C160 12 57 138 57 322 C57 508 180 628 368 628 C556 628 661 502 661 320 C661 134 536 12 348 12 L348 12 Z M316 108 L323 135 L279 145 C279 145 275 194 275 333 C275 452 278 488 279 499 C288 501 311 505 342 505 C403 505 431 465 431 422 C431 367 399 346 399 346 C399 346 379 335 347 335 C313 335 300 339 300 339 L290 325 L290 305 L316 301 L470 111 L506 111 C539 111 569 108 569 108 C570 112 576 135 576 135 C571 136 525 148 525 148 L407 285 C398 297 382 307 373 307 L373 309 C429 316 490 351 490 435 C490 493 439 539 355 539 C329 539 274 532 246 532 C220 532 178 537 178 537 L171 511 C171 511 206 502 216 499 C217 488 219 454 219 333 C219 196 216 146 216 146 L181 139 L179 111 L247 111 C279 111 316 108 316 108 L316 108 Z " />
<glyph glyph-name="macron" unicode="¯" horiz-adv-x="510" d="M152 538 L334 538 L350 564 L350 579 L168 579 L152 553 L152 538 Z " />
<glyph glyph-name="degree" unicode="°" horiz-adv-x="417" d="M205 323 C296 323 354 380 354 471 C354 562 305 621 215 621 C124 621 65 565 65 473 C65 382 114 323 205 323 L205 323 Z M213 355 C154 355 127 413 127 479 C127 526 144 568 155 578 C155 578 174 589 205 589 C265 589 292 531 292 465 C292 418 275 377 263 366 C263 366 245 355 213 355 L213 355 Z " />
<glyph glyph-name="plusminus" unicode="±" horiz-adv-x="549" d="M250 184 L313 189 L308 353 L478 353 L494 383 L494 405 L308 405 L313 581 L250 576 L255 405 L85 405 L69 375 L69 353 L255 353 L250 184 Z M69 88 L478 88 L494 118 L494 140 L85 140 L69 110 L69 88 Z " />
<glyph glyph-name="twosuperior" unicode="²" horiz-adv-x="385" d="M34 198 L349 198 L356 252 L332 263 L304 256 L107 251 L107 253 L224 350 C310 421 345 464 345 529 C345 616 271 650 203 650 C117 650 45 587 45 587 L45 571 L65 557 C65 557 116 601 189 601 C244 601 277 568 277 525 C277 477 255 447 168 365 L14 223 L34 198 Z " />
<glyph glyph-name="threesuperior" unicode="³" horiz-adv-x="385" d="M123 184 C233 184 341 246 341 367 C341 432 278 464 247 473 L247 475 C278 498 308 530 308 561 C308 626 248 650 191 650 C117 650 53 604 53 604 L51 588 L71 575 C71 575 113 601 175 601 C213 601 240 586 240 555 C240 509 211 488 161 467 L88 436 L87 420 L104 409 L183 435 C219 434 274 409 274 351 C274 279 221 239 212 233 C206 231 170 223 130 223 C83 223 45 242 45 242 L23 217 L23 196 C23 196 62 184 123 184 L123 184 Z " />
<glyph glyph-name="acute" unicode="´" horiz-adv-x="512" d="M200 510 L315 620 L294 651 L259 654 L177 522 L200 510 Z " />
<glyph glyph-name="mu" unicode="µ" horiz-adv-x="570" d="M17 -237 C81 -197 155 -102 165 10 L167 10 C179 -1 205 -10 239 -10 C281 -10 359 14 399 77 L401 77 L408 0 L445 0 C498 0 545 -5 545 -5 L551 23 L484 39 C484 39 479 112 479 219 C479 375 484 470 484 470 C427 460 340 460 340 460 L337 431 L400 422 C400 422 405 379 405 223 C405 198 405 172 403 149 C398 108 386 89 386 89 C386 89 342 43 257 43 C207 43 163 76 163 132 C163 390 168 470 168 470 C112 460 25 460 25 460 L22 431 L85 422 C85 422 90 393 90 120 L90 37 C90 -72 58 -175 4 -219 L17 -237 Z " />
<glyph glyph-name="paragraph" unicode="¶" horiz-adv-x="521" d="M204 -156 L291 -156 C291 -156 286 69 286 337 C286 517 289 587 290 609 C326 606 349 600 349 600 C349 600 354 566 354 337 C354 69 349 -156 349 -156 L437 -156 C437 -156 432 76 432 337 C432 570 437 601 437 601 L504 617 L498 645 C498 645 438 640 399 640 C353 640 253 650 213 650 C88 650 15 582 15 495 C15 359 108 303 209 292 C209 63 204 -156 204 -156 L204 -156 Z " />
<glyph glyph-name="periodcentered" unicode="·" horiz-adv-x="171" d="M80 217 C109 217 137 239 137 268 C137 296 119 315 90 315 C60 315 32 292 32 264 C32 235 50 217 80 217 L80 217 Z " />
<glyph glyph-name="cedilla" unicode="¸" horiz-adv-x="475" d="M170 -172 L268 -32 L244 -23 L112 -132 L135 -168 L170 -172 Z " />
<glyph glyph-name="onesuperior" unicode="¹" horiz-adv-x="385" d="M307 193 L312 224 L243 235 C241 245 239 287 239 431 C239 594 244 652 244 652 C201 641 88 628 88 628 L94 596 L170 597 C171 584 174 542 174 431 C174 289 171 247 170 236 L112 227 L108 197 L208 197 C244 197 307 193 307 193 L307 193 Z " />
<glyph glyph-name="ordmasculine" unicode="º" horiz-adv-x="360" d="M175 314 C278 314 335 380 335 481 C335 583 289 650 186 650 C83 650 24 584 24 483 C24 381 72 314 175 314 L175 314 Z M63 225 L277 225 L293 252 L293 267 L79 267 L63 241 L63 225 Z M185 346 C112 346 86 410 86 490 C86 546 106 594 122 608 C122 608 145 618 176 618 C249 618 273 554 273 474 C273 418 253 370 239 356 C239 356 220 346 185 346 L185 346 Z " />
<glyph glyph-name="guillemotright" unicode="»" horiz-adv-x="343" d="M175 55 L317 207 L317 245 L175 397 L160 392 L156 375 L251 226 L156 77 L160 60 L175 55 Z M55 55 L197 207 L197 245 L55 397 L41 392 L37 375 L132 226 L37 77 L41 60 L55 55 Z " />
<glyph glyph-name="onequarter" unicode="¼" horiz-adv-x="832" d="M301 193 L306 224 L237 235 C235 245 233 287 233 431 C233 594 238 652 238 652 C195 641 82 628 82 628 L88 596 L164 597 C165 584 168 542 168 431 C168 289 165 247 164 236 L106 227 L102 197 L200 197 C236 197 301 193 301 193 L301 193 Z M205 0 L231 0 L693 628 L683 640 L646 640 L193 16 L205 0 Z M689 -9 L710 0 C710 0 705 45 705 117 L795 117 L807 145 L798 161 L705 158 L705 272 C705 418 708 442 708 442 L664 455 L434 147 L449 117 L641 117 C641 45 638 -1 638 -1 L689 -9 Z M489 156 L644 360 L640 364 C640 364 641 343 641 264 L641 158 L489 156 Z " />
<glyph glyph-name="onehalf" unicode="½" horiz-adv-x="909" d="M301 193 L306 224 L237 235 C235 245 233 287 233 431 C233 594 238 652 238 652 C195 641 82 628 82 628 L88 596 L164 597 C165 584 168 542 168 431 C168 289 165 247 164 236 L106 227 L102 197 L200 197 C236 197 301 193 301 193 L301 193 Z M205 0 L231 0 L693 628 L683 640 L646 640 L193 16 L205 0 Z M539 0 L855 0 L861 54 L838 65 L809 58 L612 53 L612 55 L730 152 C815 223 850 267 850 332 C850 418 777 452 708 452 C622 452 551 390 551 390 L550 373 L571 360 C571 360 622 403 694 403 C750 403 783 370 783 327 C783 279 761 249 674 168 L520 25 L539 0 Z " />
<glyph glyph-name="threequarters" unicode="¾" horiz-adv-x="834" d="M123 184 C233 184 341 246 341 367 C341 432 278 464 247 473 L247 475 C278 498 308 530 308 561 C308 626 248 650 191 650 C117 650 53 604 53 604 L51 588 L71 575 C71 575 113 601 175 601 C213 601 240 586 240 555 C240 509 211 488 161 467 L88 436 L87 420 L104 409 L183 435 C219 434 274 409 274 351 C274 279 221 239 212 233 C206 231 170 223 130 223 C83 223 45 242 45 242 L23 217 L23 196 C23 196 62 184 123 184 L123 184 Z M207 0 L233 0 L696 628 L685 640 L648 640 L195 16 L207 0 Z M692 -9 L712 0 C712 0 707 45 707 117 L798 117 L809 145 L800 161 L707 158 L707 272 C707 418 710 442 710 442 L667 455 L436 147 L451 117 L643 117 C643 45 640 -1 640 -1 L692 -9 Z M492 156 L647 360 L642 364 C642 364 643 343 643 264 L643 158 L492 156 Z " />
<glyph glyph-name="questiondown" unicode="¿" horiz-adv-x="249" d="M137 553 C167 553 195 576 195 604 C195 632 177 650 148 650 C119 650 90 628 90 599 C90 571 108 553 137 553 L137 553 Z M181 -5 L224 2 L245 50 C196 68 79 143 79 254 C79 306 198 380 198 422 C198 445 156 500 156 500 L124 500 L94 465 C114 446 145 400 147 388 C134 363 12 258 12 200 C12 121 123 18 181 -5 L181 -5 Z " />
<glyph glyph-name="Agrave" unicode="À" horiz-adv-x="672" d="M320 693 L344 705 L261 837 L226 834 L206 802 L320 693 Z M3 -5 C3 -5 49 0 85 0 L157 0 L159 28 L110 33 L177 204 L455 204 L520 35 L460 28 L458 0 L559 0 C614 0 661 -5 661 -5 L667 23 L617 34 L367 640 L305 640 L53 32 L6 23 L3 -5 Z M193 246 L316 561 L318 561 L439 246 L193 246 Z " />
<glyph glyph-name="Aacute" unicode="Á" horiz-adv-x="672" d="M364 693 L479 802 L458 834 L423 837 L341 705 L364 693 Z M3 -5 C3 -5 49 0 85 0 L157 0 L159 28 L110 33 L177 204 L455 204 L520 35 L460 28 L458 0 L559 0 C614 0 661 -5 661 -5 L667 23 L617 34 L367 640 L305 640 L53 32 L6 23 L3 -5 Z M193 246 L316 561 L318 561 L439 246 L193 246 Z " />
<glyph glyph-name="Acircumflex" unicode="Â" horiz-adv-x="672" d="M249 689 L338 779 L427 689 L451 701 L359 832 L316 832 L224 701 L249 689 Z M3 -5 C3 -5 49 0 85 0 L157 0 L159 28 L110 33 L177 204 L455 204 L520 35 L460 28 L458 0 L559 0 C614 0 661 -5 661 -5 L667 23 L617 34 L367 640 L305 640 L53 32 L6 23 L3 -5 Z M193 246 L316 561 L318 561 L439 246 L193 246 Z " />
<glyph glyph-name="Atilde" unicode="Ã" horiz-adv-x="672" d="M394 690 C429 690 493 743 509 771 L506 785 L490 790 C477 771 454 748 420 748 C379 748 342 799 294 799 C259 799 194 741 180 718 L183 703 L200 699 C212 716 239 742 270 742 C309 742 349 690 394 690 L394 690 Z M3 -5 C3 -5 49 0 85 0 L157 0 L159 28 L110 33 L177 204 L455 204 L520 35 L460 28 L458 0 L559 0 C614 0 661 -5 661 -5 L667 23 L617 34 L367 640 L305 640 L53 32 L6 23 L3 -5 Z M193 246 L316 561 L318 561 L439 246 L193 246 Z " />
<glyph glyph-name="Adieresis" unicode="Ä" horiz-adv-x="672" d="M413 699 C440 699 467 719 467 745 C467 770 450 787 424 787 C397 787 370 766 370 741 C370 715 387 699 413 699 L413 699 Z M253 699 C280 699 306 719 306 745 C306 770 290 787 264 787 C236 787 210 766 210 741 C210 715 226 699 253 699 L253 699 Z M3 -5 C3 -5 49 0 85 0 L157 0 L159 28 L110 33 L177 204 L455 204 L520 35 L460 28 L458 0 L559 0 C614 0 661 -5 661 -5 L667 23 L617 34 L367 640 L305 640 L53 32 L6 23 L3 -5 Z M193 246 L316 561 L318 561 L439 246 L193 246 Z " />
<glyph glyph-name="Aring" unicode="Å" horiz-adv-x="672" d="M3 -5 C3 -5 49 0 85 0 L157 0 L159 28 L110 33 L177 204 L455 204 L520 35 L460 28 L458 0 L559 0 C614 0 661 -5 661 -5 L667 23 L617 34 L371 629 C403 642 429 672 429 707 C429 759 389 786 341 786 C294 786 246 748 246 699 C246 661 268 635 300 626 L53 32 L6 23 L3 -5 Z M336 648 C312 648 292 678 292 701 C292 738 309 759 338 759 C361 759 383 729 383 705 C383 669 365 648 336 648 L336 648 Z M193 246 L316 561 L318 561 L439 246 L193 246 Z " />
<glyph glyph-name="AE" unicode="Æ" horiz-adv-x="837" d="M3 -5 C3 -5 47 0 83 0 L156 0 L158 28 L108 33 L240 311 L369 311 C369 60 364 40 364 40 L309 28 L307 0 L788 0 C788 26 805 139 805 139 L776 142 L742 45 L458 38 L451 40 C451 40 446 70 446 311 L670 308 L692 219 L721 222 C721 222 714 285 714 332 C714 379 721 428 721 428 L692 431 L670 352 L446 348 C446 566 451 599 451 599 L462 601 L729 595 L733 498 L762 501 L785 640 L402 640 C361 640 301 645 301 645 L295 617 L343 605 L52 32 L6 23 L3 -5 Z M256 348 L364 571 L366 571 C366 571 369 513 369 381 L369 348 L256 348 Z " />
<glyph glyph-name="Ccedilla" unicode="Ç" horiz-adv-x="642" d="M349 -10 C480 -10 582 42 597 52 L597 67 L580 78 C580 78 513 40 379 40 C232 40 118 151 118 336 C118 470 179 542 229 583 C229 583 289 610 368 610 C456 610 520 570 520 570 L537 500 L566 503 C566 503 575 608 579 630 C579 630 474 650 387 650 C178 650 34 523 34 322 C34 121 140 -10 349 -10 L349 -10 Z M262 -176 L359 -37 L335 -27 L203 -136 L226 -173 L262 -176 Z " />
<glyph glyph-name="Egrave" unicode="È" horiz-adv-x="577" d="M355 693 L378 705 L296 837 L260 834 L240 802 L355 693 Z M43 0 L522 0 C522 26 539 139 539 139 L510 142 L476 45 L194 38 L187 40 C187 40 182 70 182 311 L404 308 L426 220 L455 223 C455 223 448 285 448 332 C448 379 455 427 455 427 L426 430 L404 352 L182 348 C182 566 187 599 187 599 L198 601 L463 595 L467 498 L496 501 L519 640 L143 640 C98 640 39 645 39 645 L33 617 L100 601 C100 601 105 570 105 337 C105 80 100 40 100 40 L45 28 L43 0 Z " />
<glyph glyph-name="Eacute" unicode="É" horiz-adv-x="577" d="M284 693 L399 802 L378 834 L343 837 L261 705 L284 693 Z M43 0 L522 0 C522 26 539 139 539 139 L510 142 L476 45 L194 38 L187 40 C187 40 182 70 182 311 L404 308 L426 220 L455 223 C455 223 448 285 448 332 C448 379 455 427 455 427 L426 430 L404 352 L182 348 C182 566 187 599 187 599 L198 601 L463 595 L467 498 L496 501 L519 640 L143 640 C98 640 39 645 39 645 L33 617 L100 601 C100 601 105 570 105 337 C105 80 100 40 100 40 L45 28 L43 0 Z " />
<glyph glyph-name="Ecircumflex" unicode="Ê" horiz-adv-x="577" d="M206 689 L295 779 L384 689 L408 701 L316 832 L273 832 L181 701 L206 689 Z M43 0 L522 0 C522 26 539 139 539 139 L510 142 L476 45 L194 38 L187 40 C187 40 182 70 182 311 L404 308 L426 220 L455 223 C455 223 448 285 448 332 C448 379 455 427 455 427 L426 430 L404 352 L182 348 C182 566 187 599 187 599 L198 601 L463 595 L467 498 L496 501 L519 640 L143 640 C98 640 39 645 39 645 L33 617 L100 601 C100 601 105 570 105 337 C105 80 100 40 100 40 L45 28 L43 0 Z " />
<glyph glyph-name="Edieresis" unicode="Ë" horiz-adv-x="577" d="M378 699 C405 699 431 719 431 745 C431 770 415 787 389 787 C362 787 335 766 335 741 C335 715 351 699 378 699 L378 699 Z M218 699 C244 699 271 719 271 745 C271 770 255 787 228 787 C202 787 175 766 175 741 C175 715 192 699 218 699 L218 699 Z M43 0 L522 0 C522 26 539 139 539 139 L510 142 L476 45 L194 38 L187 40 C187 40 182 70 182 311 L404 308 L426 220 L455 223 C455 223 448 285 448 332 C448 379 455 427 455 427 L426 430 L404 352 L182 348 C182 566 187 599 187 599 L198 601 L463 595 L467 498 L496 501 L519 640 L143 640 C98 640 39 645 39 645 L33 617 L100 601 C100 601 105 570 105 337 C105 80 100 40 100 40 L45 28 L43 0 Z " />
<glyph glyph-name="Igrave" unicode="Ì" horiz-adv-x="277" d="M196 693 L219 705 L136 837 L101 834 L81 802 L196 693 Z M248 -5 L254 23 L187 39 C187 39 182 71 182 337 C182 567 187 600 187 600 L242 612 L244 640 L143 640 C89 640 39 645 39 645 L33 617 L100 601 C100 601 105 571 105 337 C105 77 100 40 100 40 L45 28 L43 0 L145 0 C198 0 248 -5 248 -5 L248 -5 Z " />
<glyph glyph-name="Iacute" unicode="Í" horiz-adv-x="277" d="M109 693 L224 802 L204 834 L168 837 L86 705 L109 693 Z M248 -5 L254 23 L187 39 C187 39 182 71 182 337 C182 567 187 600 187 600 L242 612 L244 640 L143 640 C89 640 39 645 39 645 L33 617 L100 601 C100 601 105 571 105 337 C105 77 100 40 100 40 L45 28 L43 0 L145 0 C198 0 248 -5 248 -5 L248 -5 Z " />
<glyph glyph-name="Icircumflex" unicode="Î" horiz-adv-x="277" d="M57 689 L146 779 L235 689 L259 701 L167 832 L124 832 L32 701 L57 689 Z M248 -5 L254 23 L187 39 C187 39 182 71 182 337 C182 567 187 600 187 600 L242 612 L244 640 L143 640 C89 640 39 645 39 645 L33 617 L100 601 C100 601 105 571 105 337 C105 77 100 40 100 40 L45 28 L43 0 L145 0 C198 0 248 -5 248 -5 L248 -5 Z " />
<glyph glyph-name="Idieresis" unicode="Ï" horiz-adv-x="277" d="M223 699 C250 699 277 719 277 745 C277 770 260 787 234 787 C207 787 180 766 180 741 C180 715 197 699 223 699 L223 699 Z M63 699 C90 699 117 719 117 745 C117 770 100 787 74 787 C47 787 20 766 20 741 C20 715 37 699 63 699 L63 699 Z M248 -5 L254 23 L187 39 C187 39 182 71 182 337 C182 567 187 600 187 600 L242 612 L244 640 L143 640 C89 640 39 645 39 645 L33 617 L100 601 C100 601 105 571 105 337 C105 77 100 40 100 40 L45 28 L43 0 L145 0 C198 0 248 -5 248 -5 L248 -5 Z " />
<glyph glyph-name="Eth" unicode="Ð" horiz-adv-x="692" d="M327 -10 C530 -10 657 129 657 330 C657 529 551 650 347 650 C280 650 163 640 143 640 C91 640 39 645 39 645 L33 617 L100 601 C100 601 105 570 105 343 L24 343 L8 315 L8 300 L105 300 C105 74 100 40 100 40 L45 28 L43 0 C43 0 104 0 143 0 C183 0 276 -10 327 -10 L327 -10 Z M346 30 C291 30 194 43 194 43 L187 50 C187 50 182 77 182 300 L289 300 L305 328 L305 343 L182 343 C182 574 187 595 187 595 L198 601 C198 601 269 610 325 610 C469 610 573 494 573 316 C573 182 520 96 472 57 C472 57 426 30 346 30 L346 30 Z " />
<glyph glyph-name="Ntilde" unicode="Ñ" horiz-adv-x="694" d="M404 690 C439 690 503 743 519 771 L515 785 L500 790 C486 771 464 748 430 748 C389 748 352 799 304 799 C268 799 204 741 190 718 L193 703 L210 699 C222 716 249 742 280 742 C318 742 359 690 404 690 L404 690 Z M543 -14 L609 0 C609 0 604 31 604 107 L604 337 C604 567 609 600 609 600 L664 612 L666 640 L582 640 C544 640 496 645 496 645 L490 617 L557 601 C557 601 562 572 562 337 C562 231 560 101 560 101 L558 101 L179 640 L124 640 C75 640 39 645 39 645 L33 617 L100 601 C100 601 105 572 105 337 C105 76 100 40 100 40 L45 28 L43 0 L126 0 C170 0 212 -5 212 -5 L218 23 L151 39 C151 39 146 71 146 337 L146 540 L148 540 L543 -14 Z " />
<glyph glyph-name="Ograve" unicode="Ò" horiz-adv-x="723" d="M420 693 L444 705 L361 837 L326 834 L306 802 L420 693 Z M350 -10 C553 -10 688 121 688 320 C688 517 574 650 371 650 C168 650 35 521 35 322 C35 123 146 -10 350 -10 L350 -10 Z M369 30 C228 30 118 158 118 336 C118 471 174 547 219 583 C219 583 272 610 351 610 C493 610 604 482 604 306 C604 173 537 94 492 57 C492 57 448 30 369 30 L369 30 Z " />
<glyph glyph-name="Oacute" unicode="Ó" horiz-adv-x="723" d="M293 693 L407 802 L387 834 L352 837 L270 705 L293 693 Z M350 -10 C553 -10 688 121 688 320 C688 517 574 650 371 650 C168 650 35 521 35 322 C35 123 146 -10 350 -10 L350 -10 Z M369 30 C228 30 118 158 118 336 C118 471 174 547 219 583 C219 583 272 610 351 610 C493 610 604 482 604 306 C604 173 537 94 492 57 C492 57 448 30 369 30 L369 30 Z " />
<glyph glyph-name="Ocircumflex" unicode="Ô" horiz-adv-x="723" d="M277 689 L366 779 L455 689 L480 701 L388 832 L345 832 L253 701 L277 689 Z M350 -10 C553 -10 688 121 688 320 C688 517 574 650 371 650 C168 650 35 521 35 322 C35 123 146 -10 350 -10 L350 -10 Z M369 30 C228 30 118 158 118 336 C118 471 174 547 219 583 C219 583 272 610 351 610 C493 610 604 482 604 306 C604 173 537 94 492 57 C492 57 448 30 369 30 L369 30 Z " />
<glyph glyph-name="Otilde" unicode="Õ" horiz-adv-x="723" d="M424 690 C459 690 523 743 539 771 L535 785 L520 790 C506 771 484 748 450 748 C409 748 372 799 324 799 C288 799 224 741 210 718 L213 703 L230 699 C242 716 269 742 300 742 C338 742 379 690 424 690 L424 690 Z M350 -10 C553 -10 688 121 688 320 C688 517 574 650 371 650 C168 650 35 521 35 322 C35 123 146 -10 350 -10 L350 -10 Z M369 30 C228 30 118 158 118 336 C118 471 174 547 219 583 C219 583 272 610 351 610 C493 610 604 482 604 306 C604 173 537 94 492 57 C492 57 448 30 369 30 L369 30 Z " />
<glyph glyph-name="Odieresis" unicode="Ö" horiz-adv-x="723" d="M435 699 C461 699 488 719 488 745 C488 770 472 787 445 787 C419 787 392 766 392 741 C392 715 409 699 435 699 L435 699 Z M274 699 C301 699 328 719 328 745 C328 770 312 787 285 787 C258 787 232 766 232 741 C232 715 248 699 274 699 L274 699 Z M350 -10 C553 -10 688 121 688 320 C688 517 574 650 371 650 C168 650 35 521 35 322 C35 123 146 -10 350 -10 L350 -10 Z M369 30 C228 30 118 158 118 336 C118 471 174 547 219 583 C219 583 272 610 351 610 C493 610 604 482 604 306 C604 173 537 94 492 57 C492 57 448 30 369 30 L369 30 Z " />
<glyph glyph-name="multiply" unicode="×" horiz-adv-x="549" d="M151 145 L282 277 L402 156 L433 161 L451 183 L319 314 L440 434 L435 466 L413 483 L282 351 L161 472 L129 466 L112 445 L244 314 L123 194 L131 160 L151 145 Z " />
<glyph glyph-name="Oslash" unicode="Ø" horiz-adv-x="723" d="M46 -9 L81 -10 L143 56 C194 13 264 -10 350 -10 C553 -10 688 121 688 320 C688 415 660 496 611 553 L688 635 L677 649 L632 650 L574 588 C522 627 455 650 371 650 C168 650 35 521 35 322 C35 226 60 146 109 88 L35 9 L46 -9 Z M167 151 C137 201 118 264 118 336 C118 471 174 547 219 583 C219 583 272 610 351 610 C418 610 478 582 523 533 L167 151 Z M369 30 C302 30 241 61 196 111 L553 492 C585 442 604 378 604 306 C604 173 537 94 492 57 C492 57 448 30 369 30 L369 30 Z " />
<glyph glyph-name="Ugrave" unicode="Ù" horiz-adv-x="673" d="M399 693 L422 705 L340 837 L305 834 L285 802 L399 693 Z M344 -10 C530 -10 595 96 595 294 L595 337 C595 470 602 600 602 600 L652 612 L654 640 L567 640 C528 640 481 645 481 645 L475 617 L539 601 C539 601 545 454 545 337 L545 298 C545 145 504 74 491 62 C491 62 431 37 364 37 C237 37 172 115 172 294 L172 337 C172 570 177 600 177 600 L232 612 L234 640 L133 640 C79 640 29 645 29 645 L23 617 L90 601 C90 601 95 577 95 337 L95 294 C95 118 142 -10 344 -10 L344 -10 Z " />
<glyph glyph-name="Uacute" unicode="Ú" horiz-adv-x="673" d="M312 693 L426 802 L406 834 L370 837 L289 705 L312 693 Z M344 -10 C530 -10 595 96 595 294 L595 337 C595 470 602 600 602 600 L652 612 L654 640 L567 640 C528 640 481 645 481 645 L475 617 L539 601 C539 601 545 454 545 337 L545 298 C545 145 504 74 491 62 C491 62 431 37 364 37 C237 37 172 115 172 294 L172 337 C172 570 177 600 177 600 L232 612 L234 640 L133 640 C79 640 29 645 29 645 L23 617 L90 601 C90 601 95 577 95 337 L95 294 C95 118 142 -10 344 -10 L344 -10 Z " />
<glyph glyph-name="Ucircumflex" unicode="Û" horiz-adv-x="673" d="M247 689 L336 779 L425 689 L450 701 L358 832 L315 832 L223 701 L247 689 Z M344 -10 C530 -10 595 96 595 294 L595 337 C595 470 602 600 602 600 L652 612 L654 640 L567 640 C528 640 481 645 481 645 L475 617 L539 601 C539 601 545 454 545 337 L545 298 C545 145 504 74 491 62 C491 62 431 37 364 37 C237 37 172 115 172 294 L172 337 C172 570 177 600 177 600 L232 612 L234 640 L133 640 C79 640 29 645 29 645 L23 617 L90 601 C90 601 95 577 95 337 L95 294 C95 118 142 -10 344 -10 L344 -10 Z " />
<glyph glyph-name="Udieresis" unicode="Ü" horiz-adv-x="673" d="M428 699 C455 699 481 719 481 745 C481 770 464 787 438 787 C411 787 384 766 384 741 C384 715 401 699 428 699 L428 699 Z M267 699 C294 699 321 719 321 745 C321 770 305 787 278 787 C251 787 225 766 225 741 C225 715 241 699 267 699 L267 699 Z M344 -10 C530 -10 595 96 595 294 L595 337 C595 470 602 600 602 600 L652 612 L654 640 L567 640 C528 640 481 645 481 645 L475 617 L539 601 C539 601 545 454 545 337 L545 298 C545 145 504 74 491 62 C491 62 431 37 364 37 C237 37 172 115 172 294 L172 337 C172 570 177 600 177 600 L232 612 L234 640 L133 640 C79 640 29 645 29 645 L23 617 L90 601 C90 601 95 577 95 337 L95 294 C95 118 142 -10 344 -10 L344 -10 Z " />
<glyph glyph-name="Yacute" unicode="Ý" horiz-adv-x="610" d="M294 693 L409 802 L388 834 L353 837 L271 705 L294 693 Z M409 -5 L415 23 L348 39 C348 39 344 59 344 238 L344 309 L553 608 L600 617 L603 645 C603 645 557 640 521 640 L449 640 L447 612 L495 607 L322 340 L320 340 L159 605 L209 612 L211 640 L112 640 C57 640 10 645 10 645 L4 617 L52 606 L266 293 L266 238 C266 66 261 40 261 40 L206 28 L204 0 L306 0 C360 0 409 -5 409 -5 L409 -5 Z " />
<glyph glyph-name="Thorn" unicode="Þ" horiz-adv-x="524" d="M248 -5 L254 23 L187 39 C187 39 182 65 182 235 C182 400 185 470 185 470 C185 470 232 481 290 481 C389 481 431 417 431 347 C431 257 382 217 382 217 C382 217 350 200 299 200 C247 200 224 211 224 211 L204 192 L204 169 C204 169 238 160 274 160 C391 160 515 210 515 367 C515 455 440 522 317 522 C285 522 231 517 185 514 C185 549 188 600 188 600 L243 612 L245 640 L143 640 C89 640 39 645 39 645 L33 617 L100 601 C100 601 105 539 105 397 L105 235 C105 159 100 40 100 40 L45 28 L43 0 L145 0 C198 0 248 -5 248 -5 L248 -5 Z " />
<glyph glyph-name="germandbls" unicode="ß" horiz-adv-x="544" d="M336 -10 C458 -10 522 48 522 129 C522 211 449 249 376 277 C313 302 294 328 294 360 C294 437 451 480 451 556 C451 668 360 700 303 700 C210 700 95 637 95 516 L95 460 L27 460 L22 427 L95 425 C95 59 90 40 90 40 L35 28 L33 0 L173 0 C173 0 168 133 168 223 L168 525 C168 601 195 642 195 642 C195 642 226 660 267 660 C340 660 374 600 374 535 C374 471 225 402 225 348 C225 281 259 239 337 207 C407 178 447 145 447 107 C447 52 412 24 355 24 C308 24 273 45 273 45 L256 120 L227 117 C227 117 218 23 214 1 C214 1 270 -10 336 -10 L336 -10 Z " />
<glyph glyph-name="agrave" unicode="à" horiz-adv-x="429" d="M256 510 L280 522 L197 654 L162 651 L142 620 L256 510 Z M168 -10 C194 -10 241 28 267 53 L269 53 L274 0 L310 0 C363 0 410 -5 410 -5 L416 23 L349 39 C349 39 344 57 344 358 C344 423 302 470 227 470 C140 470 72 421 72 421 L72 406 L85 391 C85 391 143 414 190 414 C250 414 271 379 271 339 L271 257 L160 230 C77 209 41 163 33 132 C33 53 69 -10 168 -10 L168 -10 Z M180 38 C138 47 107 84 107 129 C107 161 130 187 178 199 L271 224 C271 132 269 91 269 91 C254 66 213 41 180 38 L180 38 Z " />
<glyph glyph-name="aacute" unicode="á" horiz-adv-x="429" d="M168 510 L283 620 L263 651 L227 654 L145 522 L168 510 Z M168 -10 C194 -10 241 28 267 53 L269 53 L274 0 L310 0 C363 0 410 -5 410 -5 L416 23 L349 39 C349 39 344 57 344 358 C344 423 302 470 227 470 C140 470 72 421 72 421 L72 406 L85 391 C85 391 143 414 190 414 C250 414 271 379 271 339 L271 257 L160 230 C77 209 41 163 33 132 C33 53 69 -10 168 -10 L168 -10 Z M180 38 C138 47 107 84 107 129 C107 161 130 187 178 199 L271 224 C271 132 269 91 269 91 C254 66 213 41 180 38 L180 38 Z " />
<glyph glyph-name="acircumflex" unicode="â" horiz-adv-x="429" d="M132 510 L221 599 L310 510 L334 522 L242 653 L199 653 L107 522 L132 510 Z M168 -10 C194 -10 241 28 267 53 L269 53 L274 0 L310 0 C363 0 410 -5 410 -5 L416 23 L349 39 C349 39 344 57 344 358 C344 423 302 470 227 470 C140 470 72 421 72 421 L72 406 L85 391 C85 391 143 414 190 414 C250 414 271 379 271 339 L271 257 L160 230 C77 209 41 163 33 132 C33 53 69 -10 168 -10 L168 -10 Z M180 38 C138 47 107 84 107 129 C107 161 130 187 178 199 L271 224 C271 132 269 91 269 91 C254 66 213 41 180 38 L180 38 Z " />
<glyph glyph-name="atilde" unicode="ã" horiz-adv-x="429" d="M269 528 C304 528 368 581 384 608 L381 622 L365 627 C351 609 329 585 295 585 C254 585 216 637 169 637 C133 637 68 579 55 555 L58 540 L75 536 C86 554 114 579 145 579 C183 579 224 528 269 528 L269 528 Z M168 -10 C194 -10 241 28 267 53 L269 53 L274 0 L310 0 C363 0 410 -5 410 -5 L416 23 L349 39 C349 39 344 57 344 358 C344 423 302 470 227 470 C140 470 72 421 72 421 L72 406 L85 391 C85 391 143 414 190 414 C250 414 271 379 271 339 L271 257 L160 230 C77 209 41 163 33 132 C33 53 69 -10 168 -10 L168 -10 Z M180 38 C138 47 107 84 107 129 C107 161 130 187 178 199 L271 224 C271 132 269 91 269 91 C254 66 213 41 180 38 L180 38 Z " />
<glyph glyph-name="adieresis" unicode="ä" horiz-adv-x="427" d="M279 546 C306 546 333 567 333 593 C333 619 316 635 290 635 C263 635 236 614 236 588 C236 562 253 546 279 546 L279 546 Z M119 546 C146 546 172 567 172 593 C172 619 156 635 130 635 C103 635 76 614 76 588 C76 562 92 546 119 546 L119 546 Z M168 -10 C194 -10 241 28 267 53 L269 53 L274 0 L310 0 C363 0 410 -5 410 -5 L416 23 L349 39 C349 39 344 57 344 358 C344 423 302 470 227 470 C140 470 72 421 72 421 L72 406 L85 391 C85 391 143 414 190 414 C250 414 271 379 271 339 L271 257 L160 230 C77 209 41 163 33 132 C33 53 69 -10 168 -10 L168 -10 Z M180 38 C138 47 107 84 107 129 C107 161 130 187 178 199 L271 224 C271 132 269 91 269 91 C254 66 213 41 180 38 L180 38 Z " />
<glyph glyph-name="aring" unicode="å" horiz-adv-x="429" d="M217 508 C264 508 312 546 312 594 C312 647 273 672 225 672 C178 672 130 634 130 586 C130 535 168 508 217 508 L217 508 Z M168 -10 C194 -10 241 28 267 53 L269 53 L274 0 L310 0 C363 0 410 -5 410 -5 L416 23 L349 39 C349 39 344 57 344 358 C344 423 302 470 227 470 C140 470 72 421 72 421 L72 406 L85 391 C85 391 143 414 190 414 C250 414 271 379 271 339 L271 257 L160 230 C77 209 41 163 33 132 C33 53 69 -10 168 -10 L168 -10 Z M220 534 C196 534 175 564 175 588 C175 624 193 646 222 646 C245 646 267 616 267 592 C267 557 249 534 220 534 L220 534 Z M180 38 C138 47 107 84 107 129 C107 161 130 187 178 199 L271 224 C271 132 269 91 269 91 C254 66 213 41 180 38 L180 38 Z " />
<glyph glyph-name="ae" unicode="æ" horiz-adv-x="719" d="M168 -10 C193 -10 274 55 308 91 C347 27 416 -10 505 -10 C590 -10 644 23 659 33 L659 49 L642 59 C642 59 600 35 521 35 C419 35 359 114 355 223 L650 245 L676 272 C676 382 612 470 490 470 C433 470 378 445 338 401 L336 401 C321 443 284 470 227 470 C140 470 72 421 72 421 L72 406 L85 391 C85 391 143 414 190 414 C250 414 271 379 271 339 L271 244 L160 230 C77 219 41 164 33 132 C33 53 69 -10 168 -10 L168 -10 Z M353 254 C360 341 385 399 405 415 C406 415 434 426 482 426 C541 426 594 376 594 281 L353 254 Z M180 38 C138 47 107 84 107 129 C107 161 132 194 178 201 L271 215 C273 177 281 144 295 115 C274 88 222 42 180 38 L180 38 Z " />
<glyph glyph-name="ccedilla" unicode="ç" horiz-adv-x="479" d="M259 -10 C344 -10 410 25 425 35 L425 50 L408 61 C408 61 354 35 275 35 C183 35 116 114 116 228 C116 318 160 387 196 412 C196 412 232 427 286 427 C324 427 362 401 362 401 L379 330 L409 333 C409 333 418 438 422 460 C422 460 364 470 298 470 C139 470 36 369 36 223 C36 77 119 -10 259 -10 L259 -10 Z M170 -172 L268 -32 L244 -23 L112 -132 L135 -168 L170 -172 Z " />
<glyph glyph-name="egrave" unicode="è" horiz-adv-x="481" d="M292 510 L316 522 L233 654 L198 651 L178 620 L292 510 Z M270 -10 C355 -10 409 23 424 33 L424 49 L407 59 C407 59 365 35 286 35 C184 35 117 131 116 244 L415 244 L441 270 C441 383 376 470 255 470 C141 470 36 378 36 232 C36 86 126 -10 270 -10 L270 -10 Z M117 279 C123 352 150 399 170 415 C171 415 199 426 246 426 C306 426 359 378 359 285 L117 279 Z " />
<glyph glyph-name="eacute" unicode="é" horiz-adv-x="481" d="M209 510 L323 620 L303 651 L268 654 L186 522 L209 510 Z M270 -10 C355 -10 409 23 424 33 L424 49 L407 59 C407 59 365 35 286 35 C184 35 117 131 116 244 L415 244 L441 270 C441 383 376 470 255 470 C141 470 36 378 36 232 C36 86 126 -10 270 -10 L270 -10 Z M117 279 C123 352 150 399 170 415 C171 415 199 426 246 426 C306 426 359 378 359 285 L117 279 Z " />
<glyph glyph-name="ecircumflex" unicode="ê" horiz-adv-x="481" d="M164 510 L253 599 L342 510 L366 522 L274 653 L231 653 L139 522 L164 510 Z M270 -10 C355 -10 409 23 424 33 L424 49 L407 59 C407 59 365 35 286 35 C184 35 117 131 116 244 L415 244 L441 270 C441 383 376 470 255 470 C141 470 36 378 36 232 C36 86 126 -10 270 -10 L270 -10 Z M117 279 C123 352 150 399 170 415 C171 415 199 426 246 426 C306 426 359 378 359 285 L117 279 Z " />
<glyph glyph-name="edieresis" unicode="ë" horiz-adv-x="481" d="M333 546 C359 546 386 567 386 593 C386 619 370 635 343 635 C316 635 290 614 290 588 C290 562 306 546 333 546 L333 546 Z M172 546 C199 546 226 567 226 593 C226 619 209 635 183 635 C156 635 129 614 129 588 C129 562 146 546 172 546 L172 546 Z M270 -10 C355 -10 409 23 424 33 L424 49 L407 59 C407 59 365 35 286 35 C184 35 117 131 116 244 L415 244 L441 270 C441 383 376 470 255 470 C141 470 36 378 36 232 C36 86 126 -10 270 -10 L270 -10 Z M117 279 C123 352 150 399 170 415 C171 415 199 426 246 426 C306 426 359 378 359 285 L117 279 Z " />
<glyph glyph-name="igrave" unicode="ì" horiz-adv-x="273" d="M174 510 L197 522 L114 654 L79 651 L59 620 L174 510 Z M244 -5 L250 23 L183 39 C183 39 178 85 178 241 C178 354 183 470 183 470 C127 460 40 460 40 460 L37 431 L100 422 C100 422 105 348 105 241 C105 86 100 40 100 40 L45 28 L43 0 L143 0 C197 0 244 -5 244 -5 L244 -5 Z " />
<glyph glyph-name="iacute" unicode="í" horiz-adv-x="273" d="M106 510 L220 620 L201 651 L165 654 L83 522 L106 510 Z M244 -5 L250 23 L183 39 C183 39 178 85 178 241 C178 354 183 470 183 470 C127 460 40 460 40 460 L37 431 L100 422 C100 422 105 348 105 241 C105 86 100 40 100 40 L45 28 L43 0 L143 0 C197 0 244 -5 244 -5 L244 -5 Z " />
<glyph glyph-name="icircumflex" unicode="î" horiz-adv-x="273" d="M56 510 L145 599 L234 510 L258 522 L166 653 L123 653 L31 522 L56 510 Z M244 -5 L250 23 L183 39 C183 39 178 85 178 241 C178 354 183 470 183 470 C127 460 40 460 40 460 L37 431 L100 422 C100 422 105 348 105 241 C105 86 100 40 100 40 L45 28 L43 0 L143 0 C197 0 244 -5 244 -5 L244 -5 Z " />
<glyph glyph-name="idieresis" unicode="ï" horiz-adv-x="273" d="M214 546 C241 546 268 567 268 593 C268 619 251 635 225 635 C198 635 171 614 171 588 C171 562 188 546 214 546 L214 546 Z M54 546 C80 546 107 567 107 593 C107 619 90 635 64 635 C38 635 11 614 11 588 C11 562 27 546 54 546 L54 546 Z M244 -5 L250 23 L183 39 C183 39 178 85 178 241 C178 354 183 470 183 470 C127 460 40 460 40 460 L37 431 L100 422 C100 422 105 348 105 241 C105 86 100 40 100 40 L45 28 L43 0 L143 0 C197 0 244 -5 244 -5 L244 -5 Z " />
<glyph glyph-name="eth" unicode="ð" horiz-adv-x="517" d="M250 -10 C398 -10 482 84 482 229 C482 396 418 511 341 581 L382 616 L377 647 L367 659 L306 608 C275 630 244 645 215 654 L180 651 L159 620 C159 620 207 603 260 569 L225 539 L230 508 L240 496 L297 543 C341 511 384 468 403 414 L401 414 C372 450 324 470 266 470 C120 470 35 376 35 231 C35 86 103 -10 250 -10 L250 -10 Z M265 30 C164 30 114 125 114 241 C114 322 142 390 163 410 C163 410 195 430 251 430 C354 430 403 336 403 219 C403 138 376 70 354 50 C354 50 322 30 265 30 L265 30 Z " />
<glyph glyph-name="ntilde" unicode="ñ" horiz-adv-x="560" d="M337 528 C372 528 436 581 452 608 L449 622 L433 627 C420 609 397 585 363 585 C322 585 285 637 237 637 C201 637 137 579 123 555 L126 540 L143 536 C155 554 182 579 213 579 C252 579 292 528 337 528 L337 528 Z M234 -5 L240 23 L173 39 C173 39 168 85 168 241 C168 267 169 292 170 316 C175 356 187 376 187 376 C187 376 228 417 313 417 C363 417 402 387 402 333 C402 65 397 40 397 40 L342 28 L340 0 L444 0 C495 0 541 -5 541 -5 L547 23 L480 39 C480 39 475 60 475 350 C475 407 438 470 331 470 C288 470 214 450 174 387 L172 387 L163 470 C110 460 30 460 30 460 L27 431 L90 422 C90 422 95 348 95 241 C95 86 90 40 90 40 L35 28 L33 0 L133 0 C184 0 234 -5 234 -5 L234 -5 Z " />
<glyph glyph-name="ograve" unicode="ò" horiz-adv-x="517" d="M306 510 L330 522 L247 654 L212 651 L192 620 L306 510 Z M250 -10 C398 -10 482 84 482 229 C482 374 414 470 266 470 C120 470 35 376 35 231 C35 86 103 -10 250 -10 L250 -10 Z M265 30 C164 30 114 125 114 241 C114 322 142 390 163 410 C163 410 195 430 251 430 C354 430 403 336 403 219 C403 138 376 70 354 50 C354 50 322 30 265 30 L265 30 Z " />
<glyph glyph-name="oacute" unicode="ó" horiz-adv-x="517" d="M202 510 L317 620 L297 651 L261 654 L179 522 L202 510 Z M250 -10 C398 -10 482 84 482 229 C482 374 414 470 266 470 C120 470 35 376 35 231 C35 86 103 -10 250 -10 L250 -10 Z M265 30 C164 30 114 125 114 241 C114 322 142 390 163 410 C163 410 195 430 251 430 C354 430 403 336 403 219 C403 138 376 70 354 50 C354 50 322 30 265 30 L265 30 Z " />
<glyph glyph-name="ocircumflex" unicode="ô" horiz-adv-x="517" d="M166 510 L255 599 L344 510 L368 522 L276 653 L234 653 L142 522 L166 510 Z M250 -10 C398 -10 482 84 482 229 C482 374 414 470 266 470 C120 470 35 376 35 231 C35 86 103 -10 250 -10 L250 -10 Z M265 30 C164 30 114 125 114 241 C114 322 142 390 163 410 C163 410 195 430 251 430 C354 430 403 336 403 219 C403 138 376 70 354 50 C354 50 322 30 265 30 L265 30 Z " />
<glyph glyph-name="otilde" unicode="õ" horiz-adv-x="517" d="M318 528 C353 528 416 581 432 608 L429 622 L413 627 C400 609 377 585 343 585 C302 585 265 637 217 637 C182 637 117 579 103 555 L107 540 L123 536 C135 554 162 579 193 579 C232 579 272 528 318 528 L318 528 Z M250 -10 C398 -10 482 84 482 229 C482 374 414 470 266 470 C120 470 35 376 35 231 C35 86 103 -10 250 -10 L250 -10 Z M265 30 C164 30 114 125 114 241 C114 322 142 390 163 410 C163 410 195 430 251 430 C354 430 403 336 403 219 C403 138 376 70 354 50 C354 50 322 30 265 30 L265 30 Z " />
<glyph glyph-name="odieresis" unicode="ö" horiz-adv-x="517" d="M335 546 C362 546 389 567 389 593 C389 619 372 635 346 635 C319 635 292 614 292 588 C292 562 309 546 335 546 L335 546 Z M175 546 C202 546 228 567 228 593 C228 619 211 635 185 635 C158 635 131 614 131 588 C131 562 148 546 175 546 L175 546 Z M250 -10 C398 -10 482 84 482 229 C482 374 414 470 266 470 C120 470 35 376 35 231 C35 86 103 -10 250 -10 L250 -10 Z M265 30 C164 30 114 125 114 241 C114 322 142 390 163 410 C163 410 195 430 251 430 C354 430 403 336 403 219 C403 138 376 70 354 50 C354 50 322 30 265 30 L265 30 Z " />
<glyph glyph-name="divide" unicode="÷" horiz-adv-x="549" d="M277 407 C306 407 335 429 335 457 C335 486 317 504 288 504 C258 504 230 482 230 453 C230 425 248 407 277 407 L277 407 Z M69 288 L478 288 L494 318 L494 340 L85 340 L69 310 L69 288 Z M277 127 C306 127 335 149 335 178 C335 206 317 224 288 224 C258 224 230 202 230 174 C230 145 248 127 277 127 L277 127 Z " />
<glyph glyph-name="oslash" unicode="ø" horiz-adv-x="517" d="M46 -9 L81 -10 L115 29 C149 4 194 -10 250 -10 C398 -10 482 84 482 229 C482 299 466 358 434 399 L482 455 L471 469 L426 470 L396 435 C363 458 320 470 266 470 C120 470 35 376 35 231 C35 162 50 105 81 63 L35 9 L46 -9 Z M136 127 C122 159 114 199 114 241 C114 322 142 390 163 410 C163 410 195 430 251 430 C295 430 328 413 353 385 L136 127 Z M265 30 C220 30 185 50 160 81 L379 338 C396 304 403 262 403 219 C403 138 376 70 354 50 C354 50 322 30 265 30 L265 30 Z " />
<glyph glyph-name="ugrave" unicode="ù" horiz-adv-x="570" d="M290 510 L313 522 L231 654 L196 651 L175 620 L290 510 Z M239 -10 C281 -10 359 14 399 77 L401 77 L408 0 L445 0 C498 0 545 -5 545 -5 L551 23 L484 39 C484 39 479 112 479 219 C479 375 484 470 484 470 C427 460 340 460 340 460 L337 431 L400 422 C400 422 405 379 405 223 C405 198 405 172 403 149 C398 108 386 89 386 89 C386 89 342 43 257 43 C207 43 163 76 163 132 C163 390 168 470 168 470 C112 460 25 460 25 460 L22 431 L85 422 C85 422 90 393 90 120 C90 60 131 -10 239 -10 L239 -10 Z " />
<glyph glyph-name="uacute" unicode="ú" horiz-adv-x="570" d="M248 510 L363 620 L343 651 L307 654 L225 522 L248 510 Z M239 -10 C281 -10 359 14 399 77 L401 77 L408 0 L445 0 C498 0 545 -5 545 -5 L551 23 L484 39 C484 39 479 112 479 219 C479 375 484 470 484 470 C427 460 340 460 340 460 L337 431 L400 422 C400 422 405 379 405 223 C405 198 405 172 403 149 C398 108 386 89 386 89 C386 89 342 43 257 43 C207 43 163 76 163 132 C163 390 168 470 168 470 C112 460 25 460 25 460 L22 431 L85 422 C85 422 90 393 90 120 C90 60 131 -10 239 -10 L239 -10 Z " />
<glyph glyph-name="ucircumflex" unicode="û" horiz-adv-x="570" d="M192 510 L281 599 L370 510 L394 522 L302 653 L260 653 L168 522 L192 510 Z M239 -10 C281 -10 359 14 399 77 L401 77 L408 0 L445 0 C498 0 545 -5 545 -5 L551 23 L484 39 C484 39 479 112 479 219 C479 375 484 470 484 470 C427 460 340 460 340 460 L337 431 L400 422 C400 422 405 379 405 223 C405 198 405 172 403 149 C398 108 386 89 386 89 C386 89 342 43 257 43 C207 43 163 76 163 132 C163 390 168 470 168 470 C112 460 25 460 25 460 L22 431 L85 422 C85 422 90 393 90 120 C90 60 131 -10 239 -10 L239 -10 Z " />
<glyph glyph-name="udieresis" unicode="ü" horiz-adv-x="570" d="M357 546 C384 546 411 567 411 593 C411 619 394 635 368 635 C341 635 314 614 314 588 C314 562 331 546 357 546 L357 546 Z M197 546 C224 546 251 567 251 593 C251 619 234 635 207 635 C181 635 154 614 154 588 C154 562 171 546 197 546 L197 546 Z M239 -10 C281 -10 359 14 399 77 L401 77 L408 0 L445 0 C498 0 545 -5 545 -5 L551 23 L484 39 C484 39 479 112 479 219 C479 375 484 470 484 470 C427 460 340 460 340 460 L337 431 L400 422 C400 422 405 379 405 223 C405 198 405 172 403 149 C398 108 386 89 386 89 C386 89 342 43 257 43 C207 43 163 76 163 132 C163 390 168 470 168 470 C112 460 25 460 25 460 L22 431 L85 422 C85 422 90 393 90 120 C90 60 131 -10 239 -10 L239 -10 Z " />
<glyph glyph-name="yacute" unicode="ý" horiz-adv-x="515" d="M262 510 L376 620 L356 651 L321 654 L238 522 L262 510 Z M112 -230 C174 -230 217 -188 240 -132 L464 428 L510 437 L513 465 C513 465 468 460 433 460 L358 460 L356 432 L407 427 L276 66 L274 66 L146 425 L205 432 L207 460 L106 460 C53 460 6 465 6 465 L0 437 L48 426 L224 0 L252 0 L210 -114 C192 -163 163 -179 143 -184 C107 -184 64 -166 64 -166 L36 -194 L36 -219 C36 -219 75 -230 112 -230 L112 -230 Z " />
<glyph glyph-name="thorn" unicode="þ" horiz-adv-x="565" d="M234 -235 L240 -207 L173 -191 C173 -191 170 -167 168 -1 C198 -5 243 -10 280 -10 C444 -10 532 126 532 237 C532 394 438 470 331 470 C287 470 214 450 174 388 L172 388 C172 673 176 710 176 710 C123 700 30 700 30 700 L27 671 L90 662 C90 662 95 628 95 128 C95 -152 90 -190 90 -190 L35 -202 L33 -230 L133 -230 C187 -230 234 -235 234 -235 L234 -235 Z M293 30 C232 30 186 55 169 64 C169 76 168 93 168 113 C168 259 170 320 172 344 C178 368 187 378 187 378 C187 378 228 418 314 418 C364 418 455 371 455 232 C455 139 411 72 387 49 C387 49 347 30 293 30 L293 30 Z " />
<glyph glyph-name="ydieresis" unicode="ÿ" horiz-adv-x="515" d="M347 546 C374 546 401 567 401 593 C401 619 384 635 358 635 C331 635 304 614 304 588 C304 562 321 546 347 546 L347 546 Z M187 546 C214 546 241 567 241 593 C241 619 224 635 197 635 C171 635 144 614 144 588 C144 562 161 546 187 546 L187 546 Z M112 -230 C174 -230 217 -188 240 -132 L464 428 L510 437 L513 465 C513 465 468 460 433 460 L358 460 L356 432 L407 427 L276 66 L274 66 L146 425 L205 432 L207 460 L106 460 C53 460 6 465 6 465 L0 437 L48 426 L224 0 L252 0 L210 -114 C192 -163 163 -179 143 -184 C107 -184 64 -166 64 -166 L36 -194 L36 -219 C36 -219 75 -230 112 -230 L112 -230 Z " />
<glyph glyph-name="dotlessi" unicode="ı" horiz-adv-x="273" d="M244 -5 L250 23 L183 39 C183 39 178 85 178 241 C178 354 183 470 183 470 C127 460 40 460 40 460 L37 431 L100 422 C100 422 105 348 105 241 C105 86 100 40 100 40 L45 28 L43 0 L143 0 C197 0 244 -5 244 -5 L244 -5 Z " />
<glyph glyph-name="Lslash" unicode="Ł" horiz-adv-x="542" d="M43 0 L522 0 C522 26 539 139 539 139 L510 142 L476 45 L193 38 L187 40 C187 40 182 68 182 314 L274 406 L275 444 L255 448 L182 375 C182 570 187 600 187 600 L242 612 L244 640 L143 640 C89 640 39 645 39 645 L33 617 L100 601 C100 601 105 570 105 337 C105 334 105 300 105 297 L29 221 L32 184 L48 180 L105 237 C104 68 100 40 100 40 L45 28 L43 0 Z " />
<glyph glyph-name="lslash" unicode="ł" horiz-adv-x="273" d="M244 -5 L250 23 L183 39 C183 39 178 70 178 320 L265 406 L265 444 L246 448 L178 380 C179 589 183 710 183 710 C127 700 40 700 40 700 L37 671 L100 662 C100 662 105 571 105 336 C105 334 105 307 105 307 L20 221 L22 184 L39 180 L105 246 C104 70 100 40 100 40 L45 28 L43 0 L143 0 C197 0 244 -5 244 -5 L244 -5 Z " />
<glyph glyph-name="OE" unicode="Œ" horiz-adv-x="956" d="M350 -5 C420 -5 505 0 548 0 L902 0 C902 26 919 139 919 139 L889 142 L855 45 L574 38 L567 40 C567 40 562 70 562 311 L783 308 L805 220 L835 223 C835 223 828 285 828 332 C828 379 835 427 835 427 L805 430 L783 352 L562 348 C562 566 567 599 567 599 L578 601 L842 595 L846 498 L876 501 L899 640 L553 640 C504 640 421 645 370 645 C185 645 31 511 31 310 C31 111 145 -5 350 -5 L350 -5 Z M371 33 C227 33 115 146 115 324 C115 458 170 542 218 581 C218 581 271 605 350 605 C418 605 475 592 475 592 L481 586 C481 586 485 511 485 337 C485 120 480 56 480 56 C480 56 435 33 371 33 L371 33 Z " />
<glyph glyph-name="oe" unicode="œ" horiz-adv-x="850" d="M250 -10 C341 -10 405 26 442 88 L444 88 C482 26 548 -10 637 -10 C721 -10 775 23 790 33 L790 49 L773 59 C773 59 731 35 652 35 C551 35 484 131 483 244 L781 244 L808 270 C808 383 743 470 622 470 C553 470 488 435 448 375 L446 375 C414 435 355 470 266 470 C120 470 35 376 35 231 C35 86 103 -10 250 -10 L250 -10 Z M484 279 C490 352 516 399 537 415 C538 415 566 426 613 426 C673 426 725 378 725 285 L484 279 Z M265 30 C164 30 114 125 114 241 C114 322 142 390 163 410 C163 410 195 430 251 430 C354 430 403 336 403 219 C403 138 376 70 354 50 C354 50 322 30 265 30 L265 30 Z " />
<glyph glyph-name="Scaron" unicode="Š" horiz-adv-x="469" d="M217 698 L260 698 L352 829 L328 841 L239 752 L150 841 L125 829 L217 698 Z M212 -10 C300 -10 439 37 439 178 C439 282 338 336 233 379 C154 410 111 444 111 498 C111 555 145 615 232 615 C276 615 342 593 342 593 L359 518 L388 521 C388 521 397 618 401 640 C401 640 318 650 244 650 C107 650 37 580 37 483 C37 398 97 344 187 306 C298 258 359 210 359 159 C359 62 280 25 227 25 C171 25 88 47 88 47 L71 122 L42 119 C42 119 33 22 29 0 C29 0 110 -10 212 -10 L212 -10 Z " />
<glyph glyph-name="scaron" unicode="š" horiz-adv-x="373" d="M170 519 L213 519 L305 650 L280 662 L191 573 L102 662 L78 650 L170 519 Z M153 -10 C276 -10 339 48 339 129 C339 211 266 249 193 277 C130 302 111 328 111 360 C111 412 146 437 192 437 C231 437 257 415 257 415 L274 341 L304 344 C304 344 313 438 317 460 C317 460 253 470 204 470 C119 470 42 421 42 348 C42 281 76 239 154 207 C224 178 264 145 264 107 C264 52 229 24 172 24 C125 24 90 45 90 45 L73 120 L44 117 C44 117 35 23 31 1 C31 1 87 -10 153 -10 L153 -10 Z " />
<glyph glyph-name="Ydieresis" unicode="Ÿ" horiz-adv-x="610" d="M396 699 C422 699 450 719 450 745 C450 770 433 787 407 787 C380 787 353 766 353 741 C353 715 370 699 396 699 L396 699 Z M235 699 C263 699 289 719 289 745 C289 770 273 787 246 787 C219 787 193 766 193 741 C193 715 209 699 235 699 L235 699 Z M409 -5 L415 23 L348 39 C348 39 344 59 344 238 L344 309 L553 608 L600 617 L603 645 C603 645 557 640 521 640 L449 640 L447 612 L495 607 L322 340 L320 340 L159 605 L209 612 L211 640 L112 640 C57 640 10 645 10 645 L4 617 L52 606 L266 293 L266 238 C266 66 261 40 261 40 L206 28 L204 0 L306 0 C360 0 409 -5 409 -5 L409 -5 Z " />
<glyph glyph-name="Zcaron" unicode="Ž" horiz-adv-x="585" d="M277 698 L320 698 L412 829 L388 841 L299 752 L210 841 L185 829 L277 698 Z M64 0 L550 0 C546 22 537 139 537 139 L508 142 L494 45 L140 40 L536 614 L514 640 L44 640 C48 618 57 504 57 504 L87 501 L101 595 L431 603 L37 35 L64 0 Z " />
<glyph glyph-name="zcaron" unicode="ž" horiz-adv-x="472" d="M214 519 L256 519 L348 650 L324 662 L235 573 L146 662 L122 650 L214 519 Z M75 0 L434 0 C430 22 421 116 421 116 L392 119 L378 40 L148 35 L423 435 L401 460 L49 460 C53 438 62 344 62 344 L91 341 L105 420 L322 428 L48 33 L75 0 Z " />
<glyph glyph-name="florin" unicode="ƒ" horiz-adv-x="549" d="M71 -237 C150 -193 233 -91 244 37 C244 37 250 141 259 241 L268 341 L446 338 L472 365 L472 378 L271 378 L284 525 C291 603 321 644 321 644 C321 644 355 662 395 662 C431 662 473 615 473 615 L512 636 L514 668 C502 682 455 700 431 700 C334 700 221 634 210 514 L198 378 L75 378 L70 345 L195 343 L168 37 C158 -74 123 -174 59 -220 L71 -237 Z " />
<glyph glyph-name="circumflex" unicode="ˆ" horiz-adv-x="510" d="M161 510 L250 599 L339 510 L364 522 L272 653 L229 653 L137 522 L161 510 Z " />
<glyph glyph-name="caron" unicode="ˇ" horiz-adv-x="510" d="M229 519 L272 519 L364 650 L339 662 L250 573 L161 662 L137 650 L229 519 Z " />
<glyph glyph-name="breve" unicode="˘" horiz-adv-x="419" d="M211 519 C260 519 316 567 316 615 L263 603 C263 566 244 543 214 543 C189 543 167 583 167 609 L114 597 C114 546 161 519 211 519 L211 519 Z " />
<glyph glyph-name="dotaccent" unicode="˙" horiz-adv-x="273" d="M137 546 C163 546 190 567 190 593 C190 619 173 635 147 635 C120 635 94 614 94 588 C94 562 110 546 137 546 L137 546 Z " />
<glyph glyph-name="ring" unicode="˚" horiz-adv-x="429" d="M217 508 C264 508 312 546 312 594 C312 647 273 672 225 672 C178 672 130 634 130 586 C130 535 168 508 217 508 L217 508 Z M220 534 C196 534 175 564 175 588 C175 624 193 646 222 646 C245 646 267 616 267 592 C267 557 249 534 220 534 L220 534 Z " />
<glyph glyph-name="ogonek" unicode="˛" horiz-adv-x="475" d="M317 -172 L352 -168 L375 -132 L243 -23 L218 -32 L317 -172 Z " />
<glyph glyph-name="tilde" unicode="˜" horiz-adv-x="510" d="M314 528 C349 528 413 581 429 608 L425 622 L410 627 C396 609 374 585 340 585 C299 585 261 637 214 637 C178 637 113 579 100 555 L103 540 L120 536 C131 554 159 579 190 579 C228 579 269 528 314 528 L314 528 Z " />
<glyph glyph-name="hungarumlaut" unicode="˝" horiz-adv-x="510" d="M201 544 L289 675 L263 701 L228 698 L175 551 L201 544 Z M254 518 L378 617 L361 650 L325 656 L233 532 L254 518 Z " />
<glyph glyph-name="endash" unicode="–" horiz-adv-x="355" d="M0 251 L324 251 L335 265 L335 279 L11 279 L0 264 L0 251 Z " />
<glyph glyph-name="emdash" unicode="—" horiz-adv-x="539" d="M0 251 L508 251 L519 265 L519 279 L11 279 L0 264 L0 251 Z " />
<glyph glyph-name="quoteleft" unicode="‘" horiz-adv-x="187" d="M170 422 L176 441 C109 462 88 512 88 532 C88 574 135 579 139 592 C139 625 115 650 86 650 C56 650 23 629 23 579 C23 510 101 435 170 422 L170 422 Z " />
<glyph glyph-name="quoteright" unicode="’" horiz-adv-x="187" d="M16 422 C85 435 163 510 163 579 C163 629 130 650 100 650 C71 650 47 625 47 592 C51 579 99 574 99 532 C99 512 77 462 10 441 L16 422 Z " />
<glyph glyph-name="quotesinglbase" unicode="‚" horiz-adv-x="187" d="M16 -10 C85 3 163 78 163 147 C163 197 130 218 100 218 C71 218 47 193 47 160 C51 147 99 143 99 100 C99 80 77 30 10 9 L16 -10 Z " />
<glyph glyph-name="quotedblleft" unicode="“" horiz-adv-x="332" d="M312 422 L318 441 C251 462 229 512 229 532 C229 574 277 579 281 592 C281 625 257 650 228 650 C198 650 165 629 165 579 C165 510 243 435 312 422 L312 422 Z M175 422 L182 441 C115 462 93 512 93 532 C93 574 141 579 145 592 C145 625 121 650 92 650 C61 650 28 629 28 579 C28 510 106 435 175 422 L175 422 Z " />
<glyph glyph-name="quotedblright" unicode="”" horiz-adv-x="332" d="M153 422 C222 435 300 510 300 579 C300 629 267 650 237 650 C207 650 184 625 184 592 C188 579 235 574 235 532 C235 512 214 462 147 441 L153 422 Z M16 422 C85 435 163 510 163 579 C163 629 130 650 100 650 C71 650 47 625 47 592 C51 579 99 574 99 532 C99 512 77 462 10 441 L16 422 Z " />
<glyph glyph-name="quotedblbase" unicode="„" horiz-adv-x="332" d="M153 -10 C222 3 300 78 300 147 C300 197 267 218 237 218 C207 218 184 193 184 160 C188 147 235 143 235 100 C235 80 214 30 147 9 L153 -10 Z M16 -10 C85 3 163 78 163 147 C163 197 130 218 100 218 C71 218 47 193 47 160 C51 147 99 143 99 100 C99 80 77 30 10 9 L16 -10 Z " />
<glyph glyph-name="dagger" unicode="†" horiz-adv-x="435" d="M206 -160 L229 -160 L230 164 L255 358 L231 427 L407 399 L433 425 L423 460 L232 460 L256 640 L179 640 L203 460 L12 460 L2 425 L28 399 L203 427 L180 358 L205 164 L206 -160 Z " />
<glyph glyph-name="daggerdbl" unicode="‡" horiz-adv-x="435" d="M206 -168 L229 -168 L230 -5 L255 188 L231 257 L407 229 L433 255 L423 291 L236 291 L255 358 L231 427 L407 399 L433 425 L423 460 L232 460 L256 640 L179 640 L203 460 L12 460 L2 425 L28 399 L203 427 L180 358 L200 291 L12 291 L2 255 L28 229 L203 257 L180 188 L205 -5 L206 -168 Z " />
<glyph glyph-name="bullet" unicode="•" horiz-adv-x="413" d="M212 66 C272 66 311 86 311 86 C332 106 363 171 363 220 C363 336 299 397 208 397 C148 397 108 377 108 377 C88 357 56 302 56 242 C56 126 129 66 212 66 L212 66 Z " />
<glyph glyph-name="ellipsis" unicode="…" horiz-adv-x="582" d="M480 -5 C510 -5 538 17 538 46 C538 74 519 92 490 92 C461 92 433 69 433 41 C433 13 451 -5 480 -5 L480 -5 Z M285 -5 C315 -5 344 17 344 46 C344 74 325 92 296 92 C267 92 238 69 238 41 C238 13 256 -5 285 -5 L285 -5 Z M91 -5 C121 -5 149 17 149 46 C149 74 131 92 102 92 C72 92 44 69 44 41 C44 13 62 -5 91 -5 L91 -5 Z " />
<glyph glyph-name="perthousand" unicode="‰" horiz-adv-x="887" d="M145 332 C237 332 295 389 295 480 C295 571 247 630 155 630 C64 630 6 574 6 482 C6 391 55 332 145 332 L145 332 Z M56 3 L82 0 L507 605 L498 618 L461 620 L46 19 L56 3 Z M712 -10 C804 -10 861 47 861 138 C861 229 813 288 722 288 C631 288 572 232 572 140 C572 49 622 -10 712 -10 L712 -10 Z M387 -10 C479 -10 536 47 536 138 C536 229 488 288 397 288 C306 288 248 232 248 140 C248 49 297 -10 387 -10 L387 -10 Z M154 364 C94 364 68 422 68 488 C68 535 85 576 96 587 C96 587 115 598 147 598 C206 598 233 540 233 474 C233 427 216 386 204 375 C204 375 186 364 154 364 L154 364 Z M721 22 C661 22 634 80 634 146 C634 193 651 234 663 245 C663 245 681 256 713 256 C772 256 799 198 799 132 C799 85 782 44 771 33 C771 33 753 22 721 22 L721 22 Z M396 22 C336 22 309 80 309 146 C309 193 327 234 338 245 C338 245 356 256 389 256 C448 256 475 198 475 132 C475 85 457 44 446 33 C446 33 428 22 396 22 L396 22 Z " />
<glyph glyph-name="guilsinglleft" unicode="‹" horiz-adv-x="221" d="M169 55 L183 60 L187 77 L92 226 L187 375 L183 392 L169 397 L27 245 L27 207 L169 55 Z " />
<glyph glyph-name="guilsinglright" unicode="›" horiz-adv-x="221" d="M52 55 L194 207 L194 245 L52 397 L38 392 L34 375 L129 226 L34 77 L38 60 L52 55 Z " />
<glyph glyph-name="fraction" unicode="⁄" horiz-adv-x="545" d="M36 0 L62 0 L524 628 L514 640 L477 640 L24 16 L36 0 Z " />
<glyph glyph-name="Euro" unicode="€" horiz-adv-x="549" d="M322 80 C407 80 473 115 488 125 L488 141 L470 151 C470 151 417 125 338 125 C266 125 210 174 189 248 L334 248 L350 276 L350 289 L181 289 C180 299 179 309 179 318 C179 325 179 333 180 339 L408 339 L424 367 L424 380 L187 380 C201 439 232 483 258 502 C258 502 295 516 349 516 C386 516 425 491 425 491 L442 419 L472 422 C472 422 481 528 485 550 C485 550 427 560 361 560 C227 560 133 489 107 380 L62 380 L46 353 L46 339 L100 339 C99 331 99 322 99 313 C99 305 99 297 100 289 L62 289 L46 261 L46 248 L106 248 C127 142 205 80 322 80 L322 80 Z " />
<glyph glyph-name="trademark" unicode="™" horiz-adv-x="976" d="M547 266 L550 291 L504 302 L510 466 C512 525 518 570 518 570 L519 570 L651 270 L690 270 L822 570 L823 570 L831 466 C836 354 837 302 837 302 L798 294 L797 270 L877 270 C912 270 946 266 946 266 L952 291 L904 302 L891 466 C884 550 887 607 887 607 L925 616 L926 640 L846 640 L815 640 L682 343 L681 343 L555 640 L510 640 C484 640 443 643 443 643 L437 619 L483 608 L477 466 C472 353 465 302 465 302 L426 294 L425 270 L488 270 C518 270 547 266 547 266 L547 266 Z M285 266 L289 291 L242 302 C242 302 239 325 239 441 C239 591 242 608 242 608 L366 604 L369 541 L394 544 L410 640 L23 640 C23 622 18 544 18 544 L43 541 L60 604 L171 609 L175 608 C175 608 179 588 179 441 C179 328 175 302 175 302 L137 294 L136 270 L209 270 C246 270 285 266 285 266 L285 266 Z " />
<glyph glyph-name="partialdiff" unicode="∂" horiz-adv-x="517" d="M250 -10 C398 -10 482 84 482 229 C482 487 330 620 215 654 L180 651 L159 620 C159 620 356 548 403 414 L401 414 C372 450 324 470 266 470 C120 470 35 376 35 231 C35 86 103 -10 250 -10 L250 -10 Z M265 30 C164 30 114 125 114 241 C114 322 142 390 163 410 C163 410 195 430 251 430 C354 430 403 336 403 219 C403 138 376 70 354 50 C354 50 322 30 265 30 L265 30 Z " />
<glyph glyph-name="minus" unicode="−" horiz-adv-x="549" d="M69 288 L478 288 L494 318 L494 340 L85 340 L69 310 L69 288 Z " />
<glyph glyph-name="infinity" unicode="∞" horiz-adv-x="955" d="M453 382 C370 382 310 334 289 287 C241 308 197 325 170 325 C127 325 42 271 23 244 L23 229 L40 220 C56 238 112 264 143 264 C218 264 370 147 494 147 C576 147 636 194 657 242 C706 221 749 204 777 204 C820 204 905 258 924 285 L924 300 L907 309 C891 291 835 265 804 265 C729 265 577 382 453 382 L453 382 Z M521 207 C469 207 391 242 318 274 C338 307 385 322 426 322 C477 322 556 286 628 254 C608 222 562 207 521 207 L521 207 Z " />
<glyph glyph-name="integral" unicode="∫" horiz-adv-x="549" d="M64 -237 C142 -193 226 -91 237 37 C237 37 243 141 252 241 L277 525 C284 603 314 644 314 644 C314 644 348 662 388 662 C424 662 466 615 466 615 L505 636 L507 668 C495 682 449 700 424 700 C327 700 214 634 203 514 L161 37 C151 -74 116 -174 53 -220 L64 -237 Z " />
<glyph glyph-name="lessequal" unicode="≤" horiz-adv-x="811" d="M783 243 C783 327 738 366 698 366 C670 366 652 349 652 324 C652 308 665 288 680 286 C700 283 729 270 729 239 C729 219 717 198 689 198 C651 198 615 234 605 329 C596 412 551 462 480 462 C394 462 363 386 363 322 L353 322 C269 479 144 555 54 555 C27 555 5 539 5 514 C5 486 26 471 48 471 C100 471 176 473 258 407 L258 397 C251 400 232 409 205 409 C120 409 69 346 69 278 C69 209 116 188 142 188 C171 188 197 213 198 242 C183 247 161 265 161 299 C161 346 191 369 233 369 C278 369 314 341 343 296 L343 286 C311 272 270 231 270 163 C270 64 350 -12 485 -12 C651 -12 783 100 783 243 L783 243 Z " />
<glyph glyph-name="greaterequal" unicode="≥" horiz-adv-x="811" d="M28 243 C28 100 160 -12 326 -12 C461 -12 538 64 538 163 C538 231 500 272 468 286 L468 296 C497 341 533 369 578 369 C620 369 650 346 650 299 C650 265 628 247 613 242 C614 213 640 188 669 188 C695 188 742 209 742 278 C742 346 691 409 606 409 C579 409 560 400 553 397 L553 407 C635 473 711 471 763 471 C785 471 806 486 806 514 C806 539 784 555 757 555 C667 555 542 479 458 322 L448 322 C448 386 417 462 331 462 C260 462 215 412 206 329 C196 234 160 198 122 198 C94 198 82 219 82 239 C82 270 111 283 131 286 C146 288 159 308 159 324 C159 349 141 366 113 366 C73 366 28 327 28 243 L28 243 Z " />
<glyph glyph-name="fi" unicode="ﬁ" horiz-adv-x="558" d="M529 -5 L535 23 L468 39 C468 39 463 85 463 241 C463 354 468 470 468 470 C426 462 370 460 342 460 L168 460 L168 525 C168 601 195 642 195 642 C195 642 232 660 241 660 C298 660 355 631 355 631 L371 650 L371 688 C371 688 342 700 300 700 C210 700 95 637 95 516 L95 460 L27 460 L22 427 L95 425 C95 59 90 40 90 40 L35 28 L33 0 L133 0 C187 0 234 -5 234 -5 L240 23 L173 39 C173 39 168 54 168 423 L385 420 C385 414 390 343 390 241 C390 86 385 40 385 40 L330 28 L328 0 L428 0 C482 0 529 -5 529 -5 L529 -5 Z M422 546 C448 546 475 567 475 593 C475 619 458 635 432 635 C405 635 379 614 379 588 C379 562 395 546 422 546 L422 546 Z " />
<glyph glyph-name="fl" unicode="ﬂ" horiz-adv-x="561" d="M234 -5 L240 23 L173 39 C173 39 168 54 168 423 L252 420 L278 446 L278 460 L168 460 L168 525 C168 601 196 641 196 641 C196 641 227 660 291 660 C360 660 387 652 387 652 C387 647 390 528 390 336 C390 77 385 40 385 40 L330 28 L328 0 L427 0 C482 0 529 -5 529 -5 L535 23 L468 39 C468 39 463 71 463 336 C463 572 468 700 468 700 L305 700 C202 700 95 637 95 516 L95 460 L27 460 L22 427 L95 425 C95 59 90 40 90 40 L35 28 L33 0 L133 0 C187 0 234 -5 234 -5 L234 -5 Z " />
<glyph glyph-name="st" unicode="ﬆ" horiz-adv-x="736" d="M153 -10 C276 -10 339 48 339 129 C339 211 266 249 193 277 C130 302 111 328 111 360 C111 412 146 437 192 437 C231 437 257 415 257 415 L274 341 L304 344 C304 344 312 431 316 453 C316 453 289 462 276 466 C228 481 200 517 200 568 C200 611 242 679 347 679 C432 679 464 600 464 519 L464 460 L404 460 L398 427 L464 425 C465 398 468 325 468 106 C468 28 526 -10 587 -10 C642 -10 706 23 721 33 L721 48 L704 58 C682 47 637 35 609 34 C570 40 541 72 541 111 L541 423 L669 420 L695 446 L695 460 L541 460 L541 524 C541 635 475 720 359 720 C232 720 173 622 173 571 C173 516 209 479 229 470 L229 468 C229 468 209 470 204 470 C119 470 42 421 42 348 C42 281 76 239 154 207 C224 178 264 145 264 107 C264 52 229 24 172 24 C125 24 90 45 90 45 L73 120 L44 117 C44 117 35 23 31 1 C31 1 87 -10 153 -10 L153 -10 Z " />
</font>
</svg>
