<?xml version="1.0" encoding="UTF-8"?>
<!-- Generator: Adobe Illustrator 16.0.0, SVG Export Plug-In . SVG Version: 6.00 Build 0)  --><svg xmlns="http://www.w3.org/2000/svg" xmlns:xlink="http://www.w3.org/1999/xlink" version="1.1" id="Layer_1" x="0px" y="0px" width="17px" height="17px" viewBox="0 0 17 17" enable-background="new 0 0 17 17" xml:space="preserve">
<g>
	<polygon fill="#00A7CE" points="9.333,4.334 7.667,4.334 7.667,7.667 4.333,7.667 4.333,9.334 7.667,9.334 7.667,12.666    9.333,12.666 9.333,9.334 12.667,9.334 12.667,7.667 9.333,7.667  " />
	<path fill="#00A7CE" d="M8.5,1C4.357,1,1,4.357,1,8.5S4.357,16,8.5,16S16,12.643,16,8.5S12.643,1,8.5,1z M8.5,15   C4.916,15,2,12.084,2,8.5S4.916,2,8.5,2S15,4.916,15,8.5S12.084,15,8.5,15z" />
</g>
</svg>
