<?xml version="1.0" encoding="UTF-8"?>
<!-- Generator: Adobe Illustrator 17.1.0, SVG Export Plug-In . SVG Version: 6.00 Build 0)  --><svg xmlns="http://www.w3.org/2000/svg" xmlns:xlink="http://www.w3.org/1999/xlink" version="1.1" id="Layer_1" x="0px" y="0px" viewBox="0 0 10.3 12.2" style="enable-background:new 0 0 10.3 12.2;" xml:space="preserve">
<style type="text/css">
	.st0{fill:#006E8A;}
	.st1{fill:#353545;}
</style>
<g>
	<g>
		<path class="st0" d="M9.5,0.5c-1.2-1-2-0.3-2-0.3L6.8,1.2c0.6,0.1,1.1,0.4,1.6,0.8c0.5,0.4,0.9,0.9,1.1,1.4l0.7-0.9    C10.2,2.4,10.8,1.6,9.5,0.5z" />
		<path class="st1" d="M3.9,10c-0.2-0.5-0.2-0.6-0.2-1C3.2,9,3,8.8,2.9,8.7C2.7,8.5,2.5,8.4,2.3,8c-0.4,0-0.5,0-1,0l0,0L0,12.2    l1.2-0.6v0L3.9,10C3.9,10,3.9,10,3.9,10z" />
		<path class="st1" d="M6.4,1.7L1.6,7.4c0.4,0.1,0.8,0.2,1.1,0l0.1,0.1c0,0.3,0.3,0.6,0.5,0.7c0.2,0.1,0.5,0.4,0.8,0.3    c0.1,0.1,0.1,0.1,0.1,0.1C4.1,9,4.4,9.7,4.4,9.7l0.3-0.4l4.3-5.4C8.9,3.3,8.5,2.8,8,2.4C7.5,2,6.9,1.7,6.4,1.7z" />
	</g>
</g>
</svg>
