<?xml version="1.0" encoding="UTF-8"?>
<svg xmlns="http://www.w3.org/2000/svg" xmlns:xlink="http://www.w3.org/1999/xlink" version="1.2">
<font id="ArumSans Light Italic">
<font-face font-family="ArumSans" units-per-em="1000" ascent="750" descent="-250" font-style="italic" font-weight="300" font-stretch="normal" cap-height="652" x-height="424" underline-position="-75" underline-thickness="50" />
<missing-glyph horiz-adv-x="169" d="M23 0 L179 0 L179 650 L23 650 L23 0 Z " />
<glyph glyph-name="NULL" d="" />
<glyph glyph-name="CR" unicode="&#xD;" horiz-adv-x="250" d="" />
<glyph glyph-name="space" unicode=" " horiz-adv-x="156" d="" />
<glyph glyph-name="exclam" unicode="!" horiz-adv-x="192" d="M115 153 L225 658 L174 656 L81 150 L115 153 Z M36 36 C33 12 49 -5 69 -7 C89 -9 113 9 116 35 C119 58 106 75 86 78 C64 81 40 64 36 36 L36 36 Z " />
<glyph glyph-name="quotedbl" unicode="&quot;" horiz-adv-x="213" d="M172 505 C193 617 210 702 210 702 L150 699 C150 699 151 611 129 498 L172 505 Z M285 505 C306 617 323 702 323 702 L263 698 C263 698 264 609 242 497 L285 505 Z " />
<glyph glyph-name="numbersign" unicode="#" horiz-adv-x="437" d="M335 424 L249 424 L316 615 L267 615 L201 424 L92 424 L85 388 L188 388 L139 246 L39 246 L32 209 L126 209 L55 0 L100 0 L173 209 L260 209 L189 0 L231 0 L304 209 L411 209 L418 246 L317 246 L368 388 L464 388 L471 424 L380 424 L447 615 L401 615 L335 424 Z M236 388 L322 388 L273 246 L186 246 L236 388 Z " />
<glyph glyph-name="dollar" unicode="$" horiz-adv-x="407" d="M303 668 C281 567 284 570 283 566 C204 559 126 487 115 410 C103 324 166 301 227 274 L180 30 C128 41 57 88 57 88 L37 61 C37 61 97 2 173 -6 L153 -109 L199 -107 L219 -5 C297 7 373 69 384 152 C395 232 333 275 278 299 L322 529 C371 517 407 489 407 489 L425 529 C400 542 372 560 329 565 L350 671 L303 668 Z M154 410 C161 481 200 536 278 536 L235 316 C187 336 149 357 154 410 L154 410 Z M342 143 C336 81 298 35 225 28 L269 254 C306 234 348 196 342 143 L342 143 Z " />
<glyph glyph-name="percent" unicode="%" horiz-adv-x="568" d="M231 657 C226 657 223 657 220 657 C168 657 86 617 62 509 C39 407 82 333 157 333 C231 333 301 391 321 494 C333 552 324 604 299 629 C377 628 491 631 491 631 L73 -4 L110 -25 L557 645 L537 668 C537 668 496 665 437 660 C415 658 351 655 322 655 C275 655 231 657 231 657 L231 657 Z M483 317 C430 317 348 271 324 163 C302 61 345 -7 419 -7 C493 -7 563 53 583 156 C603 258 562 317 483 317 L483 317 Z M108 497 C126 593 180 625 214 625 C267 625 290 583 275 501 C258 410 213 365 163 365 C113 365 92 410 108 497 L108 497 Z M369 157 C387 253 442 285 477 285 C529 285 554 243 538 161 C521 70 475 25 426 25 C376 25 352 70 369 157 L369 157 Z " />
<glyph glyph-name="ampersand" unicode="&amp;" horiz-adv-x="620" d="M541 381 C537 361 519 265 431 156 C381 217 315 307 275 361 C294 371 407 407 440 507 C471 599 409 662 319 659 C238 656 168 622 151 524 C143 480 165 418 210 365 C151 338 58 285 31 194 C8 109 34 -7 180 -7 C272 -7 352 37 415 97 C445 56 488 -7 488 -7 L535 7 C535 7 488 76 448 131 C518 207 557 283 592 381 L541 381 Z M190 35 C130 35 58 68 78 180 C100 292 231 344 231 344 C281 280 347 188 399 122 C323 48 242 35 190 35 L190 35 Z M196 518 C201 591 251 625 311 623 C367 621 412 587 392 517 C368 434 274 397 254 386 C224 422 193 472 196 518 L196 518 Z " />
<glyph glyph-name="quotesingle" unicode="'" horiz-adv-x="109" d="M155 505 C176 617 193 702 193 702 L131 699 C131 699 132 611 110 498 L155 505 Z " />
<glyph glyph-name="parenleft" unicode="(" horiz-adv-x="245" d="M340 711 C340 711 122 602 64 301 C5 0 168 -138 168 -138 L191 -112 C191 -112 61 35 112 294 C162 553 354 684 354 684 L340 711 Z " />
<glyph glyph-name="parenright" unicode=")" horiz-adv-x="246" d="M148 711 L124 689 C124 689 263 553 213 294 C162 35 -29 -107 -29 -107 L-10 -138 C-10 -138 211 -16 261 287 C310 584 148 711 148 711 L148 711 Z " />
<glyph glyph-name="asterisk" unicode="*" horiz-adv-x="261" d="M191 531 L160 402 L194 402 L214 530 L296 458 L319 491 L230 555 L344 617 L334 652 L224 581 L252 704 L218 704 L200 579 L119 651 L95 616 L182 555 L70 492 L80 456 L191 531 Z " />
<glyph glyph-name="plus" unicode="+" horiz-adv-x="429" d="M273 105 L273 303 L445 303 L447 344 L273 344 L273 536 L228 534 L228 344 L59 344 L57 303 L228 303 L228 101 L273 105 Z " />
<glyph glyph-name="comma" unicode="," horiz-adv-x="211" d="M97 95 C74 95 53 73 48 47 C44 26 53 11 67 2 C71 -1 76 -11 71 -25 C56 -64 -1 -106 -1 -106 L13 -132 C64 -99 133 -53 144 10 C151 51 135 95 97 95 L97 95 Z " />
<glyph glyph-name="hyphen" unicode="-" horiz-adv-x="251" d="M196 222 L203 261 L-13 261 L-20 222 L196 222 Z " />
<glyph glyph-name="period" unicode="." horiz-adv-x="165" d="M54 38 C54 12 73 -9 97 -9 C121 -9 142 12 142 38 C142 63 121 84 97 84 C73 84 54 63 54 38 L54 38 Z " />
<glyph glyph-name="slash" unicode="/" horiz-adv-x="318" d="M2 -60 L439 685 L399 705 L-38 -42 L2 -60 Z " />
<glyph glyph-name="zero" unicode="0" horiz-adv-x="427" d="M406 319 C451 549 401 662 280 662 C167 662 61 524 25 340 C-11 156 4 -6 150 -6 C275 -6 370 135 406 319 L406 319 Z M355 325 C324 159 275 34 158 34 C48 34 45 159 76 325 C106 490 162 624 273 624 C364 624 393 531 355 325 L355 325 Z " />
<glyph glyph-name="one" unicode="1" horiz-adv-x="427" d="M146 0 L193 0 L320 662 L96 571 L97 540 L260 594 L146 0 Z " />
<glyph glyph-name="two" unicode="2" horiz-adv-x="427" d="M7 0 L356 0 L366 39 L73 39 C73 39 375 268 417 451 C451 594 378 652 301 659 C227 666 137 628 93 597 L109 555 C152 584 207 625 272 621 C357 616 387 539 367 456 C323 269 1 29 1 29 L7 0 Z " />
<glyph glyph-name="three" unicode="3" horiz-adv-x="427" d="M321 182 C303 43 234 15 96 34 C39 42 23 58 23 58 L5 24 C5 24 50 -1 117 -6 C231 -15 354 58 370 175 C382 266 373 335 259 350 C330 361 403 419 418 496 C438 599 367 660 277 660 C210 660 162 636 122 616 L139 575 C184 601 219 623 270 621 C351 618 381 564 368 500 C350 409 261 368 209 362 C168 357 140 358 140 358 L134 320 C134 320 182 320 198 321 C299 324 332 270 321 182 L321 182 Z " />
<glyph glyph-name="four" unicode="4" horiz-adv-x="427" d="M221 0 L267 0 L301 178 L398 178 L409 214 L307 214 L393 650 L357 657 L13 217 L22 178 L255 178 L221 0 Z M330 563 L261 214 L54 214 L330 563 Z " />
<glyph glyph-name="five" unicode="5" horiz-adv-x="427" d="M90 34 C32 37 0 50 0 50 L-19 16 C-19 16 22 -6 90 -6 C237 -6 341 97 364 215 C380 297 360 418 221 418 C179 418 116 395 116 395 L191 621 L437 621 L444 655 L151 655 L61 365 L94 346 C94 346 151 386 226 377 C289 370 333 327 319 222 C303 103 231 27 90 34 L90 34 Z " />
<glyph glyph-name="six" unicode="6" horiz-adv-x="427" d="M252 395 C210 391 156 376 118 336 C183 487 297 580 403 635 C400 651 394 667 394 667 C175 578 65 379 32 217 C7 91 66 -6 169 -6 C262 -6 369 77 395 204 C421 331 351 403 252 395 L252 395 Z M78 212 C100 325 189 356 242 356 C318 356 367 299 347 202 C326 97 265 32 176 32 C103 32 57 108 78 212 L78 212 Z " />
<glyph glyph-name="seven" unicode="7" horiz-adv-x="427" d="M74 621 L360 621 C124 322 34 -6 34 -6 L84 0 C219 429 407 617 407 617 L395 655 L74 655 L74 621 Z " />
<glyph glyph-name="eight" unicode="8" horiz-adv-x="427" d="M284 344 C306 354 403 394 427 499 C448 592 379 659 287 658 C189 657 114 594 98 502 C87 438 123 379 159 359 C121 342 33 293 9 192 C-23 61 66 -6 171 -6 C273 -6 367 49 386 158 C401 246 355 308 284 344 L284 344 Z M137 495 C139 572 185 621 274 626 C346 630 400 574 387 503 C368 405 282 365 259 354 C195 386 135 422 137 495 L137 495 Z M337 162 C328 86 253 34 182 34 C88 34 41 88 54 180 C73 289 153 328 189 340 C283 297 348 255 337 162 L337 162 Z " />
<glyph glyph-name="nine" unicode="9" horiz-adv-x="427" d="M403 417 C430 556 377 655 275 662 C171 669 73 591 47 465 C22 338 93 253 192 261 C234 264 290 283 328 330 C262 178 154 77 44 16 C46 8 56 -10 56 -10 C267 83 369 257 403 417 L403 417 Z M354 444 C333 330 248 300 199 300 C125 300 86 356 98 454 C114 576 172 625 260 624 C330 623 373 548 354 444 L354 444 Z " />
<glyph glyph-name="colon" unicode=":" horiz-adv-x="165" d="M48 43 C41 12 59 -9 82 -9 C104 -9 124 10 129 36 C135 68 118 86 96 86 C73 86 55 72 48 43 L48 43 Z M111 370 C104 339 122 318 145 318 C167 318 187 337 192 363 C198 395 181 413 159 413 C136 413 118 399 111 370 L111 370 Z " />
<glyph glyph-name="semicolon" unicode=";" horiz-adv-x="165" d="M91 87 C67 91 43 72 40 40 C37 8 76 0 66 -32 C55 -65 -11 -112 -11 -112 L8 -140 C8 -140 88 -90 119 -38 C126 -27 132 -12 135 2 C143 43 127 81 91 87 L91 87 Z M120 372 C113 341 131 320 154 320 C176 320 196 339 201 365 C207 397 190 415 168 415 C145 415 127 401 120 372 L120 372 Z " />
<glyph glyph-name="less" unicode="&lt;" horiz-adv-x="407" d="M391 464 L101 253 L101 226 L391 9 L410 48 L156 242 L414 424 L391 464 Z " />
<glyph glyph-name="equal" unicode="=" horiz-adv-x="426" d="M447 374 L66 374 L63 333 L444 333 L447 374 Z M447 236 L66 236 L63 195 L444 195 L447 236 Z " />
<glyph glyph-name="greater" unicode="&gt;" horiz-adv-x="407" d="M134 465 L111 425 L369 243 L115 49 L134 10 L424 227 L424 254 L134 465 Z " />
<glyph glyph-name="question" unicode="?" horiz-adv-x="317" d="M345 448 C299 334 150 292 104 275 C79 266 91 149 91 149 L118 151 C118 151 127 228 133 246 C141 263 328 304 389 441 C431 536 382 616 293 635 C231 648 184 640 131 624 L141 589 C167 602 223 623 290 600 C364 574 367 501 345 448 L345 448 Z M43 43 C36 12 54 -9 77 -9 C99 -9 119 10 124 36 C130 68 113 86 91 86 C68 86 50 72 43 43 L43 43 Z " />
<glyph glyph-name="at" unicode="@" horiz-adv-x="662" d="M419 103 C466 103 594 142 623 284 C656 450 534 518 438 518 C298 518 122 424 75 233 C20 8 191 -55 271 -55 C359 -55 438 -3 438 -3 L424 24 C424 24 358 -20 284 -20 C122 -20 87 128 129 251 C172 377 260 483 433 483 C574 483 595 368 579 289 C570 236 512 137 454 135 C442 135 443 148 447 163 C452 182 500 368 500 368 L464 371 L452 335 C452 335 420 363 383 367 C335 372 290 351 253 285 C234 253 224 213 224 179 C224 142 237 111 265 104 C311 93 411 181 411 181 C411 181 400 137 400 133 C398 123 411 103 419 103 L419 103 Z M377 334 C415 334 441 303 441 303 C441 303 427 247 422 235 C418 223 318 127 284 143 C271 149 267 162 267 178 C267 207 281 244 288 261 C300 287 330 334 377 334 L377 334 Z " />
<glyph glyph-name="A" unicode="A" horiz-adv-x="493" d="M151 234 L327 595 C327 595 340 397 353 234 L151 234 Z M418 0 L363 658 L311 652 L-14 0 L32 -6 L133 196 L356 196 C362 113 371 3 372 -7 L418 0 Z " />
<glyph glyph-name="B" unicode="B" horiz-adv-x="488" d="M59 14 C59 14 122 -6 199 -6 C342 -6 425 70 446 178 C467 282 407 341 339 349 C385 359 465 405 482 494 C501 596 438 658 338 658 C249 658 211 647 180 641 L59 14 Z M171 361 L218 613 C218 613 273 623 326 623 C394 623 454 574 437 493 C418 405 342 361 237 361 C196 361 168 361 171 361 L171 361 Z M165 326 C165 326 208 328 258 329 C338 331 422 297 398 173 C374 48 281 30 203 30 C161 30 110 40 110 40 L165 326 Z " />
<glyph glyph-name="C" unicode="C" horiz-adv-x="469" d="M484 573 L509 607 C476 635 420 661 356 658 C244 653 86 558 42 331 C1 117 88 -6 221 -6 C306 -6 421 70 421 70 L409 97 C409 97 317 35 229 35 C138 35 47 121 88 332 C125 522 249 627 353 624 C421 622 454 599 484 573 L484 573 Z " />
<glyph glyph-name="D" unicode="D" horiz-adv-x="552" d="M61 14 C61 14 139 -10 209 -5 C364 6 501 111 549 358 C596 598 448 659 347 659 C251 659 196 642 182 638 L61 14 Z M224 615 C224 615 269 624 325 625 C429 627 537 561 498 355 C461 160 362 31 223 31 C180 31 113 45 113 45 L224 615 Z " />
<glyph glyph-name="E" unicode="E" horiz-adv-x="463" d="M57 0 L370 0 L378 37 L110 37 L165 320 L394 320 L400 353 L171 353 L222 613 L480 613 L487 652 L184 652 L57 0 Z " />
<glyph glyph-name="F" unicode="F" horiz-adv-x="471" d="M103 0 L164 320 L402 320 L408 353 L170 353 L221 613 L497 613 L504 652 L183 652 L55 -6 L103 0 Z " />
<glyph glyph-name="G" unicode="G" horiz-adv-x="525" d="M516 571 L539 605 C506 633 436 661 373 658 C260 653 95 559 51 332 C10 118 106 -6 239 -6 C324 -6 443 66 443 66 L486 284 L440 294 L400 81 C363 63 300 35 240 35 C149 35 58 121 99 332 C136 522 242 628 364 624 C430 622 482 594 516 571 L516 571 Z " />
<glyph glyph-name="H" unicode="H" horiz-adv-x="612" d="M539 653 L484 368 L175 368 L231 658 L183 653 L56 -6 L103 0 L169 336 L478 336 L411 -6 L459 0 L586 658 L539 653 Z " />
<glyph glyph-name="I" unicode="I" horiz-adv-x="258" d="M233 659 L184 652 L57 -5 L105 0 L233 659 Z " />
<glyph glyph-name="J" unicode="J" horiz-adv-x="238" d="M71 76 C43 -66 0 -111 -56 -186 C-51 -192 -40 -201 -34 -206 C69 -92 97 -21 114 62 C130 146 230 659 230 659 L184 652 L71 76 Z " />
<glyph glyph-name="K" unicode="K" horiz-adv-x="529" d="M235 365 L556 631 L525 661 L179 371 L418 -8 L460 9 L235 365 Z M54 -6 L103 0 L231 659 L183 653 L54 -6 Z " />
<glyph glyph-name="L" unicode="L" horiz-adv-x="380" d="M38 0 L348 0 L356 37 L92 37 L213 659 L164 653 L38 0 Z " />
<glyph glyph-name="M" unicode="M" horiz-adv-x="723" d="M221 600 L229 600 L298 -6 L354 0 L638 600 L645 600 L566 -4 L613 0 L694 659 L617 652 L336 58 L263 658 L190 652 L28 -4 L75 0 L221 600 Z " />
<glyph glyph-name="N" unicode="N" horiz-adv-x="596" d="M55 -6 L102 0 L212 586 L220 586 L408 -6 L463 0 L589 655 L543 652 L437 64 L429 64 L240 658 L184 652 L55 -6 Z " />
<glyph glyph-name="O" unicode="O" horiz-adv-x="588" d="M383 660 C247 660 80 531 41 332 C-6 87 120 -7 237 -7 C356 -7 534 96 579 331 C627 574 499 660 383 660 L383 660 Z M372 624 C490 624 559 518 526 329 C488 112 363 35 256 35 C162 35 47 104 93 333 C142 577 292 624 372 624 L372 624 Z " />
<glyph glyph-name="P" unicode="P" horiz-adv-x="475" d="M56 -4 L102 0 L154 270 C170 270 190 267 219 267 C230 267 240 267 251 268 C353 277 462 361 491 468 C521 586 439 666 323 657 C221 649 180 639 180 639 L56 -4 Z M162 306 L221 612 C221 612 258 621 317 621 C396 621 466 575 445 478 C417 347 344 300 226 301 C182 302 162 306 162 306 L162 306 Z " />
<glyph glyph-name="Q" unicode="Q" horiz-adv-x="594" d="M386 660 C251 660 81 532 42 333 C-5 88 124 -7 241 -7 C282 -7 329 6 373 34 L429 -71 L458 -57 L414 62 C482 119 558 199 583 328 C631 571 503 660 386 660 L386 660 Z M376 624 C494 624 563 517 530 329 C490 104 366 35 259 35 C166 35 44 105 91 333 C143 588 296 624 376 624 L376 624 Z " />
<glyph glyph-name="R" unicode="R" horiz-adv-x="516" d="M486 9 L308 288 C398 311 486 381 506 478 C534 597 460 661 355 659 C265 657 191 639 191 639 L67 -4 L114 0 L169 285 C187 285 224 280 262 282 L440 -4 L486 9 Z M231 611 C231 611 298 626 350 623 C421 619 476 582 461 482 C442 359 371 315 252 316 C209 317 175 321 175 321 L231 611 Z " />
<glyph glyph-name="S" unicode="S" horiz-adv-x="443" d="M434 573 L458 613 C427 632 376 661 312 661 C302 661 293 660 284 659 C195 649 105 568 94 479 C68 293 347 356 334 185 C327 92 287 30 184 35 C126 38 27 106 27 106 L4 74 C4 74 89 -5 186 -5 C288 -5 373 83 387 186 C413 381 124 334 141 479 C153 579 200 622 287 624 C364 626 415 589 434 573 L434 573 Z " />
<glyph glyph-name="T" unicode="T" horiz-adv-x="403" d="M453 620 L459 652 L52 652 L46 620 L233 620 L111 -3 L157 0 L278 620 L453 620 Z " />
<glyph glyph-name="U" unicode="U" horiz-adv-x="575" d="M523 654 C523 654 479 437 450 281 C422 129 392 35 254 35 C112 35 138 171 158 276 L233 659 L186 654 L108 257 C91 167 65 -6 245 -6 C396 -6 467 132 504 319 L570 659 L523 654 Z " />
<glyph glyph-name="V" unicode="V" horiz-adv-x="507" d="M175 -6 L231 0 L571 652 L524 658 L213 45 L165 656 L120 652 L175 -6 Z " />
<glyph glyph-name="W" unicode="W" horiz-adv-x="742" d="M466 -6 L527 0 L808 652 L759 658 L509 54 L493 658 L437 652 L165 68 L159 658 L114 652 L126 -6 L180 0 L450 579 L466 -6 Z " />
<glyph glyph-name="X" unicode="X" horiz-adv-x="504" d="M576 652 L524 658 L296 382 L189 658 L140 652 L264 341 L8 7 L54 -6 L286 297 L403 -6 L453 0 L318 337 L576 652 Z " />
<glyph glyph-name="Y" unicode="Y" horiz-adv-x="425" d="M237 341 L142 658 L96 652 L206 298 L146 -6 L194 0 L250 291 L501 652 L452 658 L237 341 Z " />
<glyph glyph-name="Z" unicode="Z" horiz-adv-x="459" d="M114 652 L107 614 L440 614 L-12 47 L-2 0 L373 0 L380 37 L34 37 L481 597 L470 652 L114 652 Z " />
<glyph glyph-name="bracketleft" unicode="[" horiz-adv-x="224" d="M224 674 L329 674 L335 705 L187 717 L25 -117 L177 -105 L183 -74 L78 -74 L224 674 Z " />
<glyph glyph-name="backslash" unicode="\" horiz-adv-x="319" d="M45 663 L382 -15 L414 3 L80 680 L45 663 Z " />
<glyph glyph-name="bracketright" unicode="]" horiz-adv-x="224" d="M225 674 L79 -74 L-27 -74 L-32 -105 L115 -117 L277 717 L125 705 L119 674 L225 674 Z " />
<glyph glyph-name="asciicircum" unicode="^" horiz-adv-x="429" d="M102 347 L282 589 L446 346 L482 373 L304 643 L261 642 L65 372 L102 347 Z " />
<glyph glyph-name="underscore" unicode="_" horiz-adv-x="420" d="M450 -77 L0 -77 L0 -120 L450 -120 L450 -77 Z " />
<glyph glyph-name="grave" unicode="`" horiz-adv-x="228" d="M160 587 L274 477 L295 494 L195 620 L160 587 Z " />
<glyph glyph-name="a" unicode="a" horiz-adv-x="411" d="M379 399 C379 399 317 429 265 429 C229 429 102 402 48 233 C20 142 29 -29 155 -6 C188 0 254 46 272 65 C272 61 265 -4 265 -4 L298 0 L379 399 Z M278 104 C278 104 208 38 161 31 C97 21 59 101 92 236 C118 339 179 396 263 394 C303 393 332 372 332 372 L278 104 Z " />
<glyph glyph-name="b" unicode="b" horiz-adv-x="426" d="M48 -6 L85 0 L101 56 C132 24 169 -5 207 -5 C308 -6 388 98 407 217 C425 337 383 427 309 427 C276 427 210 395 165 373 L228 695 L183 690 L48 -6 Z M159 340 C257 388 278 388 290 387 C337 383 380 326 361 214 C343 103 290 33 211 32 C160 32 111 93 111 93 L159 340 Z " />
<glyph glyph-name="c" unicode="c" horiz-adv-x="346" d="M359 396 C359 396 301 437 232 428 C171 420 82 353 52 220 C19 73 87 -18 166 -6 C223 3 300 56 300 56 L286 84 C286 84 206 39 180 35 C97 23 74 95 102 224 C131 359 192 395 247 395 C282 395 322 373 341 356 L359 396 Z " />
<glyph glyph-name="d" unicode="d" horiz-adv-x="409" d="M307 0 L445 697 L399 691 L344 410 C344 410 309 429 271 429 C161 429 84 341 59 252 C31 155 27 -6 165 -6 C199 -6 245 31 276 56 C276 42 273 -4 273 -4 L307 0 Z M284 98 C284 98 222 31 173 31 C95 32 70 119 95 227 C126 360 184 396 268 394 C311 393 338 376 338 376 L284 98 Z " />
<glyph glyph-name="e" unicode="e" horiz-adv-x="374" d="M320 259 C314 258 135 214 95 209 C114 295 145 390 238 390 C320 390 332 319 320 259 L320 259 Z M248 429 C162 429 61 310 44 180 C25 33 99 -6 166 -6 C221 -6 313 50 313 50 L310 74 C310 74 206 36 173 36 C96 36 79 92 91 180 L356 225 C379 331 353 429 248 429 L248 429 Z " />
<glyph glyph-name="f" unicode="f" horiz-adv-x="241" d="M305 612 C334 610 358 600 358 600 L373 636 C373 636 352 649 314 647 C249 643 189 594 168 487 L155 421 L79 421 L75 393 L148 385 C120 241 72 -4 72 -4 C59 -67 37 -103 -12 -99 C-41 -97 -65 -87 -65 -87 L-80 -123 C-80 -123 -59 -136 -21 -134 C44 -130 101 -81 117 -2 C117 0 117 2 192 384 L289 384 L296 421 L199 421 C209 470 216 505 217 514 C232 587 255 616 305 612 L305 612 Z " />
<glyph glyph-name="g" unicode="g" horiz-adv-x="411" d="M393 430 L354 427 L338 380 C323 405 297 424 272 427 C146 442 67 309 50 209 C29 84 68 5 168 5 C202 5 244 29 278 56 C278 56 259 -33 254 -58 C238 -142 199 -179 153 -179 C91 -179 23 -154 23 -154 L11 -177 C11 -177 76 -216 151 -216 C225 -216 278 -166 300 -51 L393 430 Z M284 93 C284 93 225 42 175 42 C97 43 74 111 95 220 C121 352 180 392 259 392 C318 392 331 337 331 337 L284 93 Z " />
<glyph glyph-name="h" unicode="h" horiz-adv-x="455" d="M342 0 C342 0 397 275 408 332 C419 390 383 440 318 424 C282 416 197 377 160 356 L226 695 L181 690 L47 -5 L90 -1 L152 315 C181 332 270 375 296 382 C363 403 369 361 358 308 L296 -5 L342 0 Z " />
<glyph glyph-name="i" unicode="i" horiz-adv-x="193" d="M47 -6 L92 0 L175 427 L131 422 L47 -6 Z M137 594 C137 571 155 552 178 552 C201 552 220 571 220 594 C220 617 201 636 178 636 C155 636 137 617 137 594 L137 594 Z " />
<glyph glyph-name="j" unicode="j" horiz-adv-x="192" d="M132 594 C132 571 150 552 173 552 C196 552 215 571 215 594 C215 617 196 636 173 636 C150 636 132 617 132 594 L132 594 Z M51 15 C29 -104 2 -134 -62 -199 C-56 -206 -46 -215 -39 -221 C75 -127 80 -55 96 26 C129 194 175 427 175 427 L131 422 L51 15 Z " />
<glyph glyph-name="k" unicode="k" horiz-adv-x="374" d="M356 10 L193 247 L406 395 L380 427 L145 254 L314 -5 L356 10 Z M49 -5 L94 -1 L230 695 L183 689 L49 -5 Z " />
<glyph glyph-name="l" unicode="l" horiz-adv-x="205" d="M183 690 C176 652 49 -6 49 -6 L94 0 L230 695 L183 690 L183 690 Z " />
<glyph glyph-name="m" unicode="m" horiz-adv-x="672" d="M560 -1 C560 -1 620 307 622 315 C636 390 587 427 537 427 C477 427 432 379 398 350 C398 395 364 427 319 427 C262 427 213 383 171 354 L175 429 L142 424 L58 -5 L102 -1 L165 319 C205 345 261 389 308 389 C340 389 360 363 353 326 C344 280 289 -5 289 -5 L332 -1 C332 -1 378 232 393 311 C430 341 469 392 520 392 C558 392 588 364 579 316 C578 311 522 27 516 -5 L560 -1 Z " />
<glyph glyph-name="n" unicode="n" horiz-adv-x="466" d="M357 -1 C357 -1 412 278 417 305 C432 381 399 429 339 429 C279 429 221 387 175 359 L179 428 L143 424 L60 -5 L105 -1 L168 323 C216 349 279 393 329 393 C368 393 383 360 374 310 C370 290 312 -5 312 -5 L357 -1 Z " />
<glyph glyph-name="o" unicode="o" horiz-adv-x="411" d="M101 214 C128 354 211 400 262 400 C337 400 371 338 348 220 C322 87 259 23 188 23 C116 23 76 87 101 214 L101 214 Z M267 433 C199 433 86 363 54 215 C24 76 82 -11 178 -11 C275 -11 368 81 396 222 C423 362 369 433 267 433 L267 433 Z " />
<glyph glyph-name="p" unicode="p" horiz-adv-x="404" d="M339 197 C312 81 276 21 194 30 C158 34 118 56 105 66 L166 369 C207 384 243 390 269 389 C346 389 365 305 339 197 L339 197 Z M272 427 C250 425 218 423 128 390 L7 -220 L50 -217 L99 32 C112 23 149 -1 182 -5 C306 -21 371 105 388 200 C413 334 365 437 272 427 L272 427 Z " />
<glyph glyph-name="q" unicode="q" horiz-adv-x="409" d="M271 39 L221 -220 L264 -217 L391 430 L354 427 L336 380 C315 401 289 422 269 427 C146 458 67 313 50 216 C28 91 64 -5 164 -5 C193 -5 238 18 271 39 L271 39 Z M280 83 C280 83 223 32 176 32 C101 33 71 100 95 224 C123 369 182 409 258 392 C287 386 330 343 330 343 L280 83 Z " />
<glyph glyph-name="r" unicode="r" horiz-adv-x="298" d="M139 260 L177 428 L130 424 L49 -4 L94 0 C94 0 96 37 119 155 C185 368 305 386 344 387 C349 403 353 417 358 433 C230 420 169 324 139 260 L139 260 Z " />
<glyph glyph-name="s" unicode="s" horiz-adv-x="318" d="M328 403 C328 403 273 430 217 431 C144 432 84 389 78 327 C72 269 116 240 175 203 C224 172 255 146 245 92 C234 35 189 29 148 29 C106 29 30 59 30 59 L19 30 C19 30 89 -4 147 -9 C200 -14 272 12 289 80 C303 136 279 183 206 228 C158 258 123 277 123 318 C123 373 177 397 221 396 C254 395 291 382 318 374 L328 403 Z " />
<glyph glyph-name="t" unicode="t" horiz-adv-x="248" d="M227 40 L100 40 L167 383 L261 383 L268 420 L174 420 L204 576 L159 569 C159 569 146 504 130 420 L61 412 L56 385 L123 385 C97 247 61 64 57 45 C51 15 75 -6 91 -6 C122 0 222 9 222 9 L227 40 Z " />
<glyph glyph-name="u" unicode="u" horiz-adv-x="433" d="M332 0 L416 427 L372 424 C365 386 329 202 311 109 C296 100 258 69 202 44 C186 37 171 33 159 33 C118 33 105 70 117 129 L175 427 L131 424 C124 386 95 240 76 144 C54 29 105 -16 167 -5 C207 3 283 66 305 83 C303 70 300 -5 300 -5 L332 0 Z " />
<glyph glyph-name="v" unicode="v" horiz-adv-x="361" d="M117 -7 L167 0 L402 420 L370 433 L151 42 L118 427 L80 422 L117 -7 Z " />
<glyph glyph-name="w" unicode="w" horiz-adv-x="515" d="M344 427 L293 427 L123 36 L119 36 L125 427 L80 422 L83 -6 L144 0 L303 360 L306 -6 L370 0 L552 418 L508 429 L346 36 L342 36 L344 427 Z " />
<glyph glyph-name="x" unicode="x" horiz-adv-x="364" d="M394 406 L363 429 L209 255 L131 429 L92 414 L179 226 L-8 17 L22 -8 L196 189 L286 -9 L323 8 L225 215 L394 406 Z " />
<glyph glyph-name="y" unicode="y" horiz-adv-x="368" d="M362 429 L171 77 L154 77 L98 427 L54 422 L121 39 L150 39 L9 -204 L47 -223 L402 412 L362 429 Z " />
<glyph glyph-name="z" unicode="z" horiz-adv-x="355" d="M315 39 L57 39 L368 391 L361 424 L95 424 L89 390 L319 390 L14 45 L22 0 L306 0 L315 39 Z " />
<glyph glyph-name="braceleft" unicode="{" horiz-adv-x="250" d="M53 319 C49 303 45 283 45 283 C79 283 122 276 110 211 C97 145 81 119 62 46 C39 -42 65 -86 120 -112 C152 -127 188 -126 188 -126 L198 -86 C114 -82 82 -28 105 40 C123 94 148 170 158 218 C172 287 114 304 114 304 C114 304 180 320 194 386 C203 432 202 516 213 570 C232 661 263 684 342 674 L351 713 C351 713 297 710 273 701 C208 677 178 648 161 563 C148 495 156 448 144 386 C131 324 83 319 53 319 L53 319 Z " />
<glyph glyph-name="bar" unicode="|" horiz-adv-x="407" d="M273 -254 L273 759 L228 759 L228 -254 L273 -254 Z " />
<glyph glyph-name="braceright" unicode="}" horiz-adv-x="250" d="M276 320 C246 320 196 324 209 386 C221 448 237 477 256 544 C280 628 252 675 197 700 C173 711 127 713 127 713 L121 674 C121 674 155 673 171 668 C218 653 235 643 221 570 C211 516 173 432 165 386 C152 320 206 304 206 304 C206 304 145 287 132 218 C123 170 126 92 115 36 C100 -41 85 -60 32 -74 C17 -78 -24 -80 -24 -80 L-35 -126 C-35 -126 21 -119 39 -112 C104 -87 154 -48 164 42 C172 114 162 145 175 211 C187 276 234 278 267 278 C267 278 275 304 276 320 L276 320 Z " />
<glyph glyph-name="asciitilde" unicode="~" horiz-adv-x="421" d="M41 179 L80 179 C80 179 88 250 140 250 C223 250 241 176 335 176 C429 176 434 303 434 303 L395 303 C395 303 388 226 331 226 C264 226 238 300 144 300 C50 300 41 179 41 179 L41 179 Z " />
<glyph glyph-name="uni00A0" unicode=" " horiz-adv-x="156" d="" />
<glyph glyph-name="exclamdown" unicode="¡" horiz-adv-x="192" d="M119 267 L9 -238 L60 -236 L153 270 L119 267 Z M198 384 C201 408 185 425 165 427 C145 429 121 411 118 385 C115 362 128 345 148 342 C170 339 194 356 198 384 L198 384 Z " />
<glyph glyph-name="cent" unicode="¢" horiz-adv-x="412" d="M414 507 C414 507 377 536 324 540 L344 638 L302 633 L283 537 C223 524 141 457 113 331 C84 201 133 115 199 105 L179 0 L221 8 L240 107 C295 121 361 167 361 167 L347 195 C347 195 279 157 248 148 L318 505 C346 502 362 485 362 485 L356 437 L381 431 L414 507 Z M163 335 C186 444 231 489 276 502 L207 146 C152 156 139 225 163 335 L163 335 Z " />
<glyph glyph-name="sterling" unicode="£" horiz-adv-x="407" d="M369 320 L203 320 C208 376 210 421 222 481 C246 607 301 626 383 626 C421 626 461 602 461 602 L477 633 C477 633 446 657 393 660 C283 666 195 578 176 484 C164 419 165 379 159 320 L66 320 L59 286 L154 286 C151 267 148 245 143 221 C119 94 53 38 53 38 L-13 28 L-19 0 L370 0 L377 37 L88 37 C88 37 166 104 188 219 C193 243 195 265 198 286 L362 286 L369 320 Z " />
<glyph glyph-name="yen" unicode="¥" horiz-adv-x="426" d="M381 182 L240 182 L252 243 L393 243 L399 276 L258 276 L261 291 L510 652 L462 658 L244 338 L143 658 L95 652 L215 298 L210 276 L72 276 L66 243 L204 243 L192 182 L54 182 L47 148 L185 148 L156 -6 L205 0 L233 148 L374 148 L381 182 Z " />
<glyph glyph-name="brokenbar" unicode="¦" horiz-adv-x="407" d="M271 328 L271 681 L230 681 L230 328 L271 328 Z M271 -178 L271 176 L230 176 L230 -178 L271 -178 Z " />
<glyph glyph-name="section" unicode="§" horiz-adv-x="349" d="M-1 -102 C-1 -102 48 -168 119 -168 C209 -168 269 -106 285 -20 C288 5 286 27 279 47 C295 63 351 115 360 190 C387 374 163 383 183 525 C194 603 251 625 300 625 C369 625 397 576 397 576 L422 602 C422 602 375 664 301 664 C211 664 151 602 139 516 C134 486 140 460 152 437 C134 421 91 375 79 303 C46 119 261 105 238 -27 C226 -100 164 -126 119 -126 C54 -126 24 -77 24 -77 L-1 -102 Z M321 188 C312 123 280 88 266 73 C218 155 100 198 115 305 C124 373 152 405 164 416 C218 339 335 290 321 188 L321 188 Z " />
<glyph glyph-name="dieresis" unicode="¨" horiz-adv-x="210" d="M150 531 C144 503 160 484 181 484 C201 484 219 502 223 525 C229 554 213 570 193 570 C173 570 157 557 150 531 L150 531 Z M295 531 C289 503 305 484 326 484 C346 484 364 502 368 525 C374 554 358 570 338 570 C318 570 302 557 295 531 L295 531 Z " />
<glyph glyph-name="copyright" unicode="©" horiz-adv-x="683" d="M478 487 C478 487 424 522 348 514 C255 504 199 433 193 350 C183 201 265 138 338 138 C400 138 478 192 478 192 L468 216 C468 216 385 178 344 178 C272 178 231 236 232 342 C232 438 299 483 366 483 C419 483 467 456 467 456 L478 487 Z M50 326 C50 496 186 634 355 634 C523 634 660 496 660 326 C660 157 523 19 355 19 C186 19 50 157 50 326 L50 326 Z M11 326 C11 140 165 -12 355 -12 C545 -12 699 140 699 326 C699 513 545 665 355 665 C165 665 11 513 11 326 L11 326 Z " />
<glyph glyph-name="ordfeminine" unicode="ª" horiz-adv-x="243" d="M255 626 C255 626 195 648 158 648 C131 648 63 639 25 519 C5 453 3 320 93 336 C116 341 163 386 176 399 C175 398 172 338 172 338 L196 340 L255 626 Z M183 434 C183 434 128 370 95 366 C50 358 36 424 58 521 C77 594 118 621 163 622 C191 622 219 607 219 607 L183 434 Z " />
<glyph glyph-name="guillemotleft" unicode="«" horiz-adv-x="323" d="M199 386 L48 247 L43 222 L138 58 L170 76 L101 228 L224 367 L199 386 Z M332 386 L182 247 L177 222 L272 58 L303 76 L235 228 L357 367 L332 386 Z " />
<glyph glyph-name="logicalnot" unicode="¬" horiz-adv-x="407" d="M53 272 L51 233 L398 233 L398 38 L439 44 L439 272 L53 272 Z " />
<glyph glyph-name="registered" unicode="®" horiz-adv-x="381" d="M294 394 L225 471 C248 477 269 502 270 531 C271 567 243 586 208 586 C176 585 144 579 144 579 L144 386 L171 387 L171 468 C175 468 186 467 199 467 L268 385 L294 394 Z M170 562 C170 562 194 564 208 564 C226 564 246 553 246 529 C245 503 230 486 198 486 C187 486 171 487 171 487 L170 562 Z M47 481 C47 569 118 639 204 639 C291 639 362 569 362 481 C362 393 291 322 204 322 C118 322 47 393 47 481 L47 481 Z M18 481 C18 380 101 297 204 297 C307 297 391 380 391 481 C391 582 307 665 204 665 C101 665 18 582 18 481 L18 481 Z " />
<glyph glyph-name="macron" unicode="¯" horiz-adv-x="234" d="M255 547 L82 547 L74 508 L247 508 L255 547 Z " />
<glyph glyph-name="degree" unicode="°" horiz-adv-x="313" d="M151 565 C151 600 178 629 210 629 C243 629 269 600 269 565 C269 529 243 500 210 500 C178 500 151 529 151 565 L151 565 Z M102 565 C102 510 150 466 210 466 C270 466 319 510 319 565 C319 619 270 663 210 663 C150 663 102 619 102 565 L102 565 Z " />
<glyph glyph-name="plusminus" unicode="±" horiz-adv-x="424" d="M249 225 L249 374 L432 374 L435 415 L249 415 L249 578 L203 576 L203 415 L24 415 L22 374 L203 374 L203 221 L249 225 Z M434 156 L23 156 L21 115 L431 115 L434 156 Z " />
<glyph glyph-name="twosuperior" unicode="²" horiz-adv-x="254" d="M26 442 L210 442 L219 478 L64 478 C64 478 212 573 233 661 C249 730 201 759 162 762 C122 765 75 741 53 724 L66 698 C66 698 111 728 151 728 C195 728 203 693 193 658 C172 579 20 472 20 472 L26 442 Z " />
<glyph glyph-name="threesuperior" unicode="³" horiz-adv-x="254" d="M181 528 C173 470 132 459 66 467 C42 470 34 473 34 473 L19 445 C19 445 43 438 76 436 C132 431 214 467 222 524 C229 568 198 605 138 609 C173 615 224 643 233 681 C243 729 212 761 156 761 C124 761 75 749 52 739 L59 719 C59 719 119 739 150 739 C190 739 203 709 198 682 C189 646 138 625 117 623 C101 621 81 621 81 621 L76 590 L103 590 C158 590 187 564 181 528 L181 528 Z " />
<glyph glyph-name="acute" unicode="´" horiz-adv-x="228" d="M137 500 L154 482 L289 586 L259 621 L137 500 Z " />
<glyph glyph-name="mu" unicode="µ" horiz-adv-x="420" d="M347 1 L431 427 L392 423 C385 384 350 202 332 109 C318 100 274 75 218 50 C202 43 187 39 175 39 C134 39 115 75 127 135 L184 427 L145 423 L22 -217 L60 -207 L109 45 C123 0 153 -5 184 1 C224 8 306 69 327 86 C325 73 321 -5 321 -5 L347 1 Z " />
<glyph glyph-name="paragraph" unicode="¶" horiz-adv-x="432" d="M546 638 C546 638 502 638 393 638 C269 638 113 602 84 451 C55 300 155 236 260 236 L189 -134 L234 -129 L377 601 L440 601 L296 -132 L340 -127 L483 601 L537 601 L546 638 Z " />
<glyph glyph-name="periodcentered" unicode="·" horiz-adv-x="165" d="M68 262 C68 236 87 215 111 215 C135 215 156 236 156 262 C156 287 135 308 111 308 C87 308 68 287 68 262 L68 262 Z " />
<glyph glyph-name="cedilla" unicode="¸" horiz-adv-x="225" d="M151 1 L78 -66 L79 -88 C79 -88 130 -89 123 -127 C115 -165 46 -172 46 -172 L45 -199 C45 -199 149 -184 161 -126 C172 -75 121 -65 121 -65 L189 3 L151 1 Z " />
<glyph glyph-name="onesuperior" unicode="¹" horiz-adv-x="254" d="M96 449 L133 449 L197 769 L56 714 L62 687 L148 711 L96 449 Z " />
<glyph glyph-name="ordmasculine" unicode="º" horiz-adv-x="310" d="M81 491 C98 584 156 615 194 615 C250 615 275 574 261 495 C244 407 198 364 144 364 C92 364 65 407 81 491 L81 491 Z M199 649 C148 649 67 598 45 492 C22 392 64 330 137 330 C209 330 277 397 297 497 C316 597 276 649 199 649 L199 649 Z " />
<glyph glyph-name="guillemotright" unicode="»" horiz-adv-x="322" d="M239 390 L207 371 L279 231 L151 83 L176 58 L331 212 L336 237 L239 390 Z M106 390 L73 371 L145 231 L18 83 L43 58 L198 212 L203 237 L106 390 Z " />
<glyph glyph-name="onequarter" unicode="¼" horiz-adv-x="579" d="M518 666 L70 -5 L95 -20 L546 652 L518 666 Z M518 111 L463 111 L503 314 L467 318 L282 110 L288 79 L420 79 L404 -6 L442 0 L457 79 L507 79 L518 111 Z M320 110 L456 260 L426 110 L320 110 Z M152 343 L189 343 L253 663 L112 608 L118 581 L204 605 L152 343 Z " />
<glyph glyph-name="onehalf" unicode="½" horiz-adv-x="579" d="M516 666 L68 -5 L93 -20 L544 652 L516 666 Z M322 0 L506 0 L515 36 L360 36 C360 36 508 131 529 219 C545 288 502 317 463 320 C423 323 378 299 356 282 L369 256 C369 256 413 287 447 286 C491 284 499 251 489 216 C468 137 316 30 316 30 L322 0 Z M160 343 L197 343 L261 663 L120 608 L126 581 L212 605 L160 343 Z " />
<glyph glyph-name="threequarters" unicode="¾" horiz-adv-x="579" d="M536 666 L89 -5 L114 -20 L565 652 L536 666 Z M537 111 L482 111 L522 314 L486 318 L301 110 L307 79 L439 79 L423 -6 L461 0 L476 79 L526 79 L537 111 Z M339 110 L475 260 L445 110 L339 110 Z M245 425 C237 367 196 356 130 364 C106 367 98 370 98 370 L83 342 C83 342 107 335 140 333 C196 328 278 364 286 421 C293 465 262 502 202 506 C237 512 288 540 297 578 C307 626 276 658 220 658 C188 658 139 646 116 636 L123 616 C123 616 183 636 214 636 C254 636 267 606 262 579 C253 543 202 522 181 520 C165 518 145 518 145 518 L140 487 L167 487 C222 487 251 461 245 425 L245 425 Z " />
<glyph glyph-name="questiondown" unicode="¿" horiz-adv-x="317" d="M63 -69 C85 51 222 123 264 149 C286 163 251 275 251 275 L225 267 C225 267 232 190 229 171 C225 153 50 75 18 -72 C-4 -173 61 -242 152 -242 C215 -242 260 -225 308 -198 L291 -166 C268 -184 218 -216 147 -207 C70 -197 52 -126 63 -69 L63 -69 Z M298 381 C305 412 287 433 264 433 C242 433 222 414 217 388 C211 356 228 338 250 338 C273 338 291 352 298 381 L298 381 Z " />
<glyph glyph-name="Agrave" unicode="À" horiz-adv-x="493" d="M151 234 L327 595 C327 595 340 397 353 234 L151 234 Z M418 0 L363 658 L311 652 L-14 0 L32 -6 L133 196 L356 196 C362 113 371 3 372 -7 L418 0 Z M255 815 L369 705 L390 722 L290 848 L255 815 Z " />
<glyph glyph-name="Aacute" unicode="Á" horiz-adv-x="493" d="M151 234 L327 595 C327 595 340 397 353 234 L151 234 Z M418 0 L363 658 L311 652 L-14 0 L32 -6 L133 196 L356 196 C362 113 371 3 372 -7 L418 0 Z M283 728 L300 710 L435 814 L405 849 L283 728 Z " />
<glyph glyph-name="Acircumflex" unicode="Â" horiz-adv-x="493" d="M151 234 L327 595 C327 595 340 397 353 234 L151 234 Z M418 0 L363 658 L311 652 L-14 0 L32 -6 L133 196 L356 196 C362 113 371 3 372 -7 L418 0 Z M344 790 C363 762 392 724 408 699 C416 706 427 710 434 717 C415 753 384 799 367 832 C359 832 342 832 333 832 C300 797 258 757 222 717 C226 710 235 706 242 699 C270 725 316 764 344 790 L344 790 Z " />
<glyph glyph-name="Atilde" unicode="Ã" horiz-adv-x="493" d="M151 234 L327 595 C327 595 340 397 353 234 L151 234 Z M418 0 L363 658 L311 652 L-14 0 L32 -6 L133 196 L356 196 C362 113 371 3 372 -7 L418 0 Z M236 732 L266 729 C266 729 273 774 302 774 C331 774 352 718 391 718 C431 718 454 761 463 809 L433 811 C423 766 410 762 398 762 C362 762 354 817 308 817 C276 817 250 787 236 732 L236 732 Z " />
<glyph glyph-name="Adieresis" unicode="Ä" horiz-adv-x="493" d="M151 234 L327 595 C327 595 340 397 353 234 L151 234 Z M418 0 L363 658 L311 652 L-14 0 L32 -6 L133 196 L356 196 C362 113 371 3 372 -7 L418 0 Z M235 759 C229 731 245 712 266 712 C286 712 304 730 308 753 C314 782 298 798 278 798 C258 798 242 785 235 759 L235 759 Z M380 759 C374 731 390 712 411 712 C431 712 449 730 453 753 C459 782 443 798 423 798 C403 798 387 785 380 759 L380 759 Z " />
<glyph glyph-name="Aring" unicode="Å" horiz-adv-x="493" d="M151 234 L327 595 C327 595 340 397 353 234 L151 234 Z M418 0 L363 658 L311 652 L-14 0 L32 -6 L133 196 L356 196 C362 113 371 3 372 -7 L418 0 Z M297 793 C303 821 327 843 351 843 C374 843 389 821 383 793 C378 766 355 743 332 743 C308 743 292 766 297 793 L297 793 Z M261 798 C253 753 285 711 330 711 C373 711 412 742 420 787 C429 832 403 875 352 875 C307 875 270 843 261 798 L261 798 Z " />
<glyph glyph-name="AE" unicode="Æ" horiz-adv-x="788" d="M716 99 L659 37 L418 37 L473 321 L708 321 L714 353 L479 353 L530 613 L804 613 L811 652 L480 652 L-2 0 L39 -6 L190 197 L405 197 L367 0 L684 0 L739 88 L716 99 Z M217 236 L482 592 L412 236 L217 236 Z " />
<glyph glyph-name="Ccedilla" unicode="Ç" horiz-adv-x="469" d="M484 573 L509 607 C476 635 420 661 356 658 C244 653 86 558 42 331 C1 117 88 -6 221 -6 C306 -6 421 70 421 70 L409 97 C409 97 317 35 229 35 C138 35 47 121 88 332 C125 522 249 627 353 624 C421 622 454 599 484 573 L484 573 Z M227 1 L154 -66 L155 -88 C155 -88 206 -89 199 -127 C191 -165 122 -172 122 -172 L121 -199 C121 -199 225 -184 237 -126 C248 -75 197 -65 197 -65 L265 3 L227 1 Z " />
<glyph glyph-name="Egrave" unicode="È" horiz-adv-x="463" d="M57 0 L370 0 L378 37 L110 37 L165 320 L394 320 L400 353 L171 353 L222 613 L480 613 L487 652 L184 652 L57 0 Z M289 815 L403 705 L424 722 L324 848 L289 815 Z " />
<glyph glyph-name="Eacute" unicode="É" horiz-adv-x="463" d="M57 0 L370 0 L378 37 L110 37 L165 320 L394 320 L400 353 L171 353 L222 613 L480 613 L487 652 L184 652 L57 0 Z M303 728 L320 710 L455 814 L425 849 L303 728 Z " />
<glyph glyph-name="Ecircumflex" unicode="Ê" horiz-adv-x="463" d="M57 0 L370 0 L378 37 L110 37 L165 320 L394 320 L400 353 L171 353 L222 613 L480 613 L487 652 L184 652 L57 0 Z M372 790 C391 762 420 724 436 699 C444 706 455 710 462 717 C443 753 412 799 395 832 C387 832 370 832 361 832 C328 797 286 757 250 717 C254 710 263 706 270 699 C298 725 344 764 372 790 L372 790 Z " />
<glyph glyph-name="Edieresis" unicode="Ë" horiz-adv-x="463" d="M57 0 L370 0 L378 37 L110 37 L165 320 L394 320 L400 353 L171 353 L222 613 L480 613 L487 652 L184 652 L57 0 Z M240 759 C234 731 250 712 271 712 C291 712 309 730 313 753 C319 782 303 798 283 798 C263 798 247 785 240 759 L240 759 Z M385 759 C379 731 395 712 416 712 C436 712 454 730 458 753 C464 782 448 798 428 798 C408 798 392 785 385 759 L385 759 Z " />
<glyph glyph-name="Igrave" unicode="Ì" horiz-adv-x="258" d="M233 659 L184 652 L57 -5 L105 0 L233 659 Z M146 815 L260 705 L281 722 L181 848 L146 815 Z " />
<glyph glyph-name="Iacute" unicode="Í" horiz-adv-x="258" d="M233 659 L184 652 L57 -5 L105 0 L233 659 Z M181 728 L198 710 L333 814 L303 849 L181 728 Z " />
<glyph glyph-name="Icircumflex" unicode="Î" horiz-adv-x="258" d="M233 659 L184 652 L57 -5 L105 0 L233 659 Z M244 790 C263 762 292 724 308 699 C316 706 327 710 334 717 C315 753 284 799 267 832 C259 832 242 832 233 832 C200 797 158 757 122 717 C126 710 135 706 142 699 C170 725 216 764 244 790 L244 790 Z " />
<glyph glyph-name="Idieresis" unicode="Ï" horiz-adv-x="258" d="M233 659 L184 652 L57 -5 L105 0 L233 659 Z M111 759 C105 731 121 712 142 712 C162 712 180 730 184 753 C190 782 174 798 154 798 C134 798 118 785 111 759 L111 759 Z M256 759 C250 731 266 712 287 712 C307 712 325 730 329 753 C335 782 319 798 299 798 C279 798 263 785 256 759 L256 759 Z " />
<glyph glyph-name="Eth" unicode="Ð" horiz-adv-x="553" d="M60 15 C60 15 151 -5 203 -6 C344 -9 503 108 551 355 C598 595 448 658 347 658 C245 658 180 639 180 639 L124 341 L67 341 L61 309 L118 309 L60 15 Z M339 309 L345 341 L167 341 L220 613 C220 613 272 622 330 625 C436 630 540 561 500 355 C459 144 369 31 221 31 C176 31 110 45 110 45 L161 309 L339 309 Z " />
<glyph glyph-name="Ntilde" unicode="Ñ" horiz-adv-x="596" d="M55 -6 L102 0 L212 586 L220 586 L408 -6 L463 0 L589 655 L543 652 L437 64 L429 64 L240 658 L184 652 L55 -6 Z M273 732 L303 729 C303 729 310 774 339 774 C368 774 389 718 428 718 C468 718 491 761 500 809 L470 811 C460 766 447 762 435 762 C399 762 391 817 345 817 C313 817 287 787 273 732 L273 732 Z " />
<glyph glyph-name="Ograve" unicode="Ò" horiz-adv-x="588" d="M383 660 C247 660 80 531 41 332 C-6 87 120 -7 237 -7 C356 -7 534 96 579 331 C627 574 499 660 383 660 L383 660 Z M372 624 C490 624 559 518 526 329 C488 112 363 35 256 35 C162 35 47 104 93 333 C142 577 292 624 372 624 L372 624 Z M315 815 L429 705 L450 722 L350 848 L315 815 Z " />
<glyph glyph-name="Oacute" unicode="Ó" horiz-adv-x="588" d="M383 660 C247 660 80 531 41 332 C-6 87 120 -7 237 -7 C356 -7 534 96 579 331 C627 574 499 660 383 660 L383 660 Z M372 624 C490 624 559 518 526 329 C488 112 363 35 256 35 C162 35 47 104 93 333 C142 577 292 624 372 624 L372 624 Z M334 728 L351 710 L486 814 L456 849 L334 728 Z " />
<glyph glyph-name="Ocircumflex" unicode="Ô" horiz-adv-x="588" d="M383 660 C247 660 80 531 41 332 C-6 87 120 -7 237 -7 C356 -7 534 96 579 331 C627 574 499 660 383 660 L383 660 Z M372 624 C490 624 559 518 526 329 C488 112 363 35 256 35 C162 35 47 104 93 333 C142 577 292 624 372 624 L372 624 Z M409 790 C428 762 457 724 473 699 C481 706 492 710 499 717 C480 753 449 799 432 832 C424 832 407 832 398 832 C365 797 323 757 287 717 C291 710 300 706 307 699 C335 725 381 764 409 790 L409 790 Z " />
<glyph glyph-name="Otilde" unicode="Õ" horiz-adv-x="588" d="M383 660 C247 660 80 531 41 332 C-6 87 120 -7 237 -7 C356 -7 534 96 579 331 C627 574 499 660 383 660 L383 660 Z M372 624 C490 624 559 518 526 329 C488 112 363 35 256 35 C162 35 47 104 93 333 C142 577 292 624 372 624 L372 624 Z M286 732 L316 729 C316 729 323 774 352 774 C381 774 402 718 441 718 C481 718 504 761 513 809 L483 811 C473 766 460 762 448 762 C412 762 404 817 358 817 C326 817 300 787 286 732 L286 732 Z " />
<glyph glyph-name="Odieresis" unicode="Ö" horiz-adv-x="588" d="M383 660 C247 660 80 531 41 332 C-6 87 120 -7 237 -7 C356 -7 534 96 579 331 C627 574 499 660 383 660 L383 660 Z M372 624 C490 624 559 518 526 329 C488 112 363 35 256 35 C162 35 47 104 93 333 C142 577 292 624 372 624 L372 624 Z M303 759 C297 731 313 712 334 712 C354 712 372 730 376 753 C382 782 366 798 346 798 C326 798 310 785 303 759 L303 759 Z M448 759 C442 731 458 712 479 712 C499 712 517 730 521 753 C527 782 511 798 491 798 C471 798 455 785 448 759 L448 759 Z " />
<glyph glyph-name="multiply" unicode="×" horiz-adv-x="407" d="M46 129 L217 294 L390 130 L417 157 L247 323 L409 479 L380 509 L218 351 L57 509 L27 477 L188 322 L20 158 L46 129 Z " />
<glyph glyph-name="Oslash" unicode="Ø" horiz-adv-x="631" d="M556 583 C519 638 466 659 404 659 C269 659 115 531 76 332 C55 224 63 142 92 90 L-4 -8 L15 -29 L104 66 C142 13 200 -8 259 -8 C378 -8 538 102 584 338 C604 438 596 510 571 560 L662 655 L641 676 L556 583 Z M393 622 C453 622 497 601 520 546 L128 130 C107 176 103 238 121 332 C165 560 313 622 393 622 L393 622 Z M277 33 C227 33 174 53 142 105 L530 516 C544 458 544 407 530 328 C493 123 384 33 277 33 L277 33 Z " />
<glyph glyph-name="Ugrave" unicode="Ù" horiz-adv-x="575" d="M523 654 C523 654 479 437 450 281 C422 129 392 35 254 35 C112 35 138 171 158 276 L233 659 L186 654 L108 257 C91 167 65 -6 245 -6 C396 -6 467 132 504 319 L570 659 L523 654 Z M328 815 L442 705 L463 722 L363 848 L328 815 Z " />
<glyph glyph-name="Uacute" unicode="Ú" horiz-adv-x="575" d="M523 654 C523 654 479 437 450 281 C422 129 392 35 254 35 C112 35 138 171 158 276 L233 659 L186 654 L108 257 C91 167 65 -6 245 -6 C396 -6 467 132 504 319 L570 659 L523 654 Z M340 728 L357 710 L492 814 L462 849 L340 728 Z " />
<glyph glyph-name="Ucircumflex" unicode="Û" horiz-adv-x="575" d="M523 654 C523 654 479 437 450 281 C422 129 392 35 254 35 C112 35 138 171 158 276 L233 659 L186 654 L108 257 C91 167 65 -6 245 -6 C396 -6 467 132 504 319 L570 659 L523 654 Z M407 790 C426 762 455 724 471 699 C479 706 490 710 497 717 C478 753 447 799 430 832 C422 832 405 832 396 832 C363 797 321 757 285 717 C289 710 298 706 305 699 C333 725 379 764 407 790 L407 790 Z " />
<glyph glyph-name="Udieresis" unicode="Ü" horiz-adv-x="575" d="M523 654 C523 654 479 437 450 281 C422 129 392 35 254 35 C112 35 138 171 158 276 L233 659 L186 654 L108 257 C91 167 65 -6 245 -6 C396 -6 467 132 504 319 L570 659 L523 654 Z M284 759 C278 731 294 712 315 712 C335 712 353 730 357 753 C363 782 347 798 327 798 C307 798 291 785 284 759 L284 759 Z M429 759 C423 731 439 712 460 712 C480 712 498 730 502 753 C508 782 492 798 472 798 C452 798 436 785 429 759 L429 759 Z " />
<glyph glyph-name="Yacute" unicode="Ý" horiz-adv-x="436" d="M267 341 L172 658 L126 652 L236 298 L176 -6 L224 0 L280 291 L531 652 L482 658 L267 341 Z M285 727 L302 709 L437 813 L407 848 L285 727 Z " />
<glyph glyph-name="Thorn" unicode="Þ" horiz-adv-x="452" d="M101 2 L128 141 C144 141 169 139 200 139 C325 139 429 241 453 350 C479 470 393 534 292 531 C256 530 238 524 201 518 L229 663 L185 654 L58 -3 L101 2 Z M135 177 L195 486 C195 486 249 496 300 496 C369 496 430 455 413 351 C394 236 326 172 202 174 C160 174 139 177 135 177 L135 177 Z " />
<glyph glyph-name="germandbls" unicode="ß" horiz-adv-x="437" d="M176 405 C208 571 248 628 334 628 C417 628 419 554 402 470 C379 461 299 440 283 357 C267 274 316 235 353 214 C380 199 405 176 399 132 C388 51 332 35 295 35 C247 35 210 78 210 78 L180 45 C180 45 222 -7 294 -7 C367 -7 429 44 440 127 C450 196 412 237 372 262 C348 277 316 294 320 338 C329 411 392 447 443 465 C461 558 443 662 341 662 C202 662 149 492 135 420 L54 0 L98 0 L176 405 Z " />
<glyph glyph-name="agrave" unicode="à" horiz-adv-x="411" d="M379 399 C379 399 317 429 265 429 C229 429 102 402 48 233 C20 142 29 -29 155 -6 C188 0 254 46 272 65 C272 61 265 -4 265 -4 L298 0 L379 399 Z M278 104 C278 104 208 38 161 31 C97 21 59 101 92 236 C118 339 179 396 263 394 C303 393 332 372 332 372 L278 104 Z M210 587 L324 477 L345 494 L245 620 L210 587 Z " />
<glyph glyph-name="aacute" unicode="á" horiz-adv-x="411" d="M379 399 C379 399 317 429 265 429 C229 429 102 402 48 233 C20 142 29 -29 155 -6 C188 0 254 46 272 65 C272 61 265 -4 265 -4 L298 0 L379 399 Z M278 104 C278 104 208 38 161 31 C97 21 59 101 92 236 C118 339 179 396 263 394 C303 393 332 372 332 372 L278 104 Z M212 500 L229 482 L364 586 L334 621 L212 500 Z " />
<glyph glyph-name="acircumflex" unicode="â" horiz-adv-x="411" d="M379 399 C379 399 317 429 265 429 C229 429 102 402 48 233 C20 142 29 -29 155 -6 C188 0 254 46 272 65 C272 61 265 -4 265 -4 L298 0 L379 399 Z M278 104 C278 104 208 38 161 31 C97 21 59 101 92 236 C118 339 179 396 263 394 C303 393 332 372 332 372 L278 104 Z M290 562 C309 534 338 496 354 471 C362 478 373 482 380 489 C361 525 330 571 313 604 C305 604 288 604 279 604 C246 569 204 529 168 489 C172 482 181 478 188 471 C216 497 262 536 290 562 L290 562 Z " />
<glyph glyph-name="atilde" unicode="ã" horiz-adv-x="411" d="M379 399 C379 399 317 429 265 429 C229 429 102 402 48 233 C20 142 29 -29 155 -6 C188 0 254 46 272 65 C272 61 265 -4 265 -4 L298 0 L379 399 Z M278 104 C278 104 208 38 161 31 C97 21 59 101 92 236 C118 339 179 396 263 394 C303 393 332 372 332 372 L278 104 Z M152 504 L182 501 C182 501 189 546 218 546 C247 546 268 490 307 490 C347 490 370 533 379 581 L349 583 C339 538 326 534 314 534 C278 534 270 589 224 589 C192 589 166 559 152 504 L152 504 Z " />
<glyph glyph-name="adieresis" unicode="ä" horiz-adv-x="411" d="M379 399 C379 399 317 429 265 429 C229 429 102 402 48 233 C20 142 29 -29 155 -6 C188 0 254 46 272 65 C272 61 265 -4 265 -4 L298 0 L379 399 Z M278 104 C278 104 208 38 161 31 C97 21 59 101 92 236 C118 339 179 396 263 394 C303 393 332 372 332 372 L278 104 Z M161 531 C155 503 171 484 192 484 C212 484 230 502 234 525 C240 554 224 570 204 570 C184 570 168 557 161 531 L161 531 Z M306 531 C300 503 316 484 337 484 C357 484 375 502 379 525 C385 554 369 570 349 570 C329 570 313 557 306 531 L306 531 Z " />
<glyph glyph-name="aring" unicode="å" horiz-adv-x="411" d="M379 399 C379 399 317 429 265 429 C229 429 102 402 48 233 C20 142 29 -29 155 -6 C188 0 254 46 272 65 C272 61 265 -4 265 -4 L298 0 L379 399 Z M278 104 C278 104 208 38 161 31 C97 21 59 101 92 236 C118 339 179 396 263 394 C303 393 332 372 332 372 L278 104 Z M234 565 C240 593 264 615 288 615 C311 615 326 593 320 565 C315 538 292 515 269 515 C245 515 229 538 234 565 L234 565 Z M198 570 C190 525 222 483 267 483 C310 483 349 514 357 559 C366 604 340 647 289 647 C244 647 207 615 198 570 L198 570 Z " />
<glyph glyph-name="ae" unicode="æ" horiz-adv-x="619" d="M497 429 C454 429 408 400 370 354 L379 399 C379 399 298 429 246 429 C210 429 114 418 60 249 C32 158 29 -29 155 -6 C185 0 266 61 294 96 C306 12 362 -6 415 -6 C470 -6 562 50 562 50 L559 74 C559 74 455 36 422 36 C345 36 328 92 340 180 L605 225 C628 331 602 429 497 429 L497 429 Z M278 121 C278 121 208 38 161 31 C97 21 71 117 104 252 C130 355 188 392 252 394 C292 395 332 372 332 372 L278 121 Z M569 259 C563 258 384 214 344 209 C363 295 394 390 487 390 C569 390 581 319 569 259 L569 259 Z " />
<glyph glyph-name="ccedilla" unicode="ç" horiz-adv-x="346" d="M359 396 C359 396 301 437 232 428 C171 420 82 353 52 220 C19 73 87 -18 166 -6 C223 3 300 56 300 56 L286 84 C286 84 206 39 180 35 C97 23 74 95 102 224 C131 359 192 395 247 395 C282 395 322 373 341 356 L359 396 Z M155 1 L82 -66 L83 -88 C83 -88 134 -89 127 -127 C119 -165 50 -172 50 -172 L49 -199 C49 -199 153 -184 165 -126 C176 -75 125 -65 125 -65 L193 3 L155 1 Z " />
<glyph glyph-name="egrave" unicode="è" horiz-adv-x="374" d="M320 259 C314 258 135 214 95 209 C114 295 145 390 238 390 C320 390 332 319 320 259 L320 259 Z M248 429 C162 429 61 310 44 180 C25 33 99 -6 166 -6 C221 -6 313 50 313 50 L310 74 C310 74 206 36 173 36 C96 36 79 92 91 180 L356 225 C379 331 353 429 248 429 L248 429 Z M213 587 L327 477 L348 494 L248 620 L213 587 Z " />
<glyph glyph-name="eacute" unicode="é" horiz-adv-x="374" d="M320 259 C314 258 135 214 95 209 C114 295 145 390 238 390 C320 390 332 319 320 259 L320 259 Z M248 429 C162 429 61 310 44 180 C25 33 99 -6 166 -6 C221 -6 313 50 313 50 L310 74 C310 74 206 36 173 36 C96 36 79 92 91 180 L356 225 C379 331 353 429 248 429 L248 429 Z M186 500 L203 482 L338 586 L308 621 L186 500 Z " />
<glyph glyph-name="ecircumflex" unicode="ê" horiz-adv-x="374" d="M320 259 C314 258 135 214 95 209 C114 295 145 390 238 390 C320 390 332 319 320 259 L320 259 Z M248 429 C162 429 61 310 44 180 C25 33 99 -6 166 -6 C221 -6 313 50 313 50 L310 74 C310 74 206 36 173 36 C96 36 79 92 91 180 L356 225 C379 331 353 429 248 429 L248 429 Z M281 562 C300 534 329 496 345 471 C353 478 364 482 371 489 C352 525 321 571 304 604 C296 604 279 604 270 604 C237 569 195 529 159 489 C163 482 172 478 179 471 C207 497 253 536 281 562 L281 562 Z " />
<glyph glyph-name="edieresis" unicode="ë" horiz-adv-x="374" d="M320 259 C314 258 135 214 95 209 C114 295 145 390 238 390 C320 390 332 319 320 259 L320 259 Z M248 429 C162 429 61 310 44 180 C25 33 99 -6 166 -6 C221 -6 313 50 313 50 L310 74 C310 74 206 36 173 36 C96 36 79 92 91 180 L356 225 C379 331 353 429 248 429 L248 429 Z M159 531 C153 503 169 484 190 484 C210 484 228 502 232 525 C238 554 222 570 202 570 C182 570 166 557 159 531 L159 531 Z M304 531 C298 503 314 484 335 484 C355 484 373 502 377 525 C383 554 367 570 347 570 C327 570 311 557 304 531 L304 531 Z " />
<glyph glyph-name="igrave" unicode="ì" horiz-adv-x="193" d="M132 424 L47 -6 L92 0 L175 427 L132 424 Z M68 587 L182 477 L203 494 L103 620 L68 587 Z " />
<glyph glyph-name="iacute" unicode="í" horiz-adv-x="193" d="M132 424 L47 -6 L92 0 L175 427 L132 424 Z M85 500 L102 482 L237 586 L207 621 L85 500 Z " />
<glyph glyph-name="icircumflex" unicode="î" horiz-adv-x="193" d="M132 424 L47 -6 L92 0 L175 427 L132 424 Z M166 562 C185 534 214 496 230 471 C238 478 249 482 256 489 C237 525 206 571 189 604 C181 604 164 604 155 604 C122 569 80 529 44 489 C48 482 57 478 64 471 C92 497 138 536 166 562 L166 562 Z " />
<glyph glyph-name="idieresis" unicode="ï" horiz-adv-x="193" d="M132 424 L47 -6 L92 0 L175 427 L132 424 Z M45 531 C39 503 55 484 76 484 C96 484 114 502 118 525 C124 554 108 570 88 570 C68 570 52 557 45 531 L45 531 Z M190 531 C184 503 200 484 221 484 C241 484 259 502 263 525 C269 554 253 570 233 570 C213 570 197 557 190 531 L190 531 Z " />
<glyph glyph-name="eth" unicode="ð" horiz-adv-x="401" d="M177 689 L162 656 C162 656 231 647 290 586 L186 512 L203 483 L311 564 C344 518 368 458 360 355 C335 401 298 427 243 427 C172 427 60 374 29 230 C-1 94 56 -7 157 -7 C306 -7 372 142 393 270 C414 398 407 510 346 589 L436 658 L420 683 L325 612 C290 648 241 674 177 689 L177 689 Z M166 26 C91 26 48 89 72 213 C98 349 185 394 238 394 C317 394 355 330 333 215 C308 85 241 26 166 26 L166 26 Z " />
<glyph glyph-name="ntilde" unicode="ñ" horiz-adv-x="475" d="M359 -1 C359 -1 414 278 419 305 C434 381 401 429 341 429 C281 429 223 387 177 359 L181 428 L145 424 L62 -5 L107 -1 L170 323 C218 349 281 393 331 393 C370 393 385 360 376 310 C372 290 314 -5 314 -5 L359 -1 Z M213 504 L243 501 C243 501 250 546 279 546 C308 546 329 490 368 490 C408 490 431 533 440 581 L410 583 C400 538 387 534 375 534 C339 534 331 589 285 589 C253 589 227 559 213 504 L213 504 Z " />
<glyph glyph-name="ograve" unicode="ò" horiz-adv-x="409" d="M99 214 C126 354 209 400 260 400 C335 400 369 338 346 220 C320 87 257 23 186 23 C114 23 74 87 99 214 L99 214 Z M265 433 C197 433 84 363 52 215 C22 76 80 -11 176 -11 C273 -11 366 81 394 222 C421 362 367 433 265 433 L265 433 Z M232 587 L346 477 L367 494 L267 620 L232 587 Z " />
<glyph glyph-name="oacute" unicode="ó" horiz-adv-x="409" d="M99 214 C126 354 209 400 260 400 C335 400 369 338 346 220 C320 87 257 23 186 23 C114 23 74 87 99 214 L99 214 Z M265 433 C197 433 84 363 52 215 C22 76 80 -11 176 -11 C273 -11 366 81 394 222 C421 362 367 433 265 433 L265 433 Z M243 500 L260 482 L395 586 L365 621 L243 500 Z " />
<glyph glyph-name="ocircumflex" unicode="ô" horiz-adv-x="409" d="M99 214 C126 354 209 400 260 400 C335 400 369 338 346 220 C320 87 257 23 186 23 C114 23 74 87 99 214 L99 214 Z M265 433 C197 433 84 363 52 215 C22 76 80 -11 176 -11 C273 -11 366 81 394 222 C421 362 367 433 265 433 L265 433 Z M315 562 C334 534 363 496 379 471 C387 478 398 482 405 489 C386 525 355 571 338 604 C330 604 313 604 304 604 C271 569 229 529 193 489 C197 482 206 478 213 471 C241 497 287 536 315 562 L315 562 Z " />
<glyph glyph-name="otilde" unicode="õ" horiz-adv-x="409" d="M99 214 C126 354 209 400 260 400 C335 400 369 338 346 220 C320 87 257 23 186 23 C114 23 74 87 99 214 L99 214 Z M265 433 C197 433 84 363 52 215 C22 76 80 -11 176 -11 C273 -11 366 81 394 222 C421 362 367 433 265 433 L265 433 Z M190 504 L220 501 C220 501 227 546 256 546 C285 546 306 490 345 490 C385 490 408 533 417 581 L387 583 C377 538 364 534 352 534 C316 534 308 589 262 589 C230 589 204 559 190 504 L190 504 Z " />
<glyph glyph-name="odieresis" unicode="ö" horiz-adv-x="409" d="M99 214 C126 354 209 400 260 400 C335 400 369 338 346 220 C320 87 257 23 186 23 C114 23 74 87 99 214 L99 214 Z M265 433 C197 433 84 363 52 215 C22 76 80 -11 176 -11 C273 -11 366 81 394 222 C421 362 367 433 265 433 L265 433 Z M191 531 C185 503 201 484 222 484 C242 484 260 502 264 525 C270 554 254 570 234 570 C214 570 198 557 191 531 L191 531 Z M336 531 C330 503 346 484 367 484 C387 484 405 502 409 525 C415 554 399 570 379 570 C359 570 343 557 336 531 L336 531 Z " />
<glyph glyph-name="divide" unicode="÷" horiz-adv-x="426" d="M182 458 C182 433 202 414 226 414 C250 414 270 433 270 458 C270 482 250 502 226 502 C202 502 182 482 182 458 L182 458 Z M182 200 C182 175 202 156 226 156 C250 156 270 175 270 200 C270 224 250 244 226 244 C202 244 182 224 182 200 L182 200 Z M434 344 L23 344 L21 303 L431 303 L434 344 Z " />
<glyph glyph-name="oslash" unicode="ø" horiz-adv-x="428" d="M385 390 C362 422 326 438 277 438 C209 438 102 367 69 220 C54 152 57 100 78 61 L8 -9 L25 -28 L91 39 C113 10 147 -6 189 -6 C285 -6 381 86 408 226 C420 285 415 332 400 366 L463 432 L442 451 L385 390 Z M113 219 C140 358 222 404 272 404 C310 404 340 388 357 356 L112 97 C102 128 103 166 113 219 L113 219 Z M198 27 C164 27 138 39 122 69 L366 329 C374 301 373 268 364 225 C338 92 269 27 198 27 L198 27 Z " />
<glyph glyph-name="ugrave" unicode="ù" horiz-adv-x="433" d="M332 0 L416 427 L372 424 C365 386 329 202 311 109 C296 100 258 69 202 44 C186 37 171 33 159 33 C118 33 105 70 117 129 L175 427 L131 424 C124 386 95 240 76 144 C54 29 105 -16 167 -5 C207 3 283 66 305 83 C303 70 300 -5 300 -5 L332 0 Z M240 587 L354 477 L375 494 L275 620 L240 587 Z " />
<glyph glyph-name="uacute" unicode="ú" horiz-adv-x="433" d="M332 0 L416 427 L372 424 C365 386 329 202 311 109 C296 100 258 69 202 44 C186 37 171 33 159 33 C118 33 105 70 117 129 L175 427 L131 424 C124 386 95 240 76 144 C54 29 105 -16 167 -5 C207 3 283 66 305 83 C303 70 300 -5 300 -5 L332 0 Z M225 500 L242 482 L377 586 L347 621 L225 500 Z " />
<glyph glyph-name="ucircumflex" unicode="û" horiz-adv-x="433" d="M332 0 L416 427 L372 424 C365 386 329 202 311 109 C296 100 258 69 202 44 C186 37 171 33 159 33 C118 33 105 70 117 129 L175 427 L131 424 C124 386 95 240 76 144 C54 29 105 -16 167 -5 C207 3 283 66 305 83 C303 70 300 -5 300 -5 L332 0 Z M307 562 C326 534 355 496 371 471 C379 478 390 482 397 489 C378 525 347 571 330 604 C322 604 305 604 296 604 C263 569 221 529 185 489 C189 482 198 478 205 471 C233 497 279 536 307 562 L307 562 Z " />
<glyph glyph-name="udieresis" unicode="ü" horiz-adv-x="433" d="M332 0 L416 427 L372 424 C365 386 329 202 311 109 C296 100 258 69 202 44 C186 37 171 33 159 33 C118 33 105 70 117 129 L175 427 L131 424 C124 386 95 240 76 144 C54 29 105 -16 167 -5 C207 3 283 66 305 83 C303 70 300 -5 300 -5 L332 0 Z M188 531 C182 503 198 484 219 484 C239 484 257 502 261 525 C267 554 251 570 231 570 C211 570 195 557 188 531 L188 531 Z M333 531 C327 503 343 484 364 484 C384 484 402 502 406 525 C412 554 396 570 376 570 C356 570 340 557 333 531 L333 531 Z " />
<glyph glyph-name="yacute" unicode="ý" horiz-adv-x="368" d="M362 429 L171 77 L154 77 L98 427 L54 422 L121 39 L150 39 L9 -204 L47 -223 L402 412 L362 429 Z M172 500 L189 482 L324 586 L294 621 L172 500 Z " />
<glyph glyph-name="thorn" unicode="þ" horiz-adv-x="401" d="M342 196 C315 80 267 38 193 29 C158 25 119 52 106 61 L165 363 C206 378 243 388 269 389 C351 391 368 304 342 196 L342 196 Z M279 426 C258 426 214 414 171 397 L222 662 L177 658 L7 -221 L53 -218 L99 28 C112 20 148 -6 181 -6 C310 -6 371 119 394 218 C418 344 379 426 279 426 L279 426 Z " />
<glyph glyph-name="ydieresis" unicode="ÿ" horiz-adv-x="368" d="M362 429 L171 77 L154 77 L98 427 L54 422 L121 39 L150 39 L9 -204 L47 -223 L402 412 L362 429 Z M133 531 C127 503 143 484 164 484 C184 484 202 502 206 525 C212 554 196 570 176 570 C156 570 140 557 133 531 L133 531 Z M278 531 C272 503 288 484 309 484 C329 484 347 502 351 525 C357 554 341 570 321 570 C301 570 285 557 278 531 L278 531 Z " />
<glyph glyph-name="Amacron" unicode="Ā" horiz-adv-x="493" d="M151 234 L327 595 C327 595 340 397 353 234 L151 234 Z M418 0 L363 658 L311 652 L-14 0 L32 -6 L133 196 L356 196 C362 113 371 3 372 -7 L418 0 Z M438 775 L265 775 L257 736 L430 736 L438 775 Z " />
<glyph glyph-name="amacron" unicode="ā" horiz-adv-x="411" d="M379 399 C379 399 317 429 265 429 C229 429 102 402 48 233 C20 142 29 -29 155 -6 C188 0 254 46 272 65 C272 61 265 -4 265 -4 L298 0 L379 399 Z M278 104 C278 104 208 38 161 31 C97 21 59 101 92 236 C118 339 179 396 263 394 C303 393 332 372 332 372 L278 104 Z M356 547 L183 547 L175 508 L348 508 L356 547 Z " />
<glyph glyph-name="Abreve" unicode="Ă" horiz-adv-x="493" d="M151 234 L327 595 C327 595 340 397 353 234 L151 234 Z M418 0 L363 658 L311 652 L-14 0 L32 -6 L133 196 L356 196 C362 113 371 3 372 -7 L418 0 Z M253 807 C253 807 260 714 341 714 C421 714 452 802 452 802 L424 812 C424 812 395 752 342 752 C296 752 285 816 285 816 L253 807 Z " />
<glyph glyph-name="abreve" unicode="ă" horiz-adv-x="411" d="M379 399 C379 399 317 429 265 429 C229 429 102 402 48 233 C20 142 29 -29 155 -6 C188 0 254 46 272 65 C272 61 265 -4 265 -4 L298 0 L379 399 Z M278 104 C278 104 208 38 161 31 C97 21 59 101 92 236 C118 339 179 396 263 394 C303 393 332 372 332 372 L278 104 Z M180 579 C180 579 187 486 268 486 C348 486 379 574 379 574 L351 584 C351 584 322 524 269 524 C223 524 212 588 212 588 L180 579 Z " />
<glyph glyph-name="Aogonek" unicode="Ą" horiz-adv-x="493" d="M151 234 L327 595 C327 595 340 397 353 234 L151 234 Z M418 0 L363 658 L311 652 L-14 0 L32 -6 L133 196 L356 196 C362 113 371 3 372 -7 L418 0 Z M417 3 L382 3 C382 3 317 -31 303 -93 C292 -138 310 -170 345 -175 C379 -180 406 -156 406 -156 L405 -132 C405 -132 385 -140 366 -140 C346 -140 333 -126 337 -100 C347 -31 417 3 417 3 L417 3 Z " />
<glyph glyph-name="aogonek" unicode="ą" horiz-adv-x="411" d="M379 399 C379 399 317 429 265 429 C229 429 102 402 48 233 C20 142 29 -29 155 -6 C188 0 254 46 272 65 C272 61 265 -4 265 -4 L298 0 L379 399 Z M278 104 C278 104 208 38 161 31 C97 21 59 101 92 236 C118 339 179 396 263 394 C303 393 332 372 332 372 L278 104 Z M298 3 L263 3 C263 3 198 -31 184 -93 C173 -138 191 -170 226 -175 C260 -180 287 -156 287 -156 L286 -132 C286 -132 266 -140 247 -140 C227 -140 214 -126 218 -100 C228 -31 298 3 298 3 L298 3 Z " />
<glyph glyph-name="Cacute" unicode="Ć" horiz-adv-x="469" d="M484 573 L509 607 C476 635 420 661 356 658 C244 653 86 558 42 331 C1 117 88 -6 221 -6 C306 -6 421 70 421 70 L409 97 C409 97 317 35 229 35 C138 35 47 121 88 332 C125 522 249 627 353 624 C421 622 454 599 484 573 L484 573 Z M281 728 L298 710 L433 814 L403 849 L281 728 Z " />
<glyph glyph-name="cacute" unicode="ć" horiz-adv-x="346" d="M359 396 C359 396 301 437 232 428 C171 420 82 353 52 220 C19 73 87 -18 166 -6 C223 3 300 56 300 56 L286 84 C286 84 206 39 180 35 C97 23 74 95 102 224 C131 359 192 395 247 395 C282 395 322 373 341 356 L359 396 Z M185 500 L202 482 L337 586 L307 621 L185 500 Z " />
<glyph glyph-name="Ccircumflex" unicode="Ĉ" horiz-adv-x="469" d="M484 573 L509 607 C476 635 420 661 356 658 C244 653 86 558 42 331 C1 117 88 -6 221 -6 C306 -6 421 70 421 70 L409 97 C409 97 317 35 229 35 C138 35 47 121 88 332 C125 522 249 627 353 624 C421 622 454 599 484 573 L484 573 Z M384 790 C403 762 432 724 448 699 C456 706 467 710 474 717 C455 753 424 799 407 832 C399 832 382 832 373 832 C340 797 298 757 262 717 C266 710 275 706 282 699 C310 725 356 764 384 790 L384 790 Z " />
<glyph glyph-name="ccircumflex" unicode="ĉ" horiz-adv-x="346" d="M359 396 C359 396 301 437 232 428 C171 420 82 353 52 220 C19 73 87 -18 166 -6 C223 3 300 56 300 56 L286 84 C286 84 206 39 180 35 C97 23 74 95 102 224 C131 359 192 395 247 395 C282 395 322 373 341 356 L359 396 Z M275 562 C294 534 323 496 339 471 C347 478 358 482 365 489 C346 525 315 571 298 604 C290 604 273 604 264 604 C231 569 189 529 153 489 C157 482 166 478 173 471 C201 497 247 536 275 562 L275 562 Z " />
<glyph glyph-name="Cdotaccent" unicode="Ċ" horiz-adv-x="469" d="M484 573 L509 607 C476 635 420 661 356 658 C244 653 86 558 42 331 C1 117 88 -6 221 -6 C306 -6 421 70 421 70 L409 97 C409 97 317 35 229 35 C138 35 47 121 88 332 C125 522 249 627 353 624 C421 622 454 599 484 573 L484 573 Z M347 766 C347 740 366 719 390 719 C414 719 435 740 435 766 C435 791 414 812 390 812 C366 812 347 791 347 766 L347 766 Z " />
<glyph glyph-name="cdotaccent" unicode="ċ" horiz-adv-x="346" d="M359 396 C359 396 301 437 232 428 C171 420 82 353 52 220 C19 73 87 -18 166 -6 C223 3 300 56 300 56 L286 84 C286 84 206 39 180 35 C97 23 74 95 102 224 C131 359 192 395 247 395 C282 395 322 373 341 356 L359 396 Z M222 538 C222 512 241 491 265 491 C289 491 310 512 310 538 C310 563 289 584 265 584 C241 584 222 563 222 538 L222 538 Z " />
<glyph glyph-name="Ccaron" unicode="Č" horiz-adv-x="469" d="M484 573 L509 607 C476 635 420 661 356 658 C244 653 86 558 42 331 C1 117 88 -6 221 -6 C306 -6 421 70 421 70 L409 97 C409 97 317 35 229 35 C138 35 47 121 88 332 C125 522 249 627 353 624 C421 622 454 599 484 573 L484 573 Z M283 834 L354 708 L386 708 L497 833 L478 850 L376 750 L308 850 L283 834 Z " />
<glyph glyph-name="ccaron" unicode="č" horiz-adv-x="346" d="M359 396 C359 396 301 437 232 428 C171 420 82 353 52 220 C19 73 87 -18 166 -6 C223 3 300 56 300 56 L286 84 C286 84 206 39 180 35 C97 23 74 95 102 224 C131 359 192 395 247 395 C282 395 322 373 341 356 L359 396 Z M173 606 L244 480 L276 480 L387 605 L368 622 L266 522 L198 622 L173 606 Z " />
<glyph glyph-name="Dcaron" unicode="Ď" horiz-adv-x="552" d="M61 14 C61 14 139 -10 209 -5 C364 6 501 111 549 358 C596 598 448 659 347 659 C251 659 196 642 182 638 L61 14 Z M224 615 C224 615 269 624 325 625 C429 627 537 561 498 355 C461 160 362 31 223 31 C180 31 113 45 113 45 L224 615 Z M289 834 L360 708 L392 708 L503 833 L484 850 L382 750 L314 850 L289 834 Z " />
<glyph glyph-name="dcaron" unicode="ď" horiz-adv-x="563" d="M307 0 L445 697 L399 691 L344 410 C344 410 309 429 271 429 C161 429 84 341 59 252 C31 155 27 -6 165 -6 C199 -6 245 31 276 56 C276 42 273 -4 273 -4 L307 0 Z M284 98 C284 98 222 31 173 31 C95 32 70 119 95 227 C126 360 184 396 268 394 C311 393 338 376 338 376 L284 98 Z M587 704 C566 704 533 688 539 649 C545 612 572 632 560 583 C549 550 483 503 483 503 L497 477 C549 511 611 556 624 619 C633 660 619 704 587 704 L587 704 Z " />
<glyph glyph-name="Dcroat" unicode="Đ" horiz-adv-x="552" d="M372 345 L42 345 L33 303 L363 303 L372 345 Z M61 14 C61 14 139 -10 209 -5 C364 6 501 111 549 358 C596 598 448 659 347 659 C251 659 196 642 182 638 L61 14 Z M224 615 C224 615 269 624 325 625 C429 627 537 561 498 355 C461 160 362 31 223 31 C180 31 113 45 113 45 L224 615 Z " />
<glyph glyph-name="dcroat" unicode="đ" horiz-adv-x="409" d="M467 554 L221 554 L213 516 L459 516 L467 554 Z M307 0 L445 697 L399 691 L344 410 C344 410 309 429 271 429 C161 429 84 341 59 252 C31 155 27 -6 165 -6 C199 -6 245 31 276 56 C276 42 273 -4 273 -4 L307 0 Z M284 98 C284 98 222 31 173 31 C95 32 70 119 95 227 C126 360 184 396 268 394 C311 393 338 376 338 376 L284 98 Z " />
<glyph glyph-name="Emacron" unicode="Ē" horiz-adv-x="463" d="M57 0 L370 0 L378 37 L110 37 L165 320 L394 320 L400 353 L171 353 L222 613 L480 613 L487 652 L184 652 L57 0 Z M446 775 L273 775 L265 736 L438 736 L446 775 Z " />
<glyph glyph-name="emacron" unicode="ē" horiz-adv-x="374" d="M320 259 C314 258 135 214 95 209 C114 295 145 390 238 390 C320 390 332 319 320 259 L320 259 Z M248 429 C162 429 61 310 44 180 C25 33 99 -6 166 -6 C221 -6 313 50 313 50 L310 74 C310 74 206 36 173 36 C96 36 79 92 91 180 L356 225 C379 331 353 429 248 429 L248 429 Z M371 547 L198 547 L190 508 L363 508 L371 547 Z " />
<glyph glyph-name="Ebreve" unicode="Ĕ" horiz-adv-x="463" d="M57 0 L370 0 L378 37 L110 37 L165 320 L394 320 L400 353 L171 353 L222 613 L480 613 L487 652 L184 652 L57 0 Z M261 807 C261 807 268 714 349 714 C429 714 460 802 460 802 L432 812 C432 812 403 752 350 752 C304 752 293 816 293 816 L261 807 Z " />
<glyph glyph-name="ebreve" unicode="ĕ" horiz-adv-x="374" d="M320 259 C314 258 135 214 95 209 C114 295 145 390 238 390 C320 390 332 319 320 259 L320 259 Z M248 429 C162 429 61 310 44 180 C25 33 99 -6 166 -6 C221 -6 313 50 313 50 L310 74 C310 74 206 36 173 36 C96 36 79 92 91 180 L356 225 C379 331 353 429 248 429 L248 429 Z M182 579 C182 579 189 486 270 486 C350 486 381 574 381 574 L353 584 C353 584 324 524 271 524 C225 524 214 588 214 588 L182 579 Z " />
<glyph glyph-name="Edotaccent" unicode="Ė" horiz-adv-x="463" d="M57 0 L370 0 L378 37 L110 37 L165 320 L394 320 L400 353 L171 353 L222 613 L480 613 L487 652 L184 652 L57 0 Z M310 766 C310 740 329 719 353 719 C377 719 398 740 398 766 C398 791 377 812 353 812 C329 812 310 791 310 766 L310 766 Z " />
<glyph glyph-name="edotaccent" unicode="ė" horiz-adv-x="374" d="M320 259 C314 258 135 214 95 209 C114 295 145 390 238 390 C320 390 332 319 320 259 L320 259 Z M248 429 C162 429 61 310 44 180 C25 33 99 -6 166 -6 C221 -6 313 50 313 50 L310 74 C310 74 206 36 173 36 C96 36 79 92 91 180 L356 225 C379 331 353 429 248 429 L248 429 Z M232 538 C232 512 251 491 275 491 C299 491 320 512 320 538 C320 563 299 584 275 584 C251 584 232 563 232 538 L232 538 Z " />
<glyph glyph-name="Eogonek" unicode="Ę" horiz-adv-x="463" d="M57 0 L370 0 L378 37 L110 37 L165 320 L394 320 L400 353 L171 353 L222 613 L480 613 L487 652 L184 652 L57 0 Z M358 0 L323 0 C323 0 258 -34 244 -96 C233 -141 251 -173 286 -178 C320 -183 347 -159 347 -159 L346 -135 C346 -135 326 -143 307 -143 C287 -143 274 -129 278 -103 C288 -34 358 0 358 0 L358 0 Z " />
<glyph glyph-name="eogonek" unicode="ę" horiz-adv-x="374" d="M320 259 C314 258 135 214 95 209 C114 295 145 390 238 390 C320 390 332 319 320 259 L320 259 Z M248 429 C162 429 61 310 44 180 C25 33 99 -6 166 -6 C221 -6 313 50 313 50 L310 74 C310 74 206 36 173 36 C96 36 79 92 91 180 L356 225 C379 331 353 429 248 429 L248 429 Z M210 3 L175 3 C175 3 110 -31 96 -93 C85 -138 103 -170 138 -175 C172 -180 199 -156 199 -156 L198 -132 C198 -132 178 -140 159 -140 C139 -140 126 -126 130 -100 C140 -31 210 3 210 3 L210 3 Z " />
<glyph glyph-name="Ecaron" unicode="Ě" horiz-adv-x="463" d="M57 0 L370 0 L378 37 L110 37 L165 320 L394 320 L400 353 L171 353 L222 613 L480 613 L487 652 L184 652 L57 0 Z M260 834 L331 708 L363 708 L474 833 L455 850 L353 750 L285 850 L260 834 Z " />
<glyph glyph-name="ecaron" unicode="ě" horiz-adv-x="374" d="M320 259 C314 258 135 214 95 209 C114 295 145 390 238 390 C320 390 332 319 320 259 L320 259 Z M248 429 C162 429 61 310 44 180 C25 33 99 -6 166 -6 C221 -6 313 50 313 50 L310 74 C310 74 206 36 173 36 C96 36 79 92 91 180 L356 225 C379 331 353 429 248 429 L248 429 Z M181 606 L252 480 L284 480 L395 605 L376 622 L274 522 L206 622 L181 606 Z " />
<glyph glyph-name="Gcircumflex" unicode="Ĝ" horiz-adv-x="525" d="M516 571 L539 605 C506 633 436 661 373 658 C260 653 95 559 51 332 C10 118 106 -6 239 -6 C324 -6 443 66 443 66 L486 284 L440 294 L400 81 C363 63 300 35 240 35 C149 35 58 121 99 332 C136 522 242 628 364 624 C430 622 482 594 516 571 L516 571 Z M402 790 C421 762 450 724 466 699 C474 706 485 710 492 717 C473 753 442 799 425 832 C417 832 400 832 391 832 C358 797 316 757 280 717 C284 710 293 706 300 699 C328 725 374 764 402 790 L402 790 Z " />
<glyph glyph-name="gcircumflex" unicode="ĝ" horiz-adv-x="411" d="M393 430 L354 427 L338 380 C323 405 297 424 272 427 C146 442 67 309 50 209 C29 84 68 5 168 5 C202 5 244 29 278 56 C278 56 259 -33 254 -58 C238 -142 199 -179 153 -179 C91 -179 23 -154 23 -154 L11 -177 C11 -177 76 -216 151 -216 C225 -216 278 -166 300 -51 L393 430 Z M284 93 C284 93 225 42 175 42 C97 43 74 111 95 220 C121 352 180 392 259 392 C318 392 331 337 331 337 L284 93 Z M295 562 C314 534 343 496 359 471 C367 478 378 482 385 489 C366 525 335 571 318 604 C310 604 293 604 284 604 C251 569 209 529 173 489 C177 482 186 478 193 471 C221 497 267 536 295 562 L295 562 Z " />
<glyph glyph-name="Gbreve" unicode="Ğ" horiz-adv-x="525" d="M516 571 L539 605 C506 633 436 661 373 658 C260 653 95 559 51 332 C10 118 106 -6 239 -6 C324 -6 443 66 443 66 L486 284 L440 294 L400 81 C363 63 300 35 240 35 C149 35 58 121 99 332 C136 522 242 628 364 624 C430 622 482 594 516 571 L516 571 Z M298 807 C298 807 305 714 386 714 C466 714 497 802 497 802 L469 812 C469 812 440 752 387 752 C341 752 330 816 330 816 L298 807 Z " />
<glyph glyph-name="gbreve" unicode="ğ" horiz-adv-x="411" d="M393 430 L354 427 L338 380 C323 405 297 424 272 427 C146 442 67 309 50 209 C29 84 68 5 168 5 C202 5 244 29 278 56 C278 56 259 -33 254 -58 C238 -142 199 -179 153 -179 C91 -179 23 -154 23 -154 L11 -177 C11 -177 76 -216 151 -216 C225 -216 278 -166 300 -51 L393 430 Z M284 93 C284 93 225 42 175 42 C97 43 74 111 95 220 C121 352 180 392 259 392 C318 392 331 337 331 337 L284 93 Z M183 579 C183 579 190 486 271 486 C351 486 382 574 382 574 L354 584 C354 584 325 524 272 524 C226 524 215 588 215 588 L183 579 Z " />
<glyph glyph-name="Gdotaccent" unicode="Ġ" horiz-adv-x="525" d="M516 571 L539 605 C506 633 436 661 373 658 C260 653 95 559 51 332 C10 118 106 -6 239 -6 C324 -6 443 66 443 66 L486 284 L440 294 L400 81 C363 63 300 35 240 35 C149 35 58 121 99 332 C136 522 242 628 364 624 C430 622 482 594 516 571 L516 571 Z M351 766 C351 740 370 719 394 719 C418 719 439 740 439 766 C439 791 418 812 394 812 C370 812 351 791 351 766 L351 766 Z " />
<glyph glyph-name="gdotaccent" unicode="ġ" horiz-adv-x="411" d="M393 430 L354 427 L338 380 C323 405 297 424 272 427 C146 442 67 309 50 209 C29 84 68 5 168 5 C202 5 244 29 278 56 C278 56 259 -33 254 -58 C238 -142 199 -179 153 -179 C91 -179 23 -154 23 -154 L11 -177 C11 -177 76 -216 151 -216 C225 -216 278 -166 300 -51 L393 430 Z M284 93 C284 93 225 42 175 42 C97 43 74 111 95 220 C121 352 180 392 259 392 C318 392 331 337 331 337 L284 93 Z M247 538 C247 512 266 491 290 491 C314 491 335 512 335 538 C335 563 314 584 290 584 C266 584 247 563 247 538 L247 538 Z " />
<glyph glyph-name="Gcommaaccent" unicode="Ģ" horiz-adv-x="525" d="M234 -64 C211 -64 190 -86 185 -112 C181 -133 190 -148 204 -157 C208 -160 213 -170 208 -184 C193 -223 136 -265 136 -265 L150 -291 C201 -258 270 -212 281 -149 C288 -108 272 -64 234 -64 L234 -64 Z M516 571 L539 605 C506 633 436 661 373 658 C260 653 95 559 51 332 C10 118 106 -6 239 -6 C324 -6 443 66 443 66 L486 284 L440 294 L400 81 C363 63 300 35 240 35 C149 35 58 121 99 332 C136 522 242 628 364 624 C430 622 482 594 516 571 L516 571 Z " />
<glyph glyph-name="gcommaaccent" unicode="ģ" horiz-adv-x="411" d="M267 475 C290 475 311 497 316 523 C320 544 311 559 297 568 C293 571 288 581 293 595 C308 634 365 676 365 676 L351 702 C300 669 231 623 220 560 C213 519 229 475 267 475 L267 475 Z M393 430 L354 427 L338 380 C323 405 297 424 272 427 C146 442 67 309 50 209 C29 84 68 5 168 5 C202 5 244 29 278 56 C278 56 259 -33 254 -58 C238 -142 199 -179 153 -179 C91 -179 23 -154 23 -154 L11 -177 C11 -177 76 -216 151 -216 C225 -216 278 -166 300 -51 L393 430 Z M284 93 C284 93 225 42 175 42 C97 43 74 111 95 220 C121 352 180 392 259 392 C318 392 331 337 331 337 L284 93 Z " />
<glyph glyph-name="Hcircumflex" unicode="Ĥ" horiz-adv-x="612" d="M539 653 L484 368 L175 368 L231 658 L183 653 L56 -6 L103 0 L169 336 L478 336 L411 -6 L459 0 L586 658 L539 653 Z M415 790 C434 762 463 724 479 699 C487 706 498 710 505 717 C486 753 455 799 438 832 C430 832 413 832 404 832 C371 797 329 757 293 717 C297 710 306 706 313 699 C341 725 387 764 415 790 L415 790 Z " />
<glyph glyph-name="hcircumflex" unicode="ĥ" horiz-adv-x="455" d="M342 0 C342 0 397 275 408 332 C419 390 383 440 318 424 C282 416 197 377 160 356 L226 695 L181 690 L47 -5 L90 -1 L152 315 C181 332 270 375 296 382 C363 403 369 361 358 308 L296 -5 L342 0 Z M320 827 C339 799 368 761 384 736 C392 743 403 747 410 754 C391 790 360 836 343 869 C335 869 318 869 309 869 C276 834 234 794 198 754 C202 747 211 743 218 736 C246 762 292 801 320 827 L320 827 Z " />
<glyph glyph-name="Hbar" unicode="Ħ" horiz-adv-x="612" d="M637 515 L69 515 L60 480 L628 480 L637 515 Z M539 653 L484 368 L175 368 L231 658 L183 653 L56 -6 L103 0 L169 336 L478 336 L411 -6 L459 0 L586 658 L539 653 Z " />
<glyph glyph-name="hbar" unicode="ħ" horiz-adv-x="455" d="M283 515 L69 515 L60 480 L274 480 L283 515 Z M342 0 C342 0 397 275 408 332 C419 390 383 440 318 424 C282 416 197 377 160 356 L226 695 L181 690 L47 -5 L90 -1 L152 315 C181 332 270 375 296 382 C363 403 369 361 358 308 L296 -5 L342 0 Z " />
<glyph glyph-name="Itilde" unicode="Ĩ" horiz-adv-x="258" d="M233 659 L184 652 L57 -5 L105 0 L233 659 Z M109 732 L139 729 C139 729 146 774 175 774 C204 774 225 718 264 718 C304 718 327 761 336 809 L306 811 C296 766 283 762 271 762 C235 762 227 817 181 817 C149 817 123 787 109 732 L109 732 Z " />
<glyph glyph-name="itilde" unicode="ĩ" horiz-adv-x="194" d="M132 424 L47 -6 L92 0 L175 427 L132 424 Z M42 504 L72 501 C72 501 79 546 108 546 C137 546 158 490 197 490 C237 490 260 533 269 581 L239 583 C229 538 216 534 204 534 C168 534 160 589 114 589 C82 589 56 559 42 504 L42 504 Z " />
<glyph glyph-name="Imacron" unicode="Ī" horiz-adv-x="258" d="M233 659 L184 652 L57 -5 L105 0 L233 659 Z M301 775 L128 775 L120 736 L293 736 L301 775 Z " />
<glyph glyph-name="imacron" unicode="ī" horiz-adv-x="194" d="M129 421 L47 -6 L92 0 L175 427 L129 421 Z M249 547 L76 547 L68 508 L241 508 L249 547 Z " />
<glyph glyph-name="Ibreve" unicode="Ĭ" horiz-adv-x="258" d="M233 659 L184 652 L57 -5 L105 0 L233 659 Z M129 807 C129 807 136 714 217 714 C297 714 328 802 328 802 L300 812 C300 812 271 752 218 752 C172 752 161 816 161 816 L129 807 Z " />
<glyph glyph-name="ibreve" unicode="ĭ" horiz-adv-x="192" d="M132 424 L47 -6 L92 0 L175 427 L132 424 Z M73 579 C73 579 80 486 161 486 C241 486 272 574 272 574 L244 584 C244 584 215 524 162 524 C116 524 105 588 105 588 L73 579 Z " />
<glyph glyph-name="Iogonek" unicode="Į" horiz-adv-x="258" d="M233 659 L184 652 L57 -5 L105 0 L233 659 Z M99 0 L64 0 C64 0 -1 -34 -15 -96 C-26 -141 -8 -173 27 -178 C61 -183 88 -159 88 -159 L87 -135 C87 -135 67 -143 48 -143 C28 -143 15 -129 19 -103 C29 -34 99 0 99 0 L99 0 Z " />
<glyph glyph-name="iogonek" unicode="į" horiz-adv-x="193" d="M47 -6 L92 0 L175 427 L131 422 L47 -6 Z M137 594 C137 571 155 552 178 552 C201 552 220 571 220 594 C220 617 201 636 178 636 C155 636 137 617 137 594 L137 594 Z M92 0 L57 0 C57 0 -8 -34 -22 -96 C-33 -141 -15 -173 20 -178 C54 -183 81 -159 81 -159 L80 -135 C80 -135 60 -143 41 -143 C21 -143 8 -129 12 -103 C22 -34 92 0 92 0 L92 0 Z " />
<glyph glyph-name="Idotaccent" unicode="İ" horiz-adv-x="258" d="M233 659 L184 652 L57 -5 L105 0 L233 659 Z M175 766 C175 740 194 719 218 719 C242 719 263 740 263 766 C263 791 242 812 218 812 C194 812 175 791 175 766 L175 766 Z " />
<glyph glyph-name="dotlessi" unicode="ı" horiz-adv-x="193" d="M132 424 L47 -6 L92 0 L175 427 L132 424 Z " />
<glyph glyph-name="IJ" unicode="Ĳ" horiz-adv-x="449" d="M233 659 L184 652 L57 -5 L105 0 L233 659 Z M285 76 C257 -66 214 -111 158 -186 C163 -192 174 -201 180 -206 C283 -92 311 -21 328 62 C344 146 444 659 444 659 L398 652 L285 76 Z " />
<glyph glyph-name="ij" unicode="ĳ" horiz-adv-x="370" d="M47 -6 L92 0 L175 427 L131 422 L47 -6 Z M137 594 C137 571 155 552 178 552 C201 552 220 571 220 594 C220 617 201 636 178 636 C155 636 137 617 137 594 L137 594 Z M311 594 C311 571 329 552 352 552 C375 552 394 571 394 594 C394 617 375 636 352 636 C329 636 311 617 311 594 L311 594 Z M230 15 C208 -104 181 -134 117 -199 C123 -206 133 -215 140 -221 C254 -127 259 -55 275 26 C308 194 354 427 354 427 L310 422 L230 15 Z " />
<glyph glyph-name="Jcircumflex" unicode="Ĵ" horiz-adv-x="238" d="M71 76 C43 -66 0 -111 -56 -186 C-51 -192 -40 -201 -34 -206 C69 -92 97 -21 114 62 C130 146 230 659 230 659 L184 652 L71 76 Z M211 790 C230 762 259 724 275 699 C283 706 294 710 301 717 C282 753 251 799 234 832 C226 832 209 832 200 832 C167 797 125 757 89 717 C93 710 102 706 109 699 C137 725 183 764 211 790 L211 790 Z " />
<glyph glyph-name="jcircumflex" unicode="ĵ" horiz-adv-x="192" d="M51 15 C29 -104 2 -134 -62 -199 C-56 -206 -46 -215 -39 -221 C75 -127 80 -55 96 26 C129 194 175 427 175 427 L131 422 L51 15 Z M158 562 C177 534 206 496 222 471 C230 478 241 482 248 489 C229 525 198 571 181 604 C173 604 156 604 147 604 C114 569 72 529 36 489 C40 482 49 478 56 471 C84 497 130 536 158 562 L158 562 Z " />
<glyph glyph-name="Kcommaaccent" unicode="Ķ" horiz-adv-x="529" d="M234 -64 C211 -64 190 -86 185 -112 C181 -133 190 -148 204 -157 C208 -160 213 -170 208 -184 C193 -223 136 -265 136 -265 L150 -291 C201 -258 270 -212 281 -149 C288 -108 272 -64 234 -64 L234 -64 Z M235 365 L556 631 L525 661 L179 371 L418 -8 L460 9 L235 365 Z M54 -6 L103 0 L231 659 L183 653 L54 -6 Z " />
<glyph glyph-name="kcommaaccent" unicode="ķ" horiz-adv-x="374" d="M209 -64 C186 -64 165 -86 160 -112 C156 -133 165 -148 179 -157 C183 -160 188 -170 183 -184 C168 -223 111 -265 111 -265 L125 -291 C176 -258 245 -212 256 -149 C263 -108 247 -64 209 -64 L209 -64 Z M356 10 L193 247 L406 395 L380 427 L145 254 L314 -5 L356 10 Z M49 -5 L94 -1 L230 695 L183 689 L49 -5 Z " />
<glyph glyph-name="kgreenlandic" unicode="ĸ" horiz-adv-x="457" d="M124 423 L39 -6 L80 0 L163 428 L124 423 Z M184 230 L380 375 L412 352 L432 367 L398 432 L134 233 L273 20 C291 -2 305 -6 317 -6 C340 -1 366 8 366 8 L372 39 L319 39 L184 230 Z " />
<glyph glyph-name="Lacute" unicode="Ĺ" horiz-adv-x="380" d="M38 0 L348 0 L356 37 L92 37 L213 659 L164 653 L38 0 Z M159 728 L176 710 L311 814 L281 849 L159 728 Z " />
<glyph glyph-name="lacute" unicode="ĺ" horiz-adv-x="205" d="M183 690 C176 652 49 -6 49 -6 L94 0 L230 695 L183 690 L183 690 Z M146 747 L163 729 L298 833 L268 868 L146 747 Z " />
<glyph glyph-name="Lcommaaccent" unicode="Ļ" horiz-adv-x="380" d="M198 -64 C175 -64 154 -86 149 -112 C145 -133 154 -148 168 -157 C172 -160 177 -170 172 -184 C157 -223 100 -265 100 -265 L114 -291 C165 -258 234 -212 245 -149 C252 -108 236 -64 198 -64 L198 -64 Z M38 0 L348 0 L356 37 L92 37 L213 659 L164 653 L38 0 Z " />
<glyph glyph-name="lcommaaccent" unicode="ļ" horiz-adv-x="205" d="M73 -64 C50 -64 29 -86 24 -112 C20 -133 29 -148 43 -157 C47 -160 52 -170 47 -184 C32 -223 -25 -265 -25 -265 L-11 -291 C40 -258 109 -212 120 -149 C127 -108 111 -64 73 -64 L73 -64 Z M183 690 C176 652 49 -6 49 -6 L94 0 L230 695 L183 690 L183 690 Z " />
<glyph glyph-name="Lcaron" unicode="Ľ" horiz-adv-x="380" d="M359 651 C336 651 315 629 310 603 C306 582 315 567 329 558 C333 555 338 545 333 531 C318 492 261 450 261 450 L275 424 C326 457 395 503 406 566 C413 607 397 651 359 651 L359 651 Z M38 0 L348 0 L356 37 L92 37 L213 659 L164 653 L38 0 Z " />
<glyph glyph-name="lcaron" unicode="ľ" horiz-adv-x="376" d="M345 657 C322 657 301 635 296 609 C292 588 301 573 315 564 C319 561 324 551 319 537 C304 498 247 456 247 456 L261 430 C312 463 381 509 392 572 C399 613 383 657 345 657 L345 657 Z M183 690 C176 652 49 -6 49 -6 L94 0 L230 695 L183 690 L183 690 Z " />
<glyph glyph-name="Ldot" unicode="Ŀ" horiz-adv-x="380" d="M38 0 L348 0 L356 37 L92 37 L213 659 L164 653 L38 0 Z M271 380 C271 354 290 333 314 333 C338 333 359 354 359 380 C359 405 338 426 314 426 C290 426 271 405 271 380 L271 380 Z " />
<glyph glyph-name="ldot" unicode="ŀ" horiz-adv-x="353" d="M183 690 C176 652 49 -6 49 -6 L94 0 L230 695 L183 690 L183 690 Z M284 380 C284 354 303 333 327 333 C351 333 372 354 372 380 C372 405 351 426 327 426 C303 426 284 405 284 380 L284 380 Z " />
<glyph glyph-name="Lslash" unicode="Ł" horiz-adv-x="348" d="M-13 260 L-6 225 L91 278 L37 0 L326 0 L333 37 L88 37 L139 301 L319 400 L313 433 L147 343 L209 659 L164 655 L99 320 L-13 260 Z " />
<glyph glyph-name="lslash" unicode="ł" horiz-adv-x="204" d="M29 278 L112 320 L50 0 L95 8 L160 341 L272 397 L262 425 L167 378 L229 695 L184 688 L119 358 L17 308 L29 278 Z " />
<glyph glyph-name="Nacute" unicode="Ń" horiz-adv-x="596" d="M55 -6 L102 0 L212 586 L220 586 L408 -6 L463 0 L589 655 L543 652 L437 64 L429 64 L240 658 L184 652 L55 -6 Z M335 728 L352 710 L487 814 L457 849 L335 728 Z " />
<glyph glyph-name="nacute" unicode="ń" horiz-adv-x="475" d="M359 -1 C359 -1 414 278 419 305 C434 381 401 429 341 429 C281 429 223 387 177 359 L181 428 L145 424 L62 -5 L107 -1 L170 323 C218 349 281 393 331 393 C370 393 385 360 376 310 C372 290 314 -5 314 -5 L359 -1 Z M226 500 L243 482 L378 586 L348 621 L226 500 Z " />
<glyph glyph-name="Ncommaaccent" unicode="Ņ" horiz-adv-x="596" d="M234 -64 C211 -64 190 -86 185 -112 C181 -133 190 -148 204 -157 C208 -160 213 -170 208 -184 C193 -223 136 -265 136 -265 L150 -291 C201 -258 270 -212 281 -149 C288 -108 272 -64 234 -64 L234 -64 Z M55 -6 L102 0 L212 586 L220 586 L408 -6 L463 0 L589 655 L543 652 L437 64 L429 64 L240 658 L184 652 L55 -6 Z " />
<glyph glyph-name="ncommaaccent" unicode="ņ" horiz-adv-x="475" d="M212 -64 C189 -64 168 -86 163 -112 C159 -133 168 -148 182 -157 C186 -160 191 -170 186 -184 C171 -223 114 -265 114 -265 L128 -291 C179 -258 248 -212 259 -149 C266 -108 250 -64 212 -64 L212 -64 Z M359 -1 C359 -1 414 278 419 305 C434 381 401 429 341 429 C281 429 223 387 177 359 L181 428 L145 424 L62 -5 L107 -1 L170 323 C218 349 281 393 331 393 C370 393 385 360 376 310 C372 290 314 -5 314 -5 L359 -1 Z " />
<glyph glyph-name="Ncaron" unicode="Ň" horiz-adv-x="596" d="M55 -6 L102 0 L212 586 L220 586 L408 -6 L463 0 L589 655 L543 652 L437 64 L429 64 L240 658 L184 652 L55 -6 Z M297 834 L368 708 L400 708 L511 833 L492 850 L390 750 L322 850 L297 834 Z " />
<glyph glyph-name="ncaron" unicode="ň" horiz-adv-x="475" d="M359 -1 C359 -1 414 278 419 305 C434 381 401 429 341 429 C281 429 223 387 177 359 L181 428 L145 424 L62 -5 L107 -1 L170 323 C218 349 281 393 331 393 C370 393 385 360 376 310 C372 290 314 -5 314 -5 L359 -1 Z M202 606 L273 480 L305 480 L416 605 L397 622 L295 522 L227 622 L202 606 Z " />
<glyph glyph-name="napostrophe" unicode="ŉ" horiz-adv-x="521" d="M77 546 C54 546 33 524 28 498 C24 477 33 462 47 453 C51 450 56 440 51 426 C36 387 -21 345 -21 345 L-7 319 C44 352 113 398 124 461 C131 502 115 546 77 546 L77 546 Z M405 -1 C405 -1 460 278 465 305 C480 381 447 429 387 429 C327 429 269 387 223 359 L227 428 L191 424 L108 -5 L153 -1 L216 323 C264 349 327 393 377 393 C416 393 431 360 422 310 C418 290 360 -5 360 -5 L405 -1 Z " />
<glyph glyph-name="Eng" unicode="Ŋ" horiz-adv-x="598" d="M545 652 C438 101 432 62 432 62 L240 658 L184 652 L55 -6 L102 0 L217 598 L408 -6 L418 -4 C391 -83 353 -130 310 -188 C315 -194 322 -201 328 -206 C432 -92 459 -21 476 62 L592 659 L545 652 Z " />
<glyph glyph-name="eng" unicode="ŋ" horiz-adv-x="464" d="M315 15 C293 -104 266 -134 202 -199 C208 -206 218 -215 225 -221 C339 -127 344 -55 360 26 L414 305 C435 396 357 447 290 423 C266 415 198 375 172 359 L186 429 L143 423 L59 -5 L102 -1 L165 323 C184 333 250 372 284 385 C334 404 385 379 374 324 L315 15 Z " />
<glyph glyph-name="Omacron" unicode="Ō" horiz-adv-x="588" d="M383 660 C247 660 80 531 41 332 C-6 87 120 -7 237 -7 C356 -7 534 96 579 331 C627 574 499 660 383 660 L383 660 Z M372 624 C490 624 559 518 526 329 C488 112 363 35 256 35 C162 35 47 104 93 333 C142 577 292 624 372 624 L372 624 Z M476 775 L303 775 L295 736 L468 736 L476 775 Z " />
<glyph glyph-name="omacron" unicode="ō" horiz-adv-x="409" d="M99 214 C126 354 209 400 260 400 C335 400 369 338 346 220 C320 87 257 23 186 23 C114 23 74 87 99 214 L99 214 Z M265 433 C197 433 84 363 52 215 C22 76 80 -11 176 -11 C273 -11 366 81 394 222 C421 362 367 433 265 433 L265 433 Z M369 547 L196 547 L188 508 L361 508 L369 547 Z " />
<glyph glyph-name="Obreve" unicode="Ŏ" horiz-adv-x="588" d="M383 660 C247 660 80 531 41 332 C-6 87 120 -7 237 -7 C356 -7 534 96 579 331 C627 574 499 660 383 660 L383 660 Z M372 624 C490 624 559 518 526 329 C488 112 363 35 256 35 C162 35 47 104 93 333 C142 577 292 624 372 624 L372 624 Z M310 807 C310 807 317 714 398 714 C478 714 509 802 509 802 L481 812 C481 812 452 752 399 752 C353 752 342 816 342 816 L310 807 Z " />
<glyph glyph-name="obreve" unicode="ŏ" horiz-adv-x="409" d="M99 214 C126 354 209 400 260 400 C335 400 369 338 346 220 C320 87 257 23 186 23 C114 23 74 87 99 214 L99 214 Z M265 433 C197 433 84 363 52 215 C22 76 80 -11 176 -11 C273 -11 366 81 394 222 C421 362 367 433 265 433 L265 433 Z M207 579 C207 579 214 486 295 486 C375 486 406 574 406 574 L378 584 C378 584 349 524 296 524 C250 524 239 588 239 588 L207 579 Z " />
<glyph glyph-name="Ohungarumlaut" unicode="Ő" horiz-adv-x="588" d="M383 660 C247 660 80 531 41 332 C-6 87 120 -7 237 -7 C356 -7 534 96 579 331 C627 574 499 660 383 660 L383 660 Z M372 624 C490 624 559 518 526 329 C488 112 363 35 256 35 C162 35 47 104 93 333 C142 577 292 624 372 624 L372 624 Z M290 734 L311 711 L449 822 L417 859 L290 734 Z M400 734 L421 711 L559 822 L527 859 L400 734 Z " />
<glyph glyph-name="ohungarumlaut" unicode="ő" horiz-adv-x="409" d="M99 214 C126 354 209 400 260 400 C335 400 369 338 346 220 C320 87 257 23 186 23 C114 23 74 87 99 214 L99 214 Z M265 433 C197 433 84 363 52 215 C22 76 80 -11 176 -11 C273 -11 366 81 394 222 C421 362 367 433 265 433 L265 433 Z M185 506 L206 483 L344 594 L312 631 L185 506 Z M295 506 L316 483 L454 594 L422 631 L295 506 Z " />
<glyph glyph-name="OE" unicode="Œ" horiz-adv-x="862" d="M372 661 C237 661 76 523 37 324 C-10 79 108 -7 226 -7 C305 -7 400 41 471 142 L444 0 L786 0 L795 37 L500 37 L555 321 L790 321 L796 353 L561 353 L612 613 L885 613 L892 652 L570 652 L548 540 C519 628 446 661 372 661 L372 661 Z M361 624 C473 624 541 526 509 356 C464 115 345 35 245 35 C150 35 44 105 88 333 C133 562 281 624 361 624 L361 624 Z " />
<glyph glyph-name="oe" unicode="œ" horiz-adv-x="675" d="M260 434 C192 434 84 363 52 215 C22 76 75 -11 171 -11 C235 -11 298 30 342 100 C354 18 410 -6 463 -6 C518 -6 616 50 616 50 L612 74 C612 74 509 36 475 36 C398 36 371 103 383 191 L658 225 C681 331 655 429 551 429 C486 429 429 389 392 327 C380 398 332 434 260 434 L260 434 Z M94 215 C121 354 205 400 255 400 C330 400 370 338 347 220 C321 87 252 23 181 23 C109 23 69 87 94 215 L94 215 Z M626 254 L387 220 C405 306 448 390 541 390 C623 390 638 314 626 254 L626 254 Z " />
<glyph glyph-name="Racute" unicode="Ŕ" horiz-adv-x="516" d="M486 9 L308 288 C398 311 486 381 506 478 C534 597 460 661 355 659 C265 657 191 639 191 639 L67 -4 L114 0 L169 285 C187 285 224 280 262 282 L440 -4 L486 9 Z M231 611 C231 611 298 626 350 623 C421 619 476 582 461 482 C442 359 371 315 252 316 C209 317 175 321 175 321 L231 611 Z M288 728 L305 710 L440 814 L410 849 L288 728 Z " />
<glyph glyph-name="racute" unicode="ŕ" horiz-adv-x="298" d="M139 260 L177 428 L130 424 L49 -4 L94 0 C94 0 96 37 119 155 C185 368 305 386 344 387 C349 403 353 417 358 433 C230 420 169 324 139 260 L139 260 Z M171 500 L188 482 L323 586 L293 621 L171 500 Z " />
<glyph glyph-name="Rcommaaccent" unicode="Ŗ" horiz-adv-x="516" d="M234 -64 C211 -64 190 -86 185 -112 C181 -133 190 -148 204 -157 C208 -160 213 -170 208 -184 C193 -223 136 -265 136 -265 L150 -291 C201 -258 270 -212 281 -149 C288 -108 272 -64 234 -64 L234 -64 Z M486 9 L308 288 C398 311 486 381 506 478 C534 597 460 661 355 659 C265 657 191 639 191 639 L67 -4 L114 0 L169 285 C187 285 224 280 262 282 L440 -4 L486 9 Z M231 611 C231 611 298 626 350 623 C421 619 476 582 461 482 C442 359 371 315 252 316 C209 317 175 321 175 321 L231 611 Z " />
<glyph glyph-name="rcommaaccent" unicode="ŗ" horiz-adv-x="298" d="M141 -64 C118 -64 97 -86 92 -112 C88 -133 97 -148 111 -157 C115 -160 120 -170 115 -184 C100 -223 43 -265 43 -265 L57 -291 C108 -258 177 -212 188 -149 C195 -108 179 -64 141 -64 L141 -64 Z M139 260 L177 428 L130 424 L49 -4 L94 0 C94 0 96 37 119 155 C185 368 305 386 344 387 C349 403 353 417 358 433 C230 420 169 324 139 260 L139 260 Z " />
<glyph glyph-name="Rcaron" unicode="Ř" horiz-adv-x="516" d="M486 9 L308 288 C398 311 486 381 506 478 C534 597 460 661 355 659 C265 657 191 639 191 639 L67 -4 L114 0 L169 285 C187 285 224 280 262 282 L440 -4 L486 9 Z M231 611 C231 611 298 626 350 623 C421 619 476 582 461 482 C442 359 371 315 252 316 C209 317 175 321 175 321 L231 611 Z M251 834 L322 708 L354 708 L465 833 L446 850 L344 750 L276 850 L251 834 Z " />
<glyph glyph-name="rcaron" unicode="ř" horiz-adv-x="298" d="M139 260 L177 428 L130 424 L49 -4 L94 0 C94 0 96 37 119 155 C185 368 305 386 344 387 C349 403 353 417 358 433 C230 420 169 324 139 260 L139 260 Z M135 606 L206 480 L238 480 L349 605 L330 622 L228 522 L160 622 L135 606 Z " />
<glyph glyph-name="Sacute" unicode="Ś" horiz-adv-x="443" d="M434 573 L458 613 C427 632 376 661 312 661 C302 661 293 660 284 659 C195 649 105 568 94 479 C68 293 347 356 334 185 C327 92 287 30 184 35 C126 38 27 106 27 106 L4 74 C4 74 89 -5 186 -5 C288 -5 373 83 387 186 C413 381 124 334 141 479 C153 579 200 622 287 624 C364 626 415 589 434 573 L434 573 Z M240 728 L257 710 L392 814 L362 849 L240 728 Z " />
<glyph glyph-name="sacute" unicode="ś" horiz-adv-x="318" d="M328 403 C328 403 273 430 217 431 C144 432 84 389 78 327 C72 269 116 240 175 203 C224 172 255 146 245 92 C234 35 189 29 148 29 C106 29 30 59 30 59 L19 30 C19 30 89 -4 147 -9 C200 -14 272 12 289 80 C303 136 279 183 206 228 C158 258 123 277 123 318 C123 373 177 397 221 396 C254 395 291 382 318 374 L328 403 Z M156 500 L173 482 L308 586 L278 621 L156 500 Z " />
<glyph glyph-name="Scircumflex" unicode="Ŝ" horiz-adv-x="443" d="M434 573 L458 613 C427 632 376 661 312 661 C302 661 293 660 284 659 C195 649 105 568 94 479 C68 293 347 356 334 185 C327 92 287 30 184 35 C126 38 27 106 27 106 L4 74 C4 74 89 -5 186 -5 C288 -5 373 83 387 186 C413 381 124 334 141 479 C153 579 200 622 287 624 C364 626 415 589 434 573 L434 573 Z M336 790 C355 762 384 724 400 699 C408 706 419 710 426 717 C407 753 376 799 359 832 C351 832 334 832 325 832 C292 797 250 757 214 717 C218 710 227 706 234 699 C262 725 308 764 336 790 L336 790 Z " />
<glyph glyph-name="scircumflex" unicode="ŝ" horiz-adv-x="318" d="M328 403 C328 403 273 430 217 431 C144 432 84 389 78 327 C72 269 116 240 175 203 C224 172 255 146 245 92 C234 35 189 29 148 29 C106 29 30 59 30 59 L19 30 C19 30 89 -4 147 -9 C200 -14 272 12 289 80 C303 136 279 183 206 228 C158 258 123 277 123 318 C123 373 177 397 221 396 C254 395 291 382 318 374 L328 403 Z M255 562 C274 534 303 496 319 471 C327 478 338 482 345 489 C326 525 295 571 278 604 C270 604 253 604 244 604 C211 569 169 529 133 489 C137 482 146 478 153 471 C181 497 227 536 255 562 L255 562 Z " />
<glyph glyph-name="Scedilla" unicode="Ş" horiz-adv-x="443" d="M434 573 L458 613 C427 632 376 661 312 661 C302 661 293 660 284 659 C195 649 105 568 94 479 C68 293 347 356 334 185 C327 92 287 30 184 35 C126 38 27 106 27 106 L4 74 C4 74 89 -5 186 -5 C288 -5 373 83 387 186 C413 381 124 334 141 479 C153 579 200 622 287 624 C364 626 415 589 434 573 L434 573 Z M182 1 L109 -66 L110 -88 C110 -88 161 -89 154 -127 C146 -165 77 -172 77 -172 L76 -199 C76 -199 180 -184 192 -126 C203 -75 152 -65 152 -65 L220 3 L182 1 Z " />
<glyph glyph-name="scedilla" unicode="ş" horiz-adv-x="318" d="M328 403 C328 403 273 430 217 431 C144 432 84 389 78 327 C72 269 116 240 175 203 C224 172 255 146 245 92 C234 35 189 29 148 29 C106 29 30 59 30 59 L19 30 C19 30 89 -4 147 -9 C200 -14 272 12 289 80 C303 136 279 183 206 228 C158 258 123 277 123 318 C123 373 177 397 221 396 C254 395 291 382 318 374 L328 403 Z M169 1 L96 -66 L97 -88 C97 -88 148 -89 141 -127 C133 -165 64 -172 64 -172 L63 -199 C63 -199 167 -184 179 -126 C190 -75 139 -65 139 -65 L207 3 L169 1 Z " />
<glyph glyph-name="Scaron" unicode="Š" horiz-adv-x="443" d="M434 573 L458 613 C427 632 376 661 312 661 C302 661 293 660 284 659 C195 649 105 568 94 479 C68 293 347 356 334 185 C327 92 287 30 184 35 C126 38 27 106 27 106 L4 74 C4 74 89 -5 186 -5 C288 -5 373 83 387 186 C413 381 124 334 141 479 C153 579 200 622 287 624 C364 626 415 589 434 573 L434 573 Z M236 834 L307 708 L339 708 L450 833 L431 850 L329 750 L261 850 L236 834 Z " />
<glyph glyph-name="scaron" unicode="š" horiz-adv-x="318" d="M328 403 C328 403 273 430 217 431 C144 432 84 389 78 327 C72 269 116 240 175 203 C224 172 255 146 245 92 C234 35 189 29 148 29 C106 29 30 59 30 59 L19 30 C19 30 89 -4 147 -9 C200 -14 272 12 289 80 C303 136 279 183 206 228 C158 258 123 277 123 318 C123 373 177 397 221 396 C254 395 291 382 318 374 L328 403 Z M159 606 L230 480 L262 480 L373 605 L354 622 L252 522 L184 622 L159 606 Z " />
<glyph glyph-name="Tcommaaccent" unicode="Ţ" horiz-adv-x="403" d="M119 6 L46 -61 L47 -83 C47 -83 98 -84 91 -122 C83 -160 14 -167 14 -167 L13 -194 C13 -194 117 -179 129 -121 C140 -70 89 -60 89 -60 L157 8 L119 6 Z M453 620 L459 652 L52 652 L46 620 L233 620 L111 -3 L157 0 L278 620 L453 620 Z " />
<glyph glyph-name="tcommaaccent" unicode="ţ" horiz-adv-x="248" d="M130 4 L57 -63 L58 -85 C58 -85 109 -86 102 -124 C94 -162 25 -169 25 -169 L24 -196 C24 -196 128 -181 140 -123 C151 -72 100 -62 100 -62 L168 6 L130 4 Z M227 40 L100 40 L167 383 L261 383 L268 420 L174 420 L204 576 L159 569 C159 569 146 504 130 420 L61 412 L56 385 L123 385 C97 247 61 64 57 45 C51 15 75 -6 91 -6 C122 0 222 9 222 9 L227 40 Z " />
<glyph glyph-name="Tcaron" unicode="Ť" horiz-adv-x="403" d="M453 620 L459 652 L52 652 L46 620 L233 620 L111 -3 L157 0 L278 620 L453 620 Z M181 834 L252 708 L284 708 L395 833 L376 850 L274 750 L206 850 L181 834 Z " />
<glyph glyph-name="tcaron" unicode="ť" horiz-adv-x="408" d="M227 40 L100 40 L167 383 L261 383 L268 420 L174 420 L204 576 L159 569 C159 569 146 504 130 420 L61 412 L56 385 L123 385 C97 247 61 64 57 45 C51 15 75 -6 91 -6 C122 0 222 9 222 9 L227 40 Z M430 575 C409 575 376 559 382 520 C388 483 415 503 403 454 C392 421 326 374 326 374 L340 348 C392 382 454 427 467 490 C476 531 462 575 430 575 L430 575 Z " />
<glyph glyph-name="Tbar" unicode="Ŧ" horiz-adv-x="403" d="M403 515 L82 515 L73 480 L394 480 L403 515 Z M453 620 L459 652 L52 652 L46 620 L233 620 L111 -3 L157 0 L278 620 L453 620 Z " />
<glyph glyph-name="tbar" unicode="ŧ" horiz-adv-x="248" d="M267 316 L49 316 L40 281 L258 281 L267 316 Z M227 40 L100 40 L167 383 L261 383 L268 420 L174 420 L204 576 L159 569 C159 569 146 504 130 420 L61 412 L56 385 L123 385 C97 247 61 64 57 45 C51 15 75 -6 91 -6 C122 0 222 9 222 9 L227 40 Z " />
<glyph glyph-name="Utilde" unicode="Ũ" horiz-adv-x="575" d="M523 654 C523 654 479 437 450 281 C422 129 392 35 254 35 C112 35 138 171 158 276 L233 659 L186 654 L108 257 C91 167 65 -6 245 -6 C396 -6 467 132 504 319 L570 659 L523 654 Z M271 732 L301 729 C301 729 308 774 337 774 C366 774 387 718 426 718 C466 718 489 761 498 809 L468 811 C458 766 445 762 433 762 C397 762 389 817 343 817 C311 817 285 787 271 732 L271 732 Z " />
<glyph glyph-name="utilde" unicode="ũ" horiz-adv-x="433" d="M332 0 L416 427 L372 424 C365 386 329 202 311 109 C296 100 258 69 202 44 C186 37 171 33 159 33 C118 33 105 70 117 129 L175 427 L131 424 C124 386 95 240 76 144 C54 29 105 -16 167 -5 C207 3 283 66 305 83 C303 70 300 -5 300 -5 L332 0 Z M160 504 L190 501 C190 501 197 546 226 546 C255 546 276 490 315 490 C355 490 378 533 387 581 L357 583 C347 538 334 534 322 534 C286 534 278 589 232 589 C200 589 174 559 160 504 L160 504 Z " />
<glyph glyph-name="Umacron" unicode="Ū" horiz-adv-x="575" d="M523 654 C523 654 479 437 450 281 C422 129 392 35 254 35 C112 35 138 171 158 276 L233 659 L186 654 L108 257 C91 167 65 -6 245 -6 C396 -6 467 132 504 319 L570 659 L523 654 Z M478 775 L305 775 L297 736 L470 736 L478 775 Z " />
<glyph glyph-name="umacron" unicode="ū" horiz-adv-x="433" d="M332 0 L416 427 L372 424 C365 386 329 202 311 109 C296 100 258 69 202 44 C186 37 171 33 159 33 C118 33 105 70 117 129 L175 427 L131 424 C124 386 95 240 76 144 C54 29 105 -16 167 -5 C207 3 283 66 305 83 C303 70 300 -5 300 -5 L332 0 Z M375 547 L202 547 L194 508 L367 508 L375 547 Z " />
<glyph glyph-name="Ubreve" unicode="Ŭ" horiz-adv-x="575" d="M523 654 C523 654 479 437 450 281 C422 129 392 35 254 35 C112 35 138 171 158 276 L233 659 L186 654 L108 257 C91 167 65 -6 245 -6 C396 -6 467 132 504 319 L570 659 L523 654 Z M270 807 C270 807 277 714 358 714 C438 714 469 802 469 802 L441 812 C441 812 412 752 359 752 C313 752 302 816 302 816 L270 807 Z " />
<glyph glyph-name="ubreve" unicode="ŭ" horiz-adv-x="433" d="M332 0 L416 427 L372 424 C365 386 329 202 311 109 C296 100 258 69 202 44 C186 37 171 33 159 33 C118 33 105 70 117 129 L175 427 L131 424 C124 386 95 240 76 144 C54 29 105 -16 167 -5 C207 3 283 66 305 83 C303 70 300 -5 300 -5 L332 0 Z M177 579 C177 579 184 486 265 486 C345 486 376 574 376 574 L348 584 C348 584 319 524 266 524 C220 524 209 588 209 588 L177 579 Z " />
<glyph glyph-name="Uring" unicode="Ů" horiz-adv-x="575" d="M523 654 C523 654 479 437 450 281 C422 129 392 35 254 35 C112 35 138 171 158 276 L233 659 L186 654 L108 257 C91 167 65 -6 245 -6 C396 -6 467 132 504 319 L570 659 L523 654 Z M340 793 C346 821 370 843 394 843 C417 843 432 821 426 793 C421 766 398 743 375 743 C351 743 335 766 340 793 L340 793 Z M304 798 C296 753 328 711 373 711 C416 711 455 742 463 787 C472 832 446 875 395 875 C350 875 313 843 304 798 L304 798 Z " />
<glyph glyph-name="uring" unicode="ů" horiz-adv-x="433" d="M332 0 L416 427 L372 424 C365 386 329 202 311 109 C296 100 258 69 202 44 C186 37 171 33 159 33 C118 33 105 70 117 129 L175 427 L131 424 C124 386 95 240 76 144 C54 29 105 -16 167 -5 C207 3 283 66 305 83 C303 70 300 -5 300 -5 L332 0 Z M231 565 C237 593 261 615 285 615 C308 615 323 593 317 565 C312 538 289 515 266 515 C242 515 226 538 231 565 L231 565 Z M195 570 C187 525 219 483 264 483 C307 483 346 514 354 559 C363 604 337 647 286 647 C241 647 204 615 195 570 L195 570 Z " />
<glyph glyph-name="Uhungarumlaut" unicode="Ű" horiz-adv-x="575" d="M523 654 C523 654 479 437 450 281 C422 129 392 35 254 35 C112 35 138 171 158 276 L233 659 L186 654 L108 257 C91 167 65 -6 245 -6 C396 -6 467 132 504 319 L570 659 L523 654 Z M275 734 L296 711 L434 822 L402 859 L275 734 Z M385 734 L406 711 L544 822 L512 859 L385 734 Z " />
<glyph glyph-name="uhungarumlaut" unicode="ű" horiz-adv-x="433" d="M332 0 L416 427 L372 424 C365 386 329 202 311 109 C296 100 258 69 202 44 C186 37 171 33 159 33 C118 33 105 70 117 129 L175 427 L131 424 C124 386 95 240 76 144 C54 29 105 -16 167 -5 C207 3 283 66 305 83 C303 70 300 -5 300 -5 L332 0 Z M170 506 L191 483 L329 594 L297 631 L170 506 Z M280 506 L301 483 L439 594 L407 631 L280 506 Z " />
<glyph glyph-name="Uogonek" unicode="Ų" horiz-adv-x="575" d="M523 654 C523 654 479 437 450 281 C422 129 392 35 254 35 C112 35 138 171 158 276 L233 659 L186 654 L108 257 C91 167 65 -6 245 -6 C396 -6 467 132 504 319 L570 659 L523 654 Z M286 3 L251 3 C251 3 186 -31 172 -93 C161 -138 179 -170 214 -175 C248 -180 275 -156 275 -156 L274 -132 C274 -132 254 -140 235 -140 C215 -140 202 -126 206 -100 C216 -31 286 3 286 3 L286 3 Z " />
<glyph glyph-name="uogonek" unicode="ų" horiz-adv-x="433" d="M332 0 L416 427 L372 424 C365 386 329 202 311 109 C296 100 258 69 202 44 C186 37 171 33 159 33 C118 33 105 70 117 129 L175 427 L131 424 C124 386 95 240 76 144 C54 29 105 -16 167 -5 C207 3 283 66 305 83 C303 70 300 -5 300 -5 L332 0 Z M332 3 L297 3 C297 3 232 -31 218 -93 C207 -138 225 -170 260 -175 C294 -180 321 -156 321 -156 L320 -132 C320 -132 300 -140 281 -140 C261 -140 248 -126 252 -100 C262 -31 332 3 332 3 L332 3 Z " />
<glyph glyph-name="Wcircumflex" unicode="Ŵ" horiz-adv-x="742" d="M466 -6 L527 0 L808 652 L759 658 L509 54 L493 658 L437 652 L165 68 L159 658 L114 652 L126 -6 L180 0 L450 579 L466 -6 Z M484 790 C503 762 532 724 548 699 C556 706 567 710 574 717 C555 753 524 799 507 832 C499 832 482 832 473 832 C440 797 398 757 362 717 C366 710 375 706 382 699 C410 725 456 764 484 790 L484 790 Z " />
<glyph glyph-name="wcircumflex" unicode="ŵ" horiz-adv-x="515" d="M344 427 L293 427 L123 36 L119 36 L125 427 L80 422 L83 -6 L144 0 L303 360 L306 -6 L370 0 L552 418 L508 429 L346 36 L342 36 L344 427 Z M338 562 C357 534 386 496 402 471 C410 478 421 482 428 489 C409 525 378 571 361 604 C353 604 336 604 327 604 C294 569 252 529 216 489 C220 482 229 478 236 471 C264 497 310 536 338 562 L338 562 Z " />
<glyph glyph-name="Ycircumflex" unicode="Ŷ" horiz-adv-x="425" d="M237 341 L142 658 L96 652 L206 298 L146 -6 L194 0 L250 291 L501 652 L452 658 L237 341 Z M310 790 C329 762 358 724 374 699 C382 706 393 710 400 717 C381 753 350 799 333 832 C325 832 308 832 299 832 C266 797 224 757 188 717 C192 710 201 706 208 699 C236 725 282 764 310 790 L310 790 Z " />
<glyph glyph-name="ycircumflex" unicode="ŷ" horiz-adv-x="368" d="M362 429 L171 77 L154 77 L98 427 L54 422 L121 39 L150 39 L9 -204 L47 -223 L402 412 L362 429 Z M265 562 C284 534 313 496 329 471 C337 478 348 482 355 489 C336 525 305 571 288 604 C280 604 263 604 254 604 C221 569 179 529 143 489 C147 482 156 478 163 471 C191 497 237 536 265 562 L265 562 Z " />
<glyph glyph-name="Ydieresis" unicode="Ÿ" horiz-adv-x="425" d="M237 341 L142 658 L96 652 L206 298 L146 -6 L194 0 L250 291 L501 652 L452 658 L237 341 Z M194 759 C188 731 204 712 225 712 C245 712 263 730 267 753 C273 782 257 798 237 798 C217 798 201 785 194 759 L194 759 Z M339 759 C333 731 349 712 370 712 C390 712 408 730 412 753 C418 782 402 798 382 798 C362 798 346 785 339 759 L339 759 Z " />
<glyph glyph-name="Zacute" unicode="Ź" horiz-adv-x="491" d="M114 652 L107 614 L440 614 L-12 47 L-2 0 L373 0 L380 37 L34 37 L481 597 L470 652 L114 652 Z M235 728 L252 710 L387 814 L357 849 L235 728 Z " />
<glyph glyph-name="zacute" unicode="ź" horiz-adv-x="355" d="M315 39 L57 39 L368 391 L361 424 L95 424 L89 390 L319 390 L14 45 L22 0 L306 0 L315 39 Z M151 500 L168 482 L303 586 L273 621 L151 500 Z " />
<glyph glyph-name="Zdotaccent" unicode="Ż" horiz-adv-x="491" d="M114 652 L107 614 L440 614 L-12 47 L-2 0 L373 0 L380 37 L34 37 L481 597 L470 652 L114 652 Z M285 766 C285 740 304 719 328 719 C352 719 373 740 373 766 C373 791 352 812 328 812 C304 812 285 791 285 766 L285 766 Z " />
<glyph glyph-name="zdotaccent" unicode="ż" horiz-adv-x="355" d="M315 39 L57 39 L368 391 L361 424 L95 424 L89 390 L319 390 L14 45 L22 0 L306 0 L315 39 Z M208 538 C208 512 227 491 251 491 C275 491 296 512 296 538 C296 563 275 584 251 584 C227 584 208 563 208 538 L208 538 Z " />
<glyph glyph-name="Zcaron" unicode="Ž" horiz-adv-x="491" d="M114 652 L107 614 L440 614 L-12 47 L-2 0 L373 0 L380 37 L34 37 L481 597 L470 652 L114 652 Z M234 834 L305 708 L337 708 L448 833 L429 850 L327 750 L259 850 L234 834 Z " />
<glyph glyph-name="zcaron" unicode="ž" horiz-adv-x="355" d="M315 39 L57 39 L368 391 L361 424 L95 424 L89 390 L319 390 L14 45 L22 0 L306 0 L315 39 Z M164 606 L235 480 L267 480 L378 605 L359 622 L257 522 L189 622 L164 606 Z " />
<glyph glyph-name="longs" unicode="ſ" horiz-adv-x="224" d="M331 617 C360 615 384 605 384 605 L398 636 C398 636 367 649 329 647 C264 642 210 572 193 487 C192 480 187 456 180 421 L133 421 L129 393 L173 385 C145 241 97 -4 97 -4 L144 0 C234 470 241 505 242 514 C257 587 281 621 331 617 L331 617 Z " />
<glyph glyph-name="florin" unicode="ƒ" horiz-adv-x="353" d="M193 -13 C195 -6 258 236 287 384 L388 384 L395 419 L294 419 C303 466 319 526 321 535 C336 605 371 634 423 628 C453 625 477 615 477 615 L492 647 C492 647 459 661 421 660 C355 658 288 592 270 510 C267 503 256 453 249 419 L171 419 L166 392 L242 385 C214 245 150 -9 147 -17 C130 -87 106 -112 53 -104 C25 -100 -10 -90 -10 -90 L-26 -119 C-26 -119 14 -139 53 -139 C118 -140 172 -95 193 -13 L193 -13 Z " />
<glyph glyph-name="circumflex" unicode="ˆ" horiz-adv-x="225" d="M237 562 C256 534 285 496 301 471 C309 478 320 482 327 489 C308 525 277 571 260 604 C252 604 235 604 226 604 C193 569 151 529 115 489 C119 482 128 478 135 471 C163 497 209 536 237 562 L237 562 Z " />
<glyph glyph-name="caron" unicode="ˇ" horiz-adv-x="241" d="M144 606 L215 480 L247 480 L358 605 L339 622 L237 522 L169 622 L144 606 Z " />
<glyph glyph-name="breve" unicode="˘" horiz-adv-x="233" d="M145 579 C145 579 152 486 233 486 C313 486 344 574 344 574 L316 584 C316 584 287 524 234 524 C188 524 177 588 177 588 L145 579 Z " />
<glyph glyph-name="dotaccent" unicode="˙" horiz-adv-x="225" d="M86 538 C86 512 105 491 129 491 C153 491 174 512 174 538 C174 563 153 584 129 584 C105 584 86 563 86 538 L86 538 Z " />
<glyph glyph-name="ring" unicode="˚" horiz-adv-x="232" d="M198 565 C204 593 228 615 252 615 C275 615 290 593 284 565 C279 538 256 515 233 515 C209 515 193 538 198 565 L198 565 Z M162 570 C154 525 186 483 231 483 C274 483 313 514 321 559 C330 604 304 647 253 647 C208 647 171 615 162 570 L162 570 Z " />
<glyph glyph-name="ogonek" unicode="˛" horiz-adv-x="225" d="M180 3 L145 3 C145 3 80 -31 66 -93 C55 -138 73 -170 108 -175 C142 -180 169 -156 169 -156 L168 -132 C168 -132 148 -140 129 -140 C109 -140 96 -126 100 -100 C110 -31 180 3 180 3 L180 3 Z " />
<glyph glyph-name="tilde" unicode="˜" horiz-adv-x="234" d="M17 504 L47 501 C47 501 54 546 83 546 C112 546 133 490 172 490 C212 490 235 533 244 581 L214 583 C204 538 191 534 179 534 C143 534 135 589 89 589 C57 589 31 559 17 504 L17 504 Z " />
<glyph glyph-name="hungarumlaut" unicode="˝" horiz-adv-x="241" d="M7 506 L28 483 L166 594 L134 631 L7 506 Z M117 506 L138 483 L276 594 L244 631 L117 506 Z " />
<glyph glyph-name="Omega" unicode="Ω" horiz-adv-x="585" d="M30 0 L233 0 L232 39 C232 39 88 132 88 341 C88 530 195 627 306 627 C405 627 514 549 514 340 C514 130 375 39 375 39 L376 0 L576 0 L575 39 L432 39 C432 39 565 136 565 328 C565 519 459 662 309 662 C159 662 38 548 38 352 C38 155 177 39 177 39 L29 39 L30 0 Z " />
<glyph glyph-name="pi" unicode="π" horiz-adv-x="418" d="M430 462 L23 462 L19 429 L118 429 L42 0 L87 -6 L158 429 L323 429 L336 -6 L377 0 L362 429 L422 429 L430 462 Z " />
<glyph glyph-name="endash" unicode="–" horiz-adv-x="422" d="M429 263 L30 263 L20 222 L418 222 L429 263 Z " />
<glyph glyph-name="emdash" unicode="—" horiz-adv-x="874" d="M884 263 L33 263 L23 222 L873 222 L884 263 Z " />
<glyph glyph-name="quoteleft" unicode="‘" horiz-adv-x="156" d="M125 486 C146 486 179 502 173 541 C167 578 140 558 152 607 C163 640 229 687 229 687 L215 713 C162 680 101 634 88 571 C80 530 93 486 125 486 L125 486 Z " />
<glyph glyph-name="quoteright" unicode="’" horiz-adv-x="124" d="M148 704 C127 704 94 688 100 649 C106 612 133 632 121 583 C110 550 44 503 44 503 L58 477 C110 511 172 556 185 619 C194 660 180 704 148 704 L148 704 Z " />
<glyph glyph-name="quotesinglbase" unicode="‚" horiz-adv-x="161" d="M105 84 C84 84 63 65 58 40 C54 20 63 5 76 -2 C81 -5 85 -14 80 -26 C65 -63 14 -102 14 -102 L26 -127 C73 -96 126 -50 143 5 C154 41 141 84 105 84 L105 84 Z " />
<glyph glyph-name="quotedblleft" unicode="“" horiz-adv-x="268" d="M125 501 C146 501 179 517 173 556 C167 593 138 574 152 622 C162 655 229 702 229 702 L215 728 C162 695 101 649 88 586 C80 545 93 501 125 501 L125 501 Z M263 501 C284 501 317 517 311 556 C305 593 276 574 290 622 C300 655 367 702 367 702 L353 728 C300 695 239 649 226 586 C218 545 231 501 263 501 L263 501 Z " />
<glyph glyph-name="quotedblright" unicode="”" horiz-adv-x="256" d="M246 707 C225 707 192 691 198 652 C204 615 231 635 219 586 C208 553 142 506 142 506 L156 480 C208 514 270 559 283 622 C292 663 278 707 246 707 L246 707 Z M375 707 C354 707 321 691 327 652 C333 615 360 635 348 586 C337 553 271 506 271 506 L285 480 C337 514 399 559 412 622 C421 663 407 707 375 707 L375 707 Z " />
<glyph glyph-name="quotedblbase" unicode="„" horiz-adv-x="291" d="M111 85 C90 85 57 69 63 30 C69 -7 96 13 84 -36 C73 -69 7 -116 7 -116 L21 -142 C73 -108 135 -63 148 0 C157 41 143 85 111 85 L111 85 Z M240 85 C219 85 186 69 192 30 C198 -7 225 13 213 -36 C202 -69 136 -116 136 -116 L150 -142 C202 -108 264 -63 277 0 C286 41 272 85 240 85 L240 85 Z " />
<glyph glyph-name="dagger" unicode="†" horiz-adv-x="349" d="M106 386 L235 386 L132 -139 L180 -129 L281 386 L418 386 L432 420 L287 420 L334 662 L287 654 L241 420 L119 420 L106 386 Z " />
<glyph glyph-name="daggerdbl" unicode="‡" horiz-adv-x="353" d="M51 103 L189 103 L141 -139 L184 -129 L230 103 L363 103 L377 137 L236 137 L285 386 L418 386 L432 420 L291 420 L338 662 L296 654 L250 420 L119 420 L106 386 L244 386 L195 137 L64 137 L51 103 Z " />
<glyph glyph-name="bullet" unicode="•" horiz-adv-x="209" d="M222 268 C222 307 199 357 142 357 C88 357 52 307 52 265 C52 218 81 179 136 179 C186 179 222 222 222 267 L222 268 Z " />
<glyph glyph-name="ellipsis" unicode="…" horiz-adv-x="633" d="M74 39 C69 13 83 -8 106 -8 C128 -8 150 13 155 39 C160 66 146 87 124 87 C101 87 79 66 74 39 L74 39 Z M299 39 C294 13 309 -8 331 -8 C353 -8 376 13 381 39 C386 66 371 87 349 87 C327 87 304 66 299 39 L299 39 Z M525 39 C520 13 534 -8 556 -8 C579 -8 601 13 606 39 C611 66 597 87 574 87 C552 87 530 66 525 39 L525 39 Z " />
<glyph glyph-name="perthousand" unicode="‰" horiz-adv-x="937" d="M245 657 L234 657 C182 657 100 617 76 509 C53 407 96 333 171 333 C245 333 315 391 335 494 C347 552 338 604 313 629 C391 628 505 631 505 631 L87 -4 L124 -25 L571 645 L551 668 C551 668 510 665 451 660 C429 658 365 655 336 655 C289 655 245 657 245 657 L245 657 Z M808 315 C755 315 673 264 649 156 C627 54 669 -9 743 -9 C818 -9 889 58 909 161 C929 263 886 315 808 315 L808 315 Z M497 315 C445 315 362 264 339 156 C316 54 359 -9 433 -9 C508 -9 578 58 598 161 C618 263 576 315 497 315 L497 315 Z M383 157 C401 253 456 285 491 285 C543 285 568 243 552 161 C535 70 489 25 440 25 C390 25 366 70 383 157 L383 157 Z M693 157 C711 253 766 285 801 285 C853 285 878 243 862 161 C845 70 799 25 750 25 C700 25 676 70 693 157 L693 157 Z M122 497 C140 593 194 625 228 625 C281 625 304 583 289 501 C272 410 227 365 177 365 C127 365 106 410 122 497 L122 497 Z " />
<glyph glyph-name="guilsinglleft" unicode="‹" horiz-adv-x="177" d="M185 391 L35 250 L30 217 L125 58 L155 76 L88 232 L210 367 L185 391 Z " />
<glyph glyph-name="guilsinglright" unicode="›" horiz-adv-x="177" d="M101 382 L73 364 L143 215 L19 85 L40 58 L195 192 L201 228 L101 382 Z " />
<glyph glyph-name="fraction" unicode="⁄" horiz-adv-x="469" d="M459 671 L9 -3 L41 -21 L492 651 L459 671 Z " />
<glyph glyph-name="zerosuperior" unicode="⁰" horiz-adv-x="254" d="M232 603 C254 716 224 771 164 771 C109 771 50 704 32 614 C15 523 29 444 101 444 C162 444 215 513 232 603 L232 603 Z M191 606 C180 534 155 479 111 479 C69 479 61 534 73 606 C84 678 113 737 154 737 C189 737 206 696 191 606 L191 606 Z " />
<glyph glyph-name="foursuperior" unicode="⁴" horiz-adv-x="254" d="M134 447 L172 447 L188 526 L235 526 L244 557 L194 557 L234 765 L196 769 L25 553 L28 526 L149 526 L134 447 Z M189 712 L155 557 L77 557 L189 712 Z " />
<glyph glyph-name="fivesuperior" unicode="⁵" horiz-adv-x="254" d="M26 486 L13 459 C13 459 45 449 73 449 C155 449 200 500 213 556 C222 597 212 656 135 656 C111 656 93 646 93 646 L124 738 L236 738 L243 772 L97 772 L52 630 L78 613 C78 613 97 629 131 626 C161 622 182 604 176 560 C166 492 98 465 26 486 L26 486 Z " />
<glyph glyph-name="sixsuperior" unicode="⁶" horiz-adv-x="254" d="M145 641 C134 641 115 636 107 630 C133 686 172 723 224 750 C221 758 215 774 215 774 C107 730 60 646 43 566 C27 491 58 448 109 444 C166 440 214 481 224 543 C234 608 194 641 145 641 L145 641 Z M76 551 C85 601 121 615 142 615 C174 615 193 590 185 546 C176 499 150 472 117 474 C87 476 67 504 76 551 L76 551 Z " />
<glyph glyph-name="sevensuperior" unicode="⁷" horiz-adv-x="254" d="M62 730 L192 730 C72 592 45 445 45 445 L85 448 C135 647 237 732 237 732 L220 763 L62 763 L62 730 Z " />
<glyph glyph-name="eightsuperior" unicode="⁸" horiz-adv-x="254" d="M170 611 C194 625 225 641 235 687 C245 732 208 765 162 764 C114 764 73 733 65 688 C58 657 78 631 96 621 C67 609 30 582 21 541 C7 477 51 443 106 439 C156 435 208 466 217 519 C225 563 205 593 170 611 L170 611 Z M101 682 C102 712 119 730 155 733 C183 734 202 712 197 685 C189 647 154 633 145 627 C120 640 100 653 101 682 L101 682 Z M179 521 C174 491 144 472 109 475 C72 478 49 496 55 543 C63 575 89 593 121 603 C161 580 187 567 179 521 L179 521 Z " />
<glyph glyph-name="ninesuperior" unicode="⁹" horiz-adv-x="254" d="M121 571 C132 571 151 576 159 582 C133 526 94 489 42 462 C45 454 51 438 51 438 C159 482 203 567 223 646 C242 720 208 764 157 768 C100 772 52 731 42 669 C32 604 72 571 121 571 L121 571 Z M190 661 C181 611 145 597 124 597 C92 597 73 622 81 666 C90 713 116 740 149 738 C179 736 199 708 190 661 L190 661 Z " />
<glyph glyph-name="plussuperior" unicode="⁺" horiz-adv-x="254" d="M143 488 L143 577 L221 577 L222 612 L143 612 L143 700 L107 699 L107 612 L32 612 L31 577 L107 577 L107 486 L143 488 Z " />
<glyph glyph-name="minussuperior" unicode="⁻" horiz-adv-x="254" d="M230 609 L29 609 L28 575 L228 575 L230 609 Z " />
<glyph glyph-name="equalssuperior" unicode="⁼" horiz-adv-x="254" d="M221 652 L34 652 L33 618 L220 618 L221 652 Z M221 585 L34 585 L33 551 L220 551 L221 585 Z " />
<glyph glyph-name="zeroinferior" unicode="₀" horiz-adv-x="254" d="M224 14 C246 127 222 182 162 182 C107 182 55 115 37 25 C20 -66 27 -145 99 -145 C160 -145 207 -76 224 14 L224 14 Z M183 17 C172 -55 153 -110 109 -110 C67 -110 66 -55 78 17 C89 89 111 148 152 148 C187 148 198 107 183 17 L183 17 Z " />
<glyph glyph-name="oneinferior" unicode="₁" horiz-adv-x="254" d="M96 -139 L133 -139 L197 181 L56 126 L62 99 L148 123 L96 -139 Z " />
<glyph glyph-name="twoinferior" unicode="₂" horiz-adv-x="254" d="M32 -140 L216 -140 L225 -104 L70 -104 C70 -104 218 -9 239 79 C255 148 207 177 168 180 C128 183 81 159 59 142 L72 116 C72 116 117 146 157 146 C201 146 209 111 199 76 C178 -3 26 -110 26 -110 L32 -140 Z " />
<glyph glyph-name="threeinferior" unicode="₃" horiz-adv-x="254" d="M181 -51 C173 -109 132 -120 66 -112 C42 -109 34 -106 34 -106 L19 -134 C19 -134 43 -141 76 -143 C132 -148 214 -112 222 -55 C229 -11 198 26 138 30 C173 36 224 64 233 102 C243 150 212 182 156 182 C124 182 75 170 52 160 L59 140 C59 140 119 160 150 160 C190 160 203 130 198 103 C189 67 138 46 117 44 C101 42 81 42 81 42 L76 11 L103 11 C158 11 187 -15 181 -51 L181 -51 Z " />
<glyph glyph-name="fourinferior" unicode="₄" horiz-adv-x="254" d="M127 -137 L165 -137 L181 -58 L228 -58 L237 -27 L187 -27 L227 181 L189 185 L18 -31 L21 -58 L142 -58 L127 -137 Z M182 128 L148 -27 L70 -27 L182 128 Z " />
<glyph glyph-name="fiveinferior" unicode="₅" horiz-adv-x="254" d="M26 -106 L13 -133 C13 -133 45 -143 73 -143 C155 -143 200 -92 213 -36 C222 5 212 64 135 64 C111 64 93 54 93 54 L124 146 L236 146 L243 180 L97 180 L52 38 L78 21 C78 21 97 37 131 34 C161 30 182 12 176 -32 C166 -100 98 -127 26 -106 L26 -106 Z " />
<glyph glyph-name="sixinferior" unicode="₆" horiz-adv-x="254" d="M145 52 C134 52 115 47 107 41 C133 97 172 134 224 161 C221 169 215 185 215 185 C107 141 60 57 43 -23 C27 -98 58 -141 109 -145 C166 -149 214 -108 224 -46 C234 19 194 52 145 52 L145 52 Z M76 -38 C85 12 121 26 142 26 C174 26 193 1 185 -43 C176 -90 150 -117 117 -115 C87 -113 67 -85 76 -38 L76 -38 Z " />
<glyph glyph-name="seveninferior" unicode="₇" horiz-adv-x="254" d="M59 149 L189 149 C69 11 42 -136 42 -136 L82 -133 C132 66 234 151 234 151 L217 182 L59 182 L59 149 Z " />
<glyph glyph-name="eightinferior" unicode="₈" horiz-adv-x="254" d="M170 29 C194 43 225 59 235 105 C245 150 208 183 162 182 C114 182 73 151 65 106 C58 75 78 49 96 39 C67 27 30 0 21 -41 C7 -105 51 -139 106 -143 C156 -147 208 -116 217 -63 C225 -19 205 11 170 29 L170 29 Z M101 100 C102 130 119 148 155 151 C183 152 202 130 197 103 C189 65 154 51 145 45 C120 58 100 71 101 100 L101 100 Z M179 -61 C174 -91 144 -110 109 -107 C72 -104 49 -86 55 -39 C63 -7 89 11 121 21 C161 -2 187 -15 179 -61 L179 -61 Z " />
<glyph glyph-name="nineinferior" unicode="₉" horiz-adv-x="254" d="M114 -15 C125 -15 144 -10 152 -4 C126 -60 87 -97 35 -124 C38 -132 44 -148 44 -148 C152 -104 196 -19 216 60 C235 134 201 178 150 182 C93 186 45 145 35 83 C25 18 65 -15 114 -15 L114 -15 Z M183 75 C174 25 138 11 117 11 C85 11 66 36 74 80 C83 127 109 154 142 152 C172 150 192 122 183 75 L183 75 Z " />
<glyph glyph-name="plusinferior" unicode="₊" horiz-adv-x="254" d="M143 -103 L143 -14 L221 -14 L222 21 L143 21 L143 109 L107 108 L107 21 L32 21 L31 -14 L107 -14 L107 -105 L143 -103 Z " />
<glyph glyph-name="minusinferior" unicode="₋" horiz-adv-x="254" d="M228 21 L27 21 L26 -13 L226 -13 L228 21 Z " />
<glyph glyph-name="equalsinferior" unicode="₌" horiz-adv-x="254" d="M221 52 L34 52 L33 18 L220 18 L221 52 Z M221 -15 L34 -15 L33 -49 L220 -49 L221 -15 Z " />
<glyph glyph-name="Euro" unicode="€" horiz-adv-x="522" d="M371 243 L378 279 L119 279 C121 297 124 316 128 336 L131 350 L392 350 L399 386 L140 386 C186 543 298 626 391 627 C458 628 522 576 522 576 L548 611 C503 644 460 663 382 660 C281 654 159 568 99 386 L54 386 L47 350 L89 350 C86 340 84 331 82 321 C79 306 76 292 75 279 L33 279 L26 243 L72 243 C63 80 159 -3 261 -3 C346 -3 461 74 461 74 L449 100 C449 100 356 39 269 39 C193 39 117 99 117 243 L371 243 Z " />
<glyph glyph-name="trademark" unicode="™" horiz-adv-x="499" d="M281 603 L345 391 L374 393 L441 607 L447 391 L483 393 L469 658 L421 655 L360 439 L293 658 L253 656 L238 391 L271 393 L281 603 Z M216 626 L216 655 L30 655 L30 626 L107 626 L107 391 L139 394 L139 626 L216 626 Z " />
<glyph glyph-name="partialdiff" unicode="∂" horiz-adv-x="427" d="M227 662 C143 667 66 616 66 616 L84 588 C84 588 145 625 214 625 C319 625 370 538 370 362 C370 350 370 339 370 327 C355 355 316 427 226 427 C113 427 41 331 33 226 C25 122 58 0 189 0 C317 0 414 138 414 359 C414 580 335 655 227 662 L227 662 Z M189 39 C88 39 76 142 80 222 C85 300 121 391 226 391 C307 391 347 316 365 281 C344 136 274 39 189 39 L189 39 Z " />
<glyph glyph-name="Delta" unicode="∆" horiz-adv-x="486" d="M283 654 L36 39 L37 0 L476 0 L475 39 L319 654 L283 654 Z M298 587 L433 39 L80 39 L298 587 Z " />
<glyph glyph-name="product" unicode="∏" horiz-adv-x="-30" d="" />
<glyph glyph-name="summation" unicode="∑" horiz-adv-x="513" d="M411 653 L27 652 L26 616 L246 299 L12 -28 L13 -64 L445 -64 L445 -24 L64 -24 L293 293 L71 616 L413 616 L411 653 Z " />
<glyph glyph-name="minus" unicode="−" horiz-adv-x="414" d="M428 346 L18 346 L16 305 L425 305 L428 346 Z " />
<glyph glyph-name="radical" unicode="√" horiz-adv-x="445" d="M30 332 L41 301 L109 334 L244 -94 L279 -94 L482 803 L439 803 L257 -22 L134 383 L30 332 Z " />
<glyph glyph-name="infinity" unicode="∞" horiz-adv-x="669" d="M544 362 C609 362 640 302 640 264 C640 195 587 159 535 159 C486 159 434 209 381 263 C435 314 489 362 544 362 L544 362 Z M330 261 C278 210 223 163 156 163 C102 163 59 200 59 264 C59 328 132 362 168 362 C227 362 279 313 330 261 L330 261 Z M354 237 C409 181 469 127 541 127 C599 127 683 171 683 261 C683 305 655 397 550 397 C473 397 413 342 357 287 C300 342 237 396 169 396 C68 396 19 319 19 270 C19 221 41 127 159 127 C231 127 295 181 354 237 L354 237 Z " />
<glyph glyph-name="integral" unicode="∫" horiz-adv-x="322" d="M299 771 C299 771 278 780 253 780 C171 780 134 701 134 586 C134 481 144 182 144 46 C145 -91 86 -109 62 -109 C38 -109 19 -100 19 -100 L13 -129 C13 -129 22 -142 60 -142 C142 -142 187 -73 186 44 C186 163 181 398 176 583 C172 718 220 743 258 743 C270 743 282 740 290 738 L299 771 Z " />
<glyph glyph-name="approxequal" unicode="≈" horiz-adv-x="503" d="M57 366 L81 341 C81 341 118 383 169 383 C220 383 297 333 359 333 C426 333 475 384 475 384 L451 410 C451 410 411 367 358 367 C309 367 230 417 165 417 C111 417 57 366 57 366 L57 366 Z M81 202 C81 202 118 244 169 244 C220 244 297 194 359 194 C426 194 475 245 475 245 L451 271 C451 271 411 228 358 228 C309 228 230 278 165 278 C111 278 57 227 57 227 L81 202 Z " />
<glyph glyph-name="notequal" unicode="≠" horiz-adv-x="508" d="M477 350 L477 387 L327 387 L362 476 L323 489 L283 387 L64 387 L64 350 L269 350 L230 247 L64 247 L64 210 L215 210 L182 123 L219 107 L259 210 L477 210 L477 247 L273 247 L313 350 L477 350 Z " />
<glyph glyph-name="lessequal" unicode="≤" horiz-adv-x="507" d="M479 41 L68 41 L66 0 L477 0 L479 41 Z M391 556 L101 345 L101 318 L391 101 L410 140 L156 334 L414 516 L391 556 Z " />
<glyph glyph-name="greaterequal" unicode="≥" horiz-adv-x="507" d="M472 41 L61 41 L59 0 L469 0 L472 41 Z M134 556 L111 516 L369 334 L115 140 L134 101 L424 318 L424 345 L134 556 Z " />
<glyph glyph-name="lozenge" unicode="◊" horiz-adv-x="393" d="M193 672 L40 322 L194 -27 L227 -27 L382 322 L228 672 L193 672 Z M213 623 L339 331 L208 22 L81 316 L213 623 Z " />
<glyph glyph-name="ffj" unicode="" horiz-adv-x="679" d="M535 0 C513 -106 488 -137 427 -199 C433 -206 443 -215 450 -221 C564 -127 569 -55 585 26 C660 413 661 418 661 421 L428 421 C438 470 445 505 446 514 C458 588 484 616 534 612 C563 610 682 576 682 576 L700 613 C700 613 575 648 538 646 C516 644 495 635 476 620 L467 614 C455 618 351 649 315 647 C250 643 190 594 169 487 L156 421 L80 421 L76 393 L149 384 C121 240 73 -4 73 -4 C60 -67 38 -103 -11 -99 C-40 -97 -64 -87 -64 -87 L-79 -123 C-79 -123 -58 -136 -20 -134 C45 -130 102 -81 118 -2 C118 0 118 2 193 383 L376 383 C348 238 301 -4 301 -4 C288 -67 266 -103 217 -99 C188 -97 164 -87 164 -87 L149 -123 C149 -123 170 -136 208 -134 C273 -130 330 -81 346 -2 C346 0 346 2 421 383 L611 383 L535 0 Z M306 612 C332 610 418 585 434 580 C417 557 404 526 397 487 L384 421 L200 421 C210 470 216 505 218 514 C226 556 235 582 259 601 C271 611 287 613 306 612 L306 612 Z " />
<glyph glyph-name="fj" unicode="" horiz-adv-x="445" d="M304 612 C333 610 455 577 455 577 L470 613 C470 613 387 635 336 644 C327 646 319 647 313 647 C248 643 188 594 167 487 L154 421 L78 421 L74 393 L147 384 C119 240 71 -4 71 -4 C58 -67 36 -103 -13 -99 C-42 -97 -66 -87 -66 -87 L-81 -123 C-81 -123 -60 -136 -22 -134 C43 -130 101 -81 116 -2 L191 383 L376 383 L304 15 C281 -104 255 -134 191 -199 C197 -206 207 -215 214 -221 C328 -127 333 -55 349 26 L426 421 L198 421 C208 470 215 505 216 514 C219 532 224 547 229 560 C239 583 252 599 269 607 C279 612 290 613 304 612 L304 612 Z " />
<glyph glyph-name="zero.onum" unicode="" horiz-adv-x="443" d="M80 211 C51 91 104 -7 226 -7 C335 -7 445 91 474 211 C501 331 435 429 326 429 C218 429 107 331 80 211 L80 211 Z M129 215 C149 315 230 396 311 396 C393 396 444 315 424 215 C405 115 323 34 241 34 C150 34 110 115 129 215 L129 215 Z " />
<glyph glyph-name="one.onum" unicode="" horiz-adv-x="316" d="M172 0 L217 0 L301 439 L106 356 L114 329 L242 373 L172 0 Z " />
<glyph glyph-name="two.onum" unicode="" horiz-adv-x="341" d="M91 332 L116 312 C184 377 221 390 261 390 C320 390 348 360 335 292 C308 151 26 41 26 41 L31 0 L339 0 L352 40 C352 40 168 40 86 40 C208 79 360 178 382 289 C393 347 376 427 272 427 C167 427 91 332 91 332 L91 332 Z " />
<glyph glyph-name="three.onum" unicode="" horiz-adv-x="336" d="M290 21 C273 -79 198 -120 96 -113 C52 -110 -4 -97 -4 -97 L-16 -133 C-16 -133 40 -146 86 -149 C192 -156 316 -89 335 11 C348 81 332 151 220 160 C289 170 357 223 371 292 C394 401 315 423 270 426 C196 431 131 405 89 386 L93 350 C93 350 178 392 241 392 C322 392 338 345 325 289 C306 208 225 181 175 175 C136 170 121 170 121 170 L113 133 C113 133 150 135 167 135 C264 135 303 99 290 21 L290 21 Z " />
<glyph glyph-name="four.onum" unicode="" horiz-adv-x="400" d="M308 -149 L336 0 L428 0 L440 39 L343 39 L418 425 L380 432 L23 39 L34 0 L291 0 L262 -156 L308 -149 Z M359 357 L298 39 L72 39 L359 357 Z " />
<glyph glyph-name="five.onum" unicode="" horiz-adv-x="355" d="M1 -97 L-14 -131 C-14 -131 36 -151 96 -151 C231 -151 337 -59 353 50 C364 125 351 218 220 218 C166 218 129 198 129 198 L193 390 L409 390 L415 425 L154 425 L78 170 L99 152 C99 152 155 189 225 181 C282 174 315 138 309 57 C299 -70 189 -145 6 -99 L1 -97 Z " />
<glyph glyph-name="six.onum" unicode="" horiz-adv-x="402" d="M284 386 C243 382 193 367 154 327 C218 472 326 545 432 601 C429 617 421 627 421 627 C205 531 103 384 72 222 C48 99 92 -1 205 -6 C306 -10 411 76 435 199 C459 323 380 394 284 386 L284 386 Z M116 207 C137 318 226 348 279 348 C356 348 403 292 385 197 C363 81 302 25 216 31 C143 36 96 105 116 207 L116 207 Z " />
<glyph glyph-name="seven.onum" unicode="" horiz-adv-x="330" d="M92 386 L371 386 C62 128 34 -153 34 -153 L86 -147 C159 222 414 377 414 377 L404 420 L102 420 L92 386 Z " />
<glyph glyph-name="eight.onum" unicode="" horiz-adv-x="411" d="M327 319 C347 328 455 366 477 463 C496 548 419 614 329 609 C242 604 160 546 146 461 C135 402 172 358 214 330 C178 314 83 270 60 186 C27 66 114 -6 216 -6 C312 -6 417 51 442 151 C465 245 393 286 327 319 L327 319 Z M192 455 C193 543 246 575 329 576 C396 577 440 539 427 473 C410 384 321 339 299 329 C237 359 191 386 192 455 L192 455 Z M391 149 C383 62 308 31 237 31 C145 31 97 80 110 165 C125 266 208 302 242 312 C333 273 400 244 391 149 L391 149 Z " />
<glyph glyph-name="nine.onum" unicode="" horiz-adv-x="391" d="M146 -127 C146 -127 166 -149 171 -155 C324 -40 404 68 431 210 C455 333 411 433 298 438 C197 442 92 356 68 233 C44 109 123 38 219 46 C260 50 310 65 349 105 C285 -29 146 -127 146 -127 L146 -127 Z M387 225 C366 114 277 84 224 84 C147 84 100 140 118 235 C140 351 201 407 287 401 C360 396 407 327 387 225 L387 225 Z " />
<glyph glyph-name="A.smcp" unicode="" horiz-adv-x="323" d="M111 158 L223 385 C223 385 229 265 237 158 L111 158 Z M288 1 L253 431 L207 427 L-6 0 L31 -4 L94 121 L240 121 L249 -5 L288 1 Z " />
<glyph glyph-name="B.smcp" unicode="" horiz-adv-x="330" d="M44 9 C44 9 85 -1 122 -3 C217 -8 283 46 304 121 C321 182 281 226 227 229 C260 236 317 271 327 329 C339 397 305 430 224 430 C185 430 123 411 123 411 L44 9 Z M129 240 L158 388 C158 388 191 396 215 396 C258 396 298 386 288 329 C279 271 221 240 159 240 C133 240 129 240 129 240 L129 240 Z M122 202 C122 202 138 202 169 203 C217 204 278 193 261 122 C243 48 184 30 130 34 C103 36 90 40 90 40 L122 202 Z " />
<glyph glyph-name="C.smcp" unicode="" horiz-adv-x="352" d="M363 398 C340 416 310 433 268 431 C195 428 86 363 57 215 C30 74 82 -4 169 -4 C225 -4 308 50 308 50 L297 75 C297 75 232 39 181 39 C121 39 75 91 100 218 C122 334 196 396 255 396 C301 396 342 364 342 364 L363 398 Z " />
<glyph glyph-name="D.smcp" unicode="" horiz-adv-x="384" d="M45 9 C45 9 104 -3 138 -4 C230 -6 341 93 366 235 C394 392 304 432 238 432 C180 432 124 419 124 419 L45 9 Z M158 391 C158 391 190 398 223 398 C281 398 345 359 321 232 C297 112 236 33 154 33 C130 33 90 42 90 42 L158 391 Z " />
<glyph glyph-name="E.smcp" unicode="" horiz-adv-x="319" d="M43 0 L254 0 L261 37 L90 37 L122 204 L262 204 L269 237 L129 237 L158 389 L323 389 L331 427 L126 427 L43 0 Z " />
<glyph glyph-name="F.smcp" unicode="" horiz-adv-x="322" d="M83 0 L120 197 L265 197 L271 229 L126 229 L157 387 L326 387 L333 424 L127 424 L42 0 L83 0 Z " />
<glyph glyph-name="G.smcp" unicode="" horiz-adv-x="386" d="M318 41 L357 225 L223 225 L214 201 L308 193 L278 60 C257 50 222 36 188 36 C137 36 82 91 106 217 C127 330 196 391 259 391 C311 391 349 366 349 366 L370 401 C345 417 313 428 272 428 C189 428 89 352 62 215 C35 76 101 -4 187 -4 C242 -4 318 41 318 41 L318 41 Z " />
<glyph glyph-name="H.smcp" unicode="" horiz-adv-x="384" d="M342 426 L307 244 L132 244 L167 428 L127 426 L43 -4 L84 0 L124 211 L300 211 L258 -4 L299 0 L381 428 L342 426 Z " />
<glyph glyph-name="I.smcp" unicode="" horiz-adv-x="171" d="M166 424 L127 424 L45 0 L84 0 L166 424 Z " />
<glyph glyph-name="J.smcp" unicode="" horiz-adv-x="181" d="M64 49 C47 -37 17 -73 -19 -122 C-16 -126 -5 -135 -1 -138 C66 -64 90 -14 101 40 C112 94 177 428 177 428 L137 424 L64 49 Z " />
<glyph glyph-name="K.smcp" unicode="" horiz-adv-x="356" d="M184 219 L396 398 L367 428 L139 224 L290 -6 L325 12 L184 219 Z M44 -4 L85 0 L168 428 L128 424 L44 -4 Z " />
<glyph glyph-name="L.smcp" unicode="" horiz-adv-x="268" d="M45 0 L247 0 L254 37 L92 37 L168 428 L128 426 L45 0 Z " />
<glyph glyph-name="M.smcp" unicode="" horiz-adv-x="485" d="M161 363 L199 -4 L245 0 L420 361 L373 -3 L411 0 L464 428 L412 424 L229 44 L191 428 L138 424 L32 -3 L71 0 L161 363 Z " />
<glyph glyph-name="N.smcp" unicode="" horiz-adv-x="401" d="M44 -4 L85 0 L152 356 L273 -4 L316 0 L398 428 L360 426 L291 58 L170 428 L127 424 L44 -4 Z " />
<glyph glyph-name="O.smcp" unicode="" horiz-adv-x="399" d="M264 429 C176 429 76 323 53 210 C21 51 96 -5 172 -5 C250 -5 365 89 388 220 C416 379 340 429 264 429 L264 429 Z M253 389 C323 389 369 336 345 214 C321 94 252 36 188 36 C131 36 66 78 93 215 C119 353 206 389 253 389 L253 389 Z " />
<glyph glyph-name="P.smcp" unicode="" horiz-adv-x="315" d="M42 -3 L82 0 L115 175 C133 173 156 169 182 174 C251 187 310 234 327 305 C346 382 301 430 230 428 C168 427 124 416 124 416 L42 -3 Z M122 206 L158 392 C158 392 180 397 214 397 C258 397 302 368 289 305 C275 235 230 196 153 203 L122 206 Z " />
<glyph glyph-name="Q.smcp" unicode="" horiz-adv-x="399" d="M267 429 C179 429 79 323 56 210 C24 51 99 -5 175 -5 C191 -5 209 0 227 7 L264 -61 L291 -46 L262 26 C319 64 372 134 387 220 C415 379 343 429 267 429 L267 429 Z M256 389 C326 389 372 336 348 214 C324 94 255 36 191 36 C134 36 69 78 96 215 C122 353 209 389 256 389 L256 389 Z " />
<glyph glyph-name="R.smcp" unicode="" horiz-adv-x="346" d="M306 -1 L205 180 C263 195 321 244 335 307 C354 384 308 430 237 428 C176 427 125 415 125 415 L43 -3 L83 0 L118 175 C129 175 142 172 167 174 L266 -6 L306 -1 Z M161 394 C161 394 188 401 221 401 C266 401 310 370 296 307 C282 237 238 203 160 204 C132 204 123 207 123 207 L161 394 Z " />
<glyph glyph-name="S.smcp" unicode="" horiz-adv-x="337" d="M321 408 C300 418 264 430 223 430 C149 430 83 378 77 324 C60 172 277 241 255 109 C247 60 218 30 149 34 C110 36 51 82 51 82 L28 48 C28 48 83 0 146 -3 C216 -6 280 34 296 115 C326 264 101 212 114 322 C119 367 153 396 210 396 C239 396 280 384 307 372 L321 408 Z " />
<glyph glyph-name="T.smcp" unicode="" horiz-adv-x="288" d="M334 392 L340 424 L67 424 L60 392 L181 392 L105 -4 L144 1 L220 392 L334 392 Z " />
<glyph glyph-name="U.smcp" unicode="" horiz-adv-x="400" d="M352 425 C352 425 327 284 307 183 C291 102 272 23 185 23 C99 23 103 93 115 161 L164 428 L124 425 L76 167 C65 109 51 -4 172 -4 C273 -4 324 62 351 197 L394 428 L352 425 Z " />
<glyph glyph-name="V.smcp" unicode="" horiz-adv-x="353" d="M116 -4 L171 0 L392 424 L351 428 L151 36 L120 428 L80 425 L116 -4 Z " />
<glyph glyph-name="W.smcp" unicode="" horiz-adv-x="547" d="M337 -4 L393 0 L576 424 L538 428 L373 38 L367 428 L314 424 L137 40 L133 428 L95 425 L104 -4 L157 0 L332 378 L337 -4 Z " />
<glyph glyph-name="X.smcp" unicode="" horiz-adv-x="342" d="M382 424 L337 428 L193 234 L124 428 L80 423 L167 213 L-2 0 L47 -4 L185 184 L252 -4 L298 0 L211 205 L382 424 Z " />
<glyph glyph-name="Y.smcp" unicode="" horiz-adv-x="283" d="M161 228 L100 428 L60 423 L134 188 L97 -4 L137 0 L174 189 L338 424 L296 428 L161 228 Z " />
<glyph glyph-name="Z.smcp" unicode="" horiz-adv-x="327" d="M116 424 L109 389 L305 389 L20 42 L34 0 L272 0 L279 38 L63 37 L347 387 L338 424 L116 424 Z " />
<glyph glyph-name="ff" unicode="ﬀ" horiz-adv-x="465" d="M342 -2 C342 -2 387 229 416 384 L505 384 L512 421 L423 421 C432 467 439 503 441 512 C455 585 482 611 531 607 C559 605 587 595 587 595 L602 633 C602 633 566 646 529 644 C504 642 482 632 463 615 C444 620 338 649 303 647 C239 642 184 572 167 487 C166 480 161 456 154 421 L78 421 L74 393 L147 385 C119 241 70 -3 70 -3 C56 -67 34 -103 -15 -99 C-44 -97 -68 -87 -68 -87 L-83 -123 C-83 -123 -62 -136 -24 -134 C41 -130 103 -58 114 -2 C115 0 159 231 189 384 L373 384 C345 237 296 -6 296 -6 C284 -67 262 -103 213 -99 C184 -97 160 -87 160 -87 L145 -123 C145 -123 166 -136 204 -134 C269 -130 331 -58 342 -2 L342 -2 Z M197 421 C205 472 212 505 214 514 C232 587 255 616 306 613 C328 611 402 591 434 583 C417 561 405 529 394 485 C392 478 387 453 380 421 L197 421 Z " />
<glyph glyph-name="fi" unicode="ﬁ" horiz-adv-x="445" d="M118 -2 C118 -2 162 231 192 384 L376 384 L300 -6 L345 0 L426 421 L198 421 C208 470 215 505 217 514 C233 588 264 617 313 614 C340 612 437 586 437 586 L450 620 C450 620 343 650 304 647 C240 643 186 572 169 487 C168 480 163 456 156 421 L80 421 L75 393 L149 385 C121 241 73 -3 73 -3 C60 -67 38 -103 -11 -99 C-40 -97 -64 -87 -64 -87 L-79 -123 C-79 -123 -58 -136 -20 -134 C45 -130 107 -58 118 -2 L118 -2 Z " />
<glyph glyph-name="fl" unicode="ﬂ" horiz-adv-x="445" d="M455 618 C455 618 351 649 313 647 C248 643 184 572 167 487 L154 421 L78 421 L74 393 L147 385 C119 241 71 -4 71 -4 C58 -67 36 -103 -13 -99 C-42 -97 -66 -87 -66 -87 L-81 -123 C-81 -123 -60 -136 -22 -134 C43 -130 106 -58 116 -2 C118 9 116 2 191 384 L288 384 L295 421 L198 421 C208 470 215 505 216 514 C228 588 254 616 304 612 C322 610 370 599 404 591 C294 23 288 -9 289 -6 L334 0 L455 618 Z " />
<glyph glyph-name="ffi" unicode="ﬃ" horiz-adv-x="665" d="M337 -2 C337 -2 381 231 411 384 L595 384 L519 -6 L564 0 L645 421 L417 421 L436 514 C452 588 483 617 532 614 C559 612 656 586 656 586 L669 620 C669 620 562 649 523 647 C498 645 475 633 455 615 C437 621 348 649 314 647 C249 642 185 572 168 487 L155 421 L79 421 L75 393 L148 385 C120 241 72 -4 72 -4 C59 -67 37 -103 -12 -99 C-41 -97 -65 -87 -65 -87 L-80 -123 C-80 -123 -59 -136 -21 -134 C44 -130 106 -58 117 -2 C117 0 117 2 192 384 L368 384 C340 240 292 -3 292 -3 C279 -67 257 -103 208 -99 C179 -97 155 -87 155 -87 L140 -123 C140 -123 161 -136 199 -134 C264 -130 326 -58 337 -2 L337 -2 Z M305 612 C327 610 396 592 427 583 C408 556 395 523 388 487 L375 421 L199 421 C209 470 216 505 217 514 C229 588 255 616 305 612 L305 612 Z " />
<glyph glyph-name="ffl" unicode="ﬄ" horiz-adv-x="675" d="M535 612 C553 610 601 599 635 591 L519 -9 L565 0 L686 618 C686 618 582 649 544 647 C516 645 488 631 464 608 C439 617 346 649 313 647 C248 644 184 572 167 487 L154 421 L78 421 L74 393 L147 385 C119 241 71 -4 71 -4 C58 -67 36 -103 -13 -99 C-42 -97 -66 -87 -66 -87 L-81 -123 C-81 -123 -60 -136 -22 -134 C43 -130 101 -74 116 -2 C116 0 116 2 191 384 L378 384 C350 240 302 -4 302 -4 C289 -67 267 -103 218 -99 C189 -97 165 -87 165 -87 L150 -123 C150 -123 171 -136 209 -134 C274 -130 337 -58 347 -2 C349 9 347 2 422 384 L519 384 L526 421 L429 421 C439 470 446 505 447 514 C459 588 485 616 535 612 L535 612 Z M304 612 C326 610 402 587 436 576 C418 550 404 520 398 487 L385 421 L198 421 C208 470 215 505 216 514 C228 588 254 616 304 612 L304 612 Z " />
</font>
</svg>
