<?xml version="1.0" encoding="UTF-8"?>
<!-- Generator: Adobe Illustrator 16.0.0, SVG Export Plug-In . SVG Version: 6.00 Build 0)  --><svg xmlns="http://www.w3.org/2000/svg" xmlns:xlink="http://www.w3.org/1999/xlink" version="1.1" id="Layer_1" x="0px" y="0px" width="50px" height="50px" viewBox="0 0 50 50" enable-background="new 0 0 50 50" xml:space="preserve">
<g>
	<path fill="#fff" d="M40.111,30.652c-1.424,0-2.71,0.532-3.723,1.377l-4.93-2.648c0.204-0.768,0.323-1.566,0.323-2.397   c0-4.712-3.497-8.594-8.042-9.218l-0.51-5.331c1.881-0.97,3.176-2.901,3.176-5.157c0-3.221-2.612-5.824-5.827-5.824   c-3.218,0-5.824,2.603-5.824,5.824c0,2.646,1.777,4.854,4.194,5.565l0.51,5.327c-3.67,1.25-6.316,4.719-6.316,8.813   c0,2.089,0.697,4.01,1.859,5.565l-3.546,4.24c-0.571-0.186-1.171-0.312-1.806-0.312c-3.215,0-5.822,2.606-5.822,5.823   c0,3.218,2.607,5.824,5.822,5.824c3.216,0,5.824-2.606,5.824-5.824c0-1.001-0.275-1.928-0.719-2.752l3.544-4.236   c1.254,0.628,2.664,0.986,4.162,0.986c2.775,0,5.255-1.214,6.96-3.132l4.933,2.653c-0.021,0.216-0.067,0.433-0.067,0.657   c0,3.217,2.61,5.823,5.825,5.823c3.217,0,5.823-2.606,5.823-5.823C45.935,33.259,43.328,30.652,40.111,30.652z" />
</g>
</svg>
