<?xml version="1.0" encoding="UTF-8"?>
<!-- Generator: Adobe Illustrator 16.0.0, SVG Export Plug-In . SVG Version: 6.00 Build 0)  --><svg xmlns="http://www.w3.org/2000/svg" xmlns:xlink="http://www.w3.org/1999/xlink" version="1.1" id="Layer_1" x="0px" y="0px" width="50px" height="50px" viewBox="0 0 50 50" enable-background="new 0 0 50 50" xml:space="preserve">
<g>
	<g>
		<path fill="#006BB2" d="M43.067,36.842H17.657c-2.817,0-5.109-2.338-5.109-5.209V6.625c0-2.875,2.293-5.212,5.109-5.212h25.411    c2.821,0,5.117,2.337,5.117,5.212v25.008C48.185,34.506,45.889,36.842,43.067,36.842z M16.657,4.779    c-0.402,0-0.743,0.389-0.743,0.846v27.008c0,0.463,0.333,0.84,0.743,0.84h27.411c0.413,0,0.751-0.377,0.751-0.84V5.625    c0-0.457-0.344-0.846-0.751-0.846H16.657z" />
	</g>
	<polygon fill="#006BB2" points="33.997,10.34 27.774,9.889 31.826,14.563 20.511,24.562 23.811,28.365 35.13,18.369 39.354,23.242    39.785,17.019 40.215,10.793  " />
</g>
<path fill="#006BB2" d="M34.482,34.74v9.481c0,0.463-0.338,0.84-0.752,0.84H6.32c-0.41,0-0.743-0.377-0.743-0.84V17.213  c0-0.457,0.341-0.846,0.743-0.846h6.227v-3.366H7.32c-2.816,0-5.109,2.337-5.109,5.212v25.008c0,2.871,2.292,5.209,5.109,5.209  h25.41c2.822,0,5.117-2.336,5.117-5.209V34.74H34.482z" />
</svg>
