<?xml version="1.0" encoding="UTF-8"?>
<!-- Generator: Adobe Illustrator 16.0.0, SVG Export Plug-In . SVG Version: 6.00 Build 0)  --><svg xmlns="http://www.w3.org/2000/svg" xmlns:xlink="http://www.w3.org/1999/xlink" version="1.1" id="Layer_1" x="0px" y="0px" width="50px" height="50px" viewBox="0 0 50 50" enable-background="new 0 0 50 50" xml:space="preserve">
<path fill="#FFFFFF" d="M29.617,21.18c2.047,2.057,2.041,5.393-0.016,7.44l2.474,2.485c3.428-3.413,3.439-8.977,0.027-12.4  L29.617,21.18z" />
<path fill="#FFFFFF" d="M34.57,16.22c4.774,4.795,4.76,12.581-0.035,17.361l2.474,2.485c6.167-6.146,6.187-16.155,0.044-22.322  L34.57,16.22z" />
<path fill="#FFFFFF" d="M39.537,11.265c7.506,7.533,7.482,19.77-0.054,27.276l2.477,2.485c8.906-8.874,8.931-23.332,0.061-32.238  L39.537,11.265z" />
<polygon fill="#FFFFFF" points="13.734,18.169 1.402,18.169 1.402,31.023 13.474,31.023 22.869,40.382 22.869,31.023 22.869,18.169   22.869,9.43 " />
</svg>
