<?xml version="1.0" encoding="UTF-8"?>
<!-- Generator: Adobe Illustrator 16.0.0, SVG Export Plug-In . SVG Version: 6.00 Build 0)  --><svg xmlns="http://www.w3.org/2000/svg" xmlns:xlink="http://www.w3.org/1999/xlink" version="1.1" id="Layer_1" x="0px" y="0px" width="50px" height="50px" viewBox="0 0 50 50" enable-background="new 0 0 50 50" xml:space="preserve">
<path fill="#006bb2" d="M25,48.311c-12.815,0-23.24-10.426-23.24-23.24c0-12.814,10.425-23.24,23.24-23.24  c12.814,0,23.24,10.425,23.24,23.24C48.24,37.885,37.814,48.311,25,48.311z M25,7.831c-9.506,0-17.24,7.734-17.24,17.24  c0,9.506,7.734,17.24,17.24,17.24c9.506,0,17.24-7.733,17.24-17.24C42.24,15.565,34.506,7.831,25,7.831z" />
<polygon fill="#006bb2" points="15.064,35.191 21.08,21.061 35.577,14.68 29.833,28.721 " />
<g>
	<polygon fill="#FFFFFF" points="22.903,23.979 26.643,27.534 18.709,31.546  " />
</g>
</svg>
