<?xml version="1.0" encoding="UTF-8"?>
<!-- Generator: Adobe Illustrator 16.0.0, SVG Export Plug-In . SVG Version: 6.00 Build 0)  --><svg xmlns="http://www.w3.org/2000/svg" xmlns:xlink="http://www.w3.org/1999/xlink" version="1.1" id="Layer_1" x="0px" y="0px" width="50px" height="50px" viewBox="0 0 50 50" enable-background="new 0 0 50 50" xml:space="preserve">
<polygon fill="#006BB2" points="37.744,29.043 34.393,29.043 34.393,25.691 31.895,25.691 31.895,29.043 28.544,29.043   28.544,31.541 31.895,31.541 31.895,34.891 34.393,34.891 34.393,31.541 37.744,31.541 " />
<g>
	<path fill="#006BB2" d="M47.334,43.073l-4.751-4.755c1.845-2.164,2.961-4.967,2.961-8.028c0-6.837-5.563-12.399-12.399-12.399   c-6.838,0-12.4,5.562-12.4,12.399c0,6.838,5.562,12.401,12.4,12.401c2.488,0,4.809-0.74,6.752-2.008l4.912,4.916   c0.35,0.35,0.808,0.522,1.264,0.522c0.457,0,0.914-0.174,1.263-0.522C48.032,44.9,48.032,43.77,47.334,43.073z M23.891,30.29   c0-5.102,4.15-9.252,9.253-9.252c5.103,0,9.252,4.151,9.252,9.252c0,5.103-4.149,9.253-9.252,9.253   C28.041,39.543,23.891,35.393,23.891,30.29z" />
	<g>
		<path fill="#006BB2" d="M17.753,31.75h-6.546V12.604h26.6v2.943c1.078,0.342,2.102,0.809,3.063,1.367V9.54H8.142v25.274h10.216    C18.056,33.831,17.853,32.807,17.753,31.75z" />
	</g>
</g>
<polygon fill="#006BB2" points="5.103,29.452 2.038,29.452 2.038,3.421 36.568,3.421 36.568,6.485 5.103,6.485 " />
</svg>
