<?xml version="1.0" encoding="UTF-8"?>
<!-- Generator: Adobe Illustrator 16.0.0, SVG Export Plug-In . SVG Version: 6.00 Build 0)  --><svg xmlns="http://www.w3.org/2000/svg" xmlns:xlink="http://www.w3.org/1999/xlink" version="1.1" id="Layer_1" x="0px" y="0px" width="50px" height="50px" viewBox="0 0 50 50" enable-background="new 0 0 50 50" xml:space="preserve">
<path d="M9.31,4.601v1.665v5.498H3.936H2.271v33.715h45.573V4.601H9.31z M44.519,11.764H30.184V7.929h14.335V11.764z M12.64,26.931  V15.092h14.213v11.839H12.64z M26.853,30.259V42.15H12.64V30.259H26.853z M30.184,15.092h14.335v11.839H30.184V15.092z M12.64,7.929  h14.213v3.835H12.64V7.929z M9.31,15.092v11.839H5.597V15.092H9.31z M5.597,30.259H9.31V42.15H5.597V30.259z M30.184,42.15V30.259  h14.335V42.15H30.184z" />
</svg>
