<?xml version="1.0" encoding="UTF-8"?>
<!-- Generator: Adobe Illustrator 16.0.0, SVG Export Plug-In . SVG Version: 6.00 Build 0)  --><svg xmlns="http://www.w3.org/2000/svg" xmlns:xlink="http://www.w3.org/1999/xlink" version="1.1" id="Layer_1" x="0px" y="0px" width="50px" height="50px" viewBox="0 0 50 50" enable-background="new 0 0 50 50" xml:space="preserve">
<g>
	<path fill="#006BB2" d="M25.189,48.125l-6.476-11.223h-7.409c-3.263,0-5.918-2.654-5.918-5.92V7.004c0-3.264,2.655-5.92,5.918-5.92   h27.771c3.264,0,5.918,2.656,5.918,5.92v23.979c0,3.266-2.654,5.92-5.918,5.92h-7.411L25.189,48.125z M11.305,4.294   c-1.493,0-2.707,1.215-2.707,2.71v23.979c0,1.494,1.214,2.709,2.707,2.709h9.262l4.623,8.008l4.619-8.008h9.268   c1.49,0,2.706-1.215,2.706-2.709V7.004c0-1.495-1.216-2.71-2.706-2.71H11.305z" />
</g>
<g>
	<path fill="#006BB2" d="M26.182,22.037l-2.518,0.584l-0.28-3.865l0.789-0.255c2.519-0.737,3.382-1.499,3.382-2.72   c0-1.042-0.764-1.678-2.162-1.678c-1.601,0-3.331,0.762-4.805,1.805l-0.535-3.559c1.5-1.018,3.382-1.781,5.899-1.781   c3.587,0,5.672,1.807,5.672,4.882c0,2.951-1.856,4.629-5.365,5.748L26.182,22.037z M22.723,28.443V24.07h4.119v4.374H22.723   L22.723,28.443z" />
</g>
</svg>
