<?xml version="1.0" encoding="UTF-8"?>
<!-- Generator: Adobe Illustrator 16.0.0, SVG Export Plug-In . SVG Version: 6.00 Build 0)  --><svg xmlns="http://www.w3.org/2000/svg" xmlns:xlink="http://www.w3.org/1999/xlink" version="1.1" id="Layer_1" x="0px" y="0px" width="50px" height="50px" viewBox="0 0 50 50" enable-background="new 0 0 50 50" xml:space="preserve">
<path fill="#FFFFFF" d="M25.029,0.941c-13.049,0-23.627,10.578-23.627,23.627c0,13.049,10.578,23.627,23.627,23.627  c13.049,0,23.627-10.578,23.627-23.627C48.656,11.519,38.078,0.941,25.029,0.941z M23.409,19.852v9.644v7.021l-7.049-7.021H7.302  v-9.644h9.253l6.854-6.557V19.852z M28.46,27.693c1.543-1.536,1.547-4.04,0.013-5.583l1.862-1.857  c2.56,2.568,2.552,6.742-0.021,9.305L28.46,27.693z M32.162,31.415c3.597-3.587,3.607-9.428,0.025-13.026l1.862-1.858  c4.609,4.627,4.595,12.137-0.032,16.748L32.162,31.415z M37.73,37l-1.857-1.864c5.654-5.631,5.673-14.812,0.041-20.464l1.863-1.859  C44.432,19.495,44.414,30.343,37.73,37z" />
</svg>
