<?xml version="1.0" encoding="UTF-8"?>
<!-- Generator: Adobe Illustrator 16.0.0, SVG Export Plug-In . SVG Version: 6.00 Build 0)  --><svg xmlns="http://www.w3.org/2000/svg" xmlns:xlink="http://www.w3.org/1999/xlink" version="1.1" id="Layer_1" x="0px" y="0px" width="50px" height="50px" viewBox="0 0 50 50" enable-background="new 0 0 50 50" xml:space="preserve">
<path fill="#006BB2" d="M48.182,29.002l-0.024-3.234h-0.009l-0.031-3.873c-0.028-3.141-2.602-5.693-5.73-5.693h-0.693  c-0.525,0.004-1.043,0.08-1.533,0.221c-0.879-0.538-1.905-0.842-2.991-0.842l-0.698,0.003c-0.839,0.007-1.638,0.192-2.361,0.524  c-0.594-0.263-1.235-0.426-1.904-0.473l-0.04-4.661h10.91c1.459,0,2.646-1.188,2.646-2.65c0-1.468-1.188-2.646-2.646-2.646h-12.13  c-1.053-1.36-2.695-2.244-4.539-2.244h-0.016h-0.037l-0.656,0.004c-1.534,0.011-2.972,0.619-4.048,1.713  c-0.161,0.164-0.288,0.349-0.426,0.527H4.356c-1.465,0-2.647,1.178-2.647,2.646c0,1.462,1.182,2.65,2.647,2.65h15.658l0.094,11.471  c-0.766-0.196-1.584-0.295-2.44-0.295c-1.872,0-3.388,0.473-3.874,0.645c-1.062,0.341-2.317,1.208-2.828,2.685  c-0.271,0.784-0.531,2.363,0.769,4.129c0.64,0.865,1.615,1.603,2.966,2.623c1.911,1.442,4.529,3.425,6.447,6.031  c0.091,0.122,0.178,0.232,0.259,0.334c2.148,4.682,6.784,7.676,11.962,7.676h0.122l1.649-0.014c3.521-0.027,6.819-1.427,9.289-3.938  c2.471-2.512,3.813-5.829,3.785-9.35L48.182,29.002z M44.955,33.002c0.045,5.473-4.359,9.952-9.842,9.997l-1.652,0.013  c-0.031,0-0.061,0-0.092,0c-0.21,0-0.417-0.011-0.623-0.023c-0.023-0.002-0.046-0.002-0.069-0.003  c-0.232-0.017-0.463-0.042-0.691-0.074c-0.022-0.003-0.045-0.005-0.067-0.008c-0.229-0.033-0.456-0.077-0.681-0.126  c-0.02-0.005-0.04-0.007-0.06-0.012c-0.231-0.053-0.459-0.113-0.684-0.182c-0.012-0.004-0.023-0.006-0.035-0.01  c-0.229-0.07-0.454-0.149-0.676-0.236c-0.007-0.002-0.014-0.004-0.021-0.007c-2.517-0.987-4.533-2.975-5.559-5.479  c-0.135-0.148-0.275-0.313-0.429-0.519c-3.393-4.616-8.403-7.292-9.414-8.658c-0.254-0.345-0.351-0.629-0.354-0.86  c-0.013-0.696,0.82-0.926,0.82-0.926s0.959-0.357,2.237-0.453c0.019-0.001,0.037-0.003,0.055-0.004  c0.347-0.023,0.715-0.027,1.095,0.001c0.013,0.001,0.026,0.002,0.039,0.003c0.162,0.013,0.326,0.033,0.491,0.059  c0.036,0.005,0.071,0.012,0.107,0.018c0.148,0.026,0.296,0.059,0.445,0.096c0.037,0.01,0.074,0.018,0.111,0.028  c0.181,0.05,0.361,0.106,0.54,0.178c1.044,0.408,2.338,1.302,3.467,2.182l-0.14-17.021h0.001L23.261,9.2  c-0.012-1.371,1.09-2.49,2.459-2.5l0.661-0.005c1.37-0.012,2.491,1.093,2.5,2.456l0.095,11.023c0.418-0.757,1.209-1.277,2.135-1.282  l0.662-0.01c0.004,0,0.009,0.001,0.013,0.001c0.001,0,0.002,0,0.004,0c0.02,0,0.038,0.004,0.058,0.005  c0.116,0.003,0.23,0.009,0.342,0.028c0.057,0.009,0.108,0.027,0.163,0.04c0.073,0.017,0.147,0.031,0.217,0.054  c0.091,0.03,0.177,0.071,0.262,0.111c0.03,0.014,0.063,0.024,0.093,0.04c0.108,0.057,0.211,0.122,0.31,0.193  c0.005,0.003,0.011,0.006,0.016,0.01c0.412,0.305,0.727,0.735,0.893,1.235c0.312-1.005,1.234-1.743,2.341-1.753l0.658-0.003  c0.004,0,0.009,0.001,0.013,0.001c0.005,0,0.01,0,0.013,0c0.039,0,0.075,0.008,0.113,0.01c0.104,0.005,0.206,0.009,0.306,0.026  c0.05,0.008,0.097,0.025,0.146,0.037c0.085,0.02,0.172,0.038,0.254,0.067c0.062,0.021,0.118,0.052,0.177,0.079  c0.065,0.029,0.133,0.054,0.194,0.088c0.072,0.04,0.138,0.089,0.205,0.136c0.044,0.03,0.09,0.055,0.131,0.088  c0.083,0.065,0.157,0.14,0.231,0.215c0.021,0.021,0.044,0.038,0.063,0.06c0.272,0.3,0.474,0.668,0.576,1.077  c0.426-0.743,1.211-1.258,2.126-1.264h0.664c0.004,0,0.007,0.001,0.011,0.001c0.006,0,0.012,0,0.018,0  c0.049,0,0.095,0.012,0.144,0.015c0.116,0.007,0.233,0.012,0.346,0.034c0.04,0.008,0.077,0.025,0.117,0.035  c0.117,0.03,0.235,0.061,0.346,0.107c0.033,0.014,0.062,0.035,0.095,0.05c0.111,0.052,0.223,0.106,0.324,0.175  c0.03,0.021,0.056,0.047,0.085,0.069c0.098,0.072,0.194,0.145,0.28,0.23c0.032,0.031,0.057,0.07,0.087,0.103  c0.075,0.083,0.152,0.166,0.216,0.259c0.035,0.052,0.06,0.11,0.091,0.165c0.049,0.083,0.101,0.164,0.14,0.253  c0.037,0.086,0.059,0.18,0.087,0.271c0.019,0.064,0.046,0.125,0.061,0.191c0.027,0.132,0.038,0.27,0.045,0.408  c0.001,0.031,0.01,0.06,0.01,0.091v0.059l0.059,7.047h0.01l0.033,3.973c0,0,0,0,0,0.001V33.002z" />
</svg>
