<?xml version="1.0" encoding="UTF-8"?>
<!-- Generator: Adobe Illustrator 16.0.0, SVG Export Plug-In . SVG Version: 6.00 Build 0)  --><svg xmlns="http://www.w3.org/2000/svg" xmlns:xlink="http://www.w3.org/1999/xlink" version="1.1" id="Layer_1" x="0px" y="0px" width="50px" height="50px" viewBox="0 0 50 50" enable-background="new 0 0 50 50" xml:space="preserve">
<path fill="#FFFFFF" d="M25.091,2.542c-12.443,0-22.566,10.124-22.566,22.567c0,12.445,10.123,22.569,22.566,22.569  c12.445,0,22.568-10.124,22.568-22.569C47.659,12.666,37.536,2.542,25.091,2.542z M5.973,26.792h6.195  c0.162,2.321,0.592,4.576,1.267,6.721H7.85C6.84,31.449,6.182,29.187,5.973,26.792z M26.697,13.01V7.346  c2.044,1.546,3.736,3.462,5.037,5.664H26.697z M33.327,16.371c0.807,2.178,1.288,4.547,1.41,7.056h-8.04v-7.056H33.327z   M23.332,7.494v5.516h-4.841C19.75,10.878,21.375,9.013,23.332,7.494z M23.332,16.371v7.056h-7.845  c0.121-2.509,0.603-4.878,1.41-7.056H23.332z M12.118,23.427H5.973c0.221-2.524,0.934-4.905,2.039-7.056h5.326  C12.64,18.583,12.224,20.947,12.118,23.427z M15.54,26.792h7.792v6.721h-6.31C16.244,31.385,15.732,29.119,15.54,26.792z   M23.332,36.877v6.002c-1.907-1.648-3.531-3.69-4.796-6.002H23.332z M26.697,43.042v-6.165h4.99  C30.38,39.267,28.689,41.367,26.697,43.042z M26.697,33.513v-6.721h7.985c-0.192,2.327-0.704,4.593-1.481,6.721H26.697z   M38.056,26.792h6.156c-0.209,2.395-0.867,4.657-1.876,6.721h-5.548C37.463,31.368,37.894,29.113,38.056,26.792z M38.105,23.427  c-0.106-2.48-0.523-4.844-1.22-7.056h5.287c1.105,2.151,1.819,4.532,2.039,7.056H38.105z M39.989,13.01h-4.428  c-1.088-2.247-2.51-4.277-4.228-6.043C34.757,8.148,37.748,10.256,39.989,13.01z M18.909,6.945  c-1.726,1.771-3.154,3.809-4.248,6.064h-4.464C12.451,10.24,15.462,8.122,18.909,6.945z M9.948,36.877h4.785  c1.096,2.364,2.513,4.525,4.208,6.409C15.346,42.066,12.234,39.812,9.948,36.877z M31.301,43.265  c1.686-1.878,3.098-4.032,4.188-6.388h4.749C37.963,39.798,34.871,42.041,31.301,43.265z" />
</svg>
