<?xml version="1.0" encoding="UTF-8"?>
<!-- Generator: Adobe Illustrator 16.0.0, SVG Export Plug-In . SVG Version: 6.00 Build 0)  --><svg xmlns="http://www.w3.org/2000/svg" xmlns:xlink="http://www.w3.org/1999/xlink" version="1.1" id="Layer_1" x="0px" y="0px" width="50px" height="50px" viewBox="0 0 50 50" enable-background="new 0 0 50 50" xml:space="preserve">
<path fill="#006bb2" d="M14.799,1.277L1.62,16.194v1.369h0.024v29.766L1.62,47.355v1.369h33.64l13.124-14.854V1.277H14.799z M14.156,6.536v8.027  H7.064L14.156,6.536z M4.645,17.563h9.512v15.604L4.645,43.934V17.563z M33.083,45.727H7.064l9.088-10.287h16.931V45.727z   M33.083,32.439H17.156V17.563h15.927V32.439z M33.906,14.563h-16.75V4.277h25.838L33.906,14.563z M36.083,43.262v-7.822h6.911  L36.083,43.262z M45.404,32.439h-9.321V16.632L45.404,6.08V32.439z" />
</svg>
