<?xml version="1.0" encoding="UTF-8"?>
<!-- Generator: Adobe Illustrator 16.0.0, SVG Export Plug-In . SVG Version: 6.00 Build 0)  --><svg xmlns="http://www.w3.org/2000/svg" xmlns:xlink="http://www.w3.org/1999/xlink" version="1.1" id="Layer_1" x="0px" y="0px" width="50px" height="50px" viewBox="0 0 50 50" enable-background="new 0 0 50 50" xml:space="preserve">
<path fill="#006bb2" d="M25.206,48.351l-6.935-12.008H9.66c-3.35,0-6.076-2.727-6.076-6.077V7.732c0-3.351,2.726-6.076,6.076-6.076h31.09  c3.35,0,6.076,2.725,6.076,6.076v22.533c0,3.351-2.727,6.077-6.076,6.077h-8.611L25.206,48.351z M9.66,4.149  c-1.976,0-3.583,1.607-3.583,3.583v22.533c0,1.977,1.607,3.583,3.583,3.583h10.05l5.495,9.518l5.494-9.518H40.75  c1.975,0,3.582-1.606,3.582-3.583V7.732c0-1.976-1.607-3.583-3.582-3.583H9.66z" />
<g>
	<path fill="#006bb2" d="M16.944,19.413c0,1.464-1.191,2.652-2.653,2.652c-1.47,0-2.656-1.188-2.656-2.652   c0-1.464,1.186-2.651,2.656-2.651C15.753,16.761,16.944,17.949,16.944,19.413z" />
	<path fill="#006bb2" d="M27.722,19.413c0,1.464-1.19,2.652-2.652,2.652c-1.47,0-2.657-1.188-2.657-2.652   c0-1.464,1.187-2.651,2.657-2.651C26.531,16.761,27.722,17.949,27.722,19.413z" />
	<path fill="#006bb2" d="M38.774,19.413c0,1.464-1.191,2.652-2.653,2.652c-1.469,0-2.655-1.188-2.655-2.652   c0-1.464,1.187-2.651,2.655-2.651C37.583,16.761,38.774,17.949,38.774,19.413z" />
</g>
</svg>
