<?xml version="1.0" encoding="UTF-8"?>
<!-- Generator: Adobe Illustrator 16.0.0, SVG Export Plug-In . SVG Version: 6.00 Build 0)  --><svg xmlns="http://www.w3.org/2000/svg" xmlns:xlink="http://www.w3.org/1999/xlink" version="1.1" id="Layer_1" x="0px" y="0px" width="50px" height="50px" viewBox="0 0 50 50" enable-background="new 0 0 50 50" xml:space="preserve">
<path fill="#006bb2" d="M25.069,49.19l-7.124-12.338H9.098c-3.441,0-6.242-2.801-6.242-6.243V7.458c0-3.442,2.801-6.242,6.242-6.242H41.04  c3.442,0,6.243,2.8,6.243,6.242v23.151c0,3.442-2.801,6.243-6.243,6.243h-8.847L25.069,49.19z M9.098,3.777  c-2.029,0-3.681,1.651-3.681,3.681v23.151c0,2.03,1.651,3.681,3.681,3.681h10.326l5.646,9.777l5.645-9.777H41.04  c2.03,0,3.682-1.65,3.682-3.681V7.458c0-2.03-1.651-3.681-3.682-3.681H9.098z" />
<g>
	<g>
		<path fill="#006bb2" d="M24.718,9.796c0.425-0.427,0.957-0.651,1.555-0.647c0.597-0.003,1.129,0.22,1.553,0.647    c0.432,0.421,0.651,0.956,0.651,1.563c0,0.599-0.22,1.132-0.651,1.56c-0.42,0.426-0.949,0.65-1.541,0.65h-0.012    c-0.598,0.003-1.13-0.22-1.558-0.65c-0.427-0.428-0.65-0.961-0.648-1.56C24.064,10.752,24.288,10.218,24.718,9.796z" />
	</g>
	<g>
		<path fill="#006bb2" d="M29.31,23.476c-1.104,2.377-2.714,3.628-4.764,3.628H24.53c-0.823,0-1.47-0.174-1.92-0.551    c-0.453-0.374-0.676-0.943-0.673-1.643c0.003-0.43,0.156-1.116,0.452-2.099l1.369-4.467c0.109-0.337,0.156-0.567,0.153-0.619    c0-0.08-0.016-0.099-0.016-0.099c-0.004,0-0.022-0.019-0.099-0.019c-0.274-0.026-0.813,0.472-1.391,1.589l-0.051,0.094h-1.646    l0.124-0.261c1.116-2.444,2.756-3.724,4.855-3.717c0.741,0,1.348,0.184,1.783,0.566c0.44,0.385,0.658,0.931,0.654,1.578    c0,0.485-0.162,1.208-0.479,2.19l-1.33,4.093c-0.19,0.57-0.281,0.948-0.277,1.037c0.003,0.064,0.016,0.076,0.025,0.088    c0.018,0.013,0.042,0.029,0.114,0.033c0.115,0.006,0.39-0.143,0.725-0.52c0.341-0.377,0.597-0.734,0.77-1.067l0.051-0.097h1.706    L29.31,23.476z" />
	</g>
</g>
</svg>
