<?xml version="1.0" encoding="UTF-8"?>
<!-- Generator: Adobe Illustrator 16.0.0, SVG Export Plug-In . SVG Version: 6.00 Build 0)  --><svg xmlns="http://www.w3.org/2000/svg" xmlns:xlink="http://www.w3.org/1999/xlink" version="1.1" id="Layer_1" x="0px" y="0px" width="50px" height="50px" viewBox="0 0 50 50" enable-background="new 0 0 50 50" xml:space="preserve">
<polygon points="36.341,35.904 36.341,41.538 5.387,41.538 5.387,7.447 36.341,7.447 36.341,16.167 39.912,12.833 39.912,3.876   1.815,3.876 1.815,45.106 39.912,45.106 39.912,32.359 " />
<polygon points="21.49,35.174 8.979,35.174 8.979,32.311 21.49,32.311 " />
<polygon points="31.86,16.45 8.979,16.45 8.979,13.591 31.86,13.591 " />
<polygon points="23.278,22.765 8.979,22.765 8.979,19.905 23.278,19.905 " />
<polygon points="26.354,29.069 8.979,29.069 8.979,26.21 26.354,26.21 " />
<path d="M47.275,15.138c-0.926-0.93-2.146-1.394-3.367-1.394c-1.219,0-2.438,0.463-3.364,1.394L29.64,26.037l-0.016,6.756h6.733  l10.918-10.924C49.134,20.011,49.134,16.996,47.275,15.138z M35.37,30.405h-0.983v-2.378h-2.37l0.003-0.999l10.204-10.209l0,0  l3.369,3.371l0,0L35.37,30.405z" />
</svg>
