<?xml version="1.0" encoding="UTF-8"?>
<!-- Generator: Adobe Illustrator 17.1.0, SVG Export Plug-In . SVG Version: 6.00 Build 0)  --><svg xmlns="http://www.w3.org/2000/svg" xmlns:xlink="http://www.w3.org/1999/xlink" version="1.1" id="Layer_1" x="0px" y="0px" viewBox="0 0 13.9 10.6" style="enable-background:new 0 0 13.9 10.6;" xml:space="preserve">
<style type="text/css">
	.st0{fill:#00A7CE;}
</style>
<g>
	<path class="st0" d="M6.9,10.6C5.4,10.6,4,10,3,9C2.9,8.8,2.9,8.6,3,8.4c0.2-0.1,0.4-0.1,0.5,0c1,1.1,2.5,1.6,3.9,1.4   C8.7,9.6,9.8,9,10.5,8c0.7-1,1-2.2,0.9-3.4c0-0.2,0.1-0.4,0.3-0.4c0.2,0,0.4,0.1,0.4,0.3c0.2,1.4-0.2,2.8-1,3.9   c-0.9,1.1-2.1,1.9-3.5,2.1C7.4,10.6,7.1,10.6,6.9,10.6z" />
	<path class="st0" d="M2,6.4C1.8,6.4,1.6,6.2,1.6,6c-0.2-1.4,0.2-2.8,1-3.9C3.5,1,4.7,0.2,6.1,0.1c1.7-0.2,3.4,0.4,4.6,1.6   c0.1,0.2,0.1,0.4,0,0.5c-0.2,0.1-0.4,0.1-0.5,0c-1-1.1-2.5-1.6-3.9-1.4C5,1,4,1.6,3.3,2.6c-0.7,1-1,2.2-0.9,3.4   C2.4,6.1,2.3,6.3,2,6.4C2,6.4,2,6.4,2,6.4z" />
	<path class="st0" d="M0,4.3l1.9,2.6c0.1,0.1,0.2,0.1,0.2,0l1.9-2.5c0.1-0.1,0-0.2-0.1-0.2l-3.8,0C0,4.1,0,4.2,0,4.3z" />
	<path class="st0" d="M13.8,6.4L12,3.9c-0.1-0.1-0.2-0.1-0.2,0L9.8,6.4c-0.1,0.1,0,0.2,0.1,0.2l3.8,0C13.8,6.6,13.9,6.5,13.8,6.4z" />
</g>
</svg>
