<?xml version="1.0" encoding="UTF-8"?>
<!-- Generator: Adobe Illustrator 16.0.0, SVG Export Plug-In . SVG Version: 6.00 Build 0)  --><svg xmlns="http://www.w3.org/2000/svg" xmlns:xlink="http://www.w3.org/1999/xlink" version="1.1" id="Layer_1" x="0px" y="0px" width="20px" height="20px" viewBox="0 0 20 20" enable-background="new 0 0 20 20" xml:space="preserve">
<polygon fill="#00A7CE" points="14.243,12.829 11.414,10 14.243,7.171 12.829,5.757 10,8.586 7.171,5.757 5.757,7.171 8.586,10   5.757,12.829 7.171,14.243 10,11.414 12.829,14.243 " />
<path fill="#00A7CE" d="M15.657,4.343c3.119,3.119,3.119,8.195,0,11.314s-8.194,3.119-11.313,0s-3.119-8.195,0-11.314  S12.538,1.224,15.657,4.343 M16.364,3.636c-3.515-3.515-9.213-3.514-12.728,0c-3.515,3.516-3.515,9.213,0,12.729  c3.515,3.515,9.213,3.514,12.728,0C19.878,12.849,19.879,7.151,16.364,3.636L16.364,3.636z" />
</svg>
