<?xml version="1.0" encoding="UTF-8"?>
<!-- Generator: Adobe Illustrator 17.1.0, SVG Export Plug-In . SVG Version: 6.00 Build 0)  --><svg xmlns="http://www.w3.org/2000/svg" xmlns:xlink="http://www.w3.org/1999/xlink" version="1.1" id="Layer_1" x="0px" y="0px" viewBox="0 0 14.4 14.4" style="enable-background:new 0 0 14.4 14.4;" xml:space="preserve">
<style type="text/css">
	.st0{opacity:0.75;fill:#FFFFFF;}
</style>
<path class="st0" d="M12.3,14.4H2.1c-1.2,0-2.1-0.9-2.1-2.1V2.1C0,0.9,0.9,0,2.1,0h10.2c1.2,0,2.1,0.9,2.1,2.1v10.2  C14.4,13.5,13.5,14.4,12.3,14.4z M2.1,1C1.5,1,1,1.5,1,2.1v10.2c0,0.6,0.5,1.1,1.1,1.1h10.2c0.6,0,1.1-0.5,1.1-1.1V2.1  c0-0.6-0.5-1.1-1.1-1.1H2.1z" />
</svg>
