<?xml version="1.0" encoding="UTF-8"?>
<!-- Generator: Adobe Illustrator 16.0.0, SVG Export Plug-In . SVG Version: 6.00 Build 0)  --><svg xmlns="http://www.w3.org/2000/svg" xmlns:xlink="http://www.w3.org/1999/xlink" version="1.1" id="Layer_1" x="0px" y="0px" width="17.155px" height="17.156px" viewBox="0 0 17.155 17.156" enable-background="new 0 0 17.155 17.156" xml:space="preserve">
<g>
	<path d="M4.694,13.885c1.428-0.051,1.768-0.205,1.768-0.73V4.518c0-0.526-0.34-0.68-1.768-0.73V3.244h4.59   c3.399,0,4.471,1.377,4.471,3.042c0,1.547-1.122,3.315-4.59,3.315H8.077v3.553c0,0.561,0.357,0.68,1.87,0.73v0.543H4.694V13.885z    M9.284,8.989c2.227,0,2.736-1.088,2.736-2.669c0-1.359-0.561-2.465-2.686-2.465H8.077v5.134H9.284z" />
</g>
<circle fill="none" stroke="#000000" stroke-miterlimit="10" cx="8.578" cy="8.578" r="8.078" />
</svg>
