<?xml version="1.0" encoding="UTF-8"?>
<!-- Generator: Adobe Illustrator 16.0.0, SVG Export Plug-In . SVG Version: 6.00 Build 0)  --><svg xmlns="http://www.w3.org/2000/svg" xmlns:xlink="http://www.w3.org/1999/xlink" version="1.1" id="Layer_1" x="0px" y="0px" width="10.999px" height="10.999px" viewBox="0 0 10.999 10.999" enable-background="new 0 0 10.999 10.999" xml:space="preserve">
<g>
	<defs>
		<path id="SVGID_1_" d="M0,5.5c0,3.036,2.461,5.499,5.499,5.499c3.036,0,5.5-2.463,5.5-5.499c0-3.038-2.463-5.499-5.5-5.499    C2.461,0.001,0,2.462,0,5.5" />
	</defs>
	<clipPath id="SVGID_2_">
		<use xlink:href="#SVGID_1_" overflow="visible" />
	</clipPath>
	
		<radialGradient id="SVGID_3_" cx="-310.0845" cy="462.333" r="1" gradientTransform="matrix(5.4993 0 0 -5.4993 1710.7336 2547.9871)" gradientUnits="userSpaceOnUse">
		<stop offset="0" style="stop-color:#72BE44" />
		<stop offset="0.2454" style="stop-color:#72BE44" />
		<stop offset="0.3748" style="stop-color:#6DBC44" />
		<stop offset="0.5202" style="stop-color:#60B443" />
		<stop offset="0.6734" style="stop-color:#49A941" />
		<stop offset="0.8321" style="stop-color:#2A983E" />
		<stop offset="0.9935" style="stop-color:#02833B" />
		<stop offset="1" style="stop-color:#00823B" />
	</radialGradient>
	<rect y="0.001" clip-path="url(#SVGID_2_)" fill="url(#SVGID_3_)" width="10.997" height="10.998" />
</g>
<g>
	<defs>
		<rect id="SVGID_4_" width="10.999" height="10.999" />
	</defs>
	<clipPath id="SVGID_5_">
		<use xlink:href="#SVGID_4_" overflow="visible" />
	</clipPath>
	<path clip-path="url(#SVGID_5_)" fill="#FFFFFF" d="M5.464,8.817c-0.811,0-1.364-0.18-1.742-0.564   C3.355,7.877,3.184,7.333,3.2,6.589l0.005-0.244h2.144v0.479c0,0.422,0.057,0.422,0.123,0.422c0.084,0,0.124-0.022,0.124-0.532   c0-0.557,0-0.557-0.421-0.557H4.687v-1.52h0.488c0.321,0,0.379,0,0.379-0.59c0-0.295-0.044-0.295-0.098-0.295   C5.34,3.812,5.34,4.142,5.34,4.25V4.5H3.282l0.011-0.261C3.355,2.798,4.045,2.182,5.6,2.182c1.435,0,2.103,0.598,2.103,1.882   c0,0.429-0.142,0.936-0.51,1.241C7.579,5.579,7.797,6.06,7.797,6.671C7.797,8.096,7.011,8.817,5.464,8.817" />
	<path clip-path="url(#SVGID_5_)" fill="#009645" d="M5.6,2.432c1.394,0,1.853,0.595,1.853,1.632c0,0.544-0.247,1.13-0.841,1.241   v0.017c0.662,0.136,0.935,0.696,0.935,1.351c0,1.385-0.774,1.896-2.083,1.896c-1.113,0-2.048-0.349-2.014-1.973h1.649v0.229   c0,0.281,0,0.671,0.374,0.671s0.374-0.364,0.374-0.781c0-0.596-0.018-0.806-0.672-0.806H4.937V4.888h0.238   c0.459,0,0.629-0.103,0.629-0.841c0-0.238-0.017-0.544-0.348-0.544c-0.34,0-0.366,0.263-0.366,0.747H3.542   C3.603,2.856,4.266,2.432,5.6,2.432 M5.6,1.932c-1.145,0-2.469,0.261-2.556,2.297L3.021,4.75h0.522h0.894v0.138v1.021v0.187H3.45   h-0.49L2.95,6.584C2.933,7.388,3.133,8.008,3.543,8.428c0.422,0.431,1.05,0.64,1.92,0.64c2.135,0,2.583-1.303,2.583-2.396   c0-0.581-0.175-1.06-0.491-1.389c0.252-0.311,0.397-0.736,0.397-1.22C7.953,2.648,7.161,1.932,5.6,1.932" />
</g>
</svg>
