<?xml version="1.0" encoding="UTF-8"?>
<svg xmlns="http://www.w3.org/2000/svg" xmlns:xlink="http://www.w3.org/1999/xlink" version="1.2">
<font id="ArumSans Light">
<font-face font-family="ArumSans" units-per-em="1000" ascent="750" descent="-250" font-style="normal" font-weight="300" font-stretch="normal" cap-height="652" x-height="425" underline-position="-75" underline-thickness="50" />
<missing-glyph horiz-adv-x="234" d="M27 0 L211 0 L211 650 L27 650 L27 0 Z " />
<glyph glyph-name="NULL" d="" />
<glyph glyph-name="CR" unicode="&#xD;" horiz-adv-x="250" d="" />
<glyph glyph-name="space" unicode=" " horiz-adv-x="219" d="" />
<glyph glyph-name="exclam" unicode="!" horiz-adv-x="261" d="M147 153 L154 658 L110 655 L113 150 L147 153 Z M90 36 C90 12 109 -7 133 -7 C157 -7 176 12 176 36 C176 59 157 78 133 78 C109 78 90 59 90 36 L90 36 Z " />
<glyph glyph-name="quotedbl" unicode="&quot;" horiz-adv-x="286" d="M105 505 C105 617 105 702 105 702 L40 699 C40 699 61 611 61 498 L105 505 Z M238 505 C238 617 238 702 238 702 L173 698 C173 698 194 609 194 497 L238 505 Z " />
<glyph glyph-name="numbersign" unicode="#" horiz-adv-x="549" d="M358 424 L236 424 L272 615 L226 615 L192 424 L63 424 L63 388 L185 388 L160 246 L42 246 L42 209 L153 209 L116 0 L158 0 L196 209 L319 209 L282 0 L324 0 L362 209 L488 209 L488 246 L369 246 L396 388 L509 388 L509 424 L402 424 L438 615 L392 615 L358 424 Z M230 388 L351 388 L326 246 L203 246 L230 388 Z " />
<glyph glyph-name="dollar" unicode="$" horiz-adv-x="514" d="M245 706 L245 605 C242 605 239 604 236 604 C147 595 73 525 78 448 C84 362 167 338 245 311 L245 67 C181 78 83 126 83 126 L66 99 C66 99 154 40 245 32 L245 -73 L289 -69 L289 32 C379 44 436 121 431 204 C425 284 359 315 289 339 L289 570 C350 558 403 527 403 527 L415 567 C384 580 341 598 289 603 L289 709 L245 706 Z M124 448 C116 519 154 572 243 574 L245 574 L245 353 C184 373 131 395 124 448 L124 448 Z M384 195 C391 133 374 72 289 65 L289 295 C338 275 378 248 384 195 L384 195 Z " />
<glyph glyph-name="percent" unicode="%" horiz-adv-x="770" d="M202 657 C197 657 193 657 190 657 C128 657 44 606 40 498 C37 396 101 333 189 333 C276 333 344 400 344 503 C344 561 323 604 288 629 C380 628 531 633 531 633 L179 -7 L215 -25 L588 645 L560 668 C560 668 474 663 406 658 C380 656 344 655 309 655 C254 655 202 657 202 657 L202 657 Z M576 317 C514 317 430 266 426 158 C423 56 488 -7 575 -7 C662 -7 730 60 730 163 C730 265 669 317 576 317 L576 317 Z M88 497 C88 593 149 625 190 625 C252 625 295 583 295 501 C295 410 248 365 189 365 C131 365 88 410 88 497 L88 497 Z M474 157 C474 253 535 285 577 285 C638 285 681 243 681 161 C681 70 634 25 576 25 C518 25 474 70 474 157 L474 157 Z " />
<glyph glyph-name="ampersand" unicode="&amp;" horiz-adv-x="672" d="M605 345 C605 345 597 279 523 167 L517 158 C454 231 349 329 279 365 C299 375 421 408 438 508 C453 600 371 667 266 659 C172 652 100 593 100 501 C100 457 127 408 196 364 C133 337 47 274 37 183 C28 98 84 -7 255 -7 C364 -7 447 37 508 97 C557 40 601 -15 601 -15 L640 20 C640 20 592 66 539 131 C603 207 634 283 646 333 L605 345 Z M252 35 C179 35 84 68 84 180 C84 292 229 345 229 345 C229 345 286 318 394 217 C428 185 457 154 485 122 C409 48 314 35 252 35 L252 35 Z M145 510 C141 571 176 618 266 623 C338 627 404 582 395 512 C384 429 268 394 247 383 C181 414 148 464 145 510 L145 510 Z " />
<glyph glyph-name="quotesingle" unicode="'" horiz-adv-x="164" d="M115 505 C115 617 115 702 115 702 L50 699 C50 699 71 611 71 498 L115 505 Z " />
<glyph glyph-name="parenleft" unicode="(" horiz-adv-x="324" d="M295 711 C295 711 66 596 66 295 C66 -6 287 -138 287 -138 L308 -112 C308 -112 117 35 117 294 C117 553 316 691 316 691 L295 711 Z " />
<glyph glyph-name="parenright" unicode=")" horiz-adv-x="325" d="M28 711 L7 691 C7 691 206 553 206 294 C206 35 15 -112 15 -112 L36 -138 C36 -138 257 -6 257 295 C257 596 28 711 28 711 L28 711 Z " />
<glyph glyph-name="asterisk" unicode="*" horiz-adv-x="342" d="M157 531 L150 402 L190 402 L184 530 L296 458 L317 491 L198 555 L318 617 L298 652 L185 581 L190 704 L149 704 L156 579 L45 651 L25 616 L141 555 L24 492 L44 456 L157 531 Z " />
<glyph glyph-name="plus" unicode="+" horiz-adv-x="540" d="M291 105 L291 303 L474 303 L477 344 L291 344 L291 536 L245 534 L245 344 L66 344 L64 303 L245 303 L245 101 L291 105 Z " />
<glyph glyph-name="comma" unicode="," horiz-adv-x="237" d="M161 87 C137 87 113 64 119 39 C126 2 164 24 160 -25 C155 -58 85 -114 85 -114 L107 -140 C107 -140 189 -90 214 -38 C220 -27 223 -12 223 2 C223 43 199 87 161 87 L161 87 Z " />
<glyph glyph-name="hyphen" unicode="-" horiz-adv-x="314" d="M284 222 L284 261 L30 261 L30 222 L284 222 Z " />
<glyph glyph-name="period" unicode="." horiz-adv-x="230" d="M100 39 C100 13 121 -9 148 -9 C174 -9 195 13 195 39 C195 65 174 87 148 87 C121 87 100 65 100 39 L100 39 Z " />
<glyph glyph-name="slash" unicode="/" horiz-adv-x="409" d="M53 -60 L396 685 L355 699 L12 -48 L53 -60 Z " />
<glyph glyph-name="zero" unicode="0" horiz-adv-x="514" d="M483 328 C483 558 401 662 259 662 C126 662 35 512 35 328 C35 144 87 -6 259 -6 C406 -6 483 144 483 328 L483 328 Z M432 325 C432 159 370 34 259 34 C129 34 86 159 86 325 C86 490 158 624 259 624 C366 624 432 531 432 325 L432 325 Z " />
<glyph glyph-name="one" unicode="1" horiz-adv-x="514" d="M245 0 L290 0 L290 662 L88 578 L94 553 L246 598 L245 0 Z " />
<glyph glyph-name="two" unicode="2" horiz-adv-x="514" d="M62 0 L454 0 L460 39 L131 39 C131 39 448 278 459 461 C467 604 380 652 283 659 C192 666 121 638 74 616 L86 579 C105 586 173 626 266 621 C376 615 420 539 413 456 C399 269 49 29 49 29 L62 0 Z " />
<glyph glyph-name="three" unicode="3" horiz-adv-x="514" d="M403 182 C394 78 299 28 174 34 C103 37 62 50 62 50 L48 16 C48 16 119 -6 198 -6 C327 -6 440 42 451 182 C459 269 406 347 276 350 C357 361 427 428 427 505 C427 628 324 655 268 659 C258 660 248 660 239 660 C160 660 97 636 55 616 L68 578 C68 578 173 626 247 621 C347 613 384 564 382 500 C380 409 274 368 214 362 C167 357 135 358 135 358 L136 320 C136 320 194 320 215 321 C333 323 412 284 403 182 L403 182 Z " />
<glyph glyph-name="four" unicode="4" horiz-adv-x="514" d="M327 -3 L370 0 L370 178 L484 178 L489 210 L370 210 L370 650 L334 657 L21 217 L41 178 L327 178 L327 -3 Z M327 586 L327 210 L63 210 L327 586 Z " />
<glyph glyph-name="five" unicode="5" horiz-adv-x="514" d="M337 75 C294 42 236 31 172 34 C102 36 61 50 61 50 L46 16 C46 16 117 -6 196 -6 C370 -6 452 97 452 215 C452 297 407 418 239 418 C169 418 111 388 111 388 L148 621 L445 621 L445 655 L108 655 L70 365 L103 346 C103 346 164 386 256 377 C334 370 402 323 404 222 C405 168 383 109 337 75 L337 75 Z " />
<glyph glyph-name="six" unicode="6" horiz-adv-x="514" d="M259 395 C211 391 156 376 121 336 C164 487 273 585 385 640 C378 656 371 667 371 667 C141 572 59 374 57 212 C57 86 139 -6 257 -6 C374 -6 465 77 465 204 C465 331 370 403 259 395 L259 395 Z M102 212 C102 325 199 356 261 356 C352 356 421 299 421 202 C421 93 346 32 259 32 C173 32 102 108 102 212 L102 212 Z " />
<glyph glyph-name="seven" unicode="7" horiz-adv-x="514" d="M83 621 L422 621 C194 316 157 -6 157 -6 L208 0 C275 411 468 612 468 612 L447 655 L83 655 L83 621 Z " />
<glyph glyph-name="eight" unicode="8" horiz-adv-x="514" d="M310 347 C333 357 441 406 445 511 C448 604 359 668 253 662 C148 656 61 585 63 493 C65 429 110 390 168 359 C127 342 34 291 30 181 C27 49 127 -6 251 -6 C371 -6 474 56 480 164 C486 267 401 311 310 347 L310 347 Z M111 495 C107 556 151 621 253 626 C336 631 400 586 400 515 C400 417 302 368 278 357 C195 389 116 421 111 495 L111 495 Z M431 162 C430 87 356 34 269 34 C154 34 84 88 79 180 C75 289 168 328 207 340 C328 297 433 264 431 162 L431 162 Z " />
<glyph glyph-name="nine" unicode="9" horiz-adv-x="514" d="M460 437 C460 576 376 662 261 662 C144 662 52 578 52 452 C52 325 148 253 259 261 C306 264 360 279 396 318 C353 166 250 77 133 16 C140 0 147 -11 147 -11 C374 82 456 277 460 437 L460 437 Z M415 444 C415 330 318 300 257 300 C165 300 97 357 97 454 C97 562 172 624 258 624 C345 624 415 548 415 444 L415 444 Z " />
<glyph glyph-name="colon" unicode=":" horiz-adv-x="230" d="M83 39 C83 13 105 -9 131 -9 C157 -9 179 13 179 39 C179 65 157 87 131 87 C105 87 83 65 83 39 L83 39 Z M83 367 C83 340 105 319 131 319 C157 319 179 340 179 367 C179 393 157 414 131 414 C105 414 83 393 83 367 L83 367 Z " />
<glyph glyph-name="semicolon" unicode=";" horiz-adv-x="230" d="M98 367 C98 340 119 319 145 319 C172 319 193 340 193 367 C193 393 172 414 145 414 C119 414 98 393 98 367 L98 367 Z M134 87 C110 87 86 64 92 39 C99 2 137 24 133 -25 C128 -58 58 -114 58 -114 L80 -140 C80 -140 162 -90 187 -38 C193 -27 196 -12 196 2 C196 43 172 87 134 87 L134 87 Z " />
<glyph glyph-name="less" unicode="&lt;" horiz-adv-x="514" d="M391 464 L101 253 L101 226 L391 9 L410 48 L156 242 L414 424 L391 464 Z " />
<glyph glyph-name="equal" unicode="=" horiz-adv-x="537" d="M477 374 L66 374 L63 333 L474 333 L477 374 Z M477 236 L66 236 L63 195 L474 195 L477 236 Z " />
<glyph glyph-name="greater" unicode="&gt;" horiz-adv-x="514" d="M134 465 L111 425 L369 243 L115 49 L134 10 L424 227 L424 254 L134 465 Z " />
<glyph glyph-name="question" unicode="?" horiz-adv-x="408" d="M322 493 C322 373 182 296 139 270 C116 256 183 144 183 144 L212 156 C212 156 183 237 183 256 C183 274 364 330 367 496 C369 631 260 666 191 666 C117 666 72 650 24 625 L36 591 C36 591 115 636 196 631 C292 624 322 550 322 493 L322 493 Z M145 39 C145 13 166 -9 192 -9 C219 -9 240 13 240 39 C240 65 219 87 192 87 C166 87 145 65 145 39 L145 39 Z " />
<glyph glyph-name="at" unicode="@" horiz-adv-x="762" d="M491 371 L478 335 C478 335 444 363 405 367 C355 372 308 351 269 285 C249 253 238 213 238 179 C238 142 252 111 282 104 C330 93 435 181 435 181 C435 181 423 137 423 133 C421 123 435 103 443 103 C517 101 679 123 679 293 C679 463 530 525 417 525 C251 525 87 415 78 218 C67 -13 253 -63 346 -63 C452 -63 533 -10 533 -10 L515 19 C515 19 441 -27 353 -27 C204 -27 131 81 131 206 C131 221 133 235 135 250 C147 343 218 489 410 489 C576 489 629 371 629 290 C629 276 628 266 626 255 C608 176 531 135 480 135 C468 135 469 148 473 163 C478 182 528 368 528 368 L491 371 Z M399 334 C439 334 466 303 466 303 C466 303 452 247 447 235 C442 223 337 127 301 143 C288 149 284 162 284 178 C284 207 298 244 306 261 C318 287 350 334 399 334 L399 334 Z " />
<glyph glyph-name="A" unicode="A" horiz-adv-x="536" d="M147 234 L280 602 C280 602 346 397 399 234 L147 234 Z M523 0 L309 658 L249 652 L15 0 L61 -6 L134 196 L411 196 C438 113 475 -6 475 -6 L523 0 Z " />
<glyph glyph-name="B" unicode="B" horiz-adv-x="590" d="M120 14 C120 14 184 -6 274 -6 C442 -6 534 77 534 185 C534 289 452 341 371 349 C423 359 501 414 504 503 C508 602 416 661 298 659 C195 657 120 640 120 640 L120 14 Z M167 357 L167 613 C167 613 235 626 295 626 C376 627 459 585 457 503 C455 414 375 357 250 357 C200 357 167 357 167 357 L167 357 Z M167 41 L167 324 C167 324 224 324 283 325 C379 327 485 304 485 180 C485 55 346 30 272 30 C221 30 167 41 167 41 L167 41 Z " />
<glyph glyph-name="C" unicode="C" horiz-adv-x="579" d="M547 604 C501 632 427 661 353 658 C223 653 51 544 51 317 C51 103 179 -13 335 -13 C436 -13 553 63 553 63 L533 90 C533 90 439 28 335 28 C229 28 101 121 101 332 C101 522 224 624 346 624 C448 624 527 570 527 570 L547 604 Z " />
<glyph glyph-name="D" unicode="D" horiz-adv-x="665" d="M120 10 C120 10 229 -9 291 -10 C457 -13 615 118 615 365 C615 605 438 659 319 659 C207 659 120 640 120 640 L120 10 Z M165 613 C165 613 228 622 296 625 C419 630 565 561 565 355 C565 160 471 27 303 27 C251 27 165 42 165 42 L165 613 Z " />
<glyph glyph-name="E" unicode="E" horiz-adv-x="539" d="M118 0 L500 0 L500 37 L164 37 L164 320 L441 320 L441 353 L164 353 L164 613 L486 613 L486 652 L119 652 L118 0 Z " />
<glyph glyph-name="F" unicode="F" horiz-adv-x="529" d="M167 0 L166 320 L454 320 L454 353 L166 353 L166 613 L499 613 L499 652 L121 652 L120 0 L167 0 Z " />
<glyph glyph-name="G" unicode="G" horiz-adv-x="674" d="M565 61 L565 304 L519 309 L519 77 C479 59 404 30 334 30 C227 30 100 121 100 332 C100 522 223 624 344 624 C438 624 492 593 534 570 L550 607 C504 635 425 661 352 658 C221 653 50 544 50 317 C50 103 177 -11 334 -11 C434 -11 565 61 565 61 L565 61 Z " />
<glyph glyph-name="H" unicode="H" horiz-adv-x="674" d="M508 653 L508 368 L166 368 L166 658 L120 653 L120 -6 L166 0 L166 336 L508 336 L508 -6 L554 0 L554 656 L508 653 Z " />
<glyph glyph-name="I" unicode="I" horiz-adv-x="286" d="M166 659 L120 652 L120 -6 L166 0 L166 659 Z " />
<glyph glyph-name="J" unicode="J" horiz-adv-x="287" d="M121 76 C121 -57 79 -113 29 -188 C36 -194 47 -201 55 -206 C150 -92 167 -21 167 62 C167 146 167 659 167 659 L121 652 L121 76 Z " />
<glyph glyph-name="K" unicode="K" horiz-adv-x="595" d="M236 356 L556 626 L527 658 L176 360 L546 -18 L581 11 L236 356 Z M120 -6 L166 0 L166 659 L120 652 L120 -6 Z " />
<glyph glyph-name="L" unicode="L" horiz-adv-x="467" d="M120 0 L461 0 L461 37 L166 37 L166 659 L120 656 L120 0 Z " />
<glyph glyph-name="M" unicode="M" horiz-adv-x="883" d="M191 614 L414 -6 L477 0 L684 622 L737 -5 L782 0 L726 659 L649 652 L445 40 L221 658 L146 651 L108 -4 L154 0 L191 614 Z " />
<glyph glyph-name="N" unicode="N" horiz-adv-x="718" d="M120 -6 L166 0 L166 605 L535 -6 L599 0 L599 658 L553 655 L553 51 L186 658 L120 652 L120 -6 Z " />
<glyph glyph-name="O" unicode="O" horiz-adv-x="693" d="M359 660 C200 660 50 522 50 323 C50 78 203 -13 341 -13 C481 -13 644 104 644 339 C644 582 496 660 359 660 L359 660 Z M355 624 C494 624 593 517 595 329 C597 129 479 29 353 29 C243 29 101 104 101 333 C101 562 261 624 355 624 L355 624 Z " />
<glyph glyph-name="P" unicode="P" horiz-adv-x="554" d="M120 -4 L166 0 L166 270 C185 270 216 267 251 267 C263 267 275 267 287 268 C406 277 500 370 503 478 C507 597 416 663 297 659 C204 656 120 640 120 640 L120 -4 Z M167 306 L166 613 C166 613 231 623 291 623 C372 623 459 576 457 478 C455 371 389 300 250 301 C199 302 167 306 167 306 L167 306 Z " />
<glyph glyph-name="Q" unicode="Q" horiz-adv-x="695" d="M359 660 C200 660 50 522 50 323 C50 78 203 -7 341 -7 C389 -7 441 6 487 34 L576 -71 L604 -54 L528 62 C595 119 644 210 644 339 C644 582 496 660 359 660 L359 660 Z M355 624 C494 624 593 517 595 329 C597 129 479 35 353 35 C243 35 101 104 101 333 C101 562 261 624 355 624 L355 624 Z " />
<glyph glyph-name="R" unicode="R" horiz-adv-x="608" d="M589 18 L333 273 C435 296 512 381 515 478 C518 597 427 661 308 659 C205 657 119 639 119 639 L119 -4 L165 0 L166 270 C188 270 237 265 281 267 L553 -13 L589 18 Z M166 613 C166 613 242 623 302 623 C383 623 470 576 468 478 C466 371 401 300 261 301 C211 302 167 306 167 306 L166 613 Z " />
<glyph glyph-name="S" unicode="S" horiz-adv-x="514" d="M441 635 C441 635 343 661 268 661 C257 661 246 660 235 659 C133 649 46 568 53 479 C66 293 395 356 415 185 C424 106 393 35 267 35 C169 35 53 83 53 83 L45 42 C45 42 142 -5 271 -5 C390 -5 469 92 462 195 C448 390 120 334 102 479 C92 561 141 622 244 624 C336 626 430 590 430 590 L441 635 Z " />
<glyph glyph-name="T" unicode="T" horiz-adv-x="471" d="M470 620 L470 652 L-1 652 L-1 620 L218 620 L218 -5 L264 0 L264 620 L470 620 Z " />
<glyph glyph-name="U" unicode="U" horiz-adv-x="691" d="M525 652 C525 652 525 431 525 275 C525 156 518 29 342 29 C166 29 166 165 166 270 L166 659 L120 652 L120 251 C120 161 129 -12 341 -12 C519 -12 571 126 571 313 L571 659 L525 652 Z " />
<glyph glyph-name="V" unicode="V" horiz-adv-x="546" d="M222 -6 L286 0 L538 652 L495 658 L254 43 L48 658 L6 652 L222 -6 Z " />
<glyph glyph-name="W" unicode="W" horiz-adv-x="837" d="M582 -6 L647 0 L829 652 L784 658 L614 46 L450 658 L387 652 L208 49 L55 658 L10 652 L177 -6 L238 0 L418 610 L582 -6 Z " />
<glyph glyph-name="X" unicode="X" horiz-adv-x="550" d="M533 652 L483 658 L275 367 L81 658 L29 652 L248 334 L19 0 L70 -6 L275 301 L480 -6 L531 0 L303 334 L533 652 Z " />
<glyph glyph-name="Y" unicode="Y" horiz-adv-x="497" d="M251 341 L55 658 L7 652 L227 290 L227 -6 L273 0 L273 291 L488 652 L440 658 L251 341 Z " />
<glyph glyph-name="Z" unicode="Z" horiz-adv-x="565" d="M54 652 L54 614 L462 614 L19 49 L31 0 L510 0 L510 37 L72 37 L507 597 L494 652 L54 652 Z " />
<glyph glyph-name="bracketleft" unicode="[" horiz-adv-x="299" d="M144 674 L277 674 L277 705 L100 717 L100 -117 L277 -105 L277 -74 L144 -74 L144 674 Z " />
<glyph glyph-name="backslash" unicode="\" horiz-adv-x="411" d="M10 704 L352 -43 L389 -30 L50 717 L10 704 Z " />
<glyph glyph-name="bracketright" unicode="]" horiz-adv-x="299" d="M157 674 L157 -74 L24 -74 L24 -105 L200 -117 L200 717 L24 705 L24 674 L157 674 Z " />
<glyph glyph-name="asciicircum" unicode="^" horiz-adv-x="540" d="M102 347 L271 589 L446 346 L482 373 L293 643 L250 642 L65 372 L102 347 Z " />
<glyph glyph-name="underscore" unicode="_" horiz-adv-x="530" d="M530 -77 L0 -77 L0 -120 L530 -120 L530 -77 Z " />
<glyph glyph-name="grave" unicode="`" horiz-adv-x="303" d="M66 594 L214 477 L233 501 L98 629 L66 594 Z " />
<glyph glyph-name="a" unicode="a" horiz-adv-x="464" d="M182 35 C136 35 106 78 106 144 C106 149 106 169 106 169 L341 203 L341 93 C323 79 248 36 182 35 L182 35 Z M384 293 C384 390 353 428 259 428 C241 428 221 427 198 424 C164 419 130 413 83 403 L91 365 C131 375 173 383 204 387 C224 389 241 391 256 391 C327 391 341 361 341 288 L341 230 L63 200 C63 200 63 152 63 143 C63 57 96 -4 179 -6 C225 -7 295 26 341 63 L354 -6 L384 0 L384 293 Z " />
<glyph glyph-name="b" unicode="b" horiz-adv-x="485" d="M84 -6 L119 0 L125 56 C160 28 208 -5 251 -5 C366 -6 432 87 432 229 C432 349 371 427 287 427 C268 427 248 423 227 415 L127 373 L127 695 L84 690 L84 -6 Z M127 340 L234 381 C248 385 261 387 274 387 C339 387 388 334 388 222 C388 111 342 33 251 32 C192 32 127 93 127 93 L127 340 Z " />
<glyph glyph-name="c" unicode="c" horiz-adv-x="426" d="M385 384 C385 384 317 436 230 426 C123 415 58 332 51 237 C50 227 50 217 50 208 C50 58 148 -6 227 -6 C299 -6 388 56 388 56 L377 83 C377 83 281 31 234 31 C151 31 95 106 96 229 C96 339 166 395 250 395 C312 395 362 357 368 354 L385 384 Z " />
<glyph glyph-name="d" unicode="d" horiz-adv-x="486" d="M401 697 L358 692 L358 410 C358 410 302 429 258 429 C128 429 62 324 53 235 C44 107 87 -6 233 -6 C273 -6 323 22 358 43 C358 41 365 -6 365 -6 L401 -1 L401 697 Z M358 85 C358 85 291 31 233 31 C141 32 92 107 97 227 C102 343 167 385 251 394 C299 399 358 376 358 376 L358 85 Z " />
<glyph glyph-name="e" unicode="e" horiz-adv-x="451" d="M366 254 C359 253 139 225 93 220 C95 306 126 393 235 393 C332 393 366 314 366 254 L366 254 Z M237 429 C112 429 42 321 51 180 C60 33 155 -6 234 -6 C299 -6 401 50 401 50 L391 74 C391 74 279 33 240 33 C149 33 98 92 94 191 L411 225 C414 331 361 429 237 429 L237 429 Z " />
<glyph glyph-name="f" unicode="f" horiz-adv-x="298" d="M252 617 C285 615 316 605 316 605 L326 636 C326 636 285 649 242 647 C167 642 118 572 118 487 C118 480 118 456 118 421 L29 421 L30 393 L118 385 C118 241 117 -4 117 -4 L161 0 C161 0 160 231 160 384 L274 384 L274 421 L160 421 C160 470 160 505 160 514 C160 587 191 621 252 617 L252 617 Z " />
<glyph glyph-name="g" unicode="g" horiz-adv-x="485" d="M400 430 L362 427 L355 380 C332 405 296 425 257 427 C127 432 61 322 52 233 C51 219 50 205 50 192 C50 67 114 3 232 3 C272 3 322 26 357 47 C357 47 356 -33 356 -58 C356 -142 310 -179 256 -179 C183 -179 97 -154 97 -154 L89 -177 C89 -177 174 -216 262 -216 C349 -216 400 -152 400 -51 L400 430 Z M356 91 C356 91 290 40 231 40 C140 41 89 100 96 225 C102 341 161 392 250 392 C320 392 356 337 356 337 L356 91 Z " />
<glyph glyph-name="h" unicode="h" horiz-adv-x="488" d="M408 338 C408 396 354 446 280 430 C241 422 166 383 128 362 L128 695 L85 690 L85 -5 L128 -1 L128 321 C158 338 236 381 264 388 C278 392 290 393 300 393 C351 393 365 353 365 314 L365 -6 L408 0 L408 338 Z " />
<glyph glyph-name="i" unicode="i" horiz-adv-x="211" d="M62 592 C62 568 82 548 107 548 C131 548 151 568 151 592 C151 617 131 637 107 637 C82 637 62 617 62 592 L62 592 Z M85 -6 L127 0 L127 427 L85 422 L85 -6 Z " />
<glyph glyph-name="j" unicode="j" horiz-adv-x="211" d="M64 592 C64 568 84 548 109 548 C133 548 153 568 153 592 C153 617 133 637 109 637 C84 637 64 617 64 592 L64 592 Z M86 24 C86 -97 64 -131 14 -206 C21 -212 32 -219 40 -224 C135 -110 126 -39 127 44 C127 205 127 427 127 427 L86 422 L86 24 Z " />
<glyph glyph-name="k" unicode="k" horiz-adv-x="426" d="M408 17 L180 239 L397 395 L367 427 L131 241 L374 -12 L408 17 Z M86 -5 L127 0 L127 695 L86 690 L86 -5 Z " />
<glyph glyph-name="l" unicode="l" horiz-adv-x="231" d="M89 -6 L129 0 L129 695 L89 690 L89 -6 Z " />
<glyph glyph-name="m" unicode="m" horiz-adv-x="746" d="M661 0 C661 0 661 307 661 315 C661 390 598 427 539 427 C523 427 507 425 493 419 C461 406 404 360 390 350 C380 395 342 427 290 427 C276 427 261 425 245 420 C219 412 153 370 129 354 L119 429 L85 424 L85 -5 L129 -1 L129 319 C152 333 224 376 254 385 C263 388 273 389 282 389 C320 389 350 363 350 326 C350 280 350 -5 350 -5 L393 -1 C393 -1 393 238 393 317 C408 329 464 373 493 385 C505 390 518 392 531 392 C575 392 618 364 618 316 C618 311 617 -6 617 -6 L661 0 Z " />
<glyph glyph-name="n" unicode="n" horiz-adv-x="510" d="M425 0 C425 0 425 278 425 305 C425 381 376 429 305 429 C256 429 179 385 129 359 L120 429 L85 423 L85 -5 L129 -1 L129 323 C181 350 261 393 301 393 C347 393 382 360 382 310 C382 290 381 -6 381 -6 L425 0 Z " />
<glyph glyph-name="o" unicode="o" horiz-adv-x="493" d="M99 214 C99 354 187 400 246 400 C335 400 396 338 396 220 C396 87 329 23 245 23 C161 23 99 87 99 214 L99 214 Z M244 433 C164 433 54 363 50 215 C46 76 129 -11 242 -11 C356 -11 444 81 444 222 C444 362 364 433 244 433 L244 433 Z " />
<glyph glyph-name="p" unicode="p" horiz-adv-x="486" d="M388 197 C381 34 249 -5 128 66 L128 359 C172 374 223 390 253 389 C344 389 393 305 388 197 L388 197 Z M253 427 C186 421 146 397 84 377 L84 -220 L128 -217 L128 32 C145 23 202 -5 240 -5 C372 -5 435 116 435 224 C435 354 362 437 253 427 L253 427 Z " />
<glyph glyph-name="q" unicode="q" horiz-adv-x="485" d="M357 39 L357 -220 L401 -217 L400 430 L363 427 L356 380 C332 405 296 425 257 427 C127 432 61 322 52 233 C51 219 50 205 50 192 C50 67 114 -5 232 -5 C272 -5 322 18 357 39 L357 39 Z M357 83 C357 83 290 32 232 32 C140 33 91 117 96 225 C101 341 161 392 250 392 C320 392 357 337 357 337 L357 83 Z " />
<glyph glyph-name="r" unicode="r" horiz-adv-x="352" d="M125 255 L128 428 L85 424 L85 -4 L128 0 C128 0 128 23 128 152 C128 318 262 387 342 387 C345 404 345 414 347 433 C201 420 147 319 128 255 L125 255 Z " />
<glyph glyph-name="s" unicode="s" horiz-adv-x="407" d="M335 409 C335 409 267 425 198 426 C112 427 50 374 55 306 C61 233 131 211 203 191 C273 172 312 164 312 111 C312 46 258 33 207 35 C151 37 56 58 56 58 L50 21 C50 21 131 -2 209 -5 C282 -8 364 41 356 124 C349 193 289 210 207 232 C164 244 100 261 96 312 C90 378 152 392 195 391 C262 389 330 372 330 372 L335 409 Z " />
<glyph glyph-name="t" unicode="t" horiz-adv-x="316" d="M301 37 L143 37 L143 383 L285 383 L285 420 L143 420 L143 576 L100 569 C100 569 100 504 100 420 L20 412 L21 385 L100 385 C100 247 100 71 100 52 C100 22 132 -9 151 -9 C185 -3 302 6 302 6 L301 37 Z " />
<glyph glyph-name="u" unicode="u" horiz-adv-x="499" d="M414 0 L414 427 L371 422 C371 384 371 202 371 109 C355 100 311 69 251 44 C233 37 217 33 202 33 C154 33 123 70 123 129 L123 427 L81 422 C80 384 80 240 80 144 C80 29 151 -16 220 -5 C266 3 348 69 371 86 C371 73 382 -6 382 -6 L414 0 Z " />
<glyph glyph-name="v" unicode="v" horiz-adv-x="421" d="M172 -6 L228 0 L405 420 L363 433 L203 31 L200 31 L60 427 L17 422 L172 -6 Z " />
<glyph glyph-name="w" unicode="w" horiz-adv-x="605" d="M336 427 L277 427 L164 37 L160 37 L66 427 L25 422 L132 -6 L188 0 L308 386 L397 -6 L454 0 L582 422 L539 433 L429 37 L426 37 L336 427 Z " />
<glyph glyph-name="x" unicode="x" horiz-adv-x="438" d="M390 409 L354 434 L220 248 L84 433 L48 410 L192 218 L41 16 L79 -8 L216 187 L355 -8 L390 17 L246 217 L390 409 Z " />
<glyph glyph-name="y" unicode="y" horiz-adv-x="425" d="M360 427 L209 72 L194 72 L71 427 L25 422 L165 39 L194 39 L94 -203 L136 -216 L401 415 L360 427 Z " />
<glyph glyph-name="z" unicode="z" horiz-adv-x="431" d="M384 39 L86 39 L376 387 L368 420 L63 420 L63 386 L322 386 L46 52 L58 0 L378 0 L384 39 Z " />
<glyph glyph-name="braceleft" unicode="{" horiz-adv-x="330" d="M44 317 C42 301 44 283 44 283 C83 283 136 276 136 211 C136 145 113 124 113 53 C113 -36 152 -86 222 -112 C264 -127 306 -126 306 -126 L305 -91 C305 -91 273 -93 240 -85 C181 -71 159 -52 159 25 C159 81 180 170 180 218 C180 287 113 304 113 304 C113 304 180 320 180 386 C180 432 159 516 159 570 C159 643 181 661 240 674 C273 682 305 680 305 680 L306 713 C306 713 264 714 222 700 C152 675 113 628 113 543 C113 475 136 448 136 386 C136 324 79 317 44 317 L44 317 Z " />
<glyph glyph-name="bar" unicode="|" horiz-adv-x="514" d="M279 -254 L279 759 L234 759 L234 -254 L279 -254 Z " />
<glyph glyph-name="braceright" unicode="}" horiz-adv-x="330" d="M282 317 C247 317 191 324 191 386 C191 448 214 475 214 543 C214 628 175 675 105 700 C63 714 20 713 20 713 L22 680 C22 680 54 682 87 674 C146 661 168 643 168 570 C168 516 147 432 147 386 C147 320 214 304 214 304 C214 304 147 287 147 218 C147 170 168 81 168 25 C168 -52 146 -71 87 -85 C54 -93 22 -91 22 -91 L20 -126 C20 -126 63 -127 105 -112 C175 -86 214 -36 214 53 C214 124 191 145 191 211 C191 276 243 283 282 283 C282 283 285 301 282 317 L282 317 Z " />
<glyph glyph-name="asciitilde" unicode="~" horiz-adv-x="531" d="M68 179 L103 179 C103 179 127 250 179 250 C254 250 277 176 371 176 C465 176 470 303 470 303 L431 303 C431 303 428 226 362 226 C295 226 274 300 180 300 C86 300 68 179 68 179 L68 179 Z " />
<glyph glyph-name="uni00A0" unicode=" " horiz-adv-x="219" d="" />
<glyph glyph-name="exclamdown" unicode="¡" horiz-adv-x="261" d="M117 267 L110 -238 L153 -235 L151 271 L117 267 Z M174 385 C174 408 154 427 131 427 C107 427 88 408 88 385 C88 361 107 342 131 342 C154 342 174 361 174 385 L174 385 Z " />
<glyph glyph-name="cent" unicode="¢" horiz-adv-x="520" d="M265 633 L265 534 C161 519 86 435 75 343 C73 329 72 315 72 302 C72 158 183 103 260 103 L265 103 L265 0 L305 8 L305 109 C373 124 455 165 455 165 L444 192 C444 192 362 164 305 152 L305 498 C381 493 433 469 433 469 L445 504 C445 504 379 535 305 536 L305 638 L265 633 Z M119 334 C126 431 196 488 265 497 L265 148 C183 149 112 212 119 334 L119 334 Z " />
<glyph glyph-name="sterling" unicode="£" horiz-adv-x="514" d="M389 319 L194 319 C188 375 180 420 180 480 C180 606 286 625 340 625 C396 625 428 600 428 600 L442 632 C442 632 396 659 339 659 C209 659 133 577 133 483 C133 418 143 378 149 319 L40 319 L40 285 L152 285 C153 266 154 244 154 220 C154 93 90 37 90 37 L14 32 L14 -1 L440 -1 L446 36 L137 36 C137 36 199 103 199 218 C199 242 198 264 196 285 L389 285 L389 319 Z " />
<glyph glyph-name="yen" unicode="¥" horiz-adv-x="512" d="M457 182 L287 182 L287 243 L457 243 L457 276 L287 276 L287 291 L502 652 L454 659 L265 341 L69 659 L23 653 L241 291 L241 276 L73 276 L73 243 L241 243 L241 182 L73 182 L73 148 L241 148 L242 -6 L287 0 L287 148 L457 148 L457 182 Z " />
<glyph glyph-name="brokenbar" unicode="¦" horiz-adv-x="514" d="M278 328 L278 681 L237 681 L237 328 L278 328 Z M278 -178 L278 176 L237 176 L237 -178 L278 -178 Z " />
<glyph glyph-name="section" unicode="§" horiz-adv-x="446" d="M46 -102 C46 -102 98 -168 194 -168 C300 -168 365 -106 363 -20 C362 5 354 27 341 47 C357 63 403 115 398 190 C387 374 121 383 112 525 C107 603 175 632 233 632 C314 632 360 576 360 576 L382 602 C382 602 328 664 232 664 C126 664 63 602 69 516 C71 486 83 460 103 437 C86 421 46 375 48 303 C51 119 316 113 319 -29 C321 -107 253 -135 195 -135 C114 -135 70 -77 70 -77 L46 -102 Z M359 188 C363 123 336 85 323 70 C248 152 96 198 90 305 C85 373 111 405 122 416 C204 339 352 290 359 188 L359 188 Z " />
<glyph glyph-name="dieresis" unicode="¨" horiz-adv-x="314" d="M40 536 C40 515 58 497 79 497 C100 497 118 515 118 536 C118 557 100 575 79 575 C58 575 40 557 40 536 L40 536 Z M198 536 C198 515 216 497 237 497 C258 497 276 515 276 536 C276 557 258 575 237 575 C216 575 198 557 198 536 L198 536 Z " />
<glyph glyph-name="copyright" unicode="©" horiz-adv-x="796" d="M521 487 C521 487 467 522 391 514 C298 504 242 433 236 350 C226 201 308 138 381 138 C443 138 521 192 521 192 L511 216 C511 216 428 178 387 178 C315 178 274 236 275 342 C275 438 342 485 409 483 C463 481 510 456 510 456 L521 487 Z M93 326 C93 496 229 634 398 634 C566 634 703 496 703 326 C703 157 566 19 398 19 C229 19 93 157 93 326 L93 326 Z M54 326 C54 140 208 -12 398 -12 C588 -12 742 140 742 326 C742 513 588 665 398 665 C208 665 54 513 54 326 L54 326 Z " />
<glyph glyph-name="ordfeminine" unicode="ª" horiz-adv-x="313" d="M122 371 C90 371 74 396 78 441 C78 445 79 464 79 464 L235 483 L235 412 C223 402 159 371 122 371 L122 371 Z M278 334 L278 563 C278 642 234 669 144 663 C118 661 85 658 49 653 L53 616 C84 622 116 626 140 627 C215 632 235 614 235 547 L235 515 L39 493 C39 493 37 466 36 448 C32 376 64 329 127 334 C167 337 235 374 235 374 L249 334 L278 334 Z " />
<glyph glyph-name="guillemotleft" unicode="«" horiz-adv-x="415" d="M187 390 L39 237 L39 212 L186 58 L214 80 L105 224 L216 367 L187 390 Z M344 390 L196 237 L196 212 L343 58 L371 80 L262 224 L373 367 L344 390 Z " />
<glyph glyph-name="logicalnot" unicode="¬" horiz-adv-x="514" d="M62 272 L60 233 L407 233 L407 38 L448 44 L448 272 L62 272 Z " />
<glyph glyph-name="registered" unicode="®" horiz-adv-x="484" d="M324 397 L265 474 C288 480 306 502 307 531 C308 567 280 586 245 586 C213 585 181 580 181 580 L181 386 L208 387 L208 468 C212 468 223 467 236 467 L304 381 L324 397 Z M207 562 C207 562 231 564 245 564 C263 564 283 553 283 529 C282 503 267 486 235 486 C224 486 208 487 208 487 L207 562 Z M84 481 C84 569 155 639 241 639 C328 639 399 569 399 481 C399 393 328 322 241 322 C155 322 84 393 84 481 L84 481 Z M55 481 C55 380 138 297 241 297 C344 297 428 380 428 481 C428 582 344 665 241 665 C138 665 55 582 55 481 L55 481 Z " />
<glyph glyph-name="macron" unicode="¯" horiz-adv-x="311" d="M256 547 L53 547 L53 508 L256 508 L256 547 Z " />
<glyph glyph-name="degree" unicode="°" horiz-adv-x="309" d="M95 565 C95 600 122 629 154 629 C187 629 213 600 213 565 C213 529 187 500 154 500 C122 500 95 529 95 565 L95 565 Z M46 565 C46 510 94 466 154 466 C214 466 263 510 263 565 C263 619 214 663 154 663 C94 663 46 619 46 565 L46 565 Z " />
<glyph glyph-name="plusminus" unicode="±" horiz-adv-x="534" d="M290 225 L290 374 L473 374 L476 415 L290 415 L290 578 L244 576 L244 415 L65 415 L63 374 L244 374 L244 221 L290 225 Z M475 156 L64 156 L62 115 L472 115 L475 156 Z " />
<glyph glyph-name="twosuperior" unicode="²" horiz-adv-x="252" d="M11 690 L40 671 C75 715 106 723 132 723 C171 723 198 704 198 661 C198 571 5 477 5 477 L14 447 L239 447 L245 485 C123 485 148 485 81 485 C154 527 239 590 239 658 C239 701 214 759 135 759 C55 759 11 690 11 690 L11 690 Z " />
<glyph glyph-name="threesuperior" unicode="³" horiz-adv-x="252" d="M195 537 C196 487 165 472 112 477 C74 480 33 496 33 496 L20 464 C20 464 62 445 114 441 C180 436 235 462 236 534 C237 576 210 608 146 613 C196 620 227 647 229 683 C232 742 178 760 136 760 C79 759 58 746 29 734 L41 704 C41 704 85 729 122 728 C173 727 189 712 188 686 C186 645 124 631 93 630 C69 629 60 630 60 630 L60 594 C60 594 72 594 84 594 C148 593 194 577 195 537 L195 537 Z " />
<glyph glyph-name="acute" unicode="´" horiz-adv-x="303" d="M75 494 L99 472 L246 594 L210 628 L75 494 Z " />
<glyph glyph-name="mu" unicode="µ" horiz-adv-x="523" d="M434 1 L434 427 L391 422 C391 384 391 202 391 109 C376 100 331 75 271 50 C253 43 237 39 222 39 C174 39 144 75 144 135 L144 427 L100 422 L101 -217 L144 -207 L144 45 C170 0 206 -5 241 1 C287 8 369 69 391 86 C391 73 391 -4 391 -4 L434 1 Z " />
<glyph glyph-name="paragraph" unicode="¶" horiz-adv-x="544" d="M512 654 C512 654 460 654 332 654 C186 654 36 606 36 455 C36 304 154 252 278 252 L278 -118 L320 -113 L320 620 L405 620 L405 -116 L445 -111 L445 620 L508 620 L512 654 Z " />
<glyph glyph-name="periodcentered" unicode="·" horiz-adv-x="230" d="M69 264 C69 238 90 217 116 217 C143 217 164 238 164 264 C164 291 143 312 116 312 C90 312 69 291 69 264 L69 264 Z " />
<glyph glyph-name="cedilla" unicode="¸" horiz-adv-x="300" d="M222 1 L152 -66 L159 -88 C159 -88 219 -89 219 -127 C219 -165 139 -172 139 -172 L143 -199 C143 -199 264 -184 264 -126 C264 -68 205 -62 205 -62 L266 1 L222 1 Z " />
<glyph glyph-name="onesuperior" unicode="¹" horiz-adv-x="206" d="M110 447 L149 447 L149 767 L7 712 L20 685 L110 709 L110 447 Z " />
<glyph glyph-name="ordmasculine" unicode="º" horiz-adv-x="400" d="M82 502 C82 601 151 634 198 634 C268 634 316 590 316 506 C316 412 263 366 197 366 C131 366 82 412 82 502 L82 502 Z M197 670 C132 670 44 616 41 503 C37 396 104 330 195 330 C286 330 357 401 357 508 C357 615 293 670 197 670 L197 670 Z " />
<glyph glyph-name="guillemotright" unicode="»" horiz-adv-x="414" d="M225 390 L196 367 L307 224 L198 80 L226 58 L373 212 L373 237 L225 390 Z M68 390 L39 367 L150 224 L41 80 L69 58 L216 212 L216 237 L68 390 Z " />
<glyph glyph-name="onequarter" unicode="¼" horiz-adv-x="717" d="M540 666 L166 -5 L199 -20 L577 652 L540 666 Z M667 111 L602 111 L602 314 L560 318 L389 110 L403 79 L563 79 L563 -6 L602 0 L602 79 L661 79 L667 111 Z M437 111 L563 276 L563 111 L437 111 Z M173 344 L212 344 L212 664 L70 609 L83 582 L173 606 L173 344 Z " />
<glyph glyph-name="onehalf" unicode="½" horiz-adv-x="725" d="M426 242 L455 224 C490 268 521 276 547 276 C586 276 613 256 613 213 C613 123 420 29 420 29 L429 -1 L664 -1 L670 37 C548 37 563 37 496 37 C569 80 654 143 654 210 C654 253 629 311 549 311 C470 311 426 242 426 242 L426 242 Z M528 666 L154 -5 L187 -20 L565 652 L528 666 Z M173 344 L212 344 L212 664 L70 609 L83 582 L173 606 L173 344 Z " />
<glyph glyph-name="threequarters" unicode="¾" horiz-adv-x="716" d="M539 666 L166 -5 L199 -20 L577 652 L539 666 Z M666 111 L601 111 L601 314 L560 318 L388 110 L402 79 L563 79 L563 -6 L601 0 L601 79 L660 79 L666 111 Z M436 111 L563 276 L563 111 L436 111 Z M257 432 C258 382 227 367 174 372 C136 375 83 391 83 391 L70 359 C70 359 124 340 176 336 C242 331 297 357 298 429 C299 471 272 503 208 508 C258 515 289 542 291 578 C294 637 240 655 198 655 C141 654 108 641 79 629 L91 599 C91 599 147 624 184 623 C235 622 251 607 250 581 C248 540 186 526 155 525 C131 524 122 525 122 525 L122 489 C122 489 134 489 146 489 C210 488 256 472 257 432 L257 432 Z " />
<glyph glyph-name="questiondown" unicode="¿" horiz-adv-x="408" d="M87 -71 C87 49 227 126 270 152 C293 166 226 278 226 278 L197 266 C197 266 226 185 226 166 C226 148 45 92 42 -74 C40 -209 149 -244 218 -244 C292 -244 337 -228 385 -203 L373 -169 C373 -169 294 -214 213 -209 C117 -202 87 -128 87 -71 L87 -71 Z M264 383 C264 409 243 431 217 431 C190 431 169 409 169 383 C169 357 190 335 217 335 C243 335 264 357 264 383 L264 383 Z " />
<glyph glyph-name="Agrave" unicode="À" horiz-adv-x="536" d="M147 234 L280 602 C280 602 346 397 399 234 L147 234 Z M523 0 L309 658 L249 652 L15 0 L61 -6 L134 196 L411 196 C438 113 475 -6 475 -6 L523 0 Z M184 821 L332 704 L351 728 L216 856 L184 821 Z " />
<glyph glyph-name="Aacute" unicode="Á" horiz-adv-x="536" d="M147 234 L280 602 C280 602 346 397 399 234 L147 234 Z M523 0 L309 658 L249 652 L15 0 L61 -6 L134 196 L411 196 C438 113 475 -6 475 -6 L523 0 Z M182 721 L206 699 L353 821 L317 855 L182 721 Z " />
<glyph glyph-name="Acircumflex" unicode="Â" horiz-adv-x="536" d="M147 234 L280 602 C280 602 346 397 399 234 L147 234 Z M523 0 L309 658 L249 652 L15 0 L61 -6 L134 196 L411 196 C438 113 475 -6 475 -6 L523 0 Z M268 789 C297 761 333 716 358 691 C366 698 375 706 382 713 C351 749 311 798 283 831 C274 831 264 831 254 831 C223 796 186 752 153 712 C160 705 168 698 177 691 C204 717 241 763 268 789 L268 789 Z " />
<glyph glyph-name="Atilde" unicode="Ã" horiz-adv-x="536" d="M147 234 L280 602 C280 602 346 397 399 234 L147 234 Z M523 0 L309 658 L249 652 L15 0 L61 -6 L134 196 L411 196 C438 113 475 -6 475 -6 L523 0 Z M143 731 L175 728 C175 728 176 773 210 773 C244 773 282 717 328 717 C375 717 392 760 392 808 L359 810 C355 766 341 761 326 761 C284 761 267 816 213 816 C176 816 146 786 143 731 L143 731 Z " />
<glyph glyph-name="Adieresis" unicode="Ä" horiz-adv-x="536" d="M147 234 L280 602 C280 602 346 397 399 234 L147 234 Z M523 0 L309 658 L249 652 L15 0 L61 -6 L134 196 L411 196 C438 113 475 -6 475 -6 L523 0 Z M150 763 C150 742 168 724 189 724 C210 724 228 742 228 763 C228 784 210 802 189 802 C168 802 150 784 150 763 L150 763 Z M308 763 C308 742 326 724 347 724 C368 724 386 742 386 763 C386 784 368 802 347 802 C326 802 308 784 308 763 L308 763 Z " />
<glyph glyph-name="Aring" unicode="Å" horiz-adv-x="536" d="M147 234 L280 602 C280 602 346 397 399 234 L147 234 Z M523 0 L309 658 L249 652 L15 0 L61 -6 L134 196 L411 196 C438 113 475 -6 475 -6 L523 0 Z M230 792 C230 820 253 842 281 842 C309 842 331 820 331 792 C331 765 309 742 281 742 C253 742 230 765 230 792 L230 792 Z M187 792 C187 747 229 710 281 710 C332 710 374 747 374 792 C374 837 332 874 281 874 C229 874 187 837 187 792 L187 792 Z " />
<glyph glyph-name="AE" unicode="Æ" horiz-adv-x="882" d="M823 37 L493 37 L493 321 L770 321 L770 353 L493 353 L493 613 L815 613 L815 652 L426 652 L7 0 L52 -6 L179 197 L448 197 L448 0 L817 0 L823 37 Z M202 234 L449 612 L448 234 L202 234 Z " />
<glyph glyph-name="Ccedilla" unicode="Ç" horiz-adv-x="579" d="M547 604 C501 632 427 661 353 658 C223 653 51 544 51 317 C51 103 179 -13 335 -13 C436 -13 553 63 553 63 L533 90 C533 90 439 28 335 28 C229 28 101 121 101 332 C101 522 224 624 346 624 C448 624 527 570 527 570 L547 604 Z M309 1 L239 -66 L246 -88 C246 -88 306 -89 306 -127 C306 -165 226 -172 226 -172 L230 -199 C230 -199 351 -184 351 -126 C351 -68 292 -62 292 -62 L353 1 L309 1 Z " />
<glyph glyph-name="Egrave" unicode="È" horiz-adv-x="539" d="M118 0 L500 0 L500 37 L164 37 L164 320 L441 320 L441 353 L164 353 L164 613 L486 613 L486 652 L119 652 L118 0 Z M186 821 L334 704 L353 728 L218 856 L186 821 Z " />
<glyph glyph-name="Eacute" unicode="É" horiz-adv-x="539" d="M118 0 L500 0 L500 37 L164 37 L164 320 L441 320 L441 353 L164 353 L164 613 L486 613 L486 652 L119 652 L118 0 Z M184 721 L208 699 L355 821 L319 855 L184 721 Z " />
<glyph glyph-name="Ecircumflex" unicode="Ê" horiz-adv-x="539" d="M118 0 L500 0 L500 37 L164 37 L164 320 L441 320 L441 353 L164 353 L164 613 L486 613 L486 652 L119 652 L118 0 Z M302 789 C331 761 367 716 392 691 C400 698 409 706 416 713 C385 749 345 798 317 831 C308 831 298 831 288 831 C257 796 220 752 187 712 C194 705 202 698 211 691 C238 717 275 763 302 789 L302 789 Z " />
<glyph glyph-name="Edieresis" unicode="Ë" horiz-adv-x="539" d="M118 0 L500 0 L500 37 L164 37 L164 320 L441 320 L441 353 L164 353 L164 613 L486 613 L486 652 L119 652 L118 0 Z M196 763 C196 742 214 724 235 724 C256 724 274 742 274 763 C274 784 256 802 235 802 C214 802 196 784 196 763 L196 763 Z M354 763 C354 742 372 724 393 724 C414 724 432 742 432 763 C432 784 414 802 393 802 C372 802 354 784 354 763 L354 763 Z " />
<glyph glyph-name="Igrave" unicode="Ì" horiz-adv-x="286" d="M166 659 L120 652 L120 -6 L166 0 L166 659 Z M60 821 L208 704 L227 728 L92 856 L60 821 Z " />
<glyph glyph-name="Iacute" unicode="Í" horiz-adv-x="286" d="M166 659 L120 652 L120 -6 L166 0 L166 659 Z M58 721 L82 699 L229 821 L193 855 L58 721 Z " />
<glyph glyph-name="Icircumflex" unicode="Î" horiz-adv-x="286" d="M166 659 L120 652 L120 -6 L166 0 L166 659 Z M144 789 C173 761 209 716 234 691 C242 698 251 706 258 713 C227 749 187 798 159 831 C150 831 140 831 130 831 C99 796 62 752 29 712 C36 705 44 698 53 691 C80 717 117 763 144 789 L144 789 Z " />
<glyph glyph-name="Idieresis" unicode="Ï" horiz-adv-x="286" d="M166 659 L120 652 L120 -6 L166 0 L166 659 Z M25 763 C25 742 43 724 64 724 C85 724 103 742 103 763 C103 784 85 802 64 802 C43 802 25 784 25 763 L25 763 Z M183 763 C183 742 201 724 222 724 C243 724 261 742 261 763 C261 784 243 802 222 802 C201 802 183 784 183 763 L183 763 Z " />
<glyph glyph-name="Eth" unicode="Ð" horiz-adv-x="673" d="M126 14 C126 14 235 -5 298 -6 C464 -9 622 118 622 365 C622 605 444 658 325 658 C214 658 126 640 126 640 L126 341 L58 341 L58 309 L126 309 L126 14 Z M385 309 L385 341 L172 341 L172 612 C172 612 235 622 302 625 C426 630 572 561 572 355 C572 160 478 31 310 31 C257 31 172 46 172 46 L172 309 L385 309 Z " />
<glyph glyph-name="Ntilde" unicode="Ñ" horiz-adv-x="718" d="M120 -6 L166 0 L166 605 L535 -6 L599 0 L599 658 L553 655 L553 51 L186 658 L120 652 L120 -6 Z M234 731 L266 728 C266 728 267 773 301 773 C335 773 373 717 419 717 C466 717 483 760 483 808 L450 810 C446 766 432 761 417 761 C375 761 358 816 304 816 C267 816 237 786 234 731 L234 731 Z " />
<glyph glyph-name="Ograve" unicode="Ò" horiz-adv-x="693" d="M359 660 C200 660 50 522 50 323 C50 78 203 -13 341 -13 C481 -13 644 104 644 339 C644 582 496 660 359 660 L359 660 Z M355 624 C494 624 593 517 595 329 C597 129 479 29 353 29 C243 29 101 104 101 333 C101 562 261 624 355 624 L355 624 Z M263 821 L411 704 L430 728 L295 856 L263 821 Z " />
<glyph glyph-name="Oacute" unicode="Ó" horiz-adv-x="693" d="M359 660 C200 660 50 522 50 323 C50 78 203 -13 341 -13 C481 -13 644 104 644 339 C644 582 496 660 359 660 L359 660 Z M355 624 C494 624 593 517 595 329 C597 129 479 29 353 29 C243 29 101 104 101 333 C101 562 261 624 355 624 L355 624 Z M261 721 L285 699 L432 821 L396 855 L261 721 Z " />
<glyph glyph-name="Ocircumflex" unicode="Ô" horiz-adv-x="693" d="M359 660 C200 660 50 522 50 323 C50 78 203 -13 341 -13 C481 -13 644 104 644 339 C644 582 496 660 359 660 L359 660 Z M355 624 C494 624 593 517 595 329 C597 129 479 29 353 29 C243 29 101 104 101 333 C101 562 261 624 355 624 L355 624 Z M347 789 C376 761 412 716 437 691 C445 698 454 706 461 713 C430 749 390 798 362 831 C353 831 343 831 333 831 C302 796 265 752 232 712 C239 705 247 698 256 691 C283 717 320 763 347 789 L347 789 Z " />
<glyph glyph-name="Otilde" unicode="Õ" horiz-adv-x="693" d="M359 660 C200 660 50 522 50 323 C50 78 203 -13 341 -13 C481 -13 644 104 644 339 C644 582 496 660 359 660 L359 660 Z M355 624 C494 624 593 517 595 329 C597 129 479 29 353 29 C243 29 101 104 101 333 C101 562 261 624 355 624 L355 624 Z M222 731 L254 728 C254 728 255 773 289 773 C323 773 361 717 407 717 C454 717 471 760 471 808 L438 810 C434 766 420 761 405 761 C363 761 346 816 292 816 C255 816 225 786 222 731 L222 731 Z " />
<glyph glyph-name="Odieresis" unicode="Ö" horiz-adv-x="693" d="M359 660 C200 660 50 522 50 323 C50 78 203 -13 341 -13 C481 -13 644 104 644 339 C644 582 496 660 359 660 L359 660 Z M355 624 C494 624 593 517 595 329 C597 129 479 29 353 29 C243 29 101 104 101 333 C101 562 261 624 355 624 L355 624 Z M228 763 C228 742 246 724 267 724 C288 724 306 742 306 763 C306 784 288 802 267 802 C246 802 228 784 228 763 L228 763 Z M386 763 C386 742 404 724 425 724 C446 724 464 742 464 763 C464 784 446 802 425 802 C404 802 386 784 386 763 L386 763 Z " />
<glyph glyph-name="multiply" unicode="×" horiz-adv-x="514" d="M90 129 L261 294 L434 130 L461 157 L291 323 L453 479 L424 509 L262 351 L101 509 L71 477 L232 322 L64 158 L90 129 Z " />
<glyph glyph-name="Oslash" unicode="Ø" horiz-adv-x="715" d="M572 582 C517 637 442 659 370 659 C211 659 61 521 61 322 C61 214 90 137 135 85 L50 -12 L70 -29 L153 66 C209 13 282 -8 352 -8 C492 -8 655 102 655 338 C655 438 629 510 590 560 L674 655 L651 672 L572 582 Z M366 622 C436 622 496 595 538 544 L171 125 C135 171 112 238 112 332 C112 560 272 622 366 622 L366 622 Z M364 33 C305 33 238 53 188 105 L555 521 C587 472 605 407 606 328 C608 128 490 33 364 33 L364 33 Z " />
<glyph glyph-name="Ugrave" unicode="Ù" horiz-adv-x="691" d="M405 652 C405 652 405 431 405 275 C405 156 398 29 222 29 C46 29 46 165 46 270 L46 659 L0 652 L0 251 C0 161 9 -12 221 -12 C399 -12 451 126 451 313 L451 659 L405 652 Z M262 821 L410 704 L429 728 L294 856 L262 821 Z " />
<glyph glyph-name="Uacute" unicode="Ú" horiz-adv-x="691" d="M405 652 C405 652 405 431 405 275 C405 156 398 29 222 29 C46 29 46 165 46 270 L46 659 L0 652 L0 251 C0 161 9 -12 221 -12 C399 -12 451 126 451 313 L451 659 L405 652 Z M260 721 L284 699 L431 821 L395 855 L260 721 Z " />
<glyph glyph-name="Ucircumflex" unicode="Û" horiz-adv-x="691" d="M405 652 C405 652 405 431 405 275 C405 156 398 29 222 29 C46 29 46 165 46 270 L46 659 L0 652 L0 251 C0 161 9 -12 221 -12 C399 -12 451 126 451 313 L451 659 L405 652 Z M346 789 C375 761 411 716 436 691 C444 698 453 706 460 713 C429 749 389 798 361 831 C352 831 342 831 332 831 C301 796 264 752 231 712 C238 705 246 698 255 691 C282 717 319 763 346 789 L346 789 Z " />
<glyph glyph-name="Udieresis" unicode="Ü" horiz-adv-x="691" d="M405 652 C405 652 405 431 405 275 C405 156 398 29 222 29 C46 29 46 165 46 270 L46 659 L0 652 L0 251 C0 161 9 -12 221 -12 C399 -12 451 126 451 313 L451 659 L405 652 Z M227 763 C227 742 245 724 266 724 C287 724 305 742 305 763 C305 784 287 802 266 802 C245 802 227 784 227 763 L227 763 Z M385 763 C385 742 403 724 424 724 C445 724 463 742 463 763 C463 784 445 802 424 802 C403 802 385 784 385 763 L385 763 Z " />
<glyph glyph-name="Yacute" unicode="Ý" horiz-adv-x="497" d="M251 341 L55 658 L7 652 L227 290 L227 -6 L273 0 L273 291 L488 652 L440 658 L251 341 Z M163 721 L187 699 L334 821 L298 855 L163 721 Z " />
<glyph glyph-name="Thorn" unicode="Þ" horiz-adv-x="535" d="M128 0 L128 142 C147 142 180 139 216 139 C227 139 238 139 249 140 C368 150 462 243 466 350 C469 470 378 534 259 531 C217 530 169 525 128 519 L128 662 L81 654 L82 -3 L128 0 Z M129 179 L128 486 C128 486 193 496 253 496 C334 496 421 449 419 351 C417 243 352 172 212 174 C162 174 129 179 129 179 L129 179 Z " />
<glyph glyph-name="germandbls" unicode="ß" horiz-adv-x="549" d="M139 405 C139 536 168 624 286 624 C383 624 393 556 393 472 C368 463 286 420 286 337 C286 254 348 235 397 214 C432 199 466 176 469 132 C475 51 413 35 370 35 C313 35 285 62 255 87 L232 45 C232 45 282 -7 367 -7 C453 -7 516 56 510 139 C506 208 460 237 408 262 C376 277 334 294 330 338 C323 411 389 447 445 465 C445 558 426 662 306 662 C130 662 93 492 93 420 L93 0 L140 0 L139 405 Z " />
<glyph glyph-name="agrave" unicode="à" horiz-adv-x="464" d="M182 35 C136 35 106 78 106 144 C106 149 106 169 106 169 L341 203 L341 93 C323 79 248 36 182 35 L182 35 Z M384 293 C384 390 353 428 259 428 C241 428 221 427 198 424 C164 419 130 413 83 403 L91 365 C131 375 173 383 204 387 C224 389 241 391 256 391 C327 391 341 361 341 288 L341 230 L63 200 C63 200 63 152 63 143 C63 57 96 -4 179 -6 C225 -7 295 26 341 63 L354 -6 L384 0 L384 293 Z M148 594 L296 477 L315 501 L180 629 L148 594 Z " />
<glyph glyph-name="aacute" unicode="á" horiz-adv-x="464" d="M182 35 C136 35 106 78 106 144 C106 149 106 169 106 169 L341 203 L341 93 C323 79 248 36 182 35 L182 35 Z M384 293 C384 390 353 428 259 428 C241 428 221 427 198 424 C164 419 130 413 83 403 L91 365 C131 375 173 383 204 387 C224 389 241 391 256 391 C327 391 341 361 341 288 L341 230 L63 200 C63 200 63 152 63 143 C63 57 96 -4 179 -6 C225 -7 295 26 341 63 L354 -6 L384 0 L384 293 Z M146 494 L170 472 L317 594 L281 628 L146 494 Z " />
<glyph glyph-name="acircumflex" unicode="â" horiz-adv-x="464" d="M182 35 C136 35 106 78 106 144 C106 149 106 169 106 169 L341 203 L341 93 C323 79 248 36 182 35 L182 35 Z M384 293 C384 390 353 428 259 428 C241 428 221 427 198 424 C164 419 130 413 83 403 L91 365 C131 375 173 383 204 387 C224 389 241 391 256 391 C327 391 341 361 341 288 L341 230 L63 200 C63 200 63 152 63 143 C63 57 96 -4 179 -6 C225 -7 295 26 341 63 L354 -6 L384 0 L384 293 Z M232 562 C261 534 297 489 322 464 C330 471 339 479 346 486 C315 522 275 571 247 604 C238 604 228 604 218 604 C187 569 150 525 117 485 C124 478 132 471 141 464 C168 490 205 536 232 562 L232 562 Z " />
<glyph glyph-name="atilde" unicode="ã" horiz-adv-x="464" d="M182 35 C136 35 106 78 106 144 C106 149 106 169 106 169 L341 203 L341 93 C323 79 248 36 182 35 L182 35 Z M384 293 C384 390 353 428 259 428 C241 428 221 427 198 424 C164 419 130 413 83 403 L91 365 C131 375 173 383 204 387 C224 389 241 391 256 391 C327 391 341 361 341 288 L341 230 L63 200 C63 200 63 152 63 143 C63 57 96 -4 179 -6 C225 -7 295 26 341 63 L354 -6 L384 0 L384 293 Z M107 504 L139 501 C139 501 140 546 174 546 C208 546 246 490 292 490 C339 490 356 533 356 581 L323 583 C319 539 305 534 290 534 C248 534 231 589 177 589 C140 589 110 559 107 504 L107 504 Z " />
<glyph glyph-name="adieresis" unicode="ä" horiz-adv-x="464" d="M182 35 C136 35 106 78 106 144 C106 149 106 169 106 169 L341 203 L341 93 C323 79 248 36 182 35 L182 35 Z M384 293 C384 390 353 428 259 428 C241 428 221 427 198 424 C164 419 130 413 83 403 L91 365 C131 375 173 383 204 387 C224 389 241 391 256 391 C327 391 341 361 341 288 L341 230 L63 200 C63 200 63 152 63 143 C63 57 96 -4 179 -6 C225 -7 295 26 341 63 L354 -6 L384 0 L384 293 Z M114 536 C114 515 132 497 153 497 C174 497 192 515 192 536 C192 557 174 575 153 575 C132 575 114 557 114 536 L114 536 Z M272 536 C272 515 290 497 311 497 C332 497 350 515 350 536 C350 557 332 575 311 575 C290 575 272 557 272 536 L272 536 Z " />
<glyph glyph-name="aring" unicode="å" horiz-adv-x="464" d="M182 35 C136 35 106 78 106 144 C106 149 106 169 106 169 L341 203 L341 93 C323 79 248 36 182 35 L182 35 Z M384 293 C384 390 353 428 259 428 C241 428 221 427 198 424 C164 419 130 413 83 403 L91 365 C131 375 173 383 204 387 C224 389 241 391 256 391 C327 391 341 361 341 288 L341 230 L63 200 C63 200 63 152 63 143 C63 57 96 -4 179 -6 C225 -7 295 26 341 63 L354 -6 L384 0 L384 293 Z M181 565 C181 593 204 615 232 615 C260 615 282 593 282 565 C282 538 260 515 232 515 C204 515 181 538 181 565 L181 565 Z M138 565 C138 520 180 483 232 483 C283 483 325 520 325 565 C325 610 283 647 232 647 C180 647 138 610 138 565 L138 565 Z " />
<glyph glyph-name="ae" unicode="æ" horiz-adv-x="711" d="M499 429 C433 429 382 398 350 349 C339 405 304 428 231 428 C213 428 192 427 169 424 C135 420 101 413 54 404 L62 366 C102 375 144 383 175 387 C195 389 212 391 227 391 C298 391 312 361 312 289 L312 216 L34 187 L34 143 C34 57 67 -4 150 -6 C193 -7 287 49 336 86 C370 15 437 -6 496 -6 C561 -6 663 50 663 50 L653 74 C653 74 542 36 502 36 C411 36 362 103 356 191 L673 225 C676 331 623 429 499 429 L499 429 Z M628 254 L355 220 C357 306 389 390 497 390 C594 390 628 314 628 254 L628 254 Z M153 36 C107 35 77 78 77 144 L77 155 L312 188 C312 185 313 183 313 180 C314 154 319 133 325 113 C301 95 215 36 153 36 L153 36 Z " />
<glyph glyph-name="ccedilla" unicode="ç" horiz-adv-x="426" d="M385 384 C385 384 317 436 230 426 C123 415 58 332 51 237 C50 227 50 217 50 208 C50 58 148 -6 227 -6 C299 -6 388 56 388 56 L377 83 C377 83 281 31 234 31 C151 31 95 106 96 229 C96 339 166 395 250 395 C312 395 362 357 368 354 L385 384 Z M214 1 L144 -66 L151 -88 C151 -88 211 -89 211 -127 C211 -165 131 -172 131 -172 L135 -199 C135 -199 256 -184 256 -126 C256 -68 197 -62 197 -62 L258 1 L214 1 Z " />
<glyph glyph-name="egrave" unicode="è" horiz-adv-x="451" d="M366 254 C359 253 139 225 93 220 C95 306 126 393 235 393 C332 393 366 314 366 254 L366 254 Z M237 429 C112 429 42 321 51 180 C60 33 155 -6 234 -6 C299 -6 401 50 401 50 L391 74 C391 74 279 33 240 33 C149 33 98 92 94 191 L411 225 C414 331 361 429 237 429 L237 429 Z M142 594 L290 477 L309 501 L174 629 L142 594 Z " />
<glyph glyph-name="eacute" unicode="é" horiz-adv-x="451" d="M366 254 C359 253 139 225 93 220 C95 306 126 393 235 393 C332 393 366 314 366 254 L366 254 Z M237 429 C112 429 42 321 51 180 C60 33 155 -6 234 -6 C299 -6 401 50 401 50 L391 74 C391 74 279 33 240 33 C149 33 98 92 94 191 L411 225 C414 331 361 429 237 429 L237 429 Z M140 494 L164 472 L311 594 L275 628 L140 494 Z " />
<glyph glyph-name="ecircumflex" unicode="ê" horiz-adv-x="451" d="M366 254 C359 253 139 225 93 220 C95 306 126 393 235 393 C332 393 366 314 366 254 L366 254 Z M237 429 C112 429 42 321 51 180 C60 33 155 -6 234 -6 C299 -6 401 50 401 50 L391 74 C391 74 279 33 240 33 C149 33 98 92 94 191 L411 225 C414 331 361 429 237 429 L237 429 Z M242 562 C271 534 307 489 332 464 C340 471 349 479 356 486 C325 522 285 571 257 604 C248 604 238 604 228 604 C197 569 160 525 127 485 C134 478 142 471 151 464 C178 490 215 536 242 562 L242 562 Z " />
<glyph glyph-name="edieresis" unicode="ë" horiz-adv-x="451" d="M366 254 C359 253 139 225 93 220 C95 306 126 393 235 393 C332 393 366 314 366 254 L366 254 Z M237 429 C112 429 42 321 51 180 C60 33 155 -6 234 -6 C299 -6 401 50 401 50 L391 74 C391 74 279 33 240 33 C149 33 98 92 94 191 L411 225 C414 331 361 429 237 429 L237 429 Z M116 536 C116 515 134 497 155 497 C176 497 194 515 194 536 C194 557 176 575 155 575 C134 575 116 557 116 536 L116 536 Z M274 536 C274 515 292 497 313 497 C334 497 352 515 352 536 C352 557 334 575 313 575 C292 575 274 557 274 536 L274 536 Z " />
<glyph glyph-name="igrave" unicode="ì" horiz-adv-x="211" d="M84 -6 L127 0 L127 427 L84 422 L84 -6 Z M22 594 L170 477 L189 501 L54 629 L22 594 Z " />
<glyph glyph-name="iacute" unicode="í" horiz-adv-x="211" d="M84 -6 L127 0 L127 427 L84 422 L84 -6 Z M20 494 L44 472 L191 594 L155 628 L20 494 Z " />
<glyph glyph-name="icircumflex" unicode="î" horiz-adv-x="211" d="M84 -6 L127 0 L127 427 L84 422 L84 -6 Z M106 562 C135 534 171 489 196 464 C204 471 213 479 220 486 C189 522 149 571 121 604 C112 604 102 604 92 604 C61 569 24 525 -9 485 C-2 478 6 471 15 464 C42 490 79 536 106 562 L106 562 Z " />
<glyph glyph-name="idieresis" unicode="ï" horiz-adv-x="211" d="M84 -6 L127 0 L127 427 L84 422 L84 -6 Z M-12 536 C-12 515 6 497 27 497 C48 497 66 515 66 536 C66 557 48 575 27 575 C6 575 -12 557 -12 536 L-12 536 Z M146 536 C146 515 164 497 185 497 C206 497 224 515 224 536 C224 557 206 575 185 575 C164 575 146 557 146 536 L146 536 Z " />
<glyph glyph-name="eth" unicode="ð" horiz-adv-x="505" d="M114 689 L105 659 C105 659 192 650 275 589 L171 513 L192 483 L302 565 C352 519 396 450 411 347 C377 413 315 427 251 427 C167 427 52 358 48 214 C43 78 131 -7 249 -7 C363 -7 453 76 460 204 C462 226 463 248 463 270 C463 397 425 510 335 589 L426 658 L407 685 L306 612 C256 648 192 674 114 689 L114 689 Z M252 26 C164 26 96 89 96 213 C96 349 191 394 253 394 C346 394 413 334 413 219 C413 89 340 26 252 26 L252 26 Z " />
<glyph glyph-name="ntilde" unicode="ñ" horiz-adv-x="510" d="M425 0 C425 0 425 278 425 305 C425 381 376 429 305 429 C256 429 179 385 129 359 L120 429 L85 423 L85 -5 L129 -1 L129 323 C181 350 261 393 301 393 C347 393 382 360 382 310 C382 290 381 -6 381 -6 L425 0 Z M130 504 L162 501 C162 501 163 546 197 546 C231 546 269 490 315 490 C362 490 379 533 379 581 L346 583 C342 539 328 534 313 534 C271 534 254 589 200 589 C163 589 133 559 130 504 L130 504 Z " />
<glyph glyph-name="ograve" unicode="ò" horiz-adv-x="493" d="M99 214 C99 354 187 400 246 400 C335 400 396 338 396 220 C396 87 329 23 245 23 C161 23 99 87 99 214 L99 214 Z M244 433 C164 433 54 363 50 215 C46 76 129 -11 242 -11 C356 -11 444 81 444 222 C444 362 364 433 244 433 L244 433 Z M163 594 L311 477 L330 501 L195 629 L163 594 Z " />
<glyph glyph-name="oacute" unicode="ó" horiz-adv-x="493" d="M99 214 C99 354 187 400 246 400 C335 400 396 338 396 220 C396 87 329 23 245 23 C161 23 99 87 99 214 L99 214 Z M244 433 C164 433 54 363 50 215 C46 76 129 -11 242 -11 C356 -11 444 81 444 222 C444 362 364 433 244 433 L244 433 Z M161 494 L185 472 L332 594 L296 628 L161 494 Z " />
<glyph glyph-name="ocircumflex" unicode="ô" horiz-adv-x="493" d="M99 214 C99 354 187 400 246 400 C335 400 396 338 396 220 C396 87 329 23 245 23 C161 23 99 87 99 214 L99 214 Z M244 433 C164 433 54 363 50 215 C46 76 129 -11 242 -11 C356 -11 444 81 444 222 C444 362 364 433 244 433 L244 433 Z M247 562 C276 534 312 489 337 464 C345 471 354 479 361 486 C330 522 290 571 262 604 C253 604 243 604 233 604 C202 569 165 525 132 485 C139 478 147 471 156 464 C183 490 220 536 247 562 L247 562 Z " />
<glyph glyph-name="otilde" unicode="õ" horiz-adv-x="493" d="M99 214 C99 354 187 400 246 400 C335 400 396 338 396 220 C396 87 329 23 245 23 C161 23 99 87 99 214 L99 214 Z M244 433 C164 433 54 363 50 215 C46 76 129 -11 242 -11 C356 -11 444 81 444 222 C444 362 364 433 244 433 L244 433 Z M122 504 L154 501 C154 501 155 546 189 546 C223 546 261 490 307 490 C354 490 371 533 371 581 L338 583 C334 539 320 534 305 534 C263 534 246 589 192 589 C155 589 125 559 122 504 L122 504 Z " />
<glyph glyph-name="odieresis" unicode="ö" horiz-adv-x="493" d="M99 214 C99 354 187 400 246 400 C335 400 396 338 396 220 C396 87 329 23 245 23 C161 23 99 87 99 214 L99 214 Z M244 433 C164 433 54 363 50 215 C46 76 129 -11 242 -11 C356 -11 444 81 444 222 C444 362 364 433 244 433 L244 433 Z M128 536 C128 515 146 497 167 497 C188 497 206 515 206 536 C206 557 188 575 167 575 C146 575 128 557 128 536 L128 536 Z M286 536 C286 515 304 497 325 497 C346 497 364 515 364 536 C364 557 346 575 325 575 C304 575 286 557 286 536 L286 536 Z " />
<glyph glyph-name="divide" unicode="÷" horiz-adv-x="537" d="M224 458 C224 433 244 414 268 414 C292 414 312 433 312 458 C312 482 292 502 268 502 C244 502 224 482 224 458 L224 458 Z M224 200 C224 175 244 156 268 156 C292 156 312 175 312 200 C312 224 292 244 268 244 C244 244 224 224 224 200 L224 200 Z M476 344 L65 344 L63 303 L473 303 L476 344 Z " />
<glyph glyph-name="oslash" unicode="ø" horiz-adv-x="493" d="M384 389 C350 421 301 438 244 438 C164 438 54 367 49 220 C47 152 65 97 98 58 L28 -22 L48 -39 L116 39 C149 10 193 -6 242 -6 C355 -6 444 86 444 226 C444 285 429 333 403 367 L461 433 L438 450 L384 389 Z M99 219 C99 358 187 404 246 404 C291 404 330 388 356 356 L128 93 C109 124 99 166 99 219 L99 219 Z M245 27 C205 27 169 41 144 71 L372 332 C387 304 396 268 396 225 C396 92 328 27 245 27 L245 27 Z " />
<glyph glyph-name="ugrave" unicode="ù" horiz-adv-x="499" d="M414 0 L414 427 L371 422 C371 384 371 202 371 109 C355 100 311 69 251 44 C233 37 217 33 202 33 C154 33 123 70 123 129 L123 427 L81 422 C80 384 80 240 80 144 C80 29 151 -16 220 -5 C266 3 348 69 371 86 C371 73 382 -6 382 -6 L414 0 Z M166 594 L314 477 L333 501 L198 629 L166 594 Z " />
<glyph glyph-name="uacute" unicode="ú" horiz-adv-x="499" d="M414 0 L414 427 L371 422 C371 384 371 202 371 109 C355 100 311 69 251 44 C233 37 217 33 202 33 C154 33 123 70 123 129 L123 427 L81 422 C80 384 80 240 80 144 C80 29 151 -16 220 -5 C266 3 348 69 371 86 C371 73 382 -6 382 -6 L414 0 Z M164 494 L188 472 L335 594 L299 628 L164 494 Z " />
<glyph glyph-name="ucircumflex" unicode="û" horiz-adv-x="499" d="M414 0 L414 427 L371 422 C371 384 371 202 371 109 C355 100 311 69 251 44 C233 37 217 33 202 33 C154 33 123 70 123 129 L123 427 L81 422 C80 384 80 240 80 144 C80 29 151 -16 220 -5 C266 3 348 69 371 86 C371 73 382 -6 382 -6 L414 0 Z M250 562 C279 534 315 489 340 464 C348 471 357 479 364 486 C333 522 293 571 265 604 C256 604 246 604 236 604 C205 569 168 525 135 485 C142 478 150 471 159 464 C186 490 223 536 250 562 L250 562 Z " />
<glyph glyph-name="udieresis" unicode="ü" horiz-adv-x="499" d="M414 0 L414 427 L371 422 C371 384 371 202 371 109 C355 100 311 69 251 44 C233 37 217 33 202 33 C154 33 123 70 123 129 L123 427 L81 422 C80 384 80 240 80 144 C80 29 151 -16 220 -5 C266 3 348 69 371 86 C371 73 382 -6 382 -6 L414 0 Z M131 536 C131 515 149 497 170 497 C191 497 209 515 209 536 C209 557 191 575 170 575 C149 575 131 557 131 536 L131 536 Z M289 536 C289 515 307 497 328 497 C349 497 367 515 367 536 C367 557 349 575 328 575 C307 575 289 557 289 536 L289 536 Z " />
<glyph glyph-name="yacute" unicode="ý" horiz-adv-x="425" d="M360 427 L209 72 L194 72 L71 427 L25 422 L165 39 L194 39 L94 -203 L136 -216 L401 415 L360 427 Z M127 494 L151 472 L298 594 L262 628 L127 494 Z " />
<glyph glyph-name="thorn" unicode="þ" horiz-adv-x="499" d="M391 196 C386 80 334 38 250 29 C209 25 148 56 131 65 L131 359 C175 374 226 389 256 389 C347 388 396 304 391 196 L391 196 Z M256 426 C232 426 178 409 131 392 L131 662 L87 658 L87 -221 L131 -218 L131 31 C148 23 205 -6 243 -6 C373 -6 427 99 436 188 C437 202 438 214 438 227 C438 353 374 426 256 426 L256 426 Z " />
<glyph glyph-name="ydieresis" unicode="ÿ" horiz-adv-x="425" d="M360 427 L209 72 L194 72 L71 427 L25 422 L165 39 L194 39 L94 -203 L136 -216 L401 415 L360 427 Z M94 536 C94 515 112 497 133 497 C154 497 172 515 172 536 C172 557 154 575 133 575 C112 575 94 557 94 536 L94 536 Z M252 536 C252 515 270 497 291 497 C312 497 330 515 330 536 C330 557 312 575 291 575 C270 575 252 557 252 536 L252 536 Z " />
<glyph glyph-name="Amacron" unicode="Ā" horiz-adv-x="536" d="M147 234 L280 602 C280 602 346 397 399 234 L147 234 Z M523 0 L309 658 L249 652 L15 0 L61 -6 L134 196 L411 196 C438 113 475 -6 475 -6 L523 0 Z M384 774 L181 774 L181 735 L384 735 L384 774 Z " />
<glyph glyph-name="amacron" unicode="ā" horiz-adv-x="464" d="M182 35 C136 35 106 78 106 144 C106 149 106 169 106 169 L341 203 L341 93 C323 79 248 36 182 35 L182 35 Z M384 293 C384 390 353 428 259 428 C241 428 221 427 198 424 C164 419 130 413 83 403 L91 365 C131 375 173 383 204 387 C224 389 241 391 256 391 C327 391 341 361 341 288 L341 230 L63 200 C63 200 63 152 63 143 C63 57 96 -4 179 -6 C225 -7 295 26 341 63 L354 -6 L384 0 L384 293 Z M333 547 L130 547 L130 508 L333 508 L333 547 Z " />
<glyph glyph-name="Abreve" unicode="Ă" horiz-adv-x="536" d="M147 234 L280 602 C280 602 346 397 399 234 L147 234 Z M523 0 L309 658 L249 652 L15 0 L61 -6 L134 196 L411 196 C438 113 475 -6 475 -6 L523 0 Z M164 806 C164 806 185 713 280 713 C375 713 399 805 399 805 L364 811 C364 811 336 751 281 751 C227 751 199 815 199 815 L164 806 Z " />
<glyph glyph-name="abreve" unicode="ă" horiz-adv-x="464" d="M182 35 C136 35 106 78 106 144 C106 149 106 169 106 169 L341 203 L341 93 C323 79 248 36 182 35 L182 35 Z M384 293 C384 390 353 428 259 428 C241 428 221 427 198 424 C164 419 130 413 83 403 L91 365 C131 375 173 383 204 387 C224 389 241 391 256 391 C327 391 341 361 341 288 L341 230 L63 200 C63 200 63 152 63 143 C63 57 96 -4 179 -6 C225 -7 295 26 341 63 L354 -6 L384 0 L384 293 Z M114 579 C114 579 135 486 230 486 C325 486 349 578 349 578 L314 584 C314 584 286 524 231 524 C177 524 149 588 149 588 L114 579 Z " />
<glyph glyph-name="Aogonek" unicode="Ą" horiz-adv-x="536" d="M147 234 L280 602 C280 602 346 397 399 234 L147 234 Z M523 0 L309 658 L249 652 L15 0 L61 -6 L134 196 L411 196 C438 113 475 -6 475 -6 L523 0 Z M517 3 L476 3 C476 3 409 -40 406 -102 C404 -147 435 -175 474 -175 C514 -175 541 -156 541 -156 L534 -132 C534 -132 512 -140 490 -140 C467 -140 444 -132 444 -100 C444 -36 517 3 517 3 L517 3 Z " />
<glyph glyph-name="aogonek" unicode="ą" horiz-adv-x="464" d="M384 3 L352 3 C352 3 276 -40 273 -102 C271 -147 302 -175 341 -175 C381 -175 408 -156 408 -156 L401 -132 C401 -132 379 -140 357 -140 C334 -140 311 -132 311 -100 C311 -36 384 3 384 3 L384 3 Z M182 35 C136 35 106 78 106 144 C106 149 106 169 106 169 L341 203 L341 93 C323 79 248 36 182 35 L182 35 Z M384 293 C384 390 353 428 259 428 C241 428 221 427 198 424 C164 419 130 413 83 403 L91 365 C131 375 173 383 204 387 C224 389 241 391 256 391 C327 391 341 361 341 288 L341 230 L63 200 C63 200 63 152 63 143 C63 57 96 -4 179 -6 C225 -7 295 26 341 63 L354 -6 L384 0 L384 293 Z " />
<glyph glyph-name="Cacute" unicode="Ć" horiz-adv-x="579" d="M547 604 C501 632 427 661 353 658 C223 653 51 544 51 317 C51 103 179 -13 335 -13 C436 -13 553 63 553 63 L533 90 C533 90 439 28 335 28 C229 28 101 121 101 332 C101 522 224 624 346 624 C448 624 527 570 527 570 L547 604 Z M272 721 L296 699 L443 821 L407 855 L272 721 Z " />
<glyph glyph-name="cacute" unicode="ć" horiz-adv-x="426" d="M385 384 C385 384 317 436 230 426 C123 415 58 332 51 237 C50 227 50 217 50 208 C50 58 148 -6 227 -6 C299 -6 388 56 388 56 L377 83 C377 83 281 31 234 31 C151 31 95 106 96 229 C96 339 166 395 250 395 C312 395 362 357 368 354 L385 384 Z M158 494 L182 472 L329 594 L293 628 L158 494 Z " />
<glyph glyph-name="Ccircumflex" unicode="Ĉ" horiz-adv-x="579" d="M547 604 C501 632 427 661 353 658 C223 653 51 544 51 317 C51 103 179 -13 335 -13 C436 -13 553 63 553 63 L533 90 C533 90 439 28 335 28 C229 28 101 121 101 332 C101 522 224 624 346 624 C448 624 527 570 527 570 L547 604 Z M345 789 C374 761 410 716 435 691 C443 698 452 706 459 713 C428 749 388 798 360 831 C351 831 341 831 331 831 C300 796 263 752 230 712 C237 705 245 698 254 691 C281 717 318 763 345 789 L345 789 Z " />
<glyph glyph-name="ccircumflex" unicode="ĉ" horiz-adv-x="426" d="M385 384 C385 384 317 436 230 426 C123 415 58 332 51 237 C50 227 50 217 50 208 C50 58 148 -6 227 -6 C299 -6 388 56 388 56 L377 83 C377 83 281 31 234 31 C151 31 95 106 96 229 C96 339 166 395 250 395 C312 395 362 357 368 354 L385 384 Z M231 562 C260 534 296 489 321 464 C329 471 338 479 345 486 C314 522 274 571 246 604 C237 604 227 604 217 604 C186 569 149 525 116 485 C123 478 131 471 140 464 C167 490 204 536 231 562 L231 562 Z " />
<glyph glyph-name="Cdotaccent" unicode="Ċ" horiz-adv-x="579" d="M547 604 C501 632 427 661 353 658 C223 653 51 544 51 317 C51 103 179 -13 335 -13 C436 -13 553 63 553 63 L533 90 C533 90 439 28 335 28 C229 28 101 121 101 332 C101 522 224 624 346 624 C448 624 527 570 527 570 L547 604 Z M316 771 C316 747 335 727 359 727 C383 727 403 747 403 771 C403 794 383 814 359 814 C335 814 316 794 316 771 L316 771 Z " />
<glyph glyph-name="cdotaccent" unicode="ċ" horiz-adv-x="426" d="M385 384 C385 384 317 436 230 426 C123 415 58 332 51 237 C50 227 50 217 50 208 C50 58 148 -6 227 -6 C299 -6 388 56 388 56 L377 83 C377 83 281 31 234 31 C151 31 95 106 96 229 C96 339 166 395 250 395 C312 395 362 357 368 354 L385 384 Z M207 544 C207 520 226 500 250 500 C274 500 294 520 294 544 C294 567 274 587 250 587 C226 587 207 567 207 544 L207 544 Z " />
<glyph glyph-name="Ccaron" unicode="Č" horiz-adv-x="579" d="M547 604 C501 632 427 661 353 658 C223 653 51 544 51 317 C51 103 179 -13 335 -13 C436 -13 553 63 553 63 L533 90 C533 90 439 28 335 28 C229 28 101 121 101 332 C101 522 224 624 346 624 C448 624 527 570 527 570 L547 604 Z M238 833 L346 707 L378 707 L485 832 L461 853 L362 749 L262 852 L238 833 Z " />
<glyph glyph-name="ccaron" unicode="č" horiz-adv-x="426" d="M385 384 C385 384 317 436 230 426 C123 415 58 332 51 237 C50 227 50 217 50 208 C50 58 148 -6 227 -6 C299 -6 388 56 388 56 L377 83 C377 83 281 31 234 31 C151 31 95 106 96 229 C96 339 166 395 250 395 C312 395 362 357 368 354 L385 384 Z M135 606 L243 480 L275 480 L382 605 L358 626 L259 522 L159 625 L135 606 Z " />
<glyph glyph-name="Dcaron" unicode="Ď" horiz-adv-x="665" d="M120 10 C120 10 229 -9 291 -10 C457 -13 615 118 615 365 C615 605 438 659 319 659 C207 659 120 640 120 640 L120 10 Z M165 613 C165 613 228 622 296 625 C419 630 565 561 565 355 C565 160 471 27 303 27 C251 27 165 42 165 42 L165 613 Z M209 833 L317 707 L349 707 L456 832 L432 853 L333 749 L233 852 L209 833 Z " />
<glyph glyph-name="dcaron" unicode="ď" horiz-adv-x="627" d="M401 697 L358 692 L358 410 C358 410 302 429 258 429 C128 429 62 324 53 235 C44 107 87 -6 233 -6 C273 -6 323 22 358 43 C358 41 365 -6 365 -6 L401 -1 L401 697 Z M358 85 C358 85 291 31 233 31 C141 32 92 107 97 227 C102 343 167 385 251 394 C299 399 358 376 358 376 L358 85 Z M526 703 C502 703 482 683 482 658 C482 639 495 624 513 616 C519 614 526 605 523 592 C515 555 462 516 462 516 L482 492 C482 492 558 539 582 587 C587 597 590 610 590 623 C590 661 568 703 526 703 L526 703 Z " />
<glyph glyph-name="Dcroat" unicode="Đ" horiz-adv-x="665" d="M120 10 C120 10 229 -9 291 -10 C457 -13 615 118 615 365 C615 605 438 659 319 659 C207 659 120 640 120 640 L120 10 Z M165 613 C165 613 228 622 296 625 C419 630 565 561 565 355 C565 160 471 27 303 27 C251 27 165 42 165 42 L165 613 Z M434 774 L231 774 L231 735 L434 735 L434 774 Z " />
<glyph glyph-name="dcroat" unicode="đ" horiz-adv-x="484" d="M400 697 L357 692 L357 410 C357 410 301 429 257 429 C127 429 61 324 52 235 C43 107 86 -6 232 -6 C272 -6 322 22 357 43 C357 41 364 -6 364 -6 L400 -1 L400 697 Z M357 85 C357 85 290 31 232 31 C140 32 91 107 96 227 C101 343 166 385 250 394 C298 399 357 376 357 376 L357 85 Z M469 520 L469 559 L215 559 L215 520 L469 520 Z " />
<glyph glyph-name="Emacron" unicode="Ē" horiz-adv-x="539" d="M118 0 L500 0 L500 37 L164 37 L164 320 L441 320 L441 353 L164 353 L164 613 L486 613 L486 652 L119 652 L118 0 Z M411 774 L208 774 L208 735 L411 735 L411 774 Z " />
<glyph glyph-name="emacron" unicode="ē" horiz-adv-x="451" d="M366 254 C359 253 139 225 93 220 C95 306 126 393 235 393 C332 393 366 314 366 254 L366 254 Z M237 429 C112 429 42 321 51 180 C60 33 155 -6 234 -6 C299 -6 401 50 401 50 L391 74 C391 74 279 33 240 33 C149 33 98 92 94 191 L411 225 C414 331 361 429 237 429 L237 429 Z M336 547 L133 547 L133 508 L336 508 L336 547 Z " />
<glyph glyph-name="Ebreve" unicode="Ĕ" horiz-adv-x="539" d="M118 0 L500 0 L500 37 L164 37 L164 320 L441 320 L441 353 L164 353 L164 613 L486 613 L486 652 L119 652 L118 0 Z M198 806 C198 806 219 713 314 713 C409 713 433 805 433 805 L398 811 C398 811 370 751 315 751 C261 751 233 815 233 815 L198 806 Z " />
<glyph glyph-name="ebreve" unicode="ĕ" horiz-adv-x="451" d="M366 254 C359 253 139 225 93 220 C95 306 126 393 235 393 C332 393 366 314 366 254 L366 254 Z M237 429 C112 429 42 321 51 180 C60 33 155 -6 234 -6 C299 -6 401 50 401 50 L391 74 C391 74 279 33 240 33 C149 33 98 92 94 191 L411 225 C414 331 361 429 237 429 L237 429 Z M132 579 C132 579 153 486 248 486 C343 486 367 578 367 578 L332 584 C332 584 304 524 249 524 C195 524 167 588 167 588 L132 579 Z " />
<glyph glyph-name="Edotaccent" unicode="Ė" horiz-adv-x="539" d="M118 0 L500 0 L500 37 L164 37 L164 320 L441 320 L441 353 L164 353 L164 613 L486 613 L486 652 L119 652 L118 0 Z M269 771 C269 747 288 727 312 727 C336 727 356 747 356 771 C356 794 336 814 312 814 C288 814 269 794 269 771 L269 771 Z " />
<glyph glyph-name="edotaccent" unicode="ė" horiz-adv-x="451" d="M366 254 C359 253 139 225 93 220 C95 306 126 393 235 393 C332 393 366 314 366 254 L366 254 Z M237 429 C112 429 42 321 51 180 C60 33 155 -6 234 -6 C299 -6 401 50 401 50 L391 74 C391 74 279 33 240 33 C149 33 98 92 94 191 L411 225 C414 331 361 429 237 429 L237 429 Z M215 544 C215 520 234 500 258 500 C282 500 302 520 302 544 C302 567 282 587 258 587 C234 587 215 567 215 544 L215 544 Z " />
<glyph glyph-name="Eogonek" unicode="Ę" horiz-adv-x="539" d="M118 0 L500 0 L500 37 L164 37 L164 320 L441 320 L441 353 L164 353 L164 613 L486 613 L486 652 L119 652 L118 0 Z M491 3 L450 3 C450 3 383 -40 380 -102 C378 -147 409 -175 448 -175 C488 -175 515 -156 515 -156 L508 -132 C508 -132 486 -140 464 -140 C441 -140 418 -132 418 -100 C418 -36 491 3 491 3 L491 3 Z " />
<glyph glyph-name="eogonek" unicode="ę" horiz-adv-x="451" d="M366 254 C359 253 139 225 93 220 C95 306 126 393 235 393 C332 393 366 314 366 254 L366 254 Z M237 429 C112 429 42 321 51 180 C60 33 155 -6 234 -6 C299 -6 401 50 401 50 L391 74 C391 74 279 33 240 33 C149 33 98 92 94 191 L411 225 C414 331 361 429 237 429 L237 429 Z M285 3 L244 3 C244 3 177 -40 174 -102 C172 -147 203 -175 242 -175 C282 -175 309 -156 309 -156 L302 -132 C302 -132 280 -140 258 -140 C235 -140 212 -132 212 -100 C212 -36 285 3 285 3 L285 3 Z " />
<glyph glyph-name="Ecaron" unicode="Ě" horiz-adv-x="539" d="M118 0 L500 0 L500 37 L164 37 L164 320 L441 320 L441 353 L164 353 L164 613 L486 613 L486 652 L119 652 L118 0 Z M183 833 L291 707 L323 707 L430 832 L406 853 L307 749 L207 852 L183 833 Z " />
<glyph glyph-name="ecaron" unicode="ě" horiz-adv-x="451" d="M366 254 C359 253 139 225 93 220 C95 306 126 393 235 393 C332 393 366 314 366 254 L366 254 Z M237 429 C112 429 42 321 51 180 C60 33 155 -6 234 -6 C299 -6 401 50 401 50 L391 74 C391 74 279 33 240 33 C149 33 98 92 94 191 L411 225 C414 331 361 429 237 429 L237 429 Z M119 606 L227 480 L259 480 L366 605 L342 626 L243 522 L143 625 L119 606 Z " />
<glyph glyph-name="Gcircumflex" unicode="Ĝ" horiz-adv-x="674" d="M565 61 L565 304 L519 309 L519 77 C479 59 404 30 334 30 C227 30 100 121 100 332 C100 522 223 624 344 624 C438 624 492 593 534 570 L550 607 C504 635 425 661 352 658 C221 653 50 544 50 317 C50 103 177 -11 334 -11 C434 -11 565 61 565 61 L565 61 Z M357 789 C386 761 422 716 447 691 C455 698 464 706 471 713 C440 749 400 798 372 831 C363 831 353 831 343 831 C312 796 275 752 242 712 C249 705 257 698 266 691 C293 717 330 763 357 789 L357 789 Z " />
<glyph glyph-name="gcircumflex" unicode="ĝ" horiz-adv-x="485" d="M400 430 L362 427 L355 380 C332 405 296 425 257 427 C127 432 61 322 52 233 C51 219 50 205 50 192 C50 67 114 3 232 3 C272 3 322 26 357 47 C357 47 356 -33 356 -58 C356 -142 310 -179 256 -179 C183 -179 97 -154 97 -154 L89 -177 C89 -177 174 -216 262 -216 C349 -216 400 -152 400 -51 L400 430 Z M356 91 C356 91 290 40 231 40 C140 41 89 100 96 225 C102 341 161 392 250 392 C320 392 356 337 356 337 L356 91 Z M243 562 C272 534 308 489 333 464 C341 471 350 479 357 486 C326 522 286 571 258 604 C249 604 239 604 229 604 C198 569 161 525 128 485 C135 478 143 471 152 464 C179 490 216 536 243 562 L243 562 Z " />
<glyph glyph-name="Gbreve" unicode="Ğ" horiz-adv-x="674" d="M565 61 L565 304 L519 309 L519 77 C479 59 404 30 334 30 C227 30 100 121 100 332 C100 522 223 624 344 624 C438 624 492 593 534 570 L550 607 C504 635 425 661 352 658 C221 653 50 544 50 317 C50 103 177 -11 334 -11 C434 -11 565 61 565 61 L565 61 Z M236 806 C236 806 257 713 352 713 C447 713 471 805 471 805 L436 811 C436 811 408 751 353 751 C299 751 271 815 271 815 L236 806 Z " />
<glyph glyph-name="gbreve" unicode="ğ" horiz-adv-x="485" d="M400 430 L362 427 L355 380 C332 405 296 425 257 427 C127 432 61 322 52 233 C51 219 50 205 50 192 C50 67 114 3 232 3 C272 3 322 26 357 47 C357 47 356 -33 356 -58 C356 -142 310 -179 256 -179 C183 -179 97 -154 97 -154 L89 -177 C89 -177 174 -216 262 -216 C349 -216 400 -152 400 -51 L400 430 Z M356 91 C356 91 290 40 231 40 C140 41 89 100 96 225 C102 341 161 392 250 392 C320 392 356 337 356 337 L356 91 Z M139 579 C139 579 160 486 255 486 C350 486 374 578 374 578 L339 584 C339 584 311 524 256 524 C202 524 174 588 174 588 L139 579 Z " />
<glyph glyph-name="Gdotaccent" unicode="Ġ" horiz-adv-x="674" d="M565 61 L565 304 L519 309 L519 77 C479 59 404 30 334 30 C227 30 100 121 100 332 C100 522 223 624 344 624 C438 624 492 593 534 570 L550 607 C504 635 425 661 352 658 C221 653 50 544 50 317 C50 103 177 -11 334 -11 C434 -11 565 61 565 61 L565 61 Z M322 771 C322 747 341 727 365 727 C389 727 409 747 409 771 C409 794 389 814 365 814 C341 814 322 794 322 771 L322 771 Z " />
<glyph glyph-name="gdotaccent" unicode="ġ" horiz-adv-x="485" d="M400 430 L362 427 L355 380 C332 405 296 425 257 427 C127 432 61 322 52 233 C51 219 50 205 50 192 C50 67 114 3 232 3 C272 3 322 26 357 47 C357 47 356 -33 356 -58 C356 -142 310 -179 256 -179 C183 -179 97 -154 97 -154 L89 -177 C89 -177 174 -216 262 -216 C349 -216 400 -152 400 -51 L400 430 Z M356 91 C356 91 290 40 231 40 C140 41 89 100 96 225 C102 341 161 392 250 392 C320 392 356 337 356 337 L356 91 Z M199 544 C199 520 218 500 242 500 C266 500 286 520 286 544 C286 567 266 587 242 587 C218 587 199 567 199 544 L199 544 Z " />
<glyph glyph-name="Gcommaaccent" unicode="Ģ" horiz-adv-x="676" d="M321 -54 C294 -54 273 -76 273 -102 C273 -123 288 -139 306 -147 C312 -150 320 -160 317 -174 C308 -213 251 -255 251 -255 L273 -281 C273 -281 355 -231 380 -179 C386 -168 389 -153 389 -139 C389 -98 365 -54 321 -54 L321 -54 Z M566 61 L566 304 L520 309 L520 77 C480 59 405 30 335 30 C228 30 101 121 101 332 C101 522 224 624 345 624 C439 624 493 593 535 570 L551 607 C505 635 426 661 353 658 C222 653 51 544 51 317 C51 103 178 -11 335 -11 C435 -11 566 61 566 61 L566 61 Z " />
<glyph glyph-name="gcommaaccent" unicode="ģ" horiz-adv-x="484" d="M400 430 L362 427 L355 380 C332 405 296 425 257 427 C127 432 61 322 52 233 C51 219 50 205 50 192 C50 67 114 3 232 3 C272 3 322 26 357 47 C357 47 356 -33 356 -58 C356 -142 310 -179 256 -179 C183 -179 97 -154 97 -154 L89 -177 C89 -177 174 -216 262 -216 C349 -216 400 -152 400 -51 L400 430 Z M356 91 C356 91 290 40 231 40 C140 41 89 100 96 225 C102 341 161 392 250 392 C320 392 356 337 356 337 L356 91 Z M262 495 C287 495 307 515 307 540 C307 559 293 574 276 582 C270 584 263 594 266 606 C274 643 327 682 327 682 L307 706 C307 706 230 659 207 611 C202 600 199 587 199 574 C199 536 220 495 262 495 L262 495 Z " />
<glyph glyph-name="Hcircumflex" unicode="Ĥ" horiz-adv-x="674" d="M508 653 L508 368 L166 368 L166 658 L120 653 L120 -6 L166 0 L166 336 L508 336 L508 -6 L554 0 L554 656 L508 653 Z M337 789 C366 761 402 716 427 691 C435 698 444 706 451 713 C420 749 380 798 352 831 C343 831 333 831 323 831 C292 796 255 752 222 712 C229 705 237 698 246 691 C273 717 310 763 337 789 L337 789 Z " />
<glyph glyph-name="hcircumflex" unicode="ĥ" horiz-adv-x="488" d="M408 338 C408 396 354 446 280 430 C241 422 166 383 128 362 L128 695 L85 690 L85 -5 L128 -1 L128 321 C158 338 236 381 264 388 C278 392 290 393 300 393 C351 393 365 353 365 314 L365 -6 L408 0 L408 338 Z M244 828 C273 800 309 755 334 730 C342 737 351 745 358 752 C327 788 287 837 259 870 C250 870 240 870 230 870 C199 835 162 791 129 751 C136 744 144 737 153 730 C180 756 217 802 244 828 L244 828 Z " />
<glyph glyph-name="Hbar" unicode="Ħ" horiz-adv-x="676" d="M509 653 L509 368 L167 368 L167 658 L121 653 L121 -6 L167 0 L167 336 L509 336 L509 -6 L555 0 L555 656 L509 653 Z M640 513 L38 513 L38 480 L640 480 L640 513 Z " />
<glyph glyph-name="hbar" unicode="ħ" horiz-adv-x="484" d="M409 338 C409 396 355 446 281 430 C242 422 167 383 129 362 L129 695 L86 690 L86 -5 L129 -1 L129 321 C159 338 237 381 265 388 C279 392 291 393 301 393 C352 393 366 353 366 314 L366 -6 L409 0 L409 338 Z M316 547 L13 547 L13 511 L316 511 L316 547 Z " />
<glyph glyph-name="Itilde" unicode="Ĩ" horiz-adv-x="286" d="M166 659 L120 652 L120 -6 L166 0 L166 659 Z M19 731 L51 728 C51 728 52 773 86 773 C120 773 158 717 204 717 C251 717 268 760 268 808 L235 810 C231 766 217 761 202 761 C160 761 143 816 89 816 C52 816 22 786 19 731 L19 731 Z " />
<glyph glyph-name="itilde" unicode="ĩ" horiz-adv-x="212" d="M84 -6 L127 0 L127 427 L84 422 L84 -6 Z M-13 504 L19 501 C19 501 20 546 54 546 C88 546 126 490 172 490 C219 490 236 533 236 581 L203 583 C199 539 185 534 170 534 C128 534 111 589 57 589 C20 589 -10 559 -13 504 L-13 504 Z " />
<glyph glyph-name="Imacron" unicode="Ī" horiz-adv-x="286" d="M166 659 L120 652 L120 -6 L166 0 L166 659 Z M245 774 L42 774 L42 735 L245 735 L245 774 Z " />
<glyph glyph-name="imacron" unicode="ī" horiz-adv-x="212" d="M84 -6 L127 0 L127 427 L84 422 L84 -6 Z M207 547 L4 547 L4 508 L207 508 L207 547 Z " />
<glyph glyph-name="Ibreve" unicode="Ĭ" horiz-adv-x="286" d="M166 659 L120 652 L120 -6 L166 0 L166 659 Z M26 806 C26 806 47 713 142 713 C237 713 261 805 261 805 L226 811 C226 811 198 751 143 751 C89 751 61 815 61 815 L26 806 Z " />
<glyph glyph-name="ibreve" unicode="ĭ" horiz-adv-x="210" d="M84 -6 L127 0 L127 427 L84 422 L84 -6 Z M-6 567 C-6 567 15 474 110 474 C205 474 229 566 229 566 L194 572 C194 572 166 512 111 512 C57 512 29 576 29 576 L-6 567 Z " />
<glyph glyph-name="Iogonek" unicode="Į" horiz-adv-x="286" d="M166 659 L120 652 L120 -6 L166 0 L166 659 Z M167 3 L126 3 C126 3 59 -40 56 -102 C54 -147 85 -175 124 -175 C164 -175 191 -156 191 -156 L184 -132 C184 -132 162 -140 140 -140 C117 -140 94 -132 94 -100 C94 -36 167 3 167 3 L167 3 Z " />
<glyph glyph-name="iogonek" unicode="į" horiz-adv-x="211" d="M62 592 C62 568 82 548 107 548 C131 548 151 568 151 592 C151 617 131 637 107 637 C82 637 62 617 62 592 L62 592 Z M85 -6 L127 0 L127 427 L85 422 L85 -6 Z M133 3 L92 3 C92 3 25 -40 22 -102 C20 -147 51 -175 90 -175 C130 -175 157 -156 157 -156 L150 -132 C150 -132 128 -140 106 -140 C83 -140 60 -132 60 -100 C60 -36 133 3 133 3 L133 3 Z " />
<glyph glyph-name="Idotaccent" unicode="İ" horiz-adv-x="286" d="M166 659 L120 652 L120 -6 L166 0 L166 659 Z M100 771 C100 747 119 727 143 727 C167 727 187 747 187 771 C187 794 167 814 143 814 C119 814 100 794 100 771 L100 771 Z " />
<glyph glyph-name="dotlessi" unicode="ı" horiz-adv-x="211" d="M62 592 C62 568 82 548 107 548 C131 548 151 568 151 592 C151 617 131 637 107 637 C82 637 62 617 62 592 L62 592 Z M84 -6 L127 0 L127 427 L84 422 L84 -6 Z " />
<glyph glyph-name="IJ" unicode="Ĳ" horiz-adv-x="504" d="M165 659 L119 652 L119 -6 L165 0 L165 659 Z M338 78 C338 -55 296 -111 246 -186 C253 -192 264 -199 272 -204 C367 -90 384 -19 384 64 C384 148 384 661 384 661 L338 654 L338 78 Z " />
<glyph glyph-name="ij" unicode="ĳ" horiz-adv-x="401" d="M62 592 C62 568 82 548 107 548 C131 548 151 568 151 592 C151 617 131 637 107 637 C82 637 62 617 62 592 L62 592 Z M85 -6 L127 0 L127 427 L85 422 L85 -6 Z M227 592 C227 568 247 548 272 548 C296 548 316 568 316 592 C316 617 296 637 272 637 C247 637 227 617 227 592 L227 592 Z M249 24 C249 -97 227 -131 177 -206 C184 -212 195 -219 203 -224 C298 -110 289 -39 290 44 C290 205 290 427 290 427 L249 422 L249 24 Z " />
<glyph glyph-name="Jcircumflex" unicode="Ĵ" horiz-adv-x="287" d="M121 76 C121 -57 79 -113 29 -188 C36 -194 47 -201 55 -206 C150 -92 167 -21 167 62 C167 146 167 659 167 659 L121 652 L121 76 Z M144 789 C173 761 209 716 234 691 C242 698 251 706 258 713 C227 749 187 798 159 831 C150 831 140 831 130 831 C99 796 62 752 29 712 C36 705 44 698 53 691 C80 717 117 763 144 789 L144 789 Z " />
<glyph glyph-name="jcircumflex" unicode="ĵ" horiz-adv-x="228" d="M100 24 C100 -97 81 -131 31 -206 C38 -212 49 -219 57 -224 C152 -110 143 -39 144 44 C144 205 144 427 144 427 L100 422 L100 24 Z M115 562 C144 534 180 489 205 464 C213 471 222 479 229 486 C198 522 158 571 130 604 C121 604 111 604 101 604 C70 569 33 525 0 485 C7 478 15 471 24 464 C51 490 88 536 115 562 L115 562 Z " />
<glyph glyph-name="Kcommaaccent" unicode="Ķ" horiz-adv-x="610" d="M304 -16 C277 -16 256 -38 256 -64 C256 -85 271 -101 289 -109 C295 -112 303 -122 300 -136 C291 -175 234 -217 234 -217 L256 -243 C256 -243 338 -193 363 -141 C369 -130 372 -115 372 -101 C372 -60 348 -16 304 -16 L304 -16 Z M236 356 L556 626 L527 658 L176 360 L546 -18 L581 11 L236 356 Z M120 -6 L166 0 L166 659 L120 652 L120 -6 Z " />
<glyph glyph-name="kcommaaccent" unicode="ķ" horiz-adv-x="427" d="M225 -16 C198 -16 177 -38 177 -64 C177 -85 192 -101 210 -109 C216 -112 224 -122 221 -136 C212 -175 155 -217 155 -217 L177 -243 C177 -243 259 -193 284 -141 C290 -130 293 -115 293 -101 C293 -60 269 -16 225 -16 L225 -16 Z M407 17 L179 239 L396 395 L366 427 L130 241 L373 -12 L407 17 Z M85 -5 L126 0 L126 695 L85 690 L85 -5 Z " />
<glyph glyph-name="kgreenlandic" unicode="ĸ" horiz-adv-x="521" d="M120 -6 L166 0 L166 428 L120 424 L120 -6 Z M236 230 L397 372 L437 352 L458 367 L403 432 L176 233 L419 -12 L455 20 L236 230 Z " />
<glyph glyph-name="Lacute" unicode="Ĺ" horiz-adv-x="467" d="M120 0 L461 0 L461 37 L166 37 L166 659 L120 656 L120 0 Z M148 721 L172 699 L319 821 L283 855 L148 721 Z " />
<glyph glyph-name="lacute" unicode="ĺ" horiz-adv-x="231" d="M89 -6 L129 0 L129 695 L89 690 L89 -6 Z M30 725 L54 703 L201 825 L165 859 L30 725 Z " />
<glyph glyph-name="Lcommaaccent" unicode="Ļ" horiz-adv-x="471" d="M274 -54 C247 -54 226 -76 226 -102 C226 -123 241 -139 259 -147 C265 -150 273 -160 270 -174 C261 -213 204 -255 204 -255 L226 -281 C226 -281 308 -231 333 -179 C339 -168 342 -153 342 -139 C342 -98 318 -54 274 -54 L274 -54 Z M120 0 L461 0 L461 37 L166 37 L166 659 L120 656 L120 0 Z " />
<glyph glyph-name="lcommaaccent" unicode="ļ" horiz-adv-x="242" d="M127 -54 C100 -54 79 -76 79 -102 C79 -123 94 -139 112 -147 C118 -150 126 -160 123 -174 C114 -213 57 -255 57 -255 L79 -281 C79 -281 161 -231 186 -179 C192 -168 195 -153 195 -139 C195 -98 171 -54 127 -54 L127 -54 Z M100 -6 L140 0 L140 695 L100 690 L100 -6 Z " />
<glyph glyph-name="Lcaron" unicode="Ľ" horiz-adv-x="468" d="M120 0 L461 0 L461 37 L166 37 L166 659 L120 656 L120 0 Z M331 659 C307 659 287 639 287 614 C287 595 300 580 318 572 C324 570 331 561 328 548 C320 511 267 472 267 472 L287 448 C287 448 363 495 387 543 C392 553 395 566 395 579 C395 617 373 659 331 659 L331 659 Z " />
<glyph glyph-name="lcaron" unicode="ľ" horiz-adv-x="326" d="M93 -6 L133 0 L133 695 L93 690 L93 -6 Z M245 703 C221 703 201 683 201 658 C201 639 214 624 232 616 C238 614 245 605 242 592 C234 555 181 516 181 516 L201 492 C201 492 277 539 301 587 C306 597 309 610 309 623 C309 661 287 703 245 703 L245 703 Z " />
<glyph glyph-name="Ldot" unicode="Ŀ" horiz-adv-x="471" d="M120 0 L461 0 L461 37 L166 37 L166 659 L120 656 L120 0 Z M340 325 C340 299 361 278 387 278 C414 278 435 299 435 325 C435 352 414 373 387 373 C361 373 340 352 340 325 L340 325 Z " />
<glyph glyph-name="ldot" unicode="ŀ" horiz-adv-x="313" d="M100 -6 L140 0 L140 695 L100 690 L100 -6 Z M202 328 C202 302 223 281 249 281 C276 281 297 302 297 328 C297 355 276 376 249 376 C223 376 202 355 202 328 L202 328 Z " />
<glyph glyph-name="Lslash" unicode="Ł" horiz-adv-x="476" d="M2 260 L19 225 L120 278 L120 0 L460 0 L460 37 L165 37 L165 301 L354 400 L339 433 L165 343 L165 659 L120 655 L120 320 L2 260 Z " />
<glyph glyph-name="lslash" unicode="ł" horiz-adv-x="275" d="M26 278 L114 320 L114 -6 L158 2 L158 341 L276 397 L263 427 L158 378 L158 695 L114 691 L114 358 L11 310 L26 278 Z " />
<glyph glyph-name="Nacute" unicode="Ń" horiz-adv-x="718" d="M120 -6 L166 0 L166 605 L535 -6 L599 0 L599 658 L553 655 L553 51 L186 658 L120 652 L120 -6 Z M273 721 L297 699 L444 821 L408 855 L273 721 Z " />
<glyph glyph-name="nacute" unicode="ń" horiz-adv-x="510" d="M425 0 C425 0 425 278 425 305 C425 381 376 429 305 429 C256 429 179 385 129 359 L120 429 L85 423 L85 -5 L129 -1 L129 323 C181 350 261 393 301 393 C347 393 382 360 382 310 C382 290 381 -6 381 -6 L425 0 Z M169 494 L193 472 L340 594 L304 628 L169 494 Z " />
<glyph glyph-name="Ncommaaccent" unicode="Ņ" horiz-adv-x="720" d="M342 -54 C315 -54 294 -76 294 -102 C294 -123 309 -139 327 -147 C333 -150 341 -160 338 -174 C329 -213 272 -255 272 -255 L294 -281 C294 -281 376 -231 401 -179 C407 -168 410 -153 410 -139 C410 -98 386 -54 342 -54 L342 -54 Z M121 -6 L167 0 L167 605 L536 -6 L600 0 L600 658 L554 655 L554 51 L187 658 L121 652 L121 -6 Z " />
<glyph glyph-name="ncommaaccent" unicode="ņ" horiz-adv-x="510" d="M262 -54 C235 -54 214 -76 214 -102 C214 -123 229 -139 247 -147 C253 -150 261 -160 258 -174 C249 -213 192 -255 192 -255 L214 -281 C214 -281 296 -231 321 -179 C327 -168 330 -153 330 -139 C330 -98 306 -54 262 -54 L262 -54 Z M425 0 C425 0 425 278 425 305 C425 381 376 429 305 429 C256 429 179 385 129 359 L120 429 L85 423 L85 -5 L129 -1 L129 323 C181 350 261 393 301 393 C347 393 382 360 382 310 C382 290 381 -6 381 -6 L425 0 Z " />
<glyph glyph-name="Ncaron" unicode="Ň" horiz-adv-x="718" d="M120 -6 L166 0 L166 605 L535 -6 L599 0 L599 658 L553 655 L553 51 L186 658 L120 652 L120 -6 Z M235 833 L343 707 L375 707 L482 832 L458 853 L359 749 L259 852 L235 833 Z " />
<glyph glyph-name="ncaron" unicode="ň" horiz-adv-x="510" d="M425 0 C425 0 425 278 425 305 C425 381 376 429 305 429 C256 429 179 385 129 359 L120 429 L85 423 L85 -5 L129 -1 L129 323 C181 350 261 393 301 393 C347 393 382 360 382 310 C382 290 381 -6 381 -6 L425 0 Z M131 606 L239 480 L271 480 L378 605 L354 626 L255 522 L155 625 L131 606 Z " />
<glyph glyph-name="napostrophe" unicode="ŉ" horiz-adv-x="571" d="M82 649 C55 649 34 627 34 601 C34 580 49 564 67 556 C73 553 81 543 78 529 C69 490 12 448 12 448 L34 422 C34 422 116 472 141 524 C147 535 150 550 150 564 C150 605 126 649 82 649 L82 649 Z M487 0 C487 0 487 278 487 305 C487 381 438 429 367 429 C318 429 241 385 191 359 L182 429 L147 423 L147 -5 L191 -1 L191 323 C243 350 323 393 363 393 C409 393 444 360 444 310 C444 290 443 -6 443 -6 L487 0 Z " />
<glyph glyph-name="Eng" unicode="Ŋ" horiz-adv-x="720" d="M554 76 C554 67 554 59 553 51 L187 658 L121 652 L121 -6 L167 0 L167 605 L536 -6 L547 -4 C534 -83 500 -130 462 -188 C469 -194 480 -201 488 -206 C583 -92 600 -21 600 62 L600 659 L554 655 L554 76 Z " />
<glyph glyph-name="eng" unicode="ŋ" horiz-adv-x="509" d="M259 423 C233 416 156 375 129 359 L129 429 L85 424 L85 -5 L129 -1 L129 323 C149 333 224 372 261 385 C275 390 288 393 301 393 C343 393 381 363 381 324 L381 -175 L239 -175 L239 -204 C239 -204 340 -213 374 -219 C393 -219 425 -188 425 -158 L425 305 C425 381 376 429 305 429 C291 429 275 427 259 423 L259 423 Z " />
<glyph glyph-name="Omacron" unicode="Ō" horiz-adv-x="693" d="M359 660 C200 660 50 522 50 323 C50 78 203 -13 341 -13 C481 -13 644 104 644 339 C644 582 496 660 359 660 L359 660 Z M355 624 C494 624 593 517 595 329 C597 129 479 29 353 29 C243 29 101 104 101 333 C101 562 261 624 355 624 L355 624 Z M448 774 L245 774 L245 735 L448 735 L448 774 Z " />
<glyph glyph-name="omacron" unicode="ō" horiz-adv-x="493" d="M99 214 C99 354 187 400 246 400 C335 400 396 338 396 220 C396 87 329 23 245 23 C161 23 99 87 99 214 L99 214 Z M244 433 C164 433 54 363 50 215 C46 76 129 -11 242 -11 C356 -11 444 81 444 222 C444 362 364 433 244 433 L244 433 Z M348 547 L145 547 L145 508 L348 508 L348 547 Z " />
<glyph glyph-name="Obreve" unicode="Ŏ" horiz-adv-x="693" d="M359 660 C200 660 50 522 50 323 C50 78 203 -13 341 -13 C481 -13 644 104 644 339 C644 582 496 660 359 660 L359 660 Z M355 624 C494 624 593 517 595 329 C597 129 479 29 353 29 C243 29 101 104 101 333 C101 562 261 624 355 624 L355 624 Z M229 806 C229 806 250 713 345 713 C440 713 464 805 464 805 L429 811 C429 811 401 751 346 751 C292 751 264 815 264 815 L229 806 Z " />
<glyph glyph-name="obreve" unicode="ŏ" horiz-adv-x="493" d="M99 214 C99 354 187 400 246 400 C335 400 396 338 396 220 C396 87 329 23 245 23 C161 23 99 87 99 214 L99 214 Z M244 433 C164 433 54 363 50 215 C46 76 129 -11 242 -11 C356 -11 444 81 444 222 C444 362 364 433 244 433 L244 433 Z M129 579 C129 579 150 486 245 486 C340 486 364 578 364 578 L329 584 C329 584 301 524 246 524 C192 524 164 588 164 588 L129 579 Z " />
<glyph glyph-name="Ohungarumlaut" unicode="Ő" horiz-adv-x="693" d="M359 660 C200 660 50 522 50 323 C50 78 203 -13 341 -13 C481 -13 644 104 644 339 C644 582 496 660 359 660 L359 660 Z M355 624 C494 624 593 517 595 329 C597 129 479 29 353 29 C243 29 101 104 101 333 C101 562 261 624 355 624 L355 624 Z M206 733 L229 712 L363 824 L327 858 L206 733 Z M328 729 L352 707 L486 820 L450 854 L328 729 Z " />
<glyph glyph-name="ohungarumlaut" unicode="ő" horiz-adv-x="493" d="M99 214 C99 354 187 400 246 400 C335 400 396 338 396 220 C396 87 329 23 245 23 C161 23 99 87 99 214 L99 214 Z M244 433 C164 433 54 363 50 215 C46 76 129 -11 242 -11 C356 -11 444 81 444 222 C444 362 364 433 244 433 L244 433 Z M106 506 L129 485 L263 597 L227 631 L106 506 Z M228 502 L252 480 L386 593 L350 627 L228 502 Z " />
<glyph glyph-name="OE" unicode="Œ" horiz-adv-x="1029" d="M360 661 C201 661 51 523 51 324 C51 79 203 -7 341 -7 C434 -7 536 41 595 142 L595 0 L972 0 L973 37 L640 37 L640 321 L917 321 L917 353 L640 353 L640 613 L962 613 L962 652 L595 652 L595 540 C540 628 447 661 360 661 L360 661 Z M356 624 C487 624 584 527 595 356 L595 293 C583 118 472 35 354 35 C243 35 102 105 102 333 C102 562 261 624 356 624 L356 624 Z " />
<glyph glyph-name="oe" unicode="œ" horiz-adv-x="806" d="M243 434 C163 434 53 363 49 215 C45 76 128 -11 241 -11 C316 -11 381 30 416 100 C449 18 521 -6 583 -6 C648 -6 750 50 750 50 L740 74 C740 74 628 36 588 36 C497 36 449 103 443 191 L759 225 C762 331 709 429 586 429 C510 429 453 389 423 327 C393 398 328 434 243 434 L243 434 Z M98 215 C98 354 186 400 245 400 C334 400 395 338 395 220 C395 87 328 23 244 23 C160 23 98 87 98 215 L98 215 Z M715 254 L442 220 C443 306 475 390 584 390 C681 390 715 314 715 254 L715 254 Z " />
<glyph glyph-name="Racute" unicode="Ŕ" horiz-adv-x="608" d="M589 18 L333 273 C435 296 512 381 515 478 C518 597 427 661 308 659 C205 657 119 639 119 639 L119 -4 L165 0 L166 270 C188 270 237 265 281 267 L553 -13 L589 18 Z M166 613 C166 613 242 623 302 623 C383 623 470 576 468 478 C466 371 401 300 261 301 C211 302 167 306 167 306 L166 613 Z M218 721 L242 699 L389 821 L353 855 L218 721 Z " />
<glyph glyph-name="racute" unicode="ŕ" horiz-adv-x="352" d="M125 255 L128 428 L85 424 L85 -4 L128 0 C128 0 128 23 128 152 C128 318 262 387 342 387 C345 404 345 414 347 433 C201 420 147 319 128 255 L125 255 Z M117 494 L141 472 L288 594 L252 628 L117 494 Z " />
<glyph glyph-name="Rcommaaccent" unicode="Ŗ" horiz-adv-x="603" d="M315 -54 C288 -54 267 -76 267 -102 C267 -123 282 -139 300 -147 C306 -150 314 -160 311 -174 C302 -213 245 -255 245 -255 L267 -281 C267 -281 349 -231 374 -179 C380 -168 383 -153 383 -139 C383 -98 359 -54 315 -54 L315 -54 Z M589 18 L333 273 C435 296 512 381 515 478 C518 597 427 661 308 659 C205 657 119 639 119 639 L119 -4 L165 0 L166 270 C188 270 237 265 281 267 L553 -13 L589 18 Z M166 613 C166 613 242 623 302 623 C383 623 470 576 468 478 C466 371 401 300 261 301 C211 302 167 306 167 306 L166 613 Z " />
<glyph glyph-name="rcommaaccent" unicode="ŗ" horiz-adv-x="353" d="M197 -54 C170 -54 149 -76 149 -102 C149 -123 164 -139 182 -147 C188 -150 196 -160 193 -174 C184 -213 127 -255 127 -255 L149 -281 C149 -281 231 -231 256 -179 C262 -168 265 -153 265 -139 C265 -98 241 -54 197 -54 L197 -54 Z M126 255 L129 428 L86 424 L86 -4 L129 0 C129 0 129 23 129 152 C129 318 263 387 343 387 C346 404 346 414 348 433 C202 420 148 319 129 255 L126 255 Z " />
<glyph glyph-name="Rcaron" unicode="Ř" horiz-adv-x="608" d="M589 18 L333 273 C435 296 512 381 515 478 C518 597 427 661 308 659 C205 657 119 639 119 639 L119 -4 L165 0 L166 270 C188 270 237 265 281 267 L553 -13 L589 18 Z M166 613 C166 613 242 623 302 623 C383 623 470 576 468 478 C466 371 401 300 261 301 C211 302 167 306 167 306 L166 613 Z M180 833 L288 707 L320 707 L427 832 L403 853 L304 749 L204 852 L180 833 Z " />
<glyph glyph-name="rcaron" unicode="ř" horiz-adv-x="352" d="M125 255 L128 428 L85 424 L85 -4 L128 0 C128 0 128 23 128 152 C128 318 262 387 342 387 C345 404 345 414 347 433 C201 420 147 319 128 255 L125 255 Z M84 606 L192 480 L224 480 L331 605 L307 626 L208 522 L108 625 L84 606 Z " />
<glyph glyph-name="Sacute" unicode="Ś" horiz-adv-x="514" d="M441 635 C441 635 343 661 268 661 C257 661 246 660 235 659 C133 649 46 568 53 479 C66 293 395 356 415 185 C424 106 393 35 267 35 C169 35 53 83 53 83 L45 42 C45 42 142 -5 271 -5 C390 -5 469 92 462 195 C448 390 120 334 102 479 C92 561 141 622 244 624 C336 626 430 590 430 590 L441 635 Z M171 721 L195 699 L342 821 L306 855 L171 721 Z " />
<glyph glyph-name="sacute" unicode="ś" horiz-adv-x="407" d="M335 409 C335 409 267 425 198 426 C112 427 50 374 55 306 C61 233 131 211 203 191 C273 172 312 164 312 111 C312 46 258 33 207 35 C151 37 56 58 56 58 L50 21 C50 21 131 -2 209 -5 C282 -8 364 41 356 124 C349 193 289 210 207 232 C164 244 100 261 96 312 C90 378 152 392 195 391 C262 389 330 372 330 372 L335 409 Z M118 494 L142 472 L289 594 L253 628 L118 494 Z " />
<glyph glyph-name="Scircumflex" unicode="Ŝ" horiz-adv-x="514" d="M441 635 C441 635 343 661 268 661 C257 661 246 660 235 659 C133 649 46 568 53 479 C66 293 395 356 415 185 C424 106 393 35 267 35 C169 35 53 83 53 83 L45 42 C45 42 142 -5 271 -5 C390 -5 469 92 462 195 C448 390 120 334 102 479 C92 561 141 622 244 624 C336 626 430 590 430 590 L441 635 Z M257 789 C286 761 322 716 347 691 C355 698 364 706 371 713 C340 749 300 798 272 831 C263 831 253 831 243 831 C212 796 175 752 142 712 C149 705 157 698 166 691 C193 717 230 763 257 789 L257 789 Z " />
<glyph glyph-name="scircumflex" unicode="ŝ" horiz-adv-x="407" d="M335 409 C335 409 267 425 198 426 C112 427 50 374 55 306 C61 233 131 211 203 191 C273 172 312 164 312 111 C312 46 258 33 207 35 C151 37 56 58 56 58 L50 21 C50 21 131 -2 209 -5 C282 -8 364 41 356 124 C349 193 289 210 207 232 C164 244 100 261 96 312 C90 378 152 392 195 391 C262 389 330 372 330 372 L335 409 Z M204 562 C233 534 269 489 294 464 C302 471 311 479 318 486 C287 522 247 571 219 604 C210 604 200 604 190 604 C159 569 122 525 89 485 C96 478 104 471 113 464 C140 490 177 536 204 562 L204 562 Z " />
<glyph glyph-name="Scedilla" unicode="Ş" horiz-adv-x="514" d="M441 635 C441 635 343 661 268 661 C257 661 246 660 235 659 C133 649 46 568 53 479 C66 293 395 356 415 185 C424 106 393 35 267 35 C169 35 53 83 53 83 L45 42 C45 42 142 -5 271 -5 C390 -5 469 92 462 195 C448 390 120 334 102 479 C92 561 141 622 244 624 C336 626 430 590 430 590 L441 635 Z M267 1 L197 -66 L204 -88 C204 -88 264 -89 264 -127 C264 -165 184 -172 184 -172 L188 -199 C188 -199 309 -184 309 -126 C309 -68 250 -62 250 -62 L311 1 L267 1 Z " />
<glyph glyph-name="scedilla" unicode="ş" horiz-adv-x="407" d="M335 409 C335 409 267 425 198 426 C112 427 50 374 55 306 C61 233 131 211 203 191 C273 172 312 164 312 111 C312 46 258 33 207 35 C151 37 56 58 56 58 L50 21 C50 21 131 -2 209 -5 C282 -8 364 41 356 124 C349 193 289 210 207 232 C164 244 100 261 96 312 C90 378 152 392 195 391 C262 389 330 372 330 372 L335 409 Z M210 1 L140 -66 L147 -88 C147 -88 207 -89 207 -127 C207 -165 127 -172 127 -172 L131 -199 C131 -199 252 -184 252 -126 C252 -68 193 -62 193 -62 L254 1 L210 1 Z " />
<glyph glyph-name="Scaron" unicode="Š" horiz-adv-x="514" d="M441 635 C441 635 343 661 268 661 C257 661 246 660 235 659 C133 649 46 568 53 479 C66 293 395 356 415 185 C424 106 393 35 267 35 C169 35 53 83 53 83 L45 42 C45 42 142 -5 271 -5 C390 -5 469 92 462 195 C448 390 120 334 102 479 C92 561 141 622 244 624 C336 626 430 590 430 590 L441 635 Z M133 833 L241 707 L273 707 L380 832 L356 853 L257 749 L157 852 L133 833 Z " />
<glyph glyph-name="scaron" unicode="š" horiz-adv-x="407" d="M335 409 C335 409 267 425 198 426 C112 427 50 374 55 306 C61 233 131 211 203 191 C273 172 312 164 312 111 C312 46 258 33 207 35 C151 37 56 58 56 58 L50 21 C50 21 131 -2 209 -5 C282 -8 364 41 356 124 C349 193 289 210 207 232 C164 244 100 261 96 312 C90 378 152 392 195 391 C262 389 330 372 330 372 L335 409 Z M80 606 L188 480 L220 480 L327 605 L303 626 L204 522 L104 625 L80 606 Z " />
<glyph glyph-name="Tcommaaccent" unicode="Ţ" horiz-adv-x="471" d="M220 1 L150 -66 L157 -88 C157 -88 217 -89 217 -127 C217 -165 137 -172 137 -172 L141 -199 C141 -199 262 -184 262 -126 C262 -68 203 -62 203 -62 L264 1 L220 1 Z M470 620 L470 652 L-1 652 L-1 620 L218 620 L218 -5 L264 0 L264 620 L470 620 Z " />
<glyph glyph-name="tcommaaccent" unicode="ţ" horiz-adv-x="316" d="M163 1 L93 -66 L100 -88 C100 -88 160 -89 160 -127 C160 -165 80 -172 80 -172 L84 -199 C84 -199 205 -184 205 -126 C205 -68 146 -62 146 -62 L207 1 L163 1 Z M301 37 L143 37 L143 383 L285 383 L285 420 L143 420 L143 576 L100 569 C100 569 100 504 100 420 L20 412 L21 385 L100 385 C100 247 100 71 100 52 C100 22 132 -9 151 -9 C185 -3 302 6 302 6 L301 37 Z " />
<glyph glyph-name="Tcaron" unicode="Ť" horiz-adv-x="471" d="M470 620 L470 652 L-1 652 L-1 620 L218 620 L218 -5 L264 0 L264 620 L470 620 Z M112 833 L220 707 L252 707 L359 832 L335 853 L236 749 L136 852 L112 833 Z " />
<glyph glyph-name="tcaron" unicode="ť" horiz-adv-x="437" d="M301 37 L143 37 L143 383 L285 383 L285 420 L143 420 L143 576 L100 569 C100 569 100 504 100 420 L20 412 L21 385 L100 385 C100 247 100 71 100 52 C100 22 132 -9 151 -9 C185 -3 302 6 302 6 L301 37 Z M329 703 C305 703 285 683 285 658 C285 639 298 624 316 616 C322 614 329 605 326 592 C318 555 265 516 265 516 L285 492 C285 492 361 539 385 587 C390 597 393 610 393 623 C393 661 371 703 329 703 L329 703 Z " />
<glyph glyph-name="Tbar" unicode="Ŧ" horiz-adv-x="478" d="M475 620 L475 652 L4 652 L4 620 L223 620 L223 -5 L269 0 L269 620 L475 620 Z M379 425 L109 425 L109 387 L379 387 L379 425 Z " />
<glyph glyph-name="tbar" unicode="ŧ" horiz-adv-x="317" d="M301 37 L143 37 L143 383 L285 383 L285 420 L143 420 L143 576 L100 569 C100 569 100 504 100 420 L20 412 L21 385 L100 385 C100 247 100 71 100 52 C100 22 132 -9 151 -9 C185 -3 302 6 302 6 L301 37 Z M284 266 L24 266 L24 229 L284 229 L284 266 Z " />
<glyph glyph-name="Utilde" unicode="Ũ" horiz-adv-x="691" d="M405 652 C405 652 405 431 405 275 C405 156 398 29 222 29 C46 29 46 165 46 270 L46 659 L0 652 L0 251 C0 161 9 -12 221 -12 C399 -12 451 126 451 313 L451 659 L405 652 Z M221 731 L253 728 C253 728 254 773 288 773 C322 773 360 717 406 717 C453 717 470 760 470 808 L437 810 C433 766 419 761 404 761 C362 761 345 816 291 816 C254 816 224 786 221 731 L221 731 Z " />
<glyph glyph-name="utilde" unicode="ũ" horiz-adv-x="499" d="M414 0 L414 427 L371 422 C371 384 371 202 371 109 C355 100 311 69 251 44 C233 37 217 33 202 33 C154 33 123 70 123 129 L123 427 L81 422 C80 384 80 240 80 144 C80 29 151 -16 220 -5 C266 3 348 69 371 86 C371 73 382 -6 382 -6 L414 0 Z M125 504 L157 501 C157 501 158 546 192 546 C226 546 264 490 310 490 C357 490 374 533 374 581 L341 583 C337 539 323 534 308 534 C266 534 249 589 195 589 C158 589 128 559 125 504 L125 504 Z " />
<glyph glyph-name="Umacron" unicode="Ū" horiz-adv-x="691" d="M405 652 C405 652 405 431 405 275 C405 156 398 29 222 29 C46 29 46 165 46 270 L46 659 L0 652 L0 251 C0 161 9 -12 221 -12 C399 -12 451 126 451 313 L451 659 L405 652 Z M447 774 L244 774 L244 735 L447 735 L447 774 Z " />
<glyph glyph-name="umacron" unicode="ū" horiz-adv-x="499" d="M414 0 L414 427 L371 422 C371 384 371 202 371 109 C355 100 311 69 251 44 C233 37 217 33 202 33 C154 33 123 70 123 129 L123 427 L81 422 C80 384 80 240 80 144 C80 29 151 -16 220 -5 C266 3 348 69 371 86 C371 73 382 -6 382 -6 L414 0 Z M351 547 L148 547 L148 508 L351 508 L351 547 Z " />
<glyph glyph-name="Ubreve" unicode="Ŭ" horiz-adv-x="691" d="M405 652 C405 652 405 431 405 275 C405 156 398 29 222 29 C46 29 46 165 46 270 L46 659 L0 652 L0 251 C0 161 9 -12 221 -12 C399 -12 451 126 451 313 L451 659 L405 652 Z M228 806 C228 806 249 713 344 713 C439 713 463 805 463 805 L428 811 C428 811 400 751 345 751 C291 751 263 815 263 815 L228 806 Z " />
<glyph glyph-name="ubreve" unicode="ŭ" horiz-adv-x="499" d="M414 0 L414 427 L371 422 C371 384 371 202 371 109 C355 100 311 69 251 44 C233 37 217 33 202 33 C154 33 123 70 123 129 L123 427 L81 422 C80 384 80 240 80 144 C80 29 151 -16 220 -5 C266 3 348 69 371 86 C371 73 382 -6 382 -6 L414 0 Z M132 579 C132 579 153 486 248 486 C343 486 367 578 367 578 L332 584 C332 584 304 524 249 524 C195 524 167 588 167 588 L132 579 Z " />
<glyph glyph-name="Uring" unicode="Ů" horiz-adv-x="691" d="M405 652 C405 652 405 431 405 275 C405 156 398 29 222 29 C46 29 46 165 46 270 L46 659 L0 652 L0 251 C0 161 9 -12 221 -12 C399 -12 451 126 451 313 L451 659 L405 652 Z M295 792 C295 820 318 842 346 842 C374 842 396 820 396 792 C396 765 374 742 346 742 C318 742 295 765 295 792 L295 792 Z M252 792 C252 747 294 710 346 710 C397 710 439 747 439 792 C439 837 397 874 346 874 C294 874 252 837 252 792 L252 792 Z " />
<glyph glyph-name="uring" unicode="ů" horiz-adv-x="499" d="M414 0 L414 427 L371 422 C371 384 371 202 371 109 C355 100 311 69 251 44 C233 37 217 33 202 33 C154 33 123 70 123 129 L123 427 L81 422 C80 384 80 240 80 144 C80 29 151 -16 220 -5 C266 3 348 69 371 86 C371 73 382 -6 382 -6 L414 0 Z M199 565 C199 593 222 615 250 615 C278 615 300 593 300 565 C300 538 278 515 250 515 C222 515 199 538 199 565 L199 565 Z M156 565 C156 520 198 483 250 483 C301 483 343 520 343 565 C343 610 301 647 250 647 C198 647 156 610 156 565 L156 565 Z " />
<glyph glyph-name="Uhungarumlaut" unicode="Ű" horiz-adv-x="691" d="M405 652 C405 652 405 431 405 275 C405 156 398 29 222 29 C46 29 46 165 46 270 L46 659 L0 652 L0 251 C0 161 9 -12 221 -12 C399 -12 451 126 451 313 L451 659 L405 652 Z M205 733 L228 712 L362 824 L326 858 L205 733 Z M327 729 L351 707 L485 820 L449 854 L327 729 Z " />
<glyph glyph-name="uhungarumlaut" unicode="ű" horiz-adv-x="499" d="M414 0 L414 427 L371 422 C371 384 371 202 371 109 C355 100 311 69 251 44 C233 37 217 33 202 33 C154 33 123 70 123 129 L123 427 L81 422 C80 384 80 240 80 144 C80 29 151 -16 220 -5 C266 3 348 69 371 86 C371 73 382 -6 382 -6 L414 0 Z M109 506 L132 485 L266 597 L230 631 L109 506 Z M231 502 L255 480 L389 593 L353 627 L231 502 Z " />
<glyph glyph-name="Uogonek" unicode="Ų" horiz-adv-x="691" d="M405 652 C405 652 405 431 405 275 C405 156 398 29 222 29 C46 29 46 165 46 270 L46 659 L0 652 L0 251 C0 161 9 -12 221 -12 C399 -12 451 126 451 313 L451 659 L405 652 Z M396 3 L355 3 C355 3 288 -40 285 -102 C283 -147 314 -175 353 -175 C393 -175 420 -156 420 -156 L413 -132 C413 -132 391 -140 369 -140 C346 -140 323 -132 323 -100 C323 -36 396 3 396 3 L396 3 Z " />
<glyph glyph-name="uogonek" unicode="ų" horiz-adv-x="499" d="M384 3 C384 3 307 -40 304 -102 C302 -147 333 -175 372 -175 C412 -175 439 -156 439 -156 L432 -132 C432 -132 410 -140 388 -140 C365 -140 342 -132 342 -100 C342 -36 414 0 414 0 L384 3 Z M414 0 L414 427 L371 422 C371 384 371 202 371 109 C355 100 311 69 251 44 C233 37 217 33 202 33 C154 33 123 70 123 129 L123 427 L81 422 C80 384 80 240 80 144 C80 29 151 -16 220 -5 C266 3 348 69 371 86 C371 73 382 -6 382 -6 L414 0 Z " />
<glyph glyph-name="Wcircumflex" unicode="Ŵ" horiz-adv-x="837" d="M582 -6 L647 0 L829 652 L784 658 L614 46 L450 658 L387 652 L208 49 L55 658 L10 652 L177 -6 L238 0 L418 610 L582 -6 Z M419 789 C448 761 484 716 509 691 C517 698 526 706 533 713 C502 749 462 798 434 831 C425 831 415 831 405 831 C374 796 337 752 304 712 C311 705 319 698 328 691 C355 717 392 763 419 789 L419 789 Z " />
<glyph glyph-name="wcircumflex" unicode="ŵ" horiz-adv-x="605" d="M336 427 L277 427 L164 37 L160 37 L66 427 L25 422 L132 -6 L188 0 L308 386 L397 -6 L454 0 L582 422 L539 433 L429 37 L426 37 L336 427 Z M303 562 C332 534 368 489 393 464 C401 471 410 479 417 486 C386 522 346 571 318 604 C309 604 299 604 289 604 C258 569 221 525 188 485 C195 478 203 471 212 464 C239 490 276 536 303 562 L303 562 Z " />
<glyph glyph-name="Ycircumflex" unicode="Ŷ" horiz-adv-x="497" d="M251 341 L55 658 L7 652 L227 290 L227 -6 L273 0 L273 291 L488 652 L440 658 L251 341 Z M249 789 C278 761 314 716 339 691 C347 698 356 706 363 713 C332 749 292 798 264 831 C255 831 245 831 235 831 C204 796 167 752 134 712 C141 705 149 698 158 691 C185 717 222 763 249 789 L249 789 Z " />
<glyph glyph-name="ycircumflex" unicode="ŷ" horiz-adv-x="425" d="M360 427 L209 72 L194 72 L71 427 L25 422 L165 39 L194 39 L94 -203 L136 -216 L401 415 L360 427 Z M213 562 C242 534 278 489 303 464 C311 471 320 479 327 486 C296 522 256 571 228 604 C219 604 209 604 199 604 C168 569 131 525 98 485 C105 478 113 471 122 464 C149 490 186 536 213 562 L213 562 Z " />
<glyph glyph-name="Ydieresis" unicode="Ÿ" horiz-adv-x="497" d="M251 341 L55 658 L7 652 L227 290 L227 -6 L273 0 L273 291 L488 652 L440 658 L251 341 Z M130 763 C130 742 148 724 169 724 C190 724 208 742 208 763 C208 784 190 802 169 802 C148 802 130 784 130 763 L130 763 Z M288 763 C288 742 306 724 327 724 C348 724 366 742 366 763 C366 784 348 802 327 802 C306 802 288 784 288 763 L288 763 Z " />
<glyph glyph-name="Zacute" unicode="Ź" horiz-adv-x="565" d="M54 652 L54 614 L462 614 L19 49 L31 0 L510 0 L510 37 L72 37 L507 597 L494 652 L54 652 Z M197 721 L221 699 L368 821 L332 855 L197 721 Z " />
<glyph glyph-name="zacute" unicode="ź" horiz-adv-x="431" d="M384 39 L86 39 L376 387 L368 420 L63 420 L63 386 L322 386 L46 52 L58 0 L378 0 L384 39 Z M130 494 L154 472 L301 594 L265 628 L130 494 Z " />
<glyph glyph-name="Zdotaccent" unicode="Ż" horiz-adv-x="565" d="M54 652 L54 614 L462 614 L19 49 L31 0 L510 0 L510 37 L72 37 L507 597 L494 652 L54 652 Z M239 771 C239 747 258 727 282 727 C306 727 326 747 326 771 C326 794 306 814 282 814 C258 814 239 794 239 771 L239 771 Z " />
<glyph glyph-name="zdotaccent" unicode="ż" horiz-adv-x="431" d="M384 39 L86 39 L376 387 L368 420 L63 420 L63 386 L322 386 L46 52 L58 0 L378 0 L384 39 Z M172 544 C172 520 191 500 215 500 C239 500 259 520 259 544 C259 567 239 587 215 587 C191 587 172 567 172 544 L172 544 Z " />
<glyph glyph-name="Zcaron" unicode="Ž" horiz-adv-x="565" d="M54 652 L54 614 L462 614 L19 49 L31 0 L510 0 L510 37 L72 37 L507 597 L494 652 L54 652 Z M159 833 L267 707 L299 707 L406 832 L382 853 L283 749 L183 852 L159 833 Z " />
<glyph glyph-name="zcaron" unicode="ž" horiz-adv-x="431" d="M384 39 L86 39 L376 387 L368 420 L63 420 L63 386 L322 386 L46 52 L58 0 L378 0 L384 39 Z M92 606 L200 480 L232 480 L339 605 L315 626 L216 522 L116 625 L92 606 Z " />
<glyph glyph-name="longs" unicode="ſ" horiz-adv-x="299" d="M250 617 C283 615 314 605 314 605 L324 636 C324 636 283 649 240 647 C165 642 116 572 116 487 C116 480 116 456 116 421 L71 421 L72 393 L116 385 C116 241 115 -4 115 -4 L159 0 C158 470 158 505 158 514 C158 587 189 621 250 617 L250 617 Z " />
<glyph glyph-name="florin" unicode="ƒ" horiz-adv-x="451" d="M233 6 C234 13 251 236 251 384 L369 384 L369 419 L251 419 C251 466 255 526 256 535 C258 605 292 637 354 631 C389 628 420 618 420 618 L432 647 C432 647 390 661 345 660 C268 658 214 592 212 510 C211 503 208 453 208 419 L116 419 L116 392 L208 385 C207 245 189 -9 188 -17 C183 -87 149 -118 86 -110 C52 -106 21 -94 21 -94 L8 -123 C8 -123 50 -139 95 -139 C172 -140 227 -76 233 6 L233 6 Z " />
<glyph glyph-name="circumflex" unicode="ˆ" horiz-adv-x="300" d="M151 562 C180 534 216 489 241 464 C249 471 258 479 265 486 C234 522 194 571 166 604 C157 604 147 604 137 604 C106 569 69 525 36 485 C43 478 51 471 60 464 C87 490 124 536 151 562 L151 562 Z " />
<glyph glyph-name="caron" unicode="ˇ" horiz-adv-x="319" d="M36 606 L144 480 L176 480 L283 605 L259 626 L160 522 L60 625 L36 606 Z " />
<glyph glyph-name="breve" unicode="˘" horiz-adv-x="309" d="M39 579 C39 579 60 486 155 486 C250 486 274 578 274 578 L239 584 C239 584 211 524 156 524 C102 524 74 588 74 588 L39 579 Z " />
<glyph glyph-name="dotaccent" unicode="˙" horiz-adv-x="300" d="M108 544 C108 520 127 500 151 500 C175 500 195 520 195 544 C195 567 175 587 151 587 C127 587 108 567 108 544 L108 544 Z " />
<glyph glyph-name="ring" unicode="˚" horiz-adv-x="308" d="M105 565 C105 593 128 615 156 615 C184 615 206 593 206 565 C206 538 184 515 156 515 C128 515 105 538 105 565 L105 565 Z M62 565 C62 520 104 483 156 483 C207 483 249 520 249 565 C249 610 207 647 156 647 C104 647 62 610 62 565 L62 565 Z " />
<glyph glyph-name="ogonek" unicode="˛" horiz-adv-x="300" d="M307 3 L266 3 C266 3 199 -40 196 -102 C194 -147 225 -175 264 -175 C304 -175 331 -156 331 -156 L324 -132 C324 -132 302 -140 280 -140 C257 -140 234 -132 234 -100 C234 -36 307 3 307 3 L307 3 Z " />
<glyph glyph-name="tilde" unicode="˜" horiz-adv-x="311" d="M32 504 L64 501 C64 501 65 546 99 546 C133 546 171 490 217 490 C264 490 281 533 281 581 L248 583 C244 539 230 534 215 534 C173 534 156 589 102 589 C65 589 35 559 32 504 L32 504 Z " />
<glyph glyph-name="hungarumlaut" unicode="˝" horiz-adv-x="319" d="M25 506 L48 485 L182 597 L146 631 L25 506 Z M147 502 L171 480 L305 593 L269 627 L147 502 Z " />
<glyph glyph-name="Omega" unicode="Ω" horiz-adv-x="724" d="M41 0 L280 0 L280 39 C280 39 111 132 111 341 C111 530 236 627 367 627 C483 627 623 549 623 340 C623 130 448 39 448 39 L448 0 L683 0 L683 39 L515 39 C515 39 669 146 669 338 C669 529 547 662 371 662 C194 662 55 535 55 339 C55 142 215 39 215 39 L41 39 L41 0 Z " />
<glyph glyph-name="pi" unicode="π" horiz-adv-x="527" d="M507 462 L28 462 L23 429 L146 429 L56 0 L103 -6 L187 429 L383 429 L402 -6 L444 0 L427 429 L498 429 L507 462 Z " />
<glyph glyph-name="endash" unicode="–" horiz-adv-x="532" d="M501 263 L32 263 L30 222 L498 222 L501 263 Z " />
<glyph glyph-name="emdash" unicode="—" horiz-adv-x="1063" d="M1033 263 L32 263 L30 222 L1030 222 L1033 263 Z " />
<glyph glyph-name="quoteleft" unicode="‘" horiz-adv-x="181" d="M104 498 C129 498 149 518 149 543 C149 562 135 577 118 585 C112 587 105 597 108 609 C116 646 169 685 169 685 L149 709 C149 709 72 662 49 614 C44 603 41 590 41 577 C41 539 62 498 104 498 L104 498 Z " />
<glyph glyph-name="quoteright" unicode="’" horiz-adv-x="181" d="M80 703 C56 703 36 683 36 658 C36 639 49 624 67 616 C73 614 80 605 77 592 C69 555 16 516 16 516 L36 492 C36 492 112 539 136 587 C141 597 144 610 144 623 C144 661 122 703 80 703 L80 703 Z " />
<glyph glyph-name="quotesinglbase" unicode="‚" horiz-adv-x="225" d="M105 84 C80 84 60 65 60 40 C60 20 74 5 91 -2 C97 -5 104 -14 101 -26 C93 -63 40 -102 40 -102 L60 -127 C60 -127 137 -79 160 -32 C165 -21 168 -8 168 5 C168 43 147 84 105 84 L105 84 Z " />
<glyph glyph-name="quotedblleft" unicode="“" horiz-adv-x="351" d="M105 498 C130 498 150 518 150 543 C150 562 136 577 119 585 C113 587 106 597 109 609 C117 646 170 685 170 685 L150 709 C150 709 73 662 50 614 C45 604 42 591 42 578 C42 540 64 498 105 498 L105 498 Z M263 498 C287 498 307 518 307 543 C307 562 294 577 277 585 C271 587 263 597 266 609 C275 646 328 685 328 685 L308 709 C308 709 231 662 208 614 C203 603 200 590 200 577 C200 539 221 498 263 498 L263 498 Z " />
<glyph glyph-name="quotedblright" unicode="”" horiz-adv-x="337" d="M232 707 C208 707 188 687 188 663 C188 643 201 628 219 620 C225 618 232 609 229 596 C221 559 168 520 168 520 L188 496 C188 496 265 543 288 591 C293 601 296 614 296 627 C296 665 274 707 232 707 L232 707 Z M82 707 C57 707 37 687 37 663 C37 643 51 628 68 620 C74 618 81 609 78 596 C70 559 17 520 17 520 L37 496 C37 496 114 543 137 591 C142 602 145 615 145 628 C145 666 124 707 82 707 L82 707 Z " />
<glyph glyph-name="quotedblbase" unicode="„" horiz-adv-x="378" d="M254 84 C229 84 210 65 210 40 C210 20 223 5 240 -2 C246 -5 253 -14 251 -26 C242 -63 189 -102 189 -102 L209 -127 C209 -127 286 -79 309 -32 C314 -21 317 -8 317 5 C317 43 296 84 254 84 L254 84 Z M103 84 C79 84 59 65 59 40 C59 20 72 5 89 -2 C95 -5 103 -14 100 -26 C91 -63 38 -102 38 -102 L58 -127 C58 -127 135 -79 158 -32 C163 -21 166 -8 166 5 C166 43 145 84 103 84 L103 84 Z " />
<glyph glyph-name="dagger" unicode="†" horiz-adv-x="446" d="M36 386 L200 386 L200 -139 L239 -129 L239 386 L404 386 L413 420 L239 420 L239 662 L200 654 L200 420 L45 420 L36 386 Z " />
<glyph glyph-name="daggerdbl" unicode="‡" horiz-adv-x="451" d="M36 103 L205 103 L205 -139 L244 -129 L244 103 L404 103 L413 137 L244 137 L244 386 L404 386 L413 420 L244 420 L244 662 L205 654 L205 420 L45 420 L36 386 L205 386 L205 137 L45 137 L36 103 Z " />
<glyph glyph-name="bullet" unicode="•" horiz-adv-x="281" d="M48 262 C48 210 90 168 142 168 C195 168 237 210 237 262 C237 315 195 357 142 357 C90 357 48 315 48 262 L48 262 Z " />
<glyph glyph-name="ellipsis" unicode="…" horiz-adv-x="780" d="M79 39 C79 13 100 -8 127 -8 C153 -8 174 13 174 39 C174 66 153 87 127 87 C100 87 79 66 79 39 L79 39 Z M344 39 C344 13 366 -8 392 -8 C418 -8 440 13 440 39 C440 66 418 87 392 87 C366 87 344 66 344 39 L344 39 Z M610 39 C610 13 631 -8 657 -8 C684 -8 705 13 705 39 C705 66 684 87 657 87 C631 87 610 66 610 39 L610 39 Z " />
<glyph glyph-name="perthousand" unicode="‰" horiz-adv-x="1138" d="M201 654 C197 654 193 655 190 655 C129 655 44 604 41 496 C37 394 102 331 189 331 C276 331 345 398 345 501 C345 559 324 602 289 627 C381 626 532 631 532 631 L180 -9 L216 -27 L589 643 L561 666 C561 666 475 661 407 656 C379 654 341 653 304 653 C250 653 202 655 201 654 L201 654 Z M942 315 C880 315 795 264 792 156 C789 54 853 -9 940 -9 C1028 -9 1096 58 1096 161 C1096 263 1034 315 942 315 L942 315 Z M577 315 C515 315 430 264 427 156 C424 54 488 -9 575 -9 C663 -9 731 58 731 161 C731 263 669 315 577 315 L577 315 Z M840 155 C840 251 901 283 942 283 C1004 283 1047 241 1047 159 C1047 67 1000 23 941 23 C883 23 840 67 840 155 L840 155 Z M475 155 C475 251 536 283 577 283 C639 283 682 241 682 159 C682 67 634 23 576 23 C518 23 475 67 475 155 L475 155 Z M88 495 C88 591 149 623 191 623 C252 623 295 581 295 499 C295 408 248 363 190 363 C132 363 88 408 88 495 L88 495 Z " />
<glyph glyph-name="guilsinglleft" unicode="‹" horiz-adv-x="244" d="M181 390 L33 237 L33 212 L180 58 L208 80 L99 224 L210 367 L181 390 Z " />
<glyph glyph-name="guilsinglright" unicode="›" horiz-adv-x="244" d="M69 390 L40 367 L151 224 L42 80 L70 58 L217 212 L217 237 L69 390 Z " />
<glyph glyph-name="fraction" unicode="⁄" horiz-adv-x="445" d="M390 666 L16 -5 L49 -20 L427 652 L390 666 Z " />
<glyph glyph-name="zerosuperior" unicode="⁰" horiz-adv-x="252" d="M237 607 C237 719 196 770 127 770 C62 770 17 697 17 607 C17 517 43 443 127 443 C199 443 237 517 237 607 L237 607 Z M196 605 C196 533 171 478 127 478 C74 478 57 533 57 605 C57 677 86 736 127 736 C169 736 196 695 196 605 L196 605 Z " />
<glyph glyph-name="foursuperior" unicode="⁴" horiz-adv-x="252" d="M144 446 L184 447 L184 524 L237 524 L240 559 L184 559 L184 765 L153 769 L3 553 L17 524 L144 524 L144 446 Z M144 699 L144 559 L48 559 L144 699 Z " />
<glyph glyph-name="fivesuperior" unicode="⁵" horiz-adv-x="252" d="M94 479 C57 479 28 495 28 495 L15 461 C15 461 57 444 96 444 C181 444 221 496 221 555 C221 598 199 659 117 659 C83 659 75 652 75 652 L87 732 L218 732 L218 768 L53 768 L34 626 L57 609 C57 609 80 627 125 623 C164 619 183 595 184 555 C184 500 141 479 94 479 L94 479 Z " />
<glyph glyph-name="sixsuperior" unicode="⁶" horiz-adv-x="252" d="M127 641 C103 639 89 632 81 622 C106 695 152 718 196 743 C192 750 179 773 179 773 C66 726 29 630 28 551 C28 489 68 444 126 444 C183 444 228 485 228 547 C228 609 181 644 127 641 L127 641 Z M71 549 C71 592 106 608 128 608 C160 608 185 583 185 545 C185 504 159 480 127 480 C97 480 71 509 71 549 L71 549 Z " />
<glyph glyph-name="sevensuperior" unicode="⁷" horiz-adv-x="252" d="M41 731 L173 731 C73 590 55 445 55 445 L102 448 C135 649 229 745 229 745 L219 766 L41 766 L41 731 Z " />
<glyph glyph-name="eightsuperior" unicode="⁸" horiz-adv-x="252" d="M163 618 C174 623 223 644 225 695 C227 741 183 772 131 769 C80 766 37 732 38 687 C39 655 61 636 89 621 C69 613 20 588 18 534 C16 469 62 442 123 442 C182 442 235 474 238 527 C241 578 207 600 163 618 L163 618 Z M78 685 C76 709 93 734 131 737 C163 738 187 720 187 693 C187 654 147 636 138 632 C107 645 80 656 78 685 L78 685 Z M199 529 C199 490 159 474 124 474 C80 474 57 495 54 532 C52 580 100 601 116 606 C167 588 199 571 199 529 L199 529 Z " />
<glyph glyph-name="ninesuperior" unicode="⁹" horiz-adv-x="252" d="M127 575 C151 577 165 584 173 594 C148 521 105 491 61 466 C65 459 75 443 75 443 C188 490 225 586 226 665 C226 727 186 772 128 772 C71 772 26 731 26 669 C26 607 73 572 127 575 L127 575 Z M183 667 C183 624 148 608 126 608 C94 608 69 633 69 671 C69 712 95 736 127 736 C157 736 183 707 183 667 L183 667 Z " />
<glyph glyph-name="plussuperior" unicode="⁺" horiz-adv-x="265" d="M149 537 L149 627 L232 627 L234 663 L149 663 L149 749 L113 748 L113 663 L32 663 L31 627 L113 627 L113 535 L149 537 Z " />
<glyph glyph-name="minussuperior" unicode="⁻" horiz-adv-x="231" d="M217 663 L16 663 L15 627 L215 627 L217 663 Z " />
<glyph glyph-name="equalssuperior" unicode="⁼" horiz-adv-x="263" d="M234 687 L32 687 L31 652 L232 652 L234 687 Z M234 620 L32 620 L31 585 L232 585 L234 620 Z " />
<glyph glyph-name="zeroinferior" unicode="₀" horiz-adv-x="252" d="M237 22 C237 134 196 185 127 185 C62 185 17 112 17 22 C17 -68 43 -142 127 -142 C199 -142 237 -68 237 22 L237 22 Z M196 20 C196 -52 171 -107 127 -107 C74 -107 57 -52 57 20 C57 92 86 151 127 151 C169 151 196 110 196 20 L196 20 Z " />
<glyph glyph-name="oneinferior" unicode="₁" horiz-adv-x="205" d="M112 -140 L151 -140 L151 180 L9 125 L22 98 L112 122 L112 -140 Z " />
<glyph glyph-name="twoinferior" unicode="₂" horiz-adv-x="252" d="M15 104 L44 85 C79 129 110 137 136 137 C175 137 202 118 202 75 C202 -15 9 -109 9 -109 L18 -139 L238 -139 L244 -101 C122 -101 152 -101 85 -101 C158 -59 243 4 243 72 C243 115 218 173 139 173 C59 173 15 104 15 104 L15 104 Z " />
<glyph glyph-name="threeinferior" unicode="₃" horiz-adv-x="252" d="M195 -48 C196 -98 165 -113 112 -108 C74 -105 33 -89 33 -89 L20 -121 C20 -121 62 -140 114 -144 C180 -149 235 -123 236 -51 C237 -9 210 23 146 28 C196 35 227 62 229 98 C232 157 178 175 136 175 C79 174 58 161 29 149 L41 119 C41 119 85 144 122 143 C173 142 189 127 188 101 C186 60 124 46 93 45 C69 44 60 45 60 45 L60 9 C60 9 72 9 84 9 C148 8 194 -8 195 -48 L195 -48 Z " />
<glyph glyph-name="fourinferior" unicode="₄" horiz-adv-x="252" d="M148 -140 L188 -139 L188 -62 L241 -62 L244 -27 L188 -27 L188 179 L157 183 L7 -33 L21 -62 L148 -62 L148 -140 Z M148 113 L148 -27 L52 -27 L148 113 Z " />
<glyph glyph-name="fiveinferior" unicode="₅" horiz-adv-x="252" d="M96 -109 C59 -109 30 -93 30 -93 L17 -127 C17 -127 59 -144 98 -144 C183 -144 223 -92 223 -33 C223 10 201 71 119 71 C85 71 77 64 77 64 L89 144 L220 144 L220 180 L55 180 L36 38 L59 21 C59 21 82 39 127 35 C166 31 185 7 186 -33 C186 -88 143 -109 96 -109 L96 -109 Z " />
<glyph glyph-name="sixinferior" unicode="₆" horiz-adv-x="252" d="M126 53 C102 51 88 44 80 34 C105 107 151 134 195 159 C191 166 178 185 178 185 C65 138 28 42 27 -37 C27 -99 67 -144 125 -144 C182 -144 227 -103 227 -41 C227 21 180 56 126 53 L126 53 Z M70 -39 C70 4 105 20 127 20 C159 20 184 -5 184 -43 C184 -84 158 -108 126 -108 C96 -108 70 -79 70 -39 L70 -39 Z " />
<glyph glyph-name="seveninferior" unicode="₇" horiz-adv-x="252" d="M42 146 L174 146 C74 5 56 -140 56 -140 L103 -137 C136 64 230 160 230 160 L220 181 L42 181 L42 146 Z " />
<glyph glyph-name="eightinferior" unicode="₈" horiz-adv-x="252" d="M161 34 C172 39 221 60 223 111 C225 157 181 188 129 185 C78 182 35 148 36 103 C37 71 59 52 87 37 C67 29 18 4 16 -50 C14 -115 60 -142 121 -142 C180 -142 233 -110 236 -57 C239 -6 205 16 161 34 L161 34 Z M76 101 C74 125 91 150 129 153 C161 154 185 136 185 109 C185 70 145 52 136 48 C105 61 78 72 76 101 L76 101 Z M197 -55 C197 -94 157 -110 122 -110 C78 -110 55 -89 52 -52 C50 -4 98 17 114 22 C165 4 197 -13 197 -55 L197 -55 Z " />
<glyph glyph-name="nineinferior" unicode="₉" horiz-adv-x="252" d="M126 -14 C150 -12 164 -5 172 5 C147 -68 104 -98 60 -123 C64 -130 74 -146 74 -146 C187 -99 224 -3 225 76 C225 138 185 183 127 183 C70 183 25 142 25 80 C25 18 72 -17 126 -14 L126 -14 Z M182 78 C182 35 147 19 125 19 C93 19 68 44 68 82 C68 123 94 147 126 147 C156 147 182 118 182 78 L182 78 Z " />
<glyph glyph-name="plusinferior" unicode="₊" horiz-adv-x="265" d="M149 -90 L149 0 L232 0 L234 36 L149 36 L149 122 L113 121 L113 36 L32 36 L31 0 L113 0 L113 -92 L149 -90 Z " />
<glyph glyph-name="minusinferior" unicode="₋" horiz-adv-x="231" d="M217 40 L16 40 L15 4 L215 4 L217 40 Z " />
<glyph glyph-name="equalsinferior" unicode="₌" horiz-adv-x="263" d="M234 51 L32 51 L31 16 L232 16 L234 51 Z M234 -16 L32 -16 L31 -51 L232 -51 L234 -16 Z " />
<glyph glyph-name="Euro" unicode="€" horiz-adv-x="566" d="M410 243 L410 279 L105 279 C103 297 102 316 102 336 L102 350 L410 350 L410 386 L105 386 C124 543 236 625 346 627 C443 629 529 577 529 577 L544 611 C498 639 427 664 354 662 C237 656 86 568 57 386 L3 386 L3 350 L53 350 C52 340 52 331 52 321 C52 306 52 292 53 279 L3 279 L3 243 L58 243 C85 80 199 -3 336 -3 C437 -3 554 74 554 74 L534 100 C534 100 439 39 336 39 C247 39 143 99 111 243 L410 243 Z " />
<glyph glyph-name="trademark" unicode="™" horiz-adv-x="602" d="M316 603 L392 391 L426 393 L504 607 L512 391 L554 393 L537 658 L481 655 L409 439 L330 658 L284 656 L266 391 L304 393 L316 603 Z M237 626 L237 655 L17 655 L17 626 L107 626 L107 391 L146 394 L146 626 L237 626 Z " />
<glyph glyph-name="partialdiff" unicode="∂" horiz-adv-x="538" d="M268 662 C169 667 79 616 79 616 L98 590 C98 590 172 625 253 625 C377 625 444 538 444 362 C444 350 444 339 443 327 C426 355 373 427 267 427 C134 427 50 331 40 226 C39 215 38 205 38 194 C38 95 87 0 222 0 C373 0 488 138 488 359 C488 580 395 655 268 662 L268 662 Z M224 39 C120 39 87 123 87 193 C87 203 88 213 89 222 C100 299 143 391 267 391 C362 391 417 316 438 281 C413 136 324 39 224 39 L224 39 Z " />
<glyph glyph-name="Delta" unicode="∆" horiz-adv-x="607" d="M280 654 L44 39 L44 0 L560 0 L560 39 L322 654 L280 654 Z M302 613 L520 39 L83 39 L302 613 Z " />
<glyph glyph-name="product" unicode="∏" d="" />
<glyph glyph-name="summation" unicode="∑" horiz-adv-x="534" d="M485 653 L33 652 L33 621 L298 296 L17 -36 L17 -64 L525 -64 L525 -24 L76 -24 L346 293 L82 618 L485 618 L485 653 Z " />
<glyph glyph-name="minus" unicode="−" horiz-adv-x="472" d="M442 346 L32 346 L30 305 L439 305 L442 346 Z " />
<glyph glyph-name="radical" unicode="√" horiz-adv-x="559" d="M36 332 L50 301 L130 334 L288 -94 L330 -94 L568 803 L525 803 L309 -38 L155 377 L36 332 Z " />
<glyph glyph-name="infinity" unicode="∞" horiz-adv-x="744" d="M564 362 C629 362 660 317 660 264 C660 195 607 159 555 159 C506 159 454 209 401 263 C455 314 509 362 564 362 L564 362 Z M350 261 C298 210 243 163 176 163 C122 163 79 200 79 264 C79 328 125 362 188 362 C247 362 299 313 350 261 L350 261 Z M374 237 C429 181 489 127 561 127 C627 127 703 180 703 270 C703 314 675 397 570 397 C493 397 433 342 377 287 C320 342 257 396 189 396 C88 396 39 325 39 263 C39 214 61 127 179 127 C251 127 315 181 374 237 L374 237 Z " />
<glyph glyph-name="integral" unicode="∫" horiz-adv-x="318" d="M299 771 C299 771 278 780 253 780 C171 780 134 701 134 586 C134 481 144 182 144 46 C145 -91 86 -109 62 -109 C38 -109 19 -100 19 -100 L13 -129 C13 -129 22 -142 60 -142 C142 -142 187 -73 186 44 C186 163 181 398 176 583 C172 718 220 743 258 743 C270 743 282 740 290 738 L299 771 Z " />
<glyph glyph-name="approxequal" unicode="≈" horiz-adv-x="533" d="M57 366 L81 341 C81 341 118 383 169 383 C220 383 297 333 359 333 C426 333 475 384 475 384 L451 410 C451 410 411 367 358 367 C309 367 230 417 165 417 C111 417 57 366 57 366 L57 366 Z M81 202 C81 202 118 244 169 244 C220 244 297 194 359 194 C426 194 475 245 475 245 L451 271 C451 271 411 228 358 228 C309 228 230 278 165 278 C111 278 57 227 57 227 L81 202 Z " />
<glyph glyph-name="notequal" unicode="≠" horiz-adv-x="538" d="M477 350 L477 387 L327 387 L362 476 L323 489 L283 387 L64 387 L64 350 L269 350 L230 247 L64 247 L64 210 L215 210 L182 123 L219 107 L259 210 L477 210 L477 247 L273 247 L313 350 L477 350 Z " />
<glyph glyph-name="lessequal" unicode="≤" horiz-adv-x="537" d="M479 41 L68 41 L66 0 L477 0 L479 41 Z M391 556 L101 345 L101 318 L391 101 L410 140 L156 334 L414 516 L391 556 Z " />
<glyph glyph-name="greaterequal" unicode="≥" horiz-adv-x="537" d="M472 41 L61 41 L59 0 L469 0 L472 41 Z M134 556 L111 516 L369 334 L115 140 L134 101 L424 318 L424 345 L134 556 Z " />
<glyph glyph-name="lozenge" unicode="◊" horiz-adv-x="498" d="M228 672 L48 322 L229 -27 L268 -27 L451 322 L269 672 L228 672 Z M247 632 L405 321 L250 12 L93 322 L247 632 Z " />
<glyph glyph-name="ffj" unicode="" horiz-adv-x="778" d="M651 24 C651 -97 632 -131 582 -206 C589 -212 600 -219 608 -224 C703 -110 695 -39 695 44 L695 420 L427 420 C426 469 426 504 426 513 C426 586 458 620 518 616 C552 614 695 582 695 582 L706 613 C706 613 552 648 508 646 C479 644 454 632 434 614 C410 619 280 648 240 646 C166 641 117 571 117 486 L117 420 L28 420 L28 391 L117 384 C116 240 116 -5 116 -5 L159 -1 L159 383 L384 383 L384 -5 L427 -1 L427 383 L651 383 L651 24 Z M159 420 L159 513 C159 586 190 620 251 616 C277 615 373 594 411 585 C394 558 385 523 385 486 L385 420 L159 420 Z " />
<glyph glyph-name="fj" unicode="" horiz-adv-x="511" d="M383 24 C383 -97 364 -131 314 -206 C321 -212 332 -219 340 -224 C435 -110 427 -39 427 44 L427 420 L158 420 L158 513 C158 586 190 620 250 616 C284 614 427 582 427 582 L438 613 C438 613 284 648 240 646 C166 641 117 571 117 486 C117 479 116 454 116 420 L27 420 L28 391 L116 384 C116 240 115 -5 115 -5 L159 -1 C159 -1 159 230 158 383 L383 383 L383 24 Z " />
<glyph glyph-name="zero.onum" unicode="" horiz-adv-x="556" d="M46 211 C40 91 125 -7 268 -7 C396 -7 504 91 509 211 C514 331 414 429 286 429 C159 429 51 331 46 211 L46 211 Z M93 215 C93 315 181 396 277 396 C373 396 461 315 461 215 C461 115 373 34 277 34 C170 34 93 115 93 215 L93 215 Z " />
<glyph glyph-name="one.onum" unicode="" horiz-adv-x="407" d="M206 0 L249 0 L249 438 L43 356 L54 327 L206 374 L206 0 Z " />
<glyph glyph-name="two.onum" unicode="" horiz-adv-x="437" d="M43 332 L72 314 C135 383 183 390 230 390 C299 390 347 360 347 292 C347 151 33 41 33 41 L47 0 L410 0 L417 40 C417 40 196 40 99 40 C233 79 394 178 394 289 C394 347 356 427 233 427 C110 427 43 332 43 332 L43 332 Z " />
<glyph glyph-name="three.onum" unicode="" horiz-adv-x="431" d="M369 20 C360 -73 268 -117 148 -114 C81 -112 42 -101 42 -101 L33 -134 C33 -134 95 -151 170 -150 C294 -148 402 -104 415 20 C423 97 372 166 261 168 C339 178 395 223 396 292 C398 401 299 423 246 426 C158 431 87 405 42 386 L55 350 C55 350 155 396 225 392 C321 387 354 345 352 289 C348 208 249 184 192 181 C147 178 129 179 129 179 L128 143 C128 143 170 143 190 142 C303 141 379 110 369 20 L369 20 Z " />
<glyph glyph-name="four.onum" unicode="" horiz-adv-x="475" d="M354 -147 L354 0 L462 0 L468 39 L354 39 L354 425 L318 432 L15 39 L36 0 L311 0 L311 -152 L354 -147 Z M311 361 L311 39 L63 39 L311 361 Z " />
<glyph glyph-name="five.onum" unicode="" horiz-adv-x="434" d="M289 -75 C248 -105 195 -115 137 -112 C73 -110 37 -97 37 -97 L21 -129 C21 -129 85 -149 156 -149 C315 -149 395 -55 402 52 C407 127 374 237 221 237 C157 237 103 210 103 210 L134 386 L400 386 L400 421 L93 421 L64 189 L93 171 C93 171 151 208 234 200 C304 193 363 151 359 59 C357 10 333 -44 289 -75 L289 -75 Z " />
<glyph glyph-name="six.onum" unicode="" horiz-adv-x="470" d="M233 386 C186 382 130 367 94 327 C136 472 247 545 359 601 C352 617 345 628 345 628 C113 532 32 369 32 207 C32 84 114 -6 231 -6 C349 -6 440 76 440 199 C440 323 345 394 233 386 L233 386 Z M77 207 C77 318 174 348 236 348 C327 348 395 292 395 197 C395 91 321 31 234 31 C148 31 77 105 77 207 L77 207 Z " />
<glyph glyph-name="seven.onum" unicode="" horiz-adv-x="410" d="M337 386 C145 118 66 -150 66 -150 L117 -144 C234 213 383 377 383 377 L362 420 L18 420 L18 386 L337 386 Z " />
<glyph glyph-name="eight.onum" unicode="" horiz-adv-x="519" d="M334 315 C356 324 446 373 450 470 C453 555 368 615 268 609 C167 603 84 538 86 453 C88 394 131 358 186 330 C148 314 58 267 55 166 C51 44 147 -6 266 -6 C380 -6 477 51 484 151 C490 237 420 282 334 315 L334 315 Z M132 455 C128 511 170 571 266 576 C344 580 405 539 405 473 C405 384 323 335 300 325 C220 355 137 387 132 455 L132 455 Z M437 149 C436 79 365 31 282 31 C173 31 106 80 102 165 C97 266 187 302 224 312 C339 273 439 242 437 149 L437 149 Z " />
<glyph glyph-name="nine.onum" unicode="" horiz-adv-x="495" d="M206 -127 C204 -126 225 -156 226 -155 C394 -61 446 70 448 210 C448 340 365 431 248 431 C131 431 40 349 40 225 C40 102 135 31 246 39 C291 42 354 66 389 102 C367 -26 208 -128 206 -127 L206 -127 Z M403 218 C403 107 306 77 244 77 C153 77 84 133 84 227 C84 334 159 394 246 394 C332 394 403 320 403 218 L403 218 Z " />
<glyph glyph-name="A.smcp" unicode="" horiz-adv-x="402" d="M131 158 L206 386 C206 386 241 265 275 158 L131 158 Z M376 0 L235 431 L181 427 L28 0 L73 -4 L119 121 L287 121 L327 -4 L376 0 Z " />
<glyph glyph-name="B.smcp" unicode="" horiz-adv-x="381" d="M74 9 C74 9 126 -1 167 -3 C277 -8 338 46 345 121 C351 182 304 226 239 229 C276 236 327 271 325 329 C323 397 281 430 190 430 C127 430 74 419 74 419 L74 9 Z M121 240 L121 390 C121 390 155 396 182 396 C231 396 278 386 280 329 C282 271 230 240 156 240 C126 240 121 240 121 240 L121 240 Z M121 202 C121 202 140 202 176 203 C233 204 299 193 296 122 C293 48 231 30 168 34 C138 36 121 40 121 40 L121 202 Z " />
<glyph glyph-name="C.smcp" unicode="" horiz-adv-x="386" d="M365 397 C337 415 296 434 236 431 C151 427 37 349 37 201 C37 70 127 -4 217 -4 C283 -4 365 46 365 46 L350 75 C350 75 281 39 222 39 C161 39 88 91 88 218 C88 334 158 397 228 396 C301 395 346 364 346 364 L365 397 Z " />
<glyph glyph-name="D.smcp" unicode="" horiz-adv-x="446" d="M75 9 C75 9 147 -4 187 -4 C289 -4 411 84 411 231 C411 388 284 432 206 432 C138 432 75 419 75 419 L75 9 Z M120 389 C120 389 152 398 191 398 C260 398 359 351 359 224 C359 104 294 33 198 33 C169 33 120 45 120 45 L120 389 Z " />
<glyph glyph-name="E.smcp" unicode="" horiz-adv-x="363" d="M75 0 L321 0 L321 37 L121 37 L121 204 L286 204 L286 237 L121 237 L121 388 L316 388 L316 425 L75 425 L75 0 Z " />
<glyph glyph-name="F.smcp" unicode="" horiz-adv-x="374" d="M123 0 L122 202 L309 202 L309 235 L122 235 L122 388 L338 388 L338 425 L77 425 L76 0 L123 0 Z " />
<glyph glyph-name="G.smcp" unicode="" horiz-adv-x="456" d="M381 43 L381 192 L334 192 L334 58 C308 47 277 32 230 36 C169 41 98 88 98 216 C98 330 167 390 235 393 C286 395 328 381 359 358 L380 393 C380 393 326 435 242 428 C157 421 46 354 46 206 C46 67 129 0 231 -4 C300 -7 381 43 381 43 L381 43 Z " />
<glyph glyph-name="H.smcp" unicode="" horiz-adv-x="451" d="M330 426 L330 245 L122 245 L122 428 L76 425 L76 -4 L122 0 L122 213 L330 213 L330 -4 L376 0 L376 428 L330 426 Z " />
<glyph glyph-name="I.smcp" unicode="" horiz-adv-x="194" d="M120 424 L74 424 L74 0 L120 0 L120 424 Z " />
<glyph glyph-name="J.smcp" unicode="" horiz-adv-x="196" d="M75 70 C75 -16 53 -66 21 -115 C25 -119 43 -131 48 -134 C109 -60 121 13 121 67 C121 122 121 428 121 428 L75 424 L75 70 Z " />
<glyph glyph-name="K.smcp" unicode="" horiz-adv-x="413" d="M182 232 L370 398 L338 428 L125 232 L360 -17 L393 12 L182 232 Z M73 -4 L119 0 L119 429 L73 424 L73 -4 Z " />
<glyph glyph-name="L.smcp" unicode="" horiz-adv-x="326" d="M74 0 L307 0 L307 37 L120 37 L120 428 L74 426 L74 0 Z " />
<glyph glyph-name="M.smcp" unicode="" horiz-adv-x="581" d="M137 376 L253 -4 L312 0 L437 375 L464 -3 L510 0 L473 428 L411 424 L284 42 L164 428 L97 422 L72 -3 L118 0 L137 376 Z " />
<glyph glyph-name="N.smcp" unicode="" horiz-adv-x="457" d="M73 -4 L119 0 L114 384 L342 -4 L384 0 L384 428 L337 426 L343 82 L139 429 L73 423 L73 -4 Z " />
<glyph glyph-name="O.smcp" unicode="" horiz-adv-x="462" d="M228 429 C124 424 41 341 35 210 C28 51 139 -10 229 -5 C321 0 424 71 428 226 C432 384 317 433 228 429 L228 429 Z M225 391 C309 391 378 350 378 213 C378 92 313 36 237 36 C170 36 85 60 85 215 C85 353 168 391 225 391 L225 391 Z " />
<glyph glyph-name="P.smcp" unicode="" horiz-adv-x="368" d="M75 -3 L118 0 L118 164 C219 151 327 191 330 300 C333 377 269 428 190 428 C149 428 75 415 75 415 L75 -3 Z M118 202 L118 386 C118 386 149 398 186 396 C239 393 282 369 282 299 C282 208 216 181 118 202 L118 202 Z " />
<glyph glyph-name="Q.smcp" unicode="" horiz-adv-x="472" d="M241 429 C138 429 38 335 38 206 C38 47 138 -5 229 -5 C256 -5 278 -2 307 13 L367 -48 L394 -27 L351 40 C395 77 432 136 432 220 C432 389 330 429 241 429 L241 429 Z M239 395 C320 395 380 329 382 214 C382 92 311 35 237 35 C173 35 88 77 88 216 C88 356 182 395 239 395 L239 395 Z " />
<glyph glyph-name="R.smcp" unicode="" horiz-adv-x="419" d="M394 18 L232 182 C288 203 334 254 336 311 C338 388 275 430 197 428 C131 427 75 416 75 416 L75 -3 L120 0 L120 175 C134 175 157 173 186 175 L357 -14 L394 18 Z M120 389 C120 389 155 396 194 396 C246 396 287 368 285 312 C285 249 246 208 163 209 C133 209 121 212 121 212 L120 389 Z " />
<glyph glyph-name="S.smcp" unicode="" horiz-adv-x="392" d="M313 416 C313 416 256 430 218 430 C139 430 66 393 66 316 C66 196 297 222 297 120 C297 61 255 40 201 40 C140 40 69 68 69 68 L57 34 C57 34 131 -3 193 -3 C280 -3 342 57 342 129 C342 258 113 239 113 320 C113 384 166 394 214 394 C242 394 307 378 307 378 L313 416 Z " />
<glyph glyph-name="T.smcp" unicode="" horiz-adv-x="343" d="M325 389 L325 424 L19 424 L19 389 L152 389 L152 -2 L198 0 L198 389 L325 389 Z " />
<glyph glyph-name="U.smcp" unicode="" horiz-adv-x="443" d="M320 425 C320 425 318 283 318 182 C318 104 316 33 219 33 C119 33 118 125 119 193 L121 428 L75 425 L75 167 C75 109 81 -4 219 -4 C334 -4 368 86 368 207 L368 428 L320 425 Z " />
<glyph glyph-name="V.smcp" unicode="" horiz-adv-x="383" d="M160 -4 L202 0 L366 424 L318 428 L182 57 L65 428 L20 423 L160 -4 Z " />
<glyph glyph-name="W.smcp" unicode="" horiz-adv-x="587" d="M386 -4 L447 0 L568 424 L521 428 L416 45 L336 428 L273 424 L165 48 L70 428 L26 424 L136 -4 L193 0 L304 368 L386 -4 Z " />
<glyph glyph-name="X.smcp" unicode="" horiz-adv-x="407" d="M372 424 L322 428 L205 246 L87 428 L39 423 L180 210 L35 0 L87 -4 L204 177 L320 -4 L368 0 L230 210 L372 424 Z " />
<glyph glyph-name="Y.smcp" unicode="" horiz-adv-x="359" d="M182 226 L73 428 L27 424 L158 188 L158 -4 L204 0 L204 188 L336 424 L289 428 L182 226 Z " />
<glyph glyph-name="Z.smcp" unicode="" horiz-adv-x="362" d="M52 425 L52 387 L284 387 L29 32 L37 0 L333 0 L333 37 L84 37 L337 387 L324 425 L52 425 Z " />
<glyph glyph-name="ff" unicode="ﬀ" horiz-adv-x="566" d="M516 615 C549 613 580 603 580 603 L590 634 C590 634 550 647 506 644 C478 643 454 632 435 615 C412 620 280 649 240 647 C166 642 117 572 117 487 C117 480 117 456 117 421 L27 421 L28 393 L116 385 C116 241 116 -3 116 -3 L159 0 C159 0 159 231 159 384 L382 384 C382 237 381 -6 381 -6 L425 -2 C425 -2 425 229 424 384 L538 384 L538 421 L424 421 C424 467 424 503 424 512 C424 585 456 619 516 615 L516 615 Z M159 421 C159 470 158 505 158 514 C158 587 190 621 250 618 C277 616 372 595 411 587 C393 559 383 523 383 485 C383 478 382 453 382 421 L159 421 Z " />
<glyph glyph-name="fi" unicode="ﬁ" horiz-adv-x="509" d="M158 421 C158 470 158 505 158 514 C158 587 189 621 250 618 C283 616 405 589 405 589 L416 620 C416 620 283 649 239 647 C165 642 116 572 116 487 C116 480 116 456 116 421 L27 421 L27 393 L116 385 C116 241 115 -5 115 -5 L159 0 C159 0 158 231 158 384 L383 384 L383 -6 L426 0 L426 421 L158 421 Z " />
<glyph glyph-name="fl" unicode="ﬂ" horiz-adv-x="526" d="M426 0 L426 617 L416 620 C416 620 283 649 239 647 C165 642 116 572 116 487 C116 480 116 456 116 421 L27 421 L27 393 L116 385 C116 241 115 -5 115 -5 L159 0 C159 0 158 231 158 384 L272 384 L272 421 L158 421 C158 470 158 505 158 514 C158 587 189 621 250 618 C274 616 346 601 383 594 C383 509 383 -5 383 -5 L426 0 Z " />
<glyph glyph-name="ffi" unicode="ﬃ" horiz-adv-x="778" d="M425 420 C425 469 425 504 425 513 C425 586 456 620 517 616 C550 614 672 588 672 588 L683 619 C683 619 550 648 506 646 C478 644 453 632 433 614 C407 620 279 648 240 646 C165 641 116 571 116 486 C116 479 116 454 116 420 L27 420 L28 391 L116 384 C116 240 115 -5 115 -5 L159 -1 C159 -1 159 230 158 383 L383 383 C383 238 382 -5 382 -5 L426 -1 C426 -1 425 230 425 383 L650 383 L650 -7 L693 -1 L693 420 L425 420 Z M158 420 C158 469 158 504 158 513 C158 586 190 620 250 616 C276 615 371 594 410 586 C393 558 383 523 383 486 C383 479 383 455 383 420 L158 420 Z " />
<glyph glyph-name="ffl" unicode="ﬄ" horiz-adv-x="794" d="M695 -1 L695 616 L684 619 C684 619 551 648 508 646 C479 644 454 632 434 614 C409 619 280 648 240 646 C166 641 117 571 117 486 C117 479 117 454 117 420 L28 420 L28 391 L117 384 C116 240 116 -5 116 -5 L159 -1 C159 -1 159 230 159 383 L384 383 C384 238 383 -5 383 -5 L427 -1 C427 -1 426 230 426 383 L540 383 L540 420 L426 420 C426 469 426 504 426 513 C426 586 457 620 518 616 C542 615 614 600 651 593 C651 508 651 -5 651 -5 L695 -1 Z M159 420 C159 469 159 504 159 513 C159 586 190 620 251 616 C277 615 372 594 411 586 C394 558 384 523 384 486 C384 479 384 455 384 420 L159 420 Z " />
</font>
</svg>
