<?xml version="1.0" encoding="UTF-8"?>
<!-- Generator: Adobe Illustrator 16.0.0, SVG Export Plug-In . SVG Version: 6.00 Build 0)  --><svg xmlns="http://www.w3.org/2000/svg" xmlns:xlink="http://www.w3.org/1999/xlink" version="1.1" id="Layer_1" x="0px" y="0px" width="18.281px" height="18.281px" viewBox="0 0 18.281 18.281" enable-background="new 0 0 18.281 18.281" xml:space="preserve">
<g>
	<polygon fill="#00A7CE" points="10.129,4.128 8.129,4.128 8.129,8.128 4.129,8.128 4.129,10.128 8.129,10.128 8.129,14.128    10.129,14.128 10.129,10.128 14.129,10.128 14.129,8.128 10.129,8.128  " />
	<path fill="#00A7CE" d="M9.129,0.128c-4.971,0-9,4.029-9,9s4.029,9,9,9c4.971,0,9-4.029,9-9S14.1,0.128,9.129,0.128z M9.129,17.128   c-4.411,0-8-3.589-8-8s3.589-8,8-8s8,3.589,8,8S13.54,17.128,9.129,17.128z" />
</g>
</svg>
