<?xml version="1.0" encoding="UTF-8"?>
<!-- Generator: Adobe Illustrator 17.1.0, SVG Export Plug-In . SVG Version: 6.00 Build 0)  --><svg xmlns="http://www.w3.org/2000/svg" xmlns:xlink="http://www.w3.org/1999/xlink" version="1.1" id="Layer_1" x="0px" y="0px" viewBox="0 0 20 20" enable-background="new 0 0 20 20" xml:space="preserve">
<polygon fill="#00A7CE" points="15,9 11,9 11,5 9,5 9,9 5,9 5,11 9,11 9,15 11,15 11,11 15,11 " />
<path fill="#00A7CE" d="M10,2c4.4,0,8,3.6,8,8s-3.6,8-8,8s-8-3.6-8-8S5.6,2,10,2 M10,1c-5,0-9,4-9,9s4,9,9,9s9-4,9-9S15,1,10,1L10,1  z" />
</svg>
