<?xml version="1.0" encoding="UTF-8"?>
<svg xmlns="http://www.w3.org/2000/svg" xmlns:xlink="http://www.w3.org/1999/xlink" version="1.2">
<font id="STIXMathJax_Main-Regular">
<font-face font-family="STIX MathJax Main" units-per-em="1000" ascent="750" descent="-250" font-style="normal" font-weight="400" font-stretch="normal" cap-height="662" x-height="450" underline-position="-75" underline-thickness="50" />
<missing-glyph horiz-adv-x="1000" d="" />
<glyph glyph-name="NULL" d="" />
<glyph glyph-name="CR" unicode="&#xD;" horiz-adv-x="250" d="" />
<glyph glyph-name="space" unicode=" " horiz-adv-x="250" d="" />
<glyph glyph-name="exclam" unicode="!" horiz-adv-x="333" d="M175 176 L189 176 L234 557 C235 568 236 583 236 595 C236 644 217 676 183 676 C145 676 130 643 130 600 C130 589 131 577 133 557 L175 176 Z M236 42 C236 72 212 97 183 97 C153 97 130 73 130 43 C130 13 152 -9 182 -9 C213 -9 236 13 236 42 L236 42 Z " />
<glyph glyph-name="quotedbl" unicode="&quot;" horiz-adv-x="408" d="M299 431 C314 529 331 605 331 635 C331 658 313 676 289 676 C264 676 246 658 246 633 C246 616 260 529 278 431 L299 431 Z M130 431 C150 527 162 605 162 635 C162 659 144 676 120 676 C95 676 77 659 77 633 C77 616 91 529 109 431 L130 431 Z " />
<glyph glyph-name="numbersign" unicode="#" horiz-adv-x="500" d="M495 405 L495 460 L399 460 L429 662 L371 662 L341 460 L208 460 L239 662 L181 662 L150 460 L33 460 L33 405 L142 405 L121 271 L6 271 L6 216 L112 216 L79 0 L137 0 L170 216 L304 216 L273 0 L331 0 L362 216 L470 216 L470 271 L371 271 L391 405 L495 405 Z M333 405 L313 271 L179 271 L200 405 L333 405 Z " />
<glyph glyph-name="dollar" unicode="$" horiz-adv-x="500" d="M264 637 C344 627 390 583 410 500 L425 500 L425 611 C394 642 345 659 264 664 L264 727 L230 727 L230 664 C137 658 52 613 52 513 C52 429 92 388 230 310 L230 28 C142 28 80 81 59 181 L44 181 L44 51 C99 14 143 0 230 0 L230 -87 L264 -87 L264 0 C379 16 458 54 458 170 C458 207 451 239 437 260 C410 301 385 326 264 391 L264 637 Z M230 407 C146 464 126 488 126 532 C126 583 159 623 230 637 L230 407 Z M264 293 C355 239 378 208 378 147 C378 76 345 45 264 28 L264 293 Z " />
<glyph glyph-name="percent" unicode="%" horiz-adv-x="747" d="M686 213 C686 287 651 330 590 330 C494 330 401 226 401 119 C401 41 454 -19 522 -19 C608 -19 686 92 686 213 L686 213 Z M663 215 C663 109 598 8 529 8 C497 8 473 37 473 76 C473 144 507 232 551 279 C563 293 584 302 600 302 C638 302 663 267 663 215 L663 215 Z M621 706 L577 706 C485 617 472 609 410 609 C373 609 349 619 314 648 C287 670 275 676 254 676 C152 676 61 576 61 463 C61 385 112 326 179 326 C212 326 238 337 265 363 C313 408 345 483 345 553 C345 569 344 580 341 597 C373 586 391 583 417 583 C470 583 501 597 538 640 L144 -18 L191 -18 L621 706 Z M321 569 C321 454 260 353 189 353 C155 353 132 381 132 423 C132 478 149 537 180 586 C200 619 211 629 252 649 C269 631 282 622 296 615 C317 605 321 598 321 569 L321 569 Z " />
<glyph glyph-name="ampersand" unicode="&amp;" horiz-adv-x="778" d="M735 111 C703 71 682 58 643 58 C582 58 538 89 491 150 C546 224 571 273 617 346 C642 386 661 405 711 405 L711 426 L495 426 L495 405 C545 400 560 388 560 358 C560 312 533 264 468 178 C412 241 377 296 336 384 C453 434 491 480 491 552 C491 631 433 676 354 676 C269 676 202 616 202 526 C202 481 209 445 237 377 L199 355 C97 296 42 218 42 137 C42 37 106 -13 213 -13 C294 -13 354 12 429 78 C492 13 541 -13 599 -13 C666 -13 721 27 750 100 L735 111 Z M438 556 C438 497 407 455 321 416 C288 477 281 510 281 561 C281 611 313 644 360 644 C406 644 438 605 438 556 L438 556 Z M404 104 C344 57 301 40 258 40 C187 40 134 89 134 174 C134 243 165 287 252 343 C306 230 346 172 404 104 L404 104 Z " />
<glyph glyph-name="quotesingle" unicode="'" horiz-adv-x="180" d="M101 431 C121 531 133 606 133 636 C133 659 118 676 91 676 C67 676 48 659 48 634 C48 606 62 529 80 431 L101 431 Z " />
<glyph glyph-name="parenleft" unicode="(" horiz-adv-x="333" d="M304 -161 C164 -44 134 69 134 255 C134 448 165 541 304 660 L295 676 C135 581 48 437 48 252 C48 82 134 -87 292 -177 L304 -161 Z " />
<glyph glyph-name="parenright" unicode=")" horiz-adv-x="333" d="M29 660 C174 546 199 431 199 244 C199 50 171 -44 29 -161 L38 -177 C197 -80 285 62 285 247 C285 417 194 584 41 676 L29 660 Z " />
<glyph glyph-name="asterisk" unicode="*" horiz-adv-x="500" d="M268 471 C317 499 336 505 380 512 C419 518 432 529 432 555 C432 578 417 593 395 593 C373 593 342 552 318 528 C299 510 288 502 260 486 L260 510 C260 534 265 561 277 593 C284 613 288 628 288 640 C288 660 271 676 251 676 C231 676 215 661 215 642 C215 629 219 611 226 590 C236 557 241 526 241 499 L241 486 C203 507 184 523 152 559 C130 583 119 591 103 591 C83 591 70 575 70 554 C70 529 88 518 137 508 C171 501 196 494 234 471 C193 446 177 440 131 431 C86 423 68 412 68 386 C68 365 82 350 105 350 C121 350 131 356 148 375 C177 408 179 410 189 420 C199 429 206 434 241 456 L241 447 C241 404 237 380 225 348 C218 329 213 313 213 301 C213 282 230 265 249 265 C269 265 289 284 289 304 C289 311 285 323 280 337 C267 372 260 408 260 447 L260 456 L268 451 C288 438 310 426 337 393 C362 362 378 349 397 349 C418 349 433 366 433 388 C433 414 417 424 373 431 C336 437 304 447 277 465 L268 471 Z " />
<glyph glyph-name="plus" unicode="+" horiz-adv-x="685" d="M636 220 L636 286 L375 286 L375 547 L309 547 L309 286 L48 286 L48 220 L309 220 L309 -41 L375 -41 L375 220 L636 220 Z " />
<glyph glyph-name="comma" unicode="," horiz-adv-x="250" d="M83 -141 C152 -108 195 -45 195 15 C195 67 160 102 115 102 C79 102 55 79 55 45 C55 11 76 -6 113 -6 C124 -6 134 -2 142 -2 C150 -2 156 -8 156 -15 C156 -48 128 -85 73 -122 L83 -141 Z " />
<glyph glyph-name="hyphen" unicode="-" horiz-adv-x="333" d="M285 194 L285 257 L39 257 L39 194 L285 194 Z " />
<glyph glyph-name="period" unicode="." horiz-adv-x="250" d="M181 43 C181 73 155 100 126 100 C95 100 70 75 70 44 C70 13 94 -11 125 -11 C155 -11 181 14 181 43 L181 43 Z " />
<glyph glyph-name="slash" unicode="/" horiz-adv-x="278" d="M287 676 L220 676 L-9 -14 L59 -14 L287 676 Z " />
<glyph glyph-name="zero" unicode="0" horiz-adv-x="500" d="M476 330 C476 535 385 676 254 676 C93 676 24 513 24 336 C24 172 79 -14 250 -14 C413 -14 476 158 476 330 L476 330 Z M380 325 C380 127 335 12 250 12 C164 12 120 126 120 329 C120 532 165 650 248 650 C336 650 380 533 380 325 L380 325 Z " />
<glyph glyph-name="one" unicode="1" horiz-adv-x="500" d="M394 0 L394 15 C319 15 299 33 299 76 L299 673 L290 676 L111 585 L111 571 L138 581 C156 588 173 593 183 593 C204 593 213 578 213 544 L213 95 C213 40 192 19 118 15 L118 0 L394 0 Z " />
<glyph glyph-name="two" unicode="2" horiz-adv-x="500" d="M474 137 L460 143 C427 87 406 76 364 76 L130 76 L295 252 C384 346 423 421 423 500 C423 599 351 676 238 676 C115 676 51 594 30 477 L51 472 C91 570 126 602 198 602 C283 602 337 552 337 461 C337 376 301 300 207 201 L29 12 L29 0 L420 0 L474 137 Z " />
<glyph glyph-name="three" unicode="3" horiz-adv-x="500" d="M61 510 C102 584 148 616 210 616 C276 616 318 582 318 514 C318 453 286 408 237 380 C217 368 191 357 153 344 L153 330 C210 330 233 327 255 320 C324 300 359 251 359 175 C359 90 303 22 229 22 C201 22 180 27 143 53 C115 73 99 79 82 79 C59 79 41 64 41 43 C41 7 80 -14 153 -14 C242 -14 337 15 385 79 C414 117 431 166 431 219 C431 271 415 317 387 348 C366 370 348 382 304 401 C371 441 397 491 397 539 C397 621 334 676 241 676 C137 676 74 609 45 514 L61 510 Z " />
<glyph glyph-name="four" unicode="4" horiz-adv-x="500" d="M473 167 L473 231 L370 231 L370 676 L326 676 L12 231 L12 167 L292 167 L292 0 L370 0 L370 167 L473 167 Z M292 231 L52 231 L292 574 L292 231 Z " />
<glyph glyph-name="five" unicode="5" horiz-adv-x="500" d="M438 681 L429 688 C413 667 404 662 381 662 L174 662 L65 425 C65 425 64 422 64 420 C64 414 67 412 76 412 C172 412 242 380 289 342 C334 306 356 256 356 192 C356 106 291 23 221 23 C201 23 178 32 150 55 C118 81 99 86 76 86 C48 86 31 73 31 48 C31 10 83 -14 158 -14 C226 -14 281 1 328 35 C396 85 426 147 426 243 C426 296 417 334 391 370 C334 449 284 471 141 498 L181 583 L375 583 C391 583 399 589 402 596 L438 681 Z " />
<glyph glyph-name="six" unicode="6" horiz-adv-x="500" d="M446 684 C308 669 229 645 143 555 C72 482 34 387 34 279 C34 209 53 138 81 87 C116 23 179 -14 258 -14 C324 -14 380 13 417 59 C450 99 468 155 468 219 C468 348 396 428 279 428 C235 428 201 421 152 383 C179 534 291 642 448 668 L446 684 Z M378 188 C378 86 341 14 269 14 C175 14 127 114 127 266 C127 358 186 382 243 382 C336 382 378 316 378 188 L378 188 Z " />
<glyph glyph-name="seven" unicode="7" horiz-adv-x="500" d="M449 646 L449 662 L80 662 L20 515 L38 506 C80 574 97 588 155 588 L370 588 L172 -8 L237 -8 L449 646 Z " />
<glyph glyph-name="eight" unicode="8" horiz-adv-x="500" d="M445 155 C445 235 413 289 290 371 C389 424 424 458 424 533 C424 611 355 676 256 676 C145 676 62 616 62 520 C62 455 83 417 186 332 C79 257 56 218 56 149 C56 55 135 -14 248 -14 C368 -14 445 52 445 155 L445 155 Z M355 533 C355 471 329 429 261 389 C173 441 136 487 136 549 C136 611 179 648 246 648 C314 648 355 602 355 533 L355 533 Z M271 272 C339 226 369 186 369 124 C369 59 324 14 259 14 C183 14 132 66 132 158 C132 223 153 264 212 312 L271 272 Z " />
<glyph glyph-name="nine" unicode="9" horiz-adv-x="500" d="M59 -22 C189 -4 254 20 339 97 C419 170 459 279 459 394 C459 478 435 550 395 600 C356 648 302 676 238 676 C119 676 30 575 30 440 C30 318 102 237 210 237 C269 237 317 252 360 294 C320 130 208 25 56 -2 L59 -22 Z M362 355 C362 302 289 280 245 280 C170 280 122 355 122 474 C122 528 137 587 157 614 C174 636 200 648 230 648 C317 648 362 562 362 394 L362 355 Z " />
<glyph glyph-name="colon" unicode=":" horiz-adv-x="278" d="M192 403 C192 433 167 459 137 459 C105 459 81 435 81 403 C81 373 107 348 137 348 C167 348 192 373 192 403 L192 403 Z M192 44 C192 74 167 100 137 100 C105 100 81 76 81 44 C81 14 107 -11 137 -11 C167 -11 192 14 192 44 L192 44 Z " />
<glyph glyph-name="semicolon" unicode=";" horiz-adv-x="278" d="M191 403 C191 433 166 459 136 459 C104 459 80 435 80 403 C80 373 106 348 136 348 C166 348 191 373 191 403 L191 403 Z M107 -141 C177 -108 219 -50 219 13 C219 67 184 102 139 102 C106 102 80 79 80 46 C80 13 101 -6 138 -6 C147 -6 160 -2 166 -2 C174 -2 180 -9 180 -16 C180 -49 152 -86 97 -122 L107 -141 Z " />
<glyph glyph-name="less" unicode="&lt;" horiz-adv-x="685" d="M621 -24 L621 39 L189 254 L621 469 L621 534 L56 259 L56 249 L621 -24 Z " />
<glyph glyph-name="equal" unicode="=" horiz-adv-x="685" d="M637 320 L637 386 L48 386 L48 320 L637 320 Z M637 120 L637 186 L48 186 L48 120 L637 120 Z " />
<glyph glyph-name="greater" unicode="&gt;" horiz-adv-x="685" d="M621 249 L621 259 L56 534 L56 469 L488 254 L56 39 L56 -24 L621 249 Z " />
<glyph glyph-name="question" unicode="?" horiz-adv-x="444" d="M244 164 C255 232 273 278 309 321 C395 423 414 457 414 518 C414 615 329 676 232 676 C136 676 68 616 68 533 C68 492 88 467 116 467 C141 467 157 485 157 510 C157 543 119 547 119 584 C119 616 165 646 213 646 C274 646 322 597 322 528 C322 468 297 405 271 341 C236 254 228 204 227 164 L244 164 Z M290 45 C290 73 266 98 238 98 C207 98 184 75 184 45 C184 17 204 -8 238 -8 C268 -8 290 16 290 45 L290 45 Z " />
<glyph glyph-name="at" unicode="@" horiz-adv-x="921" d="M688 73 C616 38 554 25 487 25 C316 25 200 148 200 322 C200 396 223 474 262 530 C313 603 387 645 482 645 C639 645 769 522 769 373 C769 272 709 176 643 176 C614 176 601 190 601 223 C601 230 602 235 603 240 L668 494 L599 494 L590 456 L588 456 C575 491 551 508 515 508 C463 508 422 484 387 438 C348 387 321 321 321 256 C321 187 360 144 409 144 C456 144 503 171 534 216 L536 216 C541 172 581 143 625 143 C724 143 809 254 809 383 C809 548 666 676 481 676 C395 676 319 653 257 607 C173 544 116 441 116 327 C116 130 274 -14 482 -14 C552 -14 607 -1 700 43 L688 73 Z M572 404 C572 359 554 294 528 245 C508 209 479 187 452 187 C415 187 392 220 392 274 C392 318 406 361 428 394 C459 440 497 464 526 464 C555 464 572 443 572 404 L572 404 Z " />
<glyph glyph-name="A" unicode="A" horiz-adv-x="722" d="M707 0 L707 19 C655 25 641 46 613 111 L367 674 L347 674 L141 186 C82 46 73 25 15 19 L15 0 L214 0 L214 19 C166 19 144 29 144 60 C144 72 148 89 153 102 L199 216 L461 216 L502 122 C514 94 521 67 521 52 C521 43 515 32 507 28 C495 21 488 19 452 19 L452 0 L707 0 Z M447 257 L216 257 L331 532 L447 257 Z " />
<glyph glyph-name="B" unicode="B" horiz-adv-x="667" d="M422 349 C474 362 494 370 518 391 C543 413 559 454 559 495 C559 601 470 662 297 662 L17 662 L17 643 C98 638 113 629 113 550 L113 113 C113 37 96 21 17 19 L17 0 L354 0 C499 0 593 67 593 178 C593 222 576 264 544 293 C515 319 488 337 422 348 L422 349 Z M215 366 L215 593 C215 616 222 625 239 625 L280 625 C399 625 457 574 457 490 C457 407 408 366 307 366 L215 366 Z M215 326 C333 322 371 326 431 286 C464 264 478 227 478 179 C478 136 465 102 440 80 C396 41 361 37 277 37 C231 37 215 48 215 82 L215 326 Z " />
<glyph glyph-name="C" unicode="C" horiz-adv-x="667" d="M614 131 C539 60 484 30 394 30 C325 30 260 55 216 102 C169 153 144 231 144 341 C144 514 233 636 384 636 C449 636 501 607 545 560 C570 533 585 504 597 449 L620 449 L611 676 L591 676 C585 655 568 643 549 643 C532 643 501 655 480 661 C440 672 400 676 361 676 C268 676 182 643 118 572 C61 508 28 425 28 325 C28 226 63 135 124 75 C182 18 269 -14 360 -14 C478 -14 575 30 633 113 L614 131 Z " />
<glyph glyph-name="D" unicode="D" horiz-adv-x="722" d="M16 662 L16 643 C92 638 104 629 104 550 L104 115 C104 37 94 24 16 19 L16 0 L297 0 C398 0 487 24 549 64 C638 121 685 215 685 334 C685 437 651 515 586 571 C518 630 415 662 286 662 L16 662 Z M206 583 C206 616 221 625 259 625 C359 625 422 608 481 556 C544 501 576 432 576 328 C576 215 542 136 472 89 C412 49 357 37 254 37 C215 37 206 49 206 84 L206 583 Z " />
<glyph glyph-name="E" unicode="E" horiz-adv-x="611" d="M597 169 L569 169 C524 63 481 37 338 37 L302 37 C228 37 201 42 201 84 L201 327 L352 327 C438 327 453 314 465 230 L488 230 L488 464 L465 464 C453 385 438 368 352 368 L201 368 L201 588 C201 620 208 624 236 624 L367 624 C483 624 506 609 521 519 L546 519 L542 662 L12 662 L12 643 C87 639 99 624 99 550 L99 114 C99 37 89 24 12 19 L12 0 L551 0 L597 169 Z " />
<glyph glyph-name="F" unicode="F" horiz-adv-x="556" d="M546 519 L541 662 L12 662 L12 643 C89 637 99 624 99 551 L99 123 C99 36 87 24 11 19 L11 0 L292 0 L292 19 C215 23 201 36 201 112 L201 327 L343 327 C429 327 448 312 456 230 L479 230 L479 463 L456 463 C447 385 427 368 343 368 L201 368 L201 585 C201 616 206 624 235 624 L367 624 C488 624 506 608 521 519 L546 519 Z " />
<glyph glyph-name="G" unicode="G" horiz-adv-x="722" d="M709 354 L453 354 L453 336 C532 330 542 322 542 244 L542 87 C542 54 486 26 409 26 C252 26 146 138 146 324 C146 423 170 514 223 567 C266 611 321 636 390 636 C446 636 498 617 536 581 C566 552 582 526 607 465 L630 465 L622 676 L600 676 C594 657 576 643 555 643 C545 643 530 646 511 653 C466 668 432 676 378 676 C281 676 199 645 139 590 C72 529 32 437 32 327 C32 229 59 152 115 93 C181 24 283 -14 385 -14 C488 -14 584 11 639 56 L639 256 C639 321 651 331 709 336 L709 354 Z " />
<glyph glyph-name="H" unicode="H" horiz-adv-x="722" d="M703 0 L703 19 C628 25 614 40 614 111 L614 548 C614 625 629 637 703 643 L703 662 L423 662 L423 643 C499 637 512 627 512 548 L512 359 L209 359 L209 548 C209 626 225 637 298 643 L298 662 L18 662 L18 643 C95 637 107 626 107 548 L107 122 C107 36 96 24 18 19 L18 0 L297 0 L296 19 C222 23 209 40 209 113 L209 315 L512 315 L512 124 C512 40 502 24 424 19 L424 0 L703 0 Z " />
<glyph glyph-name="I" unicode="I" horiz-adv-x="333" d="M315 0 L315 19 C233 22 217 37 217 112 L217 551 C217 627 231 639 315 643 L315 662 L18 662 L18 643 C103 638 115 630 115 551 L115 112 C115 34 102 22 18 19 L18 0 L315 0 Z " />
<glyph glyph-name="J" unicode="J" horiz-adv-x="373" d="M354 662 L67 662 L67 643 C148 636 160 631 160 550 L160 94 C160 44 154 24 123 24 C103 24 102 43 92 68 C81 96 66 110 43 110 C16 110 -6 84 -6 58 C-6 11 35 -14 95 -14 C201 -14 262 48 262 185 L262 549 C262 626 273 637 354 643 L354 662 Z " />
<glyph glyph-name="K" unicode="K" horiz-adv-x="722" d="M723 0 L723 19 C677 19 650 37 567 128 L333 384 L519 562 C588 628 607 638 675 643 L675 662 L416 662 L416 643 L441 642 C474 641 482 631 482 611 C482 586 452 557 404 512 L226 348 L226 548 C226 625 233 637 316 643 L316 662 L34 662 L34 643 C113 638 124 623 124 549 L124 125 C124 38 112 23 33 19 L33 0 L315 0 L315 19 C242 25 226 34 226 111 L226 296 L252 317 L352 214 C431 132 489 71 489 44 C489 30 476 21 447 20 L420 19 L420 0 L723 0 Z " />
<glyph glyph-name="L" unicode="L" horiz-adv-x="611" d="M598 174 L572 174 C556 139 543 117 530 100 C496 57 442 39 361 39 L291 39 C218 39 201 46 201 84 L201 548 C201 625 213 638 295 643 L295 662 L12 662 L12 643 C90 637 99 623 99 546 L99 115 C99 39 86 23 12 19 L12 0 L550 0 L598 174 Z " />
<glyph glyph-name="M" unicode="M" horiz-adv-x="889" d="M864 0 L864 19 C791 24 776 41 776 112 L776 550 C776 625 791 642 863 643 L863 662 L664 662 L443 160 L212 662 L14 662 L14 643 C96 638 109 625 109 549 L109 151 C109 39 95 25 12 19 L12 0 L246 0 L246 19 C169 23 153 41 153 151 L153 549 L405 0 L419 0 L674 572 L674 123 C674 40 663 24 584 19 L584 0 L864 0 Z " />
<glyph glyph-name="N" unicode="N" horiz-adv-x="722" d="M707 662 L470 662 L470 643 C514 638 532 636 549 617 C564 600 568 570 568 519 L568 179 L182 662 L12 662 L12 643 C61 643 76 631 109 590 L109 150 C109 43 94 28 12 19 L12 0 L246 0 L246 19 C169 30 153 47 153 150 L153 538 L594 -11 L612 -11 L612 507 C612 586 622 608 641 625 C654 636 669 639 707 643 L707 662 Z " />
<glyph glyph-name="O" unicode="O" horiz-adv-x="722" d="M688 331 C688 529 557 676 361 676 C166 676 34 537 34 334 C34 126 167 -14 361 -14 C553 -14 688 125 688 331 L688 331 Z M574 337 C574 217 546 123 491 70 C456 37 412 22 362 22 C316 22 272 36 238 67 C177 123 148 213 148 332 C148 427 174 524 217 573 C256 618 306 640 360 640 C407 640 447 623 483 593 C540 545 574 451 574 337 L574 337 Z " />
<glyph glyph-name="P" unicode="P" horiz-adv-x="557" d="M16 662 L16 643 C90 637 100 625 100 551 L100 122 C100 36 94 25 16 19 L16 0 L296 0 L296 19 C215 23 202 36 202 112 L202 291 C229 289 245 288 271 288 C378 288 427 297 485 349 C522 382 542 427 542 480 C542 530 525 571 492 599 C447 637 375 662 275 662 L16 662 Z M202 589 C202 616 208 625 237 625 C373 625 433 585 433 475 C433 385 373 328 263 328 C243 328 225 329 202 331 L202 589 Z " />
<glyph glyph-name="Q" unicode="Q" horiz-adv-x="722" d="M701 -177 L701 -159 C587 -152 499 -111 426 -7 C494 6 536 21 580 64 C653 134 688 214 688 333 C688 540 552 676 361 676 C174 676 34 544 34 332 C34 242 62 164 110 100 C148 49 187 26 265 -1 L306 -53 C374 -139 497 -177 653 -177 L701 -177 Z M574 338 C574 238 550 140 510 94 C473 51 423 22 361 22 C304 22 239 52 206 100 C168 153 148 239 148 335 C148 430 174 522 214 569 C251 614 304 640 358 640 C405 640 447 625 483 595 C540 547 574 453 574 338 L574 338 Z " />
<glyph glyph-name="R" unicode="R" horiz-adv-x="667" d="M660 0 L660 19 C616 23 595 29 566 66 L366 319 C491 338 547 396 547 483 C547 527 531 576 498 603 C455 638 384 662 289 662 L17 662 L17 643 C94 637 102 625 102 551 L102 124 C102 36 92 25 17 19 L17 0 L293 0 L293 19 C216 24 204 36 204 112 L204 306 L260 308 L498 0 L660 0 Z M204 583 C204 618 221 625 255 625 C379 625 438 581 438 491 C438 441 417 397 381 377 C335 352 300 345 204 343 L204 583 Z " />
<glyph glyph-name="S" unicode="S" horiz-adv-x="556" d="M469 463 L447 676 L426 676 C422 654 411 642 394 642 C384 642 368 646 350 654 C312 670 286 676 245 676 C146 676 71 610 71 501 C71 439 103 377 193 329 C257 295 326 251 361 213 C380 192 390 169 390 134 C390 68 341 22 271 22 C176 22 111 78 65 199 L43 199 L72 -13 L94 -13 C94 8 107 20 122 20 C133 20 150 17 169 9 C206 -7 245 -14 287 -14 C403 -14 491 61 491 173 C491 249 442 307 336 369 C231 430 157 472 157 540 C157 595 196 635 258 635 C318 635 368 602 403 557 C421 533 432 507 444 463 L469 463 Z " />
<glyph glyph-name="T" unicode="T" horiz-adv-x="611" d="M593 492 L586 662 L24 662 L17 492 L41 492 C61 602 88 620 194 620 L254 620 L254 123 C254 35 243 24 160 19 L160 0 L452 0 L452 19 C370 23 356 35 356 111 L356 620 L415 620 C521 620 547 602 569 492 L593 492 Z " />
<glyph glyph-name="U" unicode="U" horiz-adv-x="722" d="M705 662 L473 662 L473 643 C554 638 567 616 567 513 L567 250 C567 169 563 129 530 89 C498 52 442 30 378 30 C321 30 279 47 250 75 C210 114 206 159 206 237 L206 549 C206 624 217 636 297 643 L297 662 L14 662 L14 643 C93 637 104 626 104 559 L104 249 C104 143 130 73 185 32 C226 1 282 -14 355 -14 C447 -14 515 11 557 59 C602 110 611 164 611 261 L611 516 C611 611 621 635 705 643 L705 662 Z " />
<glyph glyph-name="V" unicode="V" horiz-adv-x="722" d="M697 662 L493 662 L493 643 C533 639 565 641 565 602 C565 585 558 560 546 530 L399 161 L247 503 C217 570 208 594 208 610 C208 630 221 639 253 641 L281 643 L281 662 L16 662 L16 643 C66 642 81 630 124 533 L368 -11 L383 -11 L605 552 C634 626 657 642 697 643 L697 662 Z " />
<glyph glyph-name="W" unicode="W" horiz-adv-x="944" d="M932 662 L735 662 L735 643 C786 642 805 629 805 602 C805 581 799 556 788 525 L662 186 L519 550 C510 574 502 597 502 608 C502 629 529 642 579 643 L579 662 L314 662 L314 643 C371 642 383 635 416 547 L444 472 L340 189 L196 565 C189 584 185 600 185 612 C185 633 198 642 249 643 L249 662 L5 662 L5 643 C56 642 76 618 109 523 C168 355 240 169 301 -11 L316 -11 L470 412 C522 279 579 131 630 -11 L645 -11 C730 250 740 279 849 573 C868 625 879 633 932 643 L932 662 Z " />
<glyph glyph-name="X" unicode="X" horiz-adv-x="722" d="M704 0 L704 19 C651 25 632 37 593 93 L401 367 L544 544 C607 622 632 639 696 643 L696 662 L459 662 L459 643 C513 641 527 634 527 611 C527 596 517 581 487 544 L375 404 L331 468 C278 546 248 584 248 613 C248 636 266 641 294 642 L323 643 L323 662 L22 662 L22 643 C88 636 109 624 205 483 L311 328 L155 133 C78 36 62 24 10 19 L10 0 L242 0 L242 19 C184 23 166 32 166 51 C166 66 182 94 219 140 L338 289 L433 148 C467 97 484 66 484 50 C484 32 466 23 434 21 L408 19 L408 0 L704 0 Z " />
<glyph glyph-name="Y" unicode="Y" horiz-adv-x="722" d="M703 662 L485 662 L485 643 C537 642 552 634 553 612 C553 601 549 585 539 570 L394 348 L248 569 C237 585 230 603 230 616 C230 632 245 641 277 642 L301 643 L301 662 L22 662 L22 643 C70 641 92 621 184 486 L315 294 L315 123 C315 34 303 25 214 19 L214 0 L520 0 L520 19 C436 23 417 33 417 111 L417 303 L565 531 C621 617 644 638 703 643 L703 662 Z " />
<glyph glyph-name="Z" unicode="Z" horiz-adv-x="612" d="M598 176 L575 176 C557 117 548 89 515 66 C490 48 454 38 398 38 L146 38 L578 647 L578 662 L53 662 L32 491 L58 491 C68 546 74 563 99 589 C123 613 162 624 233 624 L447 624 L10 15 L10 0 L573 0 L598 176 Z " />
<glyph glyph-name="bracketleft" unicode="[" horiz-adv-x="333" d="M299 -156 L299 -131 L216 -131 C183 -131 164 -117 164 -77 L164 589 C164 625 182 637 216 637 L299 637 L299 662 L88 662 L88 -156 L299 -156 Z " />
<glyph glyph-name="backslash" unicode="\" horiz-adv-x="278" d="M287 -14 L58 676 L-9 676 L219 -14 L287 -14 Z " />
<glyph glyph-name="bracketright" unicode="]" horiz-adv-x="333" d="M245 -156 L245 662 L34 662 L34 637 L118 637 C156 637 169 618 169 583 L169 -85 C169 -116 157 -131 122 -131 L34 -131 L34 -156 L245 -156 Z " />
<glyph glyph-name="asciicircum" unicode="^" horiz-adv-x="469" d="M446 297 L265 662 L205 662 L24 297 L92 297 L235 586 L378 297 L446 297 Z " />
<glyph glyph-name="underscore" unicode="_" horiz-adv-x="500" d="M500 -125 L500 -75 L0 -75 L0 -125 L500 -125 Z " />
<glyph glyph-name="grave" unicode="`" horiz-adv-x="333" d="M242 507 L97 655 C80 673 69 678 54 678 C32 678 18 667 18 646 C18 630 29 615 48 603 L202 507 L242 507 Z " />
<glyph glyph-name="a" unicode="a" horiz-adv-x="444" d="M442 66 C425 52 415 47 399 47 C381 47 368 67 368 113 L368 304 C368 365 364 386 340 415 C316 444 278 460 222 460 C177 460 135 448 107 430 C72 408 56 376 56 350 C56 323 78 304 99 304 C125 304 145 326 145 345 C145 366 139 369 139 387 C139 414 169 436 209 436 C254 436 287 408 287 346 L287 292 C174 250 137 231 107 211 C68 185 37 146 37 94 C37 28 80 -10 142 -10 C185 -10 234 3 287 63 L288 63 C293 10 315 -10 352 -10 C386 -10 412 0 442 38 L442 66 Z M287 127 C287 98 281 84 252 64 C235 53 214 48 194 48 C155 48 125 72 125 125 C125 156 135 180 159 202 C184 225 225 246 287 268 L287 127 Z " />
<glyph glyph-name="b" unicode="b" horiz-adv-x="500" d="M153 681 L148 683 C106 668 80 662 33 648 L3 639 L3 622 C8 623 13 624 20 624 C61 624 69 616 69 566 L69 56 C69 22 153 -10 234 -10 C366 -10 468 92 468 240 C468 364 395 460 288 460 C227 460 174 427 153 376 L153 681 Z M153 318 C153 360 199 397 252 397 C288 397 320 380 341 350 C366 315 380 257 380 197 C380 139 367 95 343 65 C321 37 289 22 250 22 C198 22 153 42 153 74 L153 318 Z " />
<glyph glyph-name="c" unicode="c" horiz-adv-x="444" d="M398 156 C350 86 314 62 257 62 C165 62 102 142 102 257 C102 361 157 431 238 431 C274 431 287 420 297 383 L303 361 C311 332 329 315 351 315 C377 315 398 334 398 357 C398 413 328 460 244 460 C197 460 149 442 109 409 C55 364 25 295 25 212 C25 83 104 -10 215 -10 C258 -10 296 4 330 32 C360 56 380 85 412 147 L398 156 Z " />
<glyph glyph-name="d" unicode="d" horiz-adv-x="500" d="M491 42 L491 58 C474 57 473 57 468 57 C432 57 424 68 424 114 L424 681 L419 683 C371 666 336 656 272 639 L272 623 C280 624 286 624 294 624 C331 624 340 614 340 573 L340 417 C302 449 275 460 235 460 C120 460 27 347 27 205 C27 77 101 -10 212 -10 C268 -10 306 10 340 57 L340 -7 L344 -10 L491 42 Z M340 102 C340 95 334 84 325 74 C307 53 282 42 251 42 C167 42 113 122 113 245 C113 358 162 432 238 432 C292 432 340 385 340 332 L340 102 Z " />
<glyph glyph-name="e" unicode="e" horiz-adv-x="444" d="M408 164 C359 90 321 59 254 59 C208 59 171 77 143 114 C107 162 102 201 97 277 L405 277 C401 331 391 363 371 391 C339 436 294 460 232 460 C106 460 25 358 25 217 C25 79 97 -10 215 -10 C315 -10 385 48 424 157 L408 164 Z M99 309 C110 384 149 424 205 424 C271 424 292 390 303 309 L99 309 Z " />
<glyph glyph-name="f" unicode="f" horiz-adv-x="333" d="M21 450 L21 418 L103 418 L103 104 C103 31 92 19 20 15 L20 0 L280 0 L280 15 C198 18 187 29 187 104 L187 418 L309 418 L309 450 L187 450 L187 566 C187 625 205 655 243 655 C265 655 278 645 296 616 C312 589 324 580 341 580 C365 580 383 598 383 621 C383 657 339 683 279 683 C216 683 164 656 138 611 C112 566 104 530 103 450 L21 450 Z " />
<glyph glyph-name="g" unicode="g" horiz-adv-x="500" d="M470 388 L470 427 L393 427 C373 427 358 430 338 437 L316 445 C289 455 262 460 236 460 C143 460 69 388 69 297 C69 234 95 196 162 163 C148 149 134 136 119 123 C86 94 73 74 73 54 C73 32 84 21 126 1 C54 -51 28 -84 28 -121 C28 -174 105 -218 201 -218 C273 -218 349 -194 401 -154 C442 -122 461 -89 461 -49 C461 13 414 55 340 58 L211 64 C157 67 133 75 133 91 C133 111 166 146 193 154 L212 152 C230 150 244 149 250 149 C285 149 322 164 354 188 C390 215 406 252 406 304 C406 333 401 356 387 388 L470 388 Z M152 338 C152 397 180 432 226 432 C257 432 283 415 299 385 C318 350 329 305 329 264 C329 209 300 174 255 174 C193 174 152 239 152 335 L152 338 Z M433 -64 C433 -122 357 -161 243 -161 C155 -161 98 -132 98 -88 C98 -65 107 -50 147 -2 C181 -9 260 -15 309 -15 C400 -15 433 -27 433 -64 L433 -64 Z " />
<glyph glyph-name="h" unicode="h" horiz-adv-x="500" d="M487 0 L487 15 C433 25 427 33 427 102 L427 301 C427 406 386 460 304 460 C245 460 203 436 157 376 L157 680 L152 683 C117 671 94 664 37 647 L10 639 L10 623 C13 624 18 624 22 624 C65 624 73 616 73 573 L73 102 C73 32 67 23 9 15 L9 0 L225 0 L225 15 C167 21 157 33 157 102 L157 343 C199 389 229 406 269 406 C318 406 343 370 343 300 L343 102 C343 33 333 21 275 15 L275 0 L487 0 Z " />
<glyph glyph-name="i" unicode="i" horiz-adv-x="278" d="M180 632 C180 660 158 683 129 683 C101 683 78 660 78 632 C78 603 100 581 128 581 C158 581 180 603 180 632 L180 632 Z M253 0 L253 15 C187 20 179 31 179 105 L179 456 L175 460 L20 405 L20 389 C38 394 53 394 62 394 C87 394 95 378 95 331 L95 104 C95 28 85 19 16 15 L16 0 L253 0 Z " />
<glyph glyph-name="j" unicode="j" horiz-adv-x="278" d="M194 632 C194 660 171 683 143 683 C115 683 92 660 92 632 C92 603 114 581 142 581 C172 581 194 603 194 632 L194 632 Z M193 457 L188 460 C129 437 91 424 32 406 L32 390 L37 391 C53 394 67 394 77 394 C100 394 109 377 109 334 L109 -45 C109 -121 106 -146 95 -166 C89 -176 75 -184 61 -184 C46 -184 36 -177 19 -156 C1 -133 -13 -124 -29 -124 C-52 -124 -70 -141 -70 -163 C-70 -195 -31 -218 23 -218 C134 -218 193 -142 193 0 L193 457 Z " />
<glyph glyph-name="k" unicode="k" horiz-adv-x="500" d="M505 0 L505 15 C461 18 429 36 388 88 L235 282 L264 309 C387 423 416 435 480 435 L480 450 L276 450 L276 436 C315 435 326 431 326 418 C326 409 317 396 303 383 L166 261 L166 681 L162 683 C123 671 97 663 37 647 L7 639 L7 623 C20 624 29 625 39 625 C73 625 82 612 82 564 L82 82 C82 30 79 27 7 15 L7 0 L241 0 L241 15 L221 16 C181 18 166 32 166 67 L166 251 L316 53 C324 43 327 35 327 30 C327 21 318 15 306 15 L287 15 L287 0 L505 0 Z " />
<glyph glyph-name="l" unicode="l" horiz-adv-x="278" d="M257 0 L257 15 C193 19 182 32 182 87 L182 679 L177 683 C125 666 88 656 19 639 L19 623 C35 625 48 625 56 625 C88 625 98 609 98 561 L98 92 C98 37 84 20 21 15 L21 0 L257 0 Z " />
<glyph glyph-name="m" unicode="m" horiz-adv-x="778" d="M775 0 L775 15 L749 17 C719 19 706 32 706 77 L706 280 C706 398 671 460 590 460 C532 460 481 434 427 376 C409 433 375 460 321 460 C276 460 234 451 168 383 L166 383 L166 457 L158 460 C107 441 74 430 19 415 L19 398 C32 401 40 402 51 402 C77 402 86 385 86 336 L86 88 C86 30 72 16 16 15 L16 0 L238 0 L238 15 C185 17 170 27 170 70 L170 348 C170 350 176 357 183 365 C203 389 252 408 289 408 C332 408 354 366 354 297 L354 86 C354 25 343 19 286 15 L286 0 L510 0 L510 15 C453 16 438 30 438 95 L438 347 C468 390 498 408 545 408 C602 408 622 375 622 296 L622 90 C622 32 613 21 557 15 L557 0 L775 0 Z " />
<glyph glyph-name="n" unicode="n" horiz-adv-x="500" d="M485 0 L485 15 C436 20 424 31 424 85 L424 306 C424 405 382 460 306 460 C260 460 214 438 162 379 L161 379 L161 457 L153 460 C104 442 71 431 16 415 L16 398 C23 401 34 402 45 402 C73 402 80 386 80 337 L80 94 C80 35 69 19 18 15 L18 0 L229 0 L229 15 C178 19 164 33 164 72 L164 348 C210 393 234 405 267 405 C316 405 340 375 340 304 L340 105 C340 39 328 19 278 15 L277 0 L485 0 Z " />
<glyph glyph-name="o" unicode="o" horiz-adv-x="500" d="M470 231 C470 369 376 460 254 460 C119 460 29 367 29 228 C29 89 124 -10 245 -10 C380 -10 470 92 470 231 L470 231 Z M380 204 C380 88 336 18 262 18 C226 18 194 36 172 68 C135 122 119 194 119 273 C119 373 166 432 235 432 C278 432 306 412 330 382 C362 341 380 272 380 204 L380 204 Z " />
<glyph glyph-name="p" unicode="p" horiz-adv-x="500" d="M159 458 L153 460 C100 439 64 426 9 409 L9 393 C18 394 25 394 34 394 C68 394 75 384 75 337 L75 -131 C75 -183 64 -194 5 -200 L5 -217 L247 -217 L247 -199 C172 -198 159 -187 159 -124 L159 33 C195 0 218 -10 260 -10 C379 -10 470 102 470 247 C470 371 400 460 303 460 C247 460 203 436 159 381 L159 458 Z M159 334 C159 364 215 400 261 400 C335 400 384 324 384 207 C384 97 335 22 263 22 C216 22 159 58 159 88 L159 334 Z " />
<glyph glyph-name="q" unicode="q" horiz-adv-x="500" d="M488 -217 L488 -200 C435 -194 425 -183 425 -141 L425 457 L414 457 L360 425 C314 452 284 460 244 460 C120 460 24 349 24 205 C24 79 90 -10 184 -10 C242 -10 297 16 341 64 L341 -124 C341 -180 323 -195 252 -200 L252 -217 L488 -217 Z M341 127 C341 104 337 90 329 83 C307 63 273 51 241 51 C212 51 186 60 166 78 C132 107 110 172 110 241 C110 359 163 431 248 431 C310 431 341 399 341 333 L341 127 Z " />
<glyph glyph-name="r" unicode="r" horiz-adv-x="333" d="M160 458 L155 460 C102 439 66 425 7 406 L7 390 C21 393 30 394 42 394 C67 394 76 378 76 334 L76 84 C76 34 69 27 5 15 L5 0 L245 0 L245 15 C177 18 160 33 160 90 L160 315 C160 347 202 397 230 397 C236 397 245 392 256 382 C272 367 283 362 296 362 C320 362 335 379 335 407 C335 440 314 460 280 460 C238 460 210 438 160 366 L160 458 Z " />
<glyph glyph-name="s" unicode="s" horiz-adv-x="389" d="M156 301 C128 318 113 347 113 369 C113 416 145 437 188 437 C248 437 278 404 301 314 L316 314 L311 450 L300 450 C292 441 288 440 284 440 C277 440 267 443 256 448 C235 458 213 459 189 459 C107 459 51 415 51 336 C51 285 88 237 171 191 L225 161 C258 143 278 117 278 86 C278 45 246 12 195 12 C126 12 89 56 68 153 L52 153 L52 -4 L65 -4 C71 6 77 8 89 8 C100 8 111 7 135 -1 C158 -9 187 -10 208 -10 C284 -10 348 48 348 115 C348 172 324 199 260 238 L156 301 Z " />
<glyph glyph-name="t" unicode="t" horiz-adv-x="278" d="M266 77 C244 51 228 42 206 42 C169 42 154 68 154 132 L154 418 L255 418 L255 450 L154 450 L154 566 C154 576 152 579 147 579 C141 569 133 560 127 551 C89 496 56 459 30 444 C19 437 13 431 13 425 C13 422 14 420 17 418 L70 418 L70 117 C70 33 100 -10 158 -10 C208 -10 246 14 279 66 L266 77 Z " />
<glyph glyph-name="u" unicode="u" horiz-adv-x="500" d="M480 50 L474 50 C428 50 417 61 417 107 L417 450 L259 450 L259 433 C319 429 333 421 333 368 L333 137 C333 102 326 93 310 79 C285 57 255 48 226 48 C187 48 155 81 155 127 L155 450 L9 450 L9 436 C57 433 71 419 71 369 L71 118 C71 41 116 -10 193 -10 C230 -10 287 9 336 76 L338 76 L338 -6 L343 -9 C393 11 429 22 480 36 L480 50 Z " />
<glyph glyph-name="v" unicode="v" horiz-adv-x="500" d="M477 450 L338 450 L338 435 C370 432 385 422 385 403 C385 393 383 383 379 373 L280 114 L178 370 C172 385 169 398 169 408 C169 425 181 432 215 435 L215 450 L19 450 L19 435 C57 433 67 423 110 320 L230 33 C234 24 235 17 238 12 C245 -6 250 -14 256 -14 C262 -14 269 -1 284 36 L412 357 C439 424 447 432 477 435 L477 450 Z " />
<glyph glyph-name="w" unicode="w" horiz-adv-x="722" d="M694 450 L571 450 L571 435 C605 428 615 421 615 405 C615 389 609 365 598 338 L508 116 L424 340 C412 371 407 383 407 400 C407 421 418 428 465 435 L465 450 L262 450 L262 435 C299 431 312 420 331 366 L351 310 L260 111 L161 372 C157 382 155 392 155 402 C155 423 166 431 201 435 L201 450 L21 450 L21 435 C44 433 53 426 74 372 L209 30 C221 -1 229 -14 235 -14 C240 -14 248 -1 260 25 L372 265 L463 29 C478 -9 480 -14 487 -14 C494 -14 499 -5 515 35 L653 381 C669 421 674 428 694 435 L694 450 Z " />
<glyph glyph-name="x" unicode="x" horiz-adv-x="500" d="M479 0 L479 15 C448 15 425 32 397 75 L269 271 L352 391 C371 418 401 434 433 435 L433 450 L275 450 L275 435 C305 433 315 427 315 413 C315 401 300 383 278 348 C268 333 258 317 248 304 C244 311 239 317 234 324 C205 367 188 400 188 413 C188 428 201 434 231 435 L231 450 L24 450 L24 435 L33 435 C63 435 79 422 110 375 L204 231 L90 66 C62 25 50 18 17 15 L17 0 L162 0 L162 15 C133 15 122 20 122 33 C122 40 128 52 142 74 L221 197 L312 57 C316 51 318 46 318 39 C318 21 311 17 278 15 L278 0 L479 0 Z " />
<glyph glyph-name="y" unicode="y" horiz-adv-x="500" d="M475 450 L342 450 L342 435 C373 435 388 427 388 411 C388 407 387 400 384 393 L287 117 L175 367 C169 381 162 397 162 408 C162 426 176 433 219 435 L219 450 L14 450 L14 436 C40 432 57 423 67 401 L199 119 C218 79 241 33 241 18 C241 2 221 -61 201 -90 C185 -114 165 -134 151 -134 C145 -134 136 -133 125 -127 C107 -117 91 -114 73 -114 C49 -114 30 -135 30 -160 C30 -193 57 -218 100 -218 C176 -218 223 -167 275 -25 L425 384 C439 421 451 432 475 435 L475 450 Z " />
<glyph glyph-name="z" unicode="z" horiz-adv-x="444" d="M418 136 L400 140 C390 90 387 74 373 57 C359 40 325 30 267 30 L134 30 L403 435 L403 450 L57 450 L53 332 L71 332 C80 405 95 420 158 420 L293 420 L27 15 L27 0 L403 0 L418 136 Z " />
<glyph glyph-name="braceleft" unicode="{" horiz-adv-x="480" d="M350 -170 C281 -152 259 -122 259 -47 L259 121 C259 204 240 230 165 249 C240 269 259 295 259 378 L259 546 C259 621 281 651 350 669 L350 680 C284 679 258 673 229 655 C200 637 185 598 185 541 L185 363 C185 293 167 270 100 250 C167 229 185 205 185 136 L185 -41 C185 -97 201 -138 229 -156 C257 -174 283 -180 350 -181 L350 -170 Z " />
<glyph glyph-name="bar" unicode="|" horiz-adv-x="200" d="M133 -14 L133 676 L67 676 L67 -14 L133 -14 Z " />
<glyph glyph-name="braceright" unicode="}" horiz-adv-x="480" d="M295 540 C295 596 279 637 251 655 C223 673 197 679 130 680 L130 669 C199 651 221 621 221 546 L221 378 C221 294 240 269 315 250 C240 230 221 204 221 121 L221 -47 C221 -122 199 -152 130 -170 L130 -181 C196 -180 222 -174 251 -156 C280 -138 295 -99 295 -42 L295 136 C295 206 313 229 380 250 C313 270 295 293 295 363 L295 540 Z " />
<glyph glyph-name="asciitilde" unicode="~" horiz-adv-x="541" d="M466 325 C444 285 423 252 378 252 C346 252 300 278 282 286 C215 315 198 320 165 320 C119 320 74 300 40 233 L76 183 C93 229 125 256 160 256 C202 256 239 240 257 231 C314 201 332 188 377 188 C423 188 459 210 502 274 L466 325 Z " />
<glyph glyph-name="uni00A0" unicode=" " horiz-adv-x="250" d="" />
<glyph glyph-name="sterling" unicode="£" horiz-adv-x="500" d="M344 328 L344 373 L219 373 C211 442 208 473 208 512 C208 598 243 649 303 649 C340 649 358 632 359 597 C360 544 368 530 398 530 C427 530 448 552 448 583 C448 636 393 676 318 676 C199 676 123 585 123 442 C123 418 125 399 130 373 L23 373 L23 328 L131 328 L136 295 C147 225 152 165 152 146 C152 139 151 133 149 125 C130 129 118 130 103 130 C48 130 12 100 12 54 C12 16 38 -8 80 -8 C115 -8 138 6 178 54 C246 7 279 -7 323 -7 C369 -7 412 13 445 48 C466 71 490 118 490 136 C490 140 488 141 484 141 C478 141 471 136 461 125 C430 91 394 76 348 76 C299 76 264 84 199 111 C223 231 224 238 224 267 C224 287 224 308 223 328 L344 328 Z M142 76 C142 68 137 57 127 45 C113 27 99 20 80 20 C55 20 38 35 38 57 C38 81 56 94 88 94 C113 94 142 85 142 76 L142 76 Z " />
<glyph glyph-name="yen" unicode="¥" horiz-adv-x="500" d="M512 662 L317 662 L317 643 L331 643 C361 643 382 630 382 613 C382 602 377 585 368 568 L256 348 L138 569 C130 585 125 601 125 615 C125 635 143 642 190 643 L190 662 L-53 662 L-53 643 C-7 640 10 624 65 525 L160 352 L16 352 L16 312 L183 312 L190 298 L190 222 L16 222 L16 182 L190 182 L190 120 C190 37 178 22 111 19 L111 0 L355 0 L355 19 C291 21 275 39 275 109 L275 182 L448 182 L448 222 L275 222 L275 298 L282 312 L448 312 L448 352 L302 352 L394 536 C429 606 461 632 512 643 L512 662 Z " />
<glyph glyph-name="section" unicode="§" horiz-adv-x="500" d="M200 513 C180 530 166 558 166 584 C166 626 200 655 251 655 C286 655 313 641 313 623 C313 620 311 617 305 612 C289 601 279 584 279 568 C279 543 298 525 326 525 C358 525 377 545 377 578 C377 634 322 676 249 676 C166 676 110 627 110 554 C110 500 130 470 210 404 C200 405 191 405 184 405 C119 405 70 354 70 286 C70 212 119 149 241 65 C306 21 330 -11 330 -50 C330 -97 296 -127 243 -127 C206 -127 172 -110 172 -92 C172 -88 176 -83 183 -77 C199 -64 206 -50 206 -36 C206 -12 185 6 158 6 C127 6 104 -17 104 -48 C104 -104 164 -148 242 -148 C329 -148 386 -97 386 -21 C386 31 367 60 292 125 L304 125 C378 125 426 172 426 245 C426 298 395 352 337 400 L200 513 Z M374 211 C374 177 341 146 305 146 C267 146 230 169 169 229 C135 263 123 285 123 317 C123 355 152 383 190 383 C222 383 273 352 321 305 C356 270 374 238 374 211 L374 211 Z " />
<glyph glyph-name="dieresis" unicode="¨" horiz-adv-x="333" d="M316 572 C316 599 293 622 266 622 C239 622 217 600 217 573 C217 545 238 523 265 523 C293 523 316 545 316 572 L316 572 Z M117 572 C117 599 94 622 67 622 C40 622 18 600 18 573 C18 545 39 523 66 523 C94 523 117 545 117 572 L117 572 Z " />
<glyph glyph-name="logicalnot" unicode="¬" horiz-adv-x="600" d="M552 115 L552 393 L48 393 L48 327 L486 327 L486 115 L552 115 Z " />
<glyph glyph-name="registered" unicode="®" horiz-adv-x="760" d="M567 152 L567 160 C543 180 515 210 489 245 L432 324 C486 341 511 382 511 422 C511 482 468 520 393 520 L221 520 L221 505 C266 501 268 494 268 452 L268 222 C268 176 269 171 220 167 L219 152 L379 152 L379 167 C334 170 332 177 332 222 L332 314 L380 314 C418 257 420 253 432 231 C460 179 486 152 503 152 L567 152 Z M332 333 L332 501 L370 501 C424 501 444 464 444 418 C444 370 419 333 375 333 L332 333 Z M722 329 C722 521 571 676 385 676 C191 676 38 525 38 332 C38 138 188 -14 381 -14 C572 -14 722 137 722 329 L722 329 Z M667 330 C667 166 537 28 381 28 C224 28 93 165 93 331 C93 494 224 634 378 634 C538 634 667 499 667 330 L667 330 Z " />
<glyph glyph-name="macron" unicode="¯" horiz-adv-x="333" d="M322 547 L322 601 L11 601 L11 547 L322 547 Z " />
<glyph glyph-name="degree" unicode="°" horiz-adv-x="400" d="M343 533 C343 612 280 676 202 676 C120 676 57 614 57 534 C57 453 119 390 200 390 C280 390 343 453 343 533 L343 533 Z M304 534 C304 474 257 424 200 424 C143 424 96 473 96 533 C96 592 143 642 198 642 C256 642 304 593 304 534 L304 534 Z " />
<glyph glyph-name="plusminus" unicode="±" horiz-adv-x="685" d="M637 242 L637 308 L375 308 L375 502 L309 502 L309 308 L48 308 L48 242 L309 242 L309 33 L375 33 L375 242 L637 242 Z M637 -87 L637 -21 L48 -21 L48 -87 L637 -87 Z " />
<glyph glyph-name="acute" unicode="´" horiz-adv-x="333" d="M93 507 L133 507 L287 604 C308 617 317 630 317 646 C317 666 304 678 282 678 C267 678 258 673 240 655 L93 507 Z " />
<glyph glyph-name="mu" unicode="µ" horiz-adv-x="500" d="M430 450 L342 450 L342 115 C322 74 283 52 232 52 C180 52 148 86 148 155 L148 450 L60 450 L60 54 C60 28 36 -90 36 -141 C36 -185 51 -218 80 -218 C111 -218 128 -192 128 -141 C128 -88 93 13 91 64 C122 13 156 -10 214 -10 C269 -10 312 19 345 80 L347 80 C349 21 386 -10 423 -10 C461 -10 479 4 512 47 L512 56 C488 34 476 27 461 27 C438 27 430 50 430 96 L430 450 Z " />
<glyph glyph-name="periodcentered" unicode="·" horiz-adv-x="250" d="M181 253 C181 283 155 310 126 310 C95 310 70 285 70 254 C70 223 94 199 125 199 C155 199 181 224 181 253 L181 253 Z " />
<glyph glyph-name="multiply" unicode="×" horiz-adv-x="640" d="M597 22 L367 252 L597 484 L551 529 L320 299 L90 529 L43 483 L273 252 L43 21 L89 -25 L320 205 L551 -25 L597 22 Z " />
<glyph glyph-name="eth" unicode="ð" horiz-adv-x="500" d="M424 656 L391 686 L296 636 C255 666 209 679 143 683 L101 659 C156 650 193 639 235 604 L114 540 L147 510 L270 575 C328 521 353 473 367 400 C319 448 294 460 246 460 C126 460 29 359 29 217 C29 77 120 -10 245 -10 C325 -10 378 24 418 87 C451 140 471 211 471 285 C471 411 429 527 333 608 L424 656 Z M381 202 C381 87 332 18 263 18 C156 18 119 181 119 281 C119 365 167 432 235 432 C322 432 381 339 381 202 L381 202 Z " />
<glyph glyph-name="divide" unicode="÷" horiz-adv-x="564" d="M338 459 C338 489 312 516 283 516 C252 516 227 491 227 460 C227 429 251 405 282 405 C312 405 338 430 338 459 L338 459 Z M534 220 L534 286 L30 286 L30 220 L534 220 Z M338 44 C338 74 312 101 283 101 C252 101 227 76 227 45 C227 14 251 -10 282 -10 C312 -10 338 15 338 44 L338 44 Z " />
<glyph glyph-name="uni0127" unicode="ħ" horiz-adv-x="500" d="M487 0 L487 15 C433 25 427 33 427 102 L427 301 C427 406 386 460 304 460 C245 460 203 436 157 376 L157 512 L319 512 L319 566 L157 566 L157 680 L152 683 C117 671 94 664 37 647 L10 639 L10 623 C13 624 18 624 22 624 C65 624 73 616 73 573 L73 566 L8 566 L8 512 L73 512 L73 102 C73 32 67 23 9 15 L9 0 L225 0 L225 15 C167 21 157 33 157 102 L157 343 C199 389 229 406 269 406 C318 406 343 370 343 300 L343 102 C343 33 333 21 275 15 L275 0 L487 0 Z " />
<glyph glyph-name="dotlessi" unicode="ı" horiz-adv-x="278" d="M253 0 L253 15 C187 20 179 31 179 105 L179 456 L174 460 L20 405 L20 389 C38 394 53 394 62 394 C87 394 95 378 95 331 L95 104 C95 28 85 19 16 15 L16 0 L253 0 Z " />
<glyph glyph-name="uni0237" unicode="ȷ" horiz-adv-x="278" d="M193 457 L188 460 C129 437 91 424 32 406 L32 390 L37 391 C53 394 67 394 77 394 C100 394 109 377 109 334 L109 -45 C109 -121 106 -146 95 -166 C89 -176 75 -184 61 -184 C46 -184 36 -177 19 -156 C1 -133 -13 -124 -29 -124 C-52 -124 -70 -141 -70 -163 C-70 -195 -31 -218 23 -218 C134 -218 193 -142 193 0 L193 457 Z " />
<glyph glyph-name="circumflex" unicode="ˆ" horiz-adv-x="333" d="M322 507 L197 674 L135 674 L11 507 L45 507 L166 610 L288 507 L322 507 Z " />
<glyph glyph-name="caron" unicode="ˇ" horiz-adv-x="333" d="M322 674 L287 674 L166 571 L46 674 L11 674 L134 507 L198 507 L322 674 Z " />
<glyph glyph-name="uni02C9" unicode="ˉ" horiz-adv-x="334" d="M322 547 L322 601 L11 601 L11 547 L322 547 Z " />
<glyph glyph-name="uni02CA" unicode="ˊ" horiz-adv-x="333" d="M93 509 L133 509 L285 604 C301 614 320 629 320 643 C320 668 307 679 288 679 C273 679 247 663 229 645 L93 509 Z " />
<glyph glyph-name="uni02CB" unicode="ˋ" horiz-adv-x="333" d="M249 509 L113 645 C95 663 69 679 54 679 C35 679 22 668 22 643 C22 629 41 614 57 604 L209 509 L249 509 Z " />
<glyph glyph-name="breve" unicode="˘" horiz-adv-x="335" d="M279 664 C250 593 222 567 168 567 C105 567 69 601 56 664 L27 664 C27 567 72 507 166 507 C248 507 296 558 308 664 L279 664 Z " />
<glyph glyph-name="dotaccent" unicode="˙" horiz-adv-x="333" d="M217 572 C217 600 198 622 167 622 C137 622 118 599 118 572 C118 545 140 523 167 523 C194 523 217 543 217 572 L217 572 Z " />
<glyph glyph-name="ring" unicode="˚" horiz-adv-x="333" d="M266 611 C266 665 221 711 168 711 C112 711 67 667 67 612 C67 556 110 512 165 512 C221 512 266 556 266 611 L266 611 Z M232 612 C232 575 203 546 165 546 C130 546 101 575 101 612 C101 647 131 677 165 677 C202 677 232 648 232 612 L232 612 Z " />
<glyph glyph-name="tilde" unicode="˜" horiz-adv-x="333" d="M302 638 C285 601 272 588 249 588 C234 588 215 593 196 603 L172 615 C148 627 124 633 102 633 C52 633 16 597 1 532 L30 532 C41 563 58 578 81 578 C93 578 107 574 122 567 L145 556 C186 536 201 532 226 532 C281 532 310 562 331 638 L302 638 Z " />
<glyph glyph-name="uni0300" unicode="̀" d="M-147 507 L-292 655 C-309 673 -320 678 -335 678 C-357 678 -371 667 -371 646 C-371 630 -360 615 -341 603 L-187 507 L-147 507 Z " />
<glyph glyph-name="uni0301" unicode="́" d="M-371 507 L-331 507 L-177 603 C-158 615 -147 630 -147 646 C-147 667 -161 678 -183 678 C-198 678 -209 673 -226 655 L-371 507 Z " />
<glyph glyph-name="uni0302" unicode="̂" d="M-75 507 L-200 674 L-262 674 L-386 507 L-352 507 L-231 610 L-109 507 L-75 507 Z " />
<glyph glyph-name="uni0303" unicode="̃" d="M-94 638 C-111 601 -124 587 -147 587 C-167 587 -181 593 -224 615 C-248 627 -272 633 -294 633 C-344 633 -380 597 -395 532 L-366 532 C-355 563 -338 578 -315 578 C-297 578 -289 574 -251 556 C-210 536 -195 532 -170 532 C-115 532 -86 562 -65 638 L-94 638 Z " />
<glyph glyph-name="uni0304" unicode="̄" d="M-74 547 L-74 601 L-385 601 L-385 547 L-74 547 Z " />
<glyph glyph-name="uni0306" unicode="̆" d="M-121 664 C-150 593 -178 567 -232 567 C-295 567 -331 601 -344 664 L-373 664 C-373 567 -328 507 -234 507 C-152 507 -104 558 -92 664 L-121 664 Z " />
<glyph glyph-name="uni0307" unicode="̇" d="M-181 572 C-181 600 -200 622 -231 622 C-261 622 -280 599 -280 572 C-280 545 -258 523 -231 523 C-204 523 -181 543 -181 572 L-181 572 Z " />
<glyph glyph-name="uni0308" unicode="̈" d="M-81 572 C-81 599 -104 622 -131 622 C-158 622 -180 600 -180 573 C-180 545 -159 523 -132 523 C-104 523 -81 545 -81 572 L-81 572 Z M-280 572 C-280 599 -303 622 -330 622 C-357 622 -379 600 -379 573 C-379 545 -358 523 -331 523 C-303 523 -280 545 -280 572 L-280 572 Z " />
<glyph glyph-name="uni030A" unicode="̊" d="M-130 611 C-130 665 -175 711 -228 711 C-284 711 -329 667 -329 612 C-329 556 -286 512 -231 512 C-175 512 -130 556 -130 611 L-130 611 Z M-164 612 C-164 575 -193 546 -231 546 C-266 546 -295 575 -295 612 C-295 647 -265 677 -231 677 C-194 677 -164 648 -164 612 L-164 612 Z " />
<glyph glyph-name="uni030B" unicode="̋" d="M-245 507 L-205 507 L-51 603 C-30 616 -22 630 -22 648 C-22 667 -36 678 -56 678 C-69 678 -79 675 -99 655 L-245 507 Z M-401 507 L-361 507 L-207 603 C-186 616 -178 630 -178 648 C-178 667 -192 678 -212 678 C-225 678 -235 675 -255 655 L-401 507 Z " />
<glyph glyph-name="uni030C" unicode="̌" d="M-74 674 L-109 674 L-230 571 L-350 674 L-385 674 L-262 507 L-198 507 L-74 674 Z " />
<glyph glyph-name="uni0338" unicode="̸" d="M31 662 L-23 662 L-380 -156 L-326 -156 L31 662 Z " />
<glyph glyph-name="uni0391" unicode="Α" horiz-adv-x="722" d="M707 0 L707 19 C655 25 641 46 613 111 L367 674 L347 674 L141 186 C82 46 73 25 15 19 L15 0 L214 0 L214 19 C166 19 144 29 144 60 C144 72 148 89 153 102 L199 216 L461 216 L502 122 C514 94 521 67 521 52 C521 38 511 24 497 23 L452 19 L452 0 L707 0 Z M447 257 L216 257 L331 532 L447 257 Z " />
<glyph glyph-name="uni0392" unicode="Β" horiz-adv-x="667" d="M422 349 C508 367 559 405 559 495 C559 601 470 662 297 662 L17 662 L17 643 C98 638 113 629 113 550 L113 113 C113 37 96 21 17 19 L17 0 L354 0 C499 0 593 67 593 178 C593 277 523 330 422 348 L422 349 Z M215 366 L215 593 C215 616 222 625 239 625 C399 625 457 585 457 490 C457 407 399 366 278 366 L215 366 Z M215 326 L280 326 C390 326 478 302 478 179 C478 60 389 37 277 37 C231 37 215 48 215 82 L215 326 Z " />
<glyph glyph-name="uni0393" unicode="Γ" horiz-adv-x="587" d="M577 494 L572 662 L12 662 L12 643 C89 637 99 624 99 551 L99 124 C99 36 87 24 11 19 L11 0 L292 0 L292 19 C214 23 201 35 201 113 L201 584 C201 616 209 624 237 624 L412 624 C513 624 542 593 552 494 L577 494 Z " />
<glyph glyph-name="uni0394" unicode="Δ" horiz-adv-x="722" d="M675 0 L367 674 L347 674 L48 0 L675 0 Z M524 92 L136 92 L331 532 L524 92 Z " />
<glyph glyph-name="uni0395" unicode="Ε" horiz-adv-x="611" d="M597 169 L569 169 C524 63 481 37 302 37 C228 37 201 42 201 84 L201 327 L352 327 C438 327 453 314 465 230 L488 230 L488 464 L465 464 C453 385 438 368 352 368 L201 368 L201 588 C201 620 208 624 236 624 C483 624 506 609 521 519 L546 519 L542 662 L12 662 L12 643 C87 639 99 624 99 550 L99 114 C99 37 89 24 12 19 L12 0 L551 0 L597 169 Z " />
<glyph glyph-name="uni0396" unicode="Ζ" horiz-adv-x="612" d="M598 176 L575 176 C557 117 548 89 515 66 C490 48 454 38 398 38 L146 38 L578 647 L578 662 L53 662 L32 491 L58 491 C68 546 74 563 99 589 C123 613 162 624 233 624 L447 624 L10 15 L10 0 L573 0 L598 176 Z " />
<glyph glyph-name="uni0397" unicode="Η" horiz-adv-x="722" d="M703 0 L703 19 C628 25 614 40 614 111 L614 548 C614 625 629 637 703 643 L703 662 L423 662 L423 643 C499 637 512 627 512 548 L512 359 L209 359 L209 548 C209 626 225 637 298 643 L298 662 L18 662 L18 643 C95 637 107 626 107 548 L107 122 C107 36 96 24 18 19 L18 0 L297 0 L296 19 C222 23 209 40 209 113 L209 315 L512 315 L512 124 C512 40 502 24 424 19 L424 0 L703 0 Z " />
<glyph glyph-name="uni0398" unicode="Θ" horiz-adv-x="722" d="M501 236 C494 267 490 331 490 361 C490 390 494 413 501 441 L476 441 C469 407 452 383 418 383 L312 383 C273 383 263 400 249 441 L224 441 C231 409 235 353 235 323 C235 295 232 262 225 236 L250 236 C264 277 275 298 313 298 L418 298 C454 298 467 274 476 236 L501 236 Z M688 331 C688 529 557 676 361 676 C166 676 34 537 34 334 C34 126 167 -14 361 -14 C553 -14 688 125 688 331 L688 331 Z M574 337 C574 217 546 123 491 70 C456 37 412 22 362 22 C316 22 272 36 238 67 C177 123 148 213 148 332 C148 427 174 524 217 573 C256 618 306 640 360 640 C407 640 447 623 483 593 C540 545 574 451 574 337 L574 337 Z " />
<glyph glyph-name="uni0399" unicode="Ι" horiz-adv-x="333" d="M315 0 L315 19 C233 22 217 37 217 112 L217 551 C217 627 231 639 315 643 L315 662 L18 662 L18 643 C103 638 115 630 115 551 L115 112 C115 34 102 22 18 19 L18 0 L315 0 Z " />
<glyph glyph-name="uni039A" unicode="Κ" horiz-adv-x="731" d="M723 0 L723 19 C677 19 650 37 567 128 L333 384 L519 562 C588 628 607 638 675 643 L675 662 L416 662 L416 643 L441 642 C474 641 482 631 482 611 C482 586 452 557 404 512 L226 348 L226 548 C226 625 233 637 316 643 L316 662 L34 662 L34 643 C113 638 124 623 124 549 L124 125 C124 38 112 23 33 19 L33 0 L315 0 L315 19 C242 25 226 34 226 111 L226 296 L252 317 L352 214 C431 132 489 71 489 44 C489 30 476 21 447 20 L420 19 L420 0 L723 0 Z " />
<glyph glyph-name="uni039B" unicode="Λ" horiz-adv-x="702" d="M687 0 L687 19 C635 25 620 46 593 111 L357 674 L337 674 L141 186 C85 46 73 25 15 19 L15 0 L214 0 L214 19 C166 19 144 29 144 60 C144 72 148 89 153 102 L320 533 L322 533 L482 122 C495 89 501 67 501 52 C501 18 470 21 432 19 L432 0 L687 0 Z " />
<glyph glyph-name="uni039C" unicode="Μ" horiz-adv-x="889" d="M864 0 L864 19 C791 24 776 41 776 112 L776 550 C776 625 791 642 863 643 L863 662 L664 662 L443 160 L212 662 L14 662 L14 643 C96 638 109 625 109 549 L109 151 C109 39 95 25 12 19 L12 0 L246 0 L246 19 C169 23 153 41 153 151 L153 549 L405 0 L419 0 L674 572 L674 123 C674 40 663 24 584 19 L584 0 L864 0 Z " />
<glyph glyph-name="uni039D" unicode="Ν" horiz-adv-x="722" d="M707 662 L470 662 L470 643 C514 638 532 636 549 617 C564 600 568 570 568 519 L568 179 L182 662 L12 662 L12 643 C61 643 76 631 109 590 L109 150 C109 43 94 28 12 19 L12 0 L246 0 L246 19 C169 30 153 47 153 150 L153 538 L594 -11 L612 -11 L612 507 C612 586 622 608 641 625 C654 636 669 639 707 643 L707 662 Z " />
<glyph glyph-name="uni039E" unicode="Ξ" horiz-adv-x="643" d="M590 493 L590 662 L53 662 L53 491 L78 491 C88 560 107 580 159 580 L484 580 C537 580 555 557 565 493 L590 493 Z M503 218 L503 451 L480 451 C479 396 461 375 414 375 L228 375 C185 375 163 395 163 451 L140 451 L140 218 L163 218 C169 263 180 295 226 295 L411 295 C455 295 480 269 480 218 L503 218 Z M614 0 L614 171 L589 171 C589 112 559 85 497 85 L139 85 C89 85 54 111 54 171 L29 171 L29 0 L614 0 Z " />
<glyph glyph-name="uni039F" unicode="Ο" horiz-adv-x="722" d="M688 331 C688 529 557 676 361 676 C166 676 34 537 34 334 C34 126 167 -14 361 -14 C553 -14 688 125 688 331 L688 331 Z M574 337 C574 217 546 123 491 70 C456 37 412 22 362 22 C316 22 272 36 238 67 C177 123 148 213 148 332 C148 427 174 524 217 573 C256 618 306 640 360 640 C407 640 447 623 483 593 C540 545 574 451 574 337 L574 337 Z " />
<glyph glyph-name="uni03A0" unicode="Π" horiz-adv-x="722" d="M703 0 L703 19 C628 25 614 40 614 111 L614 548 C614 625 629 637 703 643 L703 662 L18 662 L18 643 C95 637 107 626 107 548 L107 122 C107 36 96 24 18 19 L18 0 L297 0 L296 19 C222 23 209 40 209 113 L209 591 C209 618 219 624 245 624 L476 624 C506 624 512 615 512 588 L512 124 C512 40 502 24 424 19 L424 0 L703 0 Z " />
<glyph glyph-name="uni03A1" unicode="Ρ" horiz-adv-x="557" d="M16 662 L16 643 C90 637 100 625 100 551 L100 122 C100 36 94 25 16 19 L16 0 L296 0 L296 19 C215 23 202 36 202 112 L202 291 C229 289 245 288 271 288 C378 288 427 297 485 349 C522 382 542 427 542 480 C542 530 525 571 492 599 C447 637 375 662 275 662 L16 662 Z M202 589 C202 616 208 625 237 625 C373 625 433 585 433 475 C433 385 373 328 263 328 C243 328 225 329 202 331 L202 589 Z " />
<glyph glyph-name="uni03A3" unicode="Σ" horiz-adv-x="624" d="M600 204 L577 204 C562 128 535 95 458 95 L148 95 L385 367 L173 624 L381 624 C469 624 516 603 531 501 L556 501 L556 662 L30 662 L30 647 L297 324 L30 15 L30 0 L572 0 L600 204 Z " />
<glyph glyph-name="uni03A4" unicode="Τ" horiz-adv-x="611" d="M593 492 L586 662 L24 662 L17 492 L42 492 C62 602 88 620 194 620 L254 620 L254 123 C254 35 243 24 160 19 L160 0 L452 0 L452 19 C370 23 356 35 356 111 L356 620 L415 620 C521 620 546 602 568 492 L593 492 Z " />
<glyph glyph-name="uni03A5" unicode="Υ" horiz-adv-x="722" d="M703 658 C680 670 661 671 639 671 C537 671 424 579 395 435 L393 435 C368 592 290 674 163 674 C117 674 63 652 29 622 L37 606 C56 613 92 624 110 624 C213 623 285 537 315 295 L315 123 C315 34 304 25 214 19 L214 0 L520 0 L520 19 C436 23 417 33 417 111 L417 304 C417 484 532 644 671 644 C682 644 693 642 703 639 L703 658 Z " />
<glyph glyph-name="uni03A6" unicode="Φ" horiz-adv-x="763" d="M432 580 C432 621 448 643 535 643 L535 662 L229 662 L229 643 C315 643 330 625 330 580 L330 560 C188 560 35 496 35 330 C35 199 125 103 313 103 L330 103 L330 85 C330 34 295 19 229 19 L229 0 L535 0 L535 19 C464 23 432 32 432 86 L432 103 L457 103 C567 103 728 172 728 330 C728 496 571 560 432 560 L432 580 Z M430 523 C559 523 619 415 619 318 C619 205 523 140 430 140 L430 523 Z M332 140 C211 140 144 224 144 318 C144 416 221 523 332 523 L332 140 Z " />
<glyph glyph-name="uni03A7" unicode="Χ" horiz-adv-x="722" d="M704 0 L704 19 C651 25 632 37 593 93 L401 367 L544 544 C607 622 632 639 696 643 L696 662 L459 662 L459 643 C513 641 527 634 527 611 C527 596 517 581 487 544 L375 404 L331 468 C278 546 248 584 248 613 C248 636 266 641 294 642 L323 643 L323 662 L22 662 L22 643 C88 636 109 624 205 483 L311 328 L155 133 C78 36 62 24 10 19 L10 0 L242 0 L242 19 C184 23 166 32 166 51 C166 66 182 94 219 140 L338 289 L433 148 C467 97 484 66 484 50 C484 32 466 23 434 21 L408 19 L408 0 L704 0 Z " />
<glyph glyph-name="uni03A8" unicode="Ψ" horiz-adv-x="746" d="M724 690 C607 690 569 615 569 509 C569 414 556 307 435 307 L424 307 L424 562 C424 635 464 643 527 643 L527 662 L221 662 L221 643 C282 643 322 632 322 562 L322 307 L311 307 C190 307 177 414 177 509 C177 615 139 690 22 690 L22 671 C61 663 69 599 69 567 C69 537 65 507 65 477 C65 328 190 270 322 270 L322 124 C322 37 307 23 221 19 L221 0 L527 0 L527 19 C453 21 424 29 424 111 L424 270 C556 270 681 328 681 477 C681 507 677 537 677 567 C677 599 685 663 724 671 L724 690 Z " />
<glyph glyph-name="uni03A9" unicode="Ω" horiz-adv-x="744" d="M715 0 L715 169 L690 169 C688 119 669 95 628 95 L474 95 L476 132 C611 170 691 251 691 397 C691 546 570 676 372 676 C170 676 53 533 53 397 C53 252 126 171 265 132 L267 95 L116 95 C72 95 55 110 54 171 L29 171 L29 0 L316 0 L307 161 C219 186 167 301 167 399 C167 519 236 640 372 640 C503 640 577 541 577 399 C577 292 521 182 436 161 L429 0 L715 0 Z " />
<glyph glyph-name="uni03B1" unicode="α" horiz-adv-x="543" d="M514 129 C507 72 495 52 481 52 C451 52 422 141 412 187 L521 450 L424 450 L379 314 C361 386 312 460 225 460 C103 460 29 350 29 223 C29 87 108 -10 216 -10 C294 -10 335 37 370 100 C384 35 409 -10 450 -10 C500 -10 529 53 529 129 L514 129 Z M331 208 C321 155 294 18 225 18 C136 18 119 199 119 273 C119 387 170 432 220 432 C294 432 320 282 331 208 L331 208 Z " />
<glyph glyph-name="uni03B2" unicode="β" horiz-adv-x="496" d="M344 399 C378 412 399 434 412 459 C423 482 427 507 427 528 C427 617 346 683 267 683 C159 683 71 615 71 373 L71 -136 C71 -165 65 -196 55 -217 L139 -217 C145 -203 155 -172 155 -136 L155 31 C191 -2 219 -10 262 -10 C379 -10 466 106 466 228 C466 306 424 380 346 398 L344 399 Z M155 485 L155 500 C155 593 187 655 249 655 C327 655 346 562 346 493 C346 457 334 413 305 413 C290 413 262 421 253 421 C221 421 211 410 211 399 C211 384 227 374 250 374 C270 374 275 381 296 381 C326 381 380 337 380 202 C380 100 333 22 259 22 C206 22 155 59 155 89 L155 485 Z " />
<glyph glyph-name="uni03B3" unicode="γ" horiz-adv-x="474" d="M444 450 L344 450 L240 97 C224 183 213 457 97 457 C36 457 10 380 10 299 L25 299 C32 359 62 387 83 387 C178 387 205 110 213 36 C202 7 189 -22 180 -52 C168 -90 162 -126 162 -150 C162 -188 178 -218 211 -218 C261 -218 272 -171 272 -118 C272 -74 264 -27 258 0 L444 450 Z " />
<glyph glyph-name="uni03B4" unicode="δ" horiz-adv-x="500" d="M221 425 C98 409 29 316 29 216 C29 102 115 -10 246 -10 C384 -10 470 93 470 231 C470 320 426 388 353 433 C251 495 122 522 122 580 C122 625 181 641 212 641 C342 641 316 565 382 565 C408 565 417 591 417 608 C417 660 313 683 248 683 C181 683 84 655 84 578 C84 505 136 461 221 426 L221 425 Z M380 208 C380 89 337 18 260 18 C231 18 192 37 171 69 C136 123 119 196 119 241 C119 319 164 399 255 399 C335 382 380 273 380 208 L380 208 Z " />
<glyph glyph-name="uni03B5" unicode="ε" horiz-adv-x="439" d="M393 145 C344 77 294 40 220 40 C168 40 115 71 115 129 C115 192 178 217 222 217 C243 217 249 211 266 211 C298 211 314 224 314 237 C314 248 302 258 276 258 C251 258 245 249 215 249 C159 249 131 288 131 334 C131 386 167 431 224 431 C280 431 311 418 311 391 C311 381 307 376 307 357 C307 332 327 315 351 315 C373 315 398 329 398 357 C398 435 309 460 242 460 C116 460 48 397 48 329 C48 287 77 249 125 235 C70 226 25 176 25 122 C25 83 42 -10 215 -10 C290 -10 362 31 407 136 L393 145 Z " />
<glyph glyph-name="uni03B6" unicode="ζ" horiz-adv-x="441" d="M153 683 C87 665 55 632 55 593 C55 542 106 518 143 518 L144 515 C67 403 35 324 35 200 C35 39 106 -10 190 -10 C220 -10 275 -1 286 -1 C338 -1 376 -26 376 -69 C376 -118 335 -150 295 -150 C267 -150 255 -121 234 -121 C206 -121 192 -139 192 -162 C192 -200 225 -218 264 -218 C324 -218 407 -151 407 -60 C407 38 360 82 257 82 C236 82 224 80 206 80 C111 80 82 151 82 234 C82 350 141 461 189 515 C272 523 357 576 357 622 C357 642 344 656 318 656 C266 656 193 590 167 546 C134 550 100 555 100 596 C100 617 120 648 162 668 L153 683 Z " />
<glyph glyph-name="uni03B7" unicode="η" horiz-adv-x="512" d="M452 -217 C441 -199 436 -171 436 -132 L436 319 C436 400 394 460 318 460 C272 460 226 438 174 379 L173 379 C167 436 159 455 113 455 C70 455 35 398 10 345 L24 339 C33 358 51 388 72 388 C80 388 92 379 92 313 L92 0 L176 0 L176 348 C220 392 246 405 279 405 C329 405 352 374 352 308 L352 -131 C352 -186 359 -202 367 -217 L452 -217 Z " />
<glyph glyph-name="uni03B8" unicode="θ" horiz-adv-x="496" d="M468 333 C468 443 455 536 422 591 C384 655 338 683 252 683 C107 683 27 539 27 340 C27 245 35 184 57 128 C90 43 152 -10 243 -10 C388 -10 468 134 468 333 L468 333 Z M117 354 L117 385 C117 595 169 655 238 655 C364 655 377 476 378 354 L117 354 Z M378 316 C378 140 341 18 256 18 C137 18 120 179 117 322 L378 322 L378 316 Z " />
<glyph glyph-name="uni03B9" unicode="ι" horiz-adv-x="275" d="M252 107 C229 66 221 56 199 56 C184 56 179 69 179 79 L179 456 L175 460 C123 441 72 423 20 407 L20 389 C39 393 53 393 62 393 C84 393 95 381 95 344 L95 78 C95 35 108 -10 154 -10 C206 -10 244 51 267 99 L252 107 Z " />
<glyph glyph-name="uni03BA" unicode="κ" horiz-adv-x="500" d="M503 0 L503 15 C458 20 434 35 398 77 L225 279 C292 350 329 374 376 374 C397 374 417 363 440 363 C461 363 490 374 490 412 C490 439 469 460 431 460 C391 460 335 446 166 258 L166 458 L162 460 C123 448 97 440 37 424 L7 416 L7 400 C20 401 29 402 39 402 C73 402 82 389 82 341 L82 0 L166 0 L166 227 L297 68 C307 56 313 47 313 39 C313 25 299 15 275 15 L266 15 L266 0 L503 0 Z " />
<glyph glyph-name="uni03BB" unicode="λ" horiz-adv-x="497" d="M477 137 C470 79 434 59 417 59 C388 59 366 97 353 142 L241 532 C214 626 192 683 135 683 C73 683 53 601 53 536 L68 536 C77 600 101 613 128 613 C160 613 194 565 214 495 L227 450 L12 0 L112 0 L256 355 L328 90 C344 32 369 -11 408 -11 C462 -11 491 53 492 137 L477 137 Z " />
<glyph glyph-name="uni03BC" unicode="μ" horiz-adv-x="528" d="M501 106 C479 65 468 56 449 56 C438 56 429 67 429 113 L429 450 L345 450 L345 136 C345 102 339 94 322 79 C297 56 262 48 241 48 C200 48 155 80 155 138 L155 450 L71 450 L71 -132 C71 -166 64 -196 55 -217 L137 -217 C144 -202 153 -167 153 -131 L153 18 L155 18 C165 -2 191 -10 218 -10 C247 -10 298 6 343 71 L345 71 C345 27 360 -10 406 -10 C456 -10 493 52 516 99 L501 106 Z " />
<glyph glyph-name="uni03BD" unicode="ν" horiz-adv-x="455" d="M424 460 C424 336 319 113 180 90 L179 90 L179 456 L175 460 C123 441 72 423 20 407 L20 389 C37 393 55 393 62 393 C84 393 95 376 95 344 L95 -14 L118 -14 C262 19 360 126 406 232 C443 317 443 399 443 460 L424 460 Z " />
<glyph glyph-name="uni03BE" unicode="ξ" horiz-adv-x="441" d="M177 683 C111 665 81 635 81 594 C81 554 110 536 138 532 C116 512 103 478 103 449 C103 418 118 386 145 368 C80 321 35 247 35 163 C35 61 78 -10 196 -10 C220 -10 275 -1 286 -1 C338 -1 376 -26 376 -69 C376 -119 335 -150 295 -150 C267 -150 255 -121 234 -121 C206 -121 192 -139 192 -162 C192 -200 225 -218 264 -218 C325 -218 407 -152 407 -55 C407 30 361 82 257 82 C245 82 214 80 196 80 C127 80 80 111 80 195 C80 268 126 320 189 348 C215 341 239 339 261 339 C294 339 370 349 370 394 C370 420 344 434 306 434 C266 434 214 417 178 387 C155 403 143 425 143 450 C143 482 164 516 212 516 C278 516 349 546 349 582 C349 604 335 615 303 615 C263 615 210 595 165 563 C139 565 126 584 126 609 C126 627 136 650 185 667 L177 683 Z " />
<glyph glyph-name="uni03BF" unicode="ο" horiz-adv-x="505" d="M473 228 C473 358 395 460 259 460 C121 460 35 329 35 202 C35 82 133 -10 252 -10 C373 -10 473 112 473 228 L473 228 Z M384 191 C384 125 349 22 269 22 C166 22 124 161 124 244 C124 313 152 428 239 428 C346 428 384 276 384 191 L384 191 Z " />
<glyph glyph-name="uni03C0" unicode="π" horiz-adv-x="501" d="M467 137 C454 82 427 73 405 73 C375 73 362 97 356 122 C350 147 350 184 350 218 C350 278 356 338 360 366 L479 366 L479 450 L193 450 C87 450 43 404 9 309 L25 309 C60 360 98 366 155 366 C143 107 101 86 60 73 C46 69 37 61 37 50 C37 15 57 -14 104 -14 C210 -14 197 288 201 366 L294 366 C287 296 278 199 278 112 C278 47 313 -10 370 -10 C441 -10 482 73 482 137 L467 137 Z " />
<glyph glyph-name="uni03C1" unicode="ρ" horiz-adv-x="496" d="M71 -132 C71 -166 65 -196 55 -217 L139 -217 C146 -203 155 -167 155 -131 L155 30 C191 -3 218 -10 260 -10 C379 -10 466 102 466 247 C466 371 376 460 259 460 C160 460 71 392 71 152 L71 -132 Z M155 273 C155 369 188 432 247 432 C321 432 380 352 380 212 C380 102 331 22 259 22 C212 22 155 58 155 88 L155 273 Z " />
<glyph glyph-name="uni03C2" unicode="ς" horiz-adv-x="441" d="M432 352 C432 404 386 460 283 460 C169 460 35 333 35 166 C35 18 107 -10 190 -10 C220 -10 275 -1 286 -1 C338 -1 376 -26 376 -69 C376 -118 335 -150 295 -150 C267 -150 255 -121 234 -121 C206 -121 192 -139 192 -162 C192 -200 225 -218 264 -218 C324 -218 407 -151 407 -60 C407 38 360 82 257 82 C239 82 228 80 213 80 L206 80 C107 87 82 140 82 211 C82 323 166 372 237 372 C327 372 344 302 384 302 C419 302 432 330 432 352 L432 352 Z " />
<glyph glyph-name="uni03C3" unicode="σ" horiz-adv-x="548" d="M518 366 L518 450 L239 450 C127 450 29 377 29 215 C29 97 125 -10 239 -10 C367 -10 467 89 467 188 C467 297 389 294 342 366 L518 366 Z M377 171 C377 96 340 18 261 18 C191 18 119 119 119 234 C119 346 215 366 273 366 C329 342 377 252 377 171 L377 171 Z " />
<glyph glyph-name="uni03C4" unicode="τ" horiz-adv-x="477" d="M442 366 L442 450 L162 450 C66 450 15 343 3 276 L18 276 C36 330 77 366 132 366 L214 366 C197 309 174 219 174 142 C174 67 196 -10 277 -10 C343 -10 386 64 386 143 L371 143 C362 98 335 73 302 73 C261 73 249 123 249 182 C249 254 267 339 272 366 L442 366 Z " />
<glyph glyph-name="uni03C5" unicode="υ" horiz-adv-x="524" d="M255 460 L255 440 C294 437 326 418 354 382 C389 336 404 266 404 209 C404 109 371 18 284 18 C202 18 182 117 182 174 L182 385 C182 432 161 455 119 455 C77 455 41 398 16 345 L30 339 C39 358 58 388 78 388 C95 388 98 356 98 318 L98 198 C98 85 132 -10 278 -10 C401 -10 494 95 494 225 C494 382 393 460 282 460 L255 460 Z " />
<glyph glyph-name="uni03C6" unicode="φ" horiz-adv-x="623" d="M269 18 C235 18 196 35 172 68 C133 122 119 209 119 273 C119 381 177 436 269 442 L269 457 C261 459 250 460 242 460 C107 460 29 350 29 229 C29 102 108 -3 245 -9 L269 -10 L269 -217 L353 -217 L353 -10 C514 -10 593 98 593 222 C593 365 503 460 414 460 C372 460 340 442 319 415 C272 355 269 248 269 153 L269 18 Z M353 18 L353 258 C353 348 353 432 403 432 C464 432 503 304 503 206 C503 107 470 18 383 18 L353 18 Z " />
<glyph glyph-name="uni03C7" unicode="χ" horiz-adv-x="500" d="M486 450 L388 450 L246 185 C211 353 188 460 126 460 C71 460 53 406 53 313 L68 313 C75 370 98 390 112 390 C151 390 178 342 202 238 L221 156 L11 -211 L109 -211 L251 52 L272 -69 C286 -152 314 -220 365 -220 C425 -220 441 -120 441 -70 L426 -70 C420 -128 399 -150 375 -150 C336 -150 316 -106 293 2 L276 82 L486 450 Z " />
<glyph glyph-name="uni03C8" unicode="ψ" horiz-adv-x="694" d="M684 457 C670 460 650 460 632 460 C531 460 509 356 509 271 C509 169 497 18 394 18 L394 450 L310 450 L310 18 C207 18 195 169 195 275 C195 360 167 460 72 460 C54 460 34 458 20 456 L20 441 C99 431 105 290 105 229 C105 72 150 -10 310 -10 L310 -217 L394 -217 L394 -10 C543 -10 599 82 599 229 C599 290 605 432 684 442 L684 457 Z " />
<glyph glyph-name="uni03C9" unicode="ω" horiz-adv-x="625" d="M361 445 C454 445 505 362 505 208 C505 116 497 18 421 18 C386 18 348 65 339 146 C351 188 357 213 357 253 C357 321 335 349 312 349 C289 349 267 324 267 251 C267 208 273 185 285 146 C273 64 245 18 200 18 C130 18 119 126 119 218 C119 364 180 445 263 445 L263 460 C132 460 29 384 29 209 C29 138 44 84 77 46 C110 9 146 -10 186 -10 C242 -10 284 22 312 86 C336 22 378 -10 436 -10 C478 -10 515 9 547 46 C579 83 595 137 595 211 C595 386 494 460 361 460 L361 445 Z " />
<glyph glyph-name="uni03D0" unicode="ϐ" horiz-adv-x="450" d="M411 611 C411 678 359 693 302 693 C272 693 226 669 202 651 C79 555 54 396 54 249 C54 143 89 -10 222 -10 C333 -10 398 99 398 200 C398 281 351 385 258 385 C170 385 114 315 73 246 C75 334 111 421 158 494 C180 492 202 491 224 491 C299 491 411 517 411 611 L411 611 Z M165 507 C198 568 261 674 339 674 C357 674 374 658 374 640 C374 607 316 540 287 526 C260 513 230 507 200 507 L165 507 Z M357 272 C357 201 261 23 181 23 C135 23 115 68 115 108 C115 176 210 351 287 351 C329 351 357 311 357 272 L357 272 Z " />
<glyph glyph-name="uni03D1" unicode="ϑ" horiz-adv-x="554" d="M544 290 C517 292 484 294 461 299 C459 383 442 484 403 562 C371 626 328 683 241 683 C176 683 92 642 92 528 C92 392 223 300 371 275 C372 261 372 246 372 231 C372 129 353 18 273 18 C190 18 171 116 171 169 L171 220 C171 301 156 320 109 320 C70 320 29 282 0 210 L15 201 C42 255 51 263 67 263 C78 263 87 253 87 208 L87 186 C87 74 127 -10 267 -10 C418 -10 457 142 460 268 C485 268 520 270 544 275 L544 290 Z M369 322 C197 382 168 505 168 559 C168 615 203 646 239 646 C289 646 343 609 362 399 C362 399 366 367 369 322 L369 322 Z " />
<glyph glyph-name="uni03D2" unicode="ϒ" horiz-adv-x="722" d="M395 416 C368 592 290 674 163 674 C117 674 63 652 29 622 L37 606 C56 613 92 624 110 624 C213 623 285 537 315 295 L315 123 C315 34 304 25 214 19 L214 0 L520 0 L520 19 C436 23 417 33 417 111 L417 251 C417 360 458 650 593 650 C600 650 617 647 617 637 C617 627 578 608 578 570 C578 538 603 514 635 514 C677 514 698 551 698 590 C698 637 653 676 606 676 C477 676 415 524 398 416 L395 416 Z " />
<glyph glyph-name="uni03D5" unicode="ϕ" horiz-adv-x="623" d="M353 683 L269 683 L269 460 L252 460 C104 460 29 347 29 228 C29 110 107 -10 245 -10 L269 -10 L269 -217 L353 -217 L353 -10 C532 -10 593 117 593 231 C593 325 548 408 461 444 C430 457 396 460 353 460 L353 683 Z M352 18 L352 432 C454 432 503 322 503 204 C503 104 468 18 383 18 L352 18 Z M270 18 C235 18 197 34 173 68 C136 120 119 193 119 274 C119 371 162 432 240 432 L270 432 L270 18 Z " />
<glyph glyph-name="uni03D6" unicode="ϖ" horiz-adv-x="762" d="M726 366 L726 450 L154 450 C65 450 16 345 6 274 L21 274 C46 325 72 366 123 366 L167 366 C139 324 120 259 120 206 C120 60 195 -10 268 -10 C338 -10 377 21 403 86 C426 19 475 -10 522 -10 C609 -10 686 60 686 204 C686 258 675 324 640 366 L726 366 Z M558 366 C581 332 596 259 596 206 C596 118 583 18 516 18 C477 18 439 65 430 147 C440 173 448 206 448 230 C448 266 437 318 404 318 C369 318 358 269 358 231 C358 204 367 172 376 147 C363 63 333 18 286 18 C218 18 210 126 210 199 C210 263 224 322 250 366 L558 366 Z " />
<glyph glyph-name="uni03D8" unicode="Ϙ" horiz-adv-x="722" d="M310 -94 C310 -182 299 -193 216 -198 L216 -217 L508 -217 L508 -198 C426 -194 412 -182 412 -106 L412 -10 C576 12 688 143 688 331 C688 529 557 676 361 676 C166 676 34 537 34 334 C34 145 144 12 310 -10 L310 -94 Z M574 337 C574 217 546 123 491 70 C456 37 412 22 362 22 C316 22 272 36 238 67 C177 123 148 213 148 332 C148 427 174 524 217 573 C256 618 306 640 360 640 C407 640 447 623 483 593 C540 545 574 451 574 337 L574 337 Z " />
<glyph glyph-name="uni03D9" unicode="ϙ" horiz-adv-x="500" d="M207 -217 L291 -217 L291 -6 C400 14 470 108 470 231 C470 369 376 460 254 460 C119 460 29 367 29 228 C29 104 104 12 207 -6 L207 -217 Z M380 204 C380 88 336 18 262 18 C226 18 194 36 172 68 C135 122 119 194 119 273 C119 373 166 432 235 432 C278 432 306 412 330 382 C362 341 380 272 380 204 L380 204 Z " />
<glyph glyph-name="uni03DA" unicode="Ϛ" horiz-adv-x="667" d="M228 -146 C276 -199 343 -218 396 -218 C514 -218 622 -147 622 -19 C622 70 572 125 489 154 C334 209 102 157 102 355 C102 504 247 618 401 618 C516 618 485 538 548 538 C591 538 606 566 606 591 C606 660 524 676 440 676 C258 676 28 519 28 306 C28 119 158 85 293 72 C393 62 543 50 543 -50 C543 -91 524 -125 496 -146 C467 -167 429 -174 390 -174 C342 -174 283 -156 249 -121 L228 -146 Z " />
<glyph glyph-name="uni03DB" unicode="ϛ" horiz-adv-x="461" d="M421 490 C391 395 279 358 236 345 C122 311 35 252 35 136 C35 27 107 -10 190 -10 C220 -10 275 -1 286 -1 C338 -1 376 -26 376 -69 C376 -118 335 -150 295 -150 C267 -150 255 -121 234 -121 C206 -121 192 -139 192 -162 C192 -200 225 -218 264 -218 C324 -218 407 -151 407 -60 C407 38 360 82 257 82 C236 82 177 66 159 66 C111 66 82 107 82 150 C82 181 97 214 132 232 C163 248 205 253 246 257 C378 269 436 330 436 490 L421 490 Z " />
<glyph glyph-name="uni03DC" unicode="Ϝ" horiz-adv-x="556" d="M546 519 L541 662 L12 662 L12 643 C89 637 99 624 99 551 L99 123 C99 36 87 24 11 19 L11 0 L292 0 L292 19 C215 23 201 36 201 112 L201 327 L449 327 L449 368 L201 368 L201 585 C201 616 206 624 235 624 L367 624 C488 624 506 608 521 519 L546 519 Z " />
<glyph glyph-name="uni03DD" unicode="ϝ" horiz-adv-x="470" d="M435 390 L435 450 L80 450 L80 -190 L160 -190 L160 90 L385 90 L385 130 L160 130 L160 390 L435 390 Z " />
<glyph glyph-name="uni03DE" unicode="Ϟ" horiz-adv-x="703" d="M678 542 L666 556 L133 365 L282 566 C339 643 352 676 352 710 C352 751 323 797 252 797 C205 797 165 774 115 725 L127 710 C164 738 188 744 216 744 C247 744 254 716 254 695 C254 681 241 645 235 635 L13 240 L26 227 L558 418 L410 217 C353 140 340 107 340 73 C340 32 369 -14 440 -14 C487 -14 527 9 577 58 L565 73 C528 45 504 39 476 39 C445 39 438 67 438 88 C438 102 451 138 457 148 L678 542 Z " />
<glyph glyph-name="uni03DF" unicode="ϟ" horiz-adv-x="511" d="M455 373 L190 373 L373 662 L273 662 L64 289 L329 289 L146 0 L246 0 L455 373 Z " />
<glyph glyph-name="uni03E0" unicode="Ϡ" horiz-adv-x="801" d="M40 508 C91 554 151 584 207 600 L207 321 L251 321 L251 610 C267 613 282 614 297 614 C404 614 518 552 581 454 C388 412 300 152 300 0 L402 0 C402 142 444 388 602 417 C641 341 664 260 664 160 C664 12 556 -152 424 -183 L424 -218 C611 -195 767 1 767 207 C767 506 565 676 354 676 C223 676 115 637 11 529 L40 508 Z " />
<glyph glyph-name="uni03E1" unicode="ϡ" horiz-adv-x="528" d="M-6 543 C104 495 203 416 280 312 L111 215 L127 187 L299 286 C310 269 321 252 331 235 C341 217 351 199 359 182 L187 83 L203 55 L373 153 C417 56 435 -30 435 -118 C435 -148 433 -179 429 -210 L462 -216 C479 -149 487 -85 487 -22 C487 88 461 190 409 280 C348 386 196 509 6 573 L-6 543 Z " />
<glyph glyph-name="uni03F0" unicode="ϰ" horiz-adv-x="551" d="M515 450 L412 450 L222 209 L220 209 C225 234 234 291 234 320 C234 399 193 460 127 460 C93 460 55 440 55 396 C55 378 72 360 91 360 C126 360 125 384 142 384 C180 384 200 346 200 297 C200 259 192 194 182 170 L42 0 L145 0 L339 241 L341 241 C333 213 325 164 325 131 C325 68 355 -10 428 -10 C468 -10 503 7 503 52 C503 72 487 88 465 88 C432 88 434 66 417 66 C385 66 359 92 359 170 C359 215 367 256 377 282 L515 450 Z " />
<glyph glyph-name="uni03F1" unicode="ϱ" horiz-adv-x="500" d="M426 -215 C430 -203 434 -182 434 -174 C434 -20 155 -142 88 79 L90 80 C118 21 174 -10 261 -10 C388 -10 470 100 470 220 C470 364 389 460 259 460 C80 460 29 293 29 178 C29 114 30 40 57 -15 C156 -212 396 -120 410 -215 L426 -215 Z M380 217 C380 133 359 18 266 18 C162 18 119 155 119 273 C119 381 168 432 240 432 C310 432 380 332 380 217 L380 217 Z " />
<glyph glyph-name="uni03F4" unicode="ϴ" horiz-adv-x="722" d="M688 331 C688 529 557 676 361 676 C166 676 34 537 34 334 C34 126 167 -14 361 -14 C553 -14 688 125 688 331 L688 331 Z M148 359 C153 445 178 528 217 573 C256 618 306 640 360 640 C407 640 447 623 483 593 C536 548 569 463 573 359 L148 359 Z M574 315 C571 205 542 119 491 70 C456 37 412 22 362 22 C316 22 272 36 238 67 C180 120 150 204 148 315 L574 315 Z " />
<glyph glyph-name="uni03F5" unicode="ϵ" horiz-adv-x="439" d="M392 113 C349 55 304 31 246 31 C162 31 115 123 115 223 L310 223 L310 255 L115 255 C115 333 168 431 239 431 C327 431 348 372 366 325 L382 325 L368 460 L352 460 C351 450 347 440 335 440 C307 440 292 460 237 460 C106 460 25 341 25 217 C25 102 101 -10 224 -10 C308 -10 371 35 407 105 L392 113 Z " />
<glyph glyph-name="uni03F6" unicode="϶" horiz-adv-x="444" d="M47 337 C90 395 135 419 193 419 C277 419 324 327 324 227 L129 227 L129 195 L324 195 C324 117 271 19 200 19 C112 19 91 78 73 125 L57 125 L71 -10 L87 -10 C88 0 92 10 104 10 C132 10 147 -10 202 -10 C333 -10 414 109 414 233 C414 348 338 460 215 460 C131 460 68 415 32 345 L47 337 Z " />
<glyph glyph-name="endash" unicode="–" horiz-adv-x="500" d="M500 201 L500 250 L0 250 L0 201 L500 201 Z " />
<glyph glyph-name="emdash" unicode="—" horiz-adv-x="1000" d="M1000 201 L1000 250 L0 250 L0 201 L1000 201 Z " />
<glyph glyph-name="uni2016" unicode="‖" horiz-adv-x="523" d="M394 -189 L394 690 L328 690 L328 -189 L394 -189 Z M195 -189 L195 690 L129 690 L129 -189 L195 -189 Z " />
<glyph glyph-name="quoteleft" unicode="‘" horiz-adv-x="333" d="M227 676 C160 643 115 582 115 522 C115 471 149 433 195 433 C230 433 254 456 254 490 C254 522 232 541 195 541 C188 541 181 540 175 539 C170 537 168 537 168 537 C160 537 154 543 154 551 C154 584 181 619 236 657 L227 676 Z " />
<glyph glyph-name="quoteright" unicode="’" horiz-adv-x="333" d="M106 433 C173 466 218 527 218 587 C218 637 183 676 138 676 C103 676 79 653 79 619 C79 587 101 568 138 568 C145 568 152 569 158 570 C163 572 165 572 165 572 C173 572 179 566 179 559 C179 525 151 489 97 452 L106 433 Z " />
<glyph glyph-name="quotedblleft" unicode="“" horiz-adv-x="444" d="M387 676 C319 643 275 582 275 522 C275 471 310 433 355 433 C390 433 414 456 414 490 C414 522 392 541 354 541 C348 541 341 540 335 539 C330 537 328 537 328 537 C320 537 314 543 314 551 C314 584 341 619 396 657 L387 676 Z M155 676 C87 643 43 582 43 522 C43 471 77 433 123 433 C158 433 182 456 182 490 C182 522 160 541 122 541 C116 541 109 540 103 539 C98 537 96 537 96 537 C88 537 82 543 82 551 C82 584 109 619 164 657 L155 676 Z " />
<glyph glyph-name="quotedblright" unicode="”" horiz-adv-x="444" d="M289 433 C356 466 401 527 401 587 C401 637 366 676 321 676 C286 676 262 653 262 619 C262 587 284 568 322 568 C328 568 335 569 341 570 C346 572 348 572 348 572 C356 572 362 566 362 559 C362 525 334 489 280 452 L289 433 Z M57 433 C124 466 169 527 169 587 C169 637 134 676 89 676 C54 676 30 653 30 619 C30 587 52 568 90 568 C96 568 103 569 109 570 C114 572 116 572 116 572 C124 572 130 566 130 559 C130 525 102 489 48 452 L57 433 Z " />
<glyph glyph-name="dagger" unicode="†" horiz-adv-x="500" d="M240 -149 L262 -149 L262 -26 C262 94 276 183 303 253 C274 284 262 340 262 438 C297 435 311 432 352 416 C373 408 392 404 405 404 C426 404 442 422 442 447 C442 472 425 491 404 491 C392 491 374 486 354 478 C312 461 299 457 262 456 C262 510 265 533 285 584 C293 604 298 620 298 631 C298 654 275 676 251 676 C227 676 204 654 204 631 C204 620 208 604 216 584 C236 533 240 511 240 456 C204 457 190 461 147 478 C127 486 110 491 98 491 C76 491 59 472 59 447 C59 419 74 404 103 404 C115 404 125 407 149 416 C189 432 205 435 240 438 C240 339 228 284 198 253 C223 185 240 65 240 -26 L240 -149 Z " />
<glyph glyph-name="daggerdbl" unicode="‡" horiz-adv-x="500" d="M442 446 C442 472 425 491 404 491 C391 491 374 486 354 478 C312 461 297 457 261 456 C261 510 265 533 285 584 C293 604 297 620 297 631 C297 654 274 676 250 676 C227 676 204 654 204 631 C204 620 208 604 216 584 C236 533 239 510 239 456 C204 457 189 461 147 478 C127 486 110 491 98 491 C76 491 59 472 59 447 C59 419 74 404 103 404 C115 404 125 406 149 416 C188 431 204 435 239 438 C239 350 229 299 199 260 C228 233 239 183 239 85 C204 88 190 91 148 107 C127 115 109 119 96 119 C74 119 58 101 58 77 C58 51 74 32 97 32 C109 32 126 37 146 45 C188 62 203 66 239 67 C239 13 235 -10 215 -61 C207 -81 203 -97 203 -108 C203 -131 226 -153 249 -153 C273 -153 296 -131 296 -108 C296 -97 292 -81 284 -61 C264 -10 261 13 261 67 C297 66 311 62 353 45 C373 37 391 32 402 32 C424 32 441 51 441 75 C441 101 425 119 403 119 C390 119 371 115 351 107 C309 91 295 88 261 85 C261 183 270 225 301 260 C270 297 261 342 261 438 C296 435 310 432 352 416 C373 408 391 404 405 404 C426 404 442 422 442 446 L442 446 Z " />
<glyph glyph-name="ellipsis" unicode="…" horiz-adv-x="1000" d="M888 43 C888 73 862 100 833 100 C802 100 777 75 777 44 C777 13 801 -11 832 -11 C862 -11 888 14 888 43 L888 43 Z M555 43 C555 73 529 100 500 100 C469 100 444 75 444 44 C444 13 468 -11 499 -11 C529 -11 555 14 555 43 L555 43 Z M222 43 C222 73 196 100 167 100 C136 100 111 75 111 44 C111 13 135 -11 166 -11 C196 -11 222 14 222 43 L222 43 Z " />
<glyph glyph-name="uni2032" unicode="′" horiz-adv-x="289" d="M75 411 L94 402 L200 606 C206 618 214 631 214 645 C214 662 205 678 186 678 C157 678 149 656 142 632 L75 411 Z " />
<glyph glyph-name="uni2033" unicode="″" horiz-adv-x="426" d="M212 411 L230 402 L337 607 C343 619 351 632 351 646 C351 663 342 678 323 678 C294 678 285 657 278 633 L212 411 Z M75 410 L93 401 L200 606 C206 618 214 631 214 645 C214 662 205 678 186 678 C157 678 148 656 141 632 L75 410 Z " />
<glyph glyph-name="uni2034" unicode="‴" horiz-adv-x="563" d="M349 411 L367 402 L474 607 C480 619 488 632 488 646 C488 663 479 678 460 678 C431 678 422 657 415 633 L349 411 Z M212 411 L230 402 L337 607 C343 619 351 632 351 646 C351 663 342 678 323 678 C294 678 285 657 278 633 L212 411 Z M75 410 L93 401 L200 606 C206 618 214 631 214 645 C214 662 205 678 186 678 C157 678 148 656 141 632 L75 410 Z " />
<glyph glyph-name="uni2035" unicode="‵" horiz-adv-x="289" d="M214 411 L147 632 C140 656 132 678 103 678 C84 678 75 662 75 645 C75 631 83 618 89 606 L195 402 L214 411 Z " />
<glyph glyph-name="uni203E" unicode="‾" horiz-adv-x="500" d="M500 770 L500 820 L0 820 L0 770 L500 770 Z " />
<glyph glyph-name="fraction" unicode="⁄" horiz-adv-x="167" d="M331 676 L285 676 L-168 -14 L-119 -14 L331 676 Z " />
<glyph glyph-name="uni2057" unicode="⁗" horiz-adv-x="710" d="M496 411 L514 402 L621 607 C627 619 635 632 635 646 C635 663 626 678 607 678 C578 678 569 657 562 633 L496 411 Z M349 411 L367 402 L474 607 C480 619 488 632 488 646 C488 663 479 678 460 678 C431 678 422 657 415 633 L349 411 Z M212 411 L230 402 L337 607 C343 619 351 632 351 646 C351 663 342 678 323 678 C294 678 285 657 278 633 L212 411 Z M75 410 L93 401 L200 606 C206 618 214 631 214 645 C214 662 205 678 186 678 C157 678 148 656 141 632 L75 410 Z " />
<glyph glyph-name="uni20D7" unicode="⃗" d="M-17 654 L-150 760 L-168 752 C-139 723 -118 705 -118 696 C-118 683 -139 681 -167 681 L-453 681 L-453 627 L-167 627 C-134 627 -118 624 -118 612 C-118 605 -135 583 -167 556 L-149 548 L-17 654 Z " />
<glyph glyph-name="uni210F" unicode="ℏ" horiz-adv-x="579" d="M532 117 C483 59 461 50 444 50 C435 50 431 57 431 67 C431 81 437 105 442 122 L493 301 C501 328 504 352 504 372 C504 430 476 460 416 460 C357 460 281 409 197 246 L196 246 L266 504 L410 556 L422 600 L278 547 L291 593 C300 626 308 654 317 681 L309 683 C271 669 236 656 152 639 L152 624 C182 624 209 622 209 602 C209 595 209 585 205 573 L186 513 L89 478 L80 435 L174 469 L47 0 L131 0 C175 156 197 208 241 273 C296 354 349 406 381 406 C410 406 418 388 418 362 C418 343 413 315 409 300 L369 156 C359 119 345 66 345 46 C345 9 365 -10 398 -10 C435 -10 487 18 547 107 L532 117 Z " />
<glyph glyph-name="uni2111" unicode="ℑ" horiz-adv-x="762" d="M688 674 C681 660 654 616 604 616 C488 616 459 695 308 695 C179 695 91 599 91 497 C91 411 154 352 257 352 C285 352 305 357 334 372 L326 394 C306 385 283 380 261 380 C213 380 159 413 159 481 C159 562 226 595 276 595 C390 595 429 516 546 516 C661 516 695 607 711 667 L688 674 Z M703 417 C678 447 655 473 589 473 C523 473 454 423 454 347 C454 241 547 197 547 98 C547 47 505 4 439 4 C384 4 350 29 330 87 C308 152 284 228 188 228 C111 228 54 142 45 103 L68 97 C82 126 110 148 138 148 C158 148 179 132 194 98 C210 61 229 32 264 6 C300 -21 344 -34 431 -34 C560 -34 670 51 670 152 C670 247 563 317 563 373 C563 412 593 431 620 431 C640 431 658 425 685 401 L703 417 Z " />
<glyph glyph-name="uni2113" unicode="ℓ" horiz-adv-x="579" d="M77 389 C104 370 135 361 165 360 C151 338 137 316 125 294 C78 212 48 131 48 76 C48 18 88 -11 135 -11 C198 -11 257 46 362 169 L341 186 C244 74 189 19 142 19 C115 19 106 38 106 62 C106 129 197 276 249 360 C425 386 571 515 571 620 C571 666 549 687 507 687 C425 687 290 545 185 390 C155 390 124 392 91 415 L77 389 Z M268 396 C320 477 375 558 424 608 C449 634 478 655 506 655 C529 655 541 643 541 624 C541 528 426 430 269 395 L268 396 Z " />
<glyph glyph-name="uni2118" unicode="℘" horiz-adv-x="826" d="M439 462 C439 518 392 547 339 547 C178 547 52 407 52 279 C52 212 84 149 167 114 C148 83 132 52 120 21 C106 -15 91 -67 91 -113 C91 -170 115 -217 190 -217 C292 -217 376 -123 376 -13 C376 64 327 92 269 111 C358 246 524 422 631 422 C694 422 708 367 708 326 C708 209 635 18 537 18 C505 18 483 29 483 55 C483 75 517 82 517 116 C517 145 496 160 473 160 C436 160 415 125 415 90 C415 45 449 -10 530 -10 C585 -10 637 13 681 54 C751 119 799 223 799 308 C799 404 739 450 651 450 C590 450 521 443 446 399 C396 370 346 331 300 284 C258 242 219 195 187 146 C161 160 142 193 142 260 C142 420 259 505 348 505 C380 505 420 493 424 462 L439 462 Z M306 -11 C306 -75 262 -186 206 -186 C176 -186 171 -165 171 -136 C171 -63 243 71 249 76 C286 63 306 20 306 -11 L306 -11 Z " />
<glyph glyph-name="uni211C" unicode="ℜ" horiz-adv-x="874" d="M813 114 C800 100 770 69 759 69 C668 69 740 304 617 381 L617 383 C701 415 741 481 741 555 C741 633 675 704 545 704 L412 607 C374 655 313 695 235 695 C135 695 50 639 50 540 C50 448 164 436 164 350 C164 307 117 278 89 269 L98 247 C184 268 264 332 264 401 C264 513 149 498 149 597 C149 631 174 664 216 664 C317 664 324 481 324 405 C324 293 324 89 273 89 C260 89 173 138 153 150 L59 5 L81 -9 C98 17 118 34 125 40 C139 38 216 -6 243 -22 C340 73 412 202 440 322 L514 340 C560 325 566 252 566 187 C566 113 588 3 665 -22 L679 -22 C726 5 799 63 829 94 L813 114 Z M444 357 C447 389 448 436 448 465 C448 494 439 542 428 573 C467 612 492 627 531 627 C595 627 624 570 624 531 C624 468 593 389 477 364 L444 357 Z " />
<glyph glyph-name="uni2127" unicode="℧" horiz-adv-x="744" d="M715 504 L715 662 L429 662 L436 512 C521 491 577 380 577 273 C577 131 503 22 372 22 C236 22 167 153 167 273 C167 371 219 487 307 512 L316 662 L29 662 L29 502 L48 502 C49 563 72 578 116 578 L265 578 L263 541 C124 502 53 420 53 275 C53 133 170 -14 372 -14 C570 -14 691 126 691 275 C691 421 613 503 478 541 L476 578 L647 578 C686 578 694 554 696 504 L715 504 Z " />
<glyph glyph-name="uni2132" unicode="Ⅎ" horiz-adv-x="535" d="M462 0 L462 662 L375 662 L375 351 L79 351 L79 276 L375 276 L375 75 L13 75 L22 0 L462 0 Z " />
<glyph glyph-name="uni2135" unicode="ℵ" horiz-adv-x="682" d="M493 265 L541 466 C556 451 574 436 582 421 C588 410 590 401 590 385 L615 385 C623 404 634 434 634 455 C634 484 624 522 582 562 L531 610 C508 632 491 648 491 667 C491 670 492 674 493 677 L469 677 C455 657 447 634 447 611 C447 570 466 530 509 495 L458 293 L159 576 C127 606 95 632 95 660 C95 666 96 671 99 677 L75 677 C60 660 43 629 43 596 C43 563 60 529 83 507 L166 426 C110 390 60 339 60 259 C60 134 160 132 160 74 C160 36 89 25 60 24 L60 0 L136 0 C222 0 269 35 269 85 C269 125 240 146 212 177 C178 215 162 246 162 291 C162 328 172 365 192 400 L496 119 C515 101 574 50 587 11 C589 4 590 -5 590 -13 L615 -13 C630 23 634 54 634 79 C634 115 610 148 587 171 L493 265 Z " />
<glyph glyph-name="uni2136" unicode="ℶ" horiz-adv-x="639" d="M554 120 C540 106 500 102 486 102 C509 192 541 323 541 411 C541 557 479 617 355 617 C296 617 253 597 197 597 C161 597 135 622 135 657 C135 663 136 670 138 677 L114 677 C89 657 76 628 76 586 C76 541 113 495 209 495 C263 495 304 508 347 508 C422 508 473 468 473 290 C473 230 463 140 451 102 L218 102 C154 102 97 80 57 -6 L77 -19 C102 -1 144 0 173 0 L459 0 C523 0 569 41 572 108 L554 120 Z " />
<glyph glyph-name="uni2137" unicode="ℷ" horiz-adv-x="505" d="M167 677 C145 657 130 638 130 589 C130 546 168 494 262 494 C297 494 319 448 319 394 C319 355 317 311 309 253 C275 162 225 102 169 100 C118 98 73 65 40 -6 L60 -19 C85 -1 126 0 155 0 C189 0 214 6 235 27 C272 64 300 131 315 183 L317 183 C339 61 413 56 413 -13 L437 -13 C453 10 463 31 463 79 C463 150 354 215 354 293 C354 364 379 433 379 499 C379 556 360 600 287 600 C212 600 189 627 189 659 C189 665 190 671 191 677 L167 677 Z " />
<glyph glyph-name="uni2138" unicode="ℸ" horiz-adv-x="599" d="M90 677 C65 657 52 628 52 586 C52 557 67 531 94 515 C117 501 149 495 192 495 C246 495 322 508 363 508 C398 508 417 505 435 498 C405 454 344 382 344 283 C344 240 358 147 359 84 C359 62 353 24 341 -8 L363 -19 C423 5 465 62 465 120 C465 214 432 259 432 375 C432 419 452 466 472 486 C486 499 495 518 495 536 C495 577 463 617 371 617 C312 617 229 597 173 597 C137 597 111 622 111 657 C111 663 112 670 114 677 L90 677 Z " />
<glyph glyph-name="uni2141" unicode="⅁" horiz-adv-x="695" d="M68 305 L263 305 L241 381 L155 381 L155 539 C155 567 195 600 316 600 C488 600 579 462 579 326 C579 193 492 62 322 62 C234 62 150 93 99 200 L80 200 L80 97 C138 13 235 -14 322 -14 C522 -14 668 134 668 329 C668 530 532 676 320 676 C174 676 124 640 68 603 L68 305 Z " />
<glyph glyph-name="uni2190" unicode="←" horiz-adv-x="926" d="M857 220 L857 286 L259 286 C241 286 233 296 233 306 C233 314 238 325 247 334 C277 365 306 397 329 430 L309 449 C243 373 167 299 71 258 L71 248 C167 208 243 133 308 58 L328 77 C306 110 275 145 246 173 C236 183 232 189 232 198 C232 208 248 220 258 220 L857 220 Z " />
<glyph glyph-name="uni2191" unicode="↑" horiz-adv-x="511" d="M451 424 C375 490 301 566 260 662 L250 662 C210 566 135 490 60 425 L79 405 C112 427 147 458 175 487 C185 497 191 501 200 501 C210 501 222 485 222 475 L222 -156 L288 -156 L288 474 C288 492 298 500 308 500 C316 500 327 495 336 486 C367 456 399 427 432 404 L451 424 Z " />
<glyph glyph-name="uni2192" unicode="→" horiz-adv-x="926" d="M856 258 C760 298 684 373 619 448 L599 429 C621 396 652 361 681 333 C691 323 695 317 695 308 C695 298 679 286 669 286 L70 286 L70 220 L668 220 C686 220 694 210 694 200 C694 192 689 181 680 172 C650 141 621 109 598 76 L618 57 C684 133 760 207 856 248 L856 258 Z " />
<glyph glyph-name="uni2193" unicode="↓" horiz-adv-x="511" d="M432 101 C399 79 364 48 336 19 C326 9 320 5 311 5 C301 5 289 21 289 31 L289 662 L223 662 L223 32 C223 14 213 6 203 6 C195 6 184 11 175 20 C144 50 112 79 79 102 L60 82 C136 16 210 -60 251 -156 L261 -156 C301 -60 376 16 451 81 L432 101 Z " />
<glyph glyph-name="uni2194" unicode="↔" horiz-adv-x="926" d="M888 258 C792 298 716 373 651 448 L631 429 C653 396 684 361 713 333 C723 323 727 317 727 308 C727 298 711 286 701 286 L226 286 C208 286 200 296 200 306 C200 314 205 325 214 334 C244 365 273 397 296 430 L276 449 C210 373 134 299 38 258 L38 248 C134 208 210 133 275 58 L295 77 C273 110 242 145 213 173 C203 183 199 189 199 198 C199 208 215 220 225 220 L700 220 C718 220 726 210 726 200 C726 192 721 181 712 172 C682 141 653 109 630 76 L650 57 C716 133 792 207 888 248 L888 258 Z " />
<glyph glyph-name="uni2195" unicode="↕" horiz-adv-x="511" d="M451 492 C375 558 302 634 261 730 L251 730 C211 634 136 558 61 493 L80 473 C113 495 148 526 176 555 C186 565 192 569 201 569 C211 569 223 553 223 543 L223 -35 C223 -53 213 -61 203 -61 C195 -61 184 -56 175 -47 C144 -17 112 12 79 35 L60 15 C136 -51 210 -128 251 -224 L261 -224 C301 -128 375 -51 450 14 L431 34 C398 12 364 -19 336 -48 C326 -58 320 -62 311 -62 C301 -62 289 -46 289 -36 L289 542 C289 560 299 568 309 568 C317 568 328 563 337 554 C368 524 399 495 432 472 L451 492 Z " />
<glyph glyph-name="uni2196" unicode="↖" horiz-adv-x="926" d="M856 -109 L236 542 C224 554 220 562 220 568 C220 573 223 578 226 581 C231 587 243 591 255 591 C299 591 342 594 381 601 L381 629 C353 627 324 625 295 625 C221 625 147 634 77 662 L70 655 C99 586 107 511 107 437 C107 409 105 380 103 353 L131 352 C139 391 141 438 141 478 C141 492 142 499 149 506 C152 509 156 510 161 510 C169 510 179 507 183 503 L808 -156 L856 -109 Z " />
<glyph glyph-name="uni2197" unicode="↗" horiz-adv-x="926" d="M849 662 C779 634 705 625 631 625 C602 625 573 627 545 629 L545 601 C584 594 627 591 671 591 C683 591 695 587 700 581 C703 578 706 573 706 568 C706 562 702 554 690 542 L70 -109 L118 -156 L743 503 C747 507 757 510 765 510 C770 510 774 509 777 506 C784 499 785 492 785 478 C785 438 787 391 795 352 L823 353 C821 380 819 409 819 437 C819 511 827 586 856 655 L849 662 Z " />
<glyph glyph-name="uni2198" unicode="↘" horiz-adv-x="926" d="M856 -149 C827 -80 819 -5 819 69 C819 97 821 126 823 153 L795 154 C787 115 785 68 785 28 C785 14 784 7 777 0 C774 -3 770 -4 765 -4 C757 -4 747 -1 743 3 L118 662 L70 615 L690 -36 C702 -48 706 -56 706 -62 C706 -67 703 -72 700 -75 C695 -81 683 -85 671 -85 C627 -85 584 -88 545 -95 L545 -123 C573 -121 602 -119 631 -119 C705 -119 779 -128 849 -156 L856 -149 Z " />
<glyph glyph-name="uni2199" unicode="↙" horiz-adv-x="926" d="M856 615 L808 662 L183 3 C179 -1 169 -4 161 -4 C156 -4 152 -3 149 0 C142 7 141 14 141 28 C141 68 139 115 131 154 L103 153 C105 126 107 97 107 69 C107 -5 99 -80 70 -149 L77 -156 C147 -128 221 -119 295 -119 C324 -119 353 -121 381 -123 L381 -95 C342 -88 299 -85 255 -85 C243 -85 231 -81 226 -75 C223 -72 220 -67 220 -62 C220 -56 224 -48 236 -36 L856 615 Z " />
<glyph glyph-name="uni219A" unicode="↚" horiz-adv-x="926" d="M866 220 L866 286 L601 286 L697 450 L639 450 L543 286 L248 286 C230 286 222 296 222 306 C222 314 227 325 236 334 C266 365 295 398 318 431 L298 450 C232 374 156 299 60 258 L60 248 C156 208 232 133 297 58 L317 77 C295 110 264 145 235 173 C225 183 221 189 221 198 C221 208 237 220 247 220 L504 220 L409 58 L467 58 L562 220 L866 220 Z " />
<glyph glyph-name="uni219B" unicode="↛" horiz-adv-x="926" d="M866 258 C770 299 694 374 628 450 L608 431 C631 398 660 365 690 334 C699 325 704 314 704 306 C704 296 696 286 678 286 L414 286 L510 450 L452 450 L356 286 L60 286 L60 220 L317 220 L222 58 L280 58 L375 220 L679 220 C689 220 705 208 705 198 C705 189 701 183 691 173 C662 145 631 110 609 77 L629 58 C694 133 770 208 866 248 L866 258 Z " />
<glyph glyph-name="uni219E" unicode="↞" horiz-adv-x="926" d="M856 220 L856 286 L465 286 C447 286 439 296 439 306 C439 314 444 325 453 334 C483 365 512 397 535 430 L515 449 C462 388 403 329 332 286 L258 286 C240 286 232 296 232 306 C232 314 237 325 246 334 C276 365 305 397 328 430 L308 449 C242 373 166 299 70 258 L70 248 C166 208 242 133 307 58 L327 77 C305 110 274 145 245 173 C235 183 231 189 231 198 C231 208 247 220 257 220 L333 220 C403 178 462 118 514 58 L534 77 C512 110 481 145 452 173 C442 183 438 189 438 198 C438 208 454 220 464 220 L856 220 Z " />
<glyph glyph-name="uni21A0" unicode="↠" horiz-adv-x="926" d="M856 258 C760 299 684 373 618 449 L598 430 C621 397 650 365 680 334 C689 325 694 314 694 306 C694 296 686 286 668 286 L594 286 C523 329 464 388 411 449 L391 430 C414 397 443 365 473 334 C482 325 487 314 487 306 C487 296 479 286 461 286 L70 286 L70 220 L462 220 C472 220 488 208 488 198 C488 189 484 183 474 173 C445 145 414 110 392 77 L412 58 C464 118 523 178 593 220 L669 220 C679 220 695 208 695 198 C695 189 691 183 681 173 C652 145 621 110 599 77 L619 58 C684 133 760 208 856 248 L856 258 Z " />
<glyph glyph-name="uni21A2" unicode="↢" horiz-adv-x="926" d="M836 449 C783 388 724 329 653 286 L258 286 C240 286 232 296 232 306 C232 314 237 325 246 334 C276 365 305 397 328 430 L308 449 C242 373 166 299 70 258 L70 248 C166 208 242 133 307 58 L327 77 C305 110 274 145 245 173 C235 183 231 189 231 198 C231 208 247 220 257 220 L654 220 C724 178 783 118 835 58 L855 77 C833 110 800 143 773 173 C763 185 745 209 745 253 C745 285 761 317 774 334 C801 368 833 397 856 430 L836 449 Z " />
<glyph glyph-name="uni21A3" unicode="↣" horiz-adv-x="926" d="M856 258 C760 299 684 373 618 449 L598 430 C621 397 650 365 680 334 C689 325 694 314 694 306 C694 296 686 286 668 286 L273 286 C202 329 143 388 90 449 L70 430 C93 397 125 368 152 334 C165 317 181 285 181 253 C181 209 163 185 153 173 C126 143 93 110 71 77 L91 58 C143 118 202 178 272 220 L669 220 C679 220 695 208 695 198 C695 189 691 183 681 173 C652 145 621 110 599 77 L619 58 C684 133 760 208 856 248 L856 258 Z " />
<glyph glyph-name="uni21A6" unicode="↦" horiz-adv-x="926" d="M857 258 C761 298 685 375 620 450 L600 431 C622 398 653 361 682 333 C692 323 696 317 696 308 C696 298 688 286 670 286 L120 286 L120 450 L70 450 L70 57 L120 57 L120 220 L669 220 C687 220 695 210 695 200 C695 192 690 181 681 172 C651 141 622 109 599 76 L619 57 C685 133 761 207 857 248 L857 258 Z " />
<glyph glyph-name="uni21A9" unicode="↩" horiz-adv-x="926" d="M599 553 L599 487 L694 487 C753 487 790 446 790 385 C790 320 736 286 676 286 L255 286 C241 286 231 299 231 308 C231 317 235 323 245 333 C274 361 305 396 327 429 L307 448 C242 373 166 298 70 258 L70 248 C166 207 242 133 308 57 L328 76 C305 109 276 141 246 172 C237 181 232 192 232 200 C232 209 236 220 254 220 L680 220 C758 220 856 273 856 386 C856 492 773 553 697 553 L599 553 Z " />
<glyph glyph-name="uni21AA" unicode="↪" horiz-adv-x="926" d="M856 258 C760 298 684 373 619 448 L599 429 C621 396 652 361 681 333 C691 323 695 317 695 308 C695 299 687 286 671 286 L250 286 C190 286 136 320 136 385 C136 446 173 487 232 487 L327 487 L327 553 L229 553 C153 553 70 492 70 386 C70 273 168 220 246 220 L672 220 C687 220 694 209 694 200 C694 192 689 181 680 172 C650 141 621 109 598 76 L618 57 C684 133 760 207 856 248 L856 258 Z " />
<glyph glyph-name="uni21AB" unicode="↫" horiz-adv-x="926" d="M529 286 L255 286 C245 287 231 299 231 308 C231 317 235 323 245 333 C274 361 305 396 327 429 L307 448 C242 373 166 298 70 258 L70 248 C166 207 242 133 308 57 L328 76 C305 109 276 141 246 172 C237 181 232 192 232 200 C232 209 239 218 254 220 L529 220 L529 0 L595 0 L595 220 L680 220 C758 220 856 273 856 386 C856 492 773 553 697 553 C611 553 529 488 529 372 L529 286 Z M595 286 L595 374 C595 447 641 487 694 487 C753 487 790 446 790 385 C790 320 736 286 676 286 L595 286 Z " />
<glyph glyph-name="uni21AC" unicode="↬" horiz-adv-x="926" d="M856 258 C760 298 684 373 619 448 L599 429 C621 396 652 361 681 333 C691 323 695 317 695 308 C695 299 681 287 671 286 L397 286 L397 372 C397 488 315 553 229 553 C153 553 70 492 70 386 C70 273 168 220 246 220 L331 220 L331 0 L397 0 L397 220 L672 220 C687 218 694 209 694 200 C694 192 689 181 680 172 C650 141 621 109 598 76 L618 57 C684 133 760 207 856 248 L856 258 Z M331 286 L250 286 C190 286 136 320 136 385 C136 446 173 487 232 487 C285 487 331 447 331 374 L331 286 Z " />
<glyph glyph-name="uni21AD" unicode="↭" horiz-adv-x="1200" d="M1151 258 C1055 299 979 373 913 449 L893 430 C916 397 945 365 975 334 C984 325 989 314 989 306 C989 296 981 286 963 286 L903 286 C826 286 807 180 762 180 C707 180 697 394 600 394 C503 394 494 180 439 180 C394 180 375 286 297 286 L237 286 C219 286 211 296 211 306 C211 314 216 325 225 334 C255 365 284 397 307 430 L287 449 C221 373 145 299 49 258 L49 248 C145 208 221 133 286 58 L306 77 C284 110 253 145 224 173 C214 183 210 189 210 198 C210 207 226 220 234 220 L297 220 C353 220 378 114 439 114 C526 114 545 328 600 328 C655 328 675 114 762 114 C823 114 848 220 903 220 L966 220 C974 220 990 207 990 198 C990 189 986 183 976 173 C947 145 916 110 894 77 L914 58 C979 133 1055 208 1151 248 L1151 258 Z " />
<glyph glyph-name="uni21AE" unicode="↮" horiz-adv-x="926" d="M888 258 C792 298 716 375 651 450 L631 431 C653 398 684 361 713 333 C723 323 727 317 727 308 C727 298 711 286 701 286 L505 286 L574 450 L520 450 L451 286 L226 286 C208 286 200 296 200 306 C200 314 205 325 214 334 C244 365 273 398 296 431 L276 450 C210 374 134 299 38 258 L38 248 C134 208 210 133 275 58 L295 77 C273 110 242 145 213 173 C203 183 199 189 199 198 C199 208 215 220 225 220 L423 220 L354 58 L408 58 L477 220 L700 220 C718 220 726 210 726 200 C726 192 721 181 712 172 C682 141 653 110 630 77 L650 58 C716 134 792 207 888 248 L888 258 Z " />
<glyph glyph-name="uni21B0" unicode="↰" horiz-adv-x="463" d="M424 -156 L424 508 L228 508 C210 508 202 518 202 528 C202 536 207 552 216 561 C246 592 265 610 288 643 L268 662 C202 586 126 521 30 480 L30 470 C126 430 202 364 267 289 L287 308 C265 341 244 367 215 395 C205 405 201 411 201 420 C201 430 209 442 227 442 L358 442 L358 -156 L424 -156 Z " />
<glyph glyph-name="uni21B1" unicode="↱" horiz-adv-x="463" d="M433 480 C337 521 261 586 195 662 L175 643 C198 610 217 592 247 561 C256 552 261 536 261 528 C261 518 253 508 235 508 L39 508 L39 -156 L105 -156 L105 442 L236 442 C254 442 262 430 262 420 C262 411 258 405 248 395 C219 367 198 341 176 308 L196 289 C261 364 337 430 433 470 L433 480 Z " />
<glyph glyph-name="uni21B6" unicode="↶" horiz-adv-x="926" d="M882 192 C882 380 728 534 542 534 C351 534 196 380 196 192 C196 177 194 161 181 161 C174 161 169 165 159 175 C131 204 96 235 63 257 L44 237 C119 172 184 96 224 0 L234 0 C275 96 339 172 415 238 L396 258 C363 235 331 207 300 176 C291 167 286 162 280 162 C270 162 262 170 262 193 C262 345 386 468 539 468 C692 468 816 345 816 192 L882 192 Z " />
<glyph glyph-name="uni21B7" unicode="↷" horiz-adv-x="926" d="M863 257 C830 235 795 204 767 175 C757 165 752 161 745 161 C732 161 730 177 730 192 C730 380 575 534 384 534 C198 534 44 380 44 192 L110 192 C110 345 234 468 387 468 C540 468 664 345 664 193 C664 170 656 162 646 162 C640 162 635 167 626 176 C595 207 563 235 530 258 L511 238 C587 172 651 96 692 0 L702 0 C742 96 807 172 882 237 L863 257 Z " />
<glyph glyph-name="uni21BA" unicode="↺" horiz-adv-x="974" d="M817 686 C728 645 633 609 533 609 L521 609 L517 600 C587 524 626 427 656 329 L682 338 C674 380 661 419 647 459 C645 465 642 472 642 478 C642 490 650 500 662 500 C666 500 670 499 673 497 C747 445 792 344 792 255 C792 87 654 -49 486 -49 C320 -49 181 85 181 252 C181 383 271 506 395 547 L373 608 C220 559 116 414 116 254 C116 49 282 -116 487 -116 C692 -116 858 49 858 254 C858 342 826 429 769 497 C747 523 722 544 695 564 C690 568 687 571 687 578 C687 584 691 590 695 594 C701 599 707 602 714 605 C752 623 791 640 828 661 L817 686 Z " />
<glyph glyph-name="uni21BB" unicode="↻" horiz-adv-x="974" d="M579 547 C703 506 793 383 793 252 C793 85 654 -49 488 -49 C320 -49 182 87 182 255 C182 344 227 445 301 497 C304 499 308 500 312 500 C324 500 332 490 332 478 C332 472 329 465 327 459 C313 419 300 380 292 338 L318 329 C348 427 387 524 457 600 L453 609 L441 609 C341 609 246 645 157 686 L146 661 C183 640 222 623 260 605 C267 602 273 599 279 594 C283 590 287 584 287 578 C287 571 284 568 279 564 C252 544 227 523 205 497 C148 429 116 342 116 254 C116 49 282 -116 487 -116 C692 -116 858 49 858 254 C858 414 754 559 601 608 L579 547 Z " />
<glyph glyph-name="uni21BC" unicode="↼" horiz-adv-x="955" d="M901 220 L901 286 L296 286 C257 286 253 302 253 318 C253 345 317 406 375 472 L352 494 C253 397 181 318 54 224 L54 220 L901 220 Z " />
<glyph glyph-name="uni21BD" unicode="↽" horiz-adv-x="955" d="M901 220 L901 286 L54 286 L54 282 C181 188 253 109 352 12 L375 34 C317 100 253 161 253 188 C253 204 257 220 296 220 L901 220 Z " />
<glyph glyph-name="uni21BE" unicode="↾" horiz-adv-x="511" d="M441 424 C366 484 273 566 227 662 L222 662 L222 -156 L288 -156 L288 464 C288 482 292 490 302 490 C310 490 317 485 326 476 C357 446 389 427 422 404 L441 424 Z " />
<glyph glyph-name="uni21BF" unicode="↿" horiz-adv-x="511" d="M288 -156 L288 662 L283 662 C237 566 144 484 69 424 L88 404 C121 427 153 446 184 476 C193 485 200 490 208 490 C218 490 222 482 222 464 L222 -156 L288 -156 Z " />
<glyph glyph-name="uni21C0" unicode="⇀" horiz-adv-x="955" d="M901 220 L901 224 C774 318 702 397 603 494 L580 472 C638 406 702 345 702 318 C702 302 698 286 659 286 L54 286 L54 220 L901 220 Z " />
<glyph glyph-name="uni21C1" unicode="⇁" horiz-adv-x="955" d="M901 286 L54 286 L54 220 L659 220 C698 220 702 204 702 188 C702 161 638 100 580 34 L603 12 C702 109 774 188 901 282 L901 286 Z " />
<glyph glyph-name="uni21C2" unicode="⇂" horiz-adv-x="511" d="M422 102 C389 79 357 60 326 30 C317 21 310 16 302 16 C292 16 288 24 288 42 L288 662 L222 662 L222 -156 L227 -156 C273 -60 366 22 441 82 L422 102 Z " />
<glyph glyph-name="uni21C3" unicode="⇃" horiz-adv-x="511" d="M288 -156 L288 662 L222 662 L222 40 C222 22 218 14 208 14 C200 14 193 19 184 28 C153 58 121 77 88 100 L69 80 C144 20 237 -60 283 -156 L288 -156 Z " />
<glyph glyph-name="uni21C4" unicode="⇄" horiz-adv-x="926" d="M856 418 C760 458 685 523 620 598 L600 579 C622 546 647 521 676 493 C686 483 690 477 690 468 C690 452 673 446 663 446 L80 446 L80 380 L664 380 C682 380 690 370 690 360 C690 352 685 341 676 332 C646 301 623 277 600 247 L620 228 C686 301 760 367 856 408 L856 418 Z M847 60 L847 126 L263 126 C245 126 237 136 237 146 C237 154 242 165 251 174 C281 205 304 229 327 259 L307 278 C241 205 167 139 71 98 L71 88 C167 48 242 -17 307 -92 L327 -73 C305 -40 280 -15 251 13 C241 23 237 29 237 38 C237 54 254 60 264 60 L847 60 Z " />
<glyph glyph-name="uni21C6" unicode="⇆" horiz-adv-x="926" d="M847 380 L847 446 L264 446 C254 446 237 452 237 468 C237 477 241 483 251 493 C280 521 305 546 327 579 L307 598 C242 523 167 458 71 418 L71 408 C167 367 241 301 307 228 L327 247 C304 277 281 301 251 332 C242 341 237 352 237 360 C237 370 245 380 263 380 L847 380 Z M856 98 C760 139 686 205 620 278 L600 259 C623 229 646 205 676 174 C685 165 690 154 690 146 C690 136 682 126 664 126 L80 126 L80 60 L663 60 C673 60 690 54 690 38 C690 29 686 23 676 13 C647 -15 622 -40 600 -73 L620 -92 C685 -17 760 48 856 88 L856 98 Z " />
<glyph glyph-name="uni21C7" unicode="⇇" horiz-adv-x="926" d="M856 60 L856 126 L263 126 C245 126 237 136 237 146 C237 154 242 165 251 174 C271 195 291 214 325 253 C289 298 270 314 250 333 C240 343 237 349 237 358 C237 368 252 380 262 380 L856 380 L856 446 L263 446 C245 446 237 456 237 466 C237 474 242 485 251 494 C281 525 305 547 328 580 L308 599 C242 523 166 459 70 418 L70 408 C155 372 224 318 284 253 C224 189 154 134 70 98 L70 88 C166 48 242 -17 307 -92 L327 -73 C305 -40 280 -15 251 13 C241 23 237 29 237 38 C237 48 244 60 262 60 L856 60 Z " />
<glyph glyph-name="uni21C8" unicode="⇈" horiz-adv-x="773" d="M732 424 C656 490 592 566 551 662 L541 662 C505 577 451 508 386 448 C322 508 267 578 231 662 L221 662 C181 566 116 490 41 425 L60 405 C93 427 118 452 146 481 C156 491 162 495 171 495 C181 495 193 488 193 470 L193 -156 L259 -156 L259 469 C259 487 269 495 279 495 C287 495 298 490 307 481 C328 461 347 441 386 407 C431 443 447 462 466 482 C476 492 482 495 491 495 C501 495 513 480 513 470 L513 -156 L579 -156 L579 469 C579 487 589 495 599 495 C607 495 618 490 627 481 C658 451 680 427 713 404 L732 424 Z " />
<glyph glyph-name="uni21C9" unicode="⇉" horiz-adv-x="926" d="M856 98 C772 134 702 189 642 253 C702 318 771 372 856 408 L856 418 C760 459 684 523 618 599 L598 580 C621 547 645 525 675 494 C684 485 689 474 689 466 C689 456 681 446 663 446 L70 446 L70 380 L664 380 C674 380 689 368 689 358 C689 349 686 343 676 333 C656 314 637 298 601 253 C635 214 655 195 675 174 C684 165 689 154 689 146 C689 136 681 126 663 126 L70 126 L70 60 L664 60 C682 60 689 48 689 38 C689 29 685 23 675 13 C646 -15 621 -40 599 -73 L619 -92 C684 -17 760 48 856 88 L856 98 Z " />
<glyph glyph-name="uni21CA" unicode="⇊" horiz-adv-x="773" d="M713 102 C680 79 658 55 627 25 C618 16 607 11 599 11 C589 11 579 19 579 37 L579 662 L513 662 L513 36 C513 26 501 11 491 11 C482 11 476 14 466 24 C447 44 431 63 386 99 C347 65 328 45 307 25 C298 16 287 11 279 11 C269 11 259 19 259 37 L259 662 L193 662 L193 36 C193 18 181 11 171 11 C162 11 156 15 146 25 C118 54 93 79 60 101 L41 81 C116 16 181 -60 221 -156 L231 -156 C267 -72 322 -2 386 58 C451 -2 505 -71 541 -156 L551 -156 C592 -60 656 16 732 82 L713 102 Z " />
<glyph glyph-name="uni21CB" unicode="⇋" horiz-adv-x="926" d="M856 320 L856 386 L268 386 C250 386 242 390 242 400 C242 408 247 415 256 424 C286 455 305 487 328 520 L308 539 C248 464 166 371 70 325 L70 320 L856 320 Z M856 186 L70 186 L70 120 L658 120 C676 120 684 116 684 106 C684 98 679 91 670 82 C640 51 621 19 598 -14 L618 -33 C678 42 760 135 856 181 L856 186 Z " />
<glyph glyph-name="uni21CC" unicode="⇌" horiz-adv-x="926" d="M856 320 L856 325 C760 371 678 464 618 539 L598 520 C621 487 640 455 670 424 C679 415 684 408 684 400 C684 390 676 386 658 386 L70 386 L70 320 L856 320 Z M856 120 L856 186 L70 186 L70 181 C166 135 248 42 308 -33 L328 -14 C305 19 286 51 256 82 C247 91 242 98 242 106 C242 116 250 120 268 120 L856 120 Z " />
<glyph glyph-name="uni21CD" unicode="⇍" horiz-adv-x="926" d="M866 120 L866 186 L655 186 L716 320 L866 320 L866 386 L746 386 L822 551 L767 551 L691 386 L376 386 C358 386 350 400 350 408 C350 428 358 434 372 449 C397 475 423 503 447 531 L426 551 C309 435 181 350 60 258 L60 248 C183 156 309 71 426 -45 L447 -25 C423 3 384 45 373 56 C356 73 350 82 350 98 C350 106 358 120 376 120 L570 120 L496 -44 L551 -44 L625 120 L866 120 Z M661 320 L600 186 L231 186 C199 208 173 229 173 253 C173 277 199 301 232 320 L661 320 Z " />
<glyph glyph-name="uni21CE" unicode="⇎" horiz-adv-x="926" d="M906 258 C860 289 714 405 592 517 L564 493 C587 467 631 441 631 407 C631 398 623 386 603 386 L513 386 L537 517 L486 517 L462 386 L323 386 C307 386 289 390 289 405 C289 425 337 466 361 494 L338 517 C215 404 66 291 20 258 L20 248 C66 220 217 104 338 -10 L361 13 C322 57 291 78 291 102 C291 118 300 120 326 120 L416 120 L393 -10 L444 -10 L467 120 L603 120 C632 120 633 115 633 104 C633 75 585 34 564 11 L592 -10 C709 106 861 218 906 248 L906 258 Z M478 186 L502 320 L735 320 C767 298 793 277 793 253 C793 229 767 205 734 186 L478 186 Z M451 320 L427 186 L190 186 C158 208 132 230 132 253 C133 277 158 301 191 320 L451 320 Z " />
<glyph glyph-name="uni21CF" unicode="⇏" horiz-adv-x="926" d="M866 258 C745 350 617 435 500 551 L479 531 C503 503 529 475 554 449 C568 434 576 428 576 408 C576 400 568 386 550 386 L354 386 L430 551 L375 551 L299 386 L60 386 L60 320 L269 320 L208 186 L60 186 L60 120 L178 120 L104 -45 L159 -45 L233 120 L550 120 C568 120 576 106 576 98 C576 82 570 73 553 56 C542 45 503 3 479 -25 L500 -45 C617 71 743 156 866 248 L866 258 Z M263 186 L324 320 L694 320 C727 301 753 277 753 253 C753 229 727 208 695 186 L263 186 Z " />
<glyph glyph-name="uni21D0" unicode="⇐" horiz-adv-x="926" d="M866 120 L866 186 L231 186 C199 208 173 229 173 253 C173 277 199 301 232 320 L866 320 L866 386 L376 386 C358 386 350 400 350 408 C350 428 358 434 372 449 C397 475 423 503 447 531 L426 551 C309 435 181 350 60 258 L60 248 C183 156 309 71 426 -45 L447 -25 C423 3 384 45 373 56 C356 73 350 82 350 98 C350 106 358 120 376 120 L866 120 Z " />
<glyph glyph-name="uni21D1" unicode="⇑" horiz-adv-x="685" d="M641 296 C525 413 440 541 348 662 L338 662 C246 539 161 413 45 296 L65 275 C93 299 135 338 146 349 C163 366 172 372 188 372 C196 372 210 364 210 346 L210 -156 L276 -156 L276 491 C298 523 318 549 343 549 C367 549 391 523 410 490 L410 -156 L476 -156 L476 346 C476 364 490 372 498 372 C517 372 522 367 539 350 C564 325 593 299 621 275 L641 296 Z " />
<glyph glyph-name="uni21D2" unicode="⇒" horiz-adv-x="926" d="M866 258 C745 350 617 435 500 551 L479 531 C503 503 529 475 554 449 C568 434 576 428 576 408 C576 400 568 386 550 386 L60 386 L60 320 L694 320 C727 301 753 277 753 253 C753 229 727 208 695 186 L60 186 L60 120 L550 120 C568 120 576 106 576 98 C576 82 570 73 553 56 C542 45 503 3 479 -25 L500 -45 C617 71 743 156 866 248 L866 258 Z " />
<glyph glyph-name="uni21D3" unicode="⇓" horiz-adv-x="685" d="M621 231 C593 207 564 181 539 156 C522 139 517 134 498 134 C490 134 476 142 476 160 L476 662 L410 662 L410 16 C391 -17 367 -43 343 -43 C318 -43 298 -17 276 15 L276 662 L210 662 L210 160 C210 142 196 134 188 134 C172 134 163 140 146 157 C135 168 93 207 65 231 L45 210 C161 93 246 -33 338 -156 L348 -156 C440 -35 525 93 641 210 L621 231 Z " />
<glyph glyph-name="uni21D4" unicode="⇔" horiz-adv-x="926" d="M906 258 C860 289 714 405 592 517 L564 493 C587 467 631 441 631 407 C631 398 623 386 603 386 L323 386 C307 386 289 390 289 405 C289 425 337 466 361 494 L338 517 C215 404 66 291 20 258 L20 248 C66 220 217 104 338 -10 L361 13 C322 57 291 78 291 102 C291 118 300 120 326 120 L603 120 C632 120 633 115 633 104 C633 75 585 34 564 11 L592 -10 C709 106 861 218 906 248 L906 258 Z M190 186 C158 208 132 230 132 253 C133 277 158 301 191 320 L735 320 C767 298 793 277 793 253 C793 229 767 205 734 186 L190 186 Z " />
<glyph glyph-name="uni21D5" unicode="⇕" horiz-adv-x="685" d="M621 163 C593 139 564 113 539 88 C522 71 517 66 498 66 C490 66 476 74 476 92 L476 414 C476 432 490 440 498 440 C517 440 522 435 539 418 C564 393 593 367 621 343 L641 364 C525 481 440 609 348 730 L338 730 C246 607 161 481 45 364 L65 343 C93 367 135 406 146 417 C163 434 172 440 188 440 C196 440 210 432 210 414 L210 92 C210 74 196 66 188 66 C172 66 163 72 146 89 C135 100 93 139 65 163 L45 142 C161 25 246 -101 338 -224 L348 -224 C440 -103 525 25 641 142 L621 163 Z M410 -52 C391 -85 367 -111 343 -111 C318 -111 298 -85 276 -53 L276 559 C298 591 318 617 343 617 C367 617 391 591 410 558 L410 -52 Z " />
<glyph glyph-name="uni21DA" unicode="⇚" horiz-adv-x="926" d="M852 20 L852 86 L286 86 C268 110 225 156 205 173 C194 183 191 194 191 198 C191 208 202 216 216 220 L852 220 L852 286 L218 286 C199 286 192 296 192 306 C192 314 197 325 206 334 C228 356 263 392 287 420 L852 420 L852 486 L334 486 L334 489 C374 539 413 596 433 629 L410 644 C325 516 198 363 46 258 L46 248 C223 121 339 -33 409 -139 L432 -123 C412 -90 375 -33 333 19 L333 20 L852 20 Z " />
<glyph glyph-name="uni21DB" unicode="⇛" horiz-adv-x="926" d="M880 258 C703 385 587 539 517 645 L494 629 C514 596 551 539 593 487 L593 486 L74 486 L74 420 L640 420 C658 396 701 350 721 333 C732 323 735 312 735 308 C735 298 724 290 710 286 L74 286 L74 220 L708 220 C727 220 734 210 734 200 C734 192 729 181 720 172 C698 150 663 114 639 86 L74 86 L74 20 L592 20 L592 17 C552 -33 513 -90 493 -123 L516 -138 C601 -10 728 143 880 248 L880 258 Z " />
<glyph glyph-name="uni21DD" unicode="⇝" horiz-adv-x="926" d="M866 258 C770 299 694 373 628 449 L608 430 C631 397 660 365 690 334 C699 325 704 314 704 306 C704 296 696 286 678 286 L566 286 L506 220 L382 394 L263 220 L203 286 L60 286 L60 220 L174 220 L263 114 L382 286 L506 114 L598 220 L681 220 C689 220 705 207 705 198 C705 189 701 183 691 173 C662 145 631 110 609 77 L629 58 C694 133 770 208 866 248 L866 258 Z " />
<glyph glyph-name="uni21E0" unicode="⇠" horiz-adv-x="926" d="M866 220 L866 286 L759 286 L759 220 L866 220 Z M698 220 L698 286 L591 286 L591 220 L698 220 Z M530 220 L530 286 L423 286 L423 220 L530 220 Z M362 220 L362 286 L248 286 C230 286 222 296 222 306 C222 314 227 325 236 334 C266 365 295 397 318 430 L298 449 C232 373 156 299 60 258 L60 248 C156 208 232 133 297 58 L317 77 C295 110 264 145 235 173 C225 183 221 189 221 198 C221 208 237 220 247 220 L362 220 Z " />
<glyph glyph-name="uni21E2" unicode="⇢" horiz-adv-x="926" d="M866 258 C770 299 694 373 628 449 L608 430 C631 397 660 365 690 334 C699 325 704 314 704 306 C704 296 696 286 678 286 L564 286 L564 220 L679 220 C697 220 705 208 705 198 C705 189 701 183 691 173 C662 145 631 110 609 77 L629 58 C694 133 770 208 866 248 L866 258 Z M503 220 L503 286 L396 286 L396 220 L503 220 Z M335 220 L335 286 L228 286 L228 220 L335 220 Z M167 220 L167 286 L60 286 L60 220 L167 220 Z " />
<glyph glyph-name="uni2200" unicode="∀" horiz-adv-x="560" d="M558 662 L487 662 L413 463 L147 463 L73 662 L2 662 L247 0 L313 0 L558 662 Z M391 403 L280 103 L169 403 L391 403 Z " />
<glyph glyph-name="uni2201" unicode="∁" horiz-adv-x="463" d="M404 220 L338 220 L338 130 C338 62 260 51 234 51 C209 51 125 60 125 129 L125 616 C125 687 206 694 231 694 C257 694 338 690 338 615 L338 524 L404 524 L404 611 C404 744 287 760 233 760 C178 760 59 744 59 613 L59 130 C59 0 171 -15 229 -15 C285 -15 404 -2 404 122 L404 220 Z " />
<glyph glyph-name="uni2202" unicode="∂" horiz-adv-x="471" d="M195 625 C220 633 242 638 269 638 C371 638 400 545 400 457 C400 433 397 409 393 387 C372 424 329 435 297 435 C151 435 40 292 40 151 C40 66 78 -11 176 -11 C410 -11 471 260 471 408 C471 578 409 668 283 668 C249 668 213 662 185 645 L195 625 Z M367 319 C367 288 361 254 352 221 C324 119 265 19 188 19 C125 19 121 79 121 117 C121 256 207 405 306 405 C333 405 367 384 367 319 L367 319 Z " />
<glyph glyph-name="uni2203" unicode="∃" horiz-adv-x="560" d="M487 0 L487 662 L73 662 L73 596 L421 596 L421 364 L85 364 L85 298 L421 298 L421 66 L73 66 L73 0 L487 0 Z " />
<glyph glyph-name="uni2204" unicode="∄" horiz-adv-x="560" d="M487 0 L487 662 L398 662 L437 775 L379 775 L340 662 L73 662 L73 596 L318 596 L238 364 L85 364 L85 298 L215 298 L136 66 L73 66 L73 0 L113 0 L71 -122 L129 -122 L171 0 L487 0 Z M421 364 L296 364 L376 596 L421 596 L421 364 Z M421 66 L194 66 L273 298 L421 298 L421 66 Z " />
<glyph glyph-name="uni2205" unicode="∅" horiz-adv-x="762" d="M705 583 L636 583 L578 517 C521 557 456 583 381 583 C199 583 50 433 50 252 C50 164 86 80 144 21 L57 -79 L126 -79 L184 -13 C241 -55 309 -79 381 -79 C562 -79 712 70 712 252 C712 339 677 420 617 482 L705 583 Z M575 434 C620 384 646 321 646 253 C646 106 527 -13 381 -13 C325 -13 272 4 227 36 L575 434 Z M188 71 C142 118 116 184 116 253 C116 399 234 517 381 517 C436 517 503 495 534 466 L188 71 Z " />
<glyph glyph-name="uni2207" unicode="∇" horiz-adv-x="731" d="M667 662 L63 662 L359 -12 L379 -12 L667 662 Z M604 621 L394 127 L186 621 L604 621 Z " />
<glyph glyph-name="uni2208" unicode="∈" horiz-adv-x="685" d="M625 -27 L625 39 L334 39 C231 39 145 124 128 219 L625 219 L625 285 L129 285 C146 380 232 465 335 465 L625 465 L625 531 L331 531 C172 531 60 400 60 252 C60 104 174 -27 334 -27 L625 -27 Z " />
<glyph glyph-name="uni2209" unicode="∉" horiz-adv-x="685" d="M625 -27 L625 39 L334 39 C312 39 292 43 272 49 L357 219 L625 219 L625 285 L389 285 L479 465 L625 465 L625 531 L512 531 L577 662 L515 662 L450 531 L331 531 C172 531 60 400 60 252 C60 153 111 62 192 13 L107 -157 L169 -157 L242 -11 C270 -21 301 -27 334 -27 L625 -27 Z M417 465 L327 285 L129 285 C146 380 232 465 335 465 L417 465 Z M295 219 L223 75 C174 108 138 162 128 219 L295 219 Z " />
<glyph glyph-name="uni220B" unicode="∋" horiz-adv-x="685" d="M60 531 L60 465 L350 465 C453 465 539 380 556 285 L60 285 L60 219 L557 219 C540 124 454 39 351 39 L60 39 L60 -27 L351 -27 C511 -27 625 104 625 252 C625 400 513 531 354 531 L60 531 Z " />
<glyph glyph-name="uni220D" unicode="∍" horiz-adv-x="486" d="M64 459 L64 393 L211 393 C291 393 342 357 355 285 L64 285 L64 219 L355 219 C341 147 290 111 210 111 L64 111 L64 45 L213 45 C337 45 422 137 422 252 C422 368 336 459 211 459 L64 459 Z " />
<glyph glyph-name="minus" unicode="−" horiz-adv-x="685" d="M621 220 L621 286 L64 286 L64 220 L621 220 Z " />
<glyph glyph-name="uni2213" unicode="∓" horiz-adv-x="685" d="M637 436 L637 502 L48 502 L48 436 L637 436 Z M637 107 L637 173 L375 173 L375 382 L309 382 L309 173 L48 173 L48 107 L309 107 L309 -87 L375 -87 L375 107 L637 107 Z " />
<glyph glyph-name="uni2214" unicode="∔" horiz-adv-x="685" d="M405 678 C405 715 374 741 342 741 C310 741 278 716 278 678 C278 639 304 614 342 614 C380 614 405 644 405 678 L405 678 Z M636 220 L636 286 L375 286 L375 547 L309 547 L309 286 L48 286 L48 220 L309 220 L309 -41 L375 -41 L375 220 L636 220 Z " />
<glyph glyph-name="uni2215" unicode="∕" horiz-adv-x="523" d="M478 710 L406 710 L46 -222 L118 -222 L478 710 Z " />
<glyph glyph-name="uni2216" unicode="∖" horiz-adv-x="428" d="M403 93 L87 411 L25 411 L341 93 L403 93 Z " />
<glyph glyph-name="uni2217" unicode="∗" horiz-adv-x="523" d="M457 337 C457 358 442 379 421 379 C414 379 407 377 399 373 C372 357 345 304 273 266 C273 335 302 400 302 431 C302 452 282 471 264 471 C245 471 226 452 226 431 C226 400 255 334 255 265 C198 295 154 356 125 373 C117 377 110 379 103 379 C82 379 67 358 67 337 C67 326 74 315 87 307 C115 290 192 280 244 250 C192 220 118 210 91 195 C76 186 70 170 70 156 C70 139 83 124 107 124 C116 124 125 127 134 132 C156 144 203 207 255 237 C255 168 226 106 226 75 C226 54 245 33 264 33 C282 33 302 54 302 75 C302 106 273 168 273 237 C350 193 375 123 416 123 C441 123 455 142 455 162 C455 174 448 186 434 194 C407 210 343 213 280 250 C352 291 410 291 435 306 C449 314 457 326 457 337 L457 337 Z " />
<glyph glyph-name="uni2218" unicode="∘" horiz-adv-x="350" d="M310 252 C310 326 250 387 177 387 C100 387 40 329 40 254 C40 177 99 117 175 117 C250 117 310 177 310 252 L310 252 Z M244 252 C244 213 214 183 175 183 C136 183 106 212 106 254 C106 291 135 321 177 321 C213 321 244 291 244 252 L244 252 Z " />
<glyph glyph-name="uni2219" unicode="∙" horiz-adv-x="350" d="M310 252 C310 326 250 387 177 387 C100 387 40 329 40 254 C40 177 99 117 175 117 C250 117 310 177 310 252 L310 252 Z " />
<glyph glyph-name="uni221A" unicode="√" horiz-adv-x="928" d="M963 973 L909 973 L495 -93 L491 -93 L287 443 L268 443 L112 319 L124 299 C146 319 172 330 189 330 C214 330 234 316 251 271 L453 -259 L485 -259 L963 973 Z " />
<glyph glyph-name="uni221D" unicode="∝" horiz-adv-x="685" d="M643 84 C583 84 534 136 470 242 L470 245 C497 291 553 346 643 346 L643 430 C542 430 496 366 450 283 C355 411 305 430 232 430 C174 430 41 384 41 200 C41 62 131 0 217 0 C313 0 381 54 426 145 C488 53 545 0 643 0 L643 84 Z M404 181 C377 145 329 84 240 84 C152 84 101 167 101 252 C101 316 145 371 201 371 C269 371 332 303 404 184 L404 181 Z " />
<glyph glyph-name="uni221E" unicode="∞" horiz-adv-x="926" d="M854 222 C854 356 762 430 672 430 C571 430 525 366 479 283 C384 411 334 430 261 430 C203 430 70 384 70 200 C70 62 160 0 246 0 C342 0 410 54 455 145 C517 53 574 0 656 0 C782 0 854 125 854 222 L854 222 Z M499 245 C528 287 566 346 655 346 C743 346 794 269 794 178 C794 114 750 59 694 59 C626 59 571 123 499 242 L499 245 Z M433 181 C406 145 358 84 269 84 C181 84 130 167 130 252 C130 316 174 371 230 371 C298 371 361 303 433 184 L433 181 Z " />
<glyph glyph-name="uni2220" unicode="∠" horiz-adv-x="685" d="M643 0 L643 66 L182 66 L619 505 L569 547 L23 0 L643 0 Z " />
<glyph glyph-name="uni2221" unicode="∡" horiz-adv-x="685" d="M642 0 L642 66 L541 66 C529 161 491 248 435 320 L619 505 L568 547 L392 370 C375 387 357 403 337 418 L297 365 C314 352 330 338 345 323 L22 0 L479 0 C479 -21 478 -42 475 -62 L540 -72 C544 -49 545 -24 545 0 L642 0 Z M181 66 L388 273 C433 213 463 143 474 66 L181 66 Z " />
<glyph glyph-name="uni2222" unicode="∢" horiz-adv-x="685" d="M653 80 L561 118 C573 162 579 207 579 253 C579 299 573 346 560 392 L653 432 L628 492 L538 455 C529 477 518 499 507 519 L450 485 C460 467 469 449 477 430 L56 253 L479 80 C471 61 462 41 451 23 L508 -11 C521 11 532 33 540 55 L628 18 L653 80 Z M228 253 L498 367 C508 329 513 290 513 253 C513 215 508 179 498 143 L228 253 Z " />
<glyph glyph-name="uni2223" unicode="∣" horiz-adv-x="266" d="M166 -189 L166 690 L100 690 L100 -189 L166 -189 Z " />
<glyph glyph-name="uni2224" unicode="∤" horiz-adv-x="404" d="M381 304 L357 356 L235 294 L235 690 L169 690 L169 260 L23 186 L47 133 L169 195 L169 -189 L235 -189 L235 229 L381 304 Z " />
<glyph glyph-name="uni2225" unicode="∥" horiz-adv-x="523" d="M394 -189 L394 690 L328 690 L328 -189 L394 -189 Z M195 -189 L195 690 L129 690 L129 -189 L195 -189 Z " />
<glyph glyph-name="uni2226" unicode="∦" horiz-adv-x="609" d="M586 362 L562 414 L437 351 L437 690 L371 690 L371 317 L238 250 L238 690 L172 690 L172 216 L23 140 L47 87 L172 151 L172 -189 L238 -189 L238 185 L371 252 L371 -189 L437 -189 L437 286 L586 362 Z " />
<glyph glyph-name="uni2227" unicode="∧" horiz-adv-x="620" d="M589 -29 L314 536 L304 536 L31 -29 L94 -29 L309 403 L524 -29 L589 -29 Z " />
<glyph glyph-name="uni2228" unicode="∨" horiz-adv-x="620" d="M589 536 L526 536 L311 104 L96 536 L31 536 L306 -29 L316 -29 L589 536 Z " />
<glyph glyph-name="uni2229" unicode="∩" horiz-adv-x="620" d="M572 -31 L572 265 C572 425 458 536 310 536 C161 536 48 427 48 268 L48 -31 L114 -31 L114 264 C114 378 201 470 310 470 C416 470 506 379 506 265 L506 -31 L572 -31 Z " />
<glyph glyph-name="uni222A" unicode="∪" horiz-adv-x="620" d="M572 536 L506 536 L506 240 C506 126 416 35 310 35 C201 35 114 127 114 241 L114 536 L48 536 L48 237 C48 78 161 -31 310 -31 C458 -31 572 80 572 240 L572 536 Z " />
<glyph glyph-name="uni222B" unicode="∫" horiz-adv-x="459" d="M204 -124 C179 -225 155 -289 108 -289 C101 -289 97 -286 97 -281 C97 -270 115 -271 115 -242 C115 -225 99 -216 84 -216 C56 -216 32 -242 32 -275 C32 -299 57 -320 97 -320 C209 -320 259 -199 279 -118 L462 616 C488 721 513 793 563 793 C570 793 574 790 574 785 C574 776 556 770 556 744 C556 727 572 720 587 720 C615 720 639 746 639 779 C639 803 614 824 574 824 C454 824 406 686 386 606 L204 -124 Z " />
<glyph glyph-name="uni2234" unicode="∴" horiz-adv-x="620" d="M374 458 C374 495 343 521 311 521 C279 521 247 496 247 458 C247 419 273 394 311 394 C349 394 374 424 374 458 L374 458 Z M582 48 C582 85 551 111 519 111 C487 111 455 86 455 48 C455 9 481 -16 519 -16 C557 -16 582 14 582 48 L582 48 Z M165 48 C165 85 134 111 102 111 C70 111 38 86 38 48 C38 9 64 -16 102 -16 C140 -16 165 14 165 48 L165 48 Z " />
<glyph glyph-name="uni2235" unicode="∵" horiz-adv-x="620" d="M582 457 C582 496 556 521 518 521 C480 521 455 491 455 457 C455 420 486 394 518 394 C550 394 582 419 582 457 L582 457 Z M165 457 C165 496 139 521 101 521 C63 521 38 491 38 457 C38 420 69 394 101 394 C133 394 165 419 165 457 L165 457 Z M373 47 C373 86 347 111 309 111 C271 111 246 81 246 47 C246 10 277 -16 309 -16 C341 -16 373 9 373 47 L373 47 Z " />
<glyph glyph-name="uni223C" unicode="∼" horiz-adv-x="685" d="M604 362 C589 291 556 224 487 224 C414 224 307 352 211 352 C113 352 53 248 48 148 L81 148 C97 219 134 286 204 286 C276 286 383 158 479 158 C577 158 631 277 637 362 L604 362 Z " />
<glyph glyph-name="uni223D" unicode="∽" horiz-adv-x="685" d="M637 148 C631 233 577 352 479 352 C383 352 276 224 204 224 C134 224 97 291 81 362 L48 362 C53 262 113 158 211 158 C307 158 414 286 487 286 C556 286 589 219 604 148 L637 148 Z " />
<glyph glyph-name="uni2240" unicode="≀" horiz-adv-x="286" d="M249 -9 C178 6 111 39 111 108 C111 181 239 288 239 384 C239 482 135 542 35 547 L35 514 C106 498 173 461 173 391 C173 319 45 212 45 116 C45 18 164 -36 249 -42 L249 -9 Z " />
<glyph glyph-name="uni2241" unicode="≁" horiz-adv-x="685" d="M604 362 C591 301 561 224 487 224 C452 224 410 253 382 272 L470 424 L410 424 L338 300 C303 324 254 352 211 352 C107 352 53 238 48 148 L81 148 C95 210 130 286 204 286 C236 286 278 258 304 241 L215 88 L275 88 L347 212 C384 187 433 158 479 158 C578 158 631 278 637 362 L604 362 Z " />
<glyph glyph-name="uni2242" unicode="≂" horiz-adv-x="685" d="M637 379 L637 445 L48 445 L48 379 L637 379 Z M604 269 C589 198 556 131 487 131 C414 131 307 259 211 259 C113 259 53 155 48 55 L81 55 C97 126 134 193 204 193 C276 193 383 65 479 65 C577 65 631 184 637 269 L604 269 Z " />
<glyph glyph-name="uni2243" unicode="≃" horiz-adv-x="685" d="M604 445 C589 374 556 307 487 307 C414 307 307 435 211 435 C113 435 53 331 48 231 L81 231 C97 302 134 369 204 369 C276 369 383 241 479 241 C577 241 631 360 637 445 L604 445 Z M637 55 L637 121 L48 121 L48 55 L637 55 Z " />
<glyph glyph-name="uni2245" unicode="≅" horiz-adv-x="685" d="M617 532 C600 461 566 384 497 384 C424 384 307 532 211 532 C113 532 53 418 48 318 L68 318 C84 389 124 466 194 466 C266 466 383 318 479 318 C577 318 631 447 637 532 L617 532 Z M637 173 L637 239 L48 239 L48 173 L637 173 Z M637 -27 L637 39 L48 39 L48 -27 L637 -27 Z " />
<glyph glyph-name="uni2246" unicode="≆" horiz-adv-x="685" d="M616 604 C599 533 565 456 496 456 C423 456 306 604 210 604 C112 604 52 490 47 390 L67 390 C83 461 123 538 193 538 C265 538 382 390 478 390 C576 390 630 519 636 604 L616 604 Z M637 -21 L637 45 L326 45 L410 179 L637 179 L637 245 L451 245 L505 331 L445 331 L391 245 L48 245 L48 179 L350 179 L266 45 L48 45 L48 -21 L225 -21 L172 -107 L232 -107 L285 -21 L637 -21 Z " />
<glyph glyph-name="uni2248" unicode="≈" horiz-adv-x="685" d="M604 475 C589 404 556 337 487 337 C414 337 307 465 211 465 C113 465 53 361 48 261 L81 261 C97 332 134 399 204 399 C276 399 383 271 479 271 C577 271 631 390 637 475 L604 475 Z M604 239 C589 168 556 101 487 101 C414 101 307 229 211 229 C113 229 53 125 48 25 L81 25 C97 96 134 163 204 163 C276 163 383 35 479 35 C577 35 631 154 637 239 L604 239 Z " />
<glyph glyph-name="uni224A" unicode="≊" horiz-adv-x="685" d="M604 552 C589 481 556 414 487 414 C414 414 307 542 211 542 C113 542 53 438 48 338 L81 338 C97 409 134 476 204 476 C276 476 383 348 479 348 C577 348 631 467 637 552 L604 552 Z M604 316 C589 245 556 178 487 178 C414 178 307 306 211 306 C113 306 53 202 48 102 L81 102 C97 173 134 240 204 240 C276 240 383 112 479 112 C577 112 631 231 637 316 L604 316 Z M637 -45 L637 21 L48 21 L48 -45 L637 -45 Z " />
<glyph glyph-name="uni224D" unicode="≍" horiz-adv-x="685" d="M637 498 C574 408 453 372 342 372 C231 372 117 404 48 498 L48 463 C95 360 231 306 342 306 C448 306 591 361 637 463 L637 498 Z M637 43 C590 146 453 200 342 200 C236 200 94 145 48 43 L48 8 C111 98 231 134 342 134 C453 134 568 102 637 8 L637 43 Z " />
<glyph glyph-name="uni224E" unicode="≎" horiz-adv-x="685" d="M637 320 L637 386 L481 386 C465 427 411 471 342 471 C273 471 224 427 204 386 L48 386 L48 320 L258 320 C258 361 290 405 344 405 C393 405 426 361 427 320 L637 320 Z M637 120 L637 186 L427 186 C427 145 396 101 344 101 C295 101 259 145 258 186 L48 186 L48 120 L204 120 C220 79 274 35 343 35 C412 35 461 79 481 120 L637 120 Z " />
<glyph glyph-name="uni224F" unicode="≏" horiz-adv-x="685" d="M637 320 L637 386 L482 386 C466 427 412 471 343 471 C274 471 224 427 204 386 L48 386 L48 320 L258 320 C258 361 291 405 345 405 C394 405 427 361 428 320 L637 320 Z M637 120 L637 186 L48 186 L48 120 L637 120 Z " />
<glyph glyph-name="uni2250" unicode="≐" horiz-adv-x="685" d="M405 548 C405 585 374 611 342 611 C310 611 278 586 278 548 C278 509 304 484 342 484 C380 484 405 514 405 548 L405 548 Z M637 320 L637 386 L48 386 L48 320 L637 320 Z M637 120 L637 186 L48 186 L48 120 L637 120 Z " />
<glyph glyph-name="uni2251" unicode="≑" horiz-adv-x="685" d="M405 548 C405 585 374 611 342 611 C310 611 278 586 278 548 C278 509 304 484 342 484 C380 484 405 514 405 548 L405 548 Z M637 320 L637 386 L48 386 L48 320 L637 320 Z M637 120 L637 186 L48 186 L48 120 L637 120 Z M405 -42 C405 -1 376 21 341 21 C308 21 278 -2 278 -42 C278 -76 308 -106 341 -106 C376 -106 405 -76 405 -42 L405 -42 Z " />
<glyph glyph-name="uni2252" unicode="≒" horiz-adv-x="685" d="M637 320 L637 386 L48 386 L48 320 L637 320 Z M175 548 C175 585 144 611 112 611 C80 611 48 586 48 548 C48 509 74 484 112 484 C150 484 175 514 175 548 L175 548 Z M637 -41 C637 -4 606 22 574 22 C542 22 510 -3 510 -41 C510 -80 536 -105 574 -105 C612 -105 637 -75 637 -41 L637 -41 Z M637 120 L637 186 L48 186 L48 120 L637 120 Z " />
<glyph glyph-name="uni2253" unicode="≓" horiz-adv-x="685" d="M637 548 C637 585 606 611 574 611 C542 611 510 586 510 548 C510 509 536 484 574 484 C612 484 637 514 637 548 L637 548 Z M637 320 L637 386 L48 386 L48 320 L637 320 Z M637 120 L637 186 L48 186 L48 120 L637 120 Z M175 -42 C175 -5 144 21 112 21 C80 21 48 -4 48 -42 C48 -81 74 -106 112 -106 C150 -106 175 -76 175 -42 L175 -42 Z " />
<glyph glyph-name="uni2256" unicode="≖" horiz-adv-x="685" d="M637 90 L637 156 L412 156 C442 177 461 212 461 252 C461 292 441 328 410 350 L637 350 L637 416 L48 416 L48 350 L274 350 C243 328 223 292 223 252 C223 212 242 177 271 156 L48 156 L48 90 L637 90 Z M411 251 C411 213 379 183 342 183 C304 183 273 214 273 252 C273 291 304 321 343 321 C380 321 411 290 411 251 L411 251 Z " />
<glyph glyph-name="uni2257" unicode="≗" horiz-adv-x="685" d="M461 633 C461 699 408 752 342 752 C276 752 223 699 223 633 C223 567 276 514 342 514 C408 514 461 567 461 633 L461 633 Z M411 632 C411 594 379 564 342 564 C304 564 273 595 273 633 C273 672 304 702 343 702 C380 702 411 671 411 632 L411 632 Z M637 320 L637 386 L48 386 L48 320 L637 320 Z M637 120 L637 186 L48 186 L48 120 L637 120 Z " />
<glyph glyph-name="uni225C" unicode="≜" horiz-adv-x="685" d="M564 484 L345 853 L126 484 L564 484 Z M452 545 L232 545 L342 733 L452 545 Z M637 320 L637 386 L48 386 L48 320 L637 320 Z M637 120 L637 186 L48 186 L48 120 L637 120 Z " />
<glyph glyph-name="uni2260" unicode="≠" horiz-adv-x="685" d="M637 120 L637 186 L340 186 L399 320 L637 320 L637 386 L427 386 L548 662 L494 662 L374 386 L48 386 L48 320 L345 320 L286 186 L48 186 L48 120 L257 120 L137 -156 L191 -156 L311 120 L637 120 Z " />
<glyph glyph-name="uni2261" unicode="≡" horiz-adv-x="685" d="M637 412 L637 478 L48 478 L48 412 L637 412 Z M637 220 L637 286 L48 286 L48 220 L637 220 Z M637 28 L637 94 L48 94 L48 28 L637 28 Z " />
<glyph glyph-name="uni2264" unicode="≤" horiz-adv-x="685" d="M629 51 L629 114 L197 329 L629 544 L629 609 L64 334 L64 324 L629 51 Z M629 -103 L629 -37 L64 -37 L64 -103 L629 -103 Z " />
<glyph glyph-name="uni2265" unicode="≥" horiz-adv-x="685" d="M629 324 L629 334 L64 609 L64 544 L496 329 L64 114 L64 51 L629 324 Z M629 -103 L629 -37 L64 -37 L64 -103 L629 -103 Z " />
<glyph glyph-name="uni2266" unicode="≦" horiz-adv-x="685" d="M622 160 L622 223 L190 438 L622 653 L622 718 L57 443 L57 433 L622 160 Z M622 -12 L622 54 L57 54 L57 -12 L622 -12 Z M622 -211 L622 -145 L57 -145 L57 -211 L622 -211 Z " />
<glyph glyph-name="uni2267" unicode="≧" horiz-adv-x="685" d="M622 433 L622 443 L57 718 L57 653 L489 438 L57 223 L57 160 L622 433 Z M622 -12 L622 54 L57 54 L57 -12 L622 -12 Z M622 -211 L622 -145 L57 -145 L57 -211 L622 -211 Z " />
<glyph glyph-name="uni2268" unicode="≨" horiz-adv-x="685" d="M621 188 L621 251 L189 466 L621 681 L621 746 L56 471 L56 461 L621 188 Z M621 -184 L621 -118 L317 -118 L401 16 L621 16 L621 82 L442 82 L490 158 L430 158 L382 82 L56 82 L56 16 L341 16 L257 -118 L56 -118 L56 -184 L216 -184 L169 -260 L229 -260 L276 -184 L621 -184 Z " />
<glyph glyph-name="uni2269" unicode="≩" horiz-adv-x="685" d="M621 461 L621 471 L56 746 L56 681 L488 466 L56 251 L56 188 L621 461 Z M621 -184 L621 -118 L330 -118 L414 16 L621 16 L621 82 L455 82 L503 158 L443 158 L395 82 L56 82 L56 16 L354 16 L270 -118 L56 -118 L56 -184 L229 -184 L182 -260 L242 -260 L289 -184 L621 -184 Z " />
<glyph glyph-name="uni226A" unicode="≪" horiz-adv-x="933" d="M908 -26 L908 37 L476 253 L908 467 L908 532 L343 258 L343 248 L908 -26 Z M590 -26 L590 37 L158 253 L590 467 L590 532 L25 258 L25 248 L590 -26 Z " />
<glyph glyph-name="uni226B" unicode="≫" horiz-adv-x="933" d="M908 249 L908 259 L343 532 L343 467 L775 253 L343 37 L343 -26 L908 249 Z M590 249 L590 259 L25 532 L25 467 L457 253 L25 37 L25 -26 L590 249 Z " />
<glyph glyph-name="uni226C" unicode="≬" horiz-adv-x="466" d="M381 -207 C344 -164 299 -112 260 -51 C330 46 371 156 371 253 C371 349 329 459 260 557 C299 617 343 668 381 711 L381 730 C325 692 275 645 233 593 C191 645 141 692 85 730 L85 713 C122 670 166 618 205 557 C136 460 95 349 95 253 C95 156 136 46 205 -51 C166 -111 122 -162 85 -205 L85 -224 C141 -186 191 -139 233 -87 C275 -139 325 -186 381 -224 L381 -207 Z M305 253 C305 155 274 68 232 -6 C191 69 161 155 161 253 C161 351 192 437 233 512 C275 437 305 350 305 253 L305 253 Z " />
<glyph glyph-name="uni226E" unicode="≮" horiz-adv-x="685" d="M621 -26 L621 37 L342 176 L427 370 L621 467 L621 532 L464 455 L554 662 L500 662 L395 422 L56 257 L56 247 L273 142 L143 -156 L197 -156 L317 120 L621 -26 Z M357 336 L297 198 L189 252 L357 336 Z " />
<glyph glyph-name="uni226F" unicode="≯" horiz-adv-x="685" d="M621 247 L621 257 L405 362 L536 662 L482 662 L360 384 L56 532 L56 467 L336 328 L252 135 L56 37 L56 -26 L215 51 L125 -156 L179 -156 L284 84 L621 247 Z M488 252 L321 169 L380 306 L488 252 Z " />
<glyph glyph-name="uni2270" unicode="≰" horiz-adv-x="685" d="M621 -103 L621 -37 L259 -37 L341 184 L621 49 L621 112 L362 240 L441 452 L621 542 L621 607 L472 534 L545 730 L491 730 L406 502 L56 332 L56 322 L295 206 L205 -37 L56 -37 L56 -103 L181 -103 L134 -229 L188 -229 L235 -103 L621 -103 Z M375 419 L317 263 L189 327 L375 419 Z " />
<glyph glyph-name="uni2271" unicode="≱" horiz-adv-x="685" d="M622 -103 L622 -37 L245 -37 L325 179 L621 322 L621 332 L419 430 L531 730 L477 730 L373 453 L56 607 L56 542 L352 395 L290 228 L56 112 L56 49 L259 147 L191 -37 L56 -37 L56 -103 L167 -103 L120 -229 L174 -229 L221 -103 L622 -103 Z M488 327 L356 261 L398 372 L488 327 Z " />
<glyph glyph-name="uni2272" unicode="≲" horiz-adv-x="685" d="M621 106 L621 169 L189 384 L621 599 L621 664 L56 389 L56 379 L621 106 Z M604 50 C589 -21 556 -88 487 -88 C414 -88 307 40 211 40 C113 40 53 -64 48 -164 L81 -164 C97 -93 134 -26 204 -26 C276 -26 383 -154 479 -154 C577 -154 631 -35 637 50 L604 50 Z " />
<glyph glyph-name="uni2273" unicode="≳" horiz-adv-x="685" d="M629 379 L629 389 L64 664 L64 599 L496 384 L64 169 L64 106 L629 379 Z M604 50 C589 -21 556 -88 487 -88 C414 -88 307 40 211 40 C113 40 53 -64 48 -164 L81 -164 C97 -93 134 -26 204 -26 C276 -26 383 -154 479 -154 C577 -154 631 -35 637 50 L604 50 Z " />
<glyph glyph-name="uni2276" unicode="≶" horiz-adv-x="685" d="M621 208 L621 271 L189 457 L621 640 L621 705 L56 462 L56 452 L621 208 Z M621 39 L621 49 L56 293 L56 228 L488 44 L56 -141 L56 -204 L621 39 Z " />
<glyph glyph-name="uni2277" unicode="≷" horiz-adv-x="685" d="M621 452 L621 462 L56 705 L56 640 L488 457 L56 271 L56 208 L621 452 Z M621 -204 L621 -141 L189 44 L621 228 L621 293 L56 49 L56 39 L621 -204 Z " />
<glyph glyph-name="uni227A" unicode="≺" horiz-adv-x="685" d="M621 51 C571 137 410 218 287 253 C410 288 571 369 621 455 L621 532 C501 371 267 302 64 286 L64 220 C267 204 501 135 621 -26 L621 51 Z " />
<glyph glyph-name="uni227B" unicode="≻" horiz-adv-x="685" d="M621 286 C418 302 184 371 64 532 L64 455 C114 369 275 288 398 253 C275 218 114 137 64 51 L64 -26 C184 135 418 204 621 220 L621 286 Z " />
<glyph glyph-name="uni227C" unicode="≼" horiz-adv-x="685" d="M621 147 C571 233 410 314 287 349 C410 384 571 465 621 551 L621 628 C501 467 267 398 64 382 L64 316 C267 300 501 231 621 70 L621 147 Z M621 -42 C481 118 229 179 64 186 L64 120 C215 110 483 53 621 -120 L621 -42 Z " />
<glyph glyph-name="uni227D" unicode="≽" horiz-adv-x="685" d="M621 383 C418 399 184 468 64 629 L64 552 C114 466 275 385 398 350 C275 315 114 234 64 148 L64 71 C184 232 418 301 621 317 L621 383 Z M621 187 C456 180 204 119 64 -41 L64 -119 C202 54 470 111 621 121 L621 187 Z " />
<glyph glyph-name="uni227E" unicode="≾" horiz-adv-x="685" d="M620 183 C570 269 409 350 286 385 C409 420 570 501 620 587 L620 664 C500 503 266 434 63 418 L63 352 C266 336 500 267 620 106 L620 183 Z M604 50 C589 -21 556 -88 487 -88 C414 -88 307 40 211 40 C113 40 53 -64 48 -164 L81 -164 C97 -93 134 -26 204 -26 C276 -26 383 -154 479 -154 C577 -154 631 -35 637 50 L604 50 Z " />
<glyph glyph-name="uni227F" unicode="≿" horiz-adv-x="685" d="M622 418 C419 434 185 503 65 664 L65 587 C115 501 276 420 399 385 C276 350 115 269 65 183 L65 106 C185 267 419 336 622 352 L622 418 Z M604 50 C589 -21 556 -88 487 -88 C414 -88 307 40 211 40 C113 40 53 -64 48 -164 L81 -164 C97 -93 134 -26 204 -26 C276 -26 383 -154 479 -154 C577 -154 631 -35 637 50 L604 50 Z " />
<glyph glyph-name="uni2280" unicode="⊀" horiz-adv-x="685" d="M621 51 C585 112 494 170 399 212 L440 313 C519 352 590 403 621 455 L621 532 C583 481 534 440 478 406 L582 662 L528 662 L409 370 C301 320 178 295 64 286 L64 220 C150 213 241 197 327 168 L196 -156 L250 -156 L374 151 C473 111 561 54 621 -26 L621 51 Z M353 231 C330 239 308 247 287 253 C314 261 344 271 374 283 L353 231 Z " />
<glyph glyph-name="uni2281" unicode="⊁" horiz-adv-x="685" d="M621 286 C535 292 444 309 358 337 L490 662 L436 662 L311 354 C212 394 124 451 64 532 L64 455 C99 393 192 335 286 293 L246 193 C166 154 94 103 64 51 L64 -26 C102 25 151 66 208 100 L104 -156 L158 -156 L277 136 C384 185 507 211 621 220 L621 286 Z M333 274 C355 266 377 259 398 253 C371 245 342 235 312 223 L333 274 Z " />
<glyph glyph-name="uni2282" unicode="⊂" horiz-adv-x="685" d="M621 -25 L621 41 L335 41 C221 41 130 147 130 254 C130 361 220 465 334 465 L621 465 L621 531 L334 531 C174 531 64 402 64 254 C64 106 172 -25 331 -25 L621 -25 Z " />
<glyph glyph-name="uni2283" unicode="⊃" horiz-adv-x="685" d="M64 531 L64 465 L351 465 C465 465 555 361 555 254 C555 147 464 41 350 41 L64 41 L64 -25 L354 -25 C513 -25 621 106 621 254 C621 402 511 531 351 531 L64 531 Z " />
<glyph glyph-name="uni2286" unicode="⊆" horiz-adv-x="685" d="M621 51 L621 117 L335 117 C221 117 130 223 130 330 C130 437 220 541 334 541 L621 541 L621 607 L334 607 C174 607 64 478 64 330 C64 182 172 51 331 51 L621 51 Z M621 -103 L621 -37 L73 -37 L73 -103 L621 -103 Z " />
<glyph glyph-name="uni2287" unicode="⊇" horiz-adv-x="685" d="M64 607 L64 541 L351 541 C465 541 555 437 555 330 C555 223 464 117 350 117 L64 117 L64 51 L354 51 C513 51 621 182 621 330 C621 478 511 607 351 607 L64 607 Z M612 -103 L612 -37 L64 -37 L64 -103 L612 -103 Z " />
<glyph glyph-name="uni2288" unicode="⊈" horiz-adv-x="685" d="M621 -103 L621 -37 L267 -37 L301 52 C311 51 321 51 331 51 L621 51 L621 117 L325 117 L483 541 L621 541 L621 607 L507 607 L553 730 L499 730 L453 607 L334 607 C174 607 64 478 64 330 C64 208 137 98 251 63 L213 -37 L73 -37 L73 -103 L189 -103 L142 -229 L196 -229 L243 -103 L621 -103 Z M429 541 L275 127 C190 156 130 242 130 330 C130 437 220 541 334 541 L429 541 Z " />
<glyph glyph-name="uni2289" unicode="⊉" horiz-adv-x="685" d="M547 730 L493 730 L441 592 C413 601 383 607 351 607 L64 607 L64 541 L351 541 C374 541 397 536 418 528 L265 117 L64 117 L64 51 L240 51 L207 -37 L64 -37 L64 -103 L183 -103 L136 -229 L190 -229 L237 -103 L612 -103 L612 -37 L261 -37 L294 51 L354 51 C513 51 621 182 621 330 C621 430 570 522 488 570 L547 730 Z M319 117 L463 504 C518 464 555 398 555 330 C555 223 464 117 350 117 L319 117 Z " />
<glyph glyph-name="uni228A" unicode="⊊" horiz-adv-x="685" d="M621 71 L621 137 L335 137 C221 137 130 243 130 350 C130 457 220 561 334 561 L621 561 L621 627 L334 627 C174 627 64 498 64 350 C64 202 172 71 331 71 L621 71 Z M621 -120 L621 -54 L380 -54 L441 42 L382 42 L321 -54 L72 -54 L72 -120 L279 -120 L219 -216 L278 -216 L338 -120 L621 -120 Z " />
<glyph glyph-name="uni228B" unicode="⊋" horiz-adv-x="685" d="M64 627 L64 561 L351 561 C465 561 555 457 555 350 C555 243 464 137 350 137 L64 137 L64 71 L354 71 C513 71 621 202 621 350 C621 498 511 627 351 627 L64 627 Z M611 -120 L611 -54 L384 -54 L445 42 L386 42 L325 -54 L64 -54 L64 -120 L283 -120 L223 -216 L282 -216 L342 -120 L611 -120 Z " />
<glyph glyph-name="uni228E" unicode="⊎" horiz-adv-x="620" d="M460 257 L460 323 L343 323 L343 440 L277 440 L277 323 L160 323 L160 257 L277 257 L277 140 L343 140 L343 257 L460 257 Z M572 536 L506 536 L506 240 C506 126 416 35 310 35 C201 35 114 127 114 241 L114 536 L48 536 L48 237 C48 78 161 -31 310 -31 C458 -31 572 80 572 240 L572 536 Z " />
<glyph glyph-name="uni228F" unicode="⊏" horiz-adv-x="685" d="M621 -25 L621 41 L130 41 L130 465 L621 465 L621 531 L64 531 L64 -25 L621 -25 Z " />
<glyph glyph-name="uni2290" unicode="⊐" horiz-adv-x="685" d="M621 -25 L621 531 L64 531 L64 465 L555 465 L555 41 L64 41 L64 -25 L621 -25 Z " />
<glyph glyph-name="uni2291" unicode="⊑" horiz-adv-x="685" d="M621 51 L621 117 L130 117 L130 541 L621 541 L621 607 L64 607 L64 51 L621 51 Z M621 -103 L621 -37 L64 -37 L64 -103 L621 -103 Z " />
<glyph glyph-name="uni2292" unicode="⊒" horiz-adv-x="685" d="M621 51 L621 607 L64 607 L64 541 L555 541 L555 117 L64 117 L64 51 L621 51 Z M621 -103 L621 -37 L64 -37 L64 -103 L621 -103 Z " />
<glyph glyph-name="uni2293" unicode="⊓" horiz-adv-x="620" d="M572 -31 L572 536 L48 536 L48 -31 L114 -31 L114 470 L506 470 L506 -31 L572 -31 Z " />
<glyph glyph-name="uni2294" unicode="⊔" horiz-adv-x="620" d="M572 -31 L572 536 L506 536 L506 35 L114 35 L114 536 L48 536 L48 -31 L572 -31 Z " />
<glyph glyph-name="uni2295" unicode="⊕" horiz-adv-x="842" d="M792 252 C792 457 626 623 421 623 C216 623 50 457 50 252 C50 47 216 -119 421 -119 C626 -119 792 47 792 252 L792 252 Z M454 285 L454 555 C596 540 709 427 724 285 L454 285 Z M388 285 L118 285 C133 427 246 540 388 555 L388 285 Z M724 219 C709 77 596 -36 454 -51 L454 219 L724 219 Z M388 -51 C246 -36 133 77 118 219 L388 219 L388 -51 Z " />
<glyph glyph-name="uni2296" unicode="⊖" horiz-adv-x="842" d="M792 252 C792 457 626 623 421 623 C216 623 50 457 50 252 C50 47 216 -119 421 -119 C626 -119 792 47 792 252 L792 252 Z M118 285 C134 438 264 557 421 557 C578 557 708 438 724 285 L118 285 Z M724 219 C708 66 578 -53 421 -53 C264 -53 134 66 118 219 L724 219 Z " />
<glyph glyph-name="uni2297" unicode="⊗" horiz-adv-x="842" d="M792 252 C792 457 626 623 421 623 C216 623 50 457 50 252 C50 47 216 -119 421 -119 C626 -119 792 47 792 252 L792 252 Z M421 299 L230 490 C282 532 349 557 421 557 C493 557 560 532 612 490 L421 299 Z M468 252 L659 443 C701 391 726 324 726 252 C726 180 701 113 659 61 L468 252 Z M374 252 L183 61 C141 113 116 180 116 252 C116 324 141 391 183 443 L374 252 Z M612 14 C560 -28 493 -53 421 -53 C349 -53 282 -28 230 14 L421 205 L612 14 Z " />
<glyph glyph-name="uni2298" unicode="⊘" horiz-adv-x="842" d="M792 252 C792 457 626 623 421 623 C216 623 50 457 50 252 C50 47 216 -119 421 -119 C626 -119 792 47 792 252 L792 252 Z M183 61 C141 113 116 180 116 252 C116 420 253 557 421 557 C493 557 560 532 612 490 L183 61 Z M659 443 C701 391 726 324 726 252 C726 84 589 -53 421 -53 C349 -53 282 -28 230 14 L659 443 Z " />
<glyph glyph-name="uni2299" unicode="⊙" horiz-adv-x="762" d="M444 253 C444 290 413 316 381 316 C349 316 317 291 317 253 C317 214 343 189 381 189 C419 189 444 219 444 253 L444 253 Z M712 252 C712 435 564 583 381 583 C198 583 50 435 50 252 C50 69 198 -79 381 -79 C564 -79 712 69 712 252 L712 252 Z M646 252 C646 106 527 -13 381 -13 C235 -13 116 106 116 252 C116 398 235 517 381 517 C527 517 646 398 646 252 L646 252 Z " />
<glyph glyph-name="uni229A" unicode="⊚" horiz-adv-x="842" d="M554 252 C554 326 494 387 421 387 C344 387 284 329 284 254 C284 177 343 117 419 117 C494 117 554 177 554 252 L554 252 Z M488 252 C488 213 458 183 419 183 C380 183 350 212 350 254 C350 291 379 321 421 321 C457 321 488 291 488 252 L488 252 Z M792 252 C792 457 626 623 421 623 C216 623 50 457 50 252 C50 47 216 -119 421 -119 C626 -119 792 47 792 252 L792 252 Z M726 252 C726 84 589 -53 421 -53 C253 -53 116 84 116 252 C116 420 253 557 421 557 C589 557 726 420 726 252 L726 252 Z " />
<glyph glyph-name="uni229B" unicode="⊛" horiz-adv-x="842" d="M612 165 C612 178 604 191 588 200 C559 218 508 211 439 252 C518 297 560 285 587 301 C603 310 612 323 612 336 C612 365 598 382 572 382 C564 382 556 380 548 375 C518 358 510 311 431 270 C431 345 463 395 463 429 C463 452 441 470 421 470 C400 470 379 452 379 429 C379 395 411 344 411 268 C349 301 321 357 289 375 C281 380 273 382 265 382 C236 382 225 361 225 336 C225 323 233 311 247 303 C278 284 342 285 399 252 C342 219 278 217 249 200 C232 191 225 173 225 157 C225 139 240 122 266 122 C276 122 286 126 296 131 C320 144 354 205 411 238 C411 162 379 114 379 80 C379 57 400 35 421 35 C441 35 463 57 463 80 C463 114 431 162 431 238 C516 189 524 122 569 122 C601 122 612 141 612 165 L612 165 Z M792 252 C792 457 626 623 421 623 C216 623 50 457 50 252 C50 47 216 -119 421 -119 C626 -119 792 47 792 252 L792 252 Z M726 252 C726 84 589 -53 421 -53 C253 -53 116 84 116 252 C116 420 253 557 421 557 C589 557 726 420 726 252 L726 252 Z " />
<glyph glyph-name="uni229D" unicode="⊝" horiz-adv-x="842" d="M634 219 L634 285 L208 285 L208 219 L634 219 Z M792 252 C792 457 626 623 421 623 C216 623 50 457 50 252 C50 47 216 -119 421 -119 C626 -119 792 47 792 252 L792 252 Z M726 252 C726 84 589 -53 421 -53 C253 -53 116 84 116 252 C116 420 253 557 421 557 C589 557 726 420 726 252 L726 252 Z " />
<glyph glyph-name="uni229E" unicode="⊞" horiz-adv-x="910" d="M865 -158 L865 662 L45 662 L45 -158 L865 -158 Z M799 278 L481 278 L481 596 L799 596 L799 278 Z M429 278 L111 278 L111 596 L429 596 L429 278 Z M799 -92 L481 -92 L481 226 L799 226 L799 -92 Z M429 -92 L111 -92 L111 226 L429 226 L429 -92 Z " />
<glyph glyph-name="uni229F" unicode="⊟" horiz-adv-x="910" d="M865 -158 L865 662 L45 662 L45 -158 L865 -158 Z M799 278 L111 278 L111 596 L799 596 L799 278 Z M799 -92 L111 -92 L111 226 L799 226 L799 -92 Z " />
<glyph glyph-name="uni22A0" unicode="⊠" horiz-adv-x="910" d="M865 -158 L865 662 L45 662 L45 -158 L865 -158 Z M762 596 L455 289 L148 596 L762 596 Z M799 -56 L492 251 L799 559 L799 -56 Z M761 -92 L149 -92 L455 214 L761 -92 Z M418 251 L111 -56 L111 559 L418 251 Z " />
<glyph glyph-name="uni22A1" unicode="⊡" horiz-adv-x="910" d="M518 252 C518 287 490 315 455 315 C420 315 391 287 391 252 C391 214 417 188 455 188 C491 188 518 216 518 252 L518 252 Z M865 -157 L865 662 L45 662 L45 -157 L865 -157 Z M799 -91 L111 -91 L111 596 L799 596 L799 -91 Z " />
<glyph glyph-name="uni22A2" unicode="⊢" horiz-adv-x="685" d="M621 298 L621 364 L130 364 L130 662 L64 662 L64 0 L130 0 L130 298 L621 298 Z " />
<glyph glyph-name="uni22A3" unicode="⊣" horiz-adv-x="685" d="M621 0 L621 662 L555 662 L555 364 L64 364 L64 298 L555 298 L555 0 L621 0 Z " />
<glyph glyph-name="uni22A4" unicode="⊤" horiz-adv-x="685" d="M637 596 L637 662 L48 662 L48 596 L309 596 L309 0 L375 0 L375 596 L637 596 Z " />
<glyph glyph-name="uni22A5" unicode="⊥" horiz-adv-x="685" d="M637 0 L637 66 L376 66 L376 662 L310 662 L310 66 L48 66 L48 0 L637 0 Z " />
<glyph glyph-name="uni22A8" unicode="⊨" horiz-adv-x="685" d="M621 198 L621 264 L130 264 L130 398 L621 398 L621 464 L130 464 L130 662 L64 662 L64 0 L130 0 L130 198 L621 198 Z " />
<glyph glyph-name="uni22A9" unicode="⊩" horiz-adv-x="860" d="M814 298 L814 364 L323 364 L323 662 L257 662 L257 0 L323 0 L323 298 L814 298 Z M123 0 L123 662 L57 662 L57 0 L123 0 Z " />
<glyph glyph-name="uni22AA" unicode="⊪" horiz-adv-x="860" d="M815 298 L815 364 L512 364 L512 662 L446 662 L446 0 L512 0 L512 298 L815 298 Z M312 0 L312 662 L246 662 L246 0 L312 0 Z M111 0 L111 662 L45 662 L45 0 L111 0 Z " />
<glyph glyph-name="uni22AC" unicode="⊬" horiz-adv-x="786" d="M723 662 L654 662 L363 364 L231 364 L231 662 L165 662 L165 160 L9 0 L78 0 L165 89 L165 0 L231 0 L231 157 L368 298 L722 298 L722 364 L432 364 L723 662 Z M299 298 L231 228 L231 298 L299 298 Z " />
<glyph glyph-name="uni22AD" unicode="⊭" horiz-adv-x="786" d="M723 662 L654 662 L461 464 L231 464 L231 662 L165 662 L165 160 L9 0 L78 0 L165 89 L165 0 L231 0 L231 157 L271 198 L722 198 L722 264 L335 264 L466 398 L722 398 L722 464 L530 464 L723 662 Z M397 398 L266 264 L231 264 L231 398 L397 398 Z " />
<glyph glyph-name="uni22AE" unicode="⊮" horiz-adv-x="968" d="M922 298 L922 364 L546 364 L922 662 L844 662 L468 364 L431 364 L431 662 L365 662 L365 282 L231 176 L231 662 L165 662 L165 123 L9 0 L87 0 L165 62 L165 0 L231 0 L231 114 L365 220 L365 0 L431 0 L431 273 L462 298 L922 298 Z " />
<glyph glyph-name="uni22AF" unicode="⊯" horiz-adv-x="968" d="M922 198 L922 264 L431 264 L431 272 L589 398 L922 398 L922 464 L672 464 L922 662 L842 662 L593 464 L431 464 L431 662 L365 662 L365 282 L231 176 L231 662 L165 662 L165 124 L9 0 L89 0 L165 60 L165 0 L231 0 L231 113 L365 219 L365 0 L431 0 L431 198 L922 198 Z M510 398 L431 335 L431 398 L510 398 Z " />
<glyph glyph-name="uni22B2" unicode="⊲" horiz-adv-x="685" d="M631 -25 L631 531 L24 253 L631 -25 Z M565 80 L181 253 L565 426 L565 80 Z " />
<glyph glyph-name="uni22B3" unicode="⊳" horiz-adv-x="685" d="M661 253 L54 531 L54 -25 L661 253 Z M504 253 L120 80 L120 426 L504 253 Z " />
<glyph glyph-name="uni22B4" unicode="⊴" horiz-adv-x="685" d="M631 51 L631 607 L24 329 L631 51 Z M565 156 L181 329 L565 502 L565 156 Z M631 -103 L631 -37 L34 -37 L34 -103 L631 -103 Z " />
<glyph glyph-name="uni22B5" unicode="⊵" horiz-adv-x="685" d="M661 329 L54 607 L54 51 L661 329 Z M504 329 L120 156 L120 502 L504 329 Z M651 -103 L651 -37 L54 -37 L54 -103 L651 -103 Z " />
<glyph glyph-name="uni22B8" unicode="⊸" horiz-adv-x="849" d="M50 286 L50 220 L503 220 C518 153 577 103 649 103 C732 103 799 170 799 253 C799 336 732 403 649 403 C577 403 518 353 503 286 L50 286 Z M749 253 C749 198 704 153 649 153 C594 153 549 198 549 253 C549 308 594 353 649 353 C704 353 749 308 749 253 L749 253 Z " />
<glyph glyph-name="uni22BA" unicode="⊺" horiz-adv-x="480" d="M406 384 L406 450 L74 450 L74 384 L197 384 L197 -212 L283 -212 L283 384 L406 384 Z " />
<glyph glyph-name="uni22BB" unicode="⊻" horiz-adv-x="620" d="M590 536 L527 536 L312 104 L97 536 L32 536 L307 -29 L317 -29 L590 536 Z M572 -139 L572 -73 L48 -73 L48 -139 L572 -139 Z " />
<glyph glyph-name="uni22BC" unicode="⊼" horiz-adv-x="620" d="M572 580 L572 646 L48 646 L48 580 L572 580 Z M590 -29 L317 536 L307 536 L32 -29 L97 -29 L312 403 L527 -29 L590 -29 Z " />
<glyph glyph-name="uni22C4" unicode="⋄" horiz-adv-x="523" d="M497 252 L261 488 L26 252 L261 16 L497 252 Z M404 252 L261 109 L119 252 L261 395 L404 252 Z " />
<glyph glyph-name="uni22C5" unicode="⋅" horiz-adv-x="286" d="M203 253 C203 285 176 313 144 313 C111 313 83 283 83 253 C83 223 111 193 144 193 C176 193 203 221 203 253 L203 253 Z " />
<glyph glyph-name="uni22C6" unicode="⋆" horiz-adv-x="700" d="M665 365 L403 335 L350 597 L297 335 L35 365 L261 228 L154 -13 L350 166 L546 -13 L439 228 L665 365 Z " />
<glyph glyph-name="uni22C8" unicode="⋈" horiz-adv-x="810" d="M756 -80 L756 582 L405 297 L54 582 L54 -80 L405 205 L756 -80 Z M690 58 L451 251 L690 444 L690 58 Z M359 251 L120 58 L120 444 L359 251 Z " />
<glyph glyph-name="uni22C9" unicode="⋉" horiz-adv-x="810" d="M716 -80 L716 7 L453 251 L716 494 L716 582 L404 296 L93 582 L93 -80 L404 207 L716 -80 Z M356 251 L159 70 L159 433 L356 251 Z " />
<glyph glyph-name="uni22CA" unicode="⋊" horiz-adv-x="810" d="M716 -80 L716 582 L405 296 L93 582 L93 494 L356 251 L93 7 L93 -80 L405 207 L716 -80 Z M650 70 L453 251 L650 433 L650 70 Z " />
<glyph glyph-name="uni22CB" unicode="⋋" horiz-adv-x="810" d="M736 -34 L120 582 L74 536 L359 251 L74 -34 L120 -80 L405 205 L690 -80 L736 -34 Z " />
<glyph glyph-name="uni22CC" unicode="⋌" horiz-adv-x="810" d="M736 -34 L451 251 L736 536 L690 582 L74 -34 L120 -80 L405 205 L690 -80 L736 -34 Z " />
<glyph glyph-name="uni22CD" unicode="⋍" horiz-adv-x="685" d="M637 231 C631 316 577 435 479 435 C383 435 276 307 204 307 C134 307 97 374 81 445 L48 445 C53 345 113 241 211 241 C307 241 414 369 487 369 C556 369 589 302 604 231 L637 231 Z M637 55 L637 121 L48 121 L48 55 L637 55 Z " />
<glyph glyph-name="uni22CE" unicode="⋎" horiz-adv-x="580" d="M472 532 C384 429 325 321 290 198 C255 321 196 429 108 532 L31 532 C176 388 241 178 257 -25 L323 -25 C339 178 404 388 549 532 L472 532 Z " />
<glyph glyph-name="uni22CF" unicode="⋏" horiz-adv-x="580" d="M549 -25 C404 119 339 329 323 532 L257 532 C241 329 176 119 31 -25 L108 -25 C196 78 255 186 290 309 C325 186 384 78 472 -25 L549 -25 Z " />
<glyph glyph-name="uni22D0" unicode="⋐" horiz-adv-x="685" d="M621 118 L621 184 L338 184 C302 184 272 219 272 254 C272 288 301 322 337 322 L621 322 L621 388 L336 388 C264 388 206 329 206 254 C206 182 259 118 336 118 L621 118 Z M621 -25 L621 41 L335 41 C221 41 130 147 130 254 C130 361 220 465 334 465 L621 465 L621 531 L334 531 C174 531 64 402 64 254 C64 106 172 -25 331 -25 L621 -25 Z " />
<glyph glyph-name="uni22D1" unicode="⋑" horiz-adv-x="685" d="M64 531 L64 465 L351 465 C465 465 555 361 555 254 C555 147 464 41 350 41 L64 41 L64 -25 L354 -25 C513 -25 621 106 621 254 C621 402 511 531 351 531 L64 531 Z M64 388 L64 322 L348 322 C384 322 413 288 413 254 C413 219 383 184 347 184 L64 184 L64 118 L349 118 C426 118 479 182 479 254 C479 329 421 388 349 388 L64 388 Z " />
<glyph glyph-name="uni22D2" unicode="⋒" horiz-adv-x="620" d="M572 -31 L572 268 C572 427 459 536 310 536 C162 536 48 425 48 265 L48 -31 L114 -31 L114 265 C114 379 204 470 310 470 C419 470 506 378 506 264 L506 -31 L572 -31 Z M433 -31 L433 268 C433 345 383 398 310 398 C239 398 187 345 187 268 L187 -31 L253 -31 L253 267 C253 303 273 332 310 332 C348 332 367 303 367 266 L367 -31 L433 -31 Z " />
<glyph glyph-name="uni22D3" unicode="⋓" horiz-adv-x="620" d="M433 536 L367 536 L367 239 C367 202 348 173 310 173 C273 173 253 202 253 238 L253 536 L187 536 L187 237 C187 160 239 107 310 107 C383 107 433 160 433 237 L433 536 Z M572 536 L506 536 L506 241 C506 127 419 35 310 35 C204 35 114 126 114 240 L114 536 L48 536 L48 240 C48 80 162 -31 310 -31 C459 -31 572 78 572 237 L572 536 Z " />
<glyph glyph-name="uni22D4" unicode="⋔" horiz-adv-x="620" d="M572 -31 L572 265 C572 413 474 518 343 534 L343 631 L277 631 L277 534 C144 519 48 415 48 268 L48 -31 L114 -31 L114 264 C114 366 184 452 277 468 L277 -31 L343 -31 L343 468 C434 451 506 367 506 265 L506 -31 L572 -31 Z " />
<glyph glyph-name="uni22D6" unicode="⋖" horiz-adv-x="685" d="M539 253 C539 293 506 320 472 320 C438 320 404 294 404 253 C404 212 432 185 472 185 C513 185 539 217 539 253 L539 253 Z M621 -24 L621 39 L189 254 L621 469 L621 534 L56 259 L56 249 L621 -24 Z " />
<glyph glyph-name="uni22D7" unicode="⋗" horiz-adv-x="685" d="M621 249 L621 259 L56 534 L56 469 L488 254 L56 39 L56 -24 L621 249 Z M273 253 C273 294 239 320 205 320 C171 320 138 293 138 253 C138 217 164 185 205 185 C245 185 273 212 273 253 L273 253 Z " />
<glyph glyph-name="uni22D8" unicode="⋘" horiz-adv-x="1274" d="M1229 -24 L1229 39 L797 254 L1229 469 L1229 534 L664 259 L664 249 L1229 -24 Z M920 -24 L920 39 L488 254 L920 469 L920 534 L355 259 L355 249 L920 -24 Z M610 -24 L610 39 L178 254 L610 469 L610 534 L45 259 L45 249 L610 -24 Z " />
<glyph glyph-name="uni22D9" unicode="⋙" horiz-adv-x="1274" d="M1229 249 L1229 259 L664 534 L664 469 L1096 254 L664 39 L664 -24 L1229 249 Z M919 249 L919 259 L354 534 L354 469 L786 254 L354 39 L354 -24 L919 249 Z M610 249 L610 259 L45 534 L45 469 L477 254 L45 39 L45 -24 L610 249 Z " />
<glyph glyph-name="uni22DA" unicode="⋚" horiz-adv-x="685" d="M621 393 L621 456 L215 612 L621 765 L621 830 L56 617 L56 607 L621 393 Z M621 220 L621 286 L56 286 L56 220 L621 220 Z M621 -111 L621 -101 L56 113 L56 48 L462 -106 L56 -261 L56 -324 L621 -111 Z " />
<glyph glyph-name="uni22DB" unicode="⋛" horiz-adv-x="685" d="M621 607 L621 617 L56 830 L56 765 L462 612 L56 456 L56 393 L621 607 Z M621 220 L621 286 L56 286 L56 220 L621 220 Z M621 -324 L621 -261 L215 -106 L621 48 L621 113 L56 -101 L56 -111 L621 -324 Z " />
<glyph glyph-name="uni22DE" unicode="⋞" horiz-adv-x="685" d="M621 627 C483 454 215 397 64 387 L64 321 C229 328 481 389 621 549 L621 627 Z M621 -44 C571 42 410 123 287 158 C410 193 571 274 621 360 L621 437 C501 276 267 207 64 191 L64 125 C267 109 501 40 621 -121 L621 -44 Z " />
<glyph glyph-name="uni22DF" unicode="⋟" horiz-adv-x="685" d="M621 387 C470 397 202 454 64 627 L64 549 C204 389 456 328 621 321 L621 387 Z M621 191 C418 207 184 276 64 437 L64 360 C114 274 275 193 398 158 C275 123 114 42 64 -44 L64 -121 C184 40 418 109 621 125 L621 191 Z " />
<glyph glyph-name="uni22E0" unicode="⋠" horiz-adv-x="685" d="M621 -43 C560 39 470 92 370 127 L405 236 C491 197 567 143 621 71 L621 138 C561 213 490 261 424 293 L468 429 C521 460 575 502 621 561 L621 628 C587 582 544 545 495 513 L566 730 L513 730 L431 476 C318 421 185 392 64 383 L64 317 C160 310 264 291 359 255 L322 142 C238 166 148 180 64 186 L64 120 C141 114 223 101 302 79 L202 -229 L255 -229 L350 63 C458 25 556 -32 621 -120 L621 -43 Z M378 313 C323 334 276 344 247 350 C278 356 338 369 405 398 L378 313 Z " />
<glyph glyph-name="uni22E1" unicode="⋡" horiz-adv-x="685" d="M621 186 C503 177 374 156 263 108 L304 246 C405 287 517 309 621 317 L621 383 C535 389 444 405 359 433 L446 730 L393 730 L311 451 C212 490 124 547 64 628 L64 561 C133 473 219 422 294 392 L265 295 C198 264 125 215 64 138 L64 71 C110 133 172 181 243 218 L201 76 C148 45 100 6 64 -43 L64 -120 C94 -79 132 -44 174 -15 L112 -229 L165 -229 L238 22 C354 82 494 110 621 120 L621 186 Z M341 374 C382 361 416 354 438 350 C413 345 373 336 325 320 L341 374 Z " />
<glyph glyph-name="uni22E6" unicode="⋦" horiz-adv-x="685" d="M621 111 L621 174 L189 389 L621 604 L621 669 L56 394 L56 384 L621 111 Z M604 20 C589 -51 556 -118 487 -118 C454 -118 414 -92 371 -63 L451 105 L396 105 L329 -35 C290 -10 249 10 211 10 C113 10 53 -94 48 -194 L81 -194 C97 -123 134 -56 204 -56 C231 -56 264 -75 300 -98 L215 -279 L270 -279 L342 -126 C387 -156 434 -184 479 -184 C577 -184 631 -65 637 20 L604 20 Z " />
<glyph glyph-name="uni22E7" unicode="⋧" horiz-adv-x="685" d="M621 384 L621 394 L56 669 L56 604 L488 389 L56 174 L56 111 L621 384 Z M604 20 C589 -51 556 -118 487 -118 C455 -118 416 -93 375 -66 L456 105 L401 105 L333 -38 C293 -12 251 10 211 10 C113 10 53 -94 48 -194 L81 -194 C97 -123 134 -56 204 -56 C232 -56 267 -76 304 -100 L220 -279 L275 -279 L345 -129 C389 -158 435 -184 479 -184 C577 -184 631 -65 637 20 L604 20 Z " />
<glyph glyph-name="uni22E8" unicode="⋨" horiz-adv-x="685" d="M621 189 C571 275 410 356 287 391 C410 426 571 507 621 593 L621 670 C501 509 267 440 64 424 L64 358 C267 342 501 273 621 112 L621 189 Z M604 20 C589 -51 556 -118 487 -118 C454 -118 414 -92 371 -63 L450 105 L395 105 L329 -35 C290 -10 249 10 211 10 C113 10 53 -94 48 -194 L81 -194 C97 -123 134 -56 204 -56 C231 -56 264 -74 299 -97 L214 -279 L269 -279 L341 -126 C386 -156 434 -184 479 -184 C577 -184 631 -65 637 20 L604 20 Z " />
<glyph glyph-name="uni22E9" unicode="⋩" horiz-adv-x="685" d="M621 424 C418 440 184 509 64 670 L64 593 C114 507 275 426 398 391 C275 356 114 275 64 189 L64 112 C184 273 418 342 621 358 L621 424 Z M604 20 C589 -51 556 -118 487 -118 C454 -118 416 -93 374 -65 L454 105 L399 105 L332 -37 C292 -11 250 10 211 10 C113 10 53 -94 48 -194 L81 -194 C97 -123 134 -56 204 -56 C232 -56 266 -75 302 -99 L218 -279 L273 -279 L344 -128 C388 -157 435 -184 479 -184 C577 -184 631 -65 637 20 L604 20 Z " />
<glyph glyph-name="uni22EA" unicode="⋪" horiz-adv-x="635" d="M581 -25 L581 531 L446 464 L528 662 L474 662 L378 430 L24 253 L257 136 L137 -156 L191 -156 L302 114 L581 -25 Z M515 80 L327 173 L409 373 L515 426 L515 80 Z M341 339 L282 196 L169 252 L169 254 L341 339 Z " />
<glyph glyph-name="uni22EB" unicode="⋫" horiz-adv-x="635" d="M611 253 L375 371 L495 662 L441 662 L330 393 L54 531 L54 -25 L185 40 L104 -156 L158 -156 L253 74 L611 253 Z M466 252 L290 164 L350 311 L466 254 L466 252 Z M305 333 L222 131 L120 80 L120 426 L305 333 Z " />
<glyph glyph-name="uni22EC" unicode="⋬" horiz-adv-x="635" d="M581 -103 L581 -37 L248 -37 L322 180 L581 51 L581 607 L445 539 L511 730 L458 730 L382 508 L24 329 L277 202 L195 -37 L24 -37 L24 -103 L173 -103 L130 -229 L183 -229 L226 -103 L581 -103 Z M515 156 L343 241 L416 452 L515 502 L515 156 Z M352 421 L298 263 L169 328 L169 330 L352 421 Z " />
<glyph glyph-name="uni22ED" unicode="⋭" horiz-adv-x="635" d="M611 -103 L611 -37 L245 -37 L307 177 L611 329 L384 442 L467 730 L414 730 L337 465 L54 607 L54 51 L245 146 L192 -37 L54 -37 L54 -103 L173 -103 L137 -229 L190 -229 L226 -103 L611 -103 Z M466 328 L331 261 L366 380 L466 330 L466 328 Z M319 403 L269 230 L120 156 L120 502 L319 403 Z " />
<glyph glyph-name="uni22EE" unicode="⋮" horiz-adv-x="511" d="M319 543 C319 580 288 606 256 606 C224 606 192 581 192 543 C192 504 218 479 256 479 C294 479 319 509 319 543 L319 543 Z M319 252 C319 289 288 315 256 315 C224 315 192 290 192 252 C192 213 218 188 256 188 C294 188 319 218 319 252 L319 252 Z M319 -40 C319 -3 288 23 256 23 C224 23 192 -2 192 -40 C192 -79 218 -104 256 -104 C294 -104 319 -74 319 -40 L319 -40 Z " />
<glyph glyph-name="uni22EF" unicode="⋯" horiz-adv-x="926" d="M818 253 C818 290 787 316 755 316 C723 316 691 291 691 253 C691 214 717 189 755 189 C793 189 818 219 818 253 L818 253 Z M526 253 C526 290 495 316 463 316 C431 316 399 291 399 253 C399 214 425 189 463 189 C501 189 526 219 526 253 L526 253 Z M235 253 C235 290 204 316 172 316 C140 316 108 291 108 253 C108 214 134 189 172 189 C210 189 235 219 235 253 L235 253 Z " />
<glyph glyph-name="uni22F1" unicode="⋱" horiz-adv-x="926" d="M321 457 C321 494 290 520 258 520 C226 520 194 495 194 457 C194 418 220 393 258 393 C296 393 321 423 321 457 L321 457 Z M732 46 C732 83 701 109 669 109 C637 109 605 84 605 46 C605 7 631 -18 669 -18 C707 -18 732 12 732 46 L732 46 Z M525 252 C525 289 494 315 462 315 C430 315 398 290 398 252 C398 213 424 188 462 188 C500 188 525 218 525 252 L525 252 Z " />
<glyph glyph-name="uni2308" unicode="⌈" horiz-adv-x="469" d="M447 680 L447 713 L188 713 L188 -213 L254 -213 L254 585 C254 649 273 680 338 680 L447 680 Z " />
<glyph glyph-name="uni2309" unicode="⌉" horiz-adv-x="469" d="M286 -213 L286 713 L27 713 L27 680 L136 680 C201 680 220 649 220 585 L220 -213 L286 -213 Z " />
<glyph glyph-name="uni230A" unicode="⌊" horiz-adv-x="469" d="M447 -213 L447 -180 L338 -180 C273 -180 254 -149 254 -85 L254 713 L188 713 L188 -213 L447 -213 Z " />
<glyph glyph-name="uni230B" unicode="⌋" horiz-adv-x="469" d="M286 -213 L286 713 L220 713 L220 -85 C220 -149 201 -180 136 -180 L27 -180 L27 -213 L286 -213 Z " />
<glyph glyph-name="uni2322" unicode="⌢" horiz-adv-x="1019" d="M965 162 C814 295 632 360 510 360 C347 360 190 295 54 163 L65 147 C183 235 317 275 510 275 C674 275 836 235 955 147 L965 162 Z " />
<glyph glyph-name="uni2323" unicode="⌣" horiz-adv-x="1019" d="M955 360 C836 272 674 232 510 232 C317 232 183 272 65 360 L54 344 C190 212 347 147 510 147 C632 147 814 212 965 345 L955 360 Z " />
<glyph glyph-name="uni23B4" unicode="⎴" horiz-adv-x="926" d="M871 574 L871 766 L55 766 L55 574 L121 574 L121 700 L805 700 L805 574 L871 574 Z " />
<glyph glyph-name="uni23B5" unicode="⎵" horiz-adv-x="926" d="M871 -83 L871 109 L805 109 L805 -17 L121 -17 L121 109 L55 109 L55 -83 L871 -83 Z " />
<glyph glyph-name="uni23D0" unicode="⏐" horiz-adv-x="511" d="M288 101 L288 405 L222 405 L222 101 L288 101 Z " />
<glyph glyph-name="uni23DC" unicode="⏜" horiz-adv-x="1000" d="M1000 -78 C1000 -59 920 -4 828 35 C741 72 594 100 500 100 C412 100 227 70 113 7 C95 -3 0 -57 0 -81 C0 -88 4 -100 14 -100 C40 -100 60 -91 85 -80 C208 -29 365 0 500 0 C514 0 723 0 915 -80 C926 -85 962 -100 972 -100 C991 -100 1000 -100 1000 -78 L1000 -78 Z " />
<glyph glyph-name="uni23DD" unicode="⏝" horiz-adv-x="1000" d="M1000 742 C1000 748 1000 758 992 761 C991 763 988 764 986 764 C960 764 942 756 915 744 C883 731 849 718 817 709 C732 684 589 663 500 663 C366 663 207 693 85 744 C72 750 41 764 20 764 C13 764 0 763 0 745 C0 730 22 714 38 703 C233 564 489 564 500 564 C539 564 809 575 985 721 C987 723 1000 734 1000 742 L1000 742 Z " />
<glyph glyph-name="uni23DE" unicode="⏞" horiz-adv-x="1000" d="M1000 -114 L1000 -102 C1000 -40 964 100 831 100 L612 100 C541 100 531 145 511 214 L489 214 C469 145 459 100 388 100 L169 100 C31 100 0 -47 0 -114 L23 -114 C47 -37 45 0 140 0 L400 0 C448 0 490 58 500 100 C508 57 553 0 600 0 L860 0 C954 0 953 -37 977 -114 L1000 -114 Z " />
<glyph glyph-name="uni23DF" unicode="⏟" horiz-adv-x="1000" d="M1000 892 L977 892 C953 815 954 778 860 778 L600 778 C553 778 508 721 500 678 C490 720 448 778 400 778 L140 778 C45 778 47 815 23 892 L0 892 C0 825 31 678 169 678 L388 678 C459 678 469 633 489 564 L511 564 C531 633 541 678 612 678 L831 678 C964 678 1000 818 1000 880 L1000 892 Z " />
<glyph glyph-name="uni23E0" unicode="⏠" horiz-adv-x="1000" d="M1000 -114 L1000 -62 L904 100 L96 100 L0 -62 L0 -114 L113 0 L887 0 L1000 -114 Z " />
<glyph glyph-name="uni23E1" unicode="⏡" horiz-adv-x="1000" d="M1000 726 L1000 778 L887 664 L113 664 L0 778 L0 726 L96 564 L904 564 L1000 726 Z " />
<glyph glyph-name="uni24C8" unicode="Ⓢ" horiz-adv-x="684" d="M475 395 L458 524 L440 524 C437 512 430 506 420 506 C412 506 402 508 391 512 C368 521 356 524 331 524 C267 524 220 486 220 422 C220 385 248 346 299 322 C351 297 416 263 416 226 C416 191 390 167 348 167 C287 167 252 198 225 264 L202 264 L223 134 L244 134 C244 146 251 153 259 153 C267 153 277 152 288 148 C313 138 332 134 358 134 C432 134 490 176 490 243 C490 288 457 324 389 358 C324 390 283 412 283 443 C283 470 302 488 340 488 C379 488 404 472 426 449 C439 435 446 420 452 395 L475 395 Z M684 330 C684 521 533 676 348 676 C152 676 0 525 0 330 C0 138 151 -14 343 -14 C534 -14 684 137 684 330 L684 330 Z M642 330 C642 163 513 28 345 28 C178 28 42 163 42 330 C42 498 178 634 345 634 C513 634 642 498 642 330 L642 330 Z " />
<glyph glyph-name="uni250C" unicode="┌" horiz-adv-x="708" d="M720 267 L720 340 L317 340 L317 -303 L390 -303 L390 267 L720 267 Z " />
<glyph glyph-name="uni2510" unicode="┐" horiz-adv-x="708" d="M390 -303 L390 340 L-11 340 L-11 267 L317 267 L317 -303 L390 -303 Z " />
<glyph glyph-name="uni2514" unicode="└" horiz-adv-x="708" d="M720 267 L720 340 L390 340 L390 910 L317 910 L317 267 L720 267 Z " />
<glyph glyph-name="uni2518" unicode="┘" horiz-adv-x="708" d="M390 267 L390 910 L317 910 L317 340 L-11 340 L-11 267 L390 267 Z " />
<glyph glyph-name="uni2571" unicode="╱" horiz-adv-x="708" d="M723 878 L665 910 L-15 -271 L43 -303 L723 878 Z " />
<glyph glyph-name="uni2572" unicode="╲" horiz-adv-x="708" d="M723 -271 L43 910 L-15 878 L665 -303 L723 -271 Z " />
<glyph glyph-name="uni25A0" unicode="■" horiz-adv-x="910" d="M865 -158 L865 662 L45 662 L45 -158 L865 -158 Z " />
<glyph glyph-name="uni25A1" unicode="□" horiz-adv-x="910" d="M865 -158 L865 662 L45 662 L45 -158 L865 -158 Z M799 -92 L111 -92 L111 596 L799 596 L799 -92 Z " />
<glyph glyph-name="uni25B2" unicode="▲" horiz-adv-x="1145" d="M1110 -127 L573 811 L35 -127 L1110 -127 Z " />
<glyph glyph-name="uni25B3" unicode="△" horiz-adv-x="1145" d="M1110 -127 L573 811 L35 -127 L1110 -127 Z M995 -61 L149 -61 L573 678 L995 -61 Z " />
<glyph glyph-name="uni25B6" unicode="▶" horiz-adv-x="1043" d="M1008 253 L70 790 L70 -285 L1008 253 Z " />
<glyph glyph-name="uni25B8" unicode="▸" horiz-adv-x="660" d="M605 253 L80 556 L80 -49 L605 253 Z " />
<glyph glyph-name="uni25B9" unicode="▹" horiz-adv-x="660" d="M605 253 L80 555 L80 -50 L605 253 Z M472 252 L146 60 L146 443 L472 252 Z " />
<glyph glyph-name="uni25BC" unicode="▼" horiz-adv-x="1145" d="M1110 811 L35 811 L573 -127 L1110 811 Z " />
<glyph glyph-name="uni25BD" unicode="▽" horiz-adv-x="1145" d="M1110 811 L35 811 L573 -127 L1110 811 Z M995 745 L573 6 L149 745 L995 745 Z " />
<glyph glyph-name="uni25C0" unicode="◀" horiz-adv-x="1043" d="M973 -285 L973 790 L35 253 L973 -285 Z " />
<glyph glyph-name="uni25C2" unicode="◂" horiz-adv-x="660" d="M580 -50 L580 555 L55 253 L580 -50 Z " />
<glyph glyph-name="uni25C3" unicode="◃" horiz-adv-x="660" d="M580 -51 L580 554 L55 252 L580 -51 Z M514 61 L188 252 L514 444 L514 61 Z " />
<glyph glyph-name="uni25CA" unicode="◊" horiz-adv-x="790" d="M745 253 L395 795 L45 253 L394 -289 L745 253 Z M667 253 L394 -168 L124 253 L395 674 L667 253 Z " />
<glyph glyph-name="uni25EF" unicode="◯" horiz-adv-x="1207" d="M1137 252 C1137 546 898 785 604 785 C310 785 70 546 70 252 C70 -42 310 -282 604 -282 C898 -282 1137 -42 1137 252 L1137 252 Z M1071 252 C1071 -4 860 -216 604 -216 C348 -216 136 -4 136 252 C136 508 348 719 604 719 C860 719 1071 508 1071 252 L1071 252 Z " />
<glyph glyph-name="uni2660" unicode="♠" horiz-adv-x="685" d="M314 68 C314 7 292 -79 232 -84 L232 -99 L454 -99 L454 -84 C395 -79 375 8 375 68 L385 68 C427 7 467 4 504 4 C562 4 651 53 651 173 C651 343 471 423 344 609 C208 423 34 345 34 170 C34 75 110 4 170 4 C214 4 263 12 302 68 L314 68 Z " />
<glyph glyph-name="uni2661" unicode="♡" horiz-adv-x="685" d="M651 415 C651 537 585 603 495 603 C438 603 384 576 341 460 C308 576 240 603 191 603 C113 603 34 534 34 414 C34 244 215 81 342 -105 C478 81 651 240 651 415 L651 415 Z M379 395 C413 499 439 537 501 537 C553 537 585 494 585 419 C585 312 510 189 342 3 C193 193 100 315 100 419 C100 492 138 537 183 537 C245 537 270 498 306 395 L379 395 Z " />
<glyph glyph-name="uni2662" unicode="♢" horiz-adv-x="685" d="M643 252 C538 363 438 482 343 609 C253 481 153 362 41 252 C144 139 246 22 343 -105 C432 20 530 138 643 252 L643 252 Z M533 251 C533 234 529 215 517 202 C467 149 423 96 382 42 C371 27 358 21 343 21 C329 21 315 27 304 42 C260 101 214 157 170 206 C161 215 154 236 154 252 C154 269 158 284 170 296 C219 349 263 403 307 461 C318 475 329 483 342 483 C355 483 367 476 377 463 C424 402 467 343 516 298 C527 284 533 266 533 251 L533 251 Z " />
<glyph glyph-name="uni2663" unicode="♣" horiz-adv-x="685" d="M472 340 C489 367 501 399 501 445 C501 527 433 603 347 603 C260 603 187 525 187 442 C187 398 198 369 216 343 L210 336 C201 337 193 340 186 340 C102 340 34 275 34 173 C34 70 100 4 182 4 C236 4 282 32 303 68 L314 68 C314 8 292 -79 232 -84 L232 -99 L454 -99 L454 -84 C395 -79 375 8 375 68 L386 68 C404 32 454 4 506 4 C580 4 651 63 651 173 C651 258 587 340 502 340 C499 340 486 339 478 334 L472 340 Z " />
<glyph glyph-name="uni266D" unicode="♭" horiz-adv-x="426" d="M97 768 L57 745 L57 -10 L75 -10 C316 125 346 254 346 367 C346 458 292 508 210 508 C186 508 133 497 97 450 L97 768 Z M97 370 C97 407 140 471 194 471 C247 471 266 412 266 363 C266 279 227 150 97 63 L97 370 Z " />
<glyph glyph-name="uni266E" unicode="♮" horiz-adv-x="426" d="M350 -158 L350 597 L115 508 L115 768 L75 745 L75 -10 L310 79 L310 -181 L350 -158 Z M310 164 L115 92 L115 422 L310 496 L310 164 Z " />
<glyph glyph-name="uni266F" unicode="♯" horiz-adv-x="426" d="M386 95 L386 180 L331 163 L331 498 L386 515 L386 600 L331 583 L331 768 L291 745 L291 571 L136 522 L136 682 L96 659 L96 510 L41 493 L41 408 L96 425 L96 90 L41 73 L41 -12 L96 5 L96 -181 L136 -158 L136 17 L291 66 L291 -95 L331 -72 L331 78 L386 95 Z M291 151 L136 102 L136 437 L291 486 L291 151 Z " />
<glyph glyph-name="uni2713" unicode="✓" horiz-adv-x="755" d="M704 690 L699 707 C649 704 603 694 567 675 C531 656 467 567 442 530 L202 171 C175 198 159 290 134 290 C125 290 117 288 109 284 L49 251 C39 245 34 232 34 225 C34 176 99 -12 125 -12 L189 -12 C207 -12 220 -3 229 11 C305 132 380 256 463 377 C507 441 653 632 680 663 L704 690 Z " />
<glyph glyph-name="uni2720" unicode="✠" horiz-adv-x="767" d="M714 430 C590 311 528 276 436 276 L407 276 L407 317 C407 421 469 507 561 592 L206 592 C300 507 360 419 360 315 L360 276 L331 276 C235 276 135 341 53 430 L53 75 C174 192 232 229 331 229 L360 229 L360 190 C360 82 298 -2 206 -87 L561 -87 C459 8 407 80 407 190 L407 229 L435 229 C527 229 628 167 714 75 L714 430 Z " />
<glyph glyph-name="uni27E8" unicode="⟨" horiz-adv-x="400" d="M335 713 L283 713 L77 261 L77 241 L282 -213 L334 -213 L143 251 L335 713 Z " />
<glyph glyph-name="uni27E9" unicode="⟩" horiz-adv-x="400" d="M323 240 L323 260 L118 713 L66 713 L257 250 L65 -213 L117 -213 L323 240 Z " />
<glyph glyph-name="uni27EE" unicode="⟮" horiz-adv-x="233" d="M211 -166 C146 -82 130 -9 130 96 L130 403 C130 508 146 581 211 665 L195 676 C57 567 56 407 56 247 C56 88 58 -70 195 -177 L211 -166 Z " />
<glyph glyph-name="uni27EF" unicode="⟯" horiz-adv-x="233" d="M22 665 C87 581 103 508 103 403 L103 96 C103 -9 87 -82 22 -166 L38 -177 C175 -70 177 88 177 247 C177 407 176 567 38 676 L22 665 Z " />
<glyph glyph-name="uni27F5" unicode="⟵" horiz-adv-x="1574" d="M1519 220 L1519 286 L243 286 C225 286 217 296 217 306 C217 314 222 325 231 334 C261 365 290 398 312 430 L292 449 C227 374 151 299 55 258 L55 248 C151 208 227 133 292 58 L312 77 C290 110 259 145 230 173 C220 183 216 189 216 198 C216 208 232 220 242 220 L1519 220 Z " />
<glyph glyph-name="uni27F6" unicode="⟶" horiz-adv-x="1574" d="M1519 258 C1423 298 1347 374 1282 449 L1262 430 C1284 397 1315 361 1344 333 C1354 323 1358 317 1358 308 C1358 298 1342 286 1332 286 L55 286 L55 220 L1331 220 C1349 220 1357 210 1357 200 C1357 192 1352 181 1343 172 C1313 141 1284 109 1261 76 L1281 57 C1347 133 1423 207 1519 248 L1519 258 Z " />
<glyph glyph-name="uni27F7" unicode="⟷" horiz-adv-x="1574" d="M1519 258 C1423 298 1348 373 1283 448 L1263 429 C1285 396 1315 361 1344 333 C1354 323 1358 317 1358 308 C1358 298 1342 286 1332 286 L243 286 C225 286 217 296 217 306 C217 314 222 325 231 334 C261 365 289 397 312 430 L292 449 C226 373 151 299 55 258 L55 248 C151 208 227 132 292 57 L312 76 C290 109 259 145 230 173 C220 183 216 189 216 198 C216 208 232 220 242 220 L1331 220 C1349 220 1357 210 1357 200 C1357 192 1352 181 1343 172 C1313 141 1284 109 1261 76 L1281 57 C1347 133 1423 207 1519 248 L1519 258 Z " />
<glyph glyph-name="uni27F8" unicode="⟸" horiz-adv-x="1574" d="M1519 120 L1519 186 L226 186 C194 208 168 229 168 253 C168 277 194 301 227 320 L1519 320 L1519 386 L371 386 C353 386 345 400 345 408 C345 428 353 434 367 449 C392 475 418 503 442 531 L421 551 C304 435 176 350 55 258 L55 248 C178 156 304 71 421 -45 L442 -25 C418 3 379 45 368 56 C351 73 345 82 345 98 C345 106 353 120 371 120 L1519 120 Z " />
<glyph glyph-name="uni27F9" unicode="⟹" horiz-adv-x="1574" d="M1519 258 C1396 350 1270 435 1153 551 L1132 531 C1156 503 1195 461 1206 450 C1223 433 1229 424 1229 408 C1229 400 1221 386 1203 386 L55 386 L55 320 L1348 320 C1380 298 1406 277 1406 253 C1406 229 1380 205 1347 186 L55 186 L55 120 L1203 120 C1221 120 1229 106 1229 98 C1229 78 1221 72 1207 57 C1182 31 1156 3 1132 -25 L1153 -45 C1270 71 1398 156 1519 248 L1519 258 Z " />
<glyph glyph-name="uni27FA" unicode="⟺" horiz-adv-x="1574" d="M1519 258 C1473 289 1327 405 1205 517 L1177 493 C1200 467 1244 441 1244 407 C1244 398 1236 386 1216 386 L358 386 C342 386 324 390 324 405 C324 425 372 466 396 494 L373 517 C250 404 101 291 55 258 L55 248 C101 220 252 104 373 -10 L396 13 C357 57 326 78 326 102 C326 118 335 120 361 120 L1216 120 C1245 120 1246 115 1246 104 C1246 75 1198 34 1177 11 L1205 -10 C1322 106 1474 218 1519 248 L1519 258 Z M225 186 C193 208 167 230 167 253 C168 277 193 301 226 320 L1348 320 C1380 298 1406 277 1406 253 C1406 229 1380 205 1347 186 L225 186 Z " />
<glyph glyph-name="uni27FC" unicode="⟼" horiz-adv-x="1574" d="M1519 258 C1423 298 1347 375 1282 450 L1262 431 C1284 398 1315 361 1344 333 C1354 323 1358 317 1358 308 C1358 298 1350 286 1332 286 L105 286 L105 450 L55 450 L55 57 L105 57 L105 220 L1331 220 C1349 220 1357 210 1357 200 C1357 192 1352 181 1343 172 C1313 141 1284 109 1261 76 L1281 57 C1347 133 1423 207 1519 248 L1519 258 Z " />
<glyph glyph-name="uni2997" unicode="⦗" horiz-adv-x="488" d="M466 719 L438 719 L188 502 L188 4 L438 -213 L465 -213 L342 -73 L342 578 L466 719 Z " />
<glyph glyph-name="uni2998" unicode="⦘" horiz-adv-x="488" d="M300 4 L300 502 L51 719 L23 719 L146 579 L146 -72 L22 -213 L50 -213 L300 4 Z " />
<glyph glyph-name="uni29EB" unicode="⧫" horiz-adv-x="790" d="M745 253 L395 795 L45 253 L394 -289 L745 253 Z " />
<glyph glyph-name="uni29F5" unicode="⧵" horiz-adv-x="523" d="M478 -222 L118 710 L46 710 L406 -222 L478 -222 Z " />
<glyph glyph-name="uni29F8" unicode="⧸" horiz-adv-x="602" d="M517 695 L455 695 L85 -325 L147 -325 L517 695 Z " />
<glyph glyph-name="uni29F9" unicode="⧹" horiz-adv-x="602" d="M517 -325 L147 695 L85 695 L455 -325 L517 -325 Z " />
<glyph glyph-name="uni2A3F" unicode="⨿" horiz-adv-x="694" d="M664 0 L664 19 C595 24 586 43 586 109 L586 553 C586 624 597 637 664 643 L664 662 L418 662 L418 643 C484 637 496 627 496 553 L496 50 L199 50 L199 553 C199 624 208 637 275 643 L275 662 L30 662 L30 643 C95 637 109 627 109 553 L109 120 C109 45 105 23 31 19 L31 0 L664 0 Z " />
<glyph glyph-name="uni2A5E" unicode="⩞" horiz-adv-x="620" d="M571 730 L571 796 L47 796 L47 730 L571 730 Z M571 580 L571 646 L47 646 L47 580 L571 580 Z M589 -29 L316 536 L306 536 L31 -29 L96 -29 L311 403 L526 -29 L589 -29 Z " />
<glyph glyph-name="uni2A7D" unicode="⩽" horiz-adv-x="685" d="M621 67 L621 132 L189 347 L621 562 L621 625 L56 352 L56 342 L621 67 Z M621 -137 L621 -71 L56 204 L56 138 L621 -137 Z " />
<glyph glyph-name="uni2A7E" unicode="⩾" horiz-adv-x="685" d="M621 342 L621 352 L56 625 L56 562 L488 347 L56 132 L56 67 L621 342 Z M621 138 L621 204 L56 -71 L56 -137 L621 138 Z " />
<glyph glyph-name="uni2A85" unicode="⪅" horiz-adv-x="685" d="M622 249 L622 312 L190 498 L622 681 L622 746 L57 503 L57 493 L622 249 Z M604 175 C589 104 556 37 487 37 C414 37 307 165 211 165 C113 165 53 61 48 -39 L81 -39 C97 32 134 99 204 99 C276 99 383 -29 479 -29 C577 -29 631 90 637 175 L604 175 Z M604 -61 C589 -132 556 -199 487 -199 C414 -199 307 -71 211 -71 C113 -71 53 -175 48 -275 L81 -275 C97 -204 134 -137 204 -137 C276 -137 383 -265 479 -265 C577 -265 631 -146 637 -61 L604 -61 Z " />
<glyph glyph-name="uni2A86" unicode="⪆" horiz-adv-x="685" d="M629 493 L629 503 L64 746 L64 681 L496 498 L64 312 L64 249 L629 493 Z M604 175 C589 104 556 37 487 37 C414 37 307 165 211 165 C113 165 53 61 48 -39 L81 -39 C97 32 134 99 204 99 C276 99 383 -29 479 -29 C577 -29 631 90 637 175 L604 175 Z M604 -61 C589 -132 556 -199 487 -199 C414 -199 307 -71 211 -71 C113 -71 53 -175 48 -275 L81 -275 C97 -204 134 -137 204 -137 C276 -137 383 -265 479 -265 C577 -265 631 -146 637 -61 L604 -61 Z " />
<glyph glyph-name="uni2A87" unicode="⪇" horiz-adv-x="685" d="M625 70 L625 135 L193 348 L625 563 L625 628 L60 353 L60 343 L625 70 Z M625 -120 L625 -54 L388 -54 L449 42 L390 42 L329 -54 L60 -54 L60 -120 L287 -120 L227 -216 L286 -216 L346 -120 L625 -120 Z " />
<glyph glyph-name="uni2A88" unicode="⪈" horiz-adv-x="687" d="M621 343 L621 353 L56 628 L56 563 L488 348 L56 133 L56 70 L621 343 Z M621 -120 L621 -54 L384 -54 L445 42 L386 42 L325 -54 L56 -54 L56 -120 L283 -120 L223 -216 L282 -216 L342 -120 L621 -120 Z " />
<glyph glyph-name="uni2A89" unicode="⪉" horiz-adv-x="685" d="M621 249 L621 312 L189 498 L621 681 L621 746 L56 503 L56 493 L621 249 Z M604 -61 C589 -132 556 -199 487 -199 C446 -199 395 -158 341 -123 L400 -6 C427 -20 453 -29 479 -29 C577 -29 631 90 637 175 L604 175 C589 104 556 37 487 37 C470 37 451 44 431 54 L510 209 L449 209 L385 82 C329 119 268 165 211 165 C113 165 53 61 48 -39 L81 -39 C97 32 134 99 204 99 C245 99 298 56 353 20 L294 -96 C266 -81 238 -71 211 -71 C113 -71 53 -175 48 -275 L81 -275 C97 -204 134 -137 204 -137 C222 -137 242 -144 263 -156 L186 -309 L247 -309 L309 -185 C363 -223 423 -265 479 -265 C577 -265 631 -146 637 -61 L604 -61 Z " />
<glyph glyph-name="uni2A8A" unicode="⪊" horiz-adv-x="685" d="M621 492 L621 502 L56 746 L56 683 L488 497 L56 314 L56 249 L621 492 Z M604 -61 C589 -132 556 -199 487 -199 C446 -199 395 -158 341 -123 L400 -6 C427 -20 453 -29 479 -29 C577 -29 631 90 637 175 L604 175 C589 104 556 37 487 37 C470 37 451 44 431 54 L510 209 L449 209 L385 82 C329 119 268 165 211 165 C113 165 53 61 48 -39 L81 -39 C97 32 134 99 204 99 C245 99 298 56 353 20 L294 -96 C266 -81 238 -71 211 -71 C113 -71 53 -175 48 -275 L81 -275 C97 -204 134 -137 204 -137 C222 -137 242 -144 263 -156 L186 -309 L247 -309 L309 -185 C363 -223 423 -265 479 -265 C577 -265 631 -146 637 -61 L604 -61 Z " />
<glyph glyph-name="uni2A8B" unicode="⪋" horiz-adv-x="685" d="M621 493 L621 556 L214 711 L621 865 L621 930 L56 716 L56 706 L621 493 Z M621 320 L621 386 L56 386 L56 320 L621 320 Z M621 120 L621 186 L56 186 L56 120 L621 120 Z M621 -212 L621 -202 L56 13 L56 -52 L463 -207 L56 -361 L56 -424 L621 -212 Z " />
<glyph glyph-name="uni2A8C" unicode="⪌" horiz-adv-x="685" d="M621 706 L621 716 L56 930 L56 865 L463 711 L56 556 L56 493 L621 706 Z M621 320 L621 386 L56 386 L56 320 L621 320 Z M621 120 L621 186 L56 186 L56 120 L621 120 Z M621 -424 L621 -361 L214 -207 L621 -52 L621 13 L56 -202 L56 -212 L621 -424 Z " />
<glyph glyph-name="uni2A95" unicode="⪕" horiz-adv-x="685" d="M621 574 L621 640 L56 365 L56 299 L621 574 Z M621 -122 L621 -59 L189 156 L621 371 L621 436 L56 161 L56 151 L621 -122 Z " />
<glyph glyph-name="uni2A96" unicode="⪖" horiz-adv-x="685" d="M621 299 L621 365 L56 640 L56 574 L621 299 Z M621 151 L621 161 L56 436 L56 371 L488 156 L56 -59 L56 -122 L621 151 Z " />
<glyph glyph-name="uni2AAF" unicode="⪯" horiz-adv-x="685" d="M621 128 C571 214 410 295 287 330 C410 365 571 446 621 532 L621 609 C501 448 267 379 64 363 L64 297 C267 281 501 212 621 51 L621 128 Z M621 -103 L621 -37 L64 -37 L64 -103 L621 -103 Z " />
<glyph glyph-name="uni2AB0" unicode="⪰" horiz-adv-x="685" d="M621 363 C418 379 184 448 64 609 L64 532 C114 446 275 365 398 330 C275 295 114 214 64 128 L64 51 C184 212 418 281 621 297 L621 363 Z M621 -103 L621 -37 L64 -37 L64 -103 L621 -103 Z " />
<glyph glyph-name="uni2AB5" unicode="⪵" horiz-adv-x="685" d="M622 266 C572 352 411 433 288 468 C411 503 572 584 622 670 L622 747 C502 586 268 517 65 501 L65 435 C268 419 502 350 622 189 L622 266 Z M622 -184 L622 -118 L326 -118 L410 16 L622 16 L622 82 L451 82 L499 158 L439 158 L391 82 L65 82 L65 16 L350 16 L266 -118 L65 -118 L65 -184 L225 -184 L178 -260 L238 -260 L285 -184 L622 -184 Z " />
<glyph glyph-name="uni2AB6" unicode="⪶" horiz-adv-x="685" d="M622 501 C419 517 185 586 65 747 L65 670 C115 584 276 503 399 468 C276 433 115 352 65 266 L65 189 C185 350 419 419 622 435 L622 501 Z M622 -184 L622 -118 L331 -118 L415 16 L622 16 L622 82 L456 82 L504 158 L444 158 L396 82 L65 82 L65 16 L355 16 L271 -118 L65 -118 L65 -184 L230 -184 L183 -260 L243 -260 L290 -184 L622 -184 Z " />
<glyph glyph-name="uni2AB7" unicode="⪷" horiz-adv-x="685" d="M621 326 C571 412 410 483 287 498 C410 513 571 584 621 670 L621 747 C501 586 267 547 64 531 L64 465 C267 449 501 410 621 249 L621 326 Z M604 175 C589 104 556 37 487 37 C414 37 307 165 211 165 C113 165 53 61 48 -39 L81 -39 C97 32 134 99 204 99 C276 99 383 -29 479 -29 C577 -29 631 90 637 175 L604 175 Z M604 -61 C589 -132 556 -199 487 -199 C414 -199 307 -71 211 -71 C113 -71 53 -175 48 -275 L81 -275 C97 -204 134 -137 204 -137 C276 -137 383 -265 479 -265 C577 -265 631 -146 637 -61 L604 -61 Z " />
<glyph glyph-name="uni2AB8" unicode="⪸" horiz-adv-x="685" d="M621 531 C418 547 184 586 64 747 L64 670 C114 584 275 513 398 498 C275 483 114 412 64 326 L64 249 C184 410 418 449 621 465 L621 531 Z M604 175 C589 104 556 37 487 37 C414 37 307 165 211 165 C113 165 53 61 48 -39 L81 -39 C97 32 134 99 204 99 C276 99 383 -29 479 -29 C577 -29 631 90 637 175 L604 175 Z M604 -61 C589 -132 556 -199 487 -199 C414 -199 307 -71 211 -71 C113 -71 53 -175 48 -275 L81 -275 C97 -204 134 -137 204 -137 C276 -137 383 -265 479 -265 C577 -265 631 -146 637 -61 L604 -61 Z " />
<glyph glyph-name="uni2AB9" unicode="⪹" horiz-adv-x="685" d="M622 326 C572 412 411 483 288 498 C411 513 572 584 622 670 L622 747 C502 586 268 547 65 531 L65 465 C268 449 502 410 622 249 L622 326 Z M604 -61 C589 -132 556 -199 487 -199 C446 -199 395 -158 341 -123 L400 -6 C427 -20 453 -29 479 -29 C577 -29 631 90 637 175 L604 175 C589 104 556 37 487 37 C470 37 451 44 431 54 L510 209 L449 209 L385 82 C329 119 268 165 211 165 C113 165 53 61 48 -39 L81 -39 C97 32 134 99 204 99 C245 99 298 56 353 20 L294 -96 C266 -81 238 -71 211 -71 C113 -71 53 -175 48 -275 L81 -275 C97 -204 134 -137 204 -137 C222 -137 242 -144 263 -156 L186 -309 L247 -309 L309 -185 C363 -223 423 -265 479 -265 C577 -265 631 -146 637 -61 L604 -61 Z " />
<glyph glyph-name="uni2ABA" unicode="⪺" horiz-adv-x="685" d="M622 531 C419 547 185 586 65 747 L65 670 C115 584 276 513 399 498 C276 483 115 412 65 326 L65 249 C185 410 419 449 622 465 L622 531 Z M604 -61 C589 -132 556 -199 487 -199 C446 -199 395 -158 341 -123 L400 -6 C427 -20 453 -29 479 -29 C577 -29 631 90 637 175 L604 175 C589 104 556 37 487 37 C470 37 451 44 431 54 L510 209 L449 209 L385 82 C329 119 268 165 211 165 C113 165 53 61 48 -39 L81 -39 C97 32 134 99 204 99 C245 99 298 56 353 20 L294 -96 C266 -81 238 -71 211 -71 C113 -71 53 -175 48 -275 L81 -275 C97 -204 134 -137 204 -137 C222 -137 242 -144 263 -156 L186 -309 L247 -309 L309 -185 C363 -223 423 -265 479 -265 C577 -265 631 -146 637 -61 L604 -61 Z " />
<glyph glyph-name="uni2AC5" unicode="⫅" horiz-adv-x="685" d="M622 161 L622 227 L335 227 C221 227 130 333 130 440 C130 547 220 651 334 651 L622 651 L622 717 L334 717 C174 717 64 588 64 440 C64 292 172 161 331 161 L622 161 Z M622 -12 L622 54 L74 54 L74 -12 L622 -12 Z M622 -211 L622 -145 L74 -145 L74 -211 L622 -211 Z " />
<glyph glyph-name="uni2AC6" unicode="⫆" horiz-adv-x="685" d="M65 717 L65 651 L353 651 C467 651 557 547 557 440 C557 333 466 227 352 227 L65 227 L65 161 L356 161 C515 161 623 292 623 440 C623 588 513 717 353 717 L65 717 Z M623 -12 L623 54 L65 54 L65 -12 L623 -12 Z M623 -211 L623 -145 L65 -145 L65 -211 L623 -211 Z " />
<glyph glyph-name="uni2ACB" unicode="⫋" horiz-adv-x="685" d="M619 161 L619 227 L332 227 C218 227 127 333 127 440 C127 547 217 651 331 651 L619 651 L619 717 L331 717 C171 717 61 588 61 440 C61 292 169 161 328 161 L619 161 Z M619 -211 L619 -145 L343 -145 L417 -12 L619 -12 L619 54 L453 54 L501 139 L439 139 L391 54 L71 54 L71 -12 L355 -12 L281 -145 L71 -145 L71 -211 L244 -211 L184 -319 L246 -319 L306 -211 L619 -211 Z " />
<glyph glyph-name="uni2ACC" unicode="⫌" horiz-adv-x="685" d="M66 717 L66 651 L353 651 C467 651 558 545 558 438 C558 331 468 227 354 227 L66 227 L66 161 L354 161 C514 161 624 290 624 438 C624 586 516 717 357 717 L66 717 Z M614 -211 L614 -145 L339 -145 L413 -12 L614 -12 L614 54 L449 54 L497 139 L435 139 L387 54 L66 54 L66 -12 L351 -12 L277 -145 L66 -145 L66 -211 L240 -211 L180 -319 L242 -319 L302 -211 L614 -211 Z " />
<glyph glyph-name="uniEFFD" unicode="" horiz-adv-x="300" d="M0 0 L100 0 L100 100 L0 100 L0 0 Z M200 0 L300 0 L300 100 L200 100 L200 0 Z " />
<glyph glyph-name="uniEFFE" unicode="" horiz-adv-x="300" d="M0 0 L100 0 L100 100 L0 100 L0 0 Z M200 0 L300 0 L300 100 L200 100 L200 0 Z " />
<glyph glyph-name="uniEFFF" unicode="" horiz-adv-x="100" d="M0 0 L100 0 L100 100 L0 100 L0 0 Z " />
<glyph glyph-name="uniFFFD" unicode="�" horiz-adv-x="872" d="M817 223 L439 662 L55 221 L434 -217 L817 223 Z M414 58 C415 90 420 126 453 197 C476 246 512 284 512 342 C512 407 485 437 426 437 C375 437 338 398 338 368 C338 339 370 343 370 316 C370 297 341 279 317 279 C294 279 262 299 262 330 C262 401 330 478 436 478 C518 478 614 416 614 335 C614 287 601 257 504 178 C474 144 459 112 452 58 L414 58 Z M483 -49 C483 -71 459 -98 431 -98 C405 -98 381 -72 381 -50 C381 -15 406 4 431 4 C458 4 483 -16 483 -49 L483 -49 Z " />
</font>
</svg>
