<?xml version="1.0" encoding="UTF-8"?>
<svg xmlns="http://www.w3.org/2000/svg" xmlns:xlink="http://www.w3.org/1999/xlink" version="1.2">
<font id="That-BoldItalic">
<font-face font-family="That" units-per-em="1000" ascent="700" descent="-230" font-style="italic" font-weight="700" font-stretch="normal" slope="-12" cap-height="640" x-height="460" underline-position="-90" underline-thickness="60" />
<missing-glyph horiz-adv-x="500" d="" />
<glyph glyph-name="NULL" d="" />
<glyph glyph-name="CR" unicode="&#xD;" horiz-adv-x="250" d="" />
<glyph glyph-name="space" unicode=" " horiz-adv-x="320" d="" />
<glyph glyph-name="exclam" unicode="!" horiz-adv-x="268" d="M145 170 L213 206 L315 650 L145 640 L83 184 L145 170 Z M101 -5 C149 -5 195 26 202 66 C208 101 185 129 141 129 C92 129 47 98 40 58 C34 23 57 -5 101 -5 L101 -5 Z " />
<glyph glyph-name="quotedbl" unicode="&quot;" horiz-adv-x="400" d="M296 450 L394 450 L443 640 L315 640 L296 450 Z M124 450 L222 450 L271 640 L143 640 L124 450 Z " />
<glyph glyph-name="numbersign" unicode="#" horiz-adv-x="620" d="M135 0 L205 0 L256 190 L370 190 L319 0 L389 0 L440 190 L586 190 L596 250 L455 250 L488 372 L618 372 L628 432 L503 432 L552 620 L482 620 L433 432 L319 432 L368 620 L298 620 L249 432 L102 432 L92 372 L234 372 L201 250 L70 250 L60 190 L186 190 L135 0 Z M271 250 L304 372 L418 372 L385 250 L271 250 Z " />
<glyph glyph-name="dollar" unicode="$" horiz-adv-x="620" d="M249 -78 L289 -78 L302 -5 C427 11 532 71 553 190 C569 279 495 341 374 401 L405 581 C441 581 496 559 496 559 L499 481 L546 484 C546 484 579 616 586 638 C586 638 506 650 418 650 L427 704 L387 704 L377 646 C253 630 168 557 152 465 C133 355 188 309 269 268 C283 261 296 255 307 248 L273 58 C202 58 155 79 155 79 L152 157 L104 154 C104 154 72 22 64 0 C64 0 173 -9 261 -9 L249 -78 Z M337 421 C285 453 278 477 284 509 C290 540 319 565 364 575 L337 421 Z M314 65 L343 227 C387 198 402 173 395 137 C388 102 355 77 314 65 L314 65 Z " />
<glyph glyph-name="percent" unicode="%" horiz-adv-x="620" d="M202 332 C298 332 378 383 395 480 C412 577 362 630 264 630 C173 630 89 586 71 482 C54 383 108 332 202 332 L202 332 Z M62 0 L659 570 L664 600 L621 620 L36 54 L24 24 L62 0 Z M419 -10 C515 -10 595 41 612 138 C629 235 580 288 482 288 C391 288 307 244 289 140 C272 41 325 -10 419 -10 L419 -10 Z M216 382 C169 382 157 422 169 488 C180 546 208 573 208 573 C208 573 231 580 249 580 C296 580 308 540 297 474 C288 418 255 389 255 389 C255 389 235 382 216 382 L216 382 Z M434 40 C387 40 375 80 387 146 C398 204 426 231 426 231 C426 231 449 238 467 238 C514 238 526 198 514 132 C504 76 472 47 472 47 C472 47 453 40 434 40 L434 40 Z " />
<glyph glyph-name="ampersand" unicode="&amp;" horiz-adv-x="720" d="M252 -10 C313 -10 378 9 437 38 L463 0 L591 0 C642 0 683 -5 683 -5 L697 41 L617 59 L561 125 C604 166 634 211 641 252 C648 290 640 328 640 328 L726 339 L736 385 L587 385 C520 385 476 390 476 390 L462 344 L510 322 C510 322 543 289 533 235 C530 218 525 202 517 187 L403 346 C366 398 333 443 342 497 C352 555 389 590 454 590 C492 590 533 562 533 562 L537 487 L584 490 C584 490 614 608 622 630 C622 630 536 650 464 650 C282 650 207 568 193 485 C185 440 204 386 225 347 C155 321 61 245 47 169 C25 46 113 -10 252 -10 L252 -10 Z M300 59 C230 59 188 102 204 194 C215 255 249 292 249 292 L258 295 L409 78 C398 71 391 67 391 67 C391 67 350 59 300 59 L300 59 Z " />
<glyph glyph-name="quotesingle" unicode="'" horiz-adv-x="228" d="M124 450 L222 450 L271 640 L143 640 L124 450 Z " />
<glyph glyph-name="parenleft" unicode="(" horiz-adv-x="334" d="M229 -163 L275 -148 L294 -109 C230 -64 191 121 221 291 C251 460 355 646 435 691 L428 735 L389 745 C281 688 107 517 68 291 C27 54 141 -106 229 -163 L229 -163 Z " />
<glyph glyph-name="parenright" unicode=")" horiz-adv-x="334" d="M6 -163 C114 -106 286 54 327 291 C366 517 254 688 166 745 L125 735 L102 691 C166 646 204 460 174 291 C144 121 41 -64 -39 -109 L-34 -148 L6 -163 Z " />
<glyph glyph-name="asterisk" unicode="*" horiz-adv-x="422" d="M287 523 C325 523 367 552 374 590 C381 627 361 650 322 650 C285 650 243 622 236 584 C229 546 248 523 287 523 L287 523 Z M384 436 C421 436 462 466 469 504 C475 539 456 564 417 564 C379 564 339 536 332 498 C325 460 345 436 384 436 L384 436 Z M140 436 C178 436 219 466 226 504 C232 539 212 564 173 564 C137 564 96 536 89 498 C82 460 101 436 140 436 L140 436 Z M300 301 C338 301 380 330 387 368 C394 406 374 430 335 430 C297 430 255 400 248 362 C241 324 261 301 300 301 L300 301 Z M149 301 C187 301 228 330 235 368 C242 406 223 430 184 430 C146 430 104 400 97 362 C90 324 110 301 149 301 L149 301 Z " />
<glyph glyph-name="plus" unicode="+" horiz-adv-x="620" d="M266 101 L365 106 L389 275 L577 275 L603 331 L607 353 L403 353 L440 533 L341 528 L315 353 L127 353 L101 297 L97 275 L301 275 L266 101 Z " />
<glyph glyph-name="comma" unicode="," horiz-adv-x="272" d="M-25 -162 C38 -151 195 -90 216 26 C229 97 183 126 139 126 C93 126 50 100 39 41 C42 26 108 16 100 -25 C92 -67 44 -109 -27 -130 L-25 -162 Z " />
<glyph glyph-name="hyphen" unicode="-" horiz-adv-x="294" d="M53 210 L263 210 L286 251 L293 288 L83 288 L60 247 L53 210 Z " />
<glyph glyph-name="period" unicode="." horiz-adv-x="270" d="M101 -5 C154 -5 203 33 203 77 C203 107 180 129 141 129 C87 129 39 91 39 47 C39 17 62 -5 101 -5 L101 -5 Z " />
<glyph glyph-name="slash" unicode="/" horiz-adv-x="472" d="M16 -54 L565 640 L557 686 L518 690 L-20 0 L-20 -48 L16 -54 Z " />
<glyph glyph-name="zero" unicode="0" horiz-adv-x="620" d="M270 -10 C462 -10 578 111 613 310 C645 491 594 630 411 630 C220 630 106 511 71 312 C37 121 88 -10 270 -10 L270 -10 Z M301 57 C213 57 194 148 225 326 C254 492 313 550 313 550 C313 550 332 563 380 563 C467 563 490 474 458 296 C428 127 365 65 365 65 C365 65 347 57 301 57 L301 57 Z " />
<glyph glyph-name="one" unicode="1" horiz-adv-x="620" d="M480 -5 L494 41 L400 57 C400 57 402 95 443 327 C486 570 501 632 501 632 C449 619 222 600 222 600 L220 553 L330 554 C330 554 327 508 295 327 C256 106 242 58 242 58 L155 46 L145 0 L312 0 C363 0 480 -5 480 -5 L480 -5 Z " />
<glyph glyph-name="two" unicode="2" horiz-adv-x="620" d="M43 0 L525 0 L549 90 L528 111 L469 102 L216 94 L216 96 L372 204 C521 307 577 377 593 466 C614 585 509 630 415 630 C269 630 150 541 150 541 L151 506 L169 493 C169 493 255 548 332 548 C410 548 451 518 436 432 C427 380 383 306 298 243 L29 44 L43 0 Z " />
<glyph glyph-name="three" unicode="3" horiz-adv-x="620" d="M198 -20 C360 -20 528 66 557 234 C574 331 492 381 451 381 L452 383 C506 407 559 464 567 511 C582 598 506 630 429 630 C327 630 192 567 192 567 L184 534 L205 519 C205 519 275 550 338 550 C385 550 420 532 412 485 C403 435 367 405 311 382 L212 341 L198 313 L214 292 L326 325 C381 325 414 275 403 212 C385 106 292 56 292 56 C292 56 246 47 191 47 C139 47 78 74 78 74 L37 32 L30 -7 C30 -7 113 -20 198 -20 L198 -20 Z " />
<glyph glyph-name="four" unicode="4" horiz-adv-x="620" d="M383 -20 L446 -6 C446 -6 449 41 468 149 L591 149 L616 193 L608 221 L481 219 L508 375 C542 570 553 610 553 610 L433 624 L34 192 L43 149 L322 149 C303 42 290 -5 290 -5 L383 -20 Z M139 216 L376 475 L378 475 C378 475 366 399 360 363 L335 219 L139 216 Z " />
<glyph glyph-name="five" unicode="5" horiz-adv-x="620" d="M194 -20 C378 -20 508 57 532 192 C556 329 395 391 266 425 L297 530 L545 518 L580 608 L566 629 L500 620 L253 620 L168 336 C311 296 391 256 375 164 C362 89 292 55 292 55 C292 55 232 47 211 47 C125 47 77 69 77 69 L38 32 L30 -11 C30 -11 110 -20 194 -20 L194 -20 Z " />
<glyph glyph-name="six" unicode="6" horiz-adv-x="620" d="M269 -10 C440 -10 551 70 577 215 C601 348 509 412 416 412 C344 412 292 386 271 368 L269 368 C322 487 444 589 523 630 L522 663 L501 669 C334 602 107 437 65 201 C42 73 109 -10 269 -10 L269 -10 Z M296 57 C226 57 203 113 221 218 C233 289 258 320 263 326 C263 326 302 343 341 343 C417 343 435 291 418 193 C403 106 369 78 356 67 C356 67 326 57 296 57 L296 57 Z " />
<glyph glyph-name="seven" unicode="7" horiz-adv-x="620" d="M173 -39 L230 -26 L663 596 L645 620 L131 620 L106 520 L137 499 L196 508 L476 516 L476 514 L150 -22 L173 -39 Z " />
<glyph glyph-name="eight" unicode="8" horiz-adv-x="620" d="M272 -10 C441 -10 544 72 563 181 C577 262 535 321 455 345 L455 347 C523 366 576 420 588 488 C605 584 535 640 401 640 C261 640 164 571 149 491 C133 404 162 359 230 341 L230 339 C133 306 75 242 62 168 C44 69 99 -10 272 -10 L272 -10 Z M352 371 C298 371 280 418 293 495 C302 545 330 565 330 565 C330 565 353 574 377 574 C428 574 454 546 443 487 C429 410 397 381 397 381 C397 381 371 371 352 371 L352 371 Z M286 55 C234 55 200 102 213 176 C230 271 277 307 277 307 C277 307 300 315 331 315 C402 315 426 255 411 170 C399 102 354 64 354 64 C354 64 332 55 286 55 L286 55 Z " />
<glyph glyph-name="nine" unicode="9" horiz-adv-x="620" d="M177 -49 C344 18 571 183 610 402 C636 547 561 630 401 630 C230 630 127 550 101 405 C77 272 170 208 263 208 C335 208 386 234 407 252 L409 252 C356 133 234 31 155 -10 L156 -43 L177 -49 Z M337 277 C261 277 243 329 260 427 C273 504 302 542 315 553 C315 553 344 563 374 563 C444 563 474 499 457 402 C445 331 420 300 415 294 C415 294 376 277 337 277 L337 277 Z " />
<glyph glyph-name="colon" unicode=":" horiz-adv-x="270" d="M159 326 C212 326 261 364 261 408 C261 438 238 460 199 460 C145 460 97 422 97 378 C97 348 120 326 159 326 L159 326 Z M101 -5 C154 -5 203 33 203 77 C203 107 180 129 141 129 C87 129 39 91 39 47 C39 17 62 -5 101 -5 L101 -5 Z " />
<glyph glyph-name="semicolon" unicode=";" horiz-adv-x="272" d="M159 326 C212 326 261 364 261 408 C261 438 238 460 199 460 C145 460 97 422 97 378 C97 348 120 326 159 326 L159 326 Z M-25 -162 C38 -151 195 -90 216 26 C229 97 183 126 139 126 C93 126 50 100 39 41 C42 26 108 16 100 -25 C92 -67 44 -109 -27 -130 L-25 -162 Z " />
<glyph glyph-name="less" unicode="&lt;" horiz-adv-x="620" d="M430 36 L493 57 L514 98 L205 306 L588 514 L581 555 L526 576 L117 339 L105 273 L430 36 Z " />
<glyph glyph-name="equal" unicode="=" horiz-adv-x="620" d="M112 360 L592 360 L618 416 L622 438 L142 438 L116 382 L112 360 Z M85 202 L565 202 L590 258 L594 280 L114 280 L88 224 L85 202 Z " />
<glyph glyph-name="greater" unicode="&gt;" horiz-adv-x="620" d="M154 36 L563 273 L575 339 L250 576 L187 555 L166 514 L475 306 L92 98 L99 57 L154 36 Z " />
<glyph glyph-name="question" unicode="?" horiz-adv-x="313" d="M108 163 L196 178 L231 216 C203 248 189 276 189 288 C220 331 342 405 350 448 C365 534 291 634 231 653 L138 634 L89 571 C135 553 236 491 216 380 C206 327 84 264 79 241 C74 219 108 163 108 163 L108 163 Z M110 -5 C158 -5 204 26 211 66 C217 101 194 129 150 129 C101 129 56 98 49 58 C43 23 66 -5 110 -5 L110 -5 Z " />
<glyph glyph-name="at" unicode="@" horiz-adv-x="873" d="M318 -200 C449 -200 560 -148 577 -138 L580 -119 L559 -93 C559 -93 489 -124 381 -124 C242 -124 164 21 198 211 C236 423 298 538 394 605 C394 605 475 630 596 630 C650 630 731 598 708 476 L705 460 C705 460 635 470 601 470 C437 470 315 337 295 223 C268 66 351 -10 458 -10 C528 -10 593 17 632 61 L635 61 L630 0 L704 0 C774 0 828 -5 828 -5 L842 41 L778 57 C778 57 779 69 816 278 C827 339 849 437 857 480 C885 640 751 699 640 699 C293 699 92 464 45 197 C6 -24 111 -200 318 -200 L318 -200 Z M529 69 C478 69 423 99 446 228 C462 317 512 377 541 395 C541 395 577 403 593 403 C639 403 688 370 688 370 L670 267 C647 135 622 86 622 86 C622 86 592 69 529 69 L529 69 Z " />
<glyph glyph-name="A" unicode="A" horiz-adv-x="705" d="M-17 -5 C-17 -5 38 0 79 0 L165 0 L175 46 L127 51 L204 191 L432 191 L461 53 L400 46 L390 0 L537 0 C624 0 673 -5 673 -5 L687 41 L639 52 L489 640 L386 640 L43 50 L-6 41 L-17 -5 Z M242 259 L367 488 L369 488 L418 259 L242 259 Z " />
<glyph glyph-name="B" unicode="B" horiz-adv-x="672" d="M379 -10 C495 -10 626 41 654 197 C667 271 617 328 527 344 L527 346 C584 377 627 426 640 495 C656 582 597 650 470 650 C443 650 317 640 271 640 C232 640 133 645 133 645 L119 599 L183 583 C183 583 181 551 144 337 C102 96 90 58 90 58 L33 46 L23 0 L160 0 C193 0 320 -10 379 -10 L379 -10 Z M296 357 C326 527 339 572 339 572 C339 572 377 583 408 583 C471 583 493 534 483 479 C468 394 403 365 403 365 C403 365 365 357 331 357 L296 357 Z M314 57 C275 57 250 70 250 70 C250 70 256 132 286 301 C286 301 305 296 339 296 L378 296 C464 296 510 253 496 177 C482 103 421 70 421 70 C421 70 370 57 314 57 L314 57 Z " />
<glyph glyph-name="C" unicode="C" horiz-adv-x="642" d="M342 -10 C473 -10 586 43 602 53 L607 79 L584 101 C584 101 512 67 389 67 C270 67 197 158 228 336 C251 468 327 536 370 568 C370 568 421 583 478 583 C545 583 596 543 596 543 L600 473 L648 476 C648 476 680 608 688 630 C688 630 615 650 497 650 C273 650 108 521 72 322 C33 104 119 -10 342 -10 L342 -10 Z " />
<glyph glyph-name="D" unicode="D" horiz-adv-x="780" d="M358 -10 C581 -10 748 129 783 330 C818 529 727 650 495 650 C428 650 291 640 271 640 C202 640 133 645 133 645 L119 599 L183 583 C183 583 180 544 144 337 C104 106 90 58 90 58 L33 46 L23 0 C23 0 105 0 158 0 C198 0 307 -10 358 -10 L358 -10 Z M381 57 C326 57 257 70 257 70 L252 77 C252 77 256 133 291 328 C323 505 338 568 338 568 L350 574 C350 574 405 583 445 583 C569 583 658 494 627 316 C604 182 559 113 504 74 C504 74 440 57 381 57 L381 57 Z " />
<glyph glyph-name="E" unicode="E" horiz-adv-x="630" d="M23 0 L555 0 C560 26 601 166 601 166 L555 169 L504 72 L256 65 L250 67 C250 67 250 98 286 298 L471 295 L480 220 L527 223 C527 223 532 285 540 332 C548 379 563 427 563 427 L517 430 L483 365 L297 361 C329 546 339 572 339 572 L350 574 L578 568 L565 471 L613 474 L665 640 L271 640 C198 640 133 645 133 645 L119 599 L183 583 C183 583 182 553 144 337 C103 104 90 58 90 58 L33 46 L23 0 Z " />
<glyph glyph-name="F" unicode="F" horiz-adv-x="622" d="M298 -5 L312 41 L248 57 C248 57 247 78 284 289 L499 285 L506 200 L554 203 C554 203 560 275 568 322 C576 369 593 427 593 427 L547 430 L512 355 L295 351 C328 536 339 572 339 572 L350 574 L619 568 L606 471 L654 474 L704 640 L271 640 C202 640 133 645 133 645 L119 599 L183 583 C183 583 182 555 144 337 C102 98 90 58 90 58 L33 46 L23 0 L160 0 C231 0 298 -5 298 -5 L298 -5 Z " />
<glyph glyph-name="G" unicode="G" horiz-adv-x="726" d="M342 -10 C509 -10 617 43 635 56 L669 252 L727 264 L737 310 L563 310 C496 310 433 320 433 320 L419 274 L511 251 C511 251 516 220 490 72 C490 72 433 67 389 67 C270 67 197 158 228 336 C251 468 327 536 370 568 C370 568 431 583 488 583 C555 583 608 551 608 551 L616 474 L663 477 C663 477 695 609 703 631 C703 631 625 650 507 650 C283 650 108 521 72 322 C33 104 119 -10 342 -10 L342 -10 Z " />
<glyph glyph-name="H" unicode="H" horiz-adv-x="788" d="M298 -5 L312 41 L248 57 C248 57 246 74 285 297 L577 297 C539 81 530 58 530 58 L473 46 L463 0 L600 0 C678 0 738 -5 738 -5 L752 41 L688 57 C688 57 687 77 732 337 C770 558 781 582 781 582 L838 594 L848 640 L711 640 C638 640 573 645 573 645 L559 599 L623 583 C623 583 624 562 589 365 L297 365 C331 558 341 582 341 582 L398 594 L408 640 L271 640 C198 640 133 645 133 645 L119 599 L183 583 C183 583 182 555 144 337 C101 90 90 58 90 58 L33 46 L23 0 L160 0 C238 0 298 -5 298 -5 L298 -5 Z " />
<glyph glyph-name="I" unicode="I" horiz-adv-x="348" d="M298 -5 L312 41 L248 57 C248 57 248 85 292 337 C330 556 341 582 341 582 L398 594 L408 640 L271 640 C194 640 133 645 133 645 L119 599 L183 583 C183 583 183 560 144 337 C101 88 90 58 90 58 L33 46 L23 0 L160 0 C233 0 298 -5 298 -5 L298 -5 Z " />
<glyph glyph-name="J" unicode="J" horiz-adv-x="348" d="M-30 -237 C48 -194 220 -91 243 37 C243 37 256 133 295 353 C327 535 341 582 341 582 L398 594 L408 640 L311 640 C260 640 133 645 133 645 L119 599 L183 583 C183 583 182 556 147 353 L92 37 C76 -56 0 -159 -54 -201 L-30 -237 Z " />
<glyph glyph-name="K" unicode="K" horiz-adv-x="723" d="M298 -5 L312 41 L248 57 C248 57 253 111 286 298 L301 309 L460 0 L598 0 C649 0 690 -5 690 -5 L704 41 L633 59 L458 326 C430 369 392 369 390 371 L674 587 L737 596 L749 645 C749 645 700 640 665 640 L555 640 L544 591 L582 586 L296 355 C325 522 341 582 341 582 L398 594 L408 640 L271 640 C197 640 133 645 133 645 L119 599 L183 583 C183 583 181 550 144 337 C103 101 90 58 90 58 L33 46 L23 0 L160 0 C211 0 298 -5 298 -5 L298 -5 Z " />
<glyph glyph-name="L" unicode="L" horiz-adv-x="595" d="M23 0 L555 0 C560 26 601 166 601 166 L555 169 L504 72 L255 65 L250 67 C250 67 249 93 292 337 C329 550 341 582 341 582 L398 594 L408 640 L271 640 C198 640 133 645 133 645 L119 599 L183 583 C183 583 181 551 144 337 C101 92 90 58 90 58 L33 46 L23 0 Z " />
<glyph glyph-name="M" unicode="M" horiz-adv-x="1004" d="M198 -5 L212 41 L149 57 L215 337 C239 438 255 488 255 488 L257 488 L389 0 L475 0 L789 531 L791 531 L774 337 C761 186 742 58 742 58 L685 46 L676 0 L835 0 C890 0 951 -5 951 -5 L966 41 L900 57 L922 337 C932 460 953 582 953 582 L1010 594 L1019 640 L779 640 L530 217 L528 217 L411 640 L243 640 C206 640 158 645 158 645 L141 599 L204 583 L147 337 C105 155 72 58 72 58 L14 46 L3 0 L115 0 C158 0 198 -5 198 -5 L198 -5 Z " />
<glyph glyph-name="N" unicode="N" horiz-adv-x="756" d="M530 -14 L642 0 C642 0 643 31 656 107 L696 337 C736 568 745 582 745 582 L802 594 L812 640 L710 640 C661 640 617 645 617 645 L603 599 L667 583 C667 583 670 572 628 337 C621 301 600 189 600 189 L598 189 L316 640 L217 640 C168 640 133 645 133 645 L119 599 L183 583 C183 583 185 572 144 337 C98 76 90 58 90 58 L33 46 L23 0 L117 0 C166 0 218 -5 218 -5 L232 41 L168 57 C168 57 164 71 212 337 L234 460 L236 460 L530 -14 Z " />
<glyph glyph-name="O" unicode="O" horiz-adv-x="758" d="M342 -10 C555 -10 723 121 759 320 C797 531 702 650 487 650 C273 650 108 521 72 322 C33 104 119 -10 342 -10 L342 -10 Z M371 57 C270 57 197 158 228 336 C252 476 331 548 358 568 C358 568 401 583 458 583 C562 583 632 470 603 306 C581 182 493 95 461 72 C461 72 421 57 371 57 L371 57 Z " />
<glyph glyph-name="P" unicode="P" horiz-adv-x="612" d="M298 -5 L312 41 L248 57 C248 57 248 83 292 337 C324 524 339 572 339 572 C339 572 386 583 411 583 C489 583 525 540 512 470 C498 394 454 358 454 358 C454 358 425 346 390 346 C359 346 342 353 342 353 L312 323 L306 288 C306 288 338 279 374 279 C501 279 641 330 669 490 C686 590 610 650 500 650 C441 650 317 640 271 640 C200 640 133 645 133 645 L119 599 L183 583 C183 583 181 554 144 337 C101 88 90 58 90 58 L33 46 L23 0 L160 0 C229 0 298 -5 298 -5 L298 -5 Z " />
<glyph glyph-name="Q" unicode="Q" horiz-adv-x="756" d="M501 -208 C578 -208 696 -97 713 -73 L713 -52 L689 -45 C668 -68 612 -103 536 -103 C483 -103 377 -19 303 -12 L303 -10 C496 3 718 86 759 320 C793 515 705 650 483 650 C287 650 112 540 77 345 C45 166 171 76 280 76 C432 76 539 173 550 298 L513 329 L474 305 C474 260 447 136 310 136 C250 136 202 188 230 352 C252 481 307 532 361 570 C361 570 407 583 456 583 C563 583 634 484 603 306 C584 197 517 108 462 69 C462 69 396 48 268 42 C194 40 133 3 117 -17 L94 -68 L130 -94 C138 -87 160 -78 194 -78 C272 -78 402 -208 501 -208 L501 -208 Z " />
<glyph glyph-name="R" unicode="R" horiz-adv-x="721" d="M298 -5 L312 41 L248 57 C248 57 248 83 292 337 C324 524 339 572 339 572 C339 572 386 583 411 583 C489 583 525 540 512 470 C498 394 454 358 454 358 C454 358 425 346 390 346 C359 346 342 353 342 353 L312 323 L306 288 C306 288 328 286 339 282 L468 0 L596 0 C647 0 688 -5 688 -5 L702 41 L631 59 L515 263 C505 281 483 290 479 290 L479 292 C570 315 649 374 669 490 C686 587 610 650 500 650 C441 650 317 640 271 640 C200 640 133 645 133 645 L119 599 L183 583 C183 583 181 554 144 337 C101 88 90 58 90 58 L33 46 L23 0 L160 0 C229 0 298 -5 298 -5 L298 -5 Z " />
<glyph glyph-name="S" unicode="S" horiz-adv-x="518" d="M178 -10 C332 -10 476 49 501 190 C516 274 452 341 343 391 C239 439 225 468 232 509 C240 553 290 581 369 581 C400 581 444 559 444 559 L447 481 L494 484 C494 484 527 616 534 638 C534 638 463 650 380 650 C226 650 118 572 100 465 C81 355 136 309 217 268 C319 217 352 189 343 137 C334 84 265 57 204 57 C149 57 103 79 103 79 L100 157 L52 154 C52 154 20 22 12 0 C12 0 88 -10 178 -10 L178 -10 Z " />
<glyph glyph-name="T" unicode="T" horiz-adv-x="625" d="M424 -5 L438 41 L374 57 C374 57 375 95 412 303 C454 541 465 573 465 573 L626 568 L613 471 L661 474 L713 640 L106 640 C101 614 70 474 70 474 L116 471 L157 568 L301 575 L307 573 C307 573 305 534 264 303 C229 104 216 58 216 58 L159 46 L149 0 L286 0 C337 0 424 -5 424 -5 L424 -5 Z " />
<glyph glyph-name="U" unicode="U" horiz-adv-x="756" d="M366 -10 C557 -10 671 100 703 289 L711 337 C733 467 765 582 765 582 L817 594 L827 640 L725 640 C670 640 628 645 628 645 L614 599 L675 583 C675 583 657 450 639 337 L632 293 C607 138 536 89 536 89 C536 89 478 64 399 64 C290 64 248 132 274 289 L282 337 C314 532 331 582 331 582 L388 594 L398 640 L261 640 C184 640 123 645 123 645 L109 599 L173 583 C173 583 166 532 134 337 L126 289 C98 120 154 -10 366 -10 L366 -10 Z " />
<glyph glyph-name="V" unicode="V" horiz-adv-x="705" d="M288 0 L391 0 L734 590 L783 599 L794 645 C794 645 739 640 698 640 L612 640 L602 594 L650 589 L410 152 L408 152 L316 587 L377 594 L387 640 L240 640 C153 640 104 645 104 645 L90 599 L138 588 L288 0 Z " />
<glyph glyph-name="W" unicode="W" horiz-adv-x="1112" d="M262 0 L368 0 L607 452 L609 452 L714 0 L817 0 L1135 590 L1184 599 L1195 645 C1195 645 1140 640 1099 640 L1013 640 L1003 594 L1055 589 L838 165 L836 165 L742 640 L624 640 L383 170 L381 170 L315 587 L377 594 L387 640 L240 640 C153 640 104 645 104 645 L90 599 L142 588 L262 0 Z " />
<glyph glyph-name="X" unicode="X" horiz-adv-x="740" d="M-7 -5 C-7 -5 48 0 89 0 L178 0 L188 46 L148 51 L359 265 L469 53 L421 46 L411 0 L558 0 C645 0 694 -5 694 -5 L708 41 L652 52 L460 363 L697 590 L758 599 L769 645 C769 645 714 640 673 640 L587 640 L577 594 L613 589 L436 407 L344 587 L386 594 L396 640 L249 640 C162 640 113 645 113 645 L99 599 L161 588 L333 308 L64 50 L4 41 L-7 -5 Z " />
<glyph glyph-name="Y" unicode="Y" horiz-adv-x="670" d="M461 -5 L475 41 L411 57 C411 57 412 86 428 179 L449 302 L705 590 L754 599 L765 645 C765 645 710 640 669 640 L583 640 L573 594 L618 589 L415 353 L413 353 L315 587 L376 594 L386 640 L234 640 C147 640 98 645 98 645 L84 599 L132 588 L295 269 L280 179 C266 94 253 58 253 58 L196 46 L186 0 L323 0 C396 0 461 -5 461 -5 L461 -5 Z " />
<glyph glyph-name="Z" unicode="Z" horiz-adv-x="655" d="M35 0 L610 0 C610 22 626 166 626 166 L580 169 L549 72 L216 67 L683 596 L669 640 L124 640 C124 618 108 477 108 477 L155 474 L185 568 L484 576 L17 53 L35 0 Z " />
<glyph glyph-name="bracketleft" unicode="[" horiz-adv-x="324" d="M14 -139 L268 -139 L277 -89 L266 -63 L174 -77 L223 308 L304 659 L391 645 L411 671 L420 721 L166 721 L103 308 L14 -139 Z " />
<glyph glyph-name="backslash" unicode="\" horiz-adv-x="472" d="M390 -54 L430 -48 L446 0 L152 690 L111 686 L87 640 L390 -54 Z " />
<glyph glyph-name="bracketright" unicode="]" horiz-adv-x="324" d="M-36 -139 L218 -139 L287 308 L370 721 L116 721 L107 671 L119 645 L210 659 L167 308 L80 -77 L-6 -63 L-27 -89 L-36 -139 Z " />
<glyph glyph-name="asciicircum" unicode="^" horiz-adv-x="620" d="M97 98 L366 444 L513 98 L557 112 L588 171 L416 538 L350 538 L48 171 L59 112 L97 98 Z " />
<glyph glyph-name="underscore" unicode="_" horiz-adv-x="180" d="M-52 -180 L128 -180 L139 -120 L-41 -120 L-52 -180 Z " />
<glyph glyph-name="grave" unicode="`" horiz-adv-x="525" d="M408 520 L444 540 L384 673 L306 667 L283 618 L408 520 Z " />
<glyph glyph-name="a" unicode="a" horiz-adv-x="545" d="M134 -10 C209 -10 271 32 301 92 L303 92 C301 77 292 49 292 28 C292 5 310 -10 310 -10 C347 1 516 22 516 22 L522 63 L484 63 C467 63 453 66 450 71 C450 71 455 120 493 337 C497 359 520 470 520 470 L418 454 C418 454 355 470 320 470 C153 470 24 307 24 119 C24 39 65 -10 134 -10 L134 -10 Z M204 79 C188 79 175 93 175 124 C175 263 238 354 284 386 C284 386 298 393 318 393 C350 393 357 379 357 379 L343 309 C313 158 251 98 223 81 C223 81 214 79 204 79 L204 79 Z " />
<glyph glyph-name="b" unicode="b" horiz-adv-x="561" d="M267 61 C245 61 212 75 191 91 C196 120 203 156 212 198 C237 314 289 375 289 375 C289 375 317 393 360 393 C377 393 394 375 394 319 C394 208 348 98 314 69 C314 69 290 61 267 61 L267 61 Z M253 -10 C440 -10 545 117 545 319 C545 412 490 470 398 470 C333 470 279 440 250 399 L248 399 L314 710 C259 700 98 700 98 700 L89 653 L148 644 C148 644 91 351 72 241 C45 86 23 5 23 5 L81 5 C115 5 143 -10 253 -10 L253 -10 Z " />
<glyph glyph-name="c" unicode="c" horiz-adv-x="456" d="M188 -10 C291 -10 400 55 417 65 L423 90 L397 107 C397 107 331 72 258 72 C203 72 173 96 173 169 C173 256 206 354 244 385 C244 385 277 393 306 393 C339 393 369 367 369 367 L377 273 L424 276 C424 276 464 418 472 440 C472 440 387 470 314 470 C136 470 22 337 22 146 C22 48 89 -10 188 -10 L188 -10 Z " />
<glyph glyph-name="d" unicode="d" horiz-adv-x="550" d="M134 -10 C209 -10 271 32 301 92 L303 92 C301 77 292 49 292 28 C292 5 310 -10 310 -10 C347 1 516 22 516 22 L522 63 L484 63 C467 63 453 66 450 71 C450 71 455 120 493 337 C536 584 564 710 564 710 C509 700 351 700 351 700 L342 653 L402 644 C402 644 396 599 374 463 C364 465 337 470 320 470 C153 470 24 307 24 119 C24 39 65 -10 134 -10 L134 -10 Z M204 79 C188 79 175 93 175 124 C175 263 238 354 284 386 C284 386 298 393 318 393 C350 393 357 379 357 379 L343 309 C313 158 251 98 223 81 C223 81 214 79 204 79 L204 79 Z " />
<glyph glyph-name="e" unicode="e" horiz-adv-x="461" d="M188 -10 C309 -10 401 54 417 65 L423 90 L397 107 C397 107 333 72 262 72 C208 72 173 96 173 169 C173 169 173 173 173 176 C384 234 462 295 462 377 C462 432 417 470 338 470 C131 470 22 337 22 158 C22 48 89 -10 188 -10 L188 -10 Z M178 234 C189 301 217 365 246 388 C246 388 262 393 279 393 C299 393 309 380 309 361 C309 321 271 260 178 234 L178 234 Z " />
<glyph glyph-name="f" unicode="f" horiz-adv-x="342" d="M-40 -232 L115 -229 C115 -229 157 -162 187 6 L257 395 L335 392 L368 431 L373 460 L268 460 L280 525 C290 580 319 611 319 611 C319 611 349 626 368 626 C405 622 448 595 448 595 L486 618 L502 680 C502 680 445 700 409 700 C268 700 156 635 134 514 L124 460 L56 460 L41 399 L113 397 L40 10 C12 -139 -40 -232 -40 -232 L-40 -232 Z " />
<glyph glyph-name="g" unicode="g" horiz-adv-x="545" d="M118 -230 C242 -230 403 -165 425 -44 C425 -44 455 120 493 337 C497 359 520 470 520 470 L418 454 C418 454 355 470 320 470 C153 470 24 307 24 119 C24 39 65 -10 134 -10 C209 -10 273 32 303 92 L305 92 C303 77 279 -55 279 -55 C263 -121 223 -148 223 -148 C223 -148 192 -155 176 -155 C115 -155 61 -109 61 -109 L18 -126 L-1 -193 C-1 -193 69 -230 118 -230 L118 -230 Z M204 79 C188 79 175 93 175 124 C175 263 238 354 284 386 C284 386 298 393 318 393 C350 393 357 379 357 379 L343 309 C313 158 251 98 223 81 C223 81 214 79 204 79 L204 79 Z " />
<glyph glyph-name="h" unicode="h" horiz-adv-x="574" d="M329 -10 C368 -1 546 22 546 22 L548 63 L510 63 C493 63 479 66 475 71 C475 71 496 172 538 351 C539 357 542 379 542 386 C542 431 522 470 458 470 C365 470 287 396 254 318 L252 318 L334 710 C279 700 118 700 118 700 L109 653 L169 644 C169 644 111 351 92 241 C65 86 43 -2 43 -2 L197 1 C197 1 207 69 218 125 C239 230 282 303 329 351 C329 351 343 357 361 357 C381 357 387 346 387 329 C387 320 385 309 383 300 C361 188 316 43 316 28 C316 5 329 -10 329 -10 L329 -10 Z " />
<glyph glyph-name="i" unicode="i" horiz-adv-x="314" d="M204 534 C257 534 306 572 306 616 C306 646 283 668 244 668 C190 668 142 630 142 586 C142 556 165 534 204 534 L204 534 Z M63 -10 C102 -1 280 22 280 22 L282 63 L244 63 C227 63 215 64 211 69 C211 69 212 102 236 241 C256 354 282 470 282 470 C227 460 66 460 66 460 L56 413 L117 404 C117 404 110 348 92 241 C74 134 50 43 50 28 C50 5 63 -10 63 -10 L63 -10 Z " />
<glyph glyph-name="j" unicode="j" horiz-adv-x="301" d="M204 534 C257 534 306 572 306 616 C306 646 283 668 244 668 C190 668 142 630 142 586 C142 556 165 534 204 534 L204 534 Z M-65 -237 C61 -167 181 -91 204 37 C204 37 209 85 236 241 C256 357 282 470 282 470 C227 460 66 460 66 460 L56 413 L117 404 C117 404 110 348 92 241 L57 37 C37 -80 -12 -153 -83 -201 L-65 -237 Z " />
<glyph glyph-name="k" unicode="k" horiz-adv-x="557" d="M532 -5 L546 41 L475 59 L357 203 C423 209 538 274 538 372 C538 430 495 470 423 470 C326 470 270 393 260 368 L258 368 C298 605 324 710 324 710 C269 700 108 700 108 700 L99 653 L159 644 C159 644 150 572 109 337 C63 76 44 -2 44 -2 L198 1 C198 1 208 81 234 231 C262 327 308 376 338 387 C338 387 346 389 360 389 C375 389 387 378 387 356 C387 302 329 262 278 262 L237 172 L330 0 L360 0 C411 0 532 -5 532 -5 L532 -5 Z " />
<glyph glyph-name="l" unicode="l" horiz-adv-x="314" d="M63 -10 C102 -1 280 22 280 22 L282 63 L244 63 C227 63 215 64 211 69 C211 69 206 69 253 337 C294 571 324 710 324 710 C269 700 108 700 108 700 L99 653 L159 644 C159 644 150 572 109 337 C63 76 50 43 50 28 C50 5 63 -10 63 -10 L63 -10 Z " />
<glyph glyph-name="m" unicode="m" horiz-adv-x="824" d="M577 -10 C616 -1 794 22 794 22 L796 63 L758 63 C741 63 727 66 723 71 C723 71 744 172 786 351 C787 357 790 379 790 386 C790 431 765 470 701 470 C608 470 552 395 531 357 L529 357 C529 357 530 363 531 371 C532 377 532 382 532 386 C532 431 507 470 443 470 C350 470 283 394 252 321 L250 321 L272 470 C217 460 66 460 66 460 L55 413 L117 404 C117 404 111 351 92 241 C65 86 43 -2 43 -2 L197 1 C197 1 207 69 218 125 C240 236 277 313 314 351 C314 351 329 357 347 357 C368 357 377 346 377 329 C377 320 375 309 373 300 C341 138 295 -2 295 -2 L449 1 C449 1 456 42 476 125 C503 239 535 313 572 351 C572 351 587 357 605 357 C626 357 635 346 635 329 C635 320 633 309 631 300 C609 188 564 43 564 28 C564 5 577 -10 577 -10 L577 -10 Z " />
<glyph glyph-name="n" unicode="n" horiz-adv-x="574" d="M329 -10 C368 -1 546 22 546 22 L548 63 L510 63 C493 63 479 66 475 71 C475 71 496 172 538 351 C539 357 542 379 542 386 C542 431 522 470 458 470 C365 470 284 394 251 316 L249 316 L272 470 C217 460 66 460 66 460 L55 413 L117 404 C117 404 111 351 92 241 C65 86 43 -2 43 -2 L197 1 C197 1 207 69 218 125 C240 236 282 303 329 351 C329 351 343 357 361 357 C381 357 387 346 387 329 C387 320 385 309 383 300 C361 188 316 43 316 28 C316 5 329 -10 329 -10 L329 -10 Z " />
<glyph glyph-name="o" unicode="o" horiz-adv-x="526" d="M213 -10 C400 -10 505 117 505 319 C505 412 432 470 314 470 C123 470 22 338 22 143 C22 48 85 -10 213 -10 L213 -10 Z M239 67 C198 67 173 91 173 150 C173 249 212 355 250 386 C250 386 270 393 288 393 C337 393 354 371 354 310 C354 211 315 103 277 72 C277 72 262 67 239 67 L239 67 Z " />
<glyph glyph-name="p" unicode="p" horiz-adv-x="584" d="M219 -235 L232 -189 L168 -173 C168 -173 178 -118 198 -4 C221 -8 246 -10 272 -10 C459 -10 564 117 564 319 C564 412 509 470 417 470 C352 470 298 440 269 399 L267 399 L272 470 C217 460 66 460 66 460 L55 413 L117 404 C117 404 110 342 69 107 C23 -154 14 -172 14 -172 L-43 -184 L-53 -230 L82 -230 C148 -230 219 -235 219 -235 L219 -235 Z M286 58 C266 58 239 68 214 84 C214 84 229 180 242 254 C255 328 308 375 308 375 C308 375 336 393 379 393 C396 393 413 375 413 319 C413 204 367 95 333 66 C333 66 309 58 286 58 L286 58 Z " />
<glyph glyph-name="q" unicode="q" horiz-adv-x="545" d="M455 -235 L468 -189 L404 -173 C404 -173 455 120 493 337 C497 359 520 470 520 470 L418 454 C418 454 355 470 320 470 C153 470 24 307 24 119 C24 39 65 -10 134 -10 C209 -10 271 32 301 92 L303 92 C246 -209 250 -172 250 -172 L193 -184 L183 -230 L318 -230 C381 -230 455 -235 455 -235 L455 -235 Z M204 79 C188 79 175 93 175 124 C175 263 238 354 284 386 C284 386 298 393 318 393 C350 393 357 379 357 379 L343 309 C313 158 251 98 223 81 C223 81 214 79 204 79 L204 79 Z " />
<glyph glyph-name="r" unicode="r" horiz-adv-x="454" d="M43 -2 L197 1 C197 1 200 44 211 100 C228 183 267 275 315 318 C315 318 340 333 380 333 C404 333 428 324 428 324 L479 460 C479 460 455 470 434 470 C340 470 273 390 244 291 L242 291 L272 470 C217 460 66 460 66 460 L55 413 L117 404 C117 404 111 351 92 241 C65 86 43 -2 43 -2 L43 -2 Z " />
<glyph glyph-name="s" unicode="s" horiz-adv-x="461" d="M170 -10 C312 -10 418 50 418 150 C418 224 358 266 282 298 C245 313 228 331 228 364 C228 385 247 409 255 414 C255 414 272 420 300 420 C334 420 365 394 365 394 L369 308 L417 311 C417 311 445 423 453 445 C453 445 381 470 306 470 C180 470 82 416 82 325 C82 261 132 214 191 187 C250 160 266 143 266 101 C266 82 255 59 242 50 C242 50 224 40 178 40 C123 40 101 70 101 70 L97 152 L49 149 C49 149 21 37 13 15 C13 15 97 -10 170 -10 L170 -10 Z " />
<glyph glyph-name="t" unicode="t" horiz-adv-x="397" d="M182 -10 C236 -10 369 45 369 45 L376 73 L349 98 C349 98 297 73 265 73 C236 73 216 94 216 129 C216 185 264 395 264 395 L364 392 L400 431 L402 460 L275 460 L290 537 L275 551 L56 445 L51 399 L116 397 C112 369 59 114 59 82 C59 35 95 -10 182 -10 L182 -10 Z " />
<glyph glyph-name="u" unicode="u" horiz-adv-x="587" d="M138 -10 C231 -10 316 66 349 144 L351 144 C351 144 324 43 324 28 C324 5 337 -10 337 -10 C376 -1 554 22 554 22 L556 63 L518 63 C501 63 489 64 485 69 C485 69 489 108 508 219 C535 374 557 462 557 462 L403 459 C403 459 393 391 382 335 C360 224 318 157 271 109 C271 109 253 103 235 103 C215 103 209 114 209 131 C209 140 211 151 213 160 C235 272 290 455 290 470 C235 460 74 460 74 460 L64 413 L125 404 C125 404 100 288 58 109 C57 103 54 81 54 74 C54 29 74 -10 138 -10 L138 -10 Z " />
<glyph glyph-name="v" unicode="v" horiz-adv-x="541" d="M133 -10 C380 -10 522 124 522 320 C522 407 466 469 466 469 L394 467 L324 412 C324 412 375 356 375 269 C375 165 330 97 291 72 C291 72 272 67 250 67 C228 67 213 88 213 88 C213 88 220 148 236 241 C256 354 282 470 282 470 C227 460 66 460 66 460 L55 413 L117 404 C117 404 110 348 92 241 C80 169 55 80 55 65 C55 20 133 -10 133 -10 L133 -10 Z " />
<glyph glyph-name="w" unicode="w" horiz-adv-x="798" d="M133 -10 C208 -10 273 2 328 25 C352 4 389 -10 389 -10 C636 -10 778 124 778 320 C778 407 722 469 722 469 L650 467 L580 412 C580 412 631 356 631 269 C631 165 586 97 547 72 C547 72 528 67 506 67 C484 67 456 88 444 105 C495 161 522 235 522 320 C522 407 466 469 466 469 L394 467 L324 412 C324 412 375 356 375 269 C375 165 330 97 291 72 C291 72 272 67 250 67 C228 67 213 88 213 88 C213 88 220 148 236 241 C256 354 282 470 282 470 C227 460 66 460 66 460 L55 413 L117 404 C117 404 110 348 92 241 C80 169 55 80 55 65 C55 20 133 -10 133 -10 L133 -10 Z " />
<glyph glyph-name="x" unicode="x" horiz-adv-x="603" d="M358 -10 C397 -1 579 22 579 22 L578 63 L540 63 C523 63 510 65 507 69 L388 276 L539 410 L587 419 L595 465 C595 465 539 460 504 460 L408 460 L402 414 L452 409 L367 317 L296 470 C241 460 80 460 80 460 L72 413 L139 404 L248 224 L55 50 L7 41 L-1 -5 C-1 -5 60 0 95 0 L186 0 L193 46 L142 51 L274 183 L358 -10 Z " />
<glyph glyph-name="y" unicode="y" horiz-adv-x="586" d="M161 -230 C290 -230 439 -165 461 -44 C461 -44 489 108 508 219 C535 374 557 462 557 462 L403 459 C403 459 393 391 382 335 C360 224 318 157 271 109 C271 109 253 103 235 103 C215 103 209 114 209 131 C209 140 211 151 213 160 C235 272 290 455 290 470 C235 460 74 460 74 460 L64 413 L125 404 C125 404 100 288 58 109 C57 103 54 81 54 74 C54 29 74 -10 138 -10 C231 -10 319 66 352 144 L354 144 L322 -36 C310 -102 261 -141 261 -141 C261 -141 228 -149 209 -149 C146 -149 88 -89 88 -89 L45 -114 L25 -184 C25 -184 74 -230 161 -230 L161 -230 Z " />
<glyph glyph-name="z" unicode="z" horiz-adv-x="514" d="M58 0 L442 0 C442 22 452 134 452 134 L406 137 L378 58 L187 53 L507 408 L473 460 L95 460 C95 438 85 326 85 326 L131 323 L159 402 L335 410 L19 61 L58 0 Z " />
<glyph glyph-name="braceleft" unicode="{" horiz-adv-x="324" d="M109 -139 L268 -139 L277 -93 L258 -53 C258 -53 227 -67 202 -67 C176 -67 181 -38 185 -16 L225 212 C234 265 196 290 196 290 L196 292 C196 292 243 313 252 364 L295 604 C299 624 302 649 328 649 C353 649 379 635 379 635 L412 675 L420 721 L261 721 C208 721 159 679 149 624 L101 354 C97 330 84 317 43 317 L32 291 L39 265 C74 265 82 247 78 222 L29 -56 C22 -97 40 -139 109 -139 L109 -139 Z " />
<glyph glyph-name="bar" unicode="|" horiz-adv-x="201" d="M34 -52 L114 -52 L251 724 L171 724 L34 -52 Z " />
<glyph glyph-name="braceright" unicode="}" horiz-adv-x="324" d="M-40 -139 L119 -139 C188 -139 222 -97 229 -56 L278 222 C282 247 298 265 333 265 L348 291 L347 317 C306 317 297 330 301 354 L349 624 C359 679 324 721 271 721 L112 721 L104 675 L123 635 C123 635 153 649 178 649 C204 649 201 624 197 604 L154 364 C145 313 184 292 184 292 L184 290 C184 290 136 265 127 212 L87 -16 C83 -38 78 -67 52 -67 C27 -67 2 -53 2 -53 L-31 -93 L-40 -139 Z " />
<glyph glyph-name="asciitilde" unicode="~" horiz-adv-x="580" d="M361 194 C436 194 559 292 583 319 L588 344 L564 352 C544 334 480 290 431 290 C382 290 335 360 266 360 C199 360 68 262 44 235 L40 209 L65 202 C84 220 146 264 197 264 C256 264 295 194 361 194 L361 194 Z " />
<glyph glyph-name="uni00A0" unicode=" " horiz-adv-x="320" d="" />
<glyph glyph-name="exclamdown" unicode="¡" horiz-adv-x="268" d="M197 516 C246 516 290 547 298 587 C305 624 281 650 237 650 C189 650 143 619 136 579 C129 541 153 516 197 516 L197 516 Z M23 -5 L193 5 L254 461 L193 475 L124 439 L23 -5 Z " />
<glyph glyph-name="cent" unicode="¢" horiz-adv-x="620" d="M303 0 L343 0 L358 83 C440 90 501 118 515 127 L520 154 L497 175 C497 175 430 154 370 152 L430 492 C433 492 437 492 440 492 C456 492 497 475 497 475 L500 395 L547 398 C547 398 579 530 587 552 C587 552 496 562 450 562 C447 562 444 562 442 562 L456 640 L416 640 L402 560 C219 543 111 418 111 262 C111 145 193 84 317 82 L303 0 Z M331 158 C289 172 263 207 263 269 C263 372 321 458 363 484 C363 484 372 487 389 489 L331 158 Z " />
<glyph glyph-name="sterling" unicode="£" horiz-adv-x="620" d="M21 -11 C55 21 110 54 139 54 C215 54 289 -10 362 -10 C457 -10 561 74 561 74 L566 103 L543 117 C543 117 504 82 451 82 C418 82 316 150 272 150 C243 150 197 136 191 131 L190 132 C220 157 246 180 272 279 L422 276 L449 297 L460 334 L287 334 L315 445 C334 520 368 554 368 554 C368 554 412 565 455 565 C511 565 553 518 553 518 L558 448 L606 451 C606 451 638 583 646 605 C646 605 532 630 446 630 C341 630 204 559 170 434 L143 334 L79 334 L63 283 L129 281 C88 129 68 103 25 59 L-2 39 L-7 13 L21 -11 Z " />
<glyph glyph-name="yen" unicode="¥" horiz-adv-x="620" d="M442 -5 L456 41 L392 57 C392 57 395 80 409 179 L411 193 L583 193 L609 249 L613 271 L425 271 L432 312 L461 347 L610 347 L636 403 L640 425 L526 425 L663 590 L712 599 L723 645 C723 645 668 640 627 640 L541 640 L531 594 L576 589 L398 363 L396 363 L306 587 L367 594 L377 640 L225 640 C138 640 89 645 89 645 L75 599 L123 588 L205 425 L120 425 L94 369 L90 347 L244 347 L278 279 L277 271 L93 271 L67 215 L63 193 L263 193 L261 179 C248 91 234 58 234 58 L177 46 L167 0 L304 0 C377 0 442 -5 442 -5 L442 -5 Z " />
<glyph glyph-name="brokenbar" unicode="¦" horiz-adv-x="201" d="M116 416 L196 416 L251 724 L171 724 L116 416 Z M34 -52 L114 -52 L168 256 L88 256 L34 -52 Z " />
<glyph glyph-name="section" unicode="§" horiz-adv-x="424" d="M143 -10 C289 -10 375 64 375 157 C375 184 364 210 342 232 L342 234 C395 264 424 313 424 365 C424 416 389 459 310 483 C253 500 241 519 241 539 C241 564 271 592 310 592 C343 592 365 575 365 575 L370 511 L416 514 C416 514 442 617 448 638 C448 638 383 650 326 650 C220 650 126 584 126 478 C126 451 136 429 155 410 L155 408 C109 380 77 328 77 271 C77 225 105 188 177 162 C229 143 245 123 245 102 C245 77 220 50 164 50 C118 50 93 68 93 68 L89 133 L46 130 C46 130 18 24 11 3 C11 3 82 -10 143 -10 L143 -10 Z M272 272 C268 272 264 274 260 275 C204 294 193 310 193 330 C193 347 200 364 220 372 C273 351 293 330 293 311 C293 297 286 281 272 272 L272 272 Z " />
<glyph glyph-name="dieresis" unicode="¨" horiz-adv-x="570" d="M461 534 C514 534 563 569 563 618 C563 647 539 668 501 668 C447 668 399 631 399 586 C399 556 422 534 461 534 L461 534 Z M253 534 C306 534 355 569 355 618 C355 647 331 668 293 668 C239 668 191 631 191 586 C191 556 214 534 253 534 L253 534 Z " />
<glyph glyph-name="copyright" unicode="©" horiz-adv-x="718" d="M326 -10 C555 -10 726 162 726 399 C726 551 636 650 463 650 C235 650 65 476 65 245 C65 91 152 -10 326 -10 L326 -10 Z M333 30 C183 30 105 116 105 247 C105 449 253 610 456 610 C609 610 685 520 685 386 C685 183 533 30 333 30 L333 30 Z M361 124 C444 124 518 162 518 162 L521 182 L508 193 C508 193 464 170 387 170 C318 170 273 211 273 289 C273 372 325 445 354 467 C354 467 387 478 433 478 C479 478 518 457 518 457 L520 414 L553 416 C553 416 571 488 579 507 C579 507 506 519 453 519 C302 519 189 416 189 276 C189 183 248 124 361 124 L361 124 Z " />
<glyph glyph-name="ordfeminine" unicode="ª" horiz-adv-x="404" d="M270 303 C297 312 419 327 419 327 L424 365 L392 365 C383 365 378 368 375 370 C376 376 379 413 403 551 C406 566 424 652 424 652 L346 639 C340 641 299 650 277 650 C157 650 65 534 65 399 C65 340 95 304 147 304 C192 304 234 339 258 369 L260 369 C258 363 252 342 252 336 C252 316 270 303 270 303 L270 303 Z M33 190 L323 190 L346 231 L353 268 L63 268 L40 227 L33 190 Z M196 376 C187 376 180 385 180 403 C180 498 223 560 254 582 C254 582 263 586 276 586 C289 586 295 582 298 580 L288 533 C268 430 226 390 206 378 C206 378 202 376 196 376 L196 376 Z " />
<glyph glyph-name="guillemotleft" unicode="«" horiz-adv-x="396" d="M305 55 L347 60 L354 77 L285 226 L406 375 L405 392 L365 397 L196 245 L190 207 L305 55 Z M159 55 L201 60 L208 77 L139 226 L260 375 L259 392 L219 397 L50 245 L44 207 L159 55 Z " />
<glyph glyph-name="logicalnot" unicode="¬" horiz-adv-x="620" d="M423 123 L532 128 L576 378 L132 378 L111 352 L102 300 L464 300 L423 123 Z " />
<glyph glyph-name="registered" unicode="®" horiz-adv-x="718" d="M326 -10 C555 -10 726 162 726 399 C726 551 636 650 463 650 C235 650 65 476 65 245 C65 91 152 -10 326 -10 L326 -10 Z M333 30 C183 30 105 116 105 247 C105 449 253 610 456 610 C609 610 685 520 685 386 C685 183 533 30 333 30 L333 30 Z M320 126 L332 159 L294 168 C294 168 296 204 318 330 C337 439 345 463 347 472 C356 474 377 478 405 478 C448 478 467 458 467 428 C467 378 435 351 435 351 C435 351 415 341 386 341 C355 341 344 345 344 345 L331 323 L328 305 L342 301 L452 129 L503 129 C532 129 559 126 559 126 C561 130 572 159 572 159 C567 160 527 171 527 171 L441 287 C433 297 420 307 412 307 L412 309 C477 317 541 361 541 440 C541 485 500 518 424 518 C401 518 332 512 306 512 C282 512 246 517 246 517 L233 483 C233 483 264 475 272 472 C272 463 269 441 249 330 C227 206 219 169 219 169 L186 163 L178 129 L240 129 C269 129 320 126 320 126 L320 126 Z " />
<glyph glyph-name="macron" unicode="¯" horiz-adv-x="510" d="M218 538 L418 538 L438 564 L446 606 L246 606 L225 580 L218 538 Z " />
<glyph glyph-name="degree" unicode="°" horiz-adv-x="620" d="M318 332 C435 332 514 409 514 517 C514 590 465 630 380 630 C272 630 184 562 184 447 C184 371 236 332 318 332 L318 332 Z M332 382 C296 382 280 406 281 447 C281 529 324 573 324 573 C324 573 347 580 365 580 C401 580 416 557 417 516 C417 427 371 389 371 389 C371 389 351 382 332 382 L332 382 Z " />
<glyph glyph-name="plusminus" unicode="±" horiz-adv-x="620" d="M279 173 L377 178 L402 347 L590 347 L616 403 L620 425 L416 425 L453 605 L354 600 L328 425 L140 425 L114 369 L110 347 L314 347 L279 173 Z M57 43 L537 43 L562 99 L566 121 L86 121 L60 65 L57 43 Z " />
<glyph glyph-name="twosuperior" unicode="²" horiz-adv-x="434" d="M51 189 L403 189 L425 266 L404 288 L358 280 L209 275 L210 277 L294 335 C403 410 444 459 455 525 C470 614 393 650 322 650 C216 650 124 582 124 582 L125 548 L146 533 C146 533 209 573 259 573 C308 573 334 555 324 501 C318 467 288 419 232 377 L38 233 L51 189 Z " />
<glyph glyph-name="threesuperior" unicode="³" horiz-adv-x="434" d="M166 175 C286 175 407 239 429 363 C440 423 401 460 373 472 L374 474 C403 494 431 527 436 557 C448 624 390 650 332 650 C258 650 155 603 155 603 L147 568 L169 551 C169 551 222 574 264 574 C291 574 312 562 307 538 C301 507 277 488 245 475 L170 445 L157 417 L175 392 L258 416 C290 414 308 384 301 347 C290 284 238 252 231 248 C223 246 197 242 165 242 C131 242 82 263 82 263 L46 224 L39 185 C39 185 106 175 166 175 L166 175 Z " />
<glyph glyph-name="acute" unicode="´" horiz-adv-x="525" d="M294 520 L453 618 L448 667 L372 673 L264 540 L294 520 Z " />
<glyph glyph-name="mu" unicode="µ" horiz-adv-x="587" d="M-78 -237 C34 -175 147 -109 179 -5 C199 -3 218 4 237 15 C286 44 329 96 349 144 L351 144 C351 144 324 43 324 28 C324 5 337 -10 337 -10 C376 -1 554 22 554 22 L556 63 L518 63 C501 63 489 64 485 69 C485 69 489 108 508 219 C535 374 557 462 557 462 L403 459 C403 459 393 391 382 335 C360 224 318 157 271 109 C271 109 253 103 235 103 C215 103 209 114 209 131 C209 140 211 151 213 160 C235 272 290 455 290 470 C235 460 74 460 74 460 L64 413 L125 404 L44 37 C21 -68 -25 -153 -96 -201 L-78 -237 Z " />
<glyph glyph-name="paragraph" unicode="¶" horiz-adv-x="662" d="M156 -156 L314 -156 C314 -156 349 69 396 337 C425 504 440 569 445 591 C481 588 503 582 503 582 C503 582 501 546 464 337 C417 69 372 -156 372 -156 L530 -156 C530 -156 566 76 612 337 C649 550 661 583 661 583 L731 599 L733 645 C733 645 672 640 633 640 C587 640 348 650 308 650 C161 650 78 556 78 453 C78 347 152 302 240 292 C200 63 156 -156 156 -156 L156 -156 Z " />
<glyph glyph-name="periodcentered" unicode="·" horiz-adv-x="270" d="M138 205 C186 205 232 236 239 276 C245 311 222 339 178 339 C129 339 84 308 77 268 C71 233 94 205 138 205 L138 205 Z " />
<glyph glyph-name="cedilla" unicode="¸" horiz-adv-x="475" d="M143 -177 L250 -44 L221 -24 L61 -122 L67 -171 L143 -177 Z " />
<glyph glyph-name="onesuperior" unicode="¹" horiz-adv-x="434" d="M375 196 L391 248 L322 259 C323 274 329 319 350 439 C380 608 396 666 396 666 C345 653 177 640 177 640 L175 587 L251 588 C249 571 242 525 227 439 C207 324 197 277 193 260 L132 251 L119 200 L247 200 C283 200 375 196 375 196 L375 196 Z " />
<glyph glyph-name="ordmasculine" unicode="º" horiz-adv-x="388" d="M206 304 C340 304 415 395 415 539 C415 607 362 650 277 650 C140 650 67 556 67 416 C67 347 112 304 206 304 L206 304 Z M33 190 L303 190 L326 231 L333 268 L63 268 L40 227 L33 190 Z M224 368 C199 368 183 384 183 421 C183 488 208 561 234 582 C234 582 247 586 259 586 C290 586 300 572 300 533 C300 467 274 393 249 371 C246 370 236 368 224 368 L224 368 Z " />
<glyph glyph-name="guillemotright" unicode="»" horiz-adv-x="396" d="M218 55 L387 207 L393 245 L278 397 L236 392 L229 375 L298 226 L177 77 L178 60 L218 55 Z M72 55 L241 207 L247 245 L132 397 L90 392 L83 375 L152 226 L31 77 L32 60 L72 55 Z " />
<glyph glyph-name="onequarter" unicode="¼" horiz-adv-x="920" d="M319 196 L335 248 L266 259 C267 274 273 319 294 439 C324 608 340 666 340 666 C289 653 121 640 121 640 L119 587 L195 588 C193 571 186 525 171 439 C151 324 141 277 137 260 L76 251 L63 200 L191 200 C227 200 319 196 319 196 L319 196 Z M170 0 L212 0 L829 616 L821 640 L775 640 L163 28 L170 0 Z M723 -12 L779 0 C779 0 781 38 792 106 L875 106 L898 148 L890 178 L804 175 L821 274 C845 412 855 448 855 448 L757 460 L469 148 L478 106 L670 106 C658 39 648 0 648 0 L723 -12 Z M576 173 L703 312 L705 312 C705 312 702 290 698 266 L682 175 L576 173 Z " />
<glyph glyph-name="onehalf" unicode="½" horiz-adv-x="980" d="M319 196 L335 248 L266 259 C267 274 273 319 294 439 C324 608 340 666 340 666 C289 653 121 640 121 640 L119 587 L195 588 C193 571 186 525 171 439 C151 324 141 277 137 260 L76 251 L63 200 L191 200 C227 200 319 196 319 196 L319 196 Z M170 0 L212 0 L829 616 L821 640 L775 640 L163 28 L170 0 Z M566 0 L918 0 L940 77 L918 99 L873 91 L724 86 L725 88 L809 146 C918 221 957 270 969 336 C985 425 907 461 836 461 C730 461 638 393 638 393 L639 359 L661 344 C661 344 724 384 774 384 C823 384 849 366 839 312 C833 278 802 229 747 188 L553 44 L566 0 Z " />
<glyph glyph-name="threequarters" unicode="¾" horiz-adv-x="940" d="M166 175 C286 175 407 239 429 363 C440 423 401 460 373 472 L374 474 C403 494 431 527 436 557 C448 624 390 650 332 650 C258 650 155 603 155 603 L147 568 L169 551 C169 551 222 574 264 574 C291 574 312 562 307 538 C301 507 277 488 245 475 L170 445 L157 417 L175 392 L258 416 C290 414 308 384 301 347 C290 284 238 252 231 248 C223 246 197 242 165 242 C131 242 82 263 82 263 L46 224 L39 185 C39 185 106 175 166 175 L166 175 Z M190 0 L232 0 L849 616 L841 640 L795 640 L183 28 L190 0 Z M743 -12 L799 0 C799 0 801 38 812 106 L895 106 L918 148 L910 178 L824 175 L841 274 C865 412 875 448 875 448 L777 460 L489 148 L498 106 L690 106 C678 39 668 0 668 0 L743 -12 Z M596 173 L723 312 L725 312 C725 312 722 290 718 266 L702 175 L596 173 Z " />
<glyph glyph-name="questiondown" unicode="¿" horiz-adv-x="313" d="M226 516 C275 516 319 547 327 587 C334 624 310 650 266 650 C218 650 172 619 165 579 C158 541 182 516 226 516 L226 516 Z M145 -8 L238 11 L287 74 C241 92 140 154 160 265 C170 318 292 381 296 404 C300 427 268 482 268 482 L179 467 L145 429 C173 397 187 369 187 357 C155 314 34 240 26 197 C11 111 85 11 145 -8 L145 -8 Z " />
<glyph glyph-name="Agrave" unicode="À" horiz-adv-x="705" d="M434 690 L470 710 L410 843 L332 837 L309 788 L434 690 Z M-17 -5 C-17 -5 38 0 79 0 L165 0 L175 46 L127 51 L204 191 L432 191 L461 53 L400 46 L390 0 L537 0 C624 0 673 -5 673 -5 L687 41 L639 52 L489 640 L386 640 L43 50 L-6 41 L-17 -5 Z M242 259 L367 488 L369 488 L418 259 L242 259 Z " />
<glyph glyph-name="Aacute" unicode="Á" horiz-adv-x="705" d="M460 690 L619 788 L614 837 L538 843 L430 710 L460 690 Z M-17 -5 C-17 -5 38 0 79 0 L165 0 L175 46 L127 51 L204 191 L432 191 L461 53 L400 46 L390 0 L537 0 C624 0 673 -5 673 -5 L687 41 L639 52 L489 640 L386 640 L43 50 L-6 41 L-17 -5 Z M242 259 L367 488 L369 488 L418 259 L242 259 Z " />
<glyph glyph-name="Acircumflex" unicode="Â" horiz-adv-x="705" d="M348 691 L450 767 L526 691 L572 712 L501 834 L423 834 L310 712 L348 691 Z M-17 -5 C-17 -5 38 0 79 0 L165 0 L175 46 L127 51 L204 191 L432 191 L461 53 L400 46 L390 0 L537 0 C624 0 673 -5 673 -5 L687 41 L639 52 L489 640 L386 640 L43 50 L-6 41 L-17 -5 Z M242 259 L367 488 L369 488 L418 259 L242 259 Z " />
<glyph glyph-name="Atilde" unicode="Ã" horiz-adv-x="705" d="M498 693 C533 693 604 736 635 778 L634 801 L612 806 C593 781 570 768 536 768 C490 768 472 821 428 821 C387 821 314 763 289 731 L290 710 L313 703 C333 728 361 746 392 746 C419 746 447 693 498 693 L498 693 Z M-17 -5 C-17 -5 38 0 79 0 L165 0 L175 46 L127 51 L204 191 L432 191 L461 53 L400 46 L390 0 L537 0 C624 0 673 -5 673 -5 L687 41 L639 52 L489 640 L386 640 L43 50 L-6 41 L-17 -5 Z M242 259 L367 488 L369 488 L418 259 L242 259 Z " />
<glyph glyph-name="Adieresis" unicode="Ä" horiz-adv-x="705" d="M547 690 C595 690 640 721 647 761 C654 799 630 824 586 824 C537 824 493 793 486 753 C479 715 503 690 547 690 L547 690 Z M339 690 C387 690 432 721 439 761 C446 799 422 824 378 824 C329 824 285 793 278 753 C271 715 295 690 339 690 L339 690 Z M-17 -5 C-17 -5 38 0 79 0 L165 0 L175 46 L127 51 L204 191 L432 191 L461 53 L400 46 L390 0 L537 0 C624 0 673 -5 673 -5 L687 41 L639 52 L489 640 L386 640 L43 50 L-6 41 L-17 -5 Z M242 259 L367 488 L369 488 L418 259 L242 259 Z " />
<glyph glyph-name="Aring" unicode="Å" horiz-adv-x="705" d="M-17 -5 C-17 -5 38 0 79 0 L165 0 L175 46 L127 51 L204 191 L432 191 L461 53 L400 46 L390 0 L537 0 C624 0 673 -5 673 -5 L687 41 L639 52 L490 635 C525 653 554 687 561 723 C573 787 532 819 473 819 C417 819 352 773 342 715 C335 673 351 644 380 629 L43 50 L-6 41 L-17 -5 Z M444 681 C429 681 420 705 423 717 C428 741 440 757 459 757 C474 757 483 736 480 721 C476 697 463 681 444 681 L444 681 Z M242 259 L367 488 L369 488 L418 259 L242 259 Z " />
<glyph glyph-name="AE" unicode="Æ" horiz-adv-x="908" d="M-19 -5 C-19 -5 21 0 62 0 L148 0 L158 46 L112 51 L270 298 L404 298 C366 84 356 58 356 58 L299 46 L289 0 L841 0 C846 26 887 166 887 166 L841 169 L790 72 L522 65 L516 67 C516 67 515 93 552 298 L757 295 L764 210 L812 213 C812 213 818 285 826 332 C834 379 851 437 851 437 L805 440 L769 365 L563 361 C594 539 605 572 605 572 L616 574 L864 568 L851 471 L899 474 L951 640 L497 640 C456 640 379 645 379 645 L365 599 L406 591 L43 50 L-8 41 L-19 -5 Z M308 361 L447 571 L449 571 C449 571 443 520 419 388 L415 361 L308 361 Z " />
<glyph glyph-name="Ccedilla" unicode="Ç" horiz-adv-x="642" d="M342 -10 C473 -10 586 43 602 53 L607 79 L584 101 C584 101 512 67 389 67 C270 67 197 158 228 336 C251 468 327 536 370 568 C370 568 421 583 478 583 C545 583 596 543 596 543 L600 473 L648 476 C648 476 680 608 688 630 C688 630 615 650 497 650 C273 650 108 521 72 322 C33 104 119 -10 342 -10 L342 -10 Z M243 -177 L350 -44 L321 -24 L161 -122 L167 -171 L243 -177 Z " />
<glyph glyph-name="Egrave" unicode="È" horiz-adv-x="630" d="M482 690 L518 710 L458 843 L380 837 L357 788 L482 690 Z M23 0 L555 0 C560 26 601 166 601 166 L555 169 L504 72 L256 65 L250 67 C250 67 250 98 286 298 L471 295 L480 220 L527 223 C527 223 532 285 540 332 C548 379 563 427 563 427 L517 430 L483 365 L297 361 C329 546 339 572 339 572 L350 574 L578 568 L565 471 L613 474 L665 640 L271 640 C198 640 133 645 133 645 L119 599 L183 583 C183 583 182 553 144 337 C103 104 90 58 90 58 L33 46 L23 0 Z " />
<glyph glyph-name="Eacute" unicode="É" horiz-adv-x="630" d="M408 690 L567 788 L562 837 L486 843 L378 710 L408 690 Z M23 0 L555 0 C560 26 601 166 601 166 L555 169 L504 72 L256 65 L250 67 C250 67 250 98 286 298 L471 295 L480 220 L527 223 C527 223 532 285 540 332 C548 379 563 427 563 427 L517 430 L483 365 L297 361 C329 546 339 572 339 572 L350 574 L578 568 L565 471 L613 474 L665 640 L271 640 C198 640 133 645 133 645 L119 599 L183 583 C183 583 182 553 144 337 C103 104 90 58 90 58 L33 46 L23 0 Z " />
<glyph glyph-name="Ecircumflex" unicode="Ê" horiz-adv-x="630" d="M342 691 L444 767 L520 691 L566 712 L495 834 L417 834 L304 712 L342 691 Z M23 0 L555 0 C560 26 601 166 601 166 L555 169 L504 72 L256 65 L250 67 C250 67 250 98 286 298 L471 295 L480 220 L527 223 C527 223 532 285 540 332 C548 379 563 427 563 427 L517 430 L483 365 L297 361 C329 546 339 572 339 572 L350 574 L578 568 L565 471 L613 474 L665 640 L271 640 C198 640 133 645 133 645 L119 599 L183 583 C183 583 182 553 144 337 C103 104 90 58 90 58 L33 46 L23 0 Z " />
<glyph glyph-name="Edieresis" unicode="Ë" horiz-adv-x="630" d="M517 690 C565 690 610 721 617 761 C624 799 600 824 556 824 C507 824 463 793 456 753 C449 715 473 690 517 690 L517 690 Z M309 690 C357 690 402 721 409 761 C416 799 392 824 348 824 C299 824 255 793 248 753 C241 715 265 690 309 690 L309 690 Z M23 0 L555 0 C560 26 601 166 601 166 L555 169 L504 72 L256 65 L250 67 C250 67 250 98 286 298 L471 295 L480 220 L527 223 C527 223 532 285 540 332 C548 379 563 427 563 427 L517 430 L483 365 L297 361 C329 546 339 572 339 572 L350 574 L578 568 L565 471 L613 474 L665 640 L271 640 C198 640 133 645 133 645 L119 599 L183 583 C183 583 182 553 144 337 C103 104 90 58 90 58 L33 46 L23 0 Z " />
<glyph glyph-name="Igrave" unicode="Ì" horiz-adv-x="348" d="M362 690 L398 710 L338 843 L260 837 L237 788 L362 690 Z M298 -5 L312 41 L248 57 C248 57 248 85 292 337 C330 556 341 582 341 582 L398 594 L408 640 L271 640 C194 640 133 645 133 645 L119 599 L183 583 C183 583 183 560 144 337 C101 88 90 58 90 58 L33 46 L23 0 L160 0 C233 0 298 -5 298 -5 L298 -5 Z " />
<glyph glyph-name="Iacute" unicode="Í" horiz-adv-x="348" d="M228 690 L387 788 L382 837 L306 843 L198 710 L228 690 Z M298 -5 L312 41 L248 57 C248 57 248 85 292 337 C330 556 341 582 341 582 L398 594 L408 640 L271 640 C194 640 133 645 133 645 L119 599 L183 583 C183 583 183 560 144 337 C101 88 90 58 90 58 L33 46 L23 0 L160 0 C233 0 298 -5 298 -5 L298 -5 Z " />
<glyph glyph-name="Icircumflex" unicode="Î" horiz-adv-x="348" d="M193 691 L295 767 L371 691 L417 712 L346 834 L268 834 L155 712 L193 691 Z M298 -5 L312 41 L248 57 C248 57 248 85 292 337 C330 556 341 582 341 582 L398 594 L408 640 L271 640 C194 640 133 645 133 645 L119 599 L183 583 C183 583 183 560 144 337 C101 88 90 58 90 58 L33 46 L23 0 L160 0 C233 0 298 -5 298 -5 L298 -5 Z " />
<glyph glyph-name="Idieresis" unicode="Ï" horiz-adv-x="348" d="M373 690 C421 690 466 721 473 761 C480 799 456 824 412 824 C363 824 319 793 312 753 C305 715 329 690 373 690 L373 690 Z M165 690 C213 690 258 721 265 761 C272 799 248 824 204 824 C155 824 111 793 104 753 C97 715 121 690 165 690 L165 690 Z M298 -5 L312 41 L248 57 C248 57 248 85 292 337 C330 556 341 582 341 582 L398 594 L408 640 L271 640 C194 640 133 645 133 645 L119 599 L183 583 C183 583 183 560 144 337 C101 88 90 58 90 58 L33 46 L23 0 L160 0 C233 0 298 -5 298 -5 L298 -5 Z " />
<glyph glyph-name="Eth" unicode="Ð" horiz-adv-x="780" d="M358 -10 C581 -10 748 129 783 330 C818 529 727 650 495 650 C428 650 291 640 271 640 C202 640 133 645 133 645 L119 599 L183 583 C183 583 181 546 148 356 L63 356 L40 315 L33 278 L134 278 C101 98 90 58 90 58 L33 46 L23 0 C23 0 105 0 158 0 C198 0 307 -10 358 -10 L358 -10 Z M381 57 C326 57 257 70 257 70 L252 77 C252 77 256 123 282 278 L379 278 L402 319 L409 356 L296 356 C324 512 338 568 338 568 L350 574 C350 574 405 583 445 583 C569 583 658 494 627 316 C604 182 559 113 504 74 C504 74 440 57 381 57 L381 57 Z " />
<glyph glyph-name="Ntilde" unicode="Ñ" horiz-adv-x="756" d="M528 693 C563 693 634 736 665 778 L664 801 L642 806 C623 781 600 768 566 768 C520 768 502 821 458 821 C417 821 344 763 319 731 L320 710 L343 703 C363 728 391 746 422 746 C449 746 477 693 528 693 L528 693 Z M530 -14 L642 0 C642 0 643 31 656 107 L696 337 C736 568 745 582 745 582 L802 594 L812 640 L710 640 C661 640 617 645 617 645 L603 599 L667 583 C667 583 670 572 628 337 C621 301 600 189 600 189 L598 189 L316 640 L217 640 C168 640 133 645 133 645 L119 599 L183 583 C183 583 185 572 144 337 C98 76 90 58 90 58 L33 46 L23 0 L117 0 C166 0 218 -5 218 -5 L232 41 L168 57 C168 57 164 71 212 337 L234 460 L236 460 L530 -14 Z " />
<glyph glyph-name="Ograve" unicode="Ò" horiz-adv-x="758" d="M562 690 L598 710 L538 843 L460 837 L437 788 L562 690 Z M342 -10 C555 -10 723 121 759 320 C797 531 702 650 487 650 C273 650 108 521 72 322 C33 104 119 -10 342 -10 L342 -10 Z M371 57 C270 57 197 158 228 336 C252 476 331 548 358 568 C358 568 401 583 458 583 C562 583 632 470 603 306 C581 182 493 95 461 72 C461 72 421 57 371 57 L371 57 Z " />
<glyph glyph-name="Oacute" unicode="Ó" horiz-adv-x="758" d="M408 690 L567 788 L562 837 L486 843 L378 710 L408 690 Z M342 -10 C555 -10 723 121 759 320 C797 531 702 650 487 650 C273 650 108 521 72 322 C33 104 119 -10 342 -10 L342 -10 Z M371 57 C270 57 197 158 228 336 C252 476 331 548 358 568 C358 568 401 583 458 583 C562 583 632 470 603 306 C581 182 493 95 461 72 C461 72 421 57 371 57 L371 57 Z " />
<glyph glyph-name="Ocircumflex" unicode="Ô" horiz-adv-x="758" d="M398 691 L500 767 L576 691 L622 712 L551 834 L473 834 L360 712 L398 691 Z M342 -10 C555 -10 723 121 759 320 C797 531 702 650 487 650 C273 650 108 521 72 322 C33 104 119 -10 342 -10 L342 -10 Z M371 57 C270 57 197 158 228 336 C252 476 331 548 358 568 C358 568 401 583 458 583 C562 583 632 470 603 306 C581 182 493 95 461 72 C461 72 421 57 371 57 L371 57 Z " />
<glyph glyph-name="Otilde" unicode="Õ" horiz-adv-x="758" d="M548 693 C583 693 654 736 685 778 L684 801 L662 806 C643 781 620 768 586 768 C540 768 522 821 478 821 C437 821 364 763 339 731 L340 710 L363 703 C383 728 411 746 442 746 C469 746 497 693 548 693 L548 693 Z M342 -10 C555 -10 723 121 759 320 C797 531 702 650 487 650 C273 650 108 521 72 322 C33 104 119 -10 342 -10 L342 -10 Z M371 57 C270 57 197 158 228 336 C252 476 331 548 358 568 C358 568 401 583 458 583 C562 583 632 470 603 306 C581 182 493 95 461 72 C461 72 421 57 371 57 L371 57 Z " />
<glyph glyph-name="Odieresis" unicode="Ö" horiz-adv-x="758" d="M587 690 C635 690 680 721 687 761 C694 799 670 824 626 824 C577 824 533 793 526 753 C519 715 543 690 587 690 L587 690 Z M379 690 C427 690 472 721 479 761 C486 799 462 824 418 824 C369 824 325 793 318 753 C311 715 335 690 379 690 L379 690 Z M342 -10 C555 -10 723 121 759 320 C797 531 702 650 487 650 C273 650 108 521 72 322 C33 104 119 -10 342 -10 L342 -10 Z M371 57 C270 57 197 158 228 336 C252 476 331 548 358 568 C358 568 401 583 458 583 C562 583 632 470 603 306 C581 182 493 95 461 72 C461 72 421 57 371 57 L371 57 Z " />
<glyph glyph-name="multiply" unicode="×" horiz-adv-x="620" d="M174 104 L341 248 L446 115 L495 110 L538 173 L418 314 L574 443 L591 496 L530 524 L364 380 L258 513 L196 512 L167 455 L286 314 L131 185 L130 114 L174 104 Z " />
<glyph glyph-name="Oslash" unicode="Ø" horiz-adv-x="758" d="M59 -10 L133 50 C179 10 248 -10 342 -10 C587 -10 767 164 767 404 C767 458 757 503 735 540 L809 600 L801 646 L762 650 L690 592 C643 630 575 650 487 650 C234 650 63 476 63 224 C63 175 73 134 92 100 L23 44 L22 -4 L59 -10 Z M224 209 C222 225 221 241 221 259 C221 432 326 544 358 568 C358 568 401 583 458 583 C511 583 556 554 582 503 L224 209 Z M371 57 C317 57 270 86 244 141 L605 434 C608 417 609 399 609 380 C609 210 500 100 461 72 C461 72 421 57 371 57 L371 57 Z " />
<glyph glyph-name="Ugrave" unicode="Ù" horiz-adv-x="756" d="M532 690 L568 710 L508 843 L430 837 L407 788 L532 690 Z M366 -10 C557 -10 671 100 703 289 L711 337 C733 467 765 582 765 582 L817 594 L827 640 L725 640 C670 640 628 645 628 645 L614 599 L675 583 C675 583 657 450 639 337 L632 293 C607 138 536 89 536 89 C536 89 478 64 399 64 C290 64 248 132 274 289 L282 337 C314 532 331 582 331 582 L388 594 L398 640 L261 640 C184 640 123 645 123 645 L109 599 L173 583 C173 583 166 532 134 337 L126 289 C98 120 154 -10 366 -10 L366 -10 Z " />
<glyph glyph-name="Uacute" unicode="Ú" horiz-adv-x="756" d="M448 690 L607 788 L602 837 L526 843 L418 710 L448 690 Z M366 -10 C557 -10 671 100 703 289 L711 337 C733 467 765 582 765 582 L817 594 L827 640 L725 640 C670 640 628 645 628 645 L614 599 L675 583 C675 583 657 450 639 337 L632 293 C607 138 536 89 536 89 C536 89 478 64 399 64 C290 64 248 132 274 289 L282 337 C314 532 331 582 331 582 L388 594 L398 640 L261 640 C184 640 123 645 123 645 L109 599 L173 583 C173 583 166 532 134 337 L126 289 C98 120 154 -10 366 -10 L366 -10 Z " />
<glyph glyph-name="Ucircumflex" unicode="Û" horiz-adv-x="756" d="M398 691 L500 767 L576 691 L622 712 L551 834 L473 834 L360 712 L398 691 Z M366 -10 C557 -10 671 100 703 289 L711 337 C733 467 765 582 765 582 L817 594 L827 640 L725 640 C670 640 628 645 628 645 L614 599 L675 583 C675 583 657 450 639 337 L632 293 C607 138 536 89 536 89 C536 89 478 64 399 64 C290 64 248 132 274 289 L282 337 C314 532 331 582 331 582 L388 594 L398 640 L261 640 C184 640 123 645 123 645 L109 599 L173 583 C173 583 166 532 134 337 L126 289 C98 120 154 -10 366 -10 L366 -10 Z " />
<glyph glyph-name="Udieresis" unicode="Ü" horiz-adv-x="756" d="M587 690 C635 690 680 721 687 761 C694 799 670 824 626 824 C577 824 533 793 526 753 C519 715 543 690 587 690 L587 690 Z M379 690 C427 690 472 721 479 761 C486 799 462 824 418 824 C369 824 325 793 318 753 C311 715 335 690 379 690 L379 690 Z M366 -10 C557 -10 671 100 703 289 L711 337 C733 467 765 582 765 582 L817 594 L827 640 L725 640 C670 640 628 645 628 645 L614 599 L675 583 C675 583 657 450 639 337 L632 293 C607 138 536 89 536 89 C536 89 478 64 399 64 C290 64 248 132 274 289 L282 337 C314 532 331 582 331 582 L388 594 L398 640 L261 640 C184 640 123 645 123 645 L109 599 L173 583 C173 583 166 532 134 337 L126 289 C98 120 154 -10 366 -10 L366 -10 Z " />
<glyph glyph-name="Yacute" unicode="Ý" horiz-adv-x="670" d="M418 690 L577 788 L572 837 L496 843 L388 710 L418 690 Z M461 -5 L475 41 L411 57 C411 57 412 86 428 179 L449 302 L705 590 L754 599 L765 645 C765 645 710 640 669 640 L583 640 L573 594 L618 589 L415 353 L413 353 L315 587 L376 594 L386 640 L234 640 C147 640 98 645 98 645 L84 599 L132 588 L295 269 L280 179 C266 94 253 58 253 58 L196 46 L186 0 L323 0 C396 0 461 -5 461 -5 L461 -5 Z " />
<glyph glyph-name="Thorn" unicode="Þ" horiz-adv-x="612" d="M298 -5 L312 41 L248 57 C248 57 254 121 277 249 C298 366 317 446 317 446 C317 446 364 457 389 457 C467 457 503 414 490 344 C476 268 432 232 432 232 C432 232 403 220 368 220 C337 220 320 227 320 227 L290 197 L284 162 C284 162 316 153 352 153 C479 153 619 204 647 364 C664 464 587 524 477 524 C441 524 381 520 329 517 C334 547 344 582 344 582 L401 594 L411 640 L274 640 C197 640 136 645 136 645 L122 599 L186 583 C186 583 181 556 144 337 L129 249 C116 171 90 58 90 58 L33 46 L23 0 L160 0 C229 0 298 -5 298 -5 L298 -5 Z " />
<glyph glyph-name="germandbls" unicode="ß" horiz-adv-x="599" d="M-40 -232 L115 -229 C115 -229 157 -162 187 6 L280 525 C290 579 320 612 320 612 C320 612 344 625 369 625 C414 625 440 596 440 554 C440 427 288 427 288 291 C288 241 316 201 394 173 C451 152 466 130 466 108 C466 81 438 54 380 54 C331 54 304 73 304 73 L301 142 L254 139 C254 139 225 26 217 4 C217 4 293 -10 358 -10 C512 -10 604 68 604 166 C604 221 567 267 483 294 C423 314 410 332 410 353 C410 423 589 438 589 590 C589 677 500 700 409 700 C268 700 156 635 134 514 L124 460 L56 460 L41 399 L113 397 L40 10 C12 -139 -40 -232 -40 -232 L-40 -232 Z " />
<glyph glyph-name="agrave" unicode="à" horiz-adv-x="545" d="M378 520 L414 540 L354 673 L276 667 L253 618 L378 520 Z M134 -10 C209 -10 271 32 301 92 L303 92 C301 77 292 49 292 28 C292 5 310 -10 310 -10 C347 1 516 22 516 22 L522 63 L484 63 C467 63 453 66 450 71 C450 71 455 120 493 337 C497 359 520 470 520 470 L418 454 C418 454 355 470 320 470 C153 470 24 307 24 119 C24 39 65 -10 134 -10 L134 -10 Z M204 79 C188 79 175 93 175 124 C175 263 238 354 284 386 C284 386 298 393 318 393 C350 393 357 379 357 379 L343 309 C313 158 251 98 223 81 C223 81 214 79 204 79 L204 79 Z " />
<glyph glyph-name="aacute" unicode="á" horiz-adv-x="545" d="M334 520 L493 618 L488 667 L412 673 L304 540 L334 520 Z M134 -10 C209 -10 271 32 301 92 L303 92 C301 77 292 49 292 28 C292 5 310 -10 310 -10 C347 1 516 22 516 22 L522 63 L484 63 C467 63 453 66 450 71 C450 71 455 120 493 337 C497 359 520 470 520 470 L418 454 C418 454 355 470 320 470 C153 470 24 307 24 119 C24 39 65 -10 134 -10 L134 -10 Z M204 79 C188 79 175 93 175 124 C175 263 238 354 284 386 C284 386 298 393 318 393 C350 393 357 379 357 379 L343 309 C313 158 251 98 223 81 C223 81 214 79 204 79 L204 79 Z " />
<glyph glyph-name="acircumflex" unicode="â" horiz-adv-x="545" d="M275 515 L377 591 L453 515 L499 536 L428 658 L350 658 L237 536 L275 515 Z M134 -10 C209 -10 271 32 301 92 L303 92 C301 77 292 49 292 28 C292 5 310 -10 310 -10 C347 1 516 22 516 22 L522 63 L484 63 C467 63 453 66 450 71 C450 71 455 120 493 337 C497 359 520 470 520 470 L418 454 C418 454 355 470 320 470 C153 470 24 307 24 119 C24 39 65 -10 134 -10 L134 -10 Z M204 79 C188 79 175 93 175 124 C175 263 238 354 284 386 C284 386 298 393 318 393 C350 393 357 379 357 379 L343 309 C313 158 251 98 223 81 C223 81 214 79 204 79 L204 79 Z " />
<glyph glyph-name="atilde" unicode="ã" horiz-adv-x="545" d="M405 541 C440 541 511 584 542 626 L541 649 L519 654 C500 629 478 616 444 616 C398 616 379 669 335 669 C294 669 221 611 196 579 L197 558 L220 551 C241 576 268 594 299 594 C326 594 354 541 405 541 L405 541 Z M134 -10 C209 -10 271 32 301 92 L303 92 C301 77 292 49 292 28 C292 5 310 -10 310 -10 C347 1 516 22 516 22 L522 63 L484 63 C467 63 453 66 450 71 C450 71 455 120 493 337 C497 359 520 470 520 470 L418 454 C418 454 355 470 320 470 C153 470 24 307 24 119 C24 39 65 -10 134 -10 L134 -10 Z M204 79 C188 79 175 93 175 124 C175 263 238 354 284 386 C284 386 298 393 318 393 C350 393 357 379 357 379 L343 309 C313 158 251 98 223 81 C223 81 214 79 204 79 L204 79 Z " />
<glyph glyph-name="adieresis" unicode="ä" horiz-adv-x="545" d="M461 534 C514 534 563 569 563 618 C563 647 539 668 501 668 C447 668 399 631 399 586 C399 556 422 534 461 534 L461 534 Z M253 534 C306 534 355 569 355 618 C355 647 331 668 293 668 C239 668 191 631 191 586 C191 556 214 534 253 534 L253 534 Z M134 -10 C209 -10 271 32 301 92 L303 92 C301 77 292 49 292 28 C292 5 310 -10 310 -10 C347 1 516 22 516 22 L522 63 L484 63 C467 63 453 66 450 71 C450 71 455 120 493 337 C497 359 520 470 520 470 L418 454 C418 454 355 470 320 470 C153 470 24 307 24 119 C24 39 65 -10 134 -10 L134 -10 Z M204 79 C188 79 175 93 175 124 C175 263 238 354 284 386 C284 386 298 393 318 393 C350 393 357 379 357 379 L343 309 C313 158 251 98 223 81 C223 81 214 79 204 79 L204 79 Z " />
<glyph glyph-name="aring" unicode="å" horiz-adv-x="545" d="M357 499 C421 499 490 556 490 625 C490 674 452 699 400 699 C337 699 267 643 267 574 C267 525 305 499 357 499 L357 499 Z M134 -10 C209 -10 271 32 301 92 L303 92 C301 77 292 49 292 28 C292 5 310 -10 310 -10 C347 1 516 22 516 22 L522 63 L484 63 C467 63 453 66 450 71 C450 71 455 120 493 337 C497 359 520 470 520 470 L418 454 C418 454 355 470 320 470 C153 470 24 307 24 119 C24 39 65 -10 134 -10 L134 -10 Z M371 561 C358 561 349 579 349 592 C349 616 365 637 386 637 C399 637 408 623 408 607 C408 580 392 561 371 561 L371 561 Z M204 79 C188 79 175 93 175 124 C175 263 238 354 284 386 C284 386 298 393 318 393 C350 393 357 379 357 379 L343 309 C313 158 251 98 223 81 C223 81 214 79 204 79 L204 79 Z " />
<glyph glyph-name="ae" unicode="æ" horiz-adv-x="760" d="M134 -10 C213 -10 276 39 323 101 L325 101 C345 28 404 -10 484 -10 C605 -10 697 54 713 65 L719 90 L693 107 C693 107 629 72 558 72 C504 72 469 96 469 169 C469 169 469 173 469 176 C680 234 758 295 758 377 C758 432 713 470 634 470 C563 470 504 455 456 427 C456 427 389 470 320 470 C153 470 24 307 24 119 C24 39 65 -10 134 -10 L134 -10 Z M474 234 C485 301 513 365 542 388 C542 388 558 393 575 393 C595 393 605 380 605 361 C605 321 567 260 474 234 L474 234 Z M204 79 C188 79 175 93 175 124 C175 263 238 354 284 386 C284 386 298 393 318 393 C350 393 359 378 359 378 L343 309 C308 156 251 98 223 81 C223 81 214 79 204 79 L204 79 Z " />
<glyph glyph-name="ccedilla" unicode="ç" horiz-adv-x="456" d="M188 -10 C291 -10 400 55 417 65 L423 90 L397 107 C397 107 331 72 258 72 C203 72 173 96 173 169 C173 256 206 354 244 385 C244 385 277 393 306 393 C339 393 369 367 369 367 L377 273 L424 276 C424 276 464 418 472 440 C472 440 387 470 314 470 C136 470 22 337 22 146 C22 48 89 -10 188 -10 L188 -10 Z M143 -177 L250 -44 L221 -24 L61 -122 L67 -171 L143 -177 Z " />
<glyph glyph-name="egrave" unicode="è" horiz-adv-x="461" d="M348 520 L384 540 L324 673 L246 667 L223 618 L348 520 Z M188 -10 C309 -10 401 54 417 65 L423 90 L397 107 C397 107 333 72 262 72 C208 72 173 96 173 169 C173 169 173 173 173 176 C384 234 462 295 462 377 C462 432 417 470 338 470 C131 470 22 337 22 158 C22 48 89 -10 188 -10 L188 -10 Z M178 234 C189 301 217 365 246 388 C246 388 262 393 279 393 C299 393 309 380 309 361 C309 321 271 260 178 234 L178 234 Z " />
<glyph glyph-name="eacute" unicode="é" horiz-adv-x="461" d="M314 520 L473 618 L468 667 L392 673 L284 540 L314 520 Z M188 -10 C309 -10 401 54 417 65 L423 90 L397 107 C397 107 333 72 262 72 C208 72 173 96 173 169 C173 169 173 173 173 176 C384 234 462 295 462 377 C462 432 417 470 338 470 C131 470 22 337 22 158 C22 48 89 -10 188 -10 L188 -10 Z M178 234 C189 301 217 365 246 388 C246 388 262 393 279 393 C299 393 309 380 309 361 C309 321 271 260 178 234 L178 234 Z " />
<glyph glyph-name="ecircumflex" unicode="ê" horiz-adv-x="461" d="M245 515 L347 591 L423 515 L469 536 L398 658 L320 658 L207 536 L245 515 Z M188 -10 C309 -10 401 54 417 65 L423 90 L397 107 C397 107 333 72 262 72 C208 72 173 96 173 169 C173 169 173 173 173 176 C384 234 462 295 462 377 C462 432 417 470 338 470 C131 470 22 337 22 158 C22 48 89 -10 188 -10 L188 -10 Z M178 234 C189 301 217 365 246 388 C246 388 262 393 279 393 C299 393 309 380 309 361 C309 321 271 260 178 234 L178 234 Z " />
<glyph glyph-name="edieresis" unicode="ë" horiz-adv-x="461" d="M451 534 C504 534 553 569 553 618 C553 647 529 668 491 668 C437 668 389 631 389 586 C389 556 412 534 451 534 L451 534 Z M243 534 C296 534 345 569 345 618 C345 647 321 668 283 668 C229 668 181 631 181 586 C181 556 204 534 243 534 L243 534 Z M188 -10 C309 -10 401 54 417 65 L423 90 L397 107 C397 107 333 72 262 72 C208 72 173 96 173 169 C173 169 173 173 173 176 C384 234 462 295 462 377 C462 432 417 470 338 470 C131 470 22 337 22 158 C22 48 89 -10 188 -10 L188 -10 Z M178 234 C189 301 217 365 246 388 C246 388 262 393 279 393 C299 393 309 380 309 361 C309 321 271 260 178 234 L178 234 Z " />
<glyph glyph-name="igrave" unicode="ì" horiz-adv-x="314" d="M228 520 L264 540 L204 673 L126 667 L103 618 L228 520 Z M63 -10 C102 -1 280 22 280 22 L282 63 L244 63 C227 63 215 64 211 69 C211 69 212 102 236 241 C256 354 282 470 282 470 C227 460 66 460 66 460 L56 413 L117 404 C117 404 110 348 92 241 C74 134 50 43 50 28 C50 5 63 -10 63 -10 L63 -10 Z " />
<glyph glyph-name="iacute" unicode="í" horiz-adv-x="314" d="M194 520 L353 618 L348 667 L272 673 L164 540 L194 520 Z M63 -10 C102 -1 280 22 280 22 L282 63 L244 63 C227 63 215 64 211 69 C211 69 212 102 236 241 C256 354 282 470 282 470 C227 460 66 460 66 460 L56 413 L117 404 C117 404 110 348 92 241 C74 134 50 43 50 28 C50 5 63 -10 63 -10 L63 -10 Z " />
<glyph glyph-name="icircumflex" unicode="î" horiz-adv-x="314" d="M135 515 L237 591 L313 515 L359 536 L288 658 L210 658 L97 536 L135 515 Z M63 -10 C102 -1 280 22 280 22 L282 63 L244 63 C227 63 215 64 211 69 C211 69 212 102 236 241 C256 354 282 470 282 470 C227 460 66 460 66 460 L56 413 L117 404 C117 404 110 348 92 241 C74 134 50 43 50 28 C50 5 63 -10 63 -10 L63 -10 Z " />
<glyph glyph-name="idieresis" unicode="ï" horiz-adv-x="314" d="M321 534 C374 534 423 569 423 618 C423 647 399 668 361 668 C307 668 259 631 259 586 C259 556 282 534 321 534 L321 534 Z M113 534 C166 534 215 569 215 618 C215 647 191 668 153 668 C99 668 51 631 51 586 C51 556 74 534 113 534 L113 534 Z M63 -10 C102 -1 280 22 280 22 L282 63 L244 63 C227 63 215 64 211 69 C211 69 212 102 236 241 C256 354 282 470 282 470 C227 460 66 460 66 460 L56 413 L117 404 C117 404 110 348 92 241 C74 134 50 43 50 28 C50 5 63 -10 63 -10 L63 -10 Z " />
<glyph glyph-name="eth" unicode="ð" horiz-adv-x="526" d="M213 -10 C400 -10 505 117 505 319 C505 425 465 516 414 582 L503 642 L497 682 L485 700 L374 625 C341 657 306 678 276 685 L191 663 L175 614 C206 614 253 597 295 571 L247 538 L253 498 L265 480 L346 535 C375 510 396 483 399 456 L399 454 C382 464 344 470 314 470 C123 470 22 338 22 143 C22 48 85 -10 213 -10 L213 -10 Z M239 67 C198 67 173 91 173 150 C173 249 212 355 250 386 C250 386 270 393 288 393 C337 393 354 371 354 310 C354 211 315 103 277 72 C277 72 262 67 239 67 L239 67 Z " />
<glyph glyph-name="ntilde" unicode="ñ" horiz-adv-x="574" d="M415 541 C450 541 521 584 552 626 L551 649 L529 654 C510 629 488 616 454 616 C408 616 389 669 345 669 C304 669 231 611 206 579 L207 558 L230 551 C251 576 278 594 309 594 C336 594 364 541 415 541 L415 541 Z M329 -10 C368 -1 546 22 546 22 L548 63 L510 63 C493 63 479 66 475 71 C475 71 496 172 538 351 C539 357 542 379 542 386 C542 431 522 470 458 470 C365 470 284 394 251 316 L249 316 L272 470 C217 460 66 460 66 460 L55 413 L117 404 C117 404 111 351 92 241 C65 86 43 -2 43 -2 L197 1 C197 1 207 69 218 125 C240 236 282 303 329 351 C329 351 343 357 361 357 C381 357 387 346 387 329 C387 320 385 309 383 300 C361 188 316 43 316 28 C316 5 329 -10 329 -10 L329 -10 Z " />
<glyph glyph-name="ograve" unicode="ò" horiz-adv-x="526" d="M378 520 L414 540 L354 673 L276 667 L253 618 L378 520 Z M213 -10 C400 -10 505 117 505 319 C505 412 432 470 314 470 C123 470 22 338 22 143 C22 48 85 -10 213 -10 L213 -10 Z M239 67 C198 67 173 91 173 150 C173 249 212 355 250 386 C250 386 270 393 288 393 C337 393 354 371 354 310 C354 211 315 103 277 72 C277 72 262 67 239 67 L239 67 Z " />
<glyph glyph-name="oacute" unicode="ó" horiz-adv-x="526" d="M294 520 L453 618 L448 667 L372 673 L264 540 L294 520 Z M213 -10 C400 -10 505 117 505 319 C505 412 432 470 314 470 C123 470 22 338 22 143 C22 48 85 -10 213 -10 L213 -10 Z M239 67 C198 67 173 91 173 150 C173 249 212 355 250 386 C250 386 270 393 288 393 C337 393 354 371 354 310 C354 211 315 103 277 72 C277 72 262 67 239 67 L239 67 Z " />
<glyph glyph-name="ocircumflex" unicode="ô" horiz-adv-x="526" d="M245 515 L347 591 L423 515 L469 536 L398 658 L320 658 L207 536 L245 515 Z M213 -10 C400 -10 505 117 505 319 C505 412 432 470 314 470 C123 470 22 338 22 143 C22 48 85 -10 213 -10 L213 -10 Z M239 67 C198 67 173 91 173 150 C173 249 212 355 250 386 C250 386 270 393 288 393 C337 393 354 371 354 310 C354 211 315 103 277 72 C277 72 262 67 239 67 L239 67 Z " />
<glyph glyph-name="otilde" unicode="õ" horiz-adv-x="526" d="M392 541 C427 541 498 584 529 626 L528 649 L506 654 C487 629 465 616 431 616 C385 616 366 669 322 669 C281 669 208 611 183 579 L184 558 L207 551 C228 576 255 594 286 594 C313 594 341 541 392 541 L392 541 Z M213 -10 C400 -10 505 117 505 319 C505 412 432 470 314 470 C123 470 22 338 22 143 C22 48 85 -10 213 -10 L213 -10 Z M239 67 C198 67 173 91 173 150 C173 249 212 355 250 386 C250 386 270 393 288 393 C337 393 354 371 354 310 C354 211 315 103 277 72 C277 72 262 67 239 67 L239 67 Z " />
<glyph glyph-name="odieresis" unicode="ö" horiz-adv-x="526" d="M446 534 C499 534 548 569 548 618 C548 647 524 668 486 668 C432 668 384 631 384 586 C384 556 407 534 446 534 L446 534 Z M238 534 C291 534 340 569 340 618 C340 647 316 668 278 668 C224 668 176 631 176 586 C176 556 199 534 238 534 L238 534 Z M213 -10 C400 -10 505 117 505 319 C505 412 432 470 314 470 C123 470 22 338 22 143 C22 48 85 -10 213 -10 L213 -10 Z M239 67 C198 67 173 91 173 150 C173 249 212 355 250 386 C250 386 270 393 288 393 C337 393 354 371 354 310 C354 211 315 103 277 72 C277 72 262 67 239 67 L239 67 Z " />
<glyph glyph-name="divide" unicode="÷" horiz-adv-x="620" d="M359 414 C407 414 452 445 460 485 C467 522 443 548 399 548 C350 548 305 517 298 477 C291 439 315 414 359 414 L359 414 Z M97 275 L577 275 L603 331 L607 353 L127 353 L101 297 L97 275 Z M301 83 C349 83 394 114 401 154 C408 192 384 217 340 217 C291 217 247 186 240 146 C233 108 257 83 301 83 L301 83 Z " />
<glyph glyph-name="oslash" unicode="ø" horiz-adv-x="526" d="M58 -13 L90 17 C120 -1 161 -10 213 -10 C400 -10 505 117 505 319 C505 346 499 370 487 391 L518 420 L510 466 L471 470 L439 440 C407 459 365 470 314 470 C123 470 22 338 22 143 C22 111 29 83 43 61 L22 41 L22 -7 L58 -13 Z M175 187 C178 222 185 256 195 286 C210 332 230 370 250 386 C250 386 270 393 288 393 C323 393 341 382 349 354 L175 187 Z M239 67 C211 67 191 78 181 103 L351 263 C348 231 341 199 332 171 C317 125 297 88 277 72 C277 72 262 67 239 67 L239 67 Z " />
<glyph glyph-name="ugrave" unicode="ù" horiz-adv-x="587" d="M368 520 L404 540 L344 673 L266 667 L243 618 L368 520 Z M138 -10 C231 -10 316 66 349 144 L351 144 C351 144 324 43 324 28 C324 5 337 -10 337 -10 C376 -1 554 22 554 22 L556 63 L518 63 C501 63 489 64 485 69 C485 69 489 108 508 219 C535 374 557 462 557 462 L403 459 C403 459 393 391 382 335 C360 224 318 157 271 109 C271 109 253 103 235 103 C215 103 209 114 209 131 C209 140 211 151 213 160 C235 272 290 455 290 470 C235 460 74 460 74 460 L64 413 L125 404 C125 404 100 288 58 109 C57 103 54 81 54 74 C54 29 74 -10 138 -10 L138 -10 Z " />
<glyph glyph-name="uacute" unicode="ú" horiz-adv-x="587" d="M334 520 L493 618 L488 667 L412 673 L304 540 L334 520 Z M138 -10 C231 -10 316 66 349 144 L351 144 C351 144 324 43 324 28 C324 5 337 -10 337 -10 C376 -1 554 22 554 22 L556 63 L518 63 C501 63 489 64 485 69 C485 69 489 108 508 219 C535 374 557 462 557 462 L403 459 C403 459 393 391 382 335 C360 224 318 157 271 109 C271 109 253 103 235 103 C215 103 209 114 209 131 C209 140 211 151 213 160 C235 272 290 455 290 470 C235 460 74 460 74 460 L64 413 L125 404 C125 404 100 288 58 109 C57 103 54 81 54 74 C54 29 74 -10 138 -10 L138 -10 Z " />
<glyph glyph-name="ucircumflex" unicode="û" horiz-adv-x="587" d="M275 515 L377 591 L453 515 L499 536 L428 658 L350 658 L237 536 L275 515 Z M138 -10 C231 -10 316 66 349 144 L351 144 C351 144 324 43 324 28 C324 5 337 -10 337 -10 C376 -1 554 22 554 22 L556 63 L518 63 C501 63 489 64 485 69 C485 69 489 108 508 219 C535 374 557 462 557 462 L403 459 C403 459 393 391 382 335 C360 224 318 157 271 109 C271 109 253 103 235 103 C215 103 209 114 209 131 C209 140 211 151 213 160 C235 272 290 455 290 470 C235 460 74 460 74 460 L64 413 L125 404 C125 404 100 288 58 109 C57 103 54 81 54 74 C54 29 74 -10 138 -10 L138 -10 Z " />
<glyph glyph-name="udieresis" unicode="ü" horiz-adv-x="587" d="M461 534 C514 534 563 569 563 618 C563 647 539 668 501 668 C447 668 399 631 399 586 C399 556 422 534 461 534 L461 534 Z M253 534 C306 534 355 569 355 618 C355 647 331 668 293 668 C239 668 191 631 191 586 C191 556 214 534 253 534 L253 534 Z M138 -10 C231 -10 316 66 349 144 L351 144 C351 144 324 43 324 28 C324 5 337 -10 337 -10 C376 -1 554 22 554 22 L556 63 L518 63 C501 63 489 64 485 69 C485 69 489 108 508 219 C535 374 557 462 557 462 L403 459 C403 459 393 391 382 335 C360 224 318 157 271 109 C271 109 253 103 235 103 C215 103 209 114 209 131 C209 140 211 151 213 160 C235 272 290 455 290 470 C235 460 74 460 74 460 L64 413 L125 404 C125 404 100 288 58 109 C57 103 54 81 54 74 C54 29 74 -10 138 -10 L138 -10 Z " />
<glyph glyph-name="yacute" unicode="ý" horiz-adv-x="586" d="M344 520 L503 618 L498 667 L422 673 L314 540 L344 520 Z M161 -230 C290 -230 439 -165 461 -44 C461 -44 489 108 508 219 C535 374 557 462 557 462 L403 459 C403 459 393 391 382 335 C360 224 318 157 271 109 C271 109 253 103 235 103 C215 103 209 114 209 131 C209 140 211 151 213 160 C235 272 290 455 290 470 C235 460 74 460 74 460 L64 413 L125 404 C125 404 100 288 58 109 C57 103 54 81 54 74 C54 29 74 -10 138 -10 C231 -10 319 66 352 144 L354 144 L322 -36 C310 -102 261 -141 261 -141 C261 -141 228 -149 209 -149 C146 -149 88 -89 88 -89 L45 -114 L25 -184 C25 -184 74 -230 161 -230 L161 -230 Z " />
<glyph glyph-name="thorn" unicode="þ" horiz-adv-x="641" d="M244 -235 L258 -189 L193 -173 C193 -173 194 -144 218 -4 C218 -4 262 -10 329 -10 C493 -10 608 123 628 237 C655 394 572 470 465 470 C395 470 330 443 291 399 L289 399 C329 622 348 710 348 710 C293 700 133 700 133 700 L122 653 L184 644 C184 644 178 582 126 287 C51 -137 40 -172 40 -172 L-17 -184 L-28 -230 L107 -230 C187 -230 244 -235 244 -235 L244 -235 Z M337 57 C268 57 237 87 237 87 C237 87 239 108 247 156 C268 279 277 319 282 337 C287 352 296 368 296 368 C296 368 334 391 394 391 C445 391 500 361 477 232 C461 143 418 85 390 67 C390 67 353 57 337 57 L337 57 Z " />
<glyph glyph-name="ydieresis" unicode="ÿ" horiz-adv-x="586" d="M458 534 C511 534 560 569 560 618 C560 647 536 668 498 668 C444 668 396 631 396 586 C396 556 419 534 458 534 L458 534 Z M250 534 C303 534 352 569 352 618 C352 647 328 668 290 668 C236 668 188 631 188 586 C188 556 211 534 250 534 L250 534 Z M161 -230 C290 -230 439 -165 461 -44 C461 -44 489 108 508 219 C535 374 557 462 557 462 L403 459 C403 459 393 391 382 335 C360 224 318 157 271 109 C271 109 253 103 235 103 C215 103 209 114 209 131 C209 140 211 151 213 160 C235 272 290 455 290 470 C235 460 74 460 74 460 L64 413 L125 404 C125 404 100 288 58 109 C57 103 54 81 54 74 C54 29 74 -10 138 -10 C231 -10 319 66 352 144 L354 144 L322 -36 C310 -102 261 -141 261 -141 C261 -141 228 -149 209 -149 C146 -149 88 -89 88 -89 L45 -114 L25 -184 C25 -184 74 -230 161 -230 L161 -230 Z " />
<glyph glyph-name="dotlessi" unicode="ı" horiz-adv-x="314" d="M63 -10 C102 -1 280 22 280 22 L282 63 L244 63 C227 63 215 64 211 69 C211 69 212 102 236 241 C256 354 282 470 282 470 C227 460 66 460 66 460 L56 413 L117 404 C117 404 110 348 92 241 C74 134 50 43 50 28 C50 5 63 -10 63 -10 L63 -10 Z " />
<glyph glyph-name="Lslash" unicode="Ł" horiz-adv-x="595" d="M23 0 L555 0 C560 26 601 166 601 166 L555 169 L504 72 L255 65 L250 67 C250 67 249 91 287 309 L411 414 L412 465 L379 481 L307 421 C333 559 341 582 341 582 L398 594 L408 640 L271 640 C198 640 133 645 133 645 L119 599 L183 583 C183 583 182 552 144 337 C140 313 136 292 133 272 L24 180 L23 129 L56 113 L112 161 C95 74 90 58 90 58 L33 46 L23 0 Z " />
<glyph glyph-name="lslash" unicode="ł" horiz-adv-x="314" d="M63 -10 C102 -1 280 22 280 22 L282 63 L244 63 C227 63 215 64 211 69 C211 69 207 69 246 296 L370 401 L371 452 L338 468 L265 406 C300 598 324 710 324 710 C269 700 108 700 108 700 L99 653 L159 644 C159 644 127 465 95 262 L-17 167 L-18 116 L15 100 L74 150 C56 57 50 38 50 28 C50 5 63 -10 63 -10 L63 -10 Z " />
<glyph glyph-name="OE" unicode="Œ" horiz-adv-x="1053" d="M361 -5 C428 -5 525 0 574 0 L969 0 C974 26 1015 166 1015 166 L969 169 L918 72 L670 65 L664 67 C664 67 664 98 700 298 L885 295 L894 220 L941 223 C941 223 946 285 954 332 C962 379 977 427 977 427 L931 430 L897 365 L711 361 C743 546 753 572 753 572 L764 574 L992 568 L979 471 L1027 474 L1079 640 L687 640 C646 640 547 645 496 645 C273 645 107 511 72 310 C37 111 129 -5 361 -5 L361 -5 Z M411 62 C287 62 197 146 228 324 C251 458 295 522 350 561 C350 561 414 578 473 578 C528 578 590 565 590 565 L594 559 C594 559 587 501 558 337 C528 167 508 76 508 76 C508 76 475 62 411 62 L411 62 Z " />
<glyph glyph-name="oe" unicode="œ" horiz-adv-x="880" d="M255 -10 C329 -10 392 11 443 50 L445 50 C479 10 535 -10 606 -10 C711 -10 787 25 804 35 L809 62 L786 83 C786 83 718 62 659 62 C585 62 540 111 554 217 L826 217 L856 249 C882 397 815 470 698 470 C628 470 567 449 518 410 L516 410 C483 449 430 470 356 470 C204 470 82 376 56 231 C30 86 93 -10 255 -10 L255 -10 Z M567 280 C583 348 603 377 623 395 C629 397 651 401 662 401 C715 401 732 364 718 285 L567 280 Z M282 57 C220 57 185 113 207 241 C221 322 253 378 264 388 C264 388 293 403 329 403 C398 403 428 356 404 219 C390 138 359 82 347 72 C347 72 317 57 282 57 L282 57 Z " />
<glyph glyph-name="Scaron" unicode="Š" horiz-adv-x="518" d="M333 686 L411 686 L524 808 L486 829 L384 753 L308 829 L262 808 L333 686 Z M178 -10 C332 -10 476 49 501 190 C516 274 452 341 343 391 C239 439 225 468 232 509 C240 553 290 581 369 581 C400 581 444 559 444 559 L447 481 L494 484 C494 484 527 616 534 638 C534 638 463 650 380 650 C226 650 118 572 100 465 C81 355 136 309 217 268 C319 217 352 189 343 137 C334 84 265 57 204 57 C149 57 103 79 103 79 L100 157 L52 154 C52 154 20 22 12 0 C12 0 88 -10 178 -10 L178 -10 Z " />
<glyph glyph-name="scaron" unicode="š" horiz-adv-x="433" d="M260 542 L338 542 L451 664 L413 685 L310 609 L235 685 L189 664 L260 542 Z M170 -10 C312 -10 418 50 418 150 C418 224 358 266 282 298 C245 313 228 331 228 364 C228 385 247 409 255 414 C255 414 272 420 300 420 C334 420 365 394 365 394 L369 308 L417 311 C417 311 445 423 453 445 C453 445 381 470 306 470 C180 470 82 416 82 325 C82 261 132 214 191 187 C250 160 266 143 266 101 C266 82 255 59 242 50 C242 50 224 40 178 40 C123 40 101 70 101 70 L97 152 L49 149 C49 149 21 37 13 15 C13 15 97 -10 170 -10 L170 -10 Z " />
<glyph glyph-name="Ydieresis" unicode="Ÿ" horiz-adv-x="670" d="M557 690 C605 690 650 721 657 761 C664 799 640 824 596 824 C547 824 503 793 496 753 C489 715 513 690 557 690 L557 690 Z M349 690 C397 690 442 721 449 761 C456 799 432 824 388 824 C339 824 295 793 288 753 C281 715 305 690 349 690 L349 690 Z M461 -5 L475 41 L411 57 C411 57 412 86 428 179 L449 302 L705 590 L754 599 L765 645 C765 645 710 640 669 640 L583 640 L573 594 L618 589 L415 353 L413 353 L315 587 L376 594 L386 640 L234 640 C147 640 98 645 98 645 L84 599 L132 588 L295 269 L280 179 C266 94 253 58 253 58 L196 46 L186 0 L323 0 C396 0 461 -5 461 -5 L461 -5 Z " />
<glyph glyph-name="Zcaron" unicode="Ž" horiz-adv-x="655" d="M393 686 L471 686 L584 808 L546 829 L444 753 L368 829 L322 808 L393 686 Z M35 0 L610 0 C610 22 626 166 626 166 L580 169 L549 72 L216 67 L683 596 L669 640 L124 640 C124 618 108 477 108 477 L155 474 L185 568 L484 576 L17 53 L35 0 Z " />
<glyph glyph-name="zcaron" unicode="ž" horiz-adv-x="529" d="M310 542 L388 542 L501 664 L463 685 L360 609 L285 685 L239 664 L310 542 Z M46 0 L467 0 C467 22 478 134 478 134 L431 137 L403 58 L217 53 L537 408 L524 460 L110 460 C110 438 99 326 99 326 L146 323 L174 402 L365 410 L28 51 L46 0 Z " />
<glyph glyph-name="florin" unicode="ƒ" horiz-adv-x="620" d="M-7 -237 C118 -188 252 -91 286 37 C286 37 309 142 336 241 L358 323 L526 320 L558 354 L563 378 L373 378 L412 525 C433 603 467 630 467 630 C467 630 502 635 517 635 C578 635 610 580 610 580 L653 601 L667 668 C657 682 585 700 518 700 C421 700 297 634 265 514 L229 378 L95 378 L81 327 L214 325 L139 37 C110 -74 68 -154 -22 -211 L-7 -237 Z " />
<glyph glyph-name="circumflex" unicode="ˆ" horiz-adv-x="510" d="M235 515 L337 591 L413 515 L459 536 L388 658 L310 658 L197 536 L235 515 Z " />
<glyph glyph-name="caron" unicode="ˇ" horiz-adv-x="510" d="M290 542 L368 542 L481 664 L443 685 L340 609 L265 685 L219 664 L290 542 Z " />
<glyph glyph-name="breve" unicode="˘" horiz-adv-x="419" d="M283 519 C356 519 416 576 426 633 L353 621 C345 579 323 561 293 561 C268 561 251 591 258 627 L184 615 C174 554 213 519 283 519 L283 519 Z " />
<glyph glyph-name="dotaccent" unicode="˙" horiz-adv-x="314" d="M204 534 C257 534 306 572 306 616 C306 646 283 668 244 668 C190 668 142 630 142 586 C142 556 165 534 204 534 L204 534 Z " />
<glyph glyph-name="ring" unicode="˚" horiz-adv-x="509" d="M327 499 C391 499 460 556 460 625 C460 674 422 699 370 699 C307 699 237 643 237 574 C237 525 275 499 327 499 L327 499 Z M341 561 C328 561 319 579 319 592 C319 616 335 637 356 637 C369 637 378 623 378 607 C378 580 362 561 341 561 L341 561 Z " />
<glyph glyph-name="ogonek" unicode="˛" horiz-adv-x="475" d="M219 -177 L297 -171 L319 -122 L195 -24 L158 -44 L219 -177 Z " />
<glyph glyph-name="tilde" unicode="˜" horiz-adv-x="509" d="M395 541 C430 541 501 584 532 626 L531 649 L509 654 C490 629 468 616 434 616 C388 616 369 669 325 669 C284 669 211 611 186 579 L187 558 L210 551 C231 576 258 594 289 594 C316 594 344 541 395 541 L395 541 Z " />
<glyph glyph-name="hungarumlaut" unicode="˝" horiz-adv-x="510" d="M268 562 L408 687 L392 732 L314 722 L233 575 L268 562 Z M334 531 L503 603 L507 654 L436 673 L310 556 L334 531 Z " />
<glyph glyph-name="pi" unicode="π" horiz-adv-x="541" d="M253 -10 C440 -10 545 117 545 319 C545 412 490 470 398 470 C333 470 279 440 250 399 L248 399 L314 710 C259 700 98 700 98 700 L91 673 L152 664 C152 664 91 351 72 241 C45 86 23 -2 23 -2 L177 1 C177 1 184 70 212 198 C237 314 289 375 289 375 C289 375 317 393 360 393 C377 393 394 375 394 319 C394 211 351 104 317 75 C317 75 293 67 270 67 C229 67 160 99 126 146 C126 146 49 59 63 42 C85 16 160 -10 253 -10 L253 -10 Z " />
<glyph glyph-name="endash" unicode="–" horiz-adv-x="355" d="M21 233 L345 233 L360 256 L366 288 L42 288 L25 255 L21 233 Z " />
<glyph glyph-name="emdash" unicode="—" horiz-adv-x="539" d="M21 233 L529 233 L544 256 L550 288 L42 288 L25 255 L21 233 Z " />
<glyph glyph-name="quoteleft" unicode="‘" horiz-adv-x="252" d="M275 362 L288 394 C225 415 192 457 199 499 C206 540 275 550 283 565 C293 624 259 650 213 650 C169 650 113 621 101 550 C81 434 216 373 275 362 L275 362 Z " />
<glyph glyph-name="quoteright" unicode="’" horiz-adv-x="252" d="M63 362 C126 373 283 434 303 550 C315 621 271 650 227 650 C181 650 137 624 127 565 C129 550 194 540 187 499 C180 457 131 415 60 394 L63 362 Z " />
<glyph glyph-name="quotesinglbase" unicode="‚" horiz-adv-x="252" d="M-3 -10 C60 1 217 62 237 178 C249 249 205 278 161 278 C115 278 71 252 61 193 C63 178 128 168 121 127 C114 85 66 43 -5 22 L-3 -10 Z " />
<glyph glyph-name="quotedblleft" unicode="“" horiz-adv-x="452" d="M475 362 L488 394 C425 415 392 457 399 499 C406 540 475 550 483 565 C493 624 459 650 413 650 C369 650 313 621 301 550 C281 434 416 373 475 362 L475 362 Z M274 362 L287 394 C224 415 191 457 198 499 C205 540 274 550 282 565 C292 624 258 650 212 650 C168 650 112 621 100 550 C80 434 215 373 274 362 L274 362 Z " />
<glyph glyph-name="quotedblright" unicode="”" horiz-adv-x="452" d="M264 362 C327 373 484 434 504 550 C516 621 472 650 428 650 C382 650 338 624 328 565 C330 550 395 540 388 499 C381 457 332 415 261 394 L264 362 Z M63 362 C126 373 283 434 303 550 C315 621 271 650 227 650 C181 650 137 624 127 565 C129 550 194 540 187 499 C180 457 131 415 60 394 L63 362 Z " />
<glyph glyph-name="quotedblbase" unicode="„" horiz-adv-x="452" d="M198 -10 C261 1 418 62 438 178 C450 249 406 278 362 278 C316 278 272 252 262 193 C264 178 329 168 322 127 C315 85 267 43 196 22 L198 -10 Z M-3 -10 C60 1 217 62 237 178 C249 249 205 278 161 278 C115 278 71 252 61 193 C63 178 128 168 121 127 C114 85 66 43 -5 22 L-3 -10 Z " />
<glyph glyph-name="dagger" unicode="†" horiz-adv-x="506" d="M176 -160 L234 -160 L375 390 L524 372 L554 398 L555 460 L369 460 L420 640 L272 640 L259 460 L73 460 L52 398 L74 372 L229 390 L176 -160 Z " />
<glyph glyph-name="daggerdbl" unicode="‡" horiz-adv-x="506" d="M127 -180 L275 -180 L288 0 L474 0 L495 62 L474 88 L318 70 L317 230 L375 390 L524 372 L554 398 L555 460 L369 460 L420 640 L272 640 L259 460 L73 460 L52 398 L74 372 L229 390 L231 230 L172 70 L24 88 L-7 62 L-8 0 L178 0 L127 -180 Z " />
<glyph glyph-name="bullet" unicode="•" horiz-adv-x="485" d="M238 54 C309 54 359 78 359 78 C359 78 451 170 451 281 C451 380 390 426 299 426 C228 426 178 402 178 402 C178 402 86 315 86 201 C86 100 154 54 238 54 L238 54 Z " />
<glyph glyph-name="ellipsis" unicode="…" horiz-adv-x="728" d="M570 -5 C618 -5 664 26 671 66 C677 101 654 129 610 129 C561 129 516 98 509 58 C503 23 526 -5 570 -5 L570 -5 Z M328 -5 C376 -5 422 26 429 66 C434 95 411 129 368 129 C319 129 274 98 267 58 C261 23 284 -5 328 -5 L328 -5 Z M86 -5 C134 -5 180 26 187 66 C193 101 170 129 126 129 C77 129 32 98 25 58 C19 23 42 -5 86 -5 L86 -5 Z " />
<glyph glyph-name="perthousand" unicode="‰" horiz-adv-x="996" d="M202 332 C298 332 378 383 395 480 C412 577 362 630 264 630 C173 630 89 586 71 482 C54 383 108 332 202 332 L202 332 Z M62 0 L659 570 L664 600 L621 620 L36 54 L24 24 L62 0 Z M779 -10 C875 -10 955 41 972 138 C989 235 940 288 842 288 C751 288 667 244 649 140 C632 41 685 -10 779 -10 L779 -10 Z M419 -10 C515 -10 595 41 612 138 C629 235 580 288 482 288 C391 288 307 244 289 140 C272 41 325 -10 419 -10 L419 -10 Z M216 382 C169 382 157 422 169 488 C180 546 208 573 208 573 C208 573 231 580 249 580 C296 580 308 540 297 474 C288 418 255 389 255 389 C255 389 235 382 216 382 L216 382 Z M794 40 C747 40 735 80 747 146 C758 204 786 231 786 231 C786 231 809 238 827 238 C874 238 886 198 874 132 C864 76 832 47 832 47 C832 47 813 40 794 40 L794 40 Z M434 40 C387 40 375 80 387 146 C398 204 426 231 426 231 C426 231 449 238 467 238 C514 238 526 198 514 132 C504 76 472 47 472 47 C472 47 453 40 434 40 L434 40 Z " />
<glyph glyph-name="guilsinglleft" unicode="‹" horiz-adv-x="248" d="M159 55 L201 60 L208 77 L139 226 L260 375 L259 392 L219 397 L50 245 L44 207 L159 55 Z " />
<glyph glyph-name="guilsinglright" unicode="›" horiz-adv-x="248" d="M69 55 L238 207 L244 245 L129 397 L87 392 L80 375 L149 226 L28 77 L29 60 L69 55 Z " />
<glyph glyph-name="fraction" unicode="⁄" horiz-adv-x="579" d="M2 0 L44 0 L661 616 L653 640 L607 640 L-5 28 L2 0 Z " />
<glyph glyph-name="Euro" unicode="€" horiz-adv-x="620" d="M347 82 C452 82 529 117 545 127 L550 154 L527 175 C527 175 459 154 400 154 C346 154 307 180 296 236 L395 236 L421 274 L425 296 L294 296 C295 304 296 312 297 320 C298 325 299 331 300 336 L470 336 L497 374 L501 396 L322 396 C342 439 370 470 393 484 C393 484 419 492 454 492 C490 492 527 475 527 475 L530 395 L577 398 C577 398 609 530 617 552 C617 552 526 562 460 562 C323 562 220 501 171 396 L95 396 L72 358 L68 336 L150 336 C148 329 148 322 146 315 C144 308 143 302 142 296 L77 296 L54 258 L51 236 L143 236 C154 135 233 82 347 82 L347 82 Z " />
<glyph glyph-name="trademark" unicode="™" horiz-adv-x="985" d="M574 266 L583 300 L539 311 L572 466 C585 525 599 570 599 570 L600 570 L679 270 L718 270 L903 570 L904 570 L893 466 C881 354 872 311 872 311 L831 303 L825 270 L923 270 C958 270 991 266 991 266 L1003 300 L957 311 L971 466 C978 547 990 598 990 598 L1030 607 L1037 640 L939 640 L899 640 L729 378 L728 378 L666 640 L603 640 C577 640 527 643 527 643 L516 610 L560 599 L530 466 C504 353 491 311 491 311 L450 303 L444 270 L516 270 C546 270 574 266 574 266 L574 266 Z M321 266 L331 300 L286 311 C286 311 284 321 304 432 C331 582 337 599 337 599 L442 595 L434 532 L468 535 L503 640 L116 640 C113 622 92 535 92 535 L126 532 L154 595 L248 600 L252 599 C252 599 252 579 226 432 C207 324 201 311 201 311 L161 303 L155 270 L237 270 C277 270 321 266 321 266 L321 266 Z " />
<glyph glyph-name="partialdiff" unicode="∂" horiz-adv-x="526" d="M213 -10 C400 -10 505 117 505 319 C505 517 365 664 276 685 L191 663 L175 614 C244 614 391 529 399 454 L397 454 C380 464 344 470 314 470 C123 470 22 338 22 143 C22 48 85 -10 213 -10 L213 -10 Z M239 67 C198 67 173 91 173 150 C173 249 212 355 250 386 C250 386 270 393 288 393 C337 393 354 371 354 310 C354 211 315 103 277 72 C277 72 262 67 239 67 L239 67 Z " />
<glyph glyph-name="minus" unicode="−" horiz-adv-x="620" d="M97 275 L577 275 L603 331 L607 353 L127 353 L101 297 L97 275 Z " />
<glyph glyph-name="infinity" unicode="∞" horiz-adv-x="1010" d="M544 420 C452 420 385 364 359 310 C317 337 279 360 253 360 C186 360 72 262 53 235 L53 209 L79 202 C95 220 149 264 200 264 C284 264 402 130 508 130 C601 130 667 185 692 239 C734 213 772 190 799 190 C866 190 980 288 999 315 L999 341 L973 348 C957 330 903 286 852 286 C768 286 650 420 544 420 L544 420 Z M542 229 C498 229 448 255 401 284 C420 309 454 321 510 321 C554 321 603 295 651 266 C631 240 597 229 542 229 L542 229 Z " />
<glyph glyph-name="integral" unicode="∫" horiz-adv-x="620" d="M-7 -237 C118 -188 252 -91 286 37 C286 37 309 142 336 241 L412 525 C433 603 467 630 467 630 C467 630 502 635 517 635 C578 635 610 580 610 580 L653 601 L667 668 C657 682 585 700 518 700 C421 700 297 634 265 514 L139 37 C110 -74 68 -154 -22 -211 L-7 -237 Z " />
<glyph glyph-name="lessequal" unicode="≤" horiz-adv-x="811" d="M783 243 C783 327 738 366 698 366 C670 366 652 349 652 324 C652 308 665 288 680 286 C700 283 729 270 729 239 C729 219 717 198 689 198 C651 198 615 234 605 329 C596 412 551 462 480 462 C394 462 363 386 363 322 L353 322 C269 479 144 555 54 555 C27 555 5 539 5 514 C5 486 26 471 48 471 C100 471 176 473 258 407 L258 397 C251 400 232 409 205 409 C120 409 69 346 69 278 C69 209 116 188 142 188 C171 188 197 213 198 242 C183 247 161 265 161 299 C161 346 191 369 233 369 C278 369 314 341 343 296 L343 286 C311 272 270 231 270 163 C270 64 350 -12 485 -12 C651 -12 783 100 783 243 L783 243 Z " />
<glyph glyph-name="greaterequal" unicode="≥" horiz-adv-x="811" d="M28 243 C28 100 160 -12 326 -12 C461 -12 538 64 538 163 C538 231 500 272 468 286 L468 296 C497 341 533 369 578 369 C620 369 650 346 650 299 C650 265 628 247 613 242 C614 213 640 188 669 188 C695 188 742 209 742 278 C742 346 691 409 606 409 C579 409 560 400 553 397 L553 407 C635 473 711 471 763 471 C785 471 806 486 806 514 C806 539 784 555 757 555 C667 555 542 479 458 322 L448 322 C448 386 417 462 331 462 C260 462 215 412 206 329 C196 234 160 198 122 198 C94 198 82 219 82 239 C82 270 111 283 131 286 C146 288 159 308 159 324 C159 349 141 366 113 366 C73 366 28 327 28 243 L28 243 Z " />
<glyph glyph-name="fi" unicode="ﬁ" horiz-adv-x="656" d="M405 -10 C444 -1 622 22 622 22 L624 63 L586 63 C569 63 557 64 553 69 C553 69 554 102 578 241 C598 354 624 470 624 470 C569 460 408 460 408 460 L268 460 L280 525 C290 580 319 611 319 611 C319 611 349 626 368 626 C405 622 433 598 433 598 L471 618 L487 685 C487 685 445 700 409 700 C268 700 156 635 134 514 L124 460 L56 460 L41 399 L113 397 L40 10 C12 -139 -40 -232 -40 -232 L115 -229 C115 -229 157 -162 187 6 L257 395 L457 392 C454 371 447 320 434 241 C416 134 392 43 392 28 C392 5 405 -10 405 -10 L405 -10 Z M546 534 C599 534 648 572 648 616 C648 646 625 668 586 668 C532 668 484 630 484 586 C484 556 507 534 546 534 L546 534 Z " />
<glyph glyph-name="fl" unicode="ﬂ" horiz-adv-x="719" d="M-40 -232 L115 -229 C115 -229 157 -162 187 6 L257 395 L335 392 L368 431 L373 460 L268 460 L280 525 C290 580 319 611 319 611 C319 611 349 626 368 626 C453 620 503 595 503 595 C503 595 504 572 463 337 C417 76 404 43 404 28 C404 5 417 -10 417 -10 C456 -1 634 22 634 22 L636 63 L598 63 C581 63 569 64 565 69 C565 69 560 69 607 337 C648 571 678 710 678 710 C678 710 602 700 409 700 C268 700 156 635 134 514 L124 460 L56 460 L41 399 L113 397 L40 10 C12 -139 -40 -232 -40 -232 L-40 -232 Z " />
<glyph glyph-name="st" unicode="ﬆ" horiz-adv-x="844" d="M170 -10 C312 -10 418 50 418 150 C418 224 358 266 282 298 C245 313 228 331 228 364 C228 385 247 409 255 414 C255 414 272 420 300 420 C334 420 365 394 365 394 L369 308 L417 311 C417 311 443 418 451 440 C430 450 424 451 376 465 C327 479 313 503 308 542 C321 569 350 593 402 593 C465 593 507 551 573 551 C588 551 605 553 610 557 L612 557 C601 537 585 496 579 460 L499 460 L484 399 L568 397 C564 369 511 114 511 82 C511 35 547 -10 634 -10 C688 -10 821 45 821 45 L828 73 L801 98 C801 98 749 73 717 73 C688 73 668 94 668 129 C668 185 716 395 716 395 L816 392 L852 431 L854 460 L727 460 L740 514 C747 553 768 588 795 614 L717 688 C696 668 631 635 580 635 C537 635 470 656 413 656 C335 656 269 604 269 544 C269 512 284 484 307 472 L307 470 C179 469 82 415 82 325 C82 261 132 214 191 187 C250 160 266 143 266 101 C266 82 255 59 242 50 C242 50 224 40 178 40 C123 40 101 70 101 70 L97 152 L49 149 C49 149 21 37 13 15 C13 15 97 -10 170 -10 L170 -10 Z " />
</font>
</svg>
