<?xml version="1.0" encoding="UTF-8"?>
<svg xmlns="http://www.w3.org/2000/svg" xmlns:xlink="http://www.w3.org/1999/xlink" version="1.2">
<font id="URWPalladioTOT Italic">
<font-face font-family="URWPalladioTOT" units-per-em="1000" ascent="700" descent="-276" font-style="italic" font-weight="400" font-stretch="normal" slope="-10" cap-height="668" x-height="457" underline-position="-82" underline-thickness="44" />
<missing-glyph horiz-adv-x="250" d="" />
<glyph glyph-name="NULL" d="" />
<glyph glyph-name="CR" unicode="&#xD;" horiz-adv-x="250" d="" />
<glyph glyph-name="space" unicode=" " horiz-adv-x="250" d="" />
<glyph glyph-name="exclam" unicode="!" horiz-adv-x="292" d="M266 686 C244 678 225 671 190 662 C182 555 152 320 130 188 L137 184 C150 192 152 193 165 199 C194 337 254 596 278 678 L266 686 Z M133 98 C102 98 76 68 76 31 C76 2 93 -17 119 -17 C151 -17 175 13 175 52 C175 80 158 98 133 98 L133 98 Z " />
<glyph glyph-name="quotedbl" unicode="&quot;" horiz-adv-x="332" d="M151 419 L201 573 C210 601 215 622 215 632 C215 659 199 676 175 676 C136 676 116 644 113 576 L106 419 L151 419 Z M294 419 L343 573 C351 598 357 622 357 632 C357 658 341 676 318 676 C278 676 258 644 255 576 L248 419 L294 419 Z " />
<glyph glyph-name="numbersign" unicode="#" horiz-adv-x="498" d="M84 0 L118 0 L164 158 L261 158 L215 0 L248 0 L294 158 L374 158 L392 218 L312 218 L386 471 L461 471 L479 531 L403 531 L443 666 L409 666 L370 531 L272 531 L312 666 L279 666 L239 531 L155 531 L138 471 L221 471 L148 218 L68 218 L51 158 L130 158 L84 0 Z M181 218 L255 471 L352 471 L279 218 L181 218 Z " />
<glyph glyph-name="dollar" unicode="$" horiz-adv-x="498" d="M70 174 C66 109 60 73 47 37 C90 8 135 -5 199 -7 C194 -38 192 -47 191 -52 C189 -64 187 -71 180 -104 L219 -104 C221 -91 225 -58 233 -5 C288 4 322 16 355 41 C412 83 449 154 449 221 C449 266 429 304 391 329 C368 345 341 355 287 369 L325 617 C369 610 391 600 413 572 C414 564 414 557 414 554 C414 549 414 538 413 520 C412 517 412 509 412 501 L436 500 C445 554 449 576 460 620 C429 645 397 653 331 656 C335 680 339 701 343 717 L307 717 L303 682 C302 676 301 666 299 653 C170 626 104 561 104 459 C104 375 147 329 248 307 L205 32 C157 39 122 57 98 88 C97 101 96 114 96 118 L96 148 L96 173 L70 174 Z M256 376 C195 398 168 432 168 488 C168 530 184 566 214 590 C234 606 254 613 292 618 L256 376 Z M279 299 C347 283 375 251 375 189 C375 142 358 97 330 68 C308 46 284 36 238 30 L279 299 Z " />
<glyph glyph-name="percent" unicode="%" horiz-adv-x="719" d="M259 658 C175 658 108 580 108 484 C108 406 153 357 224 357 C309 357 377 439 377 541 C377 612 330 658 259 658 L259 658 Z M263 637 C294 637 312 613 312 570 C312 528 300 473 284 434 C267 396 245 376 219 376 C189 376 171 404 171 452 C171 488 185 553 200 584 C216 619 237 637 263 637 L263 637 Z M196 60 L165 7 C158 -4 148 -19 132 -41 C154 -39 156 -39 160 -39 C166 -39 172 -39 184 -41 C185 -37 189 -28 197 -13 L568 611 C597 656 598 658 622 690 C607 689 606 689 603 689 C596 689 589 689 572 691 C570 684 564 672 556 658 L196 60 Z M530 291 C446 291 379 213 379 117 C379 39 424 -10 495 -10 C580 -10 648 72 648 174 C648 245 601 291 530 291 L530 291 Z M534 270 C565 270 583 246 583 203 C583 161 571 106 555 67 C538 29 516 9 490 9 C460 9 442 37 442 85 C442 121 456 186 471 217 C487 252 508 270 534 270 L534 270 Z " />
<glyph glyph-name="ampersand" unicode="&amp;" horiz-adv-x="782" d="M412 204 C421 246 422 251 429 260 C441 278 461 287 486 287 C534 287 566 256 566 207 C566 107 475 32 352 32 C241 32 163 99 163 195 C163 296 239 365 351 365 C361 365 370 365 387 363 C395 388 395 389 405 412 C371 412 363 413 343 419 C299 434 273 471 273 518 C273 584 321 630 389 630 C425 630 445 621 475 595 C476 575 476 567 476 538 L498 538 C507 587 510 602 522 651 C488 670 467 676 430 676 C313 676 206 585 206 486 C206 437 229 406 282 383 C228 365 198 352 173 335 C113 295 83 242 83 177 C83 66 174 -10 308 -10 C475 -10 637 106 637 227 C637 271 616 294 566 305 C646 313 657 315 686 325 C735 343 762 380 762 427 C762 464 747 488 708 515 L687 499 C715 483 725 470 725 447 C725 416 705 393 665 381 C631 370 596 364 515 356 C444 348 422 339 397 306 C396 287 394 254 391 208 L412 204 Z " />
<glyph glyph-name="quotesingle" unicode="'" horiz-adv-x="190" d="M151 419 L201 573 C210 601 215 622 215 632 C215 659 199 676 175 676 C136 676 116 644 113 576 L106 419 L151 419 Z " />
<glyph glyph-name="parenleft" unicode="(" horiz-adv-x="315" d="M217 -189 C169 -82 150 11 150 138 C150 370 226 570 370 722 L355 740 C167 585 75 405 75 192 C75 49 112 -69 201 -204 L217 -189 Z " />
<glyph glyph-name="parenright" unicode=")" horiz-adv-x="315" d="M110 726 C158 617 177 525 177 398 C177 166 101 -34 -43 -186 L-28 -204 C160 -49 252 131 252 345 C252 487 215 604 126 740 L110 726 Z " />
<glyph glyph-name="asterisk" unicode="*" horiz-adv-x="433" d="M166 403 L263 497 C271 458 279 402 282 362 L289 356 C315 372 321 375 345 385 L346 391 C326 430 305 469 285 507 C332 501 345 500 354 498 C376 495 380 495 421 488 L427 493 C423 515 423 515 420 550 L414 554 L284 531 C316 595 327 614 352 657 L351 665 C330 670 317 674 293 683 L284 678 L263 540 C203 604 198 610 169 643 L161 643 C148 619 143 611 129 591 L133 581 L251 520 C228 507 177 484 133 466 L130 460 C141 441 142 438 155 404 L166 403 Z " />
<glyph glyph-name="plus" unicode="+" horiz-adv-x="498" d="M55 358 L46 305 L235 305 L204 129 L260 129 L291 305 L479 305 L489 358 L300 358 L331 533 L275 533 L244 358 L55 358 Z " />
<glyph glyph-name="comma" unicode="," horiz-adv-x="232" d="M155 110 C115 97 101 93 68 84 C51 -11 26 -70 -24 -137 L-17 -146 C-2 -141 1 -140 16 -133 C62 -84 118 7 160 98 L155 110 Z " />
<glyph glyph-name="hyphen" unicode="-" horiz-adv-x="265" d="M0 209 C44 211 67 212 107 212 C152 212 180 211 250 209 C256 229 261 243 272 267 L271 271 C229 269 207 268 168 268 C126 268 98 269 18 272 C10 245 9 242 -2 216 L0 209 Z " />
<glyph glyph-name="period" unicode="." horiz-adv-x="232" d="M91 98 C59 98 33 68 33 31 C33 2 50 -17 77 -17 C108 -17 133 13 133 52 C133 80 116 98 91 98 L91 98 Z " />
<glyph glyph-name="slash" unicode="/" horiz-adv-x="477" d="M482 702 C469 700 462 699 454 699 C446 699 440 700 428 702 C420 684 411 666 393 629 L-3 -101 C-17 -125 -31 -149 -44 -173 L-42 -177 C-26 -175 -18 -174 -11 -174 C-5 -174 0 -174 10 -176 C18 -159 18 -157 25 -146 C32 -132 39 -117 47 -103 L437 615 C457 652 459 657 483 697 L482 702 Z " />
<glyph glyph-name="zero" unicode="0" horiz-adv-x="498" d="M313 665 C218 665 132 578 94 444 C75 378 61 279 61 216 C61 66 118 -17 221 -17 C293 -17 361 35 406 123 C447 204 474 327 474 437 C474 585 418 665 313 665 L313 665 Z M312 636 C346 636 374 617 386 585 C396 560 400 529 400 477 C400 358 377 223 340 132 C309 53 268 10 224 10 C193 10 165 30 150 62 C138 91 133 120 133 172 C133 286 161 448 194 528 C223 597 266 636 312 636 L312 636 Z " />
<glyph glyph-name="one" unicode="1" horiz-adv-x="498" d="M80 -4 C129 -3 146 -2 169 -2 C228 0 242 0 259 0 C299 0 341 -1 395 -4 L400 24 C389 25 378 26 375 26 C298 31 284 39 284 80 C284 93 286 117 290 139 C292 151 297 190 306 249 C331 417 345 498 376 662 L362 673 C326 650 197 605 116 587 C114 569 111 554 107 530 L113 527 C179 558 234 582 292 606 C281 525 270 453 239 272 C228 209 220 160 217 142 C200 39 194 32 112 26 C108 26 96 25 83 24 L80 -4 Z " />
<glyph glyph-name="two" unicode="2" horiz-adv-x="498" d="M19 -4 C145 0 156 0 197 0 C227 0 298 -1 408 -4 L416 32 C418 44 420 52 424 64 L419 70 C382 63 364 62 105 62 C148 109 164 125 228 192 C313 279 343 314 375 357 C412 409 430 459 430 511 C430 605 366 665 268 665 C220 665 181 653 138 624 C126 603 125 601 109 570 C96 544 91 535 78 510 L100 500 C142 573 182 602 240 602 C307 602 347 561 347 493 C347 419 306 338 215 228 C160 163 88 84 21 16 L19 -4 Z " />
<glyph glyph-name="three" unicode="3" horiz-adv-x="498" d="M61 165 C53 115 46 80 33 28 C81 -5 118 -17 172 -17 C315 -17 431 90 431 221 C431 270 411 313 377 337 C355 353 330 362 280 371 C376 412 424 468 424 538 C424 616 370 665 284 665 C244 665 218 658 172 636 C157 605 142 579 118 541 L136 528 C180 590 207 608 255 608 C312 608 347 573 347 516 C347 440 284 379 206 379 C196 379 185 380 163 382 L146 334 L150 331 C182 340 197 343 221 343 C302 343 347 297 347 213 C347 100 278 14 187 14 C124 14 80 55 80 114 C80 125 81 137 85 162 L61 165 Z " />
<glyph glyph-name="four" unicode="4" horiz-adv-x="498" d="M117 -4 C193 -1 244 0 268 0 C314 0 314 0 428 -4 L432 24 C326 32 322 33 322 58 C322 70 325 100 329 123 L340 184 L372 184 C399 184 399 184 451 181 C458 207 463 222 468 236 L463 243 C442 240 427 239 390 239 L348 239 L397 520 C410 593 412 606 423 666 L418 672 C390 664 380 661 351 655 C242 518 88 306 30 210 L28 182 C59 183 111 184 130 184 L272 184 L260 125 C250 81 246 61 242 54 C233 34 224 31 161 27 C155 27 140 26 121 25 L117 -4 Z M281 238 L204 238 L166 239 L127 239 C125 239 107 239 90 240 C142 321 259 487 344 598 C334 538 323 479 312 418 L281 238 Z " />
<glyph glyph-name="five" unicode="5" horiz-adv-x="498" d="M56 166 C48 113 44 96 29 33 C78 -3 117 -17 173 -17 C318 -17 435 101 435 249 C435 350 374 409 270 409 C221 409 190 398 144 363 L192 584 C211 583 230 583 236 583 C333 583 399 585 444 588 C450 600 454 607 477 643 L471 653 C410 649 377 648 331 648 C267 648 232 650 170 656 L163 649 C150 558 119 387 103 318 L122 308 C163 353 194 369 235 369 C306 369 352 316 352 236 C352 181 334 120 305 77 C280 39 235 15 191 15 C125 15 78 61 78 126 C78 133 79 149 80 162 L56 166 Z " />
<glyph glyph-name="six" unicode="6" horiz-adv-x="498" d="M451 589 C453 606 456 619 467 655 C438 663 423 665 405 665 C333 665 248 613 184 529 C113 437 68 302 68 182 C68 58 119 -17 203 -17 C257 -17 331 17 373 61 C416 105 443 177 443 247 C443 336 394 390 313 390 C274 390 235 376 207 352 C190 337 180 326 152 293 C172 394 197 463 229 517 C268 582 320 619 372 619 C401 619 420 611 442 589 L451 589 Z M272 341 C332 341 369 295 369 222 C369 109 315 25 243 25 C183 25 143 80 143 161 C143 263 199 341 272 341 L272 341 Z " />
<glyph glyph-name="seven" unicode="7" horiz-adv-x="498" d="M103 -4 C119 -1 125 0 139 0 C156 0 164 -1 182 -4 C220 108 388 419 519 618 L519 653 C459 650 424 649 355 649 C264 649 215 651 141 657 C140 639 134 604 127 579 L132 575 C191 579 255 581 329 581 L463 581 C456 570 449 559 443 548 C382 452 338 382 289 302 C206 167 179 125 97 6 L103 -4 Z " />
<glyph glyph-name="eight" unicode="8" horiz-adv-x="498" d="M314 359 C426 431 460 475 460 546 C460 619 413 665 338 665 C226 665 134 576 134 468 C134 405 158 372 230 334 C102 278 49 217 49 124 C49 41 108 -17 191 -17 C313 -17 423 91 423 212 C423 255 409 291 382 315 C365 330 352 339 314 359 L314 359 Z M250 319 C285 298 299 288 311 277 C338 252 350 222 350 182 C350 93 293 20 224 20 C165 20 116 73 116 139 C116 192 144 247 188 281 C206 295 215 301 250 319 L250 319 Z M294 374 C222 415 197 448 197 502 C197 571 245 626 305 626 C357 626 393 587 393 531 C393 471 361 421 294 374 L294 374 Z " />
<glyph glyph-name="nine" unicode="9" horiz-adv-x="498" d="M56 101 C72 51 78 31 85 2 C121 -13 137 -17 161 -17 C321 -17 465 206 465 455 C465 592 414 665 318 665 C200 665 93 546 93 416 C93 320 147 257 230 257 C286 257 325 281 382 351 C369 269 355 213 335 162 C299 74 245 23 185 23 C139 23 106 48 76 108 L56 101 Z M286 624 C350 624 390 567 390 478 C390 380 339 311 266 311 C203 311 167 359 167 444 C167 548 217 624 286 624 L286 624 Z " />
<glyph glyph-name="colon" unicode=":" horiz-adv-x="232" d="M92 98 C60 98 34 68 34 31 C34 2 51 -17 78 -17 C109 -17 134 13 134 52 C134 80 117 98 92 98 L92 98 Z M153 460 C121 460 95 430 95 393 C95 364 112 345 139 345 C170 345 195 375 195 414 C195 442 178 460 153 460 L153 460 Z " />
<glyph glyph-name="semicolon" unicode=";" horiz-adv-x="232" d="M152 110 C112 97 98 93 65 84 C48 -11 23 -70 -27 -137 L-20 -146 C-5 -141 -2 -140 13 -133 C59 -84 115 7 157 98 L152 110 Z M157 460 C125 460 99 430 99 393 C99 364 116 345 143 345 C174 345 199 375 199 414 C199 442 182 460 157 460 L157 460 Z " />
<glyph glyph-name="less" unicode="&lt;" horiz-adv-x="513" d="M-1 204 L450 19 L484 58 L73 221 L484 385 L461 421 L-1 239 L-1 204 Z " />
<glyph glyph-name="equal" unicode="=" horiz-adv-x="498" d="M68 431 L59 378 L492 378 L502 431 L68 431 Z M42 284 L33 231 L466 231 L476 284 L42 284 Z " />
<glyph glyph-name="greater" unicode="&gt;" horiz-adv-x="513" d="M514 236 L52 418 L29 381 L440 217 L29 55 L63 15 L514 201 L514 236 Z " />
<glyph glyph-name="question" unicode="?" horiz-adv-x="391" d="M122 550 C126 556 130 562 133 568 C150 595 158 605 167 612 C182 624 205 632 227 632 C275 632 311 595 311 546 C311 506 295 476 238 407 C184 343 184 343 170 321 C154 297 146 273 146 252 C146 219 165 197 213 173 C220 178 221 179 227 182 L227 187 C196 203 182 219 182 242 C182 269 195 288 250 342 C309 399 321 412 339 432 C373 471 392 515 392 557 C392 636 334 686 244 686 C203 686 178 678 141 651 C131 622 124 607 100 556 L122 550 Z M157 98 C126 98 100 68 100 32 C100 2 117 -17 143 -17 C175 -17 199 13 199 52 C199 80 182 98 157 98 L157 98 Z " />
<glyph glyph-name="at" unicode="@" horiz-adv-x="677" d="M452 476 L446 441 C430 474 408 486 369 486 C324 486 286 467 254 430 C215 385 192 322 192 260 C192 183 227 138 287 138 C334 138 365 160 403 220 C403 162 426 134 473 134 C567 134 657 253 657 376 C657 515 551 606 388 606 C187 606 43 465 43 269 C43 175 72 108 134 57 C186 15 252 -7 328 -7 C409 -7 487 22 556 78 L563 104 C485 45 415 18 338 18 C267 18 204 42 160 85 C117 128 95 189 95 269 C95 457 215 583 393 583 C458 583 513 566 554 532 C598 496 618 448 618 379 C618 262 559 162 491 162 C467 162 452 178 452 202 C452 214 453 222 461 256 L512 487 L452 476 Z M378 465 C410 465 431 442 431 409 C431 370 407 273 388 232 C367 190 342 168 313 168 C276 168 257 198 257 256 C257 365 315 465 378 465 L378 465 Z " />
<glyph glyph-name="A" unicode="A" horiz-adv-x="664" d="M399 674 L79 127 C41 59 29 40 21 34 C13 28 -2 24 -26 23 L-28 -4 C51 -1 66 0 83 0 C105 0 123 -1 182 -4 L183 23 L170 24 C120 26 98 35 98 52 C98 63 111 90 148 158 L208 266 C283 267 312 267 341 267 C379 267 387 267 442 266 L465 132 C477 59 477 59 477 54 C477 29 465 25 395 23 L395 -4 C450 -1 479 0 520 0 C559 0 583 -1 625 -4 L625 23 C582 25 567 29 559 39 C553 47 550 57 536 137 L442 674 L399 674 Z M390 580 L435 304 C402 303 360 302 310 302 C277 302 262 303 232 305 L390 580 Z " />
<glyph glyph-name="B" unicode="B" horiz-adv-x="558" d="M28 -4 C70 -1 96 0 125 0 C148 0 169 -1 199 -3 C220 -4 242 -5 253 -5 C303 -5 350 11 397 44 C466 92 501 150 501 217 C501 273 478 312 434 331 C410 341 394 345 346 351 C457 388 515 454 515 542 C515 626 458 670 348 670 C338 670 304 668 269 666 C242 665 218 664 194 664 C165 664 137 665 95 668 L91 641 C164 638 176 632 176 605 C176 585 148 409 105 162 C88 61 86 53 77 44 C71 38 67 36 33 23 L28 -4 Z M215 363 C236 500 250 584 260 628 C280 632 292 633 310 633 C393 633 434 599 434 530 C434 428 362 361 252 361 C241 361 233 361 215 363 L215 363 Z M164 42 C172 109 194 248 208 325 C241 327 253 327 267 327 C371 327 415 290 415 205 C415 155 398 106 371 76 C346 47 305 32 251 32 C223 32 200 35 164 42 L164 42 Z " />
<glyph glyph-name="C" unicode="C" horiz-adv-x="635" d="M594 106 C519 54 458 32 385 32 C240 32 157 128 157 293 C157 383 179 467 220 532 C265 604 335 642 423 642 C482 642 537 625 576 596 C589 586 592 580 592 559 L591 504 L621 504 C624 548 631 591 644 642 C581 671 525 683 459 683 C359 683 272 650 199 584 C114 505 71 402 71 274 C71 87 174 -20 352 -20 C447 -20 521 7 594 66 L604 100 L594 106 Z " />
<glyph glyph-name="D" unicode="D" horiz-adv-x="723" d="M28 -4 C62 -1 100 0 127 0 C144 0 156 0 170 -1 C247 -5 247 -5 267 -5 C355 -5 414 9 478 45 C609 119 688 257 688 413 C688 587 600 669 412 669 C391 669 359 668 323 667 C281 665 250 664 229 664 C181 664 126 666 96 668 L92 641 L110 640 C170 636 177 631 177 604 C177 561 94 78 82 51 C78 41 66 35 33 23 L28 -4 Z M167 50 C183 182 216 382 261 624 C302 627 325 628 358 628 C440 628 493 615 533 584 C579 548 604 485 604 405 C604 302 571 201 514 128 C463 65 401 38 303 38 C262 38 227 41 167 50 L167 50 Z " />
<glyph glyph-name="E" unicode="E" horiz-adv-x="539" d="M27 -4 C93 -1 124 0 174 0 C215 0 242 0 326 -3 C358 -4 382 -4 401 -4 C429 -4 450 -3 478 -1 L484 6 C485 29 486 38 492 79 C496 98 498 113 505 153 L477 153 C473 135 473 135 463 99 C451 53 450 51 438 47 C422 42 377 39 322 39 C249 39 212 41 165 47 C172 110 189 223 207 322 C341 322 393 321 437 318 C443 334 445 339 446 342 L452 356 L455 363 L451 370 C395 365 359 363 311 363 C289 363 279 363 215 364 C230 469 251 590 260 625 C301 626 324 627 352 627 C403 627 449 624 468 619 C485 614 488 605 490 545 L491 521 L516 521 C518 555 520 578 522 593 L529 646 L530 656 L526 663 C496 667 474 668 439 668 C420 668 390 667 351 666 C303 665 270 664 242 664 C196 664 129 666 96 668 L91 641 C171 635 175 633 175 603 C175 567 98 102 85 59 C80 42 80 42 38 26 L32 23 L27 -4 Z " />
<glyph glyph-name="F" unicode="F" horiz-adv-x="487" d="M2 -4 C92 -1 116 0 136 0 C169 0 195 -1 257 -4 L261 23 C179 29 167 33 167 60 C167 75 171 108 184 183 C196 258 197 263 200 287 C232 289 246 289 278 289 C337 289 383 288 432 284 C435 296 436 299 440 310 L446 324 L450 333 L445 338 C402 330 368 328 305 328 C274 328 265 328 209 330 C225 436 249 573 260 625 C297 626 317 627 346 627 C409 627 452 622 464 614 C472 609 475 588 477 521 L502 521 C505 568 510 614 516 656 L512 663 C484 667 466 668 441 668 C420 668 378 667 334 666 C299 665 270 664 239 664 C187 664 131 666 97 668 L92 641 C170 635 175 633 175 603 C175 579 175 579 133 327 C91 69 86 45 73 35 C66 28 41 24 6 23 L2 -4 Z " />
<glyph glyph-name="G" unicode="G" horiz-adv-x="719" d="M446 237 C529 228 532 228 538 227 C554 223 561 215 561 199 C561 187 547 104 538 57 C492 36 438 24 388 24 C321 24 258 48 220 89 C180 131 158 202 158 284 C158 379 186 471 235 541 C283 609 349 643 433 643 C494 643 553 624 599 590 C612 581 615 576 615 559 L616 517 L617 500 L644 500 C650 563 659 607 673 642 C604 671 544 683 473 683 C361 683 272 649 198 577 C116 498 72 388 72 265 C72 86 177 -20 353 -20 C406 -20 438 -14 527 12 C570 24 589 28 616 33 L618 42 L618 61 C618 102 624 163 631 192 C638 224 644 230 674 235 C676 235 681 236 686 237 L688 264 C646 262 621 261 581 261 C544 261 517 262 449 264 L446 237 Z " />
<glyph glyph-name="H" unicode="H" horiz-adv-x="726" d="M2 -4 C95 -1 127 0 138 0 C171 0 193 -1 241 -4 L245 23 C178 27 167 32 167 60 C167 72 181 161 208 328 C256 330 289 330 359 330 C447 330 483 330 553 328 C546 289 539 251 533 212 C512 93 507 63 502 53 C495 31 482 26 423 23 L418 -4 C499 -1 517 0 546 0 C575 0 598 -1 659 -4 L663 23 C594 28 585 32 585 61 C585 84 590 114 629 342 C638 390 645 436 654 483 C666 555 675 601 679 616 C684 634 692 637 730 639 C734 640 746 640 758 641 L761 668 C705 665 676 664 638 664 C597 664 571 665 516 668 L512 641 C587 636 595 632 595 603 C595 579 585 515 560 370 C490 368 409 367 344 367 C281 367 260 368 216 371 C221 410 238 507 253 584 C262 636 264 638 323 640 L339 641 L343 668 C290 665 260 664 217 664 C176 664 148 665 97 668 L93 641 C168 636 176 632 176 603 C176 578 164 500 137 346 C121 253 104 154 105 153 C88 54 84 39 69 33 C57 27 39 24 6 23 L2 -4 Z " />
<glyph glyph-name="I" unicode="I" horiz-adv-x="308" d="M2 -4 C95 -1 127 0 138 0 C171 0 193 -1 241 -4 L245 23 C178 27 167 32 167 59 C167 81 182 176 212 349 C219 389 227 439 239 508 C250 571 256 602 260 617 C267 635 275 638 323 640 L339 641 L343 668 C290 665 260 664 217 664 C176 664 148 665 97 668 L93 641 C168 636 176 632 176 603 C176 578 163 490 137 346 C121 252 110 187 105 160 C88 54 84 40 69 33 C57 27 39 24 6 23 L2 -4 Z " />
<glyph glyph-name="J" unicode="J" horiz-adv-x="317" d="M-61 -175 C-60 -179 -59 -182 -59 -182 L-57 -188 C-57 -188 -56 -190 -56 -193 L-54 -199 C-44 -201 -39 -201 -31 -201 C20 -201 76 -180 111 -147 C166 -96 180 -53 205 133 L272 570 C282 632 284 634 340 640 L356 641 L359 668 C315 665 288 664 239 664 C188 664 161 665 114 668 L111 641 L132 639 C191 634 198 631 198 606 C198 595 188 513 167 360 C127 67 105 -45 80 -97 C56 -144 13 -173 -34 -173 C-42 -173 -47 -172 -55 -170 L-61 -175 Z " />
<glyph glyph-name="K" unicode="K" horiz-adv-x="595" d="M2 -4 C95 -1 127 0 138 0 C171 0 193 -1 241 -4 L245 23 C178 27 167 32 167 59 C167 73 181 162 208 328 C329 182 358 145 465 -4 C506 0 511 0 526 0 C534 0 551 -1 574 -3 L591 -4 L592 23 C548 25 543 28 520 56 C415 190 323 306 283 353 C312 382 317 386 390 456 C512 572 512 573 557 614 C580 635 584 637 611 639 C613 640 620 640 627 641 L628 668 C603 665 590 664 573 664 C556 664 541 665 508 668 L507 658 L507 644 C504 629 502 626 457 579 C340 453 279 394 210 340 C223 412 228 441 239 508 C250 571 256 602 260 617 C267 635 274 638 323 640 L339 641 L343 668 C290 665 260 664 217 664 C176 664 148 665 97 668 L93 641 C168 636 176 632 176 603 C176 578 163 490 137 346 C121 252 110 187 105 160 C88 54 84 40 69 33 C57 27 39 24 6 23 L2 -4 Z " />
<glyph glyph-name="L" unicode="L" horiz-adv-x="519" d="M28 -4 C94 -1 123 0 160 0 C190 0 222 -1 266 -2 C318 -3 353 -4 377 -4 C406 -4 433 -3 464 -1 L467 5 C473 68 477 93 487 160 L460 160 C454 138 454 138 443 97 C429 49 429 49 416 45 C403 42 364 40 313 40 C252 40 217 41 166 45 C169 85 172 102 184 181 C193 232 201 283 209 335 C236 499 252 589 255 604 C263 635 266 637 324 640 L337 641 L341 668 C299 665 270 664 219 664 C168 664 139 665 95 668 L91 641 C166 636 175 632 175 603 C175 587 172 562 163 510 C155 462 146 405 134 334 C98 110 87 58 79 46 C73 38 64 34 32 23 L28 -4 Z " />
<glyph glyph-name="M" unicode="M" horiz-adv-x="904" d="M-15 -4 C53 -1 70 0 88 0 C100 0 127 -1 167 -3 C170 -3 183 -3 197 -4 L200 23 L188 24 C121 26 115 29 115 54 C115 73 121 102 138 164 C180 316 217 453 237 530 L250 479 L307 271 C341 145 354 98 384 -21 L407 -21 C447 65 590 314 739 556 C734 481 725 358 711 178 C706 124 703 87 702 76 C698 32 691 26 631 24 L614 23 L611 -4 C700 -1 718 0 736 0 C746 0 778 -1 824 -3 C829 -3 841 -3 857 -4 L859 23 C785 26 777 30 777 68 C777 98 788 252 797 364 C804 442 809 496 810 514 C818 609 821 622 835 632 C846 638 864 641 898 641 L901 668 C861 665 842 664 822 664 C799 664 782 665 747 668 C708 597 609 426 452 153 C444 139 433 121 425 109 L288 615 C284 633 279 650 274 668 C239 665 221 664 198 664 C176 664 159 665 123 668 L122 641 C189 638 212 627 212 599 C212 577 190 493 136 310 C118 250 95 171 90 153 C62 54 55 39 38 31 C28 26 17 25 -12 23 L-15 -4 Z " />
<glyph glyph-name="N" unicode="N" horiz-adv-x="719" d="M6 -4 C73 -1 91 0 103 0 C113 0 140 -1 181 -2 C186 -3 199 -3 214 -4 L216 23 L206 24 C158 28 158 28 150 31 C140 35 135 45 135 62 C135 84 150 176 188 397 C199 458 208 507 214 545 C369 274 474 88 530 -14 L575 -14 C597 123 608 185 674 547 C690 635 691 637 747 641 L761 641 L763 668 C719 665 695 664 663 664 C632 664 607 665 559 668 L557 641 C628 636 635 633 635 606 C635 592 632 574 618 490 C617 487 603 402 589 317 C570 201 567 181 552 99 C338 469 268 593 230 668 C197 665 181 664 156 664 C130 664 112 665 77 668 L76 641 C151 634 153 634 184 591 C155 421 134 311 87 75 C78 34 64 25 7 23 L6 -4 Z " />
<glyph glyph-name="O" unicode="O" horiz-adv-x="738" d="M454 683 C344 683 258 649 192 579 C114 497 70 374 70 243 C70 73 161 -20 329 -20 C436 -20 526 21 594 102 C666 188 706 302 706 421 C706 590 616 683 454 683 L454 683 Z M427 646 C487 646 542 623 573 585 C604 547 619 493 619 419 C619 314 595 211 551 135 C510 62 434 17 353 17 C293 17 234 43 201 85 C171 122 155 179 155 249 C155 351 180 453 222 529 C266 607 335 646 427 646 L427 646 Z " />
<glyph glyph-name="P" unicode="P" horiz-adv-x="548" d="M3 -4 C90 0 101 0 122 0 C128 0 164 -1 216 -3 C222 -3 239 -3 258 -4 L261 23 C180 27 167 32 167 59 C167 90 238 515 262 624 C292 629 310 631 332 631 C418 631 464 586 464 503 C464 392 399 312 309 312 C286 312 272 316 249 327 L244 324 L245 298 C276 284 296 280 326 280 C449 280 550 388 550 522 C550 617 491 669 384 669 C369 669 334 668 298 666 C269 665 244 664 217 664 C168 664 124 665 98 668 L94 641 C170 635 176 632 176 604 C176 577 153 435 103 149 C86 49 84 44 72 34 C64 27 43 24 7 23 L3 -4 Z " />
<glyph glyph-name="Q" unicode="Q" horiz-adv-x="738" d="M641 -62 C636 -115 618 -138 580 -138 C549 -138 527 -130 425 -79 C340 -38 319 -29 280 -17 C301 -19 311 -20 329 -20 C436 -20 526 21 594 102 C666 188 706 302 706 421 C706 591 616 683 451 683 C345 683 256 647 192 579 C114 496 70 374 70 244 C70 94 130 13 264 -14 C185 -18 145 -56 142 -133 L142 -146 L142 -156 L160 -166 L167 -161 L167 -145 C167 -92 195 -59 240 -59 C268 -59 289 -67 342 -98 C439 -154 439 -154 460 -165 C503 -188 539 -200 564 -200 C620 -200 662 -143 664 -63 L641 -62 Z M427 646 C487 646 542 623 573 585 C604 547 619 493 619 419 C619 314 595 211 551 135 C510 62 434 17 353 17 C293 17 234 43 201 85 C171 122 155 179 155 249 C155 351 180 453 222 529 C266 607 335 646 427 646 L427 646 Z " />
<glyph glyph-name="R" unicode="R" horiz-adv-x="614" d="M3 -4 C83 -1 106 0 131 0 C163 0 190 -1 241 -4 L245 23 C177 28 167 33 167 62 C167 97 225 435 263 625 C292 630 309 631 332 631 C411 631 456 592 456 523 C456 432 379 360 280 360 C269 360 259 361 240 364 L239 351 C292 286 420 84 465 -4 C490 -1 502 0 520 0 C535 0 546 -1 588 -4 L588 23 C552 26 543 31 524 57 C446 169 371 285 340 340 C391 352 417 363 449 384 C504 422 537 479 537 538 C537 620 478 669 380 669 C366 669 332 668 297 666 C270 665 247 664 224 664 C186 664 125 666 99 668 L95 641 C165 638 177 632 177 602 C177 580 158 455 133 317 L101 137 C88 53 82 38 65 31 C55 28 41 25 6 23 L3 -4 Z " />
<glyph glyph-name="S" unicode="S" horiz-adv-x="520" d="M77 168 C75 159 74 150 74 147 C67 88 66 86 51 21 C98 -7 146 -20 202 -20 C342 -20 469 93 469 218 C469 290 432 332 331 371 C220 415 195 440 195 507 C195 585 254 642 335 642 C380 642 407 630 440 595 C441 581 441 575 441 566 C441 554 441 544 440 522 L468 522 C471 563 479 607 491 652 C452 674 416 683 365 683 C225 683 122 592 122 468 C122 394 153 357 246 322 C362 278 389 251 389 176 C389 90 322 27 230 27 C181 27 138 44 104 78 L104 99 L104 144 C105 148 105 158 105 168 L77 168 Z " />
<glyph glyph-name="T" unicode="T" horiz-adv-x="552" d="M119 -4 C167 -1 197 0 253 0 C306 0 333 -1 378 -4 L382 23 C372 24 364 24 361 24 C303 28 293 33 293 62 C293 82 312 203 358 466 C380 597 380 597 385 627 C433 626 462 625 469 625 C491 623 512 622 533 621 C555 619 558 616 559 592 L559 511 L585 511 C586 522 587 529 588 532 C598 616 599 618 610 661 L601 668 C475 665 425 664 338 664 C251 664 200 665 87 668 L79 660 C78 630 77 615 73 586 L66 531 C66 529 65 522 64 511 L90 511 C93 524 97 536 98 540 C118 616 120 620 152 622 C205 625 246 626 306 627 C295 536 288 487 269 377 C256 299 244 222 231 145 C219 76 215 57 210 48 C202 31 190 27 141 24 L122 23 L119 -4 Z " />
<glyph glyph-name="U" unicode="U" horiz-adv-x="729" d="M90 641 C161 636 173 631 173 607 C173 588 157 487 133 353 C106 203 101 168 101 130 C101 41 170 -20 270 -20 C354 -20 435 24 524 118 C518 77 513 51 500 1 L503 -4 C543 -1 561 0 583 0 C601 0 614 -1 667 -4 L670 23 C601 25 590 30 590 61 C590 86 604 183 636 366 C646 424 659 504 665 538 C681 630 682 633 710 636 L744 640 L756 641 L756 668 C715 665 693 664 649 664 C598 664 570 665 519 668 L515 641 C588 637 599 632 599 604 C599 589 596 565 587 514 L562 359 C543 236 543 235 532 173 C463 82 390 38 305 38 C224 38 178 78 178 149 C178 210 224 493 262 662 L257 668 C225 665 207 664 177 664 C146 664 128 665 94 668 L90 641 Z " />
<glyph glyph-name="V" unicode="V" horiz-adv-x="629" d="M78 641 L91 640 C148 634 150 633 156 600 C159 574 162 554 164 541 L170 504 L222 132 C225 109 226 103 239 -10 L286 -10 C301 15 321 49 348 95 L587 508 C639 599 646 611 650 616 C661 636 672 641 704 641 L704 668 C667 665 644 664 607 664 C570 664 549 665 507 668 L508 641 C551 638 551 638 557 637 C576 634 584 628 584 615 C584 595 539 507 466 383 L296 94 L252 450 C239 559 235 592 235 606 C235 636 238 637 313 641 L313 668 C275 665 260 664 218 664 C167 664 132 665 77 668 L78 641 Z " />
<glyph glyph-name="W" unicode="W" horiz-adv-x="980" d="M78 641 C118 640 128 638 138 627 C147 615 148 606 150 513 L157 173 L157 122 C157 88 157 73 156 -10 L205 -10 C263 91 280 119 310 166 L542 535 L650 148 C650 147 655 129 661 108 C668 78 676 48 684 18 C685 16 687 5 691 -10 L734 -10 C746 22 764 67 787 124 L928 475 C954 538 977 590 992 618 C1002 637 1008 639 1049 641 L1049 668 C1007 665 979 664 940 664 C905 664 889 665 854 668 L855 641 C887 639 894 638 901 636 C919 631 927 622 927 607 C927 586 924 579 853 404 L734 116 L644 437 C620 523 604 586 585 674 L566 674 C505 552 314 238 230 124 L229 511 C229 611 229 614 237 627 C244 638 248 639 305 641 L305 668 C262 665 240 664 204 664 C171 664 149 665 78 668 L78 641 Z " />
<glyph glyph-name="X" unicode="X" horiz-adv-x="627" d="M-1 -4 C77 -1 99 0 129 0 C165 0 187 -1 232 -4 L232 23 C166 28 147 33 147 47 C147 56 149 60 172 91 C189 115 242 186 249 194 L329 294 L412 129 C416 122 420 114 425 106 C450 57 452 53 452 44 C452 28 436 24 370 23 L369 -4 C385 -3 400 -3 403 -3 C457 -1 492 0 504 0 C525 0 546 -1 622 -4 L623 23 C568 27 561 28 549 40 C537 55 525 75 498 128 L379 354 L532 537 C571 583 581 594 598 614 C616 634 621 636 653 639 C656 640 663 640 672 641 L672 668 C630 665 604 664 558 664 C516 664 497 665 457 668 L456 641 C518 638 533 634 533 620 C533 610 529 604 477 536 L361 390 L287 533 C260 587 249 611 249 619 C249 633 265 638 327 641 L328 668 C267 665 232 664 187 664 C144 664 120 665 72 668 L72 641 L100 638 C133 634 139 633 146 629 C157 623 171 598 215 511 L310 329 L150 133 C105 78 86 56 71 42 C55 28 43 25 -1 23 L-1 -4 Z " />
<glyph glyph-name="Y" unicode="Y" horiz-adv-x="590" d="M159 -4 C236 0 253 0 291 0 C329 0 356 -1 405 -4 L411 23 C334 27 328 29 328 54 C328 67 334 105 349 184 C374 318 418 410 505 509 C555 566 592 590 642 600 L655 664 L647 668 C566 671 426 503 342 300 C313 430 280 531 244 602 C220 649 183 677 144 677 C142 677 137 677 132 676 C126 673 121 671 115 667 C95 656 81 648 76 645 C65 640 59 637 44 630 L45 607 C69 610 79 611 92 611 C148 611 174 586 213 489 C250 397 283 280 283 241 C283 215 274 166 251 55 C244 26 244 26 162 23 L159 -4 Z " />
<glyph glyph-name="Z" unicode="Z" horiz-adv-x="585" d="M120 514 C127 542 127 544 138 591 C144 619 148 620 209 624 C238 625 348 627 406 627 C434 627 447 627 480 626 C394 513 318 415 252 330 C81 108 78 104 11 21 L10 -4 C105 -1 153 0 219 0 C260 0 297 0 335 -1 C401 -3 444 -4 457 -4 C484 -4 507 -3 533 -1 L539 5 L541 20 L549 74 L558 133 C558 135 559 144 561 158 L532 158 C517 94 505 57 498 51 C487 41 424 36 313 36 C234 36 189 37 117 39 C208 158 287 261 356 348 L467 492 C519 558 548 594 589 645 L589 668 C540 665 519 664 466 664 C321 664 217 665 111 668 L106 662 C105 632 104 613 102 591 C100 572 97 547 93 514 L120 514 Z " />
<glyph glyph-name="bracketleft" unicode="[" horiz-adv-x="315" d="M357 718 C331 715 319 715 293 715 C255 715 235 716 192 719 L183 712 C173 605 152 449 125 281 C65 -93 64 -94 44 -176 L50 -182 C81 -179 91 -179 121 -179 C173 -179 202 -180 228 -182 L233 -152 C218 -151 203 -150 198 -149 C134 -146 126 -142 126 -122 C126 -105 135 -42 191 311 C245 653 245 653 253 668 C260 680 267 681 352 686 L357 718 Z " />
<glyph glyph-name="backslash" unicode="\" horiz-adv-x="477" d="M350 -174 C344 -144 340 -126 340 -123 C338 -113 336 -103 334 -92 L204 627 C201 644 198 662 195 680 C195 682 194 690 193 699 C183 698 179 697 173 697 C166 697 157 698 144 700 L141 696 C149 659 151 645 156 624 L287 -106 C292 -139 295 -161 297 -179 C308 -177 313 -176 321 -176 C330 -176 337 -177 348 -179 L350 -174 Z " />
<glyph glyph-name="bracketright" unicode="]" horiz-adv-x="315" d="M-30 -179 C-5 -177 7 -176 34 -176 C73 -176 93 -177 134 -180 L144 -174 C166 48 247 567 282 710 L276 716 C245 713 236 713 205 713 C152 713 124 714 98 716 L93 686 C108 685 123 684 128 684 C192 680 200 677 200 656 C200 637 196 613 136 225 C82 -115 82 -115 74 -130 C67 -142 62 -142 -25 -148 L-30 -179 Z " />
<glyph glyph-name="asciicircum" unicode="^" horiz-adv-x="433" d="M141 440 L265 640 L392 440 L437 454 L279 697 L247 697 L96 454 L141 440 Z " />
<glyph glyph-name="underscore" unicode="_" horiz-adv-x="500" d="M-42 -82 L-42 -126 L458 -126 L458 -82 L-42 -82 Z " />
<glyph glyph-name="grave" unicode="`" horiz-adv-x="500" d="M350 522 L285 646 C272 671 257 683 239 683 C223 683 209 670 209 655 C209 643 209 643 245 604 L322 522 L350 522 Z " />
<glyph glyph-name="a" unicode="a" horiz-adv-x="445" d="M398 457 L371 440 C328 454 312 457 287 457 C248 457 219 447 175 417 C148 398 132 383 118 364 C80 310 37 152 37 67 C37 9 47 -17 68 -17 C90 -17 138 17 190 69 C223 102 242 127 283 194 C280 181 278 171 277 168 C253 70 248 47 248 18 C248 -5 257 -17 273 -17 C300 -17 361 23 409 73 L405 95 C368 65 346 52 335 52 C326 52 321 58 321 70 C321 108 369 317 408 449 L398 457 Z M328 394 C308 296 290 241 264 195 C229 135 146 50 122 50 C111 50 105 65 105 88 C105 127 116 195 133 255 C145 298 170 365 181 385 C189 399 223 410 261 410 C282 410 304 405 328 394 L328 394 Z " />
<glyph glyph-name="b" unicode="b" horiz-adv-x="450" d="M193 483 C202 527 210 569 212 575 L230 659 C230 662 233 674 236 692 L226 700 C184 682 127 667 74 662 L71 643 L85 642 C145 639 149 637 149 613 C149 593 98 316 68 169 C56 111 52 88 52 69 C52 15 88 -17 147 -17 C287 -17 419 164 419 356 C419 423 403 457 371 457 C338 457 287 436 249 406 C204 370 178 340 155 294 L193 483 Z M308 399 C336 399 350 378 350 338 C350 283 332 195 307 130 C279 58 239 20 190 20 C150 20 121 51 121 94 C121 154 144 233 179 291 C216 354 270 399 308 399 L308 399 Z " />
<glyph glyph-name="c" unicode="c" horiz-adv-x="383" d="M342 105 L327 93 C265 48 233 33 193 33 C146 33 115 74 115 137 C115 200 132 282 158 342 C178 388 212 409 264 409 C286 409 306 404 323 393 C334 386 337 382 337 369 L337 362 C336 346 336 341 335 311 L359 311 C362 354 365 370 381 433 C351 451 331 457 304 457 C271 457 241 447 195 421 C157 400 131 380 114 360 C73 311 43 211 43 125 C43 36 85 -17 156 -17 C216 -17 263 8 349 85 L342 105 Z " />
<glyph glyph-name="d" unicode="d" horiz-adv-x="477" d="M437 93 C396 63 374 50 361 50 C354 50 349 57 349 69 C349 103 407 395 473 692 L464 700 C425 682 363 666 311 662 L308 643 C383 640 386 639 386 615 C386 605 386 605 357 445 C325 454 306 457 286 457 C226 457 151 413 111 353 C68 290 35 170 35 78 C35 22 53 -17 79 -17 C106 -17 167 21 216 70 C253 106 280 144 310 201 C301 164 297 146 288 110 C275 58 271 37 271 19 C271 -3 282 -17 298 -17 C321 -17 353 3 445 74 L437 93 Z M348 392 C332 292 317 248 278 184 C231 106 168 51 128 51 C110 51 106 60 106 99 C106 182 140 317 177 379 C191 402 215 413 255 413 C285 413 319 405 348 392 L348 392 Z " />
<glyph glyph-name="e" unicode="e" horiz-adv-x="397" d="M331 103 C266 52 222 30 183 30 C139 30 112 63 112 115 C112 140 114 159 122 200 C292 236 375 296 375 383 C375 427 343 457 295 457 C245 457 158 410 115 358 C76 312 39 191 39 107 C39 28 80 -17 151 -17 C204 -17 260 12 339 81 L331 103 Z M126 224 C135 273 150 320 167 356 C185 393 222 417 260 417 C287 417 301 400 301 368 C301 297 238 245 126 224 L126 224 Z " />
<glyph glyph-name="f" unicode="f" horiz-adv-x="288" d="M302 422 C284 419 252 417 221 417 C219 417 212 417 204 418 L226 522 C234 559 240 582 247 597 C261 628 283 644 312 644 C338 644 357 633 381 606 L390 610 C400 643 410 671 419 687 C392 698 374 703 357 703 C321 703 282 680 214 618 C168 576 164 569 152 508 L134 419 C117 409 86 398 50 388 L46 366 L59 367 L75 368 C85 368 91 368 96 369 C106 369 111 369 124 370 L71 82 C29 -153 5 -208 -52 -208 C-74 -208 -85 -202 -105 -179 L-114 -182 C-125 -223 -130 -237 -139 -261 C-123 -267 -115 -269 -102 -269 C-41 -269 43 -192 79 -103 C105 -39 127 44 159 200 L195 372 C208 373 212 373 221 373 C237 373 253 372 293 370 L296 379 C299 387 300 392 301 393 L305 405 L308 413 L302 422 Z " />
<glyph glyph-name="g" unicode="g" horiz-adv-x="421" d="M443 419 C423 416 396 414 374 414 C372 414 366 414 359 415 C331 443 297 457 253 457 C141 457 46 360 46 245 C46 170 92 124 165 124 C176 124 183 124 194 125 L184 115 C177 110 167 101 160 95 C138 76 128 60 128 45 C128 33 134 23 149 11 C98 -5 71 -16 46 -31 C-8 -64 -41 -113 -41 -162 C-41 -232 22 -276 125 -276 C256 -276 357 -211 357 -127 C357 -99 343 -67 319 -41 C303 -23 287 -9 242 28 C212 52 200 70 200 88 C200 101 204 112 218 133 C263 147 289 161 316 186 C355 224 380 279 380 330 C380 344 379 353 374 370 L399 370 L439 370 C439 382 443 405 447 415 L443 419 Z M227 426 C280 426 310 390 310 325 C310 285 302 247 286 214 C267 175 240 156 200 156 C146 156 115 194 115 260 C115 364 157 426 227 426 L227 426 Z M167 -6 C178 -16 185 -23 188 -25 C252 -78 252 -78 261 -86 C284 -110 294 -130 294 -154 C294 -207 232 -249 153 -249 C72 -249 20 -209 20 -147 C20 -90 70 -36 145 -12 C154 -9 162 -7 167 -6 L167 -6 Z " />
<glyph glyph-name="h" unicode="h" horiz-adv-x="509" d="M465 91 C413 54 400 46 388 46 C379 46 373 53 373 64 C373 77 386 134 412 240 C450 394 452 402 452 423 C452 444 441 457 422 457 C390 457 334 430 281 388 C220 341 184 299 153 242 C156 254 158 266 160 276 C195 457 218 571 245 692 L235 700 C198 683 131 666 83 662 L80 643 C149 642 158 638 158 615 C158 572 64 118 30 -5 L38 -13 C53 -9 80 -2 103 2 C110 92 143 200 182 257 C226 323 314 395 351 395 C365 395 372 386 372 369 C372 352 367 324 353 272 C307 88 295 38 295 19 C295 -2 307 -17 325 -17 C349 -17 408 18 472 72 L465 91 Z " />
<glyph glyph-name="i" unicode="i" horiz-adv-x="259" d="M214 92 C174 62 151 49 138 49 C129 49 124 56 124 67 C124 81 129 104 145 172 C195 375 204 412 204 428 C204 446 196 457 182 457 C160 457 119 435 30 376 L37 352 C98 390 101 392 110 392 C118 392 123 385 123 374 C123 358 98 249 69 138 C50 65 46 46 46 28 C46 1 60 -17 79 -17 C100 -17 128 0 223 72 L214 92 Z M206 684 C179 684 155 655 155 620 C155 597 169 581 190 581 C218 581 240 608 240 643 C240 668 227 684 206 684 L206 684 Z " />
<glyph glyph-name="j" unicode="j" horiz-adv-x="231" d="M-121 -200 L-128 -263 C-121 -266 -118 -267 -112 -267 C-80 -267 -44 -250 -10 -219 C45 -168 78 -112 100 -26 C114 25 145 161 164 249 C174 301 181 333 183 342 C197 402 200 419 200 429 C200 445 190 457 177 457 C156 457 142 449 26 376 L32 352 C95 391 95 391 106 391 C114 391 119 383 119 372 C119 346 38 -57 19 -123 C3 -183 -28 -212 -75 -212 C-90 -212 -98 -209 -112 -197 L-121 -200 Z M208 684 C180 684 157 655 157 620 C157 597 171 581 192 581 C219 581 241 608 241 643 C241 668 228 684 208 684 L208 684 Z " />
<glyph glyph-name="k" unicode="k" horiz-adv-x="456" d="M423 64 C385 47 374 43 362 43 C336 43 320 63 298 120 C282 161 259 230 242 290 C314 371 344 390 393 390 C400 390 400 390 419 389 C421 399 428 422 439 451 L436 457 C424 459 419 460 411 460 C356 460 293 402 142 208 C177 372 205 501 218 563 C232 629 235 644 246 692 L236 700 C194 682 124 664 83 662 L80 643 C150 642 159 639 159 616 C159 598 158 592 105 326 C75 172 47 50 29 -5 L38 -13 C54 -8 87 0 103 2 C118 126 138 182 180 221 C181 223 186 229 192 235 C260 17 273 -11 308 -11 C327 -11 342 -4 427 44 L423 64 Z " />
<glyph glyph-name="l" unicode="l" horiz-adv-x="246" d="M205 91 C161 59 143 48 130 48 C122 48 115 57 115 67 C115 75 116 83 118 93 C130 157 143 221 156 286 C160 307 166 334 173 371 L193 473 C199 503 205 535 213 574 L238 691 L228 700 C191 683 131 667 77 661 L73 643 C139 640 151 636 151 614 C151 607 150 599 148 589 C147 583 142 557 137 526 C116 410 86 260 59 142 C38 50 36 38 36 23 C36 0 50 -17 69 -17 C92 -17 124 3 213 72 L205 91 Z " />
<glyph glyph-name="m" unicode="m" horiz-adv-x="736" d="M691 91 C646 57 627 46 615 46 C607 46 600 54 600 65 C600 78 610 125 624 177 C681 390 686 412 686 431 C686 446 675 457 661 457 C633 457 568 425 518 387 C471 351 441 319 404 261 C404 262 406 274 411 297 C431 386 436 413 436 431 C436 447 427 457 412 457 C380 457 321 425 270 379 C229 344 203 311 170 255 C183 314 185 324 192 350 C202 394 206 416 206 431 C206 448 199 457 185 457 C169 457 140 445 107 423 C81 407 57 391 33 376 L40 353 C78 375 85 379 96 386 C103 391 110 393 115 393 C122 393 127 382 127 369 C127 315 85 120 47 -5 L52 -13 C84 -3 106 2 119 2 C138 116 158 191 184 240 C224 317 303 394 342 394 C352 394 357 386 357 371 C357 316 326 161 281 -5 L287 -13 C318 -4 326 -2 351 2 C378 150 391 199 420 248 C458 316 548 395 587 395 C597 395 602 389 602 376 C602 348 589 292 546 134 C526 60 522 40 522 25 C522 2 537 -17 555 -17 C579 -17 611 3 700 71 L691 91 Z " />
<glyph glyph-name="n" unicode="n" horiz-adv-x="517" d="M473 91 C466 87 461 84 455 79 C418 54 407 48 396 48 C388 48 382 56 382 65 C382 80 397 150 421 247 C461 407 461 407 461 427 C461 446 451 457 435 457 C395 457 327 421 273 372 C224 326 188 280 161 226 L169 261 C203 405 205 415 205 433 C205 449 198 457 184 457 C159 457 123 438 32 373 L38 352 C45 356 51 360 57 364 C89 385 102 392 112 392 C122 392 127 386 127 373 C127 353 113 269 95 186 C80 112 76 96 47 -5 L55 -13 C71 -8 91 -4 122 2 C139 123 158 185 198 251 C241 323 323 395 361 395 C372 395 379 387 379 374 C379 349 356 245 325 126 C310 70 304 42 304 27 C304 3 318 -17 334 -17 C360 -17 377 -6 480 72 L473 91 Z " />
<glyph glyph-name="o" unicode="o" horiz-adv-x="458" d="M286 457 C223 457 162 425 117 367 C70 307 46 228 46 133 C46 35 86 -17 162 -17 C299 -17 412 131 412 311 C412 406 368 457 286 457 L286 457 Z M255 424 C279 424 304 412 317 393 C331 373 337 346 337 299 C337 235 326 173 305 113 C281 48 250 18 204 18 C148 18 120 58 120 137 C120 211 139 305 163 356 C185 401 216 424 255 424 L255 424 Z " />
<glyph glyph-name="p" unicode="p" horiz-adv-x="494" d="M40 352 C94 387 104 393 113 393 C121 393 127 384 127 371 C127 323 39 -127 3 -262 L10 -268 C36 -260 48 -258 79 -254 C88 -194 105 -97 126 0 C150 -10 163 -13 183 -13 C212 -13 240 -3 273 18 C308 41 350 73 363 87 C412 138 457 266 457 351 C457 416 437 457 406 457 C371 457 313 430 265 391 C226 358 202 329 175 276 C178 292 180 302 180 305 C203 404 205 414 205 431 C205 446 196 457 184 457 C166 457 137 444 97 418 L49 386 C43 383 38 379 33 376 L40 352 Z M133 54 C163 212 182 267 231 327 C267 371 317 402 353 402 C374 402 385 385 385 351 C385 288 366 208 331 129 C301 59 266 29 215 29 C187 29 161 37 133 54 L133 54 Z " />
<glyph glyph-name="q" unicode="q" horiz-adv-x="453" d="M383 435 C343 450 313 457 288 457 C236 457 151 407 113 355 C77 304 37 156 37 73 C37 22 54 -11 79 -11 C104 -11 149 17 202 65 C243 102 270 134 303 184 C239 -175 225 -239 203 -261 L213 -275 C238 -265 261 -259 290 -256 C309 -105 366 193 430 464 L419 470 L383 435 Z M348 385 C329 279 314 235 279 182 C238 120 162 55 131 55 C116 55 110 69 110 106 C110 187 143 313 181 377 C192 397 225 410 262 410 C290 410 325 399 348 385 L348 385 Z " />
<glyph glyph-name="r" unicode="r" horiz-adv-x="346" d="M40 352 C48 357 55 361 57 362 C68 368 80 375 89 380 C100 387 110 391 118 391 C124 391 128 383 128 372 C128 351 113 256 99 187 C81 98 69 54 49 -5 L57 -13 C80 -6 110 1 124 2 C147 127 163 190 183 230 C223 311 270 362 306 362 C318 362 327 358 343 346 L356 349 C357 380 362 415 371 450 C360 455 354 457 347 457 C302 457 236 377 166 238 C174 276 174 278 189 340 C202 391 207 417 207 431 C207 446 199 457 187 457 C171 457 143 444 102 419 C85 408 68 397 50 386 L33 375 L40 352 Z " />
<glyph glyph-name="s" unicode="s" horiz-adv-x="386" d="M56 137 C53 96 52 86 41 31 C40 28 38 19 36 8 C68 -8 108 -17 151 -17 C250 -17 340 65 340 156 C340 205 312 231 236 254 C156 278 131 299 131 341 C131 386 170 420 221 420 C247 420 270 413 291 399 C306 389 308 384 308 366 C308 359 308 337 307 323 L330 323 C336 382 337 393 345 434 C312 451 289 457 256 457 C156 457 72 387 72 305 C72 259 99 230 164 207 C233 183 233 183 241 178 C262 166 271 150 271 123 C271 58 233 17 174 17 C145 17 118 26 97 43 C84 54 80 63 80 82 L81 121 C81 124 81 129 80 137 L56 137 Z " />
<glyph glyph-name="t" unicode="t" horiz-adv-x="303" d="M240 110 C196 71 163 49 148 49 C138 49 132 58 132 75 C132 96 134 107 188 372 C222 372 248 370 284 366 C285 376 286 379 288 390 L293 411 L289 416 C267 414 245 413 224 413 C218 413 217 413 196 414 C202 451 223 551 236 611 L232 620 C203 604 181 594 155 587 C151 546 138 465 129 416 C109 407 85 398 44 387 L41 372 C54 371 66 371 71 371 C79 371 79 371 121 372 C94 233 87 195 70 121 C58 70 54 48 54 27 C54 0 66 -17 86 -17 C113 -17 159 13 249 90 L240 110 Z " />
<glyph glyph-name="u" unicode="u" horiz-adv-x="501" d="M457 91 C406 58 391 49 384 49 C374 49 368 57 368 69 C368 98 402 266 426 353 L448 437 L451 449 L446 457 C426 451 422 450 383 442 C364 327 342 260 306 204 C260 133 175 52 146 52 C137 52 131 62 131 75 C131 97 147 175 167 255 C205 408 207 416 207 430 C207 445 197 457 185 457 C163 457 127 438 30 376 L37 352 C46 358 48 360 56 364 C93 386 103 392 111 392 C119 392 124 386 124 375 C124 359 110 290 92 210 C58 65 56 56 56 33 C56 3 71 -17 93 -17 C123 -17 173 17 231 77 C275 123 302 160 338 222 C334 208 331 194 330 191 C295 56 291 40 291 19 C291 -2 303 -17 320 -17 C346 -17 372 -1 464 72 L457 91 Z " />
<glyph glyph-name="v" unicode="v" horiz-adv-x="488" d="M330 391 C343 393 349 393 354 393 C383 393 396 375 396 331 C396 269 377 195 347 137 C311 69 268 33 223 33 C179 33 152 72 152 137 C152 197 170 264 202 324 C216 352 220 358 277 442 L269 452 C254 447 247 446 231 446 C217 446 200 447 169 451 C127 456 119 457 105 457 C93 457 84 456 68 452 L28 336 L47 336 C73 388 84 399 114 399 C154 397 154 397 159 397 C189 397 204 398 229 403 C117 274 82 206 82 118 C82 35 122 -17 186 -17 C246 -17 313 34 373 123 C426 203 459 296 459 363 C459 421 435 457 396 457 C390 457 386 457 372 455 C362 441 339 416 323 402 L330 391 Z " />
<glyph glyph-name="w" unicode="w" horiz-adv-x="697" d="M456 461 C429 450 404 443 386 440 C358 288 348 245 329 194 C295 102 243 35 203 35 C172 35 151 75 151 133 C151 233 199 351 278 443 L268 453 C253 448 245 447 229 447 C214 447 200 448 168 452 C130 457 117 458 103 458 C91 458 82 457 67 453 L27 337 L46 337 C72 389 82 400 113 400 C153 399 153 399 158 399 C187 399 204 400 228 404 C219 393 213 386 211 383 C142 302 142 302 123 267 C97 220 82 163 82 113 C82 35 116 -17 167 -17 C201 -17 233 4 269 49 C294 79 308 104 339 169 C332 124 330 107 330 85 C330 24 362 -17 409 -17 C466 -17 538 41 594 132 C639 207 671 303 671 367 C671 424 647 457 604 457 C599 457 593 457 583 455 C571 436 551 415 535 403 L543 391 C553 393 558 393 565 393 C596 393 609 373 609 325 C609 268 591 191 564 136 C534 74 494 37 456 37 C417 37 394 69 394 123 C394 192 424 336 463 455 L456 461 Z " />
<glyph glyph-name="x" unicode="x" horiz-adv-x="449" d="M404 89 C358 52 347 45 334 45 C318 45 303 62 295 91 C282 132 270 191 261 251 C330 360 354 385 392 385 C410 385 421 379 431 363 L445 367 C446 395 449 431 453 450 C436 455 429 457 419 457 C372 457 338 421 254 281 C253 290 251 299 251 302 C239 377 236 388 224 412 C209 443 185 457 149 457 C131 457 119 455 93 447 C78 422 61 396 39 370 L55 363 C94 395 105 401 123 401 C159 401 180 350 205 201 C168 143 160 131 139 102 C114 66 88 47 65 47 C44 47 31 61 23 90 L10 86 C7 50 6 43 -4 -1 C15 -13 26 -17 43 -17 C91 -17 119 14 211 168 C213 155 215 145 216 140 C230 50 230 50 242 22 C251 -3 268 -17 287 -17 C316 -17 363 17 414 74 L404 89 Z " />
<glyph glyph-name="y" unicode="y" horiz-adv-x="504" d="M73 -148 C59 -162 39 -175 14 -188 C22 -244 53 -274 104 -274 C162 -274 227 -229 278 -154 C324 -86 340 -43 407 188 C441 307 464 377 492 449 L481 458 C455 449 431 443 413 441 C384 299 352 218 292 135 C254 82 227 58 206 58 C191 58 186 70 186 104 C186 128 191 204 198 303 C203 355 204 384 204 408 C204 440 194 457 175 457 C148 457 116 436 35 364 L49 347 C55 351 62 357 64 359 C106 392 106 392 115 392 C128 392 134 372 134 326 C134 291 130 227 125 173 C116 72 116 72 116 54 C116 11 132 -17 157 -17 C179 -17 215 10 257 57 C281 84 290 97 339 167 C334 150 328 129 328 126 C289 -25 280 -53 255 -117 C224 -197 188 -235 142 -235 C108 -235 81 -211 81 -180 C81 -177 81 -171 82 -165 C82 -163 82 -159 83 -154 L73 -148 Z " />
<glyph glyph-name="z" unicode="z" horiz-adv-x="405" d="M82 328 C111 379 115 383 134 383 C145 383 168 382 190 379 C211 377 233 376 251 376 C279 376 295 379 324 390 C210 253 104 126 4 8 L18 -13 C45 5 73 14 105 14 C124 14 132 13 193 -1 C243 -13 270 -17 289 -17 C303 -17 314 -14 335 -6 C340 26 353 80 369 130 L346 130 C337 108 335 104 330 91 C319 63 310 56 287 56 C277 56 266 57 256 59 C190 70 168 73 146 73 C122 73 107 68 79 50 C163 150 294 306 388 419 L393 452 L384 458 C367 434 356 428 328 428 C305 428 283 431 239 442 C190 453 168 457 151 457 C134 457 122 455 96 447 C89 415 70 353 60 328 L82 328 Z " />
<glyph glyph-name="braceleft" unicode="{" horiz-adv-x="315" d="M221 -157 C142 -153 117 -135 117 -79 C117 -59 120 -41 131 18 C149 118 158 174 158 193 C158 232 138 256 94 268 C167 289 187 319 204 436 C218 513 219 522 225 557 C232 595 238 616 250 637 C271 674 302 689 370 693 L375 717 L361 717 C255 717 212 700 182 647 C166 620 162 601 147 511 C137 449 129 399 123 361 C121 347 117 333 110 320 C94 294 73 283 33 281 L20 281 L16 256 C22 255 27 255 29 255 C76 252 93 238 93 202 C93 195 92 184 91 175 C51 -29 46 -56 46 -83 C46 -139 70 -168 124 -175 C151 -179 160 -180 221 -181 L221 -157 Z " />
<glyph glyph-name="bar" unicode="|" horiz-adv-x="543" d="M255 667 L255 -167 L300 -167 L300 667 L255 667 Z " />
<glyph glyph-name="braceright" unicode="}" horiz-adv-x="315" d="M106 693 C185 690 210 671 210 616 C210 596 207 577 196 519 C178 418 169 363 169 343 C169 305 189 281 233 268 C160 247 140 218 123 100 C111 36 107 14 101 -20 C95 -59 89 -79 77 -101 C56 -138 24 -153 -43 -157 L-48 -180 C-42 -181 -36 -181 -34 -181 C72 -181 115 -165 145 -111 C160 -84 165 -65 180 25 C190 87 198 137 203 175 C206 189 210 203 217 216 C232 243 254 254 294 255 L306 256 L311 280 C305 281 300 281 298 281 C251 284 234 298 234 334 C234 342 235 352 236 361 C276 565 281 592 281 619 C281 675 256 704 203 712 C176 715 167 716 106 717 L106 693 Z " />
<glyph glyph-name="asciitilde" unicode="~" horiz-adv-x="443" d="M118 600 C153 633 180 647 208 647 C222 647 229 645 264 632 C363 596 363 596 393 596 C437 596 479 617 516 658 L508 697 C467 657 440 643 405 643 C383 643 357 650 316 667 C268 687 247 693 223 693 C186 693 150 676 110 640 L118 600 Z " />
<glyph glyph-name="exclamdown" unicode="¡" horiz-adv-x="292" d="M43 -243 C63 -235 85 -228 119 -219 C126 -114 158 135 179 255 L172 259 C158 251 156 250 143 244 C112 92 56 -145 31 -235 L43 -243 Z M190 460 C158 460 134 430 134 391 C134 363 151 345 176 345 C207 345 233 375 233 412 C233 441 216 460 190 460 L190 460 Z " />
<glyph glyph-name="cent" unicode="¢" horiz-adv-x="498" d="M340 512 C354 510 363 508 376 503 C400 493 405 487 405 467 C405 448 405 437 404 414 L431 414 C438 464 445 507 452 529 C430 542 396 552 369 552 C362 552 356 552 345 550 C346 557 348 564 348 564 L350 578 C351 585 352 590 353 594 C355 603 356 612 358 620 L340 620 L323 620 L322 608 L320 589 C319 583 317 573 315 559 L312 542 C262 526 228 505 193 469 C145 418 115 338 115 258 C115 163 158 104 227 104 C230 104 234 104 243 105 C240 86 238 73 235 53 C231 30 229 23 225 5 C232 6 237 6 241 6 L261 5 C266 51 270 78 276 112 C313 120 353 143 413 191 L409 214 C337 170 319 162 284 160 L340 512 Z M252 159 C209 168 188 205 188 269 C188 334 207 406 235 453 C255 485 273 499 307 508 L252 159 Z " />
<glyph glyph-name="sterling" unicode="£" horiz-adv-x="498" d="M2 -25 C8 -21 12 -19 14 -18 C19 -15 29 -8 45 3 C57 12 68 18 85 29 C93 30 97 31 101 31 C115 31 151 26 179 20 C292 -5 352 -15 395 -15 C418 -15 431 -11 458 1 C460 14 461 21 461 26 C468 71 468 72 471 88 C474 103 477 119 479 134 L460 135 C448 96 444 88 433 79 C418 66 378 59 321 59 C303 59 283 60 262 62 C180 70 180 70 165 70 C144 70 131 68 102 60 C156 134 181 205 190 307 L217 307 L266 307 L308 307 L336 307 C338 321 338 323 342 339 L299 339 C264 338 264 338 253 338 C233 338 221 338 194 339 C207 478 209 495 222 533 C240 585 286 620 337 620 C381 620 418 594 418 564 C418 561 418 552 417 542 L417 530 L417 519 L441 519 C448 584 450 593 461 638 C431 659 411 665 379 665 C340 665 310 655 266 627 C186 577 145 533 131 479 C124 451 122 430 118 340 C99 339 86 339 78 339 C51 339 41 339 7 341 C6 324 6 322 2 306 C47 307 47 307 117 307 C113 164 101 100 70 56 C33 43 0 30 -20 21 L-20 4 C-20 0 -19 -9 -18 -20 L2 -25 Z " />
<glyph glyph-name="currency" unicode="¤" horiz-adv-x="591" d="M138 490 C99 432 86 395 86 343 C86 290 100 250 139 194 L54 109 C49 104 49 103 49 101 C49 99 49 98 54 93 L67 80 C72 76 73 75 75 75 C78 75 79 76 83 80 L169 166 C221 130 261 116 315 116 C368 116 406 128 462 165 L548 79 C552 75 553 74 555 74 C558 74 559 75 563 79 L577 93 C581 98 582 98 582 100 C582 103 581 103 577 108 L492 193 C532 253 546 291 546 342 C546 396 528 446 492 493 L576 577 C580 580 581 582 581 584 C581 587 580 588 576 592 L563 605 C559 609 557 610 555 610 C552 610 551 609 547 605 L464 522 C416 554 367 569 314 569 C259 569 213 554 166 520 L83 603 C78 607 77 608 75 608 C73 608 72 607 67 603 L54 590 C50 586 49 584 49 582 C49 580 50 578 54 574 L138 490 Z M316 516 C411 516 487 438 487 341 C487 247 409 170 315 170 C221 170 145 247 145 343 C145 438 222 516 316 516 L316 516 Z " />
<glyph glyph-name="yen" unicode="¥" horiz-adv-x="498" d="M312 365 L468 551 C521 615 531 623 576 631 L580 656 C546 652 528 651 492 651 C453 651 428 652 390 656 L385 631 C439 628 454 622 454 603 C454 593 454 592 423 549 L302 389 L244 534 C236 554 227 587 227 597 C227 618 239 625 286 631 L293 656 C255 652 235 651 185 651 C128 651 106 652 69 656 L64 631 C123 627 127 625 145 583 L165 538 L238 365 L77 365 C73 352 73 349 71 336 L233 336 L220 258 L59 258 C55 245 55 243 54 229 L214 229 L198 134 C187 71 180 45 172 37 C162 27 148 24 103 23 L97 -3 C154 1 182 2 217 2 C249 2 267 1 340 -3 L342 23 C272 26 263 30 263 59 C263 74 266 104 270 125 L288 229 L445 229 C449 242 449 244 451 258 L293 258 L307 336 L467 336 C471 350 471 352 473 365 L312 365 Z " />
<glyph glyph-name="brokenbar" unicode="¦" horiz-adv-x="500" d="M224 667 L224 333 L277 333 L277 667 L224 667 Z M224 153 L224 -167 L277 -167 L277 153 L224 153 Z " />
<glyph glyph-name="section" unicode="§" horiz-adv-x="498" d="M77 103 C71 72 60 31 46 -9 C85 -40 124 -53 174 -53 C285 -53 384 30 384 122 C384 156 370 179 335 203 C404 241 434 280 434 330 C434 377 412 402 333 444 C268 479 258 485 236 503 C212 522 199 547 199 574 C199 626 243 664 302 664 C343 664 371 652 402 622 L401 611 L400 595 C399 581 399 578 397 559 L421 558 C432 614 436 628 448 661 C413 685 381 694 335 694 C232 694 143 623 143 541 C143 511 153 488 177 462 C109 426 80 388 80 334 C80 280 112 249 225 191 C301 153 320 132 320 86 C320 26 268 -20 200 -20 C157 -20 123 -3 94 33 L95 54 C95 56 96 66 98 80 C98 83 99 91 100 101 L77 103 Z M315 214 C284 230 284 230 213 273 C154 309 137 329 137 365 C137 396 150 416 194 448 C221 432 235 424 254 413 C311 384 311 384 328 372 C360 351 373 329 373 299 C373 268 360 249 315 214 L315 214 Z " />
<glyph glyph-name="dieresis" unicode="¨" horiz-adv-x="500" d="M402 657 C375 657 351 628 351 594 C351 571 365 555 386 555 C414 555 436 582 436 616 C436 641 423 657 402 657 L402 657 Z M249 657 C221 657 198 628 198 594 C198 571 212 555 233 555 C260 555 282 582 282 616 C282 641 269 657 249 657 L249 657 Z " />
<glyph glyph-name="copyright" unicode="©" horiz-adv-x="799" d="M579 431 C582 477 584 491 594 522 C547 537 499 545 452 545 C308 545 213 462 213 337 C213 212 309 125 449 125 C497 125 539 135 587 159 C592 173 592 175 598 189 L589 198 C553 173 519 163 470 163 C358 163 284 237 284 348 C284 450 347 514 447 514 C487 514 526 504 545 488 C551 483 553 479 553 464 L554 431 L579 431 Z M419 681 C226 681 69 524 69 330 C69 139 226 -20 415 -20 C613 -20 769 135 769 331 C769 524 612 681 419 681 L419 681 Z M419 646 C592 646 734 504 734 331 C734 154 593 15 415 15 C245 15 104 158 104 330 C104 504 245 646 419 646 L419 646 Z " />
<glyph glyph-name="ordfeminine" unicode="ª" horiz-adv-x="293" d="M285 544 L268 533 C243 541 232 543 216 543 C180 543 132 518 109 487 C85 454 58 360 58 308 C58 273 65 257 80 257 C107 257 166 308 206 366 C193 315 189 297 189 281 C189 266 196 257 208 257 C226 257 264 281 295 312 L292 332 C266 313 253 304 246 304 C243 304 241 306 241 311 C241 333 272 460 295 536 L285 544 Z M238 500 C226 445 215 414 199 387 C180 354 128 303 114 303 C110 303 107 310 107 323 C107 365 132 458 153 495 C158 503 178 509 200 509 C211 509 226 506 238 500 L238 500 Z " />
<glyph glyph-name="guillemotleft" unicode="«" horiz-adv-x="426" d="M41 235 C120 141 124 135 184 59 L202 71 C175 122 144 180 113 239 C137 272 178 325 235 400 L222 417 C156 350 105 303 41 249 L41 235 Z M189 235 C236 178 278 122 323 59 L343 72 C298 156 274 202 254 241 L379 402 L361 417 C314 367 235 291 189 251 L189 235 Z " />
<glyph glyph-name="logicalnot" unicode="¬" horiz-adv-x="533" d="M-16 238 L-16 194 L427 194 L427 -29 L474 -29 L474 238 L-16 238 Z " />
<glyph glyph-name="uni00AD" unicode="­" horiz-adv-x="265" d="M0 209 C44 211 67 212 107 212 C152 212 180 211 250 209 C256 229 261 243 272 267 L271 271 C229 269 207 268 168 268 C126 268 98 269 18 272 C10 245 9 242 -2 216 L0 209 Z " />
<glyph glyph-name="registered" unicode="®" horiz-adv-x="799" d="M371 342 C402 306 422 281 456 235 C474 211 492 186 511 161 C515 156 522 147 531 135 C549 136 560 137 574 137 C585 137 592 137 626 135 L626 158 C605 160 597 162 589 166 C580 171 575 177 543 217 C535 228 518 250 492 281 C470 309 460 322 449 338 C521 352 564 395 564 450 C564 510 521 540 433 540 C428 540 417 540 402 539 C351 538 325 537 322 537 C315 537 285 538 234 539 L234 514 L246 514 C275 512 280 511 283 507 C289 500 290 472 290 357 C290 200 289 172 283 165 C281 162 280 162 245 159 C243 159 239 159 234 158 L234 135 C295 136 317 137 329 137 C352 137 371 136 407 135 L407 159 C366 161 361 161 357 165 C353 170 351 199 351 282 C351 417 351 474 353 504 C376 509 390 511 408 511 C465 511 497 485 497 438 C497 387 457 354 397 354 C391 354 385 355 375 356 L371 342 Z M419 681 C226 681 69 524 69 330 C69 139 226 -20 415 -20 C613 -20 769 135 769 331 C769 524 612 681 419 681 L419 681 Z M419 646 C592 646 734 504 734 331 C734 154 593 15 415 15 C245 15 104 158 104 330 C104 504 245 646 419 646 L419 646 Z " />
<glyph glyph-name="macron" unicode="¯" horiz-adv-x="500" d="M433 573 L442 616 L195 616 L187 573 L433 573 Z " />
<glyph glyph-name="degree" unicode="°" horiz-adv-x="279" d="M203 681 C150 681 107 638 107 585 C107 532 150 488 202 488 C257 488 300 531 300 585 C300 638 256 681 203 681 L203 681 Z M204 654 C241 654 273 622 273 585 C273 546 242 515 203 515 C165 515 134 547 134 585 C134 623 165 654 204 654 L204 654 Z " />
<glyph glyph-name="plusminus" unicode="±" horiz-adv-x="498" d="M56 358 L46 305 L235 305 L204 129 L260 129 L291 305 L480 305 L489 358 L301 358 L332 533 L275 533 L244 358 L56 358 Z M6 78 L-3 25 L430 25 L440 78 L6 78 Z " />
<glyph glyph-name="twosuperior" unicode="²" horiz-adv-x="333" d="M55 264 C135 267 142 267 167 267 L239 266 L283 265 L300 264 C307 298 307 298 310 309 L305 315 C282 311 278 311 240 310 L139 310 L116 310 L187 381 C289 483 311 517 311 572 C311 629 270 666 207 666 C176 666 152 659 124 640 C116 627 114 624 106 607 C96 587 94 585 85 569 L104 560 C130 605 153 622 189 622 C229 622 253 598 253 560 C253 499 199 423 54 280 L55 264 Z " />
<glyph glyph-name="threesuperior" unicode="³" horiz-adv-x="333" d="M78 371 C75 345 71 327 61 285 C93 264 116 257 151 257 C241 257 314 321 314 400 C314 451 285 481 227 491 C281 514 308 547 308 588 C308 635 273 666 219 666 C193 666 174 661 146 647 C132 623 128 616 110 588 L127 577 C153 614 170 626 199 626 C232 626 253 606 253 574 C253 531 216 497 171 497 C165 497 158 498 142 499 L129 466 L135 462 C155 467 164 469 179 469 C228 469 255 443 255 394 C255 330 215 282 161 282 C123 282 97 305 97 339 C97 346 98 353 100 369 L78 371 Z " />
<glyph glyph-name="acute" unicode="´" horiz-adv-x="500" d="M293 522 L436 613 C467 633 474 641 474 655 C474 670 461 683 447 683 C431 683 427 680 385 641 L260 522 L293 522 Z " />
<glyph glyph-name="uni00B5" unicode="µ" horiz-adv-x="548" d="M53 -154 C48 -112 47 -91 47 -59 C47 -17 50 20 58 80 C63 15 86 -11 139 -11 C208 -11 267 42 324 153 C321 129 320 117 320 103 C320 29 347 -10 399 -10 C433 -10 468 3 508 32 L505 51 C472 27 447 16 424 16 C395 16 379 41 379 84 C379 159 414 317 462 464 L390 456 L359 317 C337 218 291 121 235 58 C212 31 180 14 155 14 C123 14 106 40 106 88 C106 169 133 314 175 465 L97 455 L51 176 C48 153 45 138 44 130 C11 -21 -8 -129 -10 -167 L53 -154 Z " />
<glyph glyph-name="paragraph" unicode="¶" horiz-adv-x="498" d="M569 667 L355 667 C256 667 204 649 160 601 C124 561 102 503 102 447 C102 372 142 319 215 298 C246 289 270 285 317 281 L271 20 C250 -100 203 -166 138 -166 C114 -166 95 -154 95 -139 C95 -135 96 -132 98 -129 C109 -109 110 -107 110 -96 C110 -72 89 -53 62 -53 C31 -53 10 -74 10 -106 C10 -156 57 -193 121 -193 C173 -193 219 -169 248 -128 C275 -89 290 -43 305 46 L408 628 L549 637 L569 667 Z " />
<glyph glyph-name="periodcentered" unicode="·" horiz-adv-x="232" d="M128 301 C96 301 70 271 70 234 C70 205 87 186 114 186 C145 186 170 216 170 255 C170 283 153 301 128 301 L128 301 Z " />
<glyph glyph-name="cedilla" unicode="¸" horiz-adv-x="500" d="M244 0 L200 -75 L208 -81 C219 -77 224 -76 233 -76 C259 -76 276 -91 276 -113 C276 -138 254 -156 223 -156 C202 -156 186 -152 155 -138 L141 -167 C179 -182 200 -187 230 -187 C293 -187 337 -154 337 -107 C337 -70 310 -46 269 -46 C261 -46 256 -47 242 -49 L273 0 L244 0 Z " />
<glyph glyph-name="onesuperior" unicode="¹" horiz-adv-x="333" d="M90 264 C121 265 123 265 148 265 C179 266 193 266 203 266 C232 266 260 265 292 264 L296 287 C287 288 280 288 277 288 C232 291 223 295 223 317 C223 347 250 520 278 662 L266 671 C243 657 161 629 110 619 C108 605 106 592 104 580 L111 577 C144 592 199 615 218 622 C212 577 207 547 175 354 C165 294 163 292 114 289 C111 288 102 288 93 287 L90 264 Z " />
<glyph glyph-name="ordmasculine" unicode="º" horiz-adv-x="300" d="M216 543 C128 543 63 460 63 349 C63 289 90 257 138 257 C225 257 297 346 297 454 C297 511 268 543 216 543 L216 543 Z M196 517 C228 517 244 494 244 447 C244 409 237 373 224 338 C210 301 191 284 164 284 C132 284 115 307 115 350 C115 394 126 449 142 479 C155 504 173 517 196 517 L196 517 Z " />
<glyph glyph-name="guillemotright" unicode="»" horiz-adv-x="426" d="M390 241 C311 335 306 341 246 417 L228 405 C257 351 287 294 317 237 C293 204 253 150 196 76 L209 59 C275 125 326 173 390 226 L390 241 Z M242 240 C194 298 152 353 107 417 L88 404 C133 320 157 273 176 234 C136 182 92 125 52 74 L69 59 C116 109 195 184 242 224 L242 240 Z " />
<glyph glyph-name="onequarter" unicode="¼" horiz-adv-x="754" d="M90 264 C121 265 123 265 148 265 C179 266 193 266 203 266 C232 266 260 265 292 264 L296 287 C287 288 280 288 277 288 C232 291 223 295 223 317 C223 347 250 520 278 662 L266 671 C243 657 161 629 110 619 C108 605 106 592 104 580 L111 577 C144 592 199 615 218 622 C212 577 207 547 175 354 C165 294 163 292 114 289 C111 288 102 288 93 287 L90 264 Z M567 657 C567 655 567 654 564 650 C563 647 559 640 553 627 L231 85 C220 68 212 55 201 39 C191 25 182 11 172 -2 L182 -2 C189 -1 195 -1 197 -1 C203 -1 205 -1 221 -3 C221 2 225 9 234 25 L564 579 C587 616 593 623 617 658 C607 657 603 657 599 657 C591 657 588 657 568 660 L567 657 Z M488 -2 C557 0 562 0 584 0 C610 0 626 0 687 -2 L691 20 C627 25 622 26 622 39 C622 45 624 67 626 76 L631 109 L648 109 C664 109 664 109 700 107 C705 126 708 135 711 145 L707 151 C693 149 690 149 660 148 L637 148 L666 311 L669 329 C669 334 671 343 673 357 C676 374 677 376 681 398 L676 405 C660 400 657 399 655 399 C650 398 646 397 632 394 C560 307 474 192 433 129 L432 108 L498 109 L582 109 L576 78 C568 41 566 33 561 30 C556 25 546 24 491 21 L488 -2 Z M589 148 L544 148 C497 148 493 148 479 149 C505 188 570 276 623 345 L621 330 L616 304 C613 286 610 268 607 251 L589 148 Z " />
<glyph glyph-name="onehalf" unicode="½" horiz-adv-x="755" d="M90 264 C121 265 123 265 148 265 C179 266 193 266 203 266 C232 266 260 265 292 264 L296 287 C287 288 280 288 277 288 C232 291 223 295 223 317 C223 347 250 520 278 662 L266 671 C243 657 161 629 110 619 C108 605 106 592 104 580 L111 577 C144 592 199 615 218 622 C212 577 207 547 175 354 C165 294 163 292 114 289 C111 288 102 288 93 287 L90 264 Z M567 657 C567 655 567 654 564 650 C563 647 559 640 553 627 L231 85 C220 68 212 55 201 39 C191 25 182 11 172 -2 L182 -2 C189 -1 195 -1 197 -1 C203 -1 205 -1 221 -3 C221 2 225 9 234 25 L564 579 C587 616 593 623 617 658 C607 657 603 657 599 657 C591 657 588 657 568 660 L567 657 Z M430 -2 C511 0 517 0 542 0 C556 0 606 0 613 -1 L658 -2 L674 -2 C682 32 682 32 685 42 L680 48 C651 43 646 43 513 43 L491 43 C513 67 523 76 561 114 C663 215 686 250 686 305 C686 362 645 399 582 399 C551 399 527 392 498 374 C491 361 489 358 481 341 C470 321 469 319 460 303 L479 294 C505 338 528 355 564 355 C603 355 628 331 628 293 C628 231 576 159 429 14 L430 -2 Z " />
<glyph glyph-name="threequarters" unicode="¾" horiz-adv-x="754" d="M78 371 C75 345 71 327 61 285 C93 264 116 257 151 257 C241 257 314 321 314 400 C314 451 285 481 227 491 C281 514 308 547 308 588 C308 635 273 666 219 666 C193 666 174 661 146 647 C132 623 128 616 110 588 L127 577 C153 614 170 626 199 626 C232 626 253 606 253 574 C253 531 216 497 171 497 C165 497 158 498 142 499 L129 466 L135 462 C155 467 164 469 179 469 C228 469 255 443 255 394 C255 330 215 282 161 282 C123 282 97 305 97 339 C97 346 98 353 100 369 L78 371 Z M568 657 L565 650 C563 647 560 640 553 627 L231 85 C221 68 213 55 202 39 C192 25 182 11 173 -2 L183 -2 C190 -1 195 -1 198 -1 C203 -1 206 -1 221 -3 C222 2 225 9 234 25 L565 579 C588 616 593 623 618 658 C608 657 603 657 600 657 C592 657 589 657 568 660 L568 657 Z M488 -2 C557 0 562 0 584 0 C611 0 626 0 687 -2 L691 20 C627 25 622 26 622 39 C622 46 624 63 626 76 L632 109 L648 109 C664 109 664 109 700 107 C705 126 708 135 712 145 L707 151 C693 149 691 149 660 148 L638 148 L666 311 L669 329 C670 334 671 343 674 357 C677 374 677 376 681 398 L677 405 C661 400 658 399 655 399 L632 394 C560 307 474 192 433 129 L432 108 L498 109 L583 109 L576 78 C569 41 566 33 562 30 C556 25 546 24 491 21 L488 -2 Z M589 148 L545 148 C498 148 494 148 479 149 C505 188 570 276 624 345 L622 330 C620 321 618 313 617 304 C614 286 611 268 607 251 L589 148 Z " />
<glyph glyph-name="questiondown" unicode="¿" horiz-adv-x="390" d="M253 -107 L241 -125 C223 -153 216 -162 207 -169 C193 -181 168 -189 147 -189 C99 -189 63 -152 63 -103 C63 -63 78 -34 136 36 C190 100 190 100 204 122 C220 146 228 170 228 191 C228 224 208 247 161 270 C154 265 153 264 147 261 L147 256 C178 240 192 224 192 201 C192 174 179 155 124 101 C63 42 53 32 35 11 C1 -28 -18 -72 -18 -114 C-18 -193 40 -243 130 -243 C171 -243 196 -235 234 -208 C243 -179 250 -164 274 -113 L253 -107 Z M231 460 C199 460 175 430 175 391 C175 363 192 345 217 345 C248 345 274 375 274 412 C274 441 257 460 231 460 L231 460 Z " />
<glyph glyph-name="Agrave" unicode="À" horiz-adv-x="664" d="M399 674 L79 127 C41 59 29 40 21 34 C13 28 -2 24 -26 23 L-28 -4 C51 -1 66 0 83 0 C105 0 123 -1 182 -4 L183 23 L170 24 C120 26 98 35 98 52 C98 63 111 90 148 158 L208 266 C283 267 312 267 341 267 C379 267 387 267 442 266 L465 132 C477 59 477 59 477 54 C477 29 465 25 395 23 L395 -4 C450 -1 479 0 520 0 C559 0 583 -1 625 -4 L625 23 C582 25 567 29 559 39 C553 47 550 57 536 137 L442 674 L399 674 Z M390 580 L435 304 C402 303 360 302 310 302 C277 302 262 303 232 305 L390 580 Z M444 742 L379 866 C366 891 351 903 333 903 C317 903 303 890 303 875 C303 863 303 863 339 824 L416 742 L444 742 Z " />
<glyph glyph-name="Aacute" unicode="Á" horiz-adv-x="664" d="M399 674 L79 127 C41 59 29 40 21 34 C13 28 -2 24 -26 23 L-28 -4 C51 -1 66 0 83 0 C105 0 123 -1 182 -4 L183 23 L170 24 C120 26 98 35 98 52 C98 63 111 90 148 158 L208 266 C283 267 312 267 341 267 C379 267 387 267 442 266 L465 132 C477 59 477 59 477 54 C477 29 465 25 395 23 L395 -4 C450 -1 479 0 520 0 C559 0 583 -1 625 -4 L625 23 C582 25 567 29 559 39 C553 47 550 57 536 137 L442 674 L399 674 Z M390 580 L435 304 C402 303 360 302 310 302 C277 302 262 303 232 305 L390 580 Z M447 742 L591 834 C620 852 628 861 628 875 C628 890 615 903 601 903 C586 903 578 897 540 861 L415 742 L447 742 Z " />
<glyph glyph-name="Acircumflex" unicode="Â" horiz-adv-x="664" d="M399 674 L79 127 C41 59 29 40 21 34 C13 28 -2 24 -26 23 L-28 -4 C51 -1 66 0 83 0 C105 0 123 -1 182 -4 L183 23 L170 24 C120 26 98 35 98 52 C98 63 111 90 148 158 L208 266 C283 267 312 267 341 267 C379 267 387 267 442 266 L465 132 C477 59 477 59 477 54 C477 29 465 25 395 23 L395 -4 C450 -1 479 0 520 0 C559 0 583 -1 625 -4 L625 23 C582 25 567 29 559 39 C553 47 550 57 536 137 L442 674 L399 674 Z M390 580 L435 304 C402 303 360 302 310 302 C277 302 262 303 232 305 L390 580 Z M273 739 L309 739 L449 844 L537 739 L562 739 L479 902 L440 902 L273 739 Z " />
<glyph glyph-name="Atilde" unicode="Ã" horiz-adv-x="664" d="M399 674 L79 127 C41 59 29 40 21 34 C13 28 -2 24 -26 23 L-28 -4 C51 -1 66 0 83 0 C105 0 123 -1 182 -4 L183 23 L170 24 C120 26 98 35 98 52 C98 63 111 90 148 158 L208 266 C283 267 312 267 341 267 C379 267 387 267 442 266 L465 132 C477 59 477 59 477 54 C477 29 465 25 395 23 L395 -4 C450 -1 479 0 520 0 C559 0 583 -1 625 -4 L625 23 C582 25 567 29 559 39 C553 47 550 57 536 137 L442 674 L399 674 Z M390 580 L435 304 C402 303 360 302 310 302 C277 302 262 303 232 305 L390 580 Z M314 771 C329 804 341 816 364 816 C376 816 389 812 412 802 C471 774 477 772 497 772 C537 772 569 809 581 871 L562 871 C547 835 538 826 517 826 C504 826 491 830 465 842 C414 866 403 869 379 869 C353 869 332 857 316 832 C306 818 302 807 293 771 L314 771 Z " />
<glyph glyph-name="Adieresis" unicode="Ä" horiz-adv-x="664" d="M399 674 L79 127 C41 59 29 40 21 34 C13 28 -2 24 -26 23 L-28 -4 C51 -1 66 0 83 0 C105 0 123 -1 182 -4 L183 23 L170 24 C120 26 98 35 98 52 C98 63 111 90 148 158 L208 266 C283 267 312 267 341 267 C379 267 387 267 442 266 L465 132 C477 59 477 59 477 54 C477 29 465 25 395 23 L395 -4 C450 -1 479 0 520 0 C559 0 583 -1 625 -4 L625 23 C582 25 567 29 559 39 C553 47 550 57 536 137 L442 674 L399 674 Z M390 580 L435 304 C402 303 360 302 310 302 C277 302 262 303 232 305 L390 580 Z M516 874 C487 874 463 843 463 807 C463 783 478 766 499 766 C528 766 551 795 551 831 C551 858 538 874 516 874 L516 874 Z M363 874 C334 874 309 843 309 807 C309 783 324 766 346 766 C375 766 398 795 398 831 C398 858 385 874 363 874 L363 874 Z " />
<glyph glyph-name="Aring" unicode="Å" horiz-adv-x="664" d="M399 674 L79 127 C41 59 29 40 21 34 C13 28 -2 24 -26 23 L-28 -4 C51 -1 66 0 83 0 C105 0 123 -1 182 -4 L183 23 L170 24 C120 26 98 35 98 52 C98 63 111 90 148 158 L208 266 C283 267 312 267 341 267 C379 267 387 267 442 266 L465 132 C477 59 477 59 477 54 C477 29 465 25 395 23 L395 -4 C450 -1 479 0 520 0 C559 0 583 -1 625 -4 L625 23 C582 25 567 29 559 39 C553 47 550 57 536 137 L442 674 L399 674 Z M390 580 L435 304 C402 303 360 302 310 302 C277 302 262 303 232 305 L390 580 Z M454 918 C385 918 336 870 336 803 C336 757 367 729 419 729 C490 729 539 776 539 844 C539 891 508 918 454 918 L454 918 Z M451 899 C483 899 502 879 502 845 C502 789 469 748 423 748 C392 748 373 769 373 801 C373 858 406 899 451 899 L451 899 Z " />
<glyph glyph-name="AE" unicode="Æ" horiz-adv-x="841" d="M-26 -4 C12 -1 34 0 68 0 C96 0 121 -1 188 -4 L188 23 L173 24 C127 26 110 34 110 51 C110 64 129 103 163 159 L230 268 C242 269 251 269 253 269 C329 269 418 269 436 268 L411 129 C393 34 387 25 342 17 L340 -4 C454 0 454 0 475 0 C509 0 546 -1 611 -2 C652 -3 681 -4 701 -4 C729 -4 749 -3 780 -1 L787 5 C787 29 797 100 808 153 L780 153 C775 133 775 133 765 97 C753 51 752 49 739 46 C724 42 674 39 637 39 C546 39 511 40 475 45 C483 110 503 229 521 323 L564 323 C603 323 609 323 739 318 L741 323 C744 332 746 338 747 340 L754 354 C754 355 755 358 757 362 L753 369 C706 364 676 362 628 362 C595 362 570 363 528 366 C536 422 563 567 577 625 C608 627 621 627 643 627 C709 627 773 620 781 613 C788 606 791 587 793 521 L818 521 C820 552 822 578 824 590 C826 606 828 623 830 640 L832 656 L827 663 C799 667 779 668 759 668 C740 668 703 667 652 665 C621 664 586 664 544 664 C468 664 390 665 307 668 L306 641 C357 638 364 638 373 636 C394 632 404 626 404 617 C404 608 398 598 355 535 L106 156 C96 140 85 124 75 109 C35 48 26 36 13 30 C3 26 -7 24 -26 23 L-26 -4 Z M495 631 C492 603 488 573 478 512 L443 305 L414 305 C344 305 287 306 254 309 L401 527 C438 580 457 608 473 631 L495 631 Z " />
<glyph glyph-name="Ccedilla" unicode="Ç" horiz-adv-x="638" d="M383 -19 C468 -13 538 15 597 66 L607 100 L597 106 C522 54 461 32 388 32 C243 32 160 128 160 293 C160 383 182 467 223 532 C268 604 338 642 426 642 C485 642 540 625 579 596 C592 586 595 580 595 559 L594 504 L624 504 C627 548 634 591 647 642 C584 671 528 683 462 683 C362 683 275 650 202 583 C117 505 74 401 74 274 C74 87 171 -16 351 -20 L315 -83 L323 -89 C335 -84 341 -83 350 -83 C379 -83 398 -100 398 -124 C398 -152 374 -172 340 -172 C317 -172 298 -167 265 -153 L250 -184 C291 -201 314 -206 348 -206 C418 -206 466 -170 466 -117 C466 -77 436 -51 390 -51 C382 -51 376 -52 361 -55 L383 -19 Z " />
<glyph glyph-name="Egrave" unicode="È" horiz-adv-x="539" d="M27 -4 C93 -1 124 0 174 0 C215 0 242 0 326 -3 C358 -4 382 -4 401 -4 C429 -4 450 -3 478 -1 L484 6 C485 29 486 38 492 79 C496 98 498 113 505 153 L477 153 C473 135 473 135 463 99 C451 53 450 51 438 47 C422 42 377 39 322 39 C249 39 212 41 165 47 C172 110 189 223 207 322 C341 322 393 321 437 318 C443 334 445 339 446 342 L452 356 L455 363 L451 370 C395 365 359 363 311 363 C289 363 279 363 215 364 C230 469 251 590 260 625 C301 626 324 627 352 627 C403 627 449 624 468 619 C485 614 488 605 490 545 L491 521 L516 521 C518 555 520 578 522 593 L529 646 L530 656 L526 663 C496 667 474 668 439 668 C420 668 390 667 351 666 C303 665 270 664 242 664 C196 664 129 666 96 668 L91 641 C171 635 175 633 175 603 C175 567 98 102 85 59 C80 42 80 42 38 26 L32 23 L27 -4 Z M402 742 L337 866 C324 891 309 903 291 903 C275 903 261 890 261 875 C261 863 261 863 297 824 L374 742 L402 742 Z " />
<glyph glyph-name="Eacute" unicode="É" horiz-adv-x="539" d="M27 -4 C93 -1 124 0 174 0 C215 0 242 0 326 -3 C358 -4 382 -4 401 -4 C429 -4 450 -3 478 -1 L484 6 C485 29 486 38 492 79 C496 98 498 113 505 153 L477 153 C473 135 473 135 463 99 C451 53 450 51 438 47 C422 42 377 39 322 39 C249 39 212 41 165 47 C172 110 189 223 207 322 C341 322 393 321 437 318 C443 334 445 339 446 342 L452 356 L455 363 L451 370 C395 365 359 363 311 363 C289 363 279 363 215 364 C230 469 251 590 260 625 C301 626 324 627 352 627 C403 627 449 624 468 619 C485 614 488 605 490 545 L491 521 L516 521 C518 555 520 578 522 593 L529 646 L530 656 L526 663 C496 667 474 668 439 668 C420 668 390 667 351 666 C303 665 270 664 242 664 C196 664 129 666 96 668 L91 641 C171 635 175 633 175 603 C175 567 98 102 85 59 C80 42 80 42 38 26 L32 23 L27 -4 Z M345 742 L488 834 C519 853 526 861 526 875 C526 890 513 903 499 903 C484 903 475 897 437 861 L312 742 L345 742 Z " />
<glyph glyph-name="Ecircumflex" unicode="Ê" horiz-adv-x="539" d="M27 -4 C93 -1 124 0 174 0 C215 0 242 0 326 -3 C358 -4 382 -4 401 -4 C429 -4 450 -3 478 -1 L484 6 C485 29 486 38 492 79 C496 98 498 113 505 153 L477 153 C473 135 473 135 463 99 C451 53 450 51 438 47 C422 42 377 39 322 39 C249 39 212 41 165 47 C172 110 189 223 207 322 C341 322 393 321 437 318 C443 334 445 339 446 342 L452 356 L455 363 L451 370 C395 365 359 363 311 363 C289 363 279 363 215 364 C230 469 251 590 260 625 C301 626 324 627 352 627 C403 627 449 624 468 619 C485 614 488 605 490 545 L491 521 L516 521 C518 555 520 578 522 593 L529 646 L530 656 L526 663 C496 667 474 668 439 668 C420 668 390 667 351 666 C303 665 270 664 242 664 C196 664 129 666 96 668 L91 641 C171 635 175 633 175 603 C175 567 98 102 85 59 C80 42 80 42 38 26 L32 23 L27 -4 Z M197 739 L233 739 L373 844 L461 739 L486 739 L404 902 L364 902 L197 739 Z " />
<glyph glyph-name="Edieresis" unicode="Ë" horiz-adv-x="539" d="M27 -4 C93 -1 124 0 174 0 C215 0 242 0 326 -3 C358 -4 382 -4 401 -4 C429 -4 450 -3 478 -1 L484 6 C485 29 486 38 492 79 C496 98 498 113 505 153 L477 153 C473 135 473 135 463 99 C451 53 450 51 438 47 C422 42 377 39 322 39 C249 39 212 41 165 47 C172 110 189 223 207 322 C341 322 393 321 437 318 C443 334 445 339 446 342 L452 356 L455 363 L451 370 C395 365 359 363 311 363 C289 363 279 363 215 364 C230 469 251 590 260 625 C301 626 324 627 352 627 C403 627 449 624 468 619 C485 614 488 605 490 545 L491 521 L516 521 C518 555 520 578 522 593 L529 646 L530 656 L526 663 C496 667 474 668 439 668 C420 668 390 667 351 666 C303 665 270 664 242 664 C196 664 129 666 96 668 L91 641 C171 635 175 633 175 603 C175 567 98 102 85 59 C80 42 80 42 38 26 L32 23 L27 -4 Z M447 874 C418 874 394 843 394 807 C394 783 409 766 430 766 C459 766 482 795 482 831 C482 858 469 874 447 874 L447 874 Z M294 874 C265 874 240 843 240 807 C240 783 255 766 277 766 C306 766 329 795 329 831 C329 858 316 874 294 874 L294 874 Z " />
<glyph glyph-name="Igrave" unicode="Ì" horiz-adv-x="308" d="M2 -4 C95 -1 127 0 138 0 C171 0 193 -1 241 -4 L245 23 C178 27 167 32 167 59 C167 81 182 176 212 349 C219 389 227 439 239 508 C250 571 256 602 260 617 C267 635 275 638 323 640 L339 641 L343 668 C290 665 260 664 217 664 C176 664 148 665 97 668 L93 641 C168 636 176 632 176 603 C176 578 163 490 137 346 C121 252 110 187 105 160 C88 54 84 40 69 33 C57 27 39 24 6 23 L2 -4 Z M285 742 L220 866 C207 891 192 903 175 903 C159 903 145 890 145 875 C145 863 145 863 180 824 L258 742 L285 742 Z " />
<glyph glyph-name="Iacute" unicode="Í" horiz-adv-x="308" d="M2 -4 C95 -1 127 0 138 0 C171 0 193 -1 241 -4 L245 23 C178 27 167 32 167 59 C167 81 182 176 212 349 C219 389 227 439 239 508 C250 571 256 602 260 617 C267 635 275 638 323 640 L339 641 L343 668 C290 665 260 664 217 664 C176 664 148 665 97 668 L93 641 C168 636 176 632 176 603 C176 578 163 490 137 346 C121 252 110 187 105 160 C88 54 84 40 69 33 C57 27 39 24 6 23 L2 -4 Z M229 742 L372 834 C404 854 410 861 410 875 C410 890 397 903 382 903 C368 903 357 896 321 861 L196 742 L229 742 Z " />
<glyph glyph-name="Icircumflex" unicode="Î" horiz-adv-x="308" d="M2 -4 C95 -1 127 0 138 0 C171 0 193 -1 241 -4 L245 23 C178 27 167 32 167 59 C167 81 182 176 212 349 C219 389 227 439 239 508 C250 571 256 602 260 617 C267 635 275 638 323 640 L339 641 L343 668 C290 665 260 664 217 664 C176 664 148 665 97 668 L93 641 C168 636 176 632 176 603 C176 578 163 490 137 346 C121 252 110 187 105 160 C88 54 84 40 69 33 C57 27 39 24 6 23 L2 -4 Z M81 739 L117 739 L257 844 L345 739 L370 739 L287 902 L248 902 L81 739 Z " />
<glyph glyph-name="Idieresis" unicode="Ï" horiz-adv-x="308" d="M2 -4 C95 -1 127 0 138 0 C171 0 193 -1 241 -4 L245 23 C178 27 167 32 167 59 C167 81 182 176 212 349 C219 389 227 439 239 508 C250 571 256 602 260 617 C267 635 275 638 323 640 L339 641 L343 668 C290 665 260 664 217 664 C176 664 148 665 97 668 L93 641 C168 636 176 632 176 603 C176 578 163 490 137 346 C121 252 110 187 105 160 C88 54 84 40 69 33 C57 27 39 24 6 23 L2 -4 Z M324 874 C295 874 271 843 271 807 C271 783 286 766 307 766 C336 766 359 795 359 831 C359 858 346 874 324 874 L324 874 Z M184 874 C155 874 131 843 131 807 C131 783 146 766 167 766 C196 766 219 795 219 831 C219 858 206 874 184 874 L184 874 Z " />
<glyph glyph-name="Eth" unicode="Ð" horiz-adv-x="706" d="M11 -4 C45 -1 83 0 110 0 C128 0 139 0 153 -1 C230 -5 230 -5 250 -5 C338 -5 398 9 461 45 C592 119 671 257 671 413 C671 587 583 669 395 669 C374 669 342 668 306 667 C265 665 233 664 212 664 C164 664 109 666 79 668 L75 641 L93 640 C154 635 161 632 161 604 C161 584 151 519 124 363 C115 362 105 362 103 362 C57 362 23 362 8 363 C7 353 6 348 5 346 C5 343 4 341 2 331 C71 332 110 332 119 333 C112 291 111 285 102 238 C94 193 89 162 86 146 C71 58 67 46 55 40 C48 35 33 29 16 23 L11 -4 Z M255 332 L290 332 L323 331 C325 340 326 344 327 347 L330 358 L332 365 C267 364 232 363 227 363 L208 363 L198 363 C231 556 237 591 245 624 C285 627 308 628 341 628 C423 628 476 615 516 584 C562 548 587 485 587 405 C587 302 554 201 497 128 C446 65 384 38 286 38 C245 38 210 41 150 50 C158 117 167 177 193 333 L255 332 Z " />
<glyph glyph-name="Ntilde" unicode="Ñ" horiz-adv-x="719" d="M6 -4 C73 -1 91 0 103 0 C113 0 140 -1 181 -2 C186 -3 199 -3 214 -4 L216 23 L206 24 C158 28 158 28 150 31 C140 35 135 45 135 62 C135 84 150 176 188 397 C199 458 208 507 214 545 C369 274 474 88 530 -14 L575 -14 C597 123 608 185 674 547 C690 635 691 637 747 641 L761 641 L763 668 C719 665 695 664 663 664 C632 664 607 665 559 668 L557 641 C628 636 635 633 635 606 C635 592 632 574 618 490 C617 487 603 402 589 317 C570 201 567 181 552 99 C338 469 268 593 230 668 C197 665 181 664 156 664 C130 664 112 665 77 668 L76 641 C151 634 153 634 184 591 C155 421 134 311 87 75 C78 34 64 25 7 23 L6 -4 Z M328 771 C343 804 355 816 378 816 C390 816 403 812 426 802 C485 774 491 772 511 772 C551 772 583 809 595 871 L576 871 C561 835 552 826 531 826 C518 826 505 830 479 842 C428 866 417 869 393 869 C367 869 346 857 330 832 C320 818 316 807 307 771 L328 771 Z " />
<glyph glyph-name="Ograve" unicode="Ò" horiz-adv-x="738" d="M454 683 C344 683 258 649 192 579 C114 497 70 374 70 243 C70 73 161 -20 329 -20 C436 -20 526 21 594 102 C666 188 706 302 706 421 C706 590 616 683 454 683 L454 683 Z M427 646 C487 646 542 623 573 585 C604 547 619 493 619 419 C619 314 595 211 551 135 C510 62 434 17 353 17 C293 17 234 43 201 85 C171 122 155 179 155 249 C155 351 180 453 222 529 C266 607 335 646 427 646 L427 646 Z M501 742 L436 866 C423 891 408 903 391 903 C375 903 361 890 361 875 C361 863 361 863 396 824 L474 742 L501 742 Z " />
<glyph glyph-name="Oacute" unicode="Ó" horiz-adv-x="738" d="M454 683 C344 683 258 649 192 579 C114 497 70 374 70 243 C70 73 161 -20 329 -20 C436 -20 526 21 594 102 C666 188 706 302 706 421 C706 590 616 683 454 683 L454 683 Z M427 646 C487 646 542 623 573 585 C604 547 619 493 619 419 C619 314 595 211 551 135 C510 62 434 17 353 17 C293 17 234 43 201 85 C171 122 155 179 155 249 C155 351 180 453 222 529 C266 607 335 646 427 646 L427 646 Z M445 742 L588 834 C620 854 626 861 626 875 C626 890 613 903 598 903 C584 903 573 896 537 861 L412 742 L445 742 Z " />
<glyph glyph-name="Ocircumflex" unicode="Ô" horiz-adv-x="738" d="M454 683 C344 683 258 649 192 579 C114 497 70 374 70 243 C70 73 161 -20 329 -20 C436 -20 526 21 594 102 C666 188 706 302 706 421 C706 590 616 683 454 683 L454 683 Z M427 646 C487 646 542 623 573 585 C604 547 619 493 619 419 C619 314 595 211 551 135 C510 62 434 17 353 17 C293 17 234 43 201 85 C171 122 155 179 155 249 C155 351 180 453 222 529 C266 607 335 646 427 646 L427 646 Z M304 739 L340 739 L480 844 L568 739 L592 739 L510 902 L470 902 L304 739 Z " />
<glyph glyph-name="Otilde" unicode="Õ" horiz-adv-x="738" d="M454 683 C344 683 258 649 192 579 C114 497 70 374 70 243 C70 73 161 -20 329 -20 C436 -20 526 21 594 102 C666 188 706 302 706 421 C706 590 616 683 454 683 L454 683 Z M427 646 C487 646 542 623 573 585 C604 547 619 493 619 419 C619 314 595 211 551 135 C510 62 434 17 353 17 C293 17 234 43 201 85 C171 122 155 179 155 249 C155 351 180 453 222 529 C266 607 335 646 427 646 L427 646 Z M338 771 C352 804 365 816 388 816 C400 816 413 812 436 802 C495 774 501 772 521 772 C561 772 593 809 605 871 L585 871 C571 835 562 826 541 826 C527 826 515 830 489 842 C437 866 427 869 402 869 C377 869 356 857 339 832 C330 818 326 807 317 771 L338 771 Z " />
<glyph glyph-name="Odieresis" unicode="Ö" horiz-adv-x="738" d="M454 683 C344 683 258 649 192 579 C114 497 70 374 70 243 C70 73 161 -20 329 -20 C436 -20 526 21 594 102 C666 188 706 302 706 421 C706 590 616 683 454 683 L454 683 Z M427 646 C487 646 542 623 573 585 C604 547 619 493 619 419 C619 314 595 211 551 135 C510 62 434 17 353 17 C293 17 234 43 201 85 C171 122 155 179 155 249 C155 351 180 453 222 529 C266 607 335 646 427 646 L427 646 Z M547 874 C518 874 493 843 493 807 C493 783 508 766 530 766 C559 766 582 795 582 831 C582 858 569 874 547 874 L547 874 Z M393 874 C364 874 340 843 340 807 C340 783 355 766 376 766 C405 766 428 795 428 831 C428 858 415 874 393 874 L393 874 Z " />
<glyph glyph-name="multiply" unicode="×" horiz-adv-x="498" d="M47 177 L79 138 L263 294 L390 140 L431 175 L305 329 L488 485 L456 525 L272 369 L145 523 L104 487 L230 333 L47 177 Z " />
<glyph glyph-name="Oslash" unicode="Ø" horiz-adv-x="738" d="M661 677 C644 657 631 642 623 632 C577 667 524 683 450 683 C344 683 256 647 192 579 C115 496 70 374 70 246 C70 177 82 126 109 82 C75 47 55 28 24 0 C26 -3 30 -5 32 -7 C46 -20 47 -22 60 -36 C86 -5 101 13 135 49 C182 3 247 -20 329 -20 C436 -20 526 21 594 102 C666 188 706 302 706 421 C706 499 689 556 653 603 C676 628 696 647 732 682 C708 705 705 708 696 719 L661 677 Z M598 545 C613 508 619 471 619 416 C619 313 594 211 551 135 C510 62 434 17 353 17 C282 17 225 47 187 105 C380 313 517 459 598 545 L598 545 Z M169 146 C160 177 155 214 155 257 C155 350 181 454 223 529 C265 605 336 646 424 646 C492 646 542 625 577 581 C454 449 291 275 169 146 L169 146 Z " />
<glyph glyph-name="Ugrave" unicode="Ù" horiz-adv-x="729" d="M90 641 C161 636 173 631 173 607 C173 588 157 487 133 353 C106 203 101 168 101 130 C101 41 170 -20 270 -20 C354 -20 435 24 524 118 C518 77 513 51 500 1 L503 -4 C543 -1 561 0 583 0 C601 0 614 -1 667 -4 L670 23 C601 25 590 30 590 61 C590 86 604 183 636 366 C646 424 659 504 665 538 C681 630 682 633 710 636 L744 640 L756 641 L756 668 C715 665 693 664 649 664 C598 664 570 665 519 668 L515 641 C588 637 599 632 599 604 C599 589 596 565 587 514 L562 359 C543 236 543 235 532 173 C463 82 390 38 305 38 C224 38 178 78 178 149 C178 210 224 493 262 662 L257 668 C225 665 207 664 177 664 C146 664 128 665 94 668 L90 641 Z M497 742 L432 866 C419 891 404 903 386 903 C370 903 356 890 356 875 C356 863 356 863 392 824 L469 742 L497 742 Z " />
<glyph glyph-name="Uacute" unicode="Ú" horiz-adv-x="729" d="M90 641 C161 636 173 631 173 607 C173 588 157 487 133 353 C106 203 101 168 101 130 C101 41 170 -20 270 -20 C354 -20 435 24 524 118 C518 77 513 51 500 1 L503 -4 C543 -1 561 0 583 0 C601 0 614 -1 667 -4 L670 23 C601 25 590 30 590 61 C590 86 604 183 636 366 C646 424 659 504 665 538 C681 630 682 633 710 636 L744 640 L756 641 L756 668 C715 665 693 664 649 664 C598 664 570 665 519 668 L515 641 C588 637 599 632 599 604 C599 589 596 565 587 514 L562 359 C543 236 543 235 532 173 C463 82 390 38 305 38 C224 38 178 78 178 149 C178 210 224 493 262 662 L257 668 C225 665 207 664 177 664 C146 664 128 665 94 668 L90 641 Z M440 742 L583 834 C614 853 621 861 621 875 C621 890 608 903 594 903 C579 903 570 897 532 861 L407 742 L440 742 Z " />
<glyph glyph-name="Ucircumflex" unicode="Û" horiz-adv-x="729" d="M90 641 C161 636 173 631 173 607 C173 588 157 487 133 353 C106 203 101 168 101 130 C101 41 170 -20 270 -20 C354 -20 435 24 524 118 C518 77 513 51 500 1 L503 -4 C543 -1 561 0 583 0 C601 0 614 -1 667 -4 L670 23 C601 25 590 30 590 61 C590 86 604 183 636 366 C646 424 659 504 665 538 C681 630 682 633 710 636 L744 640 L756 641 L756 668 C715 665 693 664 649 664 C598 664 570 665 519 668 L515 641 C588 637 599 632 599 604 C599 589 596 565 587 514 L562 359 C543 236 543 235 532 173 C463 82 390 38 305 38 C224 38 178 78 178 149 C178 210 224 493 262 662 L257 668 C225 665 207 664 177 664 C146 664 128 665 94 668 L90 641 Z M292 739 L328 739 L468 844 L556 739 L581 739 L499 902 L459 902 L292 739 Z " />
<glyph glyph-name="Udieresis" unicode="Ü" horiz-adv-x="729" d="M90 641 C161 636 173 631 173 607 C173 588 157 487 133 353 C106 203 101 168 101 130 C101 41 170 -20 270 -20 C354 -20 435 24 524 118 C518 77 513 51 500 1 L503 -4 C543 -1 561 0 583 0 C601 0 614 -1 667 -4 L670 23 C601 25 590 30 590 61 C590 86 604 183 636 366 C646 424 659 504 665 538 C681 630 682 633 710 636 L744 640 L756 641 L756 668 C715 665 693 664 649 664 C598 664 570 665 519 668 L515 641 C588 637 599 632 599 604 C599 589 596 565 587 514 L562 359 C543 236 543 235 532 173 C463 82 390 38 305 38 C224 38 178 78 178 149 C178 210 224 493 262 662 L257 668 C225 665 207 664 177 664 C146 664 128 665 94 668 L90 641 Z M542 874 C513 874 489 843 489 807 C489 783 504 766 525 766 C554 766 577 795 577 831 C577 858 564 874 542 874 L542 874 Z M389 874 C360 874 335 843 335 807 C335 783 350 766 372 766 C401 766 424 795 424 831 C424 858 411 874 389 874 L389 874 Z " />
<glyph glyph-name="Yacute" unicode="Ý" horiz-adv-x="590" d="M159 -4 C236 0 253 0 291 0 C329 0 356 -1 405 -4 L411 23 C334 27 328 29 328 54 C328 67 334 105 349 184 C374 318 418 410 505 509 C555 566 592 590 642 600 L655 664 L647 668 C566 671 426 503 342 300 C313 430 280 531 244 602 C220 649 183 677 144 677 C142 677 137 677 132 676 C126 673 121 671 115 667 C95 656 81 648 76 645 C65 640 59 637 44 630 L45 607 C69 610 79 611 92 611 C148 611 174 586 213 489 C250 397 283 280 283 241 C283 215 274 166 251 55 C244 26 244 26 162 23 L159 -4 Z M370 742 L513 834 C544 853 551 861 551 875 C551 890 538 903 524 903 C508 903 505 901 463 861 L337 742 L370 742 Z " />
<glyph glyph-name="Thorn" unicode="Þ" horiz-adv-x="548" d="M3 -4 C17 -3 28 -3 31 -3 C84 -1 119 0 130 0 C134 0 171 -1 222 -3 C227 -3 241 -3 258 -4 L261 23 C179 27 167 32 167 60 C167 82 189 219 212 349 C239 495 241 505 247 537 C274 543 290 545 310 545 C396 545 448 495 448 411 C448 300 382 219 292 219 C269 219 255 223 232 234 L227 230 L228 204 C258 191 278 187 309 187 C433 187 533 295 533 428 C533 525 474 576 363 576 C351 576 334 576 315 575 L253 572 C256 597 259 611 261 619 C267 635 275 638 322 640 L339 641 L342 668 C292 665 262 664 217 664 C174 664 146 665 96 668 L94 641 C166 636 175 632 175 604 C175 572 107 154 87 62 C80 31 69 26 6 23 L3 -4 Z " />
<glyph glyph-name="germandbls" unicode="ß" horiz-adv-x="485" d="M218 105 C213 69 204 28 196 0 C226 -13 241 -17 263 -17 C303 -17 339 2 380 44 C415 80 435 119 435 151 C435 177 423 206 390 259 C356 313 348 331 348 354 C348 373 359 397 384 427 C433 487 433 487 448 511 C467 541 476 572 476 600 C476 659 440 698 386 698 C358 698 333 690 289 666 C244 641 198 608 180 586 C157 560 152 543 129 420 C106 408 78 397 46 387 L42 365 L58 366 L99 368 L120 369 C73 82 49 -49 30 -111 C10 -180 -14 -209 -52 -209 C-69 -209 -82 -202 -103 -182 L-113 -184 C-115 -201 -122 -226 -135 -262 C-119 -268 -112 -270 -101 -270 C-41 -270 28 -208 73 -113 C105 -46 135 78 184 344 C218 533 219 540 232 570 C254 625 293 656 337 656 C384 656 414 620 414 566 C414 517 401 490 329 396 C301 359 290 336 290 315 C290 295 302 266 331 218 C363 164 372 141 372 113 C372 64 337 22 295 22 C281 22 264 28 249 38 C237 46 235 51 235 67 L235 92 L234 105 L218 105 Z " />
<glyph glyph-name="agrave" unicode="à" horiz-adv-x="445" d="M398 457 L371 440 C328 454 312 457 287 457 C248 457 219 447 175 417 C148 398 132 383 118 364 C80 310 37 152 37 67 C37 9 47 -17 68 -17 C90 -17 138 17 190 69 C223 102 242 127 283 194 C280 181 278 171 277 168 C253 70 248 47 248 18 C248 -5 257 -17 273 -17 C300 -17 361 23 409 73 L405 95 C368 65 346 52 335 52 C326 52 321 58 321 70 C321 108 369 317 408 449 L398 457 Z M328 394 C308 296 290 241 264 195 C229 135 146 50 122 50 C111 50 105 65 105 88 C105 127 116 195 133 255 C145 298 170 365 181 385 C189 399 223 410 261 410 C282 410 304 405 328 394 L328 394 Z M342 522 L277 646 C264 671 249 683 232 683 C216 683 202 670 202 655 C202 643 202 643 237 604 L315 522 L342 522 Z " />
<glyph glyph-name="aacute" unicode="á" horiz-adv-x="445" d="M398 457 L371 440 C328 454 312 457 287 457 C248 457 219 447 175 417 C148 398 132 383 118 364 C80 310 37 152 37 67 C37 9 47 -17 68 -17 C90 -17 138 17 190 69 C223 102 242 127 283 194 C280 181 278 171 277 168 C253 70 248 47 248 18 C248 -5 257 -17 273 -17 C300 -17 361 23 409 73 L405 95 C368 65 346 52 335 52 C326 52 321 58 321 70 C321 108 369 317 408 449 L398 457 Z M328 394 C308 296 290 241 264 195 C229 135 146 50 122 50 C111 50 105 65 105 88 C105 127 116 195 133 255 C145 298 170 365 181 385 C189 399 223 410 261 410 C282 410 304 405 328 394 L328 394 Z M266 522 L409 613 C440 633 447 641 447 655 C447 670 434 683 419 683 C404 683 396 677 358 641 L233 522 L266 522 Z " />
<glyph glyph-name="acircumflex" unicode="â" horiz-adv-x="445" d="M398 457 L371 440 C328 454 312 457 287 457 C248 457 219 447 175 417 C148 398 132 383 118 364 C80 310 37 152 37 67 C37 9 47 -17 68 -17 C90 -17 138 17 190 69 C223 102 242 127 283 194 C280 181 278 171 277 168 C253 70 248 47 248 18 C248 -5 257 -17 273 -17 C300 -17 361 23 409 73 L405 95 C368 65 346 52 335 52 C326 52 321 58 321 70 C321 108 369 317 408 449 L398 457 Z M328 394 C308 296 290 241 264 195 C229 135 146 50 122 50 C111 50 105 65 105 88 C105 127 116 195 133 255 C145 298 170 365 181 385 C189 399 223 410 261 410 C282 410 304 405 328 394 L328 394 Z M135 519 L171 519 L311 624 L399 519 L424 519 L341 682 L301 682 L135 519 Z " />
<glyph glyph-name="atilde" unicode="ã" horiz-adv-x="445" d="M398 457 L371 440 C328 454 312 457 287 457 C248 457 219 447 175 417 C148 398 132 383 118 364 C80 310 37 152 37 67 C37 9 47 -17 68 -17 C90 -17 138 17 190 69 C223 102 242 127 283 194 C280 181 278 171 277 168 C253 70 248 47 248 18 C248 -5 257 -17 273 -17 C300 -17 361 23 409 73 L405 95 C368 65 346 52 335 52 C326 52 321 58 321 70 C321 108 369 317 408 449 L398 457 Z M328 394 C308 296 290 241 264 195 C229 135 146 50 122 50 C111 50 105 65 105 88 C105 127 116 195 133 255 C145 298 170 365 181 385 C189 399 223 410 261 410 C282 410 304 405 328 394 L328 394 Z M173 557 C188 590 201 602 223 602 C236 602 248 598 271 588 C330 560 337 558 356 558 C396 558 428 595 440 657 L421 657 C406 621 398 612 377 612 C363 612 350 616 324 628 C273 652 262 655 238 655 C212 655 191 643 175 618 C166 604 161 593 152 557 L173 557 Z " />
<glyph glyph-name="adieresis" unicode="ä" horiz-adv-x="445" d="M398 457 L371 440 C328 454 312 457 287 457 C248 457 219 447 175 417 C148 398 132 383 118 364 C80 310 37 152 37 67 C37 9 47 -17 68 -17 C90 -17 138 17 190 69 C223 102 242 127 283 194 C280 181 278 171 277 168 C253 70 248 47 248 18 C248 -5 257 -17 273 -17 C300 -17 361 23 409 73 L405 95 C368 65 346 52 335 52 C326 52 321 58 321 70 C321 108 369 317 408 449 L398 457 Z M328 394 C308 296 290 241 264 195 C229 135 146 50 122 50 C111 50 105 65 105 88 C105 127 116 195 133 255 C145 298 170 365 181 385 C189 399 223 410 261 410 C282 410 304 405 328 394 L328 394 Z M375 657 C347 657 324 628 324 594 C324 571 338 555 359 555 C386 555 408 582 408 616 C408 641 395 657 375 657 L375 657 Z M221 657 C194 657 170 628 170 594 C170 571 184 555 205 555 C233 555 255 582 255 616 C255 641 242 657 221 657 L221 657 Z " />
<glyph glyph-name="aring" unicode="å" horiz-adv-x="445" d="M398 457 L371 440 C328 454 312 457 287 457 C248 457 219 447 175 417 C148 398 132 383 118 364 C80 310 37 152 37 67 C37 9 47 -17 68 -17 C90 -17 138 17 190 69 C223 102 242 127 283 194 C280 181 278 171 277 168 C253 70 248 47 248 18 C248 -5 257 -17 273 -17 C300 -17 361 23 409 73 L405 95 C368 65 346 52 335 52 C326 52 321 58 321 70 C321 108 369 317 408 449 L398 457 Z M328 394 C308 296 290 241 264 195 C229 135 146 50 122 50 C111 50 105 65 105 88 C105 127 116 195 133 255 C145 298 170 365 181 385 C189 399 223 410 261 410 C282 410 304 405 328 394 L328 394 Z M320 705 C251 705 202 657 202 589 C202 543 233 515 285 515 C356 515 405 562 405 630 C405 678 374 705 320 705 L320 705 Z M317 686 C349 686 368 665 368 632 C368 575 335 534 289 534 C258 534 239 555 239 588 C239 645 272 686 317 686 L317 686 Z " />
<glyph glyph-name="ae" unicode="æ" horiz-adv-x="624" d="M138 407 C160 415 171 417 188 417 C248 417 293 369 293 304 C293 286 292 274 288 238 C272 240 264 240 253 240 C88 240 22 194 22 81 C22 18 55 -17 113 -17 C163 -17 204 6 273 72 C288 10 321 -17 380 -17 C434 -17 492 13 568 81 L561 103 C496 52 453 31 412 31 C364 31 338 62 338 119 C338 146 341 174 349 217 C421 223 462 232 504 251 C566 281 604 329 604 378 C604 424 573 457 530 457 C479 457 420 427 354 368 C328 429 287 457 224 457 C183 457 168 451 92 406 L97 341 L114 337 L138 407 Z M353 239 C360 283 367 308 378 333 C401 384 443 417 485 417 C514 417 532 397 532 366 C532 305 465 251 376 242 C373 241 365 241 353 239 L353 239 Z M285 215 C280 168 272 135 258 107 C236 60 195 32 149 32 C111 32 92 54 92 97 C92 138 112 177 143 194 C170 209 208 216 260 216 L285 215 Z " />
<glyph glyph-name="ccedilla" unicode="ç" horiz-adv-x="383" d="M186 -14 C236 -4 278 21 349 85 L342 105 C337 101 332 97 327 94 C266 49 233 34 193 34 C146 34 115 74 115 138 C115 200 132 282 158 342 C178 388 212 409 264 409 C286 409 306 404 323 393 C334 386 337 382 337 369 L337 362 C336 346 336 341 335 311 L359 311 C362 354 365 370 381 433 C351 451 331 457 304 457 C271 457 241 447 195 421 C157 400 131 380 114 360 C73 311 43 212 43 125 C43 35 81 -13 156 -16 L122 -75 L130 -81 C141 -76 146 -75 155 -75 C181 -75 198 -90 198 -112 C198 -138 177 -156 145 -156 C124 -156 108 -152 76 -138 L63 -167 C100 -182 122 -187 152 -187 C215 -187 259 -154 259 -107 C259 -70 232 -46 191 -46 C182 -46 177 -47 164 -49 L186 -14 Z " />
<glyph glyph-name="egrave" unicode="è" horiz-adv-x="397" d="M331 103 C266 52 222 30 183 30 C139 30 112 63 112 115 C112 140 114 159 122 200 C292 236 375 296 375 383 C375 427 343 457 295 457 C245 457 158 410 115 358 C76 312 39 191 39 107 C39 28 80 -17 151 -17 C204 -17 260 12 339 81 L331 103 Z M126 224 C135 273 150 320 167 356 C185 393 222 417 260 417 C287 417 301 400 301 368 C301 297 238 245 126 224 L126 224 Z M312 522 L247 646 C234 671 219 683 201 683 C185 683 171 670 171 655 C171 643 171 643 207 604 L284 522 L312 522 Z " />
<glyph glyph-name="eacute" unicode="é" horiz-adv-x="397" d="M331 103 C266 52 222 30 183 30 C139 30 112 63 112 115 C112 140 114 159 122 200 C292 236 375 296 375 383 C375 427 343 457 295 457 C245 457 158 410 115 358 C76 312 39 191 39 107 C39 28 80 -17 151 -17 C204 -17 260 12 339 81 L331 103 Z M126 224 C135 273 150 320 167 356 C185 393 222 417 260 417 C287 417 301 400 301 368 C301 297 238 245 126 224 L126 224 Z M242 522 L385 613 C416 633 423 641 423 655 C423 670 410 683 396 683 C380 683 373 678 334 641 L209 522 L242 522 Z " />
<glyph glyph-name="ecircumflex" unicode="ê" horiz-adv-x="397" d="M331 103 C266 52 222 30 183 30 C139 30 112 63 112 115 C112 140 114 159 122 200 C292 236 375 296 375 383 C375 427 343 457 295 457 C245 457 158 410 115 358 C76 312 39 191 39 107 C39 28 80 -17 151 -17 C204 -17 260 12 339 81 L331 103 Z M126 224 C135 273 150 320 167 356 C185 393 222 417 260 417 C287 417 301 400 301 368 C301 297 238 245 126 224 L126 224 Z M104 519 L140 519 L280 624 L368 519 L393 519 L311 682 L271 682 L104 519 Z " />
<glyph glyph-name="edieresis" unicode="ë" horiz-adv-x="397" d="M331 103 C266 52 222 30 183 30 C139 30 112 63 112 115 C112 140 114 159 122 200 C292 236 375 296 375 383 C375 427 343 457 295 457 C245 457 158 410 115 358 C76 312 39 191 39 107 C39 28 80 -17 151 -17 C204 -17 260 12 339 81 L331 103 Z M126 224 C135 273 150 320 167 356 C185 393 222 417 260 417 C287 417 301 400 301 368 C301 297 238 245 126 224 L126 224 Z M358 657 C330 657 307 628 307 594 C307 571 321 555 342 555 C369 555 391 582 391 616 C391 641 378 657 358 657 L358 657 Z M204 657 C177 657 153 628 153 594 C153 571 167 555 188 555 C216 555 238 582 238 616 C238 641 225 657 204 657 L204 657 Z " />
<glyph glyph-name="igrave" unicode="ì" horiz-adv-x="259" d="M214 92 C174 62 151 49 138 49 C129 49 124 56 124 67 C124 81 129 104 145 172 C195 375 204 412 204 428 C204 446 196 457 182 457 C160 457 119 435 30 376 L37 352 C98 390 101 392 110 392 C118 392 123 385 123 374 C123 358 98 249 69 138 C50 65 46 46 46 28 C46 1 60 -17 79 -17 C100 -17 128 0 223 72 L214 92 Z M229 522 L164 646 C151 671 136 683 119 683 C103 683 89 670 89 655 C89 643 89 643 124 604 L202 522 L229 522 Z " />
<glyph glyph-name="iacute" unicode="í" horiz-adv-x="259" d="M214 92 C174 62 151 49 138 49 C129 49 124 56 124 67 C124 81 129 104 145 172 C195 375 204 412 204 428 C204 446 196 457 182 457 C160 457 119 435 30 376 L37 352 C98 390 101 392 110 392 C118 392 123 385 123 374 C123 358 98 249 69 138 C50 65 46 46 46 28 C46 1 60 -17 79 -17 C100 -17 128 0 223 72 L214 92 Z M173 522 L316 613 C347 633 354 641 354 655 C354 670 341 683 326 683 C311 683 303 677 265 641 L140 522 L173 522 Z " />
<glyph glyph-name="icircumflex" unicode="î" horiz-adv-x="259" d="M215 92 C175 62 152 49 139 49 C130 49 125 56 125 67 C125 81 130 104 146 172 C196 375 205 412 205 428 C205 446 197 457 183 457 C161 457 121 435 30 376 L38 352 C98 390 102 392 111 392 C119 392 124 385 124 374 C124 358 99 249 70 138 C51 65 47 46 47 28 C47 1 61 -17 80 -17 C101 -17 129 0 223 72 L215 92 Z M22 519 L58 519 L198 624 L286 519 L311 519 L228 682 L189 682 L22 519 Z " />
<glyph glyph-name="idieresis" unicode="ï" horiz-adv-x="259" d="M214 92 C174 62 151 49 138 49 C129 49 124 56 124 67 C124 81 129 104 145 172 C195 375 204 412 204 428 C204 446 196 457 182 457 C160 457 119 435 30 376 L37 352 C98 390 101 392 110 392 C118 392 123 385 123 374 C123 358 98 249 69 138 C50 65 46 46 46 28 C46 1 60 -17 79 -17 C100 -17 128 0 223 72 L214 92 Z M265 657 C237 657 214 628 214 594 C214 571 228 555 249 555 C276 555 298 582 298 616 C298 641 285 657 265 657 L265 657 Z M132 657 C104 657 81 628 81 594 C81 571 95 555 116 555 C143 555 165 582 165 616 C165 641 152 657 132 657 L132 657 Z " />
<glyph glyph-name="eth" unicode="ð" horiz-adv-x="459" d="M104 687 C139 666 179 631 220 588 L130 571 L140 546 L240 566 C268 537 297 490 312 449 C295 452 286 453 275 453 C213 453 143 410 102 348 C66 293 46 216 46 137 C46 37 86 -17 159 -17 C220 -17 286 16 331 68 C381 127 415 230 415 326 C415 421 383 494 305 578 L398 596 L388 622 L282 602 C246 637 193 680 151 709 C137 703 130 701 102 694 L104 687 Z M256 423 C281 423 306 411 319 393 C332 373 338 344 338 298 C338 234 327 172 305 113 C282 47 250 18 204 18 C151 18 120 61 120 136 C120 213 138 303 164 355 C187 401 216 423 256 423 L256 423 Z " />
<glyph glyph-name="ntilde" unicode="ñ" horiz-adv-x="517" d="M473 91 C466 87 461 84 455 79 C418 54 407 48 396 48 C388 48 382 56 382 65 C382 80 397 150 421 247 C461 407 461 407 461 427 C461 446 451 457 435 457 C395 457 327 421 273 372 C224 326 188 280 161 226 L169 261 C203 405 205 415 205 433 C205 449 198 457 184 457 C159 457 123 438 32 373 L38 352 C45 356 51 360 57 364 C89 385 102 392 112 392 C122 392 127 386 127 373 C127 353 113 269 95 186 C80 112 76 96 47 -5 L55 -13 C71 -8 91 -4 122 2 C139 123 158 185 198 251 C241 323 323 395 361 395 C372 395 379 387 379 374 C379 349 356 245 325 126 C310 70 304 42 304 27 C304 3 318 -17 334 -17 C360 -17 377 -6 480 72 L473 91 Z M202 557 C217 590 230 602 252 602 C265 602 277 598 300 588 C359 560 366 558 385 558 C426 558 457 595 469 657 L450 657 C435 621 427 612 406 612 C392 612 379 616 353 628 C302 652 291 655 267 655 C241 655 220 643 204 618 C195 604 190 593 181 557 L202 557 Z " />
<glyph glyph-name="ograve" unicode="ò" horiz-adv-x="458" d="M286 457 C223 457 162 425 117 367 C70 307 46 228 46 133 C46 35 86 -17 162 -17 C299 -17 412 131 412 311 C412 406 368 457 286 457 L286 457 Z M255 424 C279 424 304 412 317 393 C331 373 337 346 337 299 C337 235 326 173 305 113 C281 48 250 18 204 18 C148 18 120 58 120 137 C120 211 139 305 163 356 C185 401 216 424 255 424 L255 424 Z M329 522 L264 646 C251 671 236 683 218 683 C202 683 188 670 188 655 C188 643 188 643 224 604 L301 522 L329 522 Z " />
<glyph glyph-name="oacute" unicode="ó" horiz-adv-x="458" d="M286 457 C223 457 162 425 117 367 C70 307 46 228 46 133 C46 35 86 -17 162 -17 C299 -17 412 131 412 311 C412 406 368 457 286 457 L286 457 Z M255 424 C279 424 304 412 317 393 C331 373 337 346 337 299 C337 235 326 173 305 113 C281 48 250 18 204 18 C148 18 120 58 120 137 C120 211 139 305 163 356 C185 401 216 424 255 424 L255 424 Z M272 522 L415 613 C445 632 453 641 453 655 C453 670 440 683 426 683 C411 683 403 678 364 641 L239 522 L272 522 Z " />
<glyph glyph-name="ocircumflex" unicode="ô" horiz-adv-x="458" d="M286 457 C223 457 162 425 117 367 C70 307 46 228 46 133 C46 35 86 -17 162 -17 C299 -17 412 131 412 311 C412 406 368 457 286 457 L286 457 Z M255 424 C279 424 304 412 317 393 C331 373 337 346 337 299 C337 235 326 173 305 113 C281 48 250 18 204 18 C148 18 120 58 120 137 C120 211 139 305 163 356 C185 401 216 424 255 424 L255 424 Z M134 519 L170 519 L311 624 L399 519 L423 519 L341 682 L301 682 L134 519 Z " />
<glyph glyph-name="otilde" unicode="õ" horiz-adv-x="458" d="M286 457 C223 457 162 425 117 367 C70 307 46 228 46 133 C46 35 86 -17 162 -17 C299 -17 412 131 412 311 C412 406 368 457 286 457 L286 457 Z M255 424 C279 424 304 412 317 393 C331 373 337 346 337 299 C337 235 326 173 305 113 C281 48 250 18 204 18 C148 18 120 58 120 137 C120 211 139 305 163 356 C185 401 216 424 255 424 L255 424 Z M173 557 C188 590 201 602 223 602 C236 602 248 598 271 588 C330 560 336 558 356 558 C396 558 428 595 440 657 L421 657 C406 621 397 612 376 612 C363 612 350 616 324 628 C273 652 262 655 238 655 C212 655 191 643 175 618 C166 604 161 593 152 557 L173 557 Z " />
<glyph glyph-name="odieresis" unicode="ö" horiz-adv-x="458" d="M286 457 C223 457 162 425 117 367 C70 307 46 228 46 133 C46 35 86 -17 162 -17 C299 -17 412 131 412 311 C412 406 368 457 286 457 L286 457 Z M255 424 C279 424 304 412 317 393 C331 373 337 346 337 299 C337 235 326 173 305 113 C281 48 250 18 204 18 C148 18 120 58 120 137 C120 211 139 305 163 356 C185 401 216 424 255 424 L255 424 Z M381 657 C354 657 330 628 330 594 C330 571 344 555 365 555 C393 555 415 582 415 616 C415 641 402 657 381 657 L381 657 Z M228 657 C200 657 177 628 177 594 C177 571 191 555 212 555 C239 555 261 582 261 616 C261 641 248 657 228 657 L228 657 Z " />
<glyph glyph-name="divide" unicode="÷" horiz-adv-x="498" d="M299 560 C275 560 256 541 256 517 C256 494 275 475 298 475 C322 475 341 494 341 517 C341 540 322 560 299 560 L299 560 Z M239 188 C215 188 196 169 196 145 C196 122 216 103 238 103 C261 103 281 123 281 145 C281 168 262 188 239 188 L239 188 Z M55 358 L46 305 L479 305 L489 358 L55 358 Z " />
<glyph glyph-name="oslash" unicode="ø" horiz-adv-x="458" d="M31 -40 C44 -23 52 -13 56 -8 C64 1 71 10 78 19 C101 -6 128 -17 163 -17 C299 -17 413 131 413 309 C413 351 406 380 391 407 C406 425 425 447 449 473 L444 477 C434 485 432 487 425 496 C410 475 400 462 373 429 C348 448 321 457 285 457 C223 457 162 424 117 367 C71 309 46 228 46 137 C46 94 51 65 63 41 C27 -3 23 -7 9 -21 C15 -26 19 -29 22 -32 L31 -40 Z M329 370 C287 316 271 295 231 248 C186 192 153 150 121 113 C120 125 120 132 120 141 C120 211 139 307 163 356 C185 400 216 424 254 424 C291 424 314 407 329 370 L329 370 Z M127 78 C163 122 199 167 235 212 C265 248 298 289 336 335 C338 319 338 312 338 299 C338 235 327 173 305 113 C282 48 250 18 204 18 C165 18 140 38 127 78 L127 78 Z " />
<glyph glyph-name="ugrave" unicode="ù" horiz-adv-x="501" d="M457 91 C406 58 391 49 384 49 C374 49 368 57 368 69 C368 98 402 266 426 353 L448 437 L451 449 L446 457 C426 451 422 450 383 442 C364 327 342 260 306 204 C260 133 175 52 146 52 C137 52 131 62 131 75 C131 97 147 175 167 255 C205 408 207 416 207 430 C207 445 197 457 185 457 C163 457 127 438 30 376 L37 352 C46 358 48 360 56 364 C93 386 103 392 111 392 C119 392 124 386 124 375 C124 359 110 290 92 210 C58 65 56 56 56 33 C56 3 71 -17 93 -17 C123 -17 173 17 231 77 C275 123 302 160 338 222 C334 208 331 194 330 191 C295 56 291 40 291 19 C291 -2 303 -17 320 -17 C346 -17 372 -1 464 72 L457 91 Z M350 522 L285 646 C272 671 257 683 239 683 C223 683 209 670 209 655 C209 643 209 643 245 604 L322 522 L350 522 Z " />
<glyph glyph-name="uacute" unicode="ú" horiz-adv-x="501" d="M457 91 C406 58 391 49 384 49 C374 49 368 57 368 69 C368 98 402 266 426 353 L448 437 L451 449 L446 457 C426 451 422 450 383 442 C364 327 342 260 306 204 C260 133 175 52 146 52 C137 52 131 62 131 75 C131 97 147 175 167 255 C205 408 207 416 207 430 C207 445 197 457 185 457 C163 457 127 438 30 376 L37 352 C46 358 48 360 56 364 C93 386 103 392 111 392 C119 392 124 386 124 375 C124 359 110 290 92 210 C58 65 56 56 56 33 C56 3 71 -17 93 -17 C123 -17 173 17 231 77 C275 123 302 160 338 222 C334 208 331 194 330 191 C295 56 291 40 291 19 C291 -2 303 -17 320 -17 C346 -17 372 -1 464 72 L457 91 Z M293 522 L437 613 C466 632 474 641 474 655 C474 670 461 683 447 683 C431 683 427 680 386 641 L260 522 L293 522 Z " />
<glyph glyph-name="ucircumflex" unicode="û" horiz-adv-x="501" d="M457 91 C406 58 391 49 384 49 C374 49 368 57 368 69 C368 98 402 266 426 353 L448 437 L451 449 L446 457 C426 451 422 450 383 442 C364 327 342 260 306 204 C260 133 175 52 146 52 C137 52 131 62 131 75 C131 97 147 175 167 255 C205 408 207 416 207 430 C207 445 197 457 185 457 C163 457 127 438 30 376 L37 352 C46 358 48 360 56 364 C93 386 103 392 111 392 C119 392 124 386 124 375 C124 359 110 290 92 210 C58 65 56 56 56 33 C56 3 71 -17 93 -17 C123 -17 173 17 231 77 C275 123 302 160 338 222 C334 208 331 194 330 191 C295 56 291 40 291 19 C291 -2 303 -17 320 -17 C346 -17 372 -1 464 72 L457 91 Z M149 519 L185 519 L325 624 L413 519 L438 519 L355 682 L316 682 L149 519 Z " />
<glyph glyph-name="udieresis" unicode="ü" horiz-adv-x="501" d="M457 91 C406 58 391 49 384 49 C374 49 368 57 368 69 C368 98 402 266 426 353 L448 437 L451 449 L446 457 C426 451 422 450 383 442 C364 327 342 260 306 204 C260 133 175 52 146 52 C137 52 131 62 131 75 C131 97 147 175 167 255 C205 408 207 416 207 430 C207 445 197 457 185 457 C163 457 127 438 30 376 L37 352 C46 358 48 360 56 364 C93 386 103 392 111 392 C119 392 124 386 124 375 C124 359 110 290 92 210 C58 65 56 56 56 33 C56 3 71 -17 93 -17 C123 -17 173 17 231 77 C275 123 302 160 338 222 C334 208 331 194 330 191 C295 56 291 40 291 19 C291 -2 303 -17 320 -17 C346 -17 372 -1 464 72 L457 91 Z M403 657 C375 657 352 628 352 594 C352 571 366 555 387 555 C414 555 436 582 436 616 C436 641 423 657 403 657 L403 657 Z M249 657 C222 657 198 628 198 594 C198 571 212 555 233 555 C261 555 283 582 283 616 C283 641 270 657 249 657 L249 657 Z " />
<glyph glyph-name="yacute" unicode="ý" horiz-adv-x="504" d="M73 -148 C59 -162 39 -175 14 -188 C22 -244 53 -274 104 -274 C162 -274 227 -229 278 -154 C324 -86 340 -43 407 188 C441 307 464 377 492 449 L481 458 C455 449 431 443 413 441 C384 299 352 218 292 135 C254 82 227 58 206 58 C191 58 186 70 186 104 C186 128 191 204 198 303 C203 355 204 384 204 408 C204 440 194 457 175 457 C148 457 116 436 35 364 L49 347 C55 351 62 357 64 359 C106 392 106 392 115 392 C128 392 134 372 134 326 C134 291 130 227 125 173 C116 72 116 72 116 54 C116 11 132 -17 157 -17 C179 -17 215 10 257 57 C281 84 290 97 339 167 C334 150 328 129 328 126 C289 -25 280 -53 255 -117 C224 -197 188 -235 142 -235 C108 -235 81 -211 81 -180 C81 -177 81 -171 82 -165 C82 -163 82 -159 83 -154 L73 -148 Z M295 522 L438 613 C469 633 476 641 476 655 C476 670 463 683 448 683 C434 683 425 677 387 641 L262 522 L295 522 Z " />
<glyph glyph-name="thorn" unicode="þ" horiz-adv-x="481" d="M86 643 C152 641 164 636 164 614 C164 607 163 599 161 590 C159 575 154 549 150 526 C72 115 23 -130 -10 -262 L-3 -268 C23 -260 35 -258 66 -254 C75 -194 92 -97 113 0 C137 -10 150 -13 170 -13 C199 -13 227 -3 260 18 C295 41 337 73 350 87 C399 138 444 266 444 351 C444 416 424 457 393 457 C357 457 300 430 252 391 C217 362 192 332 170 292 C176 316 178 327 186 371 C208 484 226 571 251 692 L241 700 C204 683 144 668 90 662 L86 643 Z M120 54 C150 212 170 267 218 327 C254 371 304 402 340 402 C361 402 372 385 372 351 C372 288 353 208 318 129 C288 59 253 29 202 29 C174 29 148 37 120 54 L120 54 Z " />
<glyph glyph-name="ydieresis" unicode="ÿ" horiz-adv-x="504" d="M73 -148 C59 -162 39 -175 14 -188 C22 -244 53 -274 104 -274 C162 -274 227 -229 278 -154 C324 -86 340 -43 407 188 C441 307 464 377 492 449 L481 458 C455 449 431 443 413 441 C384 299 352 218 292 135 C254 82 227 58 206 58 C191 58 186 70 186 104 C186 128 191 204 198 303 C203 355 204 384 204 408 C204 440 194 457 175 457 C148 457 116 436 35 364 L49 347 C55 351 62 357 64 359 C106 392 106 392 115 392 C128 392 134 372 134 326 C134 291 130 227 125 173 C116 72 116 72 116 54 C116 11 132 -17 157 -17 C179 -17 215 10 257 57 C281 84 290 97 339 167 C334 150 328 129 328 126 C289 -25 280 -53 255 -117 C224 -197 188 -235 142 -235 C108 -235 81 -211 81 -180 C81 -177 81 -171 82 -165 C82 -163 82 -159 83 -154 L73 -148 Z M404 657 C376 657 353 628 353 594 C353 571 367 555 388 555 C415 555 437 582 437 616 C437 641 424 657 404 657 L404 657 Z M251 657 C223 657 200 628 200 594 C200 571 214 555 235 555 C262 555 284 582 284 616 C284 641 271 657 251 657 L251 657 Z " />
<glyph glyph-name="Amacron" unicode="Ā" horiz-adv-x="664" d="M399 674 L79 127 C41 59 29 40 21 34 C13 28 -2 24 -26 23 L-28 -4 C51 -1 66 0 83 0 C105 0 123 -1 182 -4 L183 23 L170 24 C120 26 98 35 98 52 C98 63 111 90 148 158 L208 266 C283 267 312 267 341 267 C379 267 387 267 442 266 L465 132 C477 59 477 59 477 54 C477 29 465 25 395 23 L395 -4 C450 -1 479 0 520 0 C559 0 583 -1 625 -4 L625 23 C582 25 567 29 559 39 C553 47 550 57 536 137 L442 674 L399 674 Z M390 580 L435 304 C402 303 360 302 310 302 C277 302 262 303 232 305 L390 580 Z M555 799 L565 842 L318 842 L309 799 L555 799 Z " />
<glyph glyph-name="amacron" unicode="ā" horiz-adv-x="445" d="M398 457 L371 440 C328 454 312 457 287 457 C248 457 219 447 175 417 C148 398 132 383 118 364 C80 310 37 152 37 67 C37 9 47 -17 68 -17 C90 -17 138 17 190 69 C223 102 242 127 283 194 C280 181 278 171 277 168 C253 70 248 47 248 18 C248 -5 257 -17 273 -17 C300 -17 361 23 409 73 L405 95 C368 65 346 52 335 52 C326 52 321 58 321 70 C321 108 369 317 408 449 L398 457 Z M328 394 C308 296 290 241 264 195 C229 135 146 50 122 50 C111 50 105 65 105 88 C105 127 116 195 133 255 C145 298 170 365 181 385 C189 399 223 410 261 410 C282 410 304 405 328 394 L328 394 Z M412 573 L422 616 L175 616 L166 573 L412 573 Z " />
<glyph glyph-name="Abreve" unicode="Ă" horiz-adv-x="664" d="M399 674 L79 127 C41 59 29 40 21 34 C13 28 -2 24 -26 23 L-28 -4 C51 -1 66 0 83 0 C105 0 123 -1 182 -4 L183 23 L170 24 C120 26 98 35 98 52 C98 63 111 90 148 158 L208 266 C283 267 312 267 341 267 C379 267 387 267 442 266 L465 132 C477 59 477 59 477 54 C477 29 465 25 395 23 L395 -4 C450 -1 479 0 520 0 C559 0 583 -1 625 -4 L625 23 C582 25 567 29 559 39 C553 47 550 57 536 137 L442 674 L399 674 Z M390 580 L435 304 C402 303 360 302 310 302 C277 302 262 303 232 305 L390 580 Z M323 897 C326 853 329 836 336 819 C351 781 390 756 435 756 C502 756 551 805 578 897 L551 897 C527 842 490 814 440 814 C389 814 355 845 349 897 L323 897 Z " />
<glyph glyph-name="abreve" unicode="ă" horiz-adv-x="445" d="M398 457 L371 440 C328 454 312 457 287 457 C248 457 219 447 175 417 C148 398 132 383 118 364 C80 310 37 152 37 67 C37 9 47 -17 68 -17 C90 -17 138 17 190 69 C223 102 242 127 283 194 C280 181 278 171 277 168 C253 70 248 47 248 18 C248 -5 257 -17 273 -17 C300 -17 361 23 409 73 L405 95 C368 65 346 52 335 52 C326 52 321 58 321 70 C321 108 369 317 408 449 L398 457 Z M328 394 C308 296 290 241 264 195 C229 135 146 50 122 50 C111 50 105 65 105 88 C105 127 116 195 133 255 C145 298 170 365 181 385 C189 399 223 410 261 410 C282 410 304 405 328 394 L328 394 Z M188 677 C191 633 194 616 200 599 C216 561 255 536 300 536 C366 536 416 585 443 677 L416 677 C391 621 354 594 304 594 C254 594 220 625 213 677 L188 677 Z " />
<glyph glyph-name="Aogonek" unicode="Ą" horiz-adv-x="664" d="M399 674 L79 127 C41 59 29 40 21 34 C13 28 -2 24 -26 23 L-28 -4 C51 -1 66 0 83 0 C105 0 123 -1 182 -4 L183 23 L170 24 C120 26 98 35 98 52 C98 63 111 90 148 158 L208 266 C283 267 312 267 341 267 C379 267 387 267 442 266 L465 132 C477 59 477 59 477 54 C477 29 465 25 395 23 L395 -4 C451 -1 478 0 516 0 L563 0 C496 -27 471 -53 471 -94 C471 -131 504 -155 555 -155 C581 -155 600 -152 636 -140 L631 -121 C612 -124 604 -125 590 -125 C551 -125 530 -110 530 -83 C530 -46 571 -11 625 -1 L625 23 C582 25 567 29 559 39 C553 47 550 57 536 137 L442 674 L399 674 Z M390 580 L435 304 C402 303 360 302 310 302 C277 302 262 303 232 305 L390 580 Z " />
<glyph glyph-name="aogonek" unicode="ą" horiz-adv-x="445" d="M405 95 C368 65 346 52 335 52 C326 52 321 58 321 70 C321 108 369 317 408 449 L398 457 L371 440 C328 454 312 457 287 457 C248 457 219 447 175 417 C148 398 132 383 118 364 C80 310 37 152 37 67 C37 9 47 -17 68 -17 C90 -17 138 17 190 69 C223 102 242 127 283 194 C280 180 278 172 277 169 C252 69 248 46 248 17 C248 4 249 0 256 -10 C210 -34 192 -56 192 -90 C192 -125 222 -146 273 -146 C293 -146 314 -143 350 -134 L344 -115 C327 -119 317 -120 305 -120 C268 -120 249 -106 249 -80 C249 -52 264 -33 306 -8 C347 16 379 42 409 73 L405 95 Z M328 394 C308 296 290 241 264 195 C229 135 146 50 122 50 C111 50 105 65 105 88 C105 127 116 195 133 255 C145 298 170 365 181 385 C189 399 223 410 261 410 C282 410 304 405 328 394 L328 394 Z " />
<glyph glyph-name="Cacute" unicode="Ć" horiz-adv-x="635" d="M594 106 C519 54 458 32 385 32 C240 32 157 128 157 293 C157 383 179 467 220 532 C265 604 335 642 423 642 C482 642 537 625 576 596 C589 586 592 580 592 559 L591 504 L621 504 C624 548 631 591 644 642 C581 671 525 683 459 683 C359 683 272 650 199 584 C114 505 71 402 71 274 C71 87 174 -20 352 -20 C447 -20 521 7 594 66 L604 100 L594 106 Z M433 742 L576 834 C607 853 614 861 614 875 C614 890 601 903 587 903 C572 903 562 897 525 861 L400 742 L433 742 Z " />
<glyph glyph-name="cacute" unicode="ć" horiz-adv-x="383" d="M342 105 L327 93 C265 48 233 33 193 33 C146 33 115 74 115 137 C115 200 132 282 158 342 C178 388 212 409 264 409 C286 409 306 404 323 393 C334 386 337 382 337 369 L337 362 C336 346 336 341 335 311 L359 311 C362 354 365 370 381 433 C351 451 331 457 304 457 C271 457 241 447 195 421 C157 400 131 380 114 360 C73 311 43 211 43 125 C43 36 85 -17 156 -17 C216 -17 263 8 349 85 L342 105 Z M235 522 L378 613 C409 633 416 641 416 655 C416 670 403 683 389 683 C373 683 369 680 327 641 L202 522 L235 522 Z " />
<glyph glyph-name="Ccircumflex" unicode="Ĉ" horiz-adv-x="635" d="M594 106 C519 54 458 32 385 32 C240 32 157 128 157 293 C157 383 179 467 220 532 C265 604 335 642 423 642 C482 642 537 625 576 596 C589 586 592 580 592 559 L591 504 L621 504 C624 548 631 591 644 642 C581 671 525 683 459 683 C359 683 272 650 199 584 C114 505 71 402 71 274 C71 87 174 -20 352 -20 C447 -20 521 7 594 66 L604 100 L594 106 Z M292 739 L328 739 L468 844 L556 739 L581 739 L498 902 L459 902 L292 739 Z " />
<glyph glyph-name="Cdotaccent" unicode="Ċ" horiz-adv-x="635" d="M594 106 C519 54 458 32 385 32 C240 32 157 128 157 293 C157 383 179 467 220 532 C265 604 335 642 423 642 C482 642 537 625 576 596 C589 586 592 580 592 559 L591 504 L621 504 C624 548 631 591 644 642 C581 671 525 683 459 683 C359 683 272 650 199 584 C114 505 71 402 71 274 C71 87 174 -20 352 -20 C447 -20 521 7 594 66 L604 100 L594 106 Z M472 875 C442 875 417 844 417 806 C417 781 432 764 455 764 C485 764 508 793 508 831 C508 858 494 875 472 875 L472 875 Z " />
<glyph glyph-name="cdotaccent" unicode="ċ" horiz-adv-x="383" d="M342 105 L327 93 C265 48 233 33 193 33 C146 33 115 74 115 137 C115 200 132 282 158 342 C178 388 212 409 264 409 C286 409 306 404 323 393 C334 386 337 382 337 369 L337 362 C336 346 336 341 335 311 L359 311 C362 354 365 370 381 433 C351 451 331 457 304 457 C271 457 241 447 195 421 C157 400 131 380 114 360 C73 311 43 211 43 125 C43 36 85 -17 156 -17 C216 -17 263 8 349 85 L342 105 Z M294 657 C266 657 243 628 243 594 C243 571 257 555 278 555 C305 555 327 582 327 616 C327 641 314 657 294 657 L294 657 Z " />
<glyph glyph-name="Ccaron" unicode="Č" horiz-adv-x="635" d="M594 106 C519 54 458 32 385 32 C240 32 157 128 157 293 C157 383 179 467 220 532 C265 604 335 642 423 642 C482 642 537 625 576 596 C589 586 592 580 592 559 L591 504 L621 504 C624 548 631 591 644 642 C581 671 525 683 459 683 C359 683 272 650 199 584 C114 505 71 402 71 274 C71 87 174 -20 352 -20 C447 -20 521 7 594 66 L604 100 L594 106 Z M638 908 L609 908 L469 803 L381 908 L348 908 L439 746 L478 746 L638 908 Z " />
<glyph glyph-name="ccaron" unicode="č" horiz-adv-x="383" d="M342 105 L327 93 C265 48 233 33 193 33 C146 33 115 74 115 137 C115 200 132 282 158 342 C178 388 212 409 264 409 C286 409 306 404 323 393 C334 386 337 382 337 369 L337 362 C336 346 336 341 335 311 L359 311 C362 354 365 370 381 433 C351 451 331 457 304 457 C271 457 241 447 195 421 C157 400 131 380 114 360 C73 311 43 211 43 125 C43 36 85 -17 156 -17 C216 -17 263 8 349 85 L342 105 Z M446 688 L417 688 L277 583 L189 688 L157 688 L247 526 L287 526 L446 688 Z " />
<glyph glyph-name="Dcaron" unicode="Ď" horiz-adv-x="723" d="M28 -4 C62 -1 100 0 127 0 C144 0 156 0 170 -1 C247 -5 247 -5 267 -5 C355 -5 414 9 478 45 C609 119 688 257 688 413 C688 587 600 669 412 669 C391 669 359 668 323 667 C281 665 250 664 229 664 C181 664 126 666 96 668 L92 641 L110 640 C170 636 177 631 177 604 C177 561 94 78 82 51 C78 41 66 35 33 23 L28 -4 Z M167 50 C183 182 216 382 261 624 C302 627 325 628 358 628 C440 628 493 615 533 584 C579 548 604 485 604 405 C604 302 571 201 514 128 C463 65 401 38 303 38 C262 38 227 41 167 50 L167 50 Z M582 908 L553 908 L413 803 L325 908 L292 908 L383 746 L422 746 L582 908 Z " />
<glyph glyph-name="dcaron" unicode="ď" horiz-adv-x="561" d="M437 93 C396 63 374 50 361 50 C354 50 349 57 349 69 C349 103 407 395 473 692 L464 700 C425 682 363 666 311 662 L308 643 C383 640 386 639 386 615 C386 605 386 605 357 445 C325 454 306 457 286 457 C226 457 151 413 111 353 C68 290 35 170 35 78 C35 22 53 -17 79 -17 C106 -17 167 21 216 70 C253 106 280 144 310 201 C301 164 297 146 288 110 C275 58 271 37 271 19 C271 -3 282 -17 298 -17 C321 -17 353 3 445 74 L437 93 Z M348 392 C332 292 317 248 278 184 C231 106 168 51 128 51 C110 51 106 60 106 99 C106 182 140 317 177 379 C191 402 215 413 255 413 C285 413 319 405 348 392 L348 392 Z M473 498 C488 502 490 503 505 508 C548 546 602 619 641 693 L636 703 C604 694 596 692 592 691 L550 682 C535 604 514 560 465 505 L473 498 Z " />
<glyph glyph-name="Dcroat" unicode="Đ" horiz-adv-x="706" d="M11 -4 C45 -1 83 0 110 0 C128 0 139 0 153 -1 C230 -5 230 -5 250 -5 C338 -5 398 9 461 45 C592 119 671 257 671 413 C671 587 583 669 395 669 C374 669 342 668 306 667 C265 665 233 664 212 664 C164 664 109 666 79 668 L75 641 L93 640 C154 635 161 632 161 604 C161 584 151 519 124 363 C115 362 105 362 103 362 C57 362 23 362 8 363 C7 353 6 348 5 346 C5 343 4 341 2 331 C71 332 110 332 119 333 C112 291 111 285 102 238 C94 193 89 162 86 146 C71 58 67 46 55 40 C48 35 33 29 16 23 L11 -4 Z M255 332 L290 332 L323 331 C325 340 326 344 327 347 L330 358 L332 365 C267 364 232 363 227 363 L208 363 L198 363 C231 556 237 591 245 624 C285 627 308 628 341 628 C423 628 476 615 516 584 C562 548 587 485 587 405 C587 302 554 201 497 128 C446 65 384 38 286 38 C245 38 210 41 150 50 C158 117 167 177 193 333 L255 332 Z " />
<glyph glyph-name="dcroat" unicode="đ" horiz-adv-x="477" d="M437 93 C396 63 374 50 361 50 C354 50 349 57 349 69 C349 102 349 102 440 537 L486 537 C515 537 515 537 538 536 C539 546 543 562 545 566 C522 565 513 565 496 565 L446 565 C450 587 451 589 473 692 L464 700 C425 682 363 666 311 662 L308 643 C383 640 386 639 386 615 C386 606 386 603 380 574 L378 565 L366 565 L303 565 L269 566 C268 556 267 550 263 536 C291 537 295 537 312 537 L373 537 C365 487 359 456 357 445 C325 454 306 457 286 457 C226 457 151 413 111 353 C68 290 35 170 35 78 C35 22 53 -17 79 -17 C106 -17 167 21 216 70 C253 106 280 144 310 201 C301 164 297 146 288 110 C275 58 271 37 271 19 C271 -3 282 -17 298 -17 C321 -17 353 3 445 74 L437 93 Z M348 392 C332 292 317 248 278 184 C231 106 168 51 128 51 C110 51 106 60 106 99 C106 182 140 317 177 379 C191 402 215 413 255 413 C285 413 319 405 348 392 L348 392 Z " />
<glyph glyph-name="Emacron" unicode="Ē" horiz-adv-x="539" d="M27 -4 C93 -1 124 0 174 0 C215 0 242 0 326 -3 C358 -4 382 -4 401 -4 C429 -4 450 -3 478 -1 L484 6 C485 29 486 38 492 79 C496 98 498 113 505 153 L477 153 C473 135 473 135 463 99 C451 53 450 51 438 47 C422 42 377 39 322 39 C249 39 212 41 165 47 C172 110 189 223 207 322 C341 322 393 321 437 318 C443 334 445 339 446 342 L452 356 L455 363 L451 370 C395 365 359 363 311 363 C289 363 279 363 215 364 C230 469 251 590 260 625 C301 626 324 627 352 627 C403 627 449 624 468 619 C485 614 488 605 490 545 L491 521 L516 521 C518 555 520 578 522 593 L529 646 L530 656 L526 663 C496 667 474 668 439 668 C420 668 390 667 351 666 C303 665 270 664 242 664 C196 664 129 666 96 668 L91 641 C171 635 175 633 175 603 C175 567 98 102 85 59 C80 42 80 42 38 26 L32 23 L27 -4 Z M486 799 L496 842 L248 842 L240 799 L486 799 Z " />
<glyph glyph-name="emacron" unicode="ē" horiz-adv-x="397" d="M331 103 C266 52 222 30 183 30 C139 30 112 63 112 115 C112 140 114 159 122 200 C292 236 375 296 375 383 C375 427 343 457 295 457 C245 457 158 410 115 358 C76 312 39 191 39 107 C39 28 80 -17 151 -17 C204 -17 260 12 339 81 L331 103 Z M126 224 C135 273 150 320 167 356 C185 393 222 417 260 417 C287 417 301 400 301 368 C301 297 238 245 126 224 L126 224 Z M395 573 L405 616 L158 616 L149 573 L395 573 Z " />
<glyph glyph-name="Ebreve" unicode="Ĕ" horiz-adv-x="539" d="M27 -4 C93 -1 124 0 174 0 C215 0 242 0 326 -3 C358 -4 382 -4 401 -4 C429 -4 450 -3 478 -1 L484 6 C485 29 486 38 492 79 C496 98 498 113 505 153 L477 153 C473 135 473 135 463 99 C451 53 450 51 438 47 C422 42 377 39 322 39 C249 39 212 41 165 47 C172 110 189 223 207 322 C341 322 393 321 437 318 C443 334 445 339 446 342 L452 356 L455 363 L451 370 C395 365 359 363 311 363 C289 363 279 363 215 364 C230 469 251 590 260 625 C301 626 324 627 352 627 C403 627 449 624 468 619 C485 614 488 605 490 545 L491 521 L516 521 C518 555 520 578 522 593 L529 646 L530 656 L526 663 C496 667 474 668 439 668 C420 668 390 667 351 666 C303 665 270 664 242 664 C196 664 129 666 96 668 L91 641 C171 635 175 633 175 603 C175 567 98 102 85 59 C80 42 80 42 38 26 L32 23 L27 -4 Z M247 897 C250 853 253 836 260 819 C275 781 314 756 359 756 C426 756 475 805 502 897 L476 897 C451 842 414 814 364 814 C313 814 279 845 273 897 L247 897 Z " />
<glyph glyph-name="ebreve" unicode="ĕ" horiz-adv-x="397" d="M331 103 C266 52 222 30 183 30 C139 30 112 63 112 115 C112 140 114 159 122 200 C292 236 375 296 375 383 C375 427 343 457 295 457 C245 457 158 410 115 358 C76 312 39 191 39 107 C39 28 80 -17 151 -17 C204 -17 260 12 339 81 L331 103 Z M126 224 C135 273 150 320 167 356 C185 393 222 417 260 417 C287 417 301 400 301 368 C301 297 238 245 126 224 L126 224 Z M164 677 C167 633 170 616 177 599 C192 561 231 536 276 536 C343 536 392 585 419 677 L392 677 C367 621 331 594 281 594 C230 594 196 625 190 677 L164 677 Z " />
<glyph glyph-name="Edotaccent" unicode="Ė" horiz-adv-x="539" d="M27 -4 C93 -1 124 0 174 0 C215 0 242 0 326 -3 C358 -4 382 -4 401 -4 C429 -4 450 -3 478 -1 L484 6 C485 29 486 38 492 79 C496 98 498 113 505 153 L477 153 C473 135 473 135 463 99 C451 53 450 51 438 47 C422 42 377 39 322 39 C249 39 212 41 165 47 C172 110 189 223 207 322 C341 322 393 321 437 318 C443 334 445 339 446 342 L452 356 L455 363 L451 370 C395 365 359 363 311 363 C289 363 279 363 215 364 C230 469 251 590 260 625 C301 626 324 627 352 627 C403 627 449 624 468 619 C485 614 488 605 490 545 L491 521 L516 521 C518 555 520 578 522 593 L529 646 L530 656 L526 663 C496 667 474 668 439 668 C420 668 390 667 351 666 C303 665 270 664 242 664 C196 664 129 666 96 668 L91 641 C171 635 175 633 175 603 C175 567 98 102 85 59 C80 42 80 42 38 26 L32 23 L27 -4 Z M371 875 C341 875 316 844 316 806 C316 781 331 764 354 764 C384 764 407 793 407 831 C407 858 393 875 371 875 L371 875 Z " />
<glyph glyph-name="edotaccent" unicode="ė" horiz-adv-x="397" d="M331 103 C266 52 222 30 183 30 C139 30 112 63 112 115 C112 140 114 159 122 200 C292 236 375 296 375 383 C375 427 343 457 295 457 C245 457 158 410 115 358 C76 312 39 191 39 107 C39 28 80 -17 151 -17 C204 -17 260 12 339 81 L331 103 Z M126 224 C135 273 150 320 167 356 C185 393 222 417 260 417 C287 417 301 400 301 368 C301 297 238 245 126 224 L126 224 Z M294 657 C267 657 243 628 243 594 C243 571 257 555 278 555 C306 555 328 582 328 616 C328 641 315 657 294 657 L294 657 Z " />
<glyph glyph-name="Eogonek" unicode="Ę" horiz-adv-x="531" d="M19 -4 C85 -1 116 0 166 0 C204 0 239 -1 318 -3 C361 -4 375 -4 398 -4 C338 -29 315 -55 315 -93 C315 -131 348 -155 401 -155 C423 -155 441 -152 480 -143 L474 -121 C456 -125 447 -126 434 -126 C397 -126 376 -112 376 -87 C376 -49 404 -23 471 0 L476 6 C477 29 478 38 484 79 C488 98 490 113 497 153 L469 153 C465 136 465 136 455 100 C443 54 442 52 430 48 C414 43 368 40 314 40 C242 40 205 42 157 47 C164 110 181 223 199 322 C333 322 385 321 429 318 C435 334 437 339 438 342 L444 356 L447 363 L443 370 C387 365 351 363 303 363 C281 363 271 363 207 364 C222 469 243 590 252 625 C293 626 316 627 344 627 C395 627 441 624 460 619 C477 614 480 605 482 545 L483 521 L508 521 C510 555 512 578 514 593 L521 646 L522 656 L518 663 C488 667 466 668 431 668 C412 668 382 667 343 666 C295 665 262 664 234 664 C188 664 121 666 88 668 L83 641 C163 635 167 633 167 603 C167 567 90 102 77 59 C72 42 72 42 30 26 L24 23 L19 -4 Z " />
<glyph glyph-name="eogonek" unicode="ę" horiz-adv-x="397" d="M331 103 C266 53 222 31 183 31 C139 31 112 63 112 116 C112 140 114 159 122 201 C292 236 375 296 375 383 C375 427 343 457 295 457 C245 457 158 410 115 359 C76 312 39 191 39 108 C39 31 73 -10 144 -16 C104 -42 92 -59 92 -89 C92 -124 122 -145 173 -145 C193 -145 215 -142 250 -134 L244 -115 C226 -118 217 -119 205 -119 C168 -119 149 -105 149 -79 C149 -50 167 -29 212 -5 C275 29 288 38 339 82 L331 103 Z M126 225 C135 273 150 320 167 356 C185 393 222 417 260 417 C287 417 301 400 301 368 C301 297 238 245 126 225 L126 225 Z " />
<glyph glyph-name="Ecaron" unicode="Ě" horiz-adv-x="539" d="M27 -4 C93 -1 124 0 174 0 C215 0 242 0 326 -3 C358 -4 382 -4 401 -4 C429 -4 450 -3 478 -1 L484 6 C485 29 486 38 492 79 C496 98 498 113 505 153 L477 153 C473 135 473 135 463 99 C451 53 450 51 438 47 C422 42 377 39 322 39 C249 39 212 41 165 47 C172 110 189 223 207 322 C341 322 393 321 437 318 C443 334 445 339 446 342 L452 356 L455 363 L451 370 C395 365 359 363 311 363 C289 363 279 363 215 364 C230 469 251 590 260 625 C301 626 324 627 352 627 C403 627 449 624 468 619 C485 614 488 605 490 545 L491 521 L516 521 C518 555 520 578 522 593 L529 646 L530 656 L526 663 C496 667 474 668 439 668 C420 668 390 667 351 666 C303 665 270 664 242 664 C196 664 129 666 96 668 L91 641 C171 635 175 633 175 603 C175 567 98 102 85 59 C80 42 80 42 38 26 L32 23 L27 -4 Z M536 908 L508 908 L368 803 L280 908 L247 908 L337 746 L377 746 L536 908 Z " />
<glyph glyph-name="ecaron" unicode="ě" horiz-adv-x="397" d="M331 103 C266 52 222 30 183 30 C139 30 112 63 112 115 C112 140 114 159 122 200 C292 236 375 296 375 383 C375 427 343 457 295 457 C245 457 158 410 115 358 C76 312 39 191 39 107 C39 28 80 -17 151 -17 C204 -17 260 12 339 81 L331 103 Z M126 224 C135 273 150 320 167 356 C185 393 222 417 260 417 C287 417 301 400 301 368 C301 297 238 245 126 224 L126 224 Z M453 688 L424 688 L284 583 L196 688 L164 688 L254 526 L294 526 L453 688 Z " />
<glyph glyph-name="Gcircumflex" unicode="Ĝ" horiz-adv-x="719" d="M446 237 C529 228 532 228 538 227 C554 223 561 215 561 199 C561 187 547 104 538 57 C492 36 438 24 388 24 C321 24 258 48 220 89 C180 131 158 202 158 284 C158 379 186 471 235 541 C283 609 349 643 433 643 C494 643 553 624 599 590 C612 581 615 576 615 559 L616 517 L617 500 L644 500 C650 563 659 607 673 642 C604 671 544 683 473 683 C361 683 272 649 198 577 C116 498 72 388 72 265 C72 86 177 -20 353 -20 C406 -20 438 -14 527 12 C570 24 589 28 616 33 L618 42 L618 61 C618 102 624 163 631 192 C638 224 644 230 674 235 C676 235 681 236 686 237 L688 264 C646 262 621 261 581 261 C544 261 517 262 449 264 L446 237 Z M314 739 L350 739 L490 844 L578 739 L603 739 L520 902 L481 902 L314 739 Z " />
<glyph glyph-name="gcircumflex" unicode="ĝ" horiz-adv-x="421" d="M443 419 C423 416 396 414 374 414 C372 414 366 414 359 415 C331 443 297 457 253 457 C141 457 46 360 46 245 C46 170 92 124 165 124 C176 124 183 124 194 125 L184 115 C177 110 167 101 160 95 C138 76 128 60 128 45 C128 33 134 23 149 11 C98 -5 71 -16 46 -31 C-8 -64 -41 -113 -41 -162 C-41 -232 22 -276 125 -276 C256 -276 357 -211 357 -127 C357 -99 343 -67 319 -41 C303 -23 287 -9 242 28 C212 52 200 70 200 88 C200 101 204 112 218 133 C263 147 289 161 316 186 C355 224 380 279 380 330 C380 344 379 353 374 370 L399 370 L439 370 C439 382 443 405 447 415 L443 419 Z M227 426 C280 426 310 390 310 325 C310 285 302 247 286 214 C267 175 240 156 200 156 C146 156 115 194 115 260 C115 364 157 426 227 426 L227 426 Z M167 -6 C178 -16 185 -23 188 -25 C252 -78 252 -78 261 -86 C284 -110 294 -130 294 -154 C294 -207 232 -249 153 -249 C72 -249 20 -209 20 -147 C20 -90 70 -36 145 -12 C154 -9 162 -7 167 -6 L167 -6 Z M109 519 L145 519 L285 624 L373 519 L398 519 L315 682 L276 682 L109 519 Z " />
<glyph glyph-name="Gbreve" unicode="Ğ" horiz-adv-x="719" d="M446 237 C529 228 532 228 538 227 C554 223 561 215 561 199 C561 187 547 104 538 57 C492 36 438 24 388 24 C321 24 258 48 220 89 C180 131 158 202 158 284 C158 379 186 471 235 541 C283 609 349 643 433 643 C494 643 553 624 599 590 C612 581 615 576 615 559 L616 517 L617 500 L644 500 C650 563 659 607 673 642 C604 671 544 683 473 683 C361 683 272 649 198 577 C116 498 72 388 72 265 C72 86 177 -20 353 -20 C406 -20 438 -14 527 12 C570 24 589 28 616 33 L618 42 L618 61 C618 102 624 163 631 192 C638 224 644 230 674 235 C676 235 681 236 686 237 L688 264 C646 262 621 261 581 261 C544 261 517 262 449 264 L446 237 Z M363 897 C367 853 370 836 376 819 C392 781 430 756 475 756 C542 756 592 805 619 897 L592 897 C567 842 530 814 480 814 C430 814 396 845 389 897 L363 897 Z " />
<glyph glyph-name="gbreve" unicode="ğ" horiz-adv-x="421" d="M443 419 C423 416 396 414 374 414 C372 414 366 414 359 415 C331 443 297 457 253 457 C141 457 46 360 46 245 C46 170 92 124 165 124 C176 124 183 124 194 125 L184 115 C177 110 167 101 160 95 C138 76 128 60 128 45 C128 33 134 23 149 11 C98 -5 71 -16 46 -31 C-8 -64 -41 -113 -41 -162 C-41 -232 22 -276 125 -276 C256 -276 357 -211 357 -127 C357 -99 343 -67 319 -41 C303 -23 287 -9 242 28 C212 52 200 70 200 88 C200 101 204 112 218 133 C263 147 289 161 316 186 C355 224 380 279 380 330 C380 344 379 353 374 370 L399 370 L439 370 C439 382 443 405 447 415 L443 419 Z M227 426 C280 426 310 390 310 325 C310 285 302 247 286 214 C267 175 240 156 200 156 C146 156 115 194 115 260 C115 364 157 426 227 426 L227 426 Z M167 -6 C178 -16 185 -23 188 -25 C252 -78 252 -78 261 -86 C284 -110 294 -130 294 -154 C294 -207 232 -249 153 -249 C72 -249 20 -209 20 -147 C20 -90 70 -36 145 -12 C154 -9 162 -7 167 -6 L167 -6 Z M162 677 C165 633 168 616 175 599 C190 561 229 536 274 536 C341 536 390 585 417 677 L390 677 C365 621 329 594 279 594 C228 594 194 625 188 677 L162 677 Z " />
<glyph glyph-name="Gdotaccent" unicode="Ġ" horiz-adv-x="719" d="M446 237 C529 228 532 228 538 227 C554 223 561 215 561 199 C561 187 547 104 538 57 C492 36 438 24 388 24 C321 24 258 48 220 89 C180 131 158 202 158 284 C158 379 186 471 235 541 C283 609 349 643 433 643 C494 643 553 624 599 590 C612 581 615 576 615 559 L616 517 L617 500 L644 500 C650 563 659 607 673 642 C604 671 544 683 473 683 C361 683 272 649 198 577 C116 498 72 388 72 265 C72 86 177 -20 353 -20 C406 -20 438 -14 527 12 C570 24 589 28 616 33 L618 42 L618 61 C618 102 624 163 631 192 C638 224 644 230 674 235 C676 235 681 236 686 237 L688 264 C646 262 621 261 581 261 C544 261 517 262 449 264 L446 237 Z M487 875 C457 875 432 844 432 806 C432 781 447 764 470 764 C500 764 523 793 523 831 C523 858 509 875 487 875 L487 875 Z " />
<glyph glyph-name="gdotaccent" unicode="ġ" horiz-adv-x="421" d="M443 419 C423 416 396 414 374 414 C372 414 366 414 359 415 C331 443 297 457 253 457 C141 457 46 360 46 245 C46 170 92 124 165 124 C176 124 183 124 194 125 L184 115 C177 110 167 101 160 95 C138 76 128 60 128 45 C128 33 134 23 149 11 C98 -5 71 -16 46 -31 C-8 -64 -41 -113 -41 -162 C-41 -232 22 -276 125 -276 C256 -276 357 -211 357 -127 C357 -99 343 -67 319 -41 C303 -23 287 -9 242 28 C212 52 200 70 200 88 C200 101 204 112 218 133 C263 147 289 161 316 186 C355 224 380 279 380 330 C380 344 379 353 374 370 L399 370 L439 370 C439 382 443 405 447 415 L443 419 Z M227 426 C280 426 310 390 310 325 C310 285 302 247 286 214 C267 175 240 156 200 156 C146 156 115 194 115 260 C115 364 157 426 227 426 L227 426 Z M167 -6 C178 -16 185 -23 188 -25 C252 -78 252 -78 261 -86 C284 -110 294 -130 294 -154 C294 -207 232 -249 153 -249 C72 -249 20 -209 20 -147 C20 -90 70 -36 145 -12 C154 -9 162 -7 167 -6 L167 -6 Z M286 657 C258 657 235 628 235 594 C235 571 249 555 270 555 C297 555 319 582 319 616 C319 641 306 657 286 657 L286 657 Z " />
<glyph glyph-name="Gcommaaccent" unicode="Ģ" horiz-adv-x="719" d="M446 237 C529 228 532 228 538 227 C554 223 561 215 561 199 C561 187 547 104 538 57 C492 36 438 24 388 24 C321 24 258 48 220 89 C180 131 158 202 158 284 C158 379 186 471 235 541 C283 609 349 643 433 643 C494 643 553 624 599 590 C612 581 615 576 615 559 L616 517 L617 500 L644 500 C650 563 659 607 673 642 C604 671 544 683 473 683 C361 683 272 649 198 577 C116 498 72 388 72 265 C72 86 177 -20 353 -20 C406 -20 438 -14 527 12 C570 24 589 28 616 33 L618 42 L618 61 C618 102 624 163 631 192 C638 224 644 230 674 235 C676 235 681 236 686 237 L688 264 C646 262 621 261 581 261 C544 261 517 262 449 264 L446 237 Z M229 -269 C244 -265 247 -264 262 -258 C307 -220 363 -146 404 -70 L399 -60 C349 -73 340 -75 308 -81 C293 -161 271 -206 221 -261 L229 -269 Z " />
<glyph glyph-name="gcommaaccent" unicode="ģ" horiz-adv-x="421" d="M443 419 C423 416 396 414 374 414 C372 414 366 414 359 415 C331 443 297 457 253 457 C141 457 46 360 46 245 C46 170 92 124 165 124 C176 124 183 124 194 125 L184 115 C177 110 167 101 160 95 C138 76 128 60 128 45 C128 33 134 23 149 11 C98 -5 71 -16 46 -31 C-8 -64 -41 -113 -41 -162 C-41 -232 22 -276 125 -276 C256 -276 357 -211 357 -127 C357 -99 343 -67 319 -41 C303 -23 287 -9 242 28 C212 52 200 70 200 88 C200 101 204 112 218 133 C263 147 289 161 316 186 C355 224 380 279 380 330 C380 344 379 353 374 370 L399 370 L439 370 C439 382 443 405 447 415 L443 419 Z M227 426 C280 426 310 390 310 325 C310 285 302 247 286 214 C267 175 240 156 200 156 C146 156 115 194 115 260 C115 364 157 426 227 426 L227 426 Z M167 -6 C178 -16 185 -23 188 -25 C252 -78 252 -78 261 -86 C284 -110 294 -130 294 -154 C294 -207 232 -249 153 -249 C72 -249 20 -209 20 -147 C20 -90 70 -36 145 -12 C154 -9 162 -7 167 -6 L167 -6 Z M374 723 C359 719 356 718 342 713 C298 674 244 601 205 528 L210 518 C238 525 251 529 254 529 C263 531 270 533 297 538 C311 616 332 661 381 716 L374 723 Z " />
<glyph glyph-name="Hcircumflex" unicode="Ĥ" horiz-adv-x="726" d="M2 -4 C95 -1 127 0 138 0 C171 0 193 -1 241 -4 L245 23 C178 27 167 32 167 60 C167 72 181 161 208 328 C256 330 289 330 359 330 C447 330 483 330 553 328 C546 289 539 251 533 212 C512 93 507 63 502 53 C495 31 482 26 423 23 L418 -4 C499 -1 517 0 546 0 C575 0 598 -1 659 -4 L663 23 C594 28 585 32 585 61 C585 84 590 114 629 342 C638 390 645 436 654 483 C666 555 675 601 679 616 C684 634 692 637 730 639 C734 640 746 640 758 641 L761 668 C705 665 676 664 638 664 C597 664 571 665 516 668 L512 641 C587 636 595 632 595 603 C595 579 585 515 560 370 C490 368 409 367 344 367 C281 367 260 368 216 371 C221 410 238 507 253 584 C262 636 264 638 323 640 L339 641 L343 668 C290 665 260 664 217 664 C176 664 148 665 97 668 L93 641 C168 636 176 632 176 603 C176 578 164 500 137 346 C121 253 104 154 105 153 C88 54 84 39 69 33 C57 27 39 24 6 23 L2 -4 Z M291 739 L327 739 L467 844 L555 739 L580 739 L497 902 L457 902 L291 739 Z " />
<glyph glyph-name="Hbar" unicode="Ħ" horiz-adv-x="726" d="M2 -4 C96 -1 127 0 138 0 C171 0 194 -1 241 -4 L245 23 C178 27 167 32 167 60 C167 77 175 130 196 256 C202 290 206 314 208 328 C256 330 286 330 359 330 C445 330 485 330 553 328 C509 75 508 71 502 53 C495 31 482 26 424 23 L418 -4 C499 -1 517 0 546 0 C575 0 598 -1 659 -4 L663 23 C594 28 585 32 585 61 C585 84 590 113 650 463 L692 463 L722 462 L739 462 L740 466 L743 479 C745 487 746 495 748 504 C715 502 693 501 657 501 C661 523 665 546 669 569 C670 576 673 591 677 608 C683 634 688 637 730 640 C734 640 746 640 758 641 L761 668 C705 665 676 664 638 664 C597 664 570 665 516 668 L512 641 C587 636 595 632 595 603 C595 585 593 565 586 523 C585 519 584 511 582 500 C483 499 476 499 452 499 C438 499 434 499 365 500 C289 501 289 501 238 501 C240 512 242 525 242 527 C254 594 255 600 259 614 C266 635 273 638 323 640 L339 641 L343 668 C290 665 260 664 217 664 C176 664 148 665 97 668 L93 641 C168 636 176 633 176 604 C176 585 172 552 163 502 C126 502 98 502 80 503 C77 486 74 474 72 466 L71 462 C107 464 116 464 147 464 L157 464 C101 130 94 91 87 61 C80 31 68 25 6 23 L2 -4 Z M576 464 C568 417 564 393 564 392 L560 371 C490 368 407 367 337 367 C282 367 258 368 216 371 C217 380 219 388 219 391 C220 396 222 409 225 427 C226 436 228 447 231 464 L406 464 L576 464 Z " />
<glyph glyph-name="hbar" unicode="ħ" horiz-adv-x="509" d="M465 91 C413 54 400 46 388 46 C379 46 373 53 373 64 C373 77 386 134 412 240 C450 394 452 402 452 423 C452 444 441 457 422 457 C390 457 334 430 281 388 C220 341 184 299 153 242 C176 357 195 455 212 537 L272 537 C308 537 308 537 331 536 C332 546 337 562 339 566 C244 565 220 565 218 565 C227 610 230 627 245 692 L235 700 C198 683 131 666 83 662 L80 643 C149 642 158 638 158 615 C158 605 157 601 151 565 L109 565 C105 565 101 565 62 566 C61 554 60 550 57 536 C85 537 87 537 103 537 L146 537 C104 312 63 119 30 -5 L38 -13 C53 -9 80 -2 103 2 C110 92 143 200 182 257 C226 323 314 395 351 395 C365 395 372 386 372 369 C372 352 367 324 353 272 C307 88 295 38 295 19 C295 -2 307 -17 325 -17 C349 -17 408 18 472 72 L465 91 Z " />
<glyph glyph-name="Imacron" unicode="Ī" horiz-adv-x="308" d="M2 -4 C95 -1 127 0 138 0 C171 0 193 -1 241 -4 L245 23 C178 27 167 32 167 59 C167 81 182 176 212 349 C219 389 227 439 239 508 C250 571 256 602 260 617 C267 635 275 638 323 640 L339 641 L343 668 C290 665 260 664 217 664 C176 664 148 665 97 668 L93 641 C168 636 176 632 176 603 C176 578 163 490 137 346 C121 252 110 187 105 160 C88 54 84 40 69 33 C57 27 39 24 6 23 L2 -4 Z M370 799 L379 842 L132 842 L124 799 L370 799 Z " />
<glyph glyph-name="imacron" unicode="ī" horiz-adv-x="259" d="M214 92 C174 62 151 49 138 49 C129 49 124 56 124 67 C124 81 129 104 145 172 C195 375 204 412 204 428 C204 446 196 457 182 457 C160 457 119 435 30 376 L37 352 C98 390 101 392 110 392 C118 392 123 385 123 374 C123 358 98 249 69 138 C50 65 46 46 46 28 C46 1 60 -17 79 -17 C100 -17 128 0 223 72 L214 92 Z M299 573 L309 616 L75 616 L67 573 L299 573 Z " />
<glyph glyph-name="ibreve" unicode="ĭ" horiz-adv-x="259" d="M214 92 C174 62 151 49 138 49 C129 49 124 56 124 67 C124 81 129 104 145 172 C195 375 204 412 204 428 C204 446 196 457 182 457 C160 457 119 435 30 376 L37 352 C98 390 101 392 110 392 C118 392 123 385 123 374 C123 358 98 249 69 138 C50 65 46 46 46 28 C46 1 60 -17 79 -17 C100 -17 128 0 223 72 L214 92 Z M81 677 C85 633 88 616 94 599 C110 561 148 536 193 536 C260 536 310 585 337 677 L310 677 C285 621 248 594 198 594 C148 594 113 625 107 677 L81 677 Z " />
<glyph glyph-name="Iogonek" unicode="Į" horiz-adv-x="308" d="M2 -4 C90 -1 137 0 144 0 L177 0 C112 -26 86 -53 86 -93 C86 -134 121 -157 184 -157 C206 -157 223 -155 253 -147 L245 -121 C227 -125 218 -126 205 -126 C169 -126 147 -112 147 -89 C147 -67 164 -47 200 -22 C222 -8 230 -4 241 -4 L245 23 C178 27 167 32 167 59 C167 81 182 176 212 349 C219 389 227 439 239 508 C250 571 256 602 260 617 C267 635 275 638 323 640 L339 641 L343 668 C290 665 260 664 217 664 C176 664 148 665 97 668 L93 641 C168 636 176 632 176 603 C176 578 163 490 137 346 C121 252 110 187 105 160 C88 54 84 40 69 33 C57 27 39 24 6 23 L2 -4 Z " />
<glyph glyph-name="iogonek" unicode="į" horiz-adv-x="259" d="M214 92 C174 62 151 49 138 49 C129 49 124 56 124 67 C124 81 129 104 145 172 C195 375 204 412 204 428 C204 446 196 457 182 457 C160 457 119 435 30 376 L37 352 C99 391 101 392 110 392 C118 392 123 385 123 374 C123 358 99 252 69 138 C50 64 46 47 46 28 C46 11 50 2 61 -9 C13 -34 -4 -56 -4 -89 C-4 -124 26 -145 77 -145 C97 -145 118 -142 153 -134 L147 -115 C130 -118 121 -119 110 -119 C73 -119 54 -105 54 -79 C54 -57 69 -34 93 -18 C154 21 159 24 222 72 L214 92 Z M206 684 C178 684 155 655 155 620 C155 597 169 581 190 581 C217 581 239 608 239 643 C239 668 226 684 206 684 L206 684 Z " />
<glyph glyph-name="Idotaccent" unicode="İ" horiz-adv-x="308" d="M2 -4 C95 -1 127 0 138 0 C171 0 193 -1 241 -4 L245 23 C178 27 167 32 167 59 C167 81 182 176 212 349 C219 389 227 439 239 508 C250 571 256 602 260 617 C267 635 275 638 323 640 L339 641 L343 668 C290 665 260 664 217 664 C176 664 148 665 97 668 L93 641 C168 636 176 632 176 603 C176 578 163 490 137 346 C121 252 110 187 105 160 C88 54 84 40 69 33 C57 27 39 24 6 23 L2 -4 Z M254 875 C224 875 199 844 199 806 C199 781 214 764 237 764 C267 764 290 793 290 831 C290 858 276 875 254 875 L254 875 Z " />
<glyph glyph-name="dotlessi" unicode="ı" horiz-adv-x="259" d="M214 92 C174 62 151 49 138 49 C129 49 124 56 124 67 C124 81 129 104 145 172 C195 375 204 412 204 428 C204 446 196 457 182 457 C160 457 119 435 30 376 L37 352 C98 390 101 392 110 392 C118 392 123 385 123 374 C123 358 98 249 69 138 C50 65 46 46 46 28 C46 1 60 -17 79 -17 C100 -17 128 0 223 72 L214 92 Z " />
<glyph glyph-name="IJ" unicode="Ĳ" horiz-adv-x="625" d="M2 -4 C95 -1 127 0 138 0 C171 0 193 -1 241 -4 L245 23 C178 27 167 32 167 59 C167 81 182 176 212 349 C219 389 227 439 239 508 C250 571 256 602 260 617 C267 635 275 638 323 640 L339 641 L343 668 C290 665 260 664 217 664 C176 664 148 665 97 668 L93 641 C168 636 176 632 176 603 C176 578 163 490 137 346 C121 252 110 187 105 160 C88 54 84 40 69 33 C57 27 39 24 6 23 L2 -4 Z M247 -175 C247 -179 248 -182 249 -182 L250 -188 C251 -188 251 -190 252 -193 L253 -199 C263 -201 269 -201 276 -201 C327 -201 384 -180 418 -147 C473 -96 488 -53 513 133 L580 570 C589 632 592 634 648 640 L664 641 L667 668 C622 665 596 664 546 664 C495 664 468 665 421 668 L419 641 L440 639 C498 634 505 631 505 606 C505 596 495 514 474 360 C435 71 413 -45 387 -97 C363 -144 320 -173 273 -173 C266 -173 261 -172 252 -170 L247 -175 Z " />
<glyph glyph-name="ij" unicode="ĳ" horiz-adv-x="490" d="M214 92 C174 62 151 49 138 49 C129 49 124 56 124 67 C124 81 129 104 145 172 C195 375 204 412 204 428 C204 446 196 457 182 457 C160 457 119 435 30 376 L37 352 C98 390 101 392 110 392 C118 392 123 385 123 374 C123 358 98 249 69 138 C50 65 46 46 46 28 C46 1 60 -17 79 -17 C100 -17 128 0 223 72 L214 92 Z M206 684 C179 684 155 655 155 620 C155 597 169 581 190 581 C218 581 240 608 240 643 C240 668 227 684 206 684 L206 684 Z M139 -200 L131 -263 C138 -266 142 -267 147 -267 C179 -267 215 -250 249 -219 C304 -168 337 -111 359 -26 C373 26 404 160 423 249 C433 298 440 332 442 342 C456 401 459 419 459 429 C459 445 449 457 436 457 C415 457 403 450 285 376 L292 352 C354 391 354 391 365 391 C373 391 378 383 378 372 C378 346 297 -56 279 -123 C262 -183 231 -212 184 -212 C169 -212 161 -209 148 -197 L139 -200 Z M467 684 C439 684 416 655 416 620 C416 597 430 581 451 581 C478 581 500 608 500 643 C500 668 487 684 467 684 L467 684 Z " />
<glyph glyph-name="Kcommaaccent" unicode="Ķ" horiz-adv-x="595" d="M2 -4 C95 -1 127 0 138 0 C171 0 193 -1 241 -4 L245 23 C178 27 167 32 167 59 C167 73 181 162 208 328 C329 182 358 145 465 -4 C506 0 511 0 526 0 C534 0 551 -1 574 -3 L591 -4 L592 23 C548 25 543 28 520 56 C415 190 323 306 283 353 C312 382 317 386 390 456 C512 572 512 573 557 614 C580 635 584 637 611 639 C613 640 620 640 627 641 L628 668 C603 665 590 664 573 664 C556 664 541 665 508 668 L507 658 L507 644 C504 629 502 626 457 579 C340 453 279 394 210 340 C223 412 228 441 239 508 C250 571 256 602 260 617 C267 635 274 638 323 640 L339 641 L343 668 C290 665 260 664 217 664 C176 664 148 665 97 668 L93 641 C168 636 176 632 176 603 C176 578 163 490 137 346 C121 252 110 187 105 160 C88 54 84 40 69 33 C57 27 39 24 6 23 L2 -4 Z M139 -269 C155 -265 158 -264 173 -258 C218 -220 273 -146 315 -70 L310 -60 C260 -73 251 -75 219 -81 C204 -161 182 -206 131 -261 L139 -269 Z " />
<glyph glyph-name="kcommaaccent" unicode="ķ" horiz-adv-x="456" d="M423 64 C385 47 374 43 362 43 C336 43 320 63 298 120 C282 161 259 230 242 290 C314 371 344 390 393 390 C400 390 400 390 419 389 C421 399 428 422 439 451 L436 457 C424 459 419 460 411 460 C356 460 293 402 142 208 C177 372 205 501 218 563 C232 629 235 644 246 692 L236 700 C194 682 124 664 83 662 L80 643 C150 642 159 639 159 616 C159 598 158 592 105 326 C75 172 47 50 29 -5 L38 -13 C54 -8 87 0 103 2 C118 126 138 182 180 221 C181 223 186 229 192 235 C260 17 273 -11 308 -11 C327 -11 342 -4 427 44 L423 64 Z M75 -264 C90 -259 92 -259 107 -253 C150 -215 204 -142 243 -69 L238 -58 C211 -66 198 -69 194 -70 C185 -72 179 -74 152 -79 C137 -157 116 -201 67 -256 L75 -264 Z " />
<glyph glyph-name="kgreenlandic" unicode="ĸ" horiz-adv-x="476" d="M58 -13 C74 -8 106 0 122 2 C138 126 158 182 199 221 C201 223 206 229 211 235 C280 17 293 -11 327 -11 C347 -11 362 -4 447 44 L442 64 C405 47 394 43 381 43 C356 43 340 63 317 120 C301 161 279 230 261 290 C334 371 364 390 413 390 C420 390 420 390 439 389 C441 399 448 422 458 451 L455 457 C444 459 439 460 430 460 C376 460 313 402 161 208 C193 352 205 416 205 433 C205 448 197 457 183 457 C158 457 122 437 32 373 L38 352 C45 356 51 360 57 364 C89 385 102 392 112 392 C122 392 127 386 127 373 C127 327 75 78 49 -5 L58 -13 Z " />
<glyph glyph-name="Lacute" unicode="Ĺ" horiz-adv-x="519" d="M28 -4 C94 -1 123 0 160 0 C190 0 222 -1 266 -2 C318 -3 353 -4 377 -4 C406 -4 433 -3 464 -1 L467 5 C473 68 477 93 487 160 L460 160 C454 138 454 138 443 97 C429 49 429 49 416 45 C403 42 364 40 313 40 C252 40 217 41 166 45 C169 85 172 102 184 181 C193 232 201 283 209 335 C236 499 252 589 255 604 C263 635 266 637 324 640 L337 641 L341 668 C299 665 270 664 219 664 C168 664 139 665 95 668 L91 641 C166 636 175 632 175 603 C175 587 172 562 163 510 C155 462 146 405 134 334 C98 110 87 58 79 46 C73 38 64 34 32 23 L28 -4 Z M241 742 L384 834 C415 853 422 861 422 875 C422 890 409 903 395 903 C380 903 370 897 333 861 L208 742 L241 742 Z " />
<glyph glyph-name="lacute" unicode="ĺ" horiz-adv-x="246" d="M205 91 C161 59 143 48 130 48 C122 48 115 57 115 67 C115 75 116 83 118 93 C130 157 143 221 156 286 C160 307 166 334 173 371 L193 473 C199 503 205 535 213 574 L238 691 L228 700 C191 683 131 667 77 661 L73 643 C139 640 151 636 151 614 C151 607 150 599 148 589 C147 583 142 557 137 526 C116 410 86 260 59 142 C38 50 36 38 36 23 C36 0 50 -17 69 -17 C92 -17 124 3 213 72 L205 91 Z M198 742 L341 834 C372 853 379 861 379 875 C379 890 366 903 352 903 C337 903 327 897 290 861 L165 742 L198 742 Z " />
<glyph glyph-name="Lcommaaccent" unicode="Ļ" horiz-adv-x="519" d="M28 -4 C94 -1 123 0 160 0 C190 0 222 -1 266 -2 C318 -3 353 -4 377 -4 C406 -4 433 -3 464 -1 L467 5 C473 68 477 93 487 160 L460 160 C454 138 454 138 443 97 C429 49 429 49 416 45 C403 42 364 40 313 40 C252 40 217 41 166 45 C169 85 172 102 184 181 C193 232 201 283 209 335 C236 499 252 589 255 604 C263 635 266 637 324 640 L337 641 L341 668 C299 665 270 664 219 664 C168 664 139 665 95 668 L91 641 C166 636 175 632 175 603 C175 587 172 562 163 510 C155 462 146 405 134 334 C98 110 87 58 79 46 C73 38 64 34 32 23 L28 -4 Z M101 -269 C117 -265 120 -264 135 -258 C180 -220 235 -146 277 -70 L272 -60 C222 -73 213 -75 181 -81 C166 -161 144 -206 93 -261 L101 -269 Z " />
<glyph glyph-name="lcommaaccent" unicode="ļ" horiz-adv-x="246" d="M205 91 C162 59 144 48 131 48 C123 48 116 57 116 67 C116 75 117 83 119 93 L137 189 L157 286 C160 303 165 329 174 371 C205 533 213 571 238 691 L228 700 C191 683 131 667 77 661 L73 643 C139 640 151 636 151 614 C151 607 150 599 148 589 C147 582 142 554 137 526 C116 410 86 260 59 142 C38 50 36 38 36 23 C36 0 50 -17 69 -17 C92 -17 124 3 213 72 L205 91 Z M-30 -264 C-15 -259 -13 -259 2 -253 C45 -215 99 -142 138 -69 L133 -58 C106 -66 93 -69 89 -70 C80 -72 74 -74 47 -79 C32 -157 11 -201 -38 -256 L-30 -264 Z " />
<glyph glyph-name="Lcaron" unicode="Ľ" horiz-adv-x="523" d="M33 -4 C99 -1 128 0 165 0 C195 0 227 -1 271 -2 C323 -3 358 -4 382 -4 C411 -4 438 -3 469 -1 L472 5 C478 68 482 93 492 160 L465 160 C459 138 459 138 448 97 C434 49 434 49 421 45 C408 42 369 40 318 40 C257 40 222 41 171 45 C174 85 177 102 189 181 C198 232 206 283 214 335 C241 499 257 589 260 604 C268 635 271 637 329 640 L342 641 L346 668 C304 665 275 664 224 664 C173 664 144 665 100 668 L96 641 C171 636 180 632 180 603 C180 587 177 562 168 510 C160 462 151 405 139 334 C103 110 92 58 84 46 C78 38 69 34 37 23 L33 -4 Z M341 468 C356 472 359 473 374 478 C419 516 475 590 516 666 L511 676 C461 663 451 661 421 655 C405 576 383 530 333 475 L341 468 Z " />
<glyph glyph-name="lcaron" unicode="ľ" horiz-adv-x="317" d="M205 91 C161 59 143 48 130 48 C122 48 115 57 115 67 C115 75 116 83 118 93 C130 157 143 221 156 286 C160 307 166 334 173 371 L193 473 C199 503 205 535 213 574 L238 691 L228 700 C191 683 131 667 77 661 L73 643 C139 640 151 636 151 614 C151 607 150 599 148 589 C147 583 142 557 137 526 C116 410 86 260 59 142 C38 50 36 38 36 23 C36 0 50 -17 69 -17 C92 -17 124 3 213 72 L205 91 Z M237 498 C252 502 254 503 269 508 C312 546 366 619 405 693 L400 703 C373 696 359 692 356 691 L314 682 C299 604 278 560 229 505 L237 498 Z " />
<glyph glyph-name="Ldot" unicode="Ŀ" horiz-adv-x="519" d="M28 -4 C94 -1 123 0 160 0 C190 0 222 -1 266 -2 C319 -3 353 -4 377 -4 C406 -4 433 -3 464 -1 L467 5 C471 74 473 95 481 160 L454 160 C449 138 449 138 439 97 C427 49 427 49 414 45 C401 42 362 40 312 40 C250 40 215 41 164 45 C166 85 168 101 178 181 C184 232 190 283 197 335 C218 498 230 588 233 604 C240 636 243 637 301 640 L314 641 L316 668 C275 665 246 664 195 664 C144 664 114 665 70 668 L68 641 C145 636 153 632 153 598 C153 582 150 556 144 510 C141 482 131 405 122 334 C94 115 85 58 77 46 C71 38 63 34 31 23 L28 -4 Z M423 401 C392 401 367 372 367 337 C367 306 385 286 413 286 C444 286 467 314 467 352 C467 381 449 401 423 401 L423 401 Z " />
<glyph glyph-name="ldot" unicode="ŀ" horiz-adv-x="328" d="M209 91 C165 59 147 48 134 48 C126 48 119 57 119 67 C119 75 120 83 122 93 C134 157 147 221 160 286 C164 307 170 334 177 371 L197 473 C203 503 209 535 217 574 L242 691 L232 700 C195 683 135 667 81 661 L77 643 C143 640 155 636 155 614 C155 607 154 599 152 589 C151 583 146 557 141 526 C120 410 90 260 63 142 C42 50 40 38 40 23 C40 0 54 -17 73 -17 C96 -17 128 3 217 72 L209 91 Z M310 411 C278 411 252 381 252 344 C252 315 269 296 296 296 C327 296 352 326 352 365 C352 393 335 411 310 411 L310 411 Z " />
<glyph glyph-name="Lslash" unicode="Ł" horiz-adv-x="519" d="M28 -4 C95 -1 123 0 161 0 C190 0 222 -1 266 -2 C319 -3 353 -4 377 -4 C406 -4 433 -3 464 -1 L467 5 C473 68 477 96 487 160 L460 160 C454 138 454 138 443 97 C429 49 429 49 416 45 C403 42 364 40 313 40 C252 40 217 41 166 45 C170 90 176 130 214 363 C254 380 294 397 335 414 L330 446 C309 437 272 420 219 397 C226 436 236 497 250 581 C261 637 261 637 324 640 L338 641 L341 668 C299 665 270 664 220 664 C168 664 139 665 95 668 L91 641 C166 636 175 632 175 603 C175 587 171 559 162 503 C156 466 151 437 140 367 C122 359 116 356 84 343 C58 333 52 330 34 323 L38 291 C44 294 59 300 82 310 L134 332 C128 297 122 263 116 227 C103 145 92 87 86 61 C80 41 75 38 32 23 L28 -4 Z " />
<glyph glyph-name="lslash" unicode="ł" horiz-adv-x="254" d="M209 91 C166 59 148 48 135 48 C126 48 120 57 120 67 C120 82 152 251 179 377 C184 379 189 381 195 383 C222 394 241 402 250 406 L286 419 L281 452 C266 445 234 432 186 413 C199 481 207 523 242 691 L232 700 C195 683 135 667 81 661 L78 643 C144 640 156 636 156 614 C156 600 136 489 116 389 C110 387 104 385 99 383 C53 364 39 358 16 349 L20 317 C44 327 74 339 108 353 C95 285 83 228 63 142 C42 47 40 38 40 23 C40 0 54 -17 73 -17 C96 -17 131 5 217 72 L209 91 Z " />
<glyph glyph-name="Nacute" unicode="Ń" horiz-adv-x="719" d="M6 -4 C73 -1 91 0 103 0 C113 0 140 -1 181 -2 C186 -3 199 -3 214 -4 L216 23 L206 24 C158 28 158 28 150 31 C140 35 135 45 135 62 C135 84 150 176 188 397 C199 458 208 507 214 545 C369 274 474 88 530 -14 L575 -14 C597 123 608 185 674 547 C690 635 691 637 747 641 L761 641 L763 668 C719 665 695 664 663 664 C632 664 607 665 559 668 L557 641 C628 636 635 633 635 606 C635 592 632 574 618 490 C617 487 603 402 589 317 C570 201 567 181 552 99 C338 469 268 593 230 668 C197 665 181 664 156 664 C130 664 112 665 77 668 L76 641 C151 634 153 634 184 591 C155 421 134 311 87 75 C78 34 64 25 7 23 L6 -4 Z M435 742 L578 834 C609 853 616 861 616 875 C616 890 603 903 589 903 C573 903 569 901 527 861 L402 742 L435 742 Z " />
<glyph glyph-name="nacute" unicode="ń" horiz-adv-x="517" d="M473 91 C466 87 461 84 455 79 C418 54 407 48 396 48 C388 48 382 56 382 65 C382 80 397 150 421 247 C461 407 461 407 461 427 C461 446 451 457 435 457 C395 457 327 421 273 372 C224 326 188 280 161 226 L169 261 C203 405 205 415 205 433 C205 449 198 457 184 457 C159 457 123 438 32 373 L38 352 C45 356 51 360 57 364 C89 385 102 392 112 392 C122 392 127 386 127 373 C127 353 113 269 95 186 C80 112 76 96 47 -5 L55 -13 C71 -8 91 -4 122 2 C139 123 158 185 198 251 C241 323 323 395 361 395 C372 395 379 387 379 374 C379 349 356 245 325 126 C310 70 304 42 304 27 C304 3 318 -17 334 -17 C360 -17 377 -6 480 72 L473 91 Z M301 522 L444 613 C474 632 482 641 482 655 C482 670 469 683 455 683 C440 683 433 679 394 641 L268 522 L301 522 Z " />
<glyph glyph-name="Ncommaaccent" unicode="Ņ" horiz-adv-x="719" d="M6 -4 C73 -1 91 0 103 0 C113 0 140 -1 181 -2 C186 -3 199 -3 214 -4 L216 23 L206 24 C158 28 158 28 150 31 C140 35 135 45 135 62 C135 84 150 176 188 397 C199 458 208 507 214 545 C369 274 474 88 530 -14 L575 -14 C597 123 608 185 674 547 C690 635 691 637 747 641 L761 641 L763 668 C719 665 695 664 663 664 C632 664 607 665 559 668 L557 641 C628 636 635 633 635 606 C635 592 632 574 618 490 C617 487 603 402 589 317 C570 201 567 181 552 99 C338 469 268 593 230 668 C197 665 181 664 156 664 C130 664 112 665 77 668 L76 641 C151 634 153 634 184 591 C155 421 134 311 87 75 C78 34 64 25 7 23 L6 -4 Z M202 -269 C218 -265 220 -264 236 -258 C280 -220 336 -146 378 -70 L372 -60 C323 -73 314 -75 282 -81 C267 -161 245 -206 194 -261 L202 -269 Z " />
<glyph glyph-name="ncommaaccent" unicode="ņ" horiz-adv-x="517" d="M473 91 C466 87 461 84 455 79 C418 54 407 48 396 48 C388 48 382 56 382 65 C382 80 397 150 421 247 C461 407 461 407 461 427 C461 446 451 457 435 457 C395 457 327 421 273 372 C224 326 188 280 161 226 L169 261 C203 405 205 415 205 433 C205 449 198 457 184 457 C159 457 123 438 32 373 L38 352 C45 356 51 360 57 364 C89 385 102 392 112 392 C122 392 127 386 127 373 C127 353 113 269 95 186 C80 112 76 96 47 -5 L55 -13 C71 -8 91 -4 122 2 C139 123 158 185 198 251 C241 323 323 395 361 395 C372 395 379 387 379 374 C379 349 356 245 325 126 C310 70 304 42 304 27 C304 3 318 -17 334 -17 C360 -17 377 -6 480 72 L473 91 Z M92 -264 C107 -259 109 -259 124 -253 C167 -215 221 -142 260 -69 L255 -58 C228 -66 215 -69 211 -70 C202 -72 196 -74 169 -79 C154 -157 133 -201 84 -256 L92 -264 Z " />
<glyph glyph-name="Ncaron" unicode="Ň" horiz-adv-x="719" d="M6 -4 C73 -1 91 0 103 0 C113 0 140 -1 181 -2 C186 -3 199 -3 214 -4 L216 23 L206 24 C158 28 158 28 150 31 C140 35 135 45 135 62 C135 84 150 176 188 397 C199 458 208 507 214 545 C369 274 474 88 530 -14 L575 -14 C597 123 608 185 674 547 C690 635 691 637 747 641 L761 641 L763 668 C719 665 695 664 663 664 C632 664 607 665 559 668 L557 641 C628 636 635 633 635 606 C635 592 632 574 618 490 C617 487 603 402 589 317 C570 201 567 181 552 99 C338 469 268 593 230 668 C197 665 181 664 156 664 C130 664 112 665 77 668 L76 641 C151 634 153 634 184 591 C155 421 134 311 87 75 C78 34 64 25 7 23 L6 -4 Z M626 908 L597 908 L457 803 L369 908 L337 908 L427 746 L467 746 L626 908 Z " />
<glyph glyph-name="ncaron" unicode="ň" horiz-adv-x="517" d="M473 91 C466 87 461 84 455 79 C418 54 407 48 396 48 C388 48 382 56 382 65 C382 80 397 150 421 247 C461 407 461 407 461 427 C461 446 451 457 435 457 C395 457 327 421 273 372 C224 326 188 280 161 226 L169 261 C203 405 205 415 205 433 C205 449 198 457 184 457 C159 457 123 438 32 373 L38 352 C45 356 51 360 57 364 C89 385 102 392 112 392 C122 392 127 386 127 373 C127 353 113 269 95 186 C80 112 76 96 47 -5 L55 -13 C71 -8 91 -4 122 2 C139 123 158 185 198 251 C241 323 323 395 361 395 C372 395 379 387 379 374 C379 349 356 245 325 126 C310 70 304 42 304 27 C304 3 318 -17 334 -17 C360 -17 377 -6 480 72 L473 91 Z M486 688 L457 688 L317 583 L229 688 L197 688 L287 526 L326 526 L486 688 Z " />
<glyph glyph-name="napostrophe" unicode="ŉ" horiz-adv-x="626" d="M248 692 C222 682 200 675 162 667 C151 590 126 527 84 463 L91 454 C105 460 108 461 121 466 C175 531 226 612 256 678 L248 692 Z M581 91 L563 79 C527 54 516 48 505 48 C497 48 491 56 491 65 C491 80 505 146 530 247 C569 407 569 407 569 427 C569 446 559 457 543 457 C504 457 435 421 382 372 C333 326 297 280 270 226 C274 245 277 258 277 261 C311 404 313 415 313 433 C313 449 306 457 292 457 C267 457 232 438 141 373 L147 352 C153 356 159 360 166 364 C198 385 211 392 221 392 C231 392 236 386 236 373 C236 353 222 269 204 186 C189 113 185 98 156 -5 L163 -13 C179 -8 199 -4 230 2 C247 123 267 185 306 251 C350 323 432 395 470 395 C481 395 488 387 488 374 C488 349 465 245 434 126 C419 70 413 42 413 27 C413 3 427 -17 443 -17 C469 -17 487 -6 589 72 L581 91 Z " />
<glyph glyph-name="Eng" unicode="Ŋ" horiz-adv-x="715" d="M341 -175 C342 -179 343 -182 343 -182 L345 -188 C345 -188 346 -190 346 -193 L348 -199 C358 -201 363 -201 371 -201 C425 -201 485 -180 521 -147 C580 -95 597 -47 621 134 C626 166 636 228 652 317 C683 485 696 572 696 609 C696 655 676 684 644 684 C520 684 309 536 219 387 C247 514 248 522 255 552 C270 616 275 640 275 654 C275 673 266 684 250 684 C225 684 172 657 86 599 L92 575 C152 607 157 609 166 609 C174 609 179 602 179 590 C179 568 133 304 109 185 C95 117 89 94 61 -5 L68 -14 C109 -2 127 1 152 2 C159 50 169 97 198 220 C222 322 236 355 286 419 C363 519 519 631 581 631 C596 631 603 619 603 592 C603 562 596 510 576 385 C504 -64 504 -64 471 -116 C450 -149 407 -173 368 -173 C360 -173 355 -172 347 -170 L341 -175 Z " />
<glyph glyph-name="eng" unicode="ŋ" horiz-adv-x="484" d="M136 -200 L128 -263 C135 -266 139 -267 144 -267 C183 -267 226 -242 267 -198 C322 -138 345 -85 374 43 C395 140 414 218 442 331 C456 386 461 411 461 427 C461 446 451 457 435 457 C395 457 327 421 273 372 C224 326 188 280 161 226 C166 249 169 260 169 261 C203 406 205 415 205 433 C205 449 198 457 184 457 C159 457 123 438 32 373 L38 352 C45 356 51 360 57 364 C88 385 102 392 112 392 C122 392 127 386 127 373 C127 353 113 269 95 186 C80 112 76 96 47 -5 L55 -13 C71 -8 91 -4 122 2 C139 123 158 185 198 251 C241 323 323 395 361 395 C372 395 379 387 379 374 C379 359 375 336 362 277 C337 166 334 152 314 53 C281 -109 279 -118 268 -146 C249 -191 222 -212 182 -212 C167 -212 159 -209 145 -197 L136 -200 Z " />
<glyph glyph-name="Omacron" unicode="Ō" horiz-adv-x="738" d="M454 683 C344 683 258 649 192 579 C114 497 70 374 70 243 C70 73 161 -20 329 -20 C436 -20 526 21 594 102 C666 188 706 302 706 421 C706 590 616 683 454 683 L454 683 Z M427 646 C487 646 542 623 573 585 C604 547 619 493 619 419 C619 314 595 211 551 135 C510 62 434 17 353 17 C293 17 234 43 201 85 C171 122 155 179 155 249 C155 351 180 453 222 529 C266 607 335 646 427 646 L427 646 Z M592 799 L602 842 L355 842 L346 799 L592 799 Z " />
<glyph glyph-name="omacron" unicode="ō" horiz-adv-x="458" d="M286 457 C223 457 162 425 117 367 C70 307 46 228 46 133 C46 35 86 -17 162 -17 C299 -17 412 131 412 311 C412 406 368 457 286 457 L286 457 Z M255 424 C279 424 304 412 317 393 C331 373 337 346 337 299 C337 235 326 173 305 113 C281 48 250 18 204 18 C148 18 120 58 120 137 C120 211 139 305 163 356 C185 401 216 424 255 424 L255 424 Z M412 573 L422 616 L174 616 L166 573 L412 573 Z " />
<glyph glyph-name="Ohungarumlaut" unicode="Ő" horiz-adv-x="738" d="M454 683 C344 683 258 649 192 579 C114 497 70 374 70 243 C70 73 161 -20 329 -20 C436 -20 526 21 594 102 C666 188 706 302 706 421 C706 590 616 683 454 683 L454 683 Z M427 646 C487 646 542 623 573 585 C604 547 619 493 619 419 C619 314 595 211 551 135 C510 62 434 17 353 17 C293 17 234 43 201 85 C171 122 155 179 155 249 C155 351 180 453 222 529 C266 607 335 646 427 646 L427 646 Z M393 742 L517 834 C545 854 551 862 551 875 C551 890 538 903 523 903 C507 903 497 896 466 861 L361 742 L393 742 Z M532 742 L656 834 C684 855 690 862 690 875 C690 890 677 903 662 903 C646 903 636 895 605 861 L499 742 L532 742 Z " />
<glyph glyph-name="ohungarumlaut" unicode="ő" horiz-adv-x="458" d="M286 457 C223 457 162 425 117 367 C70 307 46 228 46 133 C46 35 86 -17 162 -17 C299 -17 412 131 412 311 C412 406 368 457 286 457 L286 457 Z M255 424 C279 424 304 412 317 393 C331 373 337 346 337 299 C337 235 326 173 305 113 C281 48 250 18 204 18 C148 18 120 58 120 137 C120 211 139 305 163 356 C185 401 216 424 255 424 L255 424 Z M214 522 L338 613 C366 634 372 642 372 655 C372 670 359 683 344 683 C328 683 319 676 287 641 L181 522 L214 522 Z M353 522 L476 613 C505 634 511 642 511 655 C511 670 498 683 483 683 C467 683 458 676 426 641 L320 522 L353 522 Z " />
<glyph glyph-name="OE" unicode="Œ" horiz-adv-x="939" d="M876 153 C861 86 852 57 843 50 C834 43 779 39 694 39 C647 39 623 40 582 43 C595 133 621 281 629 324 L734 322 C773 322 798 321 835 318 C841 333 842 336 844 340 C846 346 847 347 849 351 C850 353 852 358 855 363 L850 370 C801 364 774 362 727 362 C701 362 678 363 636 365 C645 420 672 564 685 625 C707 627 719 627 740 627 C806 627 854 623 870 617 C885 611 886 608 888 545 L889 521 L914 521 C918 577 920 596 928 656 L925 663 C897 667 878 668 850 668 C839 668 821 668 797 667 C741 665 718 664 700 664 C675 664 655 665 622 668 L616 662 L613 619 C612 617 612 612 611 606 C565 659 515 680 435 680 C338 680 253 645 190 578 C114 499 70 379 70 254 C70 85 156 -16 301 -16 C384 -16 448 12 519 80 C515 57 514 53 501 5 L506 -4 C603 -1 635 0 645 0 C666 0 692 -1 722 -2 C759 -3 782 -4 799 -4 C813 -4 829 -3 875 -1 L883 5 C885 37 891 80 904 153 L876 153 Z M545 265 C533 192 521 153 503 123 C468 65 409 33 337 33 C217 33 155 110 155 258 C155 490 262 645 423 645 C519 645 579 589 579 499 C579 469 578 465 566 387 L545 265 Z " />
<glyph glyph-name="oe" unicode="œ" horiz-adv-x="660" d="M601 102 C526 46 492 30 453 30 C408 30 379 64 379 117 C379 139 382 167 388 198 C560 238 641 295 641 377 C641 426 611 457 564 457 C519 457 463 429 405 376 C382 434 350 457 289 457 C152 457 46 317 46 136 C46 83 56 47 78 22 C98 -2 135 -17 170 -17 C223 -17 268 7 317 63 C332 8 363 -17 418 -17 C471 -17 511 3 605 76 L601 102 Z M392 222 C400 268 407 296 417 322 C441 381 481 416 526 416 C551 416 569 397 569 368 C569 296 505 243 392 222 L392 222 Z M260 428 C310 428 340 388 340 323 C340 265 323 162 306 115 C284 54 245 20 199 20 C145 20 119 63 119 149 C119 217 132 287 156 342 C181 400 215 428 260 428 L260 428 Z " />
<glyph glyph-name="Racute" unicode="Ŕ" horiz-adv-x="614" d="M3 -4 C83 -1 106 0 131 0 C163 0 190 -1 241 -4 L245 23 C177 28 167 33 167 62 C167 97 225 435 263 625 C292 630 309 631 332 631 C411 631 456 592 456 523 C456 432 379 360 280 360 C269 360 259 361 240 364 L239 351 C292 286 420 84 465 -4 C490 -1 502 0 520 0 C535 0 546 -1 588 -4 L588 23 C552 26 543 31 524 57 C446 169 371 285 340 340 C391 352 417 363 449 384 C504 422 537 479 537 538 C537 620 478 669 380 669 C366 669 332 668 297 666 C270 665 247 664 224 664 C186 664 125 666 99 668 L95 641 C165 638 177 632 177 602 C177 580 158 455 133 317 L101 137 C88 53 82 38 65 31 C55 28 41 25 6 23 L3 -4 Z M336 742 L479 834 C510 854 517 861 517 875 C517 890 504 903 490 903 C474 903 470 901 428 861 L303 742 L336 742 Z " />
<glyph glyph-name="racute" unicode="ŕ" horiz-adv-x="346" d="M40 352 C48 357 55 361 57 362 C68 368 80 375 89 380 C100 387 110 391 118 391 C124 391 128 383 128 372 C128 351 113 256 99 187 C81 98 69 54 49 -5 L57 -13 C80 -6 110 1 124 2 C147 127 163 190 183 230 C223 311 270 362 306 362 C318 362 327 358 343 346 L356 349 C357 380 362 415 371 450 C360 455 354 457 347 457 C302 457 236 377 166 238 C174 276 174 278 189 340 C202 391 207 417 207 431 C207 446 199 457 187 457 C171 457 143 444 102 419 C85 408 68 397 50 386 L33 375 L40 352 Z M216 522 L359 613 C389 632 397 641 397 655 C397 670 384 683 370 683 C354 683 350 680 309 641 L183 522 L216 522 Z " />
<glyph glyph-name="Rcommaaccent" unicode="Ŗ" horiz-adv-x="614" d="M3 -4 C83 -1 106 0 131 0 C163 0 190 -1 241 -4 L245 23 C177 28 167 33 167 62 C167 97 225 435 263 625 C292 630 309 631 332 631 C411 631 456 592 456 523 C456 432 379 360 280 360 C269 360 259 361 240 364 L239 351 C292 286 420 84 465 -4 C490 -1 502 0 520 0 C535 0 546 -1 588 -4 L588 23 C552 26 543 31 524 57 C446 169 371 285 340 340 C391 352 417 363 449 384 C504 422 537 479 537 538 C537 620 478 669 380 669 C366 669 332 668 297 666 C270 665 247 664 224 664 C186 664 125 666 99 668 L95 641 C165 638 177 632 177 602 C177 580 158 455 133 317 L101 137 C88 53 82 38 65 31 C55 28 41 25 6 23 L3 -4 Z M150 -269 C165 -265 168 -264 183 -258 C228 -220 284 -146 326 -70 L320 -60 C271 -73 262 -75 230 -81 C214 -161 192 -206 142 -261 L150 -269 Z " />
<glyph glyph-name="rcommaaccent" unicode="ŗ" horiz-adv-x="346" d="M40 352 C48 357 55 361 57 362 C68 368 79 375 90 380 C101 387 110 391 118 391 C124 391 128 383 128 372 C128 351 113 256 99 187 C80 97 69 53 49 -5 L57 -13 C80 -6 111 1 124 2 C147 127 164 190 183 230 C223 311 270 362 306 362 C318 362 327 358 343 346 L356 349 C357 380 362 415 371 450 C360 455 354 457 347 457 C302 457 236 377 166 238 C174 276 174 278 189 340 C202 391 207 417 207 431 C207 446 199 457 187 457 C171 457 143 444 102 419 C85 408 68 397 50 386 C44 382 40 379 33 375 L40 352 Z M-33 -264 C-18 -259 -16 -259 -1 -253 C42 -215 96 -142 135 -69 L130 -58 C103 -66 90 -69 86 -70 C77 -72 71 -74 44 -79 C29 -157 8 -201 -41 -256 L-33 -264 Z " />
<glyph glyph-name="Rcaron" unicode="Ř" horiz-adv-x="614" d="M3 -4 C83 -1 106 0 131 0 C163 0 190 -1 241 -4 L245 23 C177 28 167 33 167 62 C167 97 225 435 263 625 C292 630 309 631 332 631 C411 631 456 592 456 523 C456 432 379 360 280 360 C269 360 259 361 240 364 L239 351 C292 286 420 84 465 -4 C490 -1 502 0 520 0 C535 0 546 -1 588 -4 L588 23 C552 26 543 31 524 57 C446 169 371 285 340 340 C391 352 417 363 449 384 C504 422 537 479 537 538 C537 620 478 669 380 669 C366 669 332 668 297 666 C270 665 247 664 224 664 C186 664 125 666 99 668 L95 641 C165 638 177 632 177 602 C177 580 158 455 133 317 L101 137 C88 53 82 38 65 31 C55 28 41 25 6 23 L3 -4 Z M527 908 L498 908 L358 803 L270 908 L238 908 L328 746 L367 746 L527 908 Z " />
<glyph glyph-name="rcaron" unicode="ř" horiz-adv-x="346" d="M40 352 C48 357 55 361 57 362 C68 368 80 375 89 380 C100 387 110 391 118 391 C124 391 128 383 128 372 C128 351 113 256 99 187 C81 98 69 54 49 -5 L57 -13 C80 -6 110 1 124 2 C147 127 163 190 183 230 C223 311 270 362 306 362 C318 362 327 358 343 346 L356 349 C357 380 362 415 371 450 C360 455 354 457 347 457 C302 457 236 377 166 238 C174 276 174 278 189 340 C202 391 207 417 207 431 C207 446 199 457 187 457 C171 457 143 444 102 419 C85 408 68 397 50 386 L33 375 L40 352 Z M401 688 L372 688 L232 583 L144 688 L112 688 L202 526 L241 526 L401 688 Z " />
<glyph glyph-name="Sacute" unicode="Ś" horiz-adv-x="520" d="M77 168 C75 159 74 150 74 147 C67 88 66 86 51 21 C98 -7 146 -20 202 -20 C342 -20 469 93 469 218 C469 290 432 332 331 371 C220 415 195 440 195 507 C195 585 254 642 335 642 C380 642 407 630 440 595 C441 581 441 575 441 566 C441 554 441 544 440 522 L468 522 C471 563 479 607 491 652 C452 674 416 683 365 683 C225 683 122 592 122 468 C122 394 153 357 246 322 C362 278 389 251 389 176 C389 90 322 27 230 27 C181 27 138 44 104 78 L104 99 L104 144 C105 148 105 158 105 168 L77 168 Z M335 742 L478 834 C509 854 516 861 516 875 C516 890 503 903 489 903 C473 903 469 901 427 861 L302 742 L335 742 Z " />
<glyph glyph-name="sacute" unicode="ś" horiz-adv-x="386" d="M56 137 C53 96 52 86 41 31 C40 28 38 19 36 8 C68 -8 108 -17 151 -17 C250 -17 340 65 340 156 C340 205 312 231 236 254 C156 278 131 299 131 341 C131 386 170 420 221 420 C247 420 270 413 291 399 C306 389 308 384 308 366 C308 359 308 337 307 323 L330 323 C336 382 337 393 345 434 C312 451 289 457 256 457 C156 457 72 387 72 305 C72 259 99 230 164 207 C233 183 233 183 241 178 C262 166 271 150 271 123 C271 58 233 17 174 17 C145 17 118 26 97 43 C84 54 80 63 80 82 L81 121 C81 124 81 129 80 137 L56 137 Z M236 522 L379 613 C409 632 417 641 417 655 C417 670 404 683 390 683 C375 683 368 679 329 641 L203 522 L236 522 Z " />
<glyph glyph-name="Scircumflex" unicode="Ŝ" horiz-adv-x="520" d="M77 168 C75 159 74 150 74 147 C67 88 66 86 51 21 C98 -7 146 -20 202 -20 C342 -20 469 93 469 218 C469 290 432 332 331 371 C220 415 195 440 195 507 C195 585 254 642 335 642 C380 642 407 630 440 595 C441 581 441 575 441 566 C441 554 441 544 440 522 L468 522 C471 563 479 607 491 652 C452 674 416 683 365 683 C225 683 122 592 122 468 C122 394 153 357 246 322 C362 278 389 251 389 176 C389 90 322 27 230 27 C181 27 138 44 104 78 L104 99 L104 144 C105 148 105 158 105 168 L77 168 Z M207 739 L243 739 L383 844 L471 739 L496 739 L413 902 L374 902 L207 739 Z " />
<glyph glyph-name="scircumflex" unicode="ŝ" horiz-adv-x="386" d="M56 137 C53 96 52 86 41 31 C40 28 38 19 36 8 C68 -8 108 -17 151 -17 C250 -17 340 65 340 156 C340 205 312 231 236 254 C156 278 131 299 131 341 C131 386 170 420 221 420 C247 420 270 413 291 399 C306 389 308 384 308 366 C308 359 308 337 307 323 L330 323 C336 382 337 393 345 434 C312 451 289 457 256 457 C156 457 72 387 72 305 C72 259 99 230 164 207 C233 183 233 183 241 178 C262 166 271 150 271 123 C271 58 233 17 174 17 C145 17 118 26 97 43 C84 54 80 63 80 82 L81 121 C81 124 81 129 80 137 L56 137 Z M92 519 L128 519 L268 624 L356 519 L381 519 L298 682 L259 682 L92 519 Z " />
<glyph glyph-name="Scedilla" unicode="Ş" horiz-adv-x="520" d="M243 -17 C369 2 469 106 469 217 C469 290 432 332 331 371 C220 415 195 440 195 507 C195 585 254 642 335 642 C380 642 407 630 440 595 C441 581 441 575 441 566 C441 554 441 544 440 522 L468 522 C471 563 479 607 491 652 C452 674 416 683 365 683 C225 683 122 592 122 468 C122 394 153 357 246 322 C362 278 389 251 389 176 C389 90 322 27 230 27 C181 27 138 44 104 78 L104 99 L104 144 C105 148 105 158 105 168 L77 168 C75 159 74 150 74 147 C67 88 66 86 51 21 C93 -6 147 -20 210 -20 L173 -83 L182 -89 C194 -84 200 -83 208 -83 C235 -83 256 -101 256 -124 C256 -152 232 -172 198 -172 C176 -172 157 -167 123 -153 L108 -184 C149 -201 173 -206 206 -206 C275 -206 324 -170 324 -119 C324 -78 294 -51 249 -51 C239 -51 233 -52 220 -55 L243 -17 Z " />
<glyph glyph-name="scedilla" unicode="ş" horiz-adv-x="386" d="M173 -15 C267 -2 340 73 340 156 C340 205 312 231 236 255 C156 279 131 299 131 341 C131 386 170 420 221 420 C247 420 270 413 291 399 C306 389 308 384 308 366 C308 359 308 337 307 323 L330 323 C336 382 337 393 345 434 C312 451 289 457 256 457 C156 457 72 387 72 305 C72 259 99 230 164 207 C233 183 233 183 241 178 C262 166 271 150 271 123 C271 58 233 17 174 17 C145 17 118 26 97 43 C84 54 80 63 80 82 L81 121 C81 124 81 129 80 137 L56 137 C54 104 47 52 36 8 C61 -6 101 -15 144 -17 L110 -75 L118 -81 C129 -77 134 -76 142 -76 C167 -76 186 -92 186 -113 C186 -138 164 -156 133 -156 C112 -156 96 -152 65 -138 L51 -167 C89 -182 109 -187 140 -187 C203 -187 247 -154 247 -108 C247 -71 220 -46 179 -46 C170 -46 164 -47 152 -49 L173 -15 Z " />
<glyph glyph-name="Scaron" unicode="Š" horiz-adv-x="520" d="M77 168 C75 159 74 150 74 147 C67 88 66 86 51 21 C98 -7 146 -20 202 -20 C342 -20 469 93 469 218 C469 290 432 332 331 371 C220 415 195 440 195 507 C195 585 254 642 335 642 C380 642 407 630 440 595 C441 581 441 575 441 566 C441 554 441 544 440 522 L468 522 C471 563 479 607 491 652 C452 674 416 683 365 683 C225 683 122 592 122 468 C122 394 153 357 246 322 C362 278 389 251 389 176 C389 90 322 27 230 27 C181 27 138 44 104 78 L104 99 L104 144 C105 148 105 158 105 168 L77 168 Z M546 908 L517 908 L377 803 L289 908 L257 908 L347 746 L386 746 L546 908 Z " />
<glyph glyph-name="scaron" unicode="š" horiz-adv-x="386" d="M56 137 C53 96 52 86 41 31 C40 28 38 19 36 8 C68 -8 108 -17 151 -17 C250 -17 340 65 340 156 C340 205 312 231 236 254 C156 278 131 299 131 341 C131 386 170 420 221 420 C247 420 270 413 291 399 C306 389 308 384 308 366 C308 359 308 337 307 323 L330 323 C336 382 337 393 345 434 C312 451 289 457 256 457 C156 457 72 387 72 305 C72 259 99 230 164 207 C233 183 233 183 241 178 C262 166 271 150 271 123 C271 58 233 17 174 17 C145 17 118 26 97 43 C84 54 80 63 80 82 L81 121 C81 124 81 129 80 137 L56 137 Z M421 688 L392 688 L252 583 L164 688 L132 688 L222 526 L261 526 L421 688 Z " />
<glyph glyph-name="Tcommaaccent" unicode="Ţ" horiz-adv-x="552" d="M119 -4 C167 -1 197 0 253 0 C306 0 333 -1 378 -4 L382 23 C372 24 364 24 361 24 C303 28 293 33 293 62 C293 82 312 203 358 466 C380 597 380 597 385 627 C433 626 462 625 469 625 C491 623 512 622 533 621 C555 619 558 616 559 592 L559 511 L585 511 C586 522 587 529 588 532 C598 616 599 618 610 661 L601 668 C475 665 425 664 338 664 C251 664 200 665 87 668 L79 660 C78 630 77 615 73 586 L66 531 C66 529 65 522 64 511 L90 511 C93 524 97 536 98 540 C118 616 120 620 152 622 C205 625 246 626 306 627 C295 536 288 487 269 377 C256 299 244 222 231 145 C219 76 215 57 210 48 C202 31 190 27 141 24 L122 23 L119 -4 Z M105 -269 C121 -265 124 -264 139 -258 C184 -220 239 -146 281 -70 L276 -60 C226 -73 217 -75 185 -81 C170 -161 148 -206 98 -261 L105 -269 Z " />
<glyph glyph-name="tcommaaccent" unicode="ţ" horiz-adv-x="303" d="M240 110 C197 71 164 49 149 49 C139 49 133 58 133 75 C133 88 151 187 188 372 C223 372 248 370 284 366 C286 376 286 379 289 390 L293 411 L290 416 C267 414 246 413 225 413 C219 413 218 413 196 414 C203 451 223 551 236 611 L232 620 C203 604 181 594 156 587 C152 546 139 465 129 416 C110 407 86 398 45 387 L42 372 C55 371 66 371 71 371 C79 371 79 371 122 372 C101 264 84 184 70 121 C58 70 54 48 54 27 C54 0 66 -17 86 -17 C113 -17 159 13 250 90 L240 110 Z M-11 -264 C4 -259 6 -259 21 -253 C64 -215 118 -142 157 -69 L152 -58 C125 -66 112 -69 108 -70 C99 -72 93 -74 66 -79 C51 -157 30 -201 -19 -256 L-11 -264 Z " />
<glyph glyph-name="Tcaron" unicode="Ť" horiz-adv-x="552" d="M119 -4 C167 -1 197 0 253 0 C306 0 333 -1 378 -4 L382 23 C372 24 364 24 361 24 C303 28 293 33 293 62 C293 82 312 203 358 466 C380 597 380 597 385 627 C433 626 462 625 469 625 C491 623 512 622 533 621 C555 619 558 616 559 592 L559 511 L585 511 C586 522 587 529 588 532 C598 616 599 618 610 661 L601 668 C475 665 425 664 338 664 C251 664 200 665 87 668 L79 660 C78 630 77 615 73 586 L66 531 C66 529 65 522 64 511 L90 511 C93 524 97 536 98 540 C118 616 120 620 152 622 C205 625 246 626 306 627 C295 536 288 487 269 377 C256 299 244 222 231 145 C219 76 215 57 210 48 C202 31 190 27 141 24 L122 23 L119 -4 Z M543 908 L514 908 L374 803 L286 908 L254 908 L344 746 L383 746 L543 908 Z " />
<glyph glyph-name="tcaron" unicode="ť" horiz-adv-x="347" d="M240 110 C196 71 163 49 148 49 C138 49 132 58 132 75 C132 96 134 107 188 372 C222 372 248 370 284 366 C285 376 286 379 288 390 L293 411 L289 416 C267 414 245 413 224 413 C218 413 217 413 196 414 C202 451 223 551 236 611 L232 620 C203 604 181 594 155 587 C151 546 138 465 129 416 C109 407 85 398 44 387 L41 372 C54 371 66 371 71 371 C79 371 79 371 121 372 C94 233 87 195 70 121 C58 70 54 48 54 27 C54 0 66 -17 86 -17 C113 -17 159 13 249 90 L240 110 Z M266 498 C281 502 283 503 298 508 C341 546 395 619 434 693 L429 703 C401 696 388 692 385 691 L343 682 C328 604 307 560 258 505 L266 498 Z " />
<glyph glyph-name="Tbar" unicode="Ŧ" horiz-adv-x="552" d="M119 -4 C167 -1 197 0 253 0 C306 0 333 -1 378 -4 L382 23 C373 24 364 24 361 24 C303 28 293 33 293 62 C293 76 297 103 307 161 L324 270 C336 340 339 359 345 396 C416 396 473 395 518 394 C522 415 524 427 525 430 C481 428 462 428 351 428 C367 519 378 585 385 627 C433 626 462 625 469 625 C491 623 512 622 533 621 C555 619 558 616 559 592 L559 511 L585 511 C586 522 587 529 588 532 C598 616 599 618 610 661 L601 668 C475 665 425 664 338 664 C251 664 200 665 87 668 L79 660 C78 630 77 615 73 586 C71 568 69 549 66 531 C66 529 65 522 64 511 L90 511 C93 524 97 536 98 540 C118 616 120 620 152 622 C205 625 246 627 306 627 C303 603 293 536 277 428 L253 428 L185 428 C154 428 140 428 107 429 C104 413 104 409 101 395 C141 396 181 396 272 396 C266 357 264 345 250 261 C242 212 234 169 231 145 C217 64 213 47 203 38 C195 30 179 26 141 24 L122 23 L119 -4 Z " />
<glyph glyph-name="tbar" unicode="ŧ" horiz-adv-x="310" d="M254 110 C210 71 177 49 162 49 C152 49 146 58 146 74 C146 93 155 144 185 290 L229 290 C258 290 258 290 281 289 C282 299 287 315 289 319 C265 318 253 318 239 318 L191 318 C193 329 196 345 202 372 C236 372 262 370 298 366 C299 376 300 379 302 390 L307 411 L303 416 C281 414 259 413 238 413 C232 413 231 413 210 414 C216 451 237 551 250 611 L246 620 C217 604 195 594 169 587 C165 546 153 465 143 416 C124 407 99 398 58 387 L55 372 C68 371 80 371 85 371 C93 371 93 371 135 372 L133 360 L127 329 C127 328 126 324 125 318 L87 318 C76 318 66 318 46 319 C45 309 44 303 40 289 C69 290 70 290 83 290 L119 290 C109 236 93 162 84 121 C72 70 68 48 68 27 C68 0 80 -17 100 -17 C127 -17 174 14 263 90 L254 110 Z " />
<glyph glyph-name="utilde" unicode="ũ" horiz-adv-x="501" d="M457 91 C406 58 391 49 384 49 C374 49 368 57 368 69 C368 98 402 266 426 353 L448 437 L451 449 L446 457 C426 451 422 450 383 442 C364 327 342 260 306 204 C260 133 175 52 146 52 C137 52 131 62 131 75 C131 97 147 175 167 255 C205 408 207 416 207 430 C207 445 197 457 185 457 C163 457 127 438 30 376 L37 352 C46 358 48 360 56 364 C93 386 103 392 111 392 C119 392 124 386 124 375 C124 359 110 290 92 210 C58 65 56 56 56 33 C56 3 71 -17 93 -17 C123 -17 173 17 231 77 C275 123 302 160 338 222 C334 208 331 194 330 191 C295 56 291 40 291 19 C291 -2 303 -17 320 -17 C346 -17 372 -1 464 72 L457 91 Z M195 557 C209 590 222 602 245 602 C257 602 269 598 292 588 C351 560 358 558 377 558 C418 558 449 595 461 657 L442 657 C427 621 419 612 398 612 C384 612 372 616 345 628 C294 652 283 655 259 655 C233 655 213 643 196 618 C187 604 183 593 174 557 L195 557 Z " />
<glyph glyph-name="Umacron" unicode="Ū" horiz-adv-x="729" d="M90 641 C161 636 173 631 173 607 C173 588 157 487 133 353 C106 203 101 168 101 130 C101 41 170 -20 270 -20 C354 -20 435 24 524 118 C518 77 513 51 500 1 L503 -4 C543 -1 561 0 583 0 C601 0 614 -1 667 -4 L670 23 C601 25 590 30 590 61 C590 86 604 183 636 366 C646 424 659 504 665 538 C681 630 682 633 710 636 L744 640 L756 641 L756 668 C715 665 693 664 649 664 C598 664 570 665 519 668 L515 641 C588 637 599 632 599 604 C599 589 596 565 587 514 L562 359 C543 236 543 235 532 173 C463 82 390 38 305 38 C224 38 178 78 178 149 C178 210 224 493 262 662 L257 668 C225 665 207 664 177 664 C146 664 128 665 94 668 L90 641 Z M588 799 L597 842 L350 842 L342 799 L588 799 Z " />
<glyph glyph-name="umacron" unicode="ū" horiz-adv-x="501" d="M457 91 C406 58 391 49 384 49 C374 49 368 57 368 69 C368 98 402 266 426 353 L448 437 L451 449 L446 457 C426 451 422 450 383 442 C364 327 342 260 306 204 C260 133 175 52 146 52 C137 52 131 62 131 75 C131 97 147 175 167 255 C205 408 207 416 207 430 C207 445 197 457 185 457 C163 457 127 438 30 376 L37 352 C46 358 48 360 56 364 C93 386 103 392 111 392 C119 392 124 386 124 375 C124 359 110 290 92 210 C58 65 56 56 56 33 C56 3 71 -17 93 -17 C123 -17 173 17 231 77 C275 123 302 160 338 222 C334 208 331 194 330 191 C295 56 291 40 291 19 C291 -2 303 -17 320 -17 C346 -17 372 -1 464 72 L457 91 Z M434 573 L443 616 L196 616 L187 573 L434 573 Z " />
<glyph glyph-name="ubreve" unicode="ŭ" horiz-adv-x="501" d="M457 91 C406 58 391 49 384 49 C374 49 368 57 368 69 C368 98 402 266 426 353 L448 437 L451 449 L446 457 C426 451 422 450 383 442 C364 327 342 260 306 204 C260 133 175 52 146 52 C137 52 131 62 131 75 C131 97 147 175 167 255 C205 408 207 416 207 430 C207 445 197 457 185 457 C163 457 127 438 30 376 L37 352 C46 358 48 360 56 364 C93 386 103 392 111 392 C119 392 124 386 124 375 C124 359 110 290 92 210 C58 65 56 56 56 33 C56 3 71 -17 93 -17 C123 -17 173 17 231 77 C275 123 302 160 338 222 C334 208 331 194 330 191 C295 56 291 40 291 19 C291 -2 303 -17 320 -17 C346 -17 372 -1 464 72 L457 91 Z M202 677 C206 633 208 616 215 599 C230 561 269 536 314 536 C381 536 431 585 457 677 L431 677 C406 621 369 594 319 594 C268 594 234 625 228 677 L202 677 Z " />
<glyph glyph-name="Uring" unicode="Ů" horiz-adv-x="729" d="M90 641 C161 636 173 631 173 607 C173 588 157 487 133 353 C106 203 101 168 101 130 C101 41 170 -20 270 -20 C354 -20 435 24 524 118 C518 77 513 51 500 1 L503 -4 C543 -1 561 0 583 0 C601 0 614 -1 667 -4 L670 23 C601 25 590 30 590 61 C590 86 604 183 636 366 C646 424 659 504 665 538 C681 630 682 633 710 636 L744 640 L756 641 L756 668 C715 665 693 664 649 664 C598 664 570 665 519 668 L515 641 C588 637 599 632 599 604 C599 589 596 565 587 514 L562 359 C543 236 543 235 532 173 C463 82 390 38 305 38 C224 38 178 78 178 149 C178 210 224 493 262 662 L257 668 C225 665 207 664 177 664 C146 664 128 665 94 668 L90 641 Z M474 918 C405 918 355 870 355 803 C355 757 386 729 439 729 C510 729 559 776 559 844 C559 891 528 918 474 918 L474 918 Z M470 899 C502 899 522 879 522 845 C522 789 489 748 443 748 C412 748 392 769 392 801 C392 858 425 899 470 899 L470 899 Z " />
<glyph glyph-name="uring" unicode="ů" horiz-adv-x="501" d="M457 91 C406 58 391 49 384 49 C374 49 368 57 368 69 C368 98 402 266 426 353 L448 437 L451 449 L446 457 C426 451 422 450 383 442 C364 327 342 260 306 204 C260 133 175 52 146 52 C137 52 131 62 131 75 C131 97 147 175 167 255 C205 408 207 416 207 430 C207 445 197 457 185 457 C163 457 127 438 30 376 L37 352 C46 358 48 360 56 364 C93 386 103 392 111 392 C119 392 124 386 124 375 C124 359 110 290 92 210 C58 65 56 56 56 33 C56 3 71 -17 93 -17 C123 -17 173 17 231 77 C275 123 302 160 338 222 C334 208 331 194 330 191 C295 56 291 40 291 19 C291 -2 303 -17 320 -17 C346 -17 372 -1 464 72 L457 91 Z M335 705 C266 705 216 657 216 589 C216 543 247 515 300 515 C371 515 420 562 420 630 C420 678 389 705 335 705 L335 705 Z M331 686 C363 686 383 665 383 632 C383 575 350 534 304 534 C273 534 253 555 253 588 C253 645 286 686 331 686 L331 686 Z " />
<glyph glyph-name="Uhungarumlaut" unicode="Ű" horiz-adv-x="729" d="M90 641 C161 636 173 631 173 607 C173 588 157 487 133 353 C106 203 101 168 101 130 C101 41 170 -20 270 -20 C354 -20 435 24 524 118 C518 77 513 51 500 1 L503 -4 C543 -1 561 0 583 0 C601 0 614 -1 667 -4 L670 23 C601 25 590 30 590 61 C590 86 604 183 636 366 C646 424 659 504 665 538 C681 630 682 633 710 636 L744 640 L756 641 L756 668 C715 665 693 664 649 664 C598 664 570 665 519 668 L515 641 C588 637 599 632 599 604 C599 589 596 565 587 514 L562 359 C543 236 543 235 532 173 C463 82 390 38 305 38 C224 38 178 78 178 149 C178 210 224 493 262 662 L257 668 C225 665 207 664 177 664 C146 664 128 665 94 668 L90 641 Z M389 742 L512 834 C542 856 547 862 547 875 C547 890 534 903 519 903 C503 903 492 895 462 861 L356 742 L389 742 Z M528 742 L651 834 C678 854 685 862 685 875 C685 890 672 903 658 903 C641 903 632 896 601 861 L495 742 L528 742 Z " />
<glyph glyph-name="uhungarumlaut" unicode="ű" horiz-adv-x="501" d="M457 91 C406 58 391 49 384 49 C374 49 368 57 368 69 C368 98 402 266 426 353 L448 437 L451 449 L446 457 C426 451 422 450 383 442 C364 327 342 260 306 204 C260 133 175 52 146 52 C137 52 131 62 131 75 C131 97 147 175 167 255 C205 408 207 416 207 430 C207 445 197 457 185 457 C163 457 127 438 30 376 L37 352 C46 358 48 360 56 364 C93 386 103 392 111 392 C119 392 124 386 124 375 C124 359 110 290 92 210 C58 65 56 56 56 33 C56 3 71 -17 93 -17 C123 -17 173 17 231 77 C275 123 302 160 338 222 C334 208 331 194 330 191 C295 56 291 40 291 19 C291 -2 303 -17 320 -17 C346 -17 372 -1 464 72 L457 91 Z M236 522 L359 613 C386 633 393 642 393 655 C393 670 380 683 366 683 C349 683 340 677 308 641 L203 522 L236 522 Z M375 522 L498 613 C525 634 532 642 532 655 C532 670 519 683 504 683 C488 683 479 676 447 641 L342 522 L375 522 Z " />
<glyph glyph-name="Uogonek" unicode="Ų" horiz-adv-x="729" d="M90 641 C161 636 173 631 173 607 C173 588 157 487 133 353 C106 203 101 168 101 130 C101 41 170 -20 270 -20 C354 -20 435 24 524 118 C518 77 513 51 500 1 L503 -4 C543 -1 561 0 582 0 L602 0 C536 -27 510 -53 510 -93 C510 -134 546 -157 608 -157 C630 -157 647 -155 678 -147 L670 -121 C651 -125 642 -126 630 -126 C593 -126 571 -112 571 -89 C571 -71 583 -53 609 -33 C624 -21 657 -3 663 -3 C664 -3 665 -3 667 -4 L670 23 C601 25 590 30 590 61 C590 86 604 183 636 366 C646 424 659 504 665 538 C681 630 682 633 710 636 L744 640 L756 641 L756 668 C715 665 693 664 649 664 C598 664 570 665 519 668 L515 641 C588 637 599 632 599 604 C599 589 596 565 587 514 L562 359 C543 236 543 235 532 173 C463 82 390 38 305 38 C224 38 178 78 178 149 C178 210 224 493 262 662 L257 668 C225 665 207 664 177 664 C146 664 128 665 94 668 L90 641 Z " />
<glyph glyph-name="uogonek" unicode="ų" horiz-adv-x="501" d="M457 91 C406 58 391 49 384 49 C374 49 368 57 368 69 C368 98 402 266 426 353 L448 437 L451 449 L446 457 C426 451 422 450 383 442 C364 327 342 260 306 204 C260 133 175 52 146 52 C137 52 131 62 131 75 C131 97 147 175 167 255 C205 408 207 416 207 430 C207 445 197 457 185 457 C163 457 127 438 30 376 L37 352 C46 358 48 360 56 364 C93 386 103 392 111 392 C119 392 124 386 124 375 C124 359 110 290 92 210 C58 65 56 56 56 33 C56 3 71 -17 93 -17 C123 -17 173 17 231 77 C275 123 302 160 338 222 C335 209 331 193 330 191 C295 56 291 41 291 19 C291 7 295 -3 302 -10 C256 -35 239 -57 239 -90 C239 -125 269 -146 320 -146 C340 -146 361 -143 396 -134 L390 -115 C373 -119 364 -120 352 -120 C315 -120 296 -106 296 -80 C296 -51 311 -33 356 -6 C387 12 401 22 464 72 L457 91 Z " />
<glyph glyph-name="Wcircumflex" unicode="Ŵ" horiz-adv-x="980" d="M78 641 C118 640 128 638 138 627 C147 615 148 606 150 513 L157 173 L157 122 C157 88 157 73 156 -10 L205 -10 C263 91 280 119 310 166 L542 535 L650 148 C650 147 655 129 661 108 C668 78 676 48 684 18 C685 16 687 5 691 -10 L734 -10 C746 22 764 67 787 124 L928 475 C954 538 977 590 992 618 C1002 637 1008 639 1049 641 L1049 668 C1007 665 979 664 940 664 C905 664 889 665 854 668 L855 641 C887 639 894 638 901 636 C919 631 927 622 927 607 C927 586 924 579 853 404 L734 116 L644 437 C620 523 604 586 585 674 L566 674 C505 552 314 238 230 124 L229 511 C229 611 229 614 237 627 C244 638 248 639 305 641 L305 668 C262 665 240 664 204 664 C171 664 149 665 78 668 L78 641 Z M425 739 L461 739 L601 844 L689 739 L713 739 L631 902 L591 902 L425 739 Z " />
<glyph glyph-name="Ycircumflex" unicode="Ŷ" horiz-adv-x="590" d="M159 -4 C236 0 253 0 291 0 C329 0 356 -1 405 -4 L411 23 C334 27 328 29 328 54 C328 67 334 105 349 184 C374 318 418 410 505 509 C555 566 592 590 642 600 L655 664 L647 668 C566 671 426 503 342 300 C313 430 280 531 244 602 C220 649 183 677 144 677 C142 677 137 677 132 676 C126 673 121 671 115 667 C95 656 81 648 76 645 C65 640 59 637 44 630 L45 607 C69 610 79 611 92 611 C148 611 174 586 213 489 C250 397 283 280 283 241 C283 215 274 166 251 55 C244 26 244 26 162 23 L159 -4 Z M236 739 L272 739 L412 844 L500 739 L525 739 L442 902 L403 902 L236 739 Z " />
<glyph glyph-name="ycircumflex" unicode="ŷ" horiz-adv-x="504" d="M73 -148 C59 -162 39 -175 14 -188 C22 -244 53 -274 104 -274 C162 -274 227 -229 278 -154 C324 -86 340 -43 407 188 C441 307 464 377 492 449 L481 458 C455 449 431 443 413 441 C384 299 352 218 292 135 C254 82 227 58 206 58 C191 58 186 70 186 104 C186 128 191 204 198 303 C203 355 204 384 204 408 C204 440 194 457 175 457 C148 457 116 436 35 364 L49 347 C55 351 62 357 64 359 C106 392 106 392 115 392 C128 392 134 372 134 326 C134 291 130 227 125 173 C116 72 116 72 116 54 C116 11 132 -17 157 -17 C179 -17 215 10 257 57 C281 84 290 97 339 167 C334 150 328 129 328 126 C289 -25 280 -53 255 -117 C224 -197 188 -235 142 -235 C108 -235 81 -211 81 -180 C81 -177 81 -171 82 -165 C82 -163 82 -159 83 -154 L73 -148 Z M164 519 L200 519 L340 624 L428 519 L453 519 L370 682 L331 682 L164 519 Z " />
<glyph glyph-name="Ydieresis" unicode="Ÿ" horiz-adv-x="590" d="M159 -4 C236 0 253 0 291 0 C329 0 356 -1 405 -4 L411 23 C334 27 328 29 328 54 C328 67 334 105 349 184 C374 318 418 410 505 509 C555 566 592 590 642 600 L655 664 L647 668 C566 671 426 503 342 300 C313 430 280 531 244 602 C220 649 183 677 144 677 C142 677 137 677 132 676 C126 673 121 671 115 667 C95 656 81 648 76 645 C65 640 59 637 44 630 L45 607 C69 610 79 611 92 611 C148 611 174 586 213 489 C250 397 283 280 283 241 C283 215 274 166 251 55 C244 26 244 26 162 23 L159 -4 Z M479 874 C450 874 425 843 425 807 C425 783 440 766 462 766 C491 766 514 795 514 831 C514 858 501 874 479 874 L479 874 Z M325 874 C296 874 272 843 272 807 C272 783 287 766 308 766 C337 766 360 795 360 831 C360 858 347 874 325 874 L325 874 Z " />
<glyph glyph-name="Zacute" unicode="Ź" horiz-adv-x="585" d="M120 514 C127 542 127 544 138 591 C144 619 148 620 209 624 C238 625 348 627 406 627 C434 627 447 627 480 626 C394 513 318 415 252 330 C81 108 78 104 11 21 L10 -4 C105 -1 153 0 219 0 C260 0 297 0 335 -1 C401 -3 444 -4 457 -4 C484 -4 507 -3 533 -1 L539 5 L541 20 L549 74 L558 133 C558 135 559 144 561 158 L532 158 C517 94 505 57 498 51 C487 41 424 36 313 36 C234 36 189 37 117 39 C208 158 287 261 356 348 L467 492 C519 558 548 594 589 645 L589 668 C540 665 519 664 466 664 C321 664 217 665 111 668 L106 662 C105 632 104 613 102 591 C100 572 97 547 93 514 L120 514 Z M368 742 L511 834 C542 853 549 861 549 875 C549 890 536 903 522 903 C507 903 498 897 461 861 L335 742 L368 742 Z " />
<glyph glyph-name="zacute" unicode="ź" horiz-adv-x="405" d="M82 328 C111 379 115 383 134 383 C145 383 168 382 190 379 C211 377 233 376 251 376 C279 376 295 379 324 390 C210 253 104 126 4 8 L18 -13 C45 5 73 14 105 14 C124 14 132 13 193 -1 C243 -13 270 -17 289 -17 C303 -17 314 -14 335 -6 C340 26 353 80 369 130 L346 130 C337 108 335 104 330 91 C319 63 310 56 287 56 C277 56 266 57 256 59 C190 70 168 73 146 73 C122 73 107 68 79 50 C163 150 294 306 388 419 L393 452 L384 458 C367 434 356 428 328 428 C305 428 283 431 239 442 C190 453 168 457 151 457 C134 457 122 455 96 447 C89 415 70 353 60 328 L82 328 Z M245 522 L388 613 C418 632 426 641 426 655 C426 670 413 683 399 683 C384 683 376 678 337 641 L212 522 L245 522 Z " />
<glyph glyph-name="Zdotaccent" unicode="Ż" horiz-adv-x="585" d="M120 514 C127 542 127 544 138 591 C144 619 148 620 209 624 C238 625 348 627 406 627 C434 627 447 627 480 626 C394 513 318 415 252 330 C81 108 78 104 11 21 L10 -4 C105 -1 153 0 219 0 C260 0 297 0 335 -1 C401 -3 444 -4 457 -4 C484 -4 507 -3 533 -1 L539 5 L541 20 L549 74 L558 133 C558 135 559 144 561 158 L532 158 C517 94 505 57 498 51 C487 41 424 36 313 36 C234 36 189 37 117 39 C208 158 287 261 356 348 L467 492 C519 558 548 594 589 645 L589 668 C540 665 519 664 466 664 C321 664 217 665 111 668 L106 662 C105 632 104 613 102 591 C100 572 97 547 93 514 L120 514 Z M394 875 C364 875 339 844 339 806 C339 781 354 764 377 764 C407 764 430 793 430 831 C430 858 416 875 394 875 L394 875 Z " />
<glyph glyph-name="zdotaccent" unicode="ż" horiz-adv-x="405" d="M82 328 C111 379 115 383 134 383 C145 383 168 382 190 379 C211 377 233 376 251 376 C279 376 295 379 324 390 C210 253 104 126 4 8 L18 -13 C45 5 73 14 105 14 C124 14 132 13 193 -1 C243 -13 270 -17 289 -17 C303 -17 314 -14 335 -6 C340 26 353 80 369 130 L346 130 C337 108 335 104 330 91 C319 63 310 56 287 56 C277 56 266 57 256 59 C190 70 168 73 146 73 C122 73 107 68 79 50 C163 150 294 306 388 419 L393 452 L384 458 C367 434 356 428 328 428 C305 428 283 431 239 442 C190 453 168 457 151 457 C134 457 122 455 96 447 C89 415 70 353 60 328 L82 328 Z M278 657 C250 657 227 628 227 594 C227 571 241 555 262 555 C289 555 311 582 311 616 C311 641 298 657 278 657 L278 657 Z " />
<glyph glyph-name="Zcaron" unicode="Ž" horiz-adv-x="585" d="M120 514 C127 542 127 544 138 591 C144 619 148 620 209 624 C238 625 348 627 406 627 C434 627 447 627 480 626 C394 513 318 415 252 330 C81 108 78 104 11 21 L10 -4 C105 -1 153 0 219 0 C260 0 297 0 335 -1 C401 -3 444 -4 457 -4 C484 -4 507 -3 533 -1 L539 5 L541 20 L549 74 L558 133 C558 135 559 144 561 158 L532 158 C517 94 505 57 498 51 C487 41 424 36 313 36 C234 36 189 37 117 39 C208 158 287 261 356 348 L467 492 C519 558 548 594 589 645 L589 668 C540 665 519 664 466 664 C321 664 217 665 111 668 L106 662 C105 632 104 613 102 591 C100 572 97 547 93 514 L120 514 Z M560 908 L531 908 L391 803 L303 908 L270 908 L361 746 L400 746 L560 908 Z " />
<glyph glyph-name="zcaron" unicode="ž" horiz-adv-x="405" d="M82 328 C111 379 115 383 134 383 C145 383 168 382 190 379 C211 377 233 376 251 376 C279 376 295 379 324 390 C210 253 104 126 4 8 L18 -13 C45 5 73 14 105 14 C124 14 132 13 193 -1 C243 -13 270 -17 289 -17 C303 -17 314 -14 335 -6 C340 26 353 80 369 130 L346 130 C337 108 335 104 330 91 C319 63 310 56 287 56 C277 56 266 57 256 59 C190 70 168 73 146 73 C122 73 107 68 79 50 C163 150 294 306 388 419 L393 452 L384 458 C367 434 356 428 328 428 C305 428 283 431 239 442 C190 453 168 457 151 457 C134 457 122 455 96 447 C89 415 70 353 60 328 L82 328 Z M430 688 L401 688 L261 583 L173 688 L140 688 L231 526 L270 526 L430 688 Z " />
<glyph glyph-name="florin" unicode="ƒ" horiz-adv-x="498" d="M317 391 C319 411 334 497 343 544 C353 601 373 627 406 627 C431 627 452 612 461 586 L472 587 C481 621 484 631 497 669 C482 675 471 677 457 677 C396 677 328 629 290 559 C268 519 252 460 243 391 L119 391 C114 376 113 374 113 360 L238 360 C216 212 182 22 168 -28 C153 -88 135 -109 100 -109 C77 -109 60 -100 44 -80 L36 -86 C24 -118 23 -120 13 -153 C29 -165 40 -169 58 -169 C123 -169 204 -81 245 34 C270 101 284 171 312 360 L436 360 C442 374 443 377 445 391 L317 391 Z " />
<glyph glyph-name="uni01CD" unicode="Ǎ" horiz-adv-x="664" d="M399 674 L79 127 C41 59 29 40 21 34 C13 28 -2 24 -26 23 L-28 -4 C51 -1 66 0 83 0 C105 0 123 -1 182 -4 L183 23 L170 24 C120 26 98 35 98 52 C98 63 111 90 148 158 L208 266 C283 267 312 267 341 267 C379 267 387 267 442 266 L465 132 C477 59 477 59 477 54 C477 29 465 25 395 23 L395 -4 C450 -1 479 0 520 0 C559 0 583 -1 625 -4 L625 23 C582 25 567 29 559 39 C553 47 550 57 536 137 L442 674 L399 674 Z M390 580 L435 304 C402 303 360 302 310 302 C277 302 262 303 232 305 L390 580 Z M612 908 L583 908 L443 803 L355 908 L323 908 L413 746 L453 746 L612 908 Z " />
<glyph glyph-name="uni01CE" unicode="ǎ" horiz-adv-x="445" d="M398 457 L371 440 C328 454 312 457 287 457 C248 457 219 447 175 417 C148 398 132 383 118 364 C80 310 37 152 37 67 C37 9 47 -17 68 -17 C90 -17 138 17 190 69 C223 102 242 127 283 194 C280 181 278 171 277 168 C253 70 248 47 248 18 C248 -5 257 -17 273 -17 C300 -17 361 23 409 73 L405 95 C368 65 346 52 335 52 C326 52 321 58 321 70 C321 108 369 317 408 449 L398 457 Z M328 394 C308 296 290 241 264 195 C229 135 146 50 122 50 C111 50 105 65 105 88 C105 127 116 195 133 255 C145 298 170 365 181 385 C189 399 223 410 261 410 C282 410 304 405 328 394 L328 394 Z M464 688 L435 688 L295 583 L207 688 L174 688 L265 526 L304 526 L464 688 Z " />
<glyph glyph-name="uni01D3" unicode="Ǔ" horiz-adv-x="729" d="M90 641 C161 636 173 631 173 607 C173 588 157 487 133 353 C106 203 101 168 101 130 C101 41 170 -20 270 -20 C354 -20 435 24 524 118 C518 77 513 51 500 1 L503 -4 C543 -1 561 0 583 0 C601 0 614 -1 667 -4 L670 23 C601 25 590 30 590 61 C590 86 604 183 636 366 C646 424 659 504 665 538 C681 630 682 633 710 636 L744 640 L756 641 L756 668 C715 665 693 664 649 664 C598 664 570 665 519 668 L515 641 C588 637 599 632 599 604 C599 589 596 565 587 514 L562 359 C543 236 543 235 532 173 C463 82 390 38 305 38 C224 38 178 78 178 149 C178 210 224 493 262 662 L257 668 C225 665 207 664 177 664 C146 664 128 665 94 668 L90 641 Z M631 908 L603 908 L463 803 L375 908 L342 908 L432 746 L472 746 L631 908 Z " />
<glyph glyph-name="uni01D4" unicode="ǔ" horiz-adv-x="501" d="M457 91 C406 58 391 49 384 49 C374 49 368 57 368 69 C368 98 402 266 426 353 L448 437 L451 449 L446 457 C426 451 422 450 383 442 C364 327 342 260 306 204 C260 133 175 52 146 52 C137 52 131 62 131 75 C131 97 147 175 167 255 C205 408 207 416 207 430 C207 445 197 457 185 457 C163 457 127 438 30 376 L37 352 C46 358 48 360 56 364 C93 386 103 392 111 392 C119 392 124 386 124 375 C124 359 110 290 92 210 C58 65 56 56 56 33 C56 3 71 -17 93 -17 C123 -17 173 17 231 77 C275 123 302 160 338 222 C334 208 331 194 330 191 C295 56 291 40 291 19 C291 -2 303 -17 320 -17 C346 -17 372 -1 464 72 L457 91 Z M478 688 L449 688 L309 583 L221 688 L189 688 L279 526 L318 526 L478 688 Z " />
<glyph glyph-name="Gcaron" unicode="Ǧ" horiz-adv-x="719" d="M446 237 C529 228 532 228 538 227 C554 223 561 215 561 199 C561 187 547 104 538 57 C492 36 438 24 388 24 C321 24 258 48 220 89 C180 131 158 202 158 284 C158 379 186 471 235 541 C283 609 349 643 433 643 C494 643 553 624 599 590 C612 581 615 576 615 559 L616 517 L617 500 L644 500 C650 563 659 607 673 642 C604 671 544 683 473 683 C361 683 272 649 198 577 C116 498 72 388 72 265 C72 86 177 -20 353 -20 C406 -20 438 -14 527 12 C570 24 589 28 616 33 L618 42 L618 61 C618 102 624 163 631 192 C638 224 644 230 674 235 C676 235 681 236 686 237 L688 264 C646 262 621 261 581 261 C544 261 517 262 449 264 L446 237 Z M653 908 L624 908 L484 803 L396 908 L363 908 L454 746 L493 746 L653 908 Z " />
</font>
</svg>
