<?xml version="1.0" encoding="UTF-8"?>
<svg xmlns="http://www.w3.org/2000/svg" xmlns:xlink="http://www.w3.org/1999/xlink" version="1.2">
<font id="URWPalladioTOT">
<font-face font-family="URWPalladioTOT" units-per-em="1000" ascent="702" descent="-284" font-style="normal" font-weight="400" font-stretch="normal" cap-height="670" x-height="452" underline-position="-82" underline-thickness="44" />
<missing-glyph horiz-adv-x="250" d="" />
<glyph glyph-name="NULL" d="" />
<glyph glyph-name="CR" unicode="&#xD;" horiz-adv-x="250" d="" />
<glyph glyph-name="space" unicode=" " horiz-adv-x="250" d="" />
<glyph glyph-name="exclam" unicode="!" horiz-adv-x="261" d="M155 667 C125 654 115 648 88 630 C86 591 86 578 86 565 C86 537 93 449 101 361 C110 272 114 222 117 178 L126 174 L153 198 C157 293 158 305 163 374 C181 609 183 635 183 667 L155 667 Z M130 100 C101 100 78 75 78 44 C78 14 102 -11 129 -11 C158 -11 181 14 181 44 C181 75 158 100 130 100 L130 100 Z " />
<glyph glyph-name="quotedbl" unicode="&quot;" horiz-adv-x="332" d="M117 419 L140 573 C141 582 142 596 142 606 C142 654 127 677 95 677 C67 677 48 654 48 618 C48 609 50 587 51 577 L72 419 L117 419 Z M260 419 L282 573 C284 588 285 596 285 606 C285 654 270 677 238 677 C209 677 190 654 190 618 C190 609 192 591 193 577 L214 419 L260 419 Z " />
<glyph glyph-name="numbersign" unicode="#" horiz-adv-x="509" d="M103 0 L136 0 L169 158 L266 158 L234 0 L267 0 L299 158 L379 158 L392 218 L312 218 L363 471 L439 471 L451 531 L376 531 L403 667 L370 667 L342 531 L245 531 L272 667 L239 667 L211 531 L127 531 L115 471 L199 471 L147 218 L68 218 L56 158 L135 158 L103 0 Z M181 218 L232 471 L330 471 L278 218 L181 218 Z " />
<glyph glyph-name="dollar" unicode="$" horiz-adv-x="509" d="M59 184 C56 112 54 90 43 37 C96 12 149 1 227 1 C226 -44 225 -51 223 -96 L263 -96 C262 -68 261 -52 261 -36 L261 2 C313 12 343 24 377 47 C432 83 465 145 465 210 C465 281 431 333 369 356 C339 367 317 374 261 386 L261 628 C311 628 352 609 365 579 C368 572 371 548 374 500 L403 500 C404 557 409 594 421 630 C373 652 324 662 261 663 C261 689 261 696 263 725 L224 725 L226 661 C179 657 155 649 126 632 C76 601 46 546 46 483 C46 423 74 373 121 347 C151 331 176 322 226 309 L226 35 C164 35 91 78 90 116 C89 138 89 160 89 184 L59 184 Z M226 393 C149 417 121 448 121 509 C121 573 157 614 226 627 L226 393 Z M261 302 C350 281 380 250 380 179 C380 103 338 53 261 38 L261 302 Z " />
<glyph glyph-name="percent" unicode="%" horiz-adv-x="706" d="M201 679 C98 679 37 617 37 512 C37 421 96 362 187 362 C282 362 346 430 346 531 C346 621 290 679 201 679 L201 679 Z M195 657 C245 657 272 611 272 525 C272 439 242 386 191 386 C140 386 110 434 110 516 C110 605 141 657 195 657 L195 657 Z M526 646 C536 667 542 677 554 697 C547 696 541 696 537 696 C530 696 522 697 508 699 C500 674 494 660 489 648 L177 24 C172 16 168 8 164 -1 C157 -14 156 -16 147 -32 C157 -31 164 -31 169 -31 C173 -31 180 -31 189 -32 C197 -13 201 -3 210 13 L526 646 Z M524 305 C421 305 360 243 360 137 C360 46 419 -13 510 -13 C605 -13 669 55 669 156 C669 247 613 305 524 305 L524 305 Z M518 283 C568 283 595 236 595 151 C595 64 565 11 514 11 C463 11 433 59 433 141 C433 231 464 283 518 283 L518 283 Z " />
<glyph glyph-name="ampersand" unicode="&amp;" horiz-adv-x="728" d="M702 81 C672 65 664 62 649 62 C596 62 537 84 483 124 C531 170 562 234 562 289 C562 302 561 313 557 331 C627 329 654 326 688 320 C690 340 691 341 695 365 C695 368 697 378 699 391 C660 388 555 383 516 383 C477 383 463 384 427 387 L400 343 L403 336 L413 336 C454 335 459 335 470 332 C493 325 503 304 503 261 C503 213 494 188 459 145 C395 198 310 309 267 395 C277 401 287 407 297 414 C359 450 376 462 397 484 C424 511 440 546 440 575 C440 632 395 678 339 678 C303 678 268 664 231 634 C186 598 162 553 162 503 C162 469 170 434 191 383 C183 377 175 371 166 366 C126 338 103 319 89 301 C61 266 45 223 45 180 C45 75 134 -9 244 -9 C305 -9 356 12 428 64 C494 11 542 -10 596 -10 C608 -10 616 -9 631 -6 C653 16 654 16 709 58 L702 81 Z M205 352 C258 253 336 148 402 88 C354 57 324 47 286 47 C199 47 128 122 128 215 C128 271 150 310 205 352 L205 352 Z M254 421 C237 470 229 508 229 543 C229 596 258 633 301 633 C336 633 364 604 364 567 C364 523 329 473 272 433 C262 426 261 425 254 421 L254 421 Z " />
<glyph glyph-name="quotesingle" unicode="'" horiz-adv-x="190" d="M117 419 L140 573 C141 582 142 596 142 606 C142 654 127 677 95 677 C67 677 48 654 48 618 C48 609 50 587 51 577 L72 419 L117 419 Z " />
<glyph glyph-name="parenleft" unicode="(" horiz-adv-x="304" d="M278 743 C221 685 190 642 155 571 C106 472 78 361 78 268 C78 175 106 64 155 -35 C190 -105 221 -149 278 -206 L294 -186 C247 -116 227 -75 203 -5 C173 84 157 178 157 268 C157 358 173 452 203 541 C227 612 247 653 294 722 L278 743 Z " />
<glyph glyph-name="parenright" unicode=")" horiz-adv-x="304" d="M27 -206 C84 -149 115 -105 150 -35 C199 65 227 175 227 268 C227 361 199 472 150 571 C115 642 84 685 27 743 L11 722 C58 653 78 612 102 541 C132 452 148 358 148 268 C148 178 132 84 102 -5 C78 -75 58 -116 11 -186 L27 -206 Z " />
<glyph glyph-name="asterisk" unicode="*" horiz-adv-x="433" d="M234 357 C266 375 266 375 290 388 L290 397 L227 515 C298 504 314 501 363 491 L373 500 C367 526 366 535 363 562 L356 567 L227 544 C247 585 273 630 293 662 L290 678 C265 684 255 687 228 696 L223 691 L201 555 C162 596 159 599 113 655 L96 655 C82 630 77 621 61 597 L61 591 L186 527 C125 500 104 491 65 477 L61 471 C75 444 79 435 89 410 L107 408 L201 502 C207 454 209 437 210 427 C213 406 213 402 217 361 L234 357 Z " />
<glyph glyph-name="plus" unicode="+" horiz-adv-x="509" d="M38 361 L38 302 L223 302 L223 129 L286 129 L286 302 L471 302 L471 361 L286 361 L286 535 L223 535 L223 361 L38 361 Z " />
<glyph glyph-name="comma" unicode="," horiz-adv-x="268" d="M37 -141 L77 -120 C138 -40 179 32 211 116 L205 131 C171 117 155 112 109 101 C100 22 81 -30 23 -130 L37 -141 Z " />
<glyph glyph-name="hyphen" unicode="-" horiz-adv-x="282" d="M6 196 C65 199 94 200 140 200 C185 200 210 199 259 196 C265 223 269 235 282 264 L278 271 C205 269 172 268 138 268 C97 268 72 269 24 271 C16 244 12 233 0 203 L6 196 Z " />
<glyph glyph-name="period" unicode="." horiz-adv-x="268" d="M135 100 C104 100 79 75 79 44 C79 14 104 -11 134 -11 C165 -11 190 14 190 44 C190 75 165 100 135 100 L135 100 Z " />
<glyph glyph-name="slash" unicode="/" horiz-adv-x="383" d="M322 586 C338 624 354 663 370 702 C359 701 351 700 345 700 C340 700 332 701 322 702 C308 670 295 638 282 605 L-1 -78 L-41 -175 C-30 -174 -23 -173 -16 -173 C-12 -173 -3 -174 7 -175 C15 -154 17 -150 47 -78 L322 586 Z " />
<glyph glyph-name="zero" unicode="0" horiz-adv-x="509" d="M263 677 C120 677 48 556 48 315 C48 218 57 152 79 98 C107 29 168 -10 247 -10 C315 -10 375 22 407 75 C444 138 461 222 461 346 C461 573 399 677 263 677 L263 677 Z M251 642 C336 642 378 536 378 321 C378 119 340 21 262 21 C176 21 133 123 133 328 C133 551 167 642 251 642 L251 642 Z " />
<glyph glyph-name="one" unicode="1" horiz-adv-x="509" d="M300 673 C236 636 152 603 49 572 L57 515 C137 558 206 591 214 591 C223 591 224 585 224 535 C224 215 221 84 214 58 C206 33 196 31 99 27 L99 -4 C192 -1 226 0 261 0 C305 0 338 -1 421 -4 L421 27 C347 29 333 31 321 41 C305 53 304 64 304 349 C304 446 307 620 310 665 L300 673 Z " />
<glyph glyph-name="two" unicode="2" horiz-adv-x="509" d="M38 -5 C127 -1 192 0 286 0 C366 0 403 -1 469 -6 C467 14 466 29 466 39 C466 49 467 65 470 85 C406 79 365 78 219 78 L138 78 L314 260 C403 352 435 413 435 489 C435 603 359 677 240 677 C169 677 119 655 76 604 C74 578 72 560 70 541 C65 507 63 498 60 473 L88 473 C93 490 98 506 99 511 C109 550 119 569 135 579 C158 595 187 603 216 603 C294 603 348 544 348 459 C348 385 312 320 208 207 L38 22 L38 -5 Z " />
<glyph glyph-name="three" unicode="3" horiz-adv-x="509" d="M33 154 C48 103 60 49 63 12 C123 -5 154 -10 195 -10 C335 -10 449 94 449 223 C449 317 396 368 294 374 C363 423 396 474 396 532 C396 617 328 677 231 677 C168 677 119 655 73 606 C68 580 65 568 62 552 C58 536 55 520 52 504 L49 491 L77 491 L83 510 C99 557 107 573 123 584 C146 600 175 608 205 608 C276 608 317 566 317 494 C317 417 270 367 198 367 C188 367 180 367 159 369 L153 322 L159 317 C193 331 214 335 241 335 C315 335 359 282 359 195 C359 93 304 29 216 29 C172 29 131 46 107 75 C91 94 82 109 57 165 L33 154 Z " />
<glyph glyph-name="four" unicode="4" horiz-adv-x="509" d="M28 170 C90 175 111 175 253 175 L278 175 C278 92 276 59 270 46 C266 32 251 29 163 25 L163 -5 C250 -1 277 0 315 0 C352 0 377 -1 460 -5 L460 25 C388 27 366 33 364 51 C360 63 359 98 359 175 C405 174 412 173 461 170 C459 186 458 198 458 206 C458 214 459 225 461 240 C412 235 405 234 359 234 C358 339 358 381 358 416 C358 481 359 542 362 667 L352 673 L284 646 C132 399 105 353 20 199 L28 170 Z M279 234 C245 233 221 232 184 232 C142 232 121 232 82 234 C159 376 228 495 279 572 L279 234 Z " />
<glyph glyph-name="five" unicode="5" horiz-adv-x="509" d="M34 152 C48 93 54 63 63 10 C107 -6 132 -10 173 -10 C333 -10 448 98 448 247 C448 362 373 439 261 439 C206 439 167 424 123 386 L132 587 C212 589 246 589 302 589 C353 589 376 589 421 586 C418 605 417 619 417 629 C417 638 419 654 422 673 C344 666 291 664 236 664 C179 664 149 666 93 673 L85 666 C90 610 91 584 91 523 C91 453 90 401 85 318 L106 311 C141 357 173 374 222 374 C309 374 364 309 364 207 C364 99 309 34 216 34 C143 34 105 64 57 161 L34 152 Z " />
<glyph glyph-name="six" unicode="6" horiz-adv-x="509" d="M413 684 C335 675 265 642 198 584 C103 500 51 382 51 248 C51 86 125 -10 249 -10 C377 -10 459 77 459 214 C459 334 398 405 294 405 C258 405 230 396 204 375 L145 329 C156 502 286 650 435 657 L436 665 L413 684 Z M256 350 C330 350 377 286 377 187 C377 90 327 21 257 21 C182 21 139 93 139 216 C139 255 142 274 149 285 C177 328 213 350 256 350 L256 350 Z " />
<glyph glyph-name="seven" unicode="7" horiz-adv-x="509" d="M93 463 C95 479 96 493 96 498 C103 586 103 586 189 586 C339 590 363 590 416 590 C373 503 240 272 80 9 L90 -4 C108 -1 124 0 132 0 C142 0 154 -1 171 -3 C201 95 333 366 487 644 L487 673 C412 666 366 664 243 664 C159 664 130 665 70 671 L61 662 C65 628 66 613 66 573 C66 528 65 500 64 463 L93 463 Z " />
<glyph glyph-name="eight" unicode="8" horiz-adv-x="509" d="M184 344 C85 301 41 245 41 163 C41 64 121 -10 231 -10 C355 -10 455 85 455 204 C455 287 420 329 306 379 C389 425 426 474 426 540 C426 621 358 677 260 677 C149 677 68 605 68 505 C68 436 101 390 184 344 L184 344 Z M279 392 C164 451 139 476 139 538 C139 601 186 647 251 647 C318 647 358 602 358 527 C358 469 337 433 279 392 L279 392 Z M210 328 C341 271 380 233 380 161 C380 85 318 24 242 24 C165 24 114 81 114 169 C114 239 142 290 198 321 C206 325 206 325 210 328 L210 328 Z " />
<glyph glyph-name="nine" unicode="9" horiz-adv-x="509" d="M98 -19 C323 22 463 194 463 429 C463 511 445 570 408 612 C372 654 317 677 255 677 C131 677 46 586 46 453 C46 337 116 254 214 254 C251 254 275 261 296 280 L365 337 C354 160 224 22 57 11 L57 2 L98 -19 Z M248 643 C321 643 371 572 371 468 C371 369 327 312 252 312 C178 312 131 376 131 480 C131 578 178 643 248 643 L248 643 Z " />
<glyph glyph-name="colon" unicode=":" horiz-adv-x="268" d="M135 100 C104 100 79 75 79 44 C79 14 104 -11 134 -11 C165 -11 190 14 190 44 C190 75 165 100 135 100 L135 100 Z M135 455 C104 455 79 430 79 399 C79 369 104 344 134 344 C165 344 190 369 190 399 C190 430 165 455 135 455 L135 455 Z " />
<glyph glyph-name="semicolon" unicode=";" horiz-adv-x="268" d="M37 -141 L77 -120 C138 -40 179 32 211 116 L205 131 C171 117 155 112 109 101 C100 22 81 -30 23 -130 L37 -141 Z M152 452 C122 452 98 428 98 397 C98 369 123 344 151 344 C182 344 206 368 206 398 C206 428 182 452 152 452 L152 452 Z " />
<glyph glyph-name="less" unicode="&lt;" horiz-adv-x="513" d="M14 204 L465 19 L499 58 L88 221 L499 385 L476 421 L14 239 L14 204 Z " />
<glyph glyph-name="equal" unicode="=" horiz-adv-x="509" d="M38 435 L38 379 L471 379 L471 435 L38 435 Z M38 286 L38 230 L471 230 L471 286 L38 286 Z " />
<glyph glyph-name="greater" unicode="&gt;" horiz-adv-x="513" d="M499 236 L37 418 L14 381 L425 217 L14 55 L48 15 L499 201 L499 236 Z " />
<glyph glyph-name="question" unicode="?" horiz-adv-x="414" d="M70 525 C75 534 80 543 82 547 C99 579 99 579 113 599 C137 612 155 617 177 617 C239 617 288 570 288 510 C288 465 271 434 203 356 C157 303 142 274 142 241 C142 203 163 171 199 154 L219 168 C193 193 184 207 184 228 C184 255 203 287 240 322 C311 390 311 390 328 410 C355 443 370 486 370 527 C370 614 295 681 198 681 C155 681 122 671 83 647 L44 528 L70 525 Z M190 98 C159 98 135 73 135 43 C135 14 160 -11 189 -11 C219 -11 244 13 244 43 C244 73 220 98 190 98 L190 98 Z " />
<glyph glyph-name="at" unicode="@" horiz-adv-x="677" d="M436 475 L430 441 C414 473 392 485 353 485 C308 485 270 466 238 429 C199 385 176 321 176 260 C176 183 211 138 271 138 C318 138 349 160 387 220 C387 162 410 134 457 134 C551 134 641 253 641 376 C641 515 535 606 372 606 C172 606 27 465 27 269 C27 175 56 108 118 57 C171 15 236 -7 312 -7 C393 -7 469 21 540 78 L547 104 C469 45 399 18 322 18 C251 18 188 42 144 85 C101 128 79 189 79 269 C79 457 199 583 377 583 C442 583 497 566 538 532 C582 496 602 448 602 379 C602 262 543 162 475 162 C451 162 436 178 436 202 C436 214 437 222 445 256 L496 487 L436 475 Z M362 464 C394 464 415 441 415 408 C415 369 391 273 372 232 C351 190 326 168 297 168 C260 168 241 198 241 256 C241 364 299 464 362 464 L362 464 Z " />
<glyph glyph-name="A" unicode="A" horiz-adv-x="714" d="M348 675 L124 144 C101 88 78 43 72 41 C62 32 50 29 10 28 L10 -3 C66 -1 85 0 116 0 C149 0 165 0 230 -4 L230 29 L213 30 C159 33 148 37 148 55 C148 64 151 75 159 93 L212 223 C254 224 316 224 382 224 C434 224 443 224 474 223 L528 86 C538 62 539 58 539 49 C539 32 525 29 457 28 L457 -4 C535 -1 561 0 582 0 C605 0 629 -1 704 -4 L704 28 C648 31 646 33 613 111 L375 675 L348 675 Z M341 548 L458 262 C437 261 396 261 326 261 C257 261 255 261 228 262 L341 548 Z " />
<glyph glyph-name="B" unicode="B" horiz-adv-x="571" d="M72 -3 C123 -1 153 0 162 0 C183 0 205 -1 239 -2 C256 -3 266 -3 275 -3 C424 -3 537 92 537 216 C537 318 477 370 350 378 C402 394 424 405 450 427 C483 456 502 497 502 540 C502 585 483 622 449 644 C419 664 387 671 331 671 L278 670 C198 666 198 666 166 666 C150 666 132 666 112 667 L48 669 L30 669 L30 639 C71 637 87 635 98 628 C111 620 114 596 114 506 C114 209 113 74 111 58 C109 38 101 30 72 17 L72 -3 Z M202 526 C202 536 202 550 203 625 C231 630 247 632 272 632 C362 632 407 594 407 516 C407 467 385 428 343 407 C321 395 286 389 241 389 C229 389 221 389 202 391 L202 526 Z M202 325 L202 351 C230 353 241 353 258 353 C311 353 349 346 376 330 C415 309 438 263 438 207 C438 103 375 36 277 36 C254 36 235 38 201 45 L202 325 Z " />
<glyph glyph-name="C" unicode="C" horiz-adv-x="675" d="M623 499 C626 568 630 597 646 644 C575 668 498 681 422 681 C193 681 43 543 43 334 C43 227 82 134 154 71 C219 14 318 -20 418 -20 C495 -20 562 -3 636 37 C643 57 644 61 652 82 L643 91 C588 51 530 33 452 33 C269 33 146 161 146 353 C146 430 167 497 208 549 C256 611 323 640 415 640 C481 640 544 622 576 595 C588 585 590 577 591 550 L593 499 L623 499 Z " />
<glyph glyph-name="D" unicode="D" horiz-adv-x="742" d="M65 -5 C121 0 138 1 165 1 C178 1 188 1 201 0 C288 -4 288 -4 308 -4 C379 -4 435 5 480 23 C614 77 699 211 699 366 C699 482 649 576 561 627 C508 657 446 671 365 671 C352 671 333 670 312 669 C224 665 220 665 167 665 C130 665 130 665 30 670 L30 639 C78 635 88 633 99 623 C114 608 116 576 116 337 C116 307 113 75 112 70 C110 48 104 40 75 24 C73 22 69 20 65 18 L65 -5 Z M207 47 C206 127 205 300 205 443 C205 518 205 542 207 619 C256 626 284 628 318 628 C501 628 597 531 597 346 C597 245 569 165 514 109 C467 61 405 39 312 39 C278 39 251 41 207 47 L207 47 Z " />
<glyph glyph-name="E" unicode="E" horiz-adv-x="572" d="M37 -5 C124 -1 180 1 203 1 C240 1 318 0 372 -1 C411 -2 438 -2 449 -2 C483 -2 499 -1 529 2 C529 51 531 76 539 161 L509 161 C505 147 503 134 502 129 C489 61 486 53 469 48 C453 43 415 41 356 41 C277 41 243 42 208 43 L208 321 L223 321 C342 321 391 318 404 312 C420 304 422 295 424 229 L456 229 C454 272 453 300 453 336 C453 376 454 405 457 449 L425 449 C424 438 424 428 423 425 C421 389 419 378 413 373 C406 366 395 364 346 363 L284 361 L225 360 L208 359 C207 435 207 451 207 472 C207 473 207 523 208 624 C240 625 261 626 293 626 C393 626 439 621 450 609 C457 601 458 591 461 520 L493 520 C493 601 494 629 497 657 L489 668 L408 668 C271 666 224 665 190 665 C149 665 128 666 23 669 L23 637 L43 636 C89 636 105 629 110 610 C115 590 118 521 118 409 C118 232 115 71 112 55 C108 32 95 26 51 25 L37 25 L37 -5 Z " />
<glyph glyph-name="F" unicode="F" horiz-adv-x="519" d="M24 -5 C102 -1 127 0 162 0 C197 0 222 -1 301 -4 L301 26 C240 27 229 29 219 39 C206 52 205 70 205 225 L206 305 L206 317 C231 319 247 319 273 319 C357 319 389 316 397 307 C404 300 405 294 411 220 L442 220 C441 281 441 290 441 315 C441 363 442 397 446 443 L415 443 C414 432 412 422 412 418 C407 374 405 369 390 365 C377 362 319 359 266 359 C242 359 242 359 206 360 C205 387 205 402 205 422 C205 521 206 564 209 625 C238 627 254 628 278 628 C342 628 410 624 425 619 C442 613 444 607 449 522 L477 522 L477 536 L479 569 C480 588 481 602 481 611 C483 628 484 638 487 659 L482 667 L473 667 L429 667 L361 666 C291 666 272 666 234 665 C190 664 162 664 153 664 C130 664 110 664 95 665 L40 669 L23 670 L23 640 C38 639 51 638 56 638 C92 636 106 630 110 613 C116 593 117 541 117 374 C117 93 117 71 111 51 C105 31 98 28 45 26 C43 26 34 26 24 25 L24 -5 Z " />
<glyph glyph-name="G" unicode="G" horiz-adv-x="766" d="M486 232 L550 226 C584 224 592 222 594 213 C595 207 596 167 596 130 C596 82 594 64 589 57 C577 41 488 22 428 22 C265 22 144 161 144 349 C144 526 256 642 427 642 C500 642 583 617 621 583 C636 571 637 564 637 516 C637 512 637 503 638 493 L666 493 C671 560 674 581 686 633 C610 665 526 681 432 681 C306 681 208 647 140 579 C78 517 43 426 43 326 C43 118 188 -20 408 -20 C496 -20 589 -1 686 36 C682 75 680 107 680 141 C680 212 682 219 711 234 L719 238 L716 262 C690 259 675 258 641 258 C590 258 548 260 486 264 L486 232 Z " />
<glyph glyph-name="H" unicode="H" horiz-adv-x="784" d="M25 -3 C109 -1 139 0 181 0 C217 0 244 0 294 -2 L294 27 C224 30 216 33 211 58 C208 75 205 163 205 265 L205 331 C293 333 326 334 401 334 C471 334 516 333 582 331 L582 290 C582 269 580 124 579 108 C578 61 575 47 568 40 C559 30 548 28 490 26 L490 -3 C536 -1 562 0 634 0 C694 0 719 -1 759 -3 L759 26 C698 27 682 32 677 50 C671 53 670 141 670 487 L670 515 C670 596 670 604 677 620 C686 635 693 637 749 638 L760 638 L760 669 C704 668 673 667 629 667 C582 667 548 668 488 670 L488 639 C498 638 507 638 511 638 C576 635 577 633 580 549 C581 397 582 387 582 375 C536 372 517 372 435 372 C316 372 261 373 204 376 L204 403 C204 565 205 606 210 620 C216 634 233 639 279 639 L292 639 L292 669 C216 667 190 666 155 666 C112 666 85 667 23 670 L23 640 L39 640 C82 638 98 634 105 624 C114 609 117 560 117 393 C117 188 116 102 113 68 C110 34 103 30 43 28 L25 27 L25 -3 Z " />
<glyph glyph-name="I" unicode="I" horiz-adv-x="313" d="M25 -3 C79 -1 109 0 157 0 C202 0 229 -1 290 -3 L290 26 L277 27 C237 29 222 32 216 40 C206 54 203 105 203 241 C203 467 205 606 209 620 C213 635 221 637 289 639 L289 669 C246 667 219 666 167 666 C104 666 74 667 24 669 L24 638 L43 638 C101 638 109 633 110 596 C115 469 115 469 115 402 C115 168 113 72 106 51 C101 32 91 28 41 26 L25 26 L25 -3 Z " />
<glyph glyph-name="J" unicode="J" horiz-adv-x="322" d="M-12 -109 C-10 -138 -10 -141 -10 -163 L-10 -185 C7 -188 15 -189 26 -189 C93 -189 176 -110 201 -23 C213 17 214 34 214 137 L214 552 C214 609 216 622 225 629 C235 636 244 637 299 638 L299 669 C235 667 211 666 165 666 C116 666 85 667 30 670 L30 640 C40 639 49 639 52 639 C103 636 114 632 119 609 C123 588 125 440 125 52 C125 -40 123 -75 115 -97 C108 -119 90 -132 66 -132 C42 -132 22 -123 1 -102 L-12 -109 Z " />
<glyph glyph-name="K" unicode="K" horiz-adv-x="675" d="M216 316 C448 94 455 87 546 -3 C585 -1 596 0 609 0 C625 0 639 -1 675 -4 L675 28 C640 30 640 30 577 94 C554 117 513 157 400 264 C341 320 303 356 285 372 L540 605 C575 634 580 635 649 640 L649 668 C612 666 592 666 566 666 C539 666 518 666 480 668 L480 640 C487 638 490 635 490 631 C490 625 487 621 449 583 C297 432 214 350 201 338 L201 505 C201 610 202 615 210 627 C219 636 227 637 286 639 L286 670 C208 667 177 666 150 666 C114 666 83 667 23 671 L23 639 L44 638 C94 635 103 632 107 616 C111 597 113 464 113 234 C113 106 111 51 104 40 C99 31 86 28 48 26 C44 26 35 26 25 25 L25 -4 C106 -1 132 0 157 0 C164 0 207 -1 288 -3 L288 26 L273 27 C225 29 219 30 210 38 C201 49 201 53 201 229 L201 303 L216 316 Z " />
<glyph glyph-name="L" unicode="L" horiz-adv-x="573" d="M522 171 C509 111 497 68 492 62 C478 48 408 40 296 40 C258 40 238 41 204 43 C205 98 205 208 205 374 C205 617 205 625 217 631 C226 636 237 638 294 641 L294 671 C237 667 201 665 154 665 C120 665 101 666 23 668 L23 640 C104 636 109 635 113 609 C114 596 117 485 117 422 C117 253 115 111 113 71 C111 45 108 40 75 22 C74 22 71 20 67 18 L67 -6 C111 -2 159 0 196 0 L277 0 L455 -1 C493 -1 504 0 534 4 C543 99 543 101 553 171 L522 171 Z " />
<glyph glyph-name="M" unicode="M" horiz-adv-x="884" d="M429 -13 C470 85 493 138 562 289 C589 347 647 472 690 568 L690 511 L691 138 C691 58 687 39 671 33 C659 29 647 28 608 27 L608 -3 C697 -1 726 0 748 0 C774 0 790 0 864 -2 L864 27 C820 29 805 31 794 39 C778 50 776 80 776 339 C776 384 776 462 777 522 C778 610 778 610 785 622 C791 632 804 636 844 638 L864 639 L864 670 C823 667 799 666 770 666 C741 666 724 667 688 670 C645 567 612 493 572 409 C504 263 461 171 443 133 C398 233 391 246 318 398 C248 545 232 581 194 669 C166 665 152 664 127 664 C111 664 79 665 16 668 L16 638 C74 635 85 633 96 624 C108 614 110 584 110 421 C110 196 106 88 98 59 C90 31 79 27 17 27 L17 -4 C82 -1 103 0 139 0 C174 0 197 -1 242 -3 L242 27 C179 28 166 34 158 61 C151 86 148 232 148 561 C191 469 231 383 269 299 C298 238 324 182 385 50 C390 41 403 11 413 -13 L429 -13 Z " />
<glyph glyph-name="N" unicode="N" horiz-adv-x="773" d="M20 -4 C67 -1 98 0 144 0 C182 0 205 -1 239 -3 L239 28 C200 29 181 33 169 42 C152 55 150 77 149 335 C148 465 148 499 147 567 L616 -4 L641 -9 C650 -10 658 -12 667 -14 L671 -3 C668 108 668 130 668 271 C668 596 668 600 682 619 C694 634 712 639 755 641 L755 671 C697 667 673 666 648 666 C644 666 607 667 536 669 L536 638 C619 636 627 626 627 519 C627 507 628 453 630 368 L631 116 C391 400 287 528 181 669 C151 667 137 666 110 666 C76 666 54 667 20 669 L20 640 C31 639 41 638 45 638 C72 637 81 633 98 614 C109 602 111 598 111 589 C111 568 111 549 110 522 L109 340 C110 125 106 59 92 42 C83 30 61 25 20 25 L20 -4 Z " />
<glyph glyph-name="O" unicode="O" horiz-adv-x="780" d="M402 681 C304 681 213 650 149 595 C83 539 43 442 43 337 C43 238 69 153 119 93 C177 22 272 -20 376 -20 C580 -20 736 142 736 354 C736 553 606 681 402 681 L402 681 Z M383 643 C537 643 636 518 636 323 C636 134 548 23 397 23 C301 23 235 63 189 150 C156 213 139 286 139 368 C139 447 160 520 195 562 C236 612 309 643 383 643 L383 643 Z " />
<glyph glyph-name="P" unicode="P" horiz-adv-x="572" d="M24 -3 C81 -1 116 0 168 0 C217 0 248 -1 296 -3 L296 27 C247 29 236 30 225 34 C210 39 207 55 205 138 L205 621 C243 632 269 636 302 636 C401 636 459 584 459 497 C459 405 406 347 322 347 C303 347 287 349 262 356 L258 351 C263 338 263 336 265 322 C292 316 310 314 332 314 C457 314 557 405 557 519 C557 620 484 673 348 673 C339 673 312 672 289 671 C184 667 179 667 149 667 C123 667 96 668 23 670 L23 638 L41 638 C101 635 113 628 115 589 C117 556 118 443 118 339 C118 161 116 68 111 51 C105 31 96 28 39 26 L24 26 L24 -3 Z " />
<glyph glyph-name="Q" unicode="Q" horiz-adv-x="781" d="M754 -84 C710 -105 694 -110 672 -110 C642 -110 598 -96 523 -64 C472 -42 439 -28 431 -25 C427 -23 421 -21 414 -18 C605 4 736 156 736 354 C736 553 606 681 402 681 C304 681 212 650 149 595 C81 536 43 442 43 332 C43 120 173 -18 374 -20 C305 -58 278 -76 257 -97 L257 -130 C303 -99 326 -89 353 -89 C379 -89 400 -95 485 -130 C568 -163 618 -178 650 -178 C654 -178 656 -177 662 -173 C663 -171 670 -166 677 -162 C687 -155 697 -149 708 -142 C730 -127 737 -123 754 -114 L754 -84 Z M383 643 C537 643 636 518 636 323 C636 134 548 23 397 23 C301 23 235 63 189 150 C156 213 139 286 139 368 C139 447 160 520 195 562 C236 612 309 643 383 643 L383 643 Z " />
<glyph glyph-name="R" unicode="R" horiz-adv-x="650" d="M237 345 C288 284 320 242 376 165 L467 39 C477 26 488 12 499 -3 C526 -1 543 0 566 0 C584 0 599 0 645 -3 L645 26 C589 30 580 36 541 90 L463 192 C399 277 382 299 356 339 C476 364 544 432 544 525 C544 584 512 633 462 653 C429 666 393 671 338 671 C329 671 312 671 288 670 C210 668 167 667 159 667 C150 667 105 668 23 670 L23 640 L37 639 C86 636 96 634 102 626 C112 612 114 576 114 355 C114 89 113 53 102 39 C97 31 93 31 36 27 L23 26 L23 -3 C105 -1 140 0 171 0 C212 0 241 -1 291 -3 L291 26 C233 30 225 30 217 36 C204 43 201 83 201 227 C201 443 202 567 204 622 C246 631 269 634 299 634 C393 634 447 587 447 505 C447 416 381 358 279 358 C267 358 258 359 241 360 L237 345 Z " />
<glyph glyph-name="S" unicode="S" horiz-adv-x="553" d="M57 200 C56 161 54 99 53 13 C123 -12 163 -20 222 -20 C300 -20 365 -1 415 37 C474 81 507 146 507 214 C507 276 482 318 429 345 C395 363 360 374 290 391 C221 408 195 418 174 439 C154 458 142 491 142 524 C142 598 192 645 271 645 C304 645 334 637 358 622 C375 611 390 596 394 587 C395 583 399 545 403 502 L430 500 C435 545 441 594 448 648 C390 670 336 681 276 681 C146 681 59 604 59 490 C59 432 80 385 118 360 C145 342 187 325 245 310 C336 287 336 287 360 273 C395 253 413 219 413 172 C413 79 349 22 245 22 C177 22 124 51 104 98 C94 121 88 153 85 200 L57 200 Z " />
<glyph glyph-name="T" unicode="T" horiz-adv-x="567" d="M145 -4 C206 0 237 1 276 1 C305 1 334 0 418 -3 L418 27 C359 30 349 32 340 37 C327 45 325 72 325 249 C325 396 326 525 328 626 L372 626 C431 625 439 625 468 621 C503 614 508 605 511 535 C512 533 512 524 513 515 L542 515 C542 550 546 616 553 673 C424 667 360 665 282 665 C209 665 147 667 15 672 C16 649 16 639 16 619 C16 604 16 582 15 516 L44 516 C45 522 46 529 46 531 C56 611 58 616 96 622 C120 625 137 626 237 626 C239 516 239 456 239 366 C239 85 237 46 222 36 C212 29 202 28 145 27 L145 -4 Z " />
<glyph glyph-name="U" unicode="U" horiz-adv-x="721" d="M18 640 C64 638 78 635 89 626 C104 614 105 603 105 366 L104 208 C104 137 113 97 135 66 C173 15 253 -15 352 -15 C445 -15 520 11 564 58 C602 98 615 145 616 245 C617 334 618 404 619 455 C619 542 622 576 630 605 C640 631 654 638 709 640 L709 670 C671 667 652 666 617 666 C584 666 553 667 485 671 L485 640 C540 638 558 633 567 616 C578 596 578 596 578 340 C578 209 575 173 561 135 C538 72 477 39 384 39 C340 39 299 47 269 63 C222 87 200 120 194 174 C191 201 191 206 191 347 C191 478 193 594 196 607 C200 632 209 636 264 639 L279 640 L279 670 C225 666 194 665 157 665 C119 665 92 666 18 671 L18 640 Z " />
<glyph glyph-name="V" unicode="V" horiz-adv-x="682" d="M355 -11 C364 13 374 37 395 91 L560 505 C609 631 614 639 663 639 L672 640 L672 669 C633 667 608 666 571 666 C546 666 528 666 460 668 L460 638 C531 632 541 628 541 608 C541 589 522 529 489 441 L364 116 L228 481 C181 599 179 605 179 619 C179 634 188 636 246 636 C248 636 253 636 259 635 L259 669 C190 666 165 665 124 665 C85 665 57 666 10 669 L10 637 C63 636 68 634 79 605 C83 594 88 583 93 572 C95 567 99 556 104 543 L274 109 C281 90 295 50 317 -11 L355 -11 Z " />
<glyph glyph-name="W" unicode="W" horiz-adv-x="950" d="M261 -11 C271 23 293 85 317 150 L459 528 L530 323 C542 290 556 250 573 205 C622 75 630 53 647 -11 L691 -11 C753 234 759 254 838 518 C871 625 879 636 924 639 C926 639 933 639 940 640 L940 670 C903 667 876 666 842 666 C814 666 792 667 731 669 L731 639 C793 636 808 629 808 604 C808 590 797 541 780 475 L688 127 L549 530 L521 615 C516 628 512 642 507 656 C505 663 503 670 501 676 L470 676 C466 663 441 593 394 464 L269 134 L184 544 C182 556 180 564 179 568 C172 599 171 607 171 615 C171 634 185 638 253 640 L253 669 C190 666 167 665 125 665 C83 665 54 666 10 670 L10 639 L23 639 C61 636 70 632 75 618 C82 598 85 585 95 542 L182 165 C200 82 213 23 219 -11 L261 -11 Z " />
<glyph glyph-name="X" unicode="X" horiz-adv-x="624" d="M14 -1 C38 0 56 0 69 0 L128 -1 C127 1 127 4 127 6 C127 28 162 92 229 191 L301 297 L381 157 C392 138 405 115 419 88 C448 36 454 26 474 -2 C495 0 507 0 530 0 C566 0 580 0 610 -2 L610 29 L603 29 C564 29 559 34 509 118 L351 373 L466 528 C543 631 550 638 570 639 L592 641 C593 641 595 641 599 642 L599 666 L546 666 L485 666 L485 656 C485 631 485 631 451 581 L331 408 L239 571 C207 626 192 649 164 677 L26 654 L26 624 C41 626 47 627 55 627 C76 627 93 619 109 600 C130 576 163 531 186 493 L283 335 L135 130 C81 56 68 40 61 36 C52 31 42 29 14 29 L14 -1 Z " />
<glyph glyph-name="Y" unicode="Y" horiz-adv-x="623" d="M535 670 C479 566 452 517 435 488 C377 383 360 354 347 324 C212 580 170 647 125 677 C106 672 63 663 5 653 L5 626 C69 629 108 583 250 333 C261 312 273 291 275 288 C282 277 282 276 282 263 C282 259 282 245 283 225 L283 199 C283 107 281 67 276 51 C271 32 264 30 200 27 L187 26 L187 -4 C267 -1 315 0 361 0 C398 0 419 0 459 -2 L459 27 C418 29 386 34 380 40 C372 49 369 100 369 234 C369 288 375 304 434 404 C488 496 565 611 603 657 L603 670 L535 670 Z " />
<glyph glyph-name="Z" unicode="Z" horiz-adv-x="626" d="M556 168 C555 157 554 147 554 144 C545 61 537 50 486 44 C453 42 429 42 147 42 C392 384 517 552 592 642 L592 668 C550 666 535 666 478 666 C386 666 355 666 242 669 C194 670 163 671 137 671 C123 671 114 671 80 670 C81 641 82 619 82 575 C82 549 82 539 81 512 L112 512 C113 523 113 533 113 536 C117 595 122 610 143 616 C164 622 243 626 356 626 C389 626 406 626 464 625 C179 225 95 111 20 24 L20 -2 C107 -1 156 0 204 0 C258 0 316 -1 412 -2 C458 -3 490 -3 514 -3 C537 -3 552 -3 583 -2 C582 9 582 20 582 24 C582 71 585 121 592 168 L556 168 Z " />
<glyph glyph-name="bracketleft" unicode="[" horiz-adv-x="304" d="M254 716 C195 714 167 713 163 713 C137 713 119 714 83 717 L77 710 C83 594 84 513 84 164 C84 -32 83 -82 77 -174 L83 -180 C118 -178 136 -177 163 -177 C175 -177 193 -178 254 -180 L254 -150 L208 -141 C179 -136 170 -133 165 -126 C159 -117 156 -83 156 -12 C156 5 156 25 157 66 L157 168 L157 458 C157 603 157 623 162 653 C165 667 172 671 208 678 L254 686 L254 716 Z " />
<glyph glyph-name="backslash" unicode="\" horiz-adv-x="383" d="M336 -79 C349 -111 362 -143 376 -175 C386 -174 394 -174 399 -174 C405 -174 413 -174 424 -175 L376 -59 L101 605 C80 655 66 688 61 702 C51 701 42 700 38 700 C31 700 24 701 13 702 C27 669 40 638 53 605 L336 -79 Z " />
<glyph glyph-name="bracketright" unicode="]" horiz-adv-x="304" d="M51 -180 C107 -178 131 -177 142 -177 C168 -177 187 -178 222 -180 L228 -174 C222 -88 221 -22 221 142 C221 502 222 595 228 710 L222 717 C186 714 168 713 142 713 C138 713 108 714 51 716 L51 686 L97 678 C133 671 140 667 143 653 C147 632 149 576 148 455 C148 133 147 -47 146 -84 C145 -131 143 -133 97 -141 L51 -150 L51 -180 Z " />
<glyph glyph-name="asciicircum" unicode="^" horiz-adv-x="434" d="M91 439 L215 640 L342 439 L387 453 L229 697 L197 697 L46 453 L91 439 Z " />
<glyph glyph-name="underscore" unicode="_" horiz-adv-x="500" d="M0 -82 L0 -126 L500 -126 L500 -82 L0 -82 Z " />
<glyph glyph-name="grave" unicode="`" horiz-adv-x="500" d="M284 521 L162 648 C138 672 127 679 113 679 C95 679 82 667 82 650 C82 634 94 622 135 597 L263 521 L284 521 Z " />
<glyph glyph-name="a" unicode="a" horiz-adv-x="468" d="M98 318 L124 383 C152 398 171 403 199 403 C240 403 273 387 291 357 C302 338 307 317 308 277 C285 272 285 272 247 265 C154 245 149 244 117 232 C67 212 37 165 37 104 C37 30 81 -15 152 -15 C177 -15 199 -8 219 5 C232 14 250 29 311 77 L309 -4 C350 0 366 1 381 1 C397 1 408 0 452 -3 L452 27 C391 30 391 30 391 79 L387 285 C386 348 379 379 358 404 C332 435 285 454 234 454 C196 454 172 447 133 425 L82 395 L72 390 L72 324 L98 318 Z M310 124 C278 72 235 44 190 44 C148 44 120 75 120 122 C120 154 133 183 155 199 C176 215 184 217 280 243 C284 244 296 248 309 251 L310 124 Z " />
<glyph glyph-name="b" unicode="b" horiz-adv-x="534" d="M96 -5 L133 30 C170 2 203 -9 249 -9 C293 -9 310 -3 354 32 C367 41 379 50 391 59 C431 86 442 96 455 117 C483 165 498 216 498 266 C498 373 427 454 332 454 C285 454 244 439 221 413 L167 355 L167 565 C167 623 168 645 170 696 L165 702 C128 686 54 671 7 668 L7 641 L25 641 C59 641 71 639 76 633 C82 623 85 547 85 363 C85 102 84 69 76 1 L96 -5 Z M167 284 C167 306 168 311 179 328 C203 368 243 391 288 391 C367 391 416 328 416 225 C416 117 362 43 282 43 C246 43 204 60 179 84 C167 95 167 96 167 120 L167 284 Z " />
<glyph glyph-name="c" unicode="c" horiz-adv-x="435" d="M384 302 C386 360 390 392 399 427 C362 447 330 454 284 454 C247 454 222 448 191 432 C148 410 104 382 88 365 C58 334 37 271 37 208 C37 72 119 -15 247 -15 C292 -15 335 -4 379 19 L399 50 L388 61 C356 43 320 34 283 34 C189 34 123 122 123 248 C123 350 166 405 246 405 C277 405 307 397 331 382 C347 372 352 364 354 339 C354 333 356 319 357 302 L384 302 Z " />
<glyph glyph-name="d" unicode="d" horiz-adv-x="556" d="M311 641 C320 640 328 640 331 640 C366 638 376 636 380 631 C386 622 387 606 387 492 C387 470 387 455 386 424 C341 446 311 454 280 454 C250 454 222 446 185 426 C145 404 105 379 93 367 C60 336 37 269 37 204 C37 78 113 -9 224 -9 C263 -9 287 -3 301 10 C322 30 336 43 343 49 C354 59 369 71 386 85 C385 44 384 37 382 -3 C415 -1 435 0 460 0 C479 0 492 0 544 -2 L544 24 C536 25 529 26 526 27 C485 31 476 36 472 54 C469 66 468 127 468 232 C468 434 472 631 477 695 L472 702 C435 685 371 672 311 668 L311 641 Z M386 207 C386 111 339 51 263 51 C180 51 123 126 123 234 C123 344 172 411 253 411 C300 411 337 393 386 343 L386 207 Z " />
<glyph glyph-name="e" unicode="e" horiz-adv-x="469" d="M412 78 C370 49 331 35 287 35 C229 35 179 64 152 112 C136 142 128 176 127 225 L261 225 C353 225 395 229 431 240 C432 253 433 264 433 269 C433 382 365 454 259 454 C207 454 159 436 112 398 C62 358 37 297 37 212 C37 77 120 -15 243 -15 C300 -15 358 1 405 30 L421 71 L412 78 Z M128 262 C130 309 134 334 143 357 C161 399 195 423 240 423 C310 423 348 371 348 277 C348 275 348 268 347 260 C316 258 301 257 268 257 C215 257 172 259 128 262 L128 262 Z " />
<glyph glyph-name="f" unicode="f" horiz-adv-x="306" d="M37 366 L102 370 C103 344 103 336 103 324 C103 175 100 66 96 49 C91 28 87 27 23 25 L23 -3 C55 -2 147 0 148 0 L188 -1 L249 -2 L275 -2 L275 23 C263 24 253 25 249 26 C212 30 198 33 192 40 C186 47 184 67 184 135 C184 155 184 193 183 248 L183 299 C183 324 183 336 184 372 C209 373 229 373 241 373 C254 373 272 373 296 372 C299 394 300 397 304 419 L300 422 C252 419 236 418 203 418 L184 418 C184 506 184 541 186 559 C190 616 207 640 242 640 C269 640 291 628 315 601 L329 603 L332 693 C307 701 296 703 280 703 C245 703 216 683 154 616 C106 564 102 551 102 444 L102 414 L37 386 L37 366 Z " />
<glyph glyph-name="g" unicode="g" horiz-adv-x="495" d="M499 371 C503 394 503 398 508 421 C475 418 437 417 398 417 C392 417 379 417 364 418 C331 443 296 454 250 454 C136 454 47 381 47 287 C47 217 83 174 157 154 C121 128 116 124 77 97 C73 84 72 78 72 68 C72 37 91 16 136 0 C94 -26 88 -29 42 -46 C28 -82 23 -100 23 -122 C23 -211 104 -271 223 -271 C369 -271 487 -177 487 -60 C487 16 439 60 357 58 C279 56 279 56 271 56 C188 56 155 68 155 96 C155 113 166 129 192 149 C204 148 213 148 218 148 C329 148 409 216 409 308 C409 333 405 349 394 373 L499 371 Z M226 422 C288 422 326 374 326 297 C326 225 288 179 227 179 C169 179 128 233 128 312 C128 379 166 422 226 422 L226 422 Z M237 -10 C295 -10 330 -13 355 -20 C388 -29 408 -56 408 -93 C408 -176 334 -240 238 -240 C152 -240 96 -190 96 -113 C96 -65 112 -43 171 -12 L237 -10 Z " />
<glyph glyph-name="h" unicode="h" horiz-adv-x="556" d="M13 641 L30 640 C85 640 89 638 90 611 C91 555 93 434 93 354 C93 67 93 51 83 39 C77 31 64 28 28 26 L14 26 L14 -2 C107 -1 141 0 148 0 C172 0 187 0 248 -2 L248 26 C175 29 175 29 174 91 L173 258 C173 316 174 323 184 338 C209 374 247 393 291 393 C330 393 362 377 377 350 C390 325 394 300 394 229 C394 171 393 132 387 -2 C419 0 436 1 462 1 C488 1 508 0 546 -1 L546 27 C474 29 474 29 474 125 C474 145 474 173 475 222 C476 243 476 264 476 277 C476 341 468 377 447 403 C421 435 375 454 323 454 C281 454 258 446 233 422 L172 363 L172 573 C172 593 174 675 176 697 L168 702 C132 685 70 672 13 668 L13 641 Z " />
<glyph glyph-name="i" unicode="i" horiz-adv-x="268" d="M25 388 C32 387 36 387 39 387 C87 385 90 385 94 379 C100 371 102 336 102 268 C102 134 100 64 97 47 C93 31 86 28 40 26 L25 25 L25 -2 C87 0 107 1 139 1 C173 1 193 0 255 -3 L255 26 L239 27 C203 29 192 33 188 47 C183 62 182 89 182 203 C182 310 183 367 186 448 L178 456 C135 437 97 427 25 415 L25 388 Z M139 662 C110 662 86 639 86 609 C86 581 110 557 138 557 C167 557 191 580 191 609 C191 638 167 662 139 662 L139 662 Z " />
<glyph glyph-name="j" unicode="j" horiz-adv-x="261" d="M-2 -267 C5 -268 10 -268 13 -268 C36 -268 59 -261 82 -246 C130 -216 158 -167 172 -87 C181 -36 181 -36 181 217 C181 310 183 373 188 447 L179 455 C138 436 91 425 27 416 L27 390 C34 389 41 389 43 389 C90 388 93 387 97 376 C101 364 101 350 101 150 C101 -166 85 -236 13 -236 C7 -236 1 -235 -12 -234 L-2 -267 Z M140 662 C111 662 87 639 87 609 C87 581 111 557 139 557 C168 557 192 580 192 609 C192 638 168 662 140 662 L140 662 Z " />
<glyph glyph-name="k" unicode="k" horiz-adv-x="544" d="M10 641 C20 640 29 640 32 640 C85 639 87 638 88 608 C90 566 91 465 91 382 C91 116 89 45 83 38 C76 30 56 26 14 25 L14 -3 C90 0 110 0 138 0 C160 0 176 0 245 -2 L245 24 C196 28 186 30 179 38 C173 39 171 95 171 233 L175 235 C220 194 250 165 294 119 C385 26 389 21 425 -10 C445 -2 455 2 481 9 C497 13 512 18 527 22 C535 24 543 26 544 27 L544 48 C528 45 521 44 513 44 C480 44 474 48 391 129 L248 272 L348 351 C431 415 433 417 491 418 L491 445 C458 443 446 443 428 443 C415 443 405 443 365 445 C363 427 357 418 323 385 C243 310 211 283 171 256 L171 519 C171 530 171 553 172 586 C173 631 173 652 173 696 L166 702 C123 684 73 673 10 668 L10 641 Z " />
<glyph glyph-name="l" unicode="l" horiz-adv-x="260" d="M18 641 C81 639 86 638 89 619 C91 611 91 568 91 326 C91 123 89 45 84 37 C79 29 71 28 27 25 L17 24 L17 -3 C61 0 88 1 127 1 C169 1 197 0 244 -4 L244 24 C179 30 179 30 177 47 C174 64 172 168 172 280 C172 549 173 621 178 696 L171 702 C130 685 74 673 18 669 L18 641 Z " />
<glyph glyph-name="m" unicode="m" horiz-adv-x="834" d="M23 390 L38 390 C76 390 87 388 92 383 C98 375 100 345 100 224 C100 51 100 43 89 35 C80 29 74 28 24 25 L24 -2 C61 0 82 0 139 0 C198 0 219 0 258 -2 L258 26 C200 28 187 32 183 49 C182 55 182 59 181 115 L181 206 C180 230 180 261 180 270 C180 311 185 329 202 351 C223 379 254 394 290 394 C326 394 356 377 370 349 C384 322 388 290 388 220 C388 94 385 46 376 37 C370 30 355 28 309 26 L309 -2 C360 0 388 1 423 1 C457 1 479 1 545 -1 L545 26 C509 28 497 30 487 33 C469 39 467 47 467 102 L467 156 C468 192 468 192 468 227 C468 302 468 302 472 322 C481 364 524 394 574 394 C618 394 649 373 661 333 C669 310 671 280 671 189 C671 122 670 69 666 -1 C694 1 710 2 734 2 C746 2 755 2 827 -1 L827 27 C752 28 751 30 751 115 L752 223 C753 242 753 264 753 275 C753 329 749 355 738 380 C717 425 667 454 612 454 C574 454 539 441 516 419 L462 365 C448 393 439 405 427 418 C403 440 366 454 328 454 C289 454 260 445 240 425 L181 369 L184 448 L175 455 C139 437 90 425 23 416 L23 390 Z " />
<glyph glyph-name="n" unicode="n" horiz-adv-x="576" d="M23 387 C50 388 51 388 54 388 C79 388 88 386 92 381 C98 373 101 324 101 229 C101 117 100 73 97 51 C95 34 88 28 67 27 L34 24 L23 23 L23 -4 C87 -1 104 0 137 0 C151 0 158 0 260 -3 L260 24 C182 26 182 26 181 85 L180 278 C180 314 186 332 204 351 C228 377 261 391 300 391 C343 391 380 373 396 343 C409 320 412 296 412 232 C412 152 409 70 404 -3 C436 0 453 1 479 1 C501 1 520 0 562 -3 L562 24 C558 25 554 25 552 25 C515 29 513 29 505 35 C495 42 493 54 493 121 C493 135 493 165 494 200 C495 227 495 257 495 267 C495 341 485 380 459 409 C433 437 389 454 343 454 C315 454 271 444 261 434 L183 367 L183 395 C183 409 184 422 186 447 L176 454 C128 433 85 422 23 415 L23 387 Z " />
<glyph glyph-name="o" unicode="o" horiz-adv-x="518" d="M271 454 C133 454 37 358 37 222 C37 75 118 -15 249 -15 C388 -15 482 85 482 233 C482 374 406 454 271 454 L271 454 Z M252 424 C299 424 337 401 358 360 C381 318 394 256 394 196 C394 85 349 19 273 19 C221 19 179 50 155 106 C136 150 125 203 125 253 C125 361 172 424 252 424 L252 424 Z " />
<glyph glyph-name="p" unicode="p" horiz-adv-x="559" d="M16 387 C28 388 36 388 43 388 C77 388 85 385 89 371 C95 350 95 332 95 -150 C95 -233 94 -234 15 -235 L15 -263 C88 -260 113 -259 151 -259 C183 -259 209 -260 252 -262 L252 -238 C202 -235 193 -232 184 -223 C176 -213 175 -194 175 -13 L175 18 C203 -1 231 -9 264 -9 C292 -9 312 -3 345 16 C402 48 449 82 468 104 C500 141 522 207 522 267 C522 379 452 454 347 454 C299 454 270 445 248 425 L175 358 L177 446 L165 453 C122 433 69 420 16 416 L16 387 Z M175 297 C175 342 241 393 300 393 C383 393 439 326 439 225 C439 118 378 42 292 42 C248 42 216 57 175 99 L175 297 Z " />
<glyph glyph-name="q" unicode="q" horiz-adv-x="534" d="M453 451 L407 419 C367 443 330 454 288 454 C243 454 220 445 131 393 C70 357 37 291 37 203 C37 81 115 -9 221 -9 C250 -9 266 -5 285 8 L373 65 L373 2 C373 -77 370 -193 367 -209 C364 -231 359 -233 305 -236 L290 -237 L290 -263 C370 -261 394 -260 412 -260 C429 -260 444 -260 532 -263 L532 -237 C469 -235 462 -232 457 -207 C454 -190 452 -83 452 122 C452 335 455 384 471 442 L453 451 Z M371 114 C334 67 300 46 257 46 C180 46 122 126 122 232 C122 341 177 413 260 413 C302 413 333 399 371 365 L371 114 Z " />
<glyph glyph-name="r" unicode="r" horiz-adv-x="375" d="M18 389 L36 389 C72 389 85 387 90 381 C97 372 100 332 100 241 C100 119 98 66 94 47 C89 29 89 29 17 24 L17 -4 C93 -1 117 0 159 0 C202 0 225 -1 269 -4 L269 22 L254 23 C198 28 190 30 186 44 C181 59 178 104 178 178 C178 243 183 291 191 315 C203 347 234 369 267 369 C292 369 310 356 324 326 L345 326 C345 384 346 392 355 444 C338 451 328 453 313 453 C276 453 249 437 221 399 C215 390 206 378 195 364 C192 360 186 354 178 345 L180 446 L170 455 C139 438 74 421 18 417 L18 389 Z " />
<glyph glyph-name="s" unicode="s" horiz-adv-x="401" d="M47 141 C47 67 45 32 37 10 C82 -7 124 -15 172 -15 C284 -15 365 50 365 140 C365 193 333 230 268 252 C198 276 192 278 174 287 C135 305 120 324 120 355 C120 397 154 425 206 425 C240 425 267 413 285 389 C298 372 302 355 304 319 L332 319 C333 382 335 411 338 428 C293 447 257 454 213 454 C116 454 57 404 57 323 C57 263 84 234 168 202 C236 178 237 177 251 171 C280 157 295 135 295 105 C295 54 250 16 190 16 C157 16 126 27 104 47 C84 66 78 83 76 128 L76 141 L47 141 Z " />
<glyph glyph-name="t" unicode="t" horiz-adv-x="319" d="M20 360 C54 364 59 364 93 364 L92 136 C93 52 93 52 107 27 C121 1 155 -15 195 -15 C216 -15 229 -12 253 -3 L305 50 L300 69 C269 51 253 46 233 46 C208 46 187 60 181 81 C175 100 173 121 173 171 L172 368 C212 369 251 369 289 369 L297 417 L294 419 C261 414 235 413 172 413 C174 532 174 542 177 587 L167 596 C133 577 127 575 89 560 L92 411 L20 381 L20 360 Z " />
<glyph glyph-name="u" unicode="u" horiz-adv-x="550" d="M537 25 L526 26 C462 29 461 31 461 115 C461 204 465 369 468 449 L459 456 C420 437 384 428 302 418 L302 390 C321 391 335 391 338 391 C363 391 372 389 376 384 C382 376 384 344 384 265 C384 145 383 137 367 113 C338 71 303 50 258 50 C191 50 169 83 169 185 C169 267 173 388 177 447 L168 455 C128 435 79 423 13 418 L13 390 L31 390 C63 389 73 388 80 384 C87 379 88 374 88 328 C88 303 88 275 86 203 C85 180 85 152 85 140 C85 84 93 53 114 30 C136 5 173 -9 217 -9 C255 -9 294 2 310 18 L385 90 C383 48 383 41 380 -3 C411 -1 427 0 452 0 C462 0 462 0 537 -2 L537 25 Z " />
<glyph glyph-name="v" unicode="v" horiz-adv-x="486" d="M264 -7 C303 99 343 193 423 361 C446 408 451 412 493 416 L493 443 C463 441 443 440 407 440 C372 440 351 441 315 443 L315 416 C367 411 378 405 378 385 C378 371 372 349 360 319 L263 79 L159 347 C145 387 145 387 145 395 C145 410 159 414 216 416 L216 443 C156 440 131 439 100 439 C67 439 40 440 -7 443 L-7 414 L0 413 C40 411 44 408 61 367 C65 358 70 346 72 342 L185 79 L207 26 C209 22 214 10 221 -7 L264 -7 Z " />
<glyph glyph-name="w" unicode="w" horiz-adv-x="741" d="M222 -7 C238 42 250 74 269 118 L362 328 L489 -7 L533 -7 C586 151 599 186 663 335 C693 403 708 417 748 418 L748 443 C699 442 689 442 661 442 C638 442 621 442 563 443 L563 418 C615 413 629 406 629 382 C629 365 622 340 603 288 L532 95 L441 332 C426 371 418 391 401 436 C401 438 399 444 396 452 L373 452 C348 388 331 344 321 321 L226 100 L161 331 C147 381 146 386 146 395 C146 413 154 416 217 418 L217 443 C154 441 134 441 100 441 C67 441 47 441 -7 443 L-7 418 C52 415 55 412 79 330 L157 69 C162 53 169 28 180 -7 L222 -7 Z " />
<glyph glyph-name="x" unicode="x" horiz-adv-x="495" d="M13 412 L15 389 C24 391 30 391 35 391 C64 391 92 375 121 342 C138 323 144 314 215 208 L104 73 C66 27 61 25 16 24 L16 -3 C41 -1 55 0 74 0 C92 0 103 -1 122 -3 C122 16 132 36 161 77 L233 180 L313 57 C343 10 357 -4 381 -13 C432 0 440 2 494 15 L494 36 C485 35 476 35 470 35 C435 35 411 53 375 105 L280 242 L388 371 C422 410 432 416 464 417 L464 443 C445 442 430 441 421 441 C410 441 396 442 375 443 C376 429 367 411 335 367 L263 269 L221 339 C175 416 157 436 118 452 L13 412 Z " />
<glyph glyph-name="y" unicode="y" horiz-adv-x="484" d="M22 -174 C14 -210 13 -216 2 -254 C35 -268 52 -272 73 -272 C106 -272 143 -250 164 -216 C182 -189 203 -145 233 -75 L370 254 C433 400 441 411 491 415 L491 442 C456 440 435 439 408 439 C385 439 366 439 313 441 L313 415 L324 414 C361 411 373 404 373 384 C373 370 358 323 337 269 L262 77 L192 254 C178 294 168 320 163 334 C147 378 147 378 147 389 C147 401 152 408 165 411 C172 412 172 412 216 416 L216 443 C142 440 114 439 89 439 C54 439 33 440 -7 443 L-7 414 C46 410 49 407 88 308 L223 -28 C177 -135 177 -135 162 -164 C144 -195 123 -209 95 -209 C70 -209 51 -198 36 -174 L22 -174 Z " />
<glyph glyph-name="z" unicode="z" horiz-adv-x="456" d="M409 135 C399 75 392 56 375 47 C358 37 296 32 197 32 C178 32 162 32 130 33 C177 96 225 159 272 223 C322 288 370 348 427 417 L427 443 C393 440 367 439 309 439 C290 439 207 440 59 443 C61 428 61 421 61 409 C61 386 60 369 56 315 L82 315 C90 377 98 395 121 401 C124 404 188 406 319 408 C285 364 258 328 185 230 C109 129 72 83 13 18 L17 0 L37 0 L116 0 L217 0 C253 0 287 -1 319 -2 L380 -3 C400 -3 407 -2 425 1 C426 52 428 82 436 135 L409 135 Z " />
<glyph glyph-name="braceleft" unicode="{" horiz-adv-x="304" d="M282 -157 C224 -154 200 -146 182 -123 C163 -98 161 -82 161 18 L161 101 C161 195 159 207 140 233 C126 250 110 260 80 268 C110 276 126 286 140 304 C159 329 161 342 161 436 L161 519 C161 618 163 634 183 658 C200 680 225 689 282 693 L282 717 L267 717 C208 717 166 711 143 700 C104 682 85 639 85 569 L89 361 C89 305 70 285 13 282 C11 281 5 281 0 281 L0 256 L13 255 C67 254 88 231 89 175 C87 100 85 -8 85 -34 C85 -111 109 -155 159 -170 C184 -178 205 -179 282 -181 L282 -157 Z " />
<glyph glyph-name="bar" unicode="|" horiz-adv-x="543" d="M249 667 L249 -167 L294 -167 L294 667 L249 667 Z " />
<glyph glyph-name="braceright" unicode="}" horiz-adv-x="304" d="M22 693 C80 691 104 682 122 659 C141 635 143 619 143 519 L143 436 C143 342 145 329 164 304 C178 286 194 276 224 268 C194 260 178 250 164 232 C145 207 143 195 143 100 L143 18 C143 -82 141 -98 121 -122 C104 -144 79 -153 22 -157 L22 -180 C29 -181 36 -181 37 -181 C97 -181 138 -175 161 -164 C200 -146 219 -103 219 -33 L215 175 C215 231 234 251 291 255 C293 255 298 255 304 256 L304 280 C299 281 293 281 291 281 C237 283 216 305 215 361 C217 436 219 545 219 571 C219 648 195 692 145 706 C120 714 99 716 22 717 L22 693 Z " />
<glyph glyph-name="asciitilde" unicode="~" horiz-adv-x="444" d="M22 600 C57 633 84 647 112 647 C126 647 133 645 168 632 C267 596 267 596 297 596 C341 596 383 617 420 658 L412 697 C371 657 344 643 309 643 C287 643 261 650 220 667 C172 687 151 693 127 693 C90 693 54 676 14 640 L22 600 Z " />
<glyph glyph-name="exclamdown" unicode="¡" horiz-adv-x="261" d="M114 -222 C144 -210 155 -204 182 -186 C183 -150 184 -135 184 -121 C184 -93 177 -1 168 83 C161 161 156 218 153 266 L144 271 L117 246 C112 151 112 139 107 70 C89 -164 87 -191 87 -222 L114 -222 Z M141 455 C112 455 89 430 89 400 C89 369 112 344 140 344 C169 344 192 369 192 400 C192 430 168 455 141 455 L141 455 Z " />
<glyph glyph-name="cent" unicode="¢" horiz-adv-x="509" d="M260 612 C262 594 262 580 262 570 C262 565 262 554 261 542 L239 533 C174 505 139 483 121 456 C95 419 80 367 80 315 C80 242 107 177 151 142 C180 119 211 109 262 104 C260 55 260 49 258 4 L299 4 C297 51 297 58 297 104 C330 105 368 116 399 134 L429 179 L420 191 C389 164 353 149 318 149 C315 149 307 150 298 151 L298 505 C359 503 381 477 383 405 L409 405 C410 453 415 501 421 525 C384 541 354 548 323 548 C317 548 309 548 298 547 C298 576 298 581 300 612 L260 612 Z M262 158 C197 186 162 256 162 355 C162 448 196 499 262 504 L262 158 Z " />
<glyph glyph-name="sterling" unicode="£" horiz-adv-x="509" d="M476 186 C474 179 473 172 472 170 C456 100 442 80 405 80 C392 80 377 81 360 83 C303 89 232 94 205 94 C173 94 147 89 115 76 C180 129 200 176 215 312 L275 311 L377 311 L381 315 C385 329 385 330 389 343 L384 348 C313 346 287 345 253 345 C248 345 232 345 216 346 C218 441 222 485 228 517 C244 595 280 632 341 632 C367 632 393 624 413 609 C435 593 440 581 446 532 C446 530 447 524 448 517 L473 517 C473 586 474 590 482 648 C457 667 423 676 381 676 C343 676 320 670 284 649 C242 626 194 589 172 564 C140 527 133 488 133 345 C93 346 87 346 46 348 C45 332 44 330 41 313 L49 310 C69 311 85 311 94 311 C104 311 116 311 134 310 C135 295 135 286 135 275 C135 202 126 146 107 109 C88 72 69 60 7 45 C5 32 4 23 4 16 L4 0 L20 -10 C67 25 91 35 123 35 C141 35 172 31 200 24 C330 -5 359 -10 401 -10 C432 -10 453 -7 490 0 L490 25 C490 59 495 119 503 184 L476 186 Z " />
<glyph glyph-name="currency" unicode="¤" horiz-adv-x="602" d="M124 490 C85 432 72 395 72 343 C72 290 86 250 125 194 L40 109 C35 104 35 103 35 101 C35 99 35 98 40 93 L53 80 C58 76 59 75 61 75 C64 75 65 76 69 80 L155 166 C207 130 247 116 301 116 C354 116 392 128 448 165 L534 79 C538 75 539 74 541 74 C544 74 545 75 549 79 L563 93 C567 98 568 98 568 100 C568 103 567 103 563 108 L478 193 C518 253 532 291 532 342 C532 396 514 446 478 493 L562 577 C566 580 567 582 567 584 C567 587 566 588 562 592 L549 605 C545 609 543 610 541 610 C538 610 537 609 533 605 L450 522 C402 554 353 569 300 569 C245 569 199 554 152 520 L69 603 C64 607 63 608 61 608 C59 608 58 607 53 603 L40 590 C36 586 35 584 35 582 C35 580 36 578 40 574 L124 490 Z M302 516 C397 516 473 438 473 341 C473 247 395 170 301 170 C207 170 131 247 131 343 C131 438 208 516 302 516 L302 516 Z " />
<glyph glyph-name="yen" unicode="¥" horiz-adv-x="509" d="M198 259 L33 259 L33 227 L198 227 L198 201 L197 117 C197 98 196 81 193 65 C189 37 180 33 121 27 L104 26 L104 -3 C149 -1 181 0 230 0 C287 0 316 -1 366 -3 L366 25 L351 27 C307 32 294 36 288 44 C282 55 281 66 281 162 C281 181 281 186 282 227 L442 227 L442 259 L282 259 L282 345 L443 345 L443 377 L293 377 L402 558 C444 626 457 636 505 641 L505 672 C475 669 462 668 429 668 C391 668 363 669 319 672 L319 640 C363 639 375 633 375 614 C375 603 370 588 356 561 L269 388 L179 570 C171 586 165 605 165 616 C165 631 182 639 215 639 L224 639 L224 672 C184 669 160 668 115 668 C71 668 44 669 5 673 L5 641 C52 638 59 633 89 570 L190 377 L32 377 L32 345 L198 345 L198 259 Z " />
<glyph glyph-name="brokenbar" unicode="¦" horiz-adv-x="500" d="M224 667 L224 333 L277 333 L277 667 L224 667 Z M224 153 L224 -167 L277 -167 L277 153 L224 153 Z " />
<glyph glyph-name="section" unicode="§" horiz-adv-x="509" d="M396 513 L403 653 C356 670 328 675 278 675 C159 675 93 621 93 524 C93 486 102 459 125 432 C88 398 71 360 71 314 C71 244 109 206 210 175 C271 156 305 143 323 133 C357 113 373 88 373 54 C373 -11 318 -55 238 -55 C196 -55 159 -41 136 -16 C118 2 113 17 111 65 C111 69 110 78 109 89 L78 89 L78 -68 C131 -92 162 -99 211 -99 C338 -99 435 -17 435 90 C435 136 419 169 383 197 C423 247 437 276 437 312 C437 372 404 401 291 442 C189 479 159 505 159 556 C159 609 199 642 263 642 C335 642 367 604 371 513 L396 513 Z M144 420 C176 401 187 397 264 368 C352 336 381 310 381 265 C381 246 377 233 362 210 C331 224 314 230 268 244 C156 277 125 303 125 360 C125 382 129 396 144 420 L144 420 Z " />
<glyph glyph-name="dieresis" unicode="¨" horiz-adv-x="500" d="M153 649 C126 649 104 627 104 600 C104 573 126 551 152 551 C180 551 202 573 202 600 C202 627 180 649 153 649 L153 649 Z M347 649 C320 649 298 627 298 600 C298 573 320 551 346 551 C374 551 396 573 396 600 C396 627 374 649 347 649 L347 649 Z " />
<glyph glyph-name="copyright" unicode="©" horiz-adv-x="787" d="M553 431 C556 477 558 491 568 522 C521 537 473 545 426 545 C282 545 187 462 187 337 C187 212 283 125 423 125 C471 125 513 135 561 159 C566 173 566 175 572 189 L563 198 C527 173 493 163 444 163 C332 163 258 237 258 348 C258 450 321 514 421 514 C461 514 500 504 519 488 C525 483 527 479 527 464 L528 431 L553 431 Z M393 681 C200 681 43 524 43 330 C43 139 200 -20 389 -20 C587 -20 743 135 743 331 C743 524 586 681 393 681 L393 681 Z M393 646 C566 646 708 504 708 331 C708 154 567 15 389 15 C219 15 78 158 78 330 C78 504 219 646 393 646 L393 646 Z " />
<glyph glyph-name="ordfeminine" unicode="ª" horiz-adv-x="307" d="M72 454 L88 494 C104 502 115 505 132 505 C174 505 194 483 196 436 C132 424 93 415 80 410 C47 398 28 369 28 332 C28 286 57 258 103 258 C125 258 137 263 165 284 C174 291 189 301 198 309 L197 264 L208 265 C227 266 240 267 245 267 C253 267 258 267 292 264 L292 289 C263 291 262 291 258 294 C255 297 254 300 254 317 L252 438 C252 476 247 496 233 511 C217 530 186 542 153 542 C130 542 114 537 90 524 L58 506 C56 505 53 503 50 502 L50 459 L72 454 Z M197 414 L198 344 C178 316 153 300 127 300 C102 300 86 317 86 343 C86 360 94 376 106 385 C119 394 126 396 183 410 L197 414 Z " />
<glyph glyph-name="guillemotleft" unicode="«" horiz-adv-x="441" d="M212 398 C138 321 97 280 46 232 L46 220 C90 178 159 110 212 54 L233 70 C194 121 163 164 122 226 C156 276 176 305 233 383 L212 398 Z M371 398 C296 318 263 284 208 232 L208 220 C250 180 320 108 371 54 L395 70 C356 119 322 166 281 226 C314 274 340 309 395 383 L371 398 Z " />
<glyph glyph-name="logicalnot" unicode="¬" horiz-adv-x="533" d="M12 238 L12 194 L455 194 L455 -29 L502 -29 L502 238 L12 238 Z " />
<glyph glyph-name="uni00AD" unicode="­" horiz-adv-x="282" d="M6 196 C65 199 94 200 140 200 C185 200 210 199 259 196 C265 223 269 235 282 264 L278 271 C205 269 172 268 138 268 C97 268 72 269 24 271 C16 244 12 233 0 203 L6 196 Z " />
<glyph glyph-name="registered" unicode="®" horiz-adv-x="787" d="M345 342 C376 306 396 281 430 235 C448 211 466 186 485 161 C489 156 496 147 505 135 C523 136 534 137 548 137 C559 137 566 137 600 135 L600 158 C579 160 571 162 563 166 C554 171 549 177 517 217 C509 228 492 250 466 281 C444 309 434 322 423 338 C495 352 538 395 538 450 C538 510 495 540 407 540 C402 540 391 540 376 539 C325 538 299 537 296 537 C289 537 259 538 208 539 L208 514 L220 514 C249 512 254 511 257 507 C263 500 264 472 264 357 C264 200 263 172 257 165 C255 162 254 162 219 159 C217 159 213 159 208 158 L208 135 C269 136 291 137 303 137 C326 137 345 136 381 135 L381 159 C340 161 335 161 331 165 C327 170 325 199 325 282 C325 417 325 474 327 504 C350 509 364 511 382 511 C439 511 471 485 471 438 C471 387 431 354 371 354 C365 354 359 355 349 356 L345 342 Z M393 681 C200 681 43 524 43 330 C43 139 200 -20 389 -20 C587 -20 743 135 743 331 C743 524 586 681 393 681 L393 681 Z M393 646 C566 646 708 504 708 331 C708 154 567 15 389 15 C219 15 78 158 78 330 C78 504 219 646 393 646 L393 646 Z " />
<glyph glyph-name="macron" unicode="¯" horiz-adv-x="500" d="M129 572 L372 572 L372 616 L129 616 L129 572 Z " />
<glyph glyph-name="degree" unicode="°" horiz-adv-x="282" d="M141 681 C87 681 43 637 43 584 C43 530 87 486 139 486 C194 486 238 529 238 584 C238 637 194 681 141 681 L141 681 Z M141 650 C177 650 207 620 207 584 C207 547 177 517 140 517 C104 517 74 547 74 584 C74 620 104 650 141 650 L141 650 Z " />
<glyph glyph-name="plusminus" unicode="±" horiz-adv-x="576" d="M71 401 L71 342 L256 342 L256 169 L319 169 L319 342 L504 342 L504 401 L319 401 L319 575 L256 575 L256 401 L71 401 Z M71 124 L71 65 L504 65 L504 124 L71 124 Z " />
<glyph glyph-name="twosuperior" unicode="²" horiz-adv-x="335" d="M31 263 C89 266 128 267 188 267 C239 267 262 266 306 263 C304 276 303 286 303 293 C303 300 304 310 306 324 C273 321 247 320 195 319 L105 319 L208 421 C264 476 284 513 284 558 C284 627 235 672 159 672 C114 672 83 659 54 628 C52 601 52 595 46 560 L44 546 L68 546 C71 557 74 567 75 571 C81 593 87 603 97 609 C110 617 127 622 145 622 C191 622 223 588 223 540 C223 498 200 460 137 394 L31 284 L31 263 Z " />
<glyph glyph-name="threesuperior" unicode="³" horiz-adv-x="335" d="M27 362 C37 331 45 297 46 274 C86 263 106 260 132 260 C220 260 292 323 292 401 C292 455 261 487 203 493 C243 522 259 548 259 584 C259 635 215 672 154 672 C114 672 82 659 53 629 C49 612 47 605 46 596 C44 587 42 577 39 568 L37 556 L61 556 C63 562 65 568 65 570 C74 596 80 606 89 612 C103 620 120 625 138 625 C180 625 204 602 204 561 C204 518 176 490 133 490 C126 490 126 490 106 491 L102 458 L108 453 C131 461 144 464 160 464 C203 464 229 434 229 385 C229 326 197 290 144 290 C118 290 93 300 79 316 C69 327 64 336 48 372 L27 362 Z " />
<glyph glyph-name="acute" unicode="´" horiz-adv-x="500" d="M246 521 L373 598 C404 617 417 633 417 651 C417 667 406 680 393 680 C382 680 372 674 354 656 C351 652 348 649 344 646 L215 521 L246 521 Z " />
<glyph glyph-name="uni00B5" unicode="µ" horiz-adv-x="602" d="M153 -169 C149 -102 145 -30 141 49 C171 8 207 -10 259 -10 C324 -10 376 24 408 88 C413 21 440 -10 493 -10 C521 -10 548 0 570 18 L576 45 C556 34 542 30 527 30 C506 30 489 40 480 58 C472 73 469 95 469 144 C469 258 474 385 482 471 L403 463 C406 405 408 301 408 236 C408 164 404 130 391 102 C370 57 334 33 285 33 C240 33 202 52 182 85 C167 111 160 146 160 205 C160 265 164 344 172 471 L97 465 C100 360 101 278 101 206 C101 104 99 39 87 -174 L153 -169 Z " />
<glyph glyph-name="paragraph" unicode="¶" horiz-adv-x="509" d="M496 667 L287 667 C223 667 180 656 146 630 C107 600 85 548 85 486 C85 361 173 286 324 282 L328 6 L328 1 C331 -34 322 -76 306 -101 C295 -117 273 -129 253 -129 C239 -129 228 -123 228 -115 C228 -112 228 -111 237 -100 C244 -91 248 -80 248 -68 C248 -37 227 -17 195 -17 C162 -17 139 -41 139 -76 C139 -126 181 -163 238 -163 C274 -163 309 -146 328 -120 C349 -90 356 -58 356 14 L356 594 C356 629 356 629 398 632 L496 639 L496 667 Z " />
<glyph glyph-name="periodcentered" unicode="·" horiz-adv-x="268" d="M135 286 C104 286 79 261 79 230 C79 200 104 175 134 175 C165 175 190 200 190 230 C190 261 165 286 135 286 L135 286 Z " />
<glyph glyph-name="cedilla" unicode="¸" horiz-adv-x="500" d="M271 0 L237 -75 L245 -81 C256 -77 261 -76 271 -76 C299 -76 315 -90 315 -113 C315 -142 292 -160 255 -160 C235 -160 216 -157 190 -149 L176 -174 C215 -184 238 -188 265 -188 C330 -188 375 -155 375 -108 C375 -72 347 -47 305 -47 C298 -47 291 -48 279 -50 L300 0 L271 0 Z " />
<glyph glyph-name="onesuperior" unicode="¹" horiz-adv-x="335" d="M196 672 C152 648 106 630 37 610 L43 569 C54 575 64 580 67 581 C91 592 107 600 108 601 C121 608 130 613 134 613 L140 615 C140 616 141 616 141 616 C143 615 144 613 145 610 L144 593 C144 593 145 590 146 585 C147 581 147 574 147 565 C147 544 147 509 146 477 C145 420 144 364 144 354 C143 308 140 297 129 294 C123 292 105 290 68 289 L68 264 C131 266 152 267 173 267 C199 267 218 266 275 264 L275 289 C265 290 257 290 254 290 C220 290 209 294 206 305 C203 316 202 345 202 460 C202 530 204 634 206 664 L196 672 Z " />
<glyph glyph-name="ordmasculine" unicode="º" horiz-adv-x="338" d="M177 542 C89 542 28 484 28 401 C28 313 80 258 163 258 C251 258 311 318 311 408 C311 493 262 542 177 542 L177 542 Z M164 517 C217 517 249 467 249 386 C249 323 222 285 177 285 C126 285 89 341 89 420 C89 481 117 517 164 517 L164 517 Z " />
<glyph glyph-name="guillemotright" unicode="»" horiz-adv-x="441" d="M229 54 C303 132 344 173 395 220 L395 233 C350 275 282 343 229 398 L208 382 C247 332 278 288 318 227 C285 177 264 148 208 70 L229 54 Z M70 54 C145 134 178 168 233 220 L233 233 C191 273 121 344 70 398 L46 382 C85 333 119 287 159 227 C126 179 101 143 46 70 L70 54 Z " />
<glyph glyph-name="onequarter" unicode="¼" horiz-adv-x="725" d="M196 672 C152 648 106 630 37 610 L43 569 C54 575 64 580 67 581 C91 592 107 600 108 601 C121 608 130 613 134 613 L140 615 C140 616 141 616 141 616 C143 615 144 613 145 610 L144 593 C144 593 145 590 146 585 C147 581 147 574 147 565 C147 544 147 509 146 477 C145 420 144 364 144 354 C143 308 140 297 129 294 C123 292 105 290 68 289 L68 264 C131 266 152 267 173 267 C199 267 218 266 275 264 L275 289 C265 290 257 290 254 290 C220 290 209 294 206 305 C203 316 202 345 202 460 C202 530 204 634 206 664 L196 672 Z M521 616 C532 636 539 649 550 667 C543 666 538 666 534 666 C527 666 520 667 507 669 C500 646 495 633 488 618 L205 53 C192 27 187 18 176 -2 C184 -1 191 -1 196 -1 C199 -1 206 -1 214 -2 C221 15 224 23 235 44 L521 616 Z M415 100 C446 103 484 104 540 104 L560 103 L569 103 C569 58 567 40 564 32 C562 25 556 24 497 21 L497 -3 C555 0 569 0 595 0 C618 0 633 0 689 -3 L689 22 C651 22 635 25 630 30 C627 34 625 52 625 93 C625 94 625 98 626 103 C652 102 657 102 689 100 C688 111 687 120 687 125 C687 130 688 138 689 149 C658 145 653 145 626 145 C625 191 625 213 625 241 C625 286 626 322 627 399 L618 404 L573 387 C484 248 462 214 408 121 L415 100 Z M569 145 C548 144 534 144 518 144 C486 144 484 144 456 145 C482 189 502 224 513 241 C548 296 567 327 570 332 L569 145 Z " />
<glyph glyph-name="onehalf" unicode="½" horiz-adv-x="725" d="M196 672 C152 648 106 630 37 610 L43 569 C54 575 64 580 67 581 C91 592 107 600 108 601 C121 608 130 613 134 613 L140 615 C140 616 141 616 141 616 C143 615 144 613 145 610 L144 593 C144 593 145 590 146 585 C147 581 147 574 147 565 C147 544 147 509 146 477 C145 420 144 364 144 354 C143 308 140 297 129 294 C123 292 105 290 68 289 L68 264 C131 266 152 267 173 267 C199 267 218 266 275 264 L275 289 C265 290 257 290 254 290 C220 290 209 294 206 305 C203 316 202 345 202 460 C202 530 204 634 206 664 L196 672 Z M521 616 C532 636 539 649 550 667 C543 666 538 666 534 666 C527 666 520 667 507 669 C500 646 495 633 488 618 L205 53 C192 27 187 18 176 -2 C184 -1 191 -1 196 -1 C199 -1 206 -1 214 -2 C221 15 224 23 235 44 L521 616 Z M420 -3 C478 -1 520 0 577 0 C630 0 651 -1 695 -4 C693 10 692 20 692 26 C692 33 693 44 695 57 C662 54 636 53 584 53 L494 53 L597 154 C653 209 673 246 673 291 C673 361 624 405 548 405 C503 405 472 392 443 361 C441 334 441 328 435 294 L433 279 L457 279 C460 290 463 300 464 304 C471 326 476 336 486 342 C499 350 516 355 534 355 C580 355 612 322 612 273 C612 231 590 193 526 128 L420 18 L420 -3 Z " />
<glyph glyph-name="threequarters" unicode="¾" horiz-adv-x="725" d="M27 362 C37 331 45 297 46 274 C86 263 106 260 132 260 C220 260 292 323 292 401 C292 455 261 487 203 493 C243 522 259 548 259 584 C259 635 215 672 154 672 C114 672 82 659 53 629 C49 612 47 605 46 596 C44 587 42 577 39 568 L37 556 L61 556 C63 562 65 568 65 570 C74 596 80 606 89 612 C103 620 120 625 138 625 C180 625 204 602 204 561 C204 518 176 490 133 490 C126 490 126 490 106 491 L102 458 L108 453 C131 461 144 464 160 464 C203 464 229 434 229 385 C229 326 197 290 144 290 C118 290 93 300 79 316 C69 327 64 336 48 372 L27 362 Z M522 616 C532 636 539 649 550 667 C543 666 538 666 534 666 C527 666 520 667 507 669 C500 646 496 633 488 618 L206 53 C192 27 188 18 176 -2 C184 -1 191 -1 196 -1 C200 -1 206 -1 215 -2 C221 15 224 23 235 44 L522 616 Z M415 100 C446 103 484 104 540 104 L560 103 L569 103 C569 58 568 40 564 32 C562 25 556 24 497 21 L497 -3 C555 0 569 0 595 0 C618 0 633 0 689 -3 L689 22 C666 22 648 24 639 26 C628 28 627 31 626 70 L626 93 L626 103 C653 102 658 102 690 100 C688 111 687 120 687 125 C687 130 688 138 689 149 C658 145 653 145 626 145 C625 195 625 223 625 241 C625 292 625 322 627 399 L618 404 L573 387 C484 248 462 214 409 121 L415 100 Z M569 145 C549 144 535 144 518 144 C487 144 484 144 456 145 C482 189 502 224 513 241 C548 296 567 327 570 332 L569 145 Z " />
<glyph glyph-name="questiondown" unicode="¿" horiz-adv-x="414" d="M344 -81 C338 -90 334 -98 332 -103 C315 -134 315 -135 301 -155 C277 -168 259 -173 237 -173 C175 -173 126 -126 126 -66 C126 -21 143 10 211 88 C257 142 272 170 272 203 C272 241 251 273 215 291 L195 276 C221 252 230 237 230 216 C230 189 211 158 174 122 C103 54 103 54 86 34 C59 1 44 -42 44 -83 C44 -170 119 -237 216 -237 C259 -237 292 -227 331 -202 C345 -160 356 -127 370 -84 L344 -81 Z M228 453 C198 453 173 429 173 399 C173 369 197 344 227 344 C258 344 282 369 282 399 C282 428 257 453 228 453 L228 453 Z " />
<glyph glyph-name="Agrave" unicode="À" horiz-adv-x="714" d="M348 675 L124 144 C101 88 78 43 72 41 C62 32 50 29 10 28 L10 -3 C66 -1 85 0 116 0 C149 0 165 0 230 -4 L230 29 L213 30 C159 33 148 37 148 55 C148 64 151 75 159 93 L212 223 C254 224 316 224 382 224 C434 224 443 224 474 223 L528 86 C538 62 539 58 539 49 C539 32 525 29 457 28 L457 -4 C535 -1 561 0 582 0 C605 0 629 -1 704 -4 L704 28 C648 31 646 33 613 111 L375 675 L348 675 Z M341 548 L458 262 C437 261 396 261 326 261 C257 261 255 261 228 262 L341 548 Z M392 741 L267 870 C246 892 234 899 220 899 C202 899 189 887 189 870 C189 854 201 842 243 817 L370 741 L392 741 Z " />
<glyph glyph-name="Aacute" unicode="Á" horiz-adv-x="714" d="M348 675 L124 144 C101 88 78 43 72 41 C62 32 50 29 10 28 L10 -3 C66 -1 85 0 116 0 C149 0 165 0 230 -4 L230 29 L213 30 C159 33 148 37 148 55 C148 64 151 75 159 93 L212 223 C254 224 316 224 382 224 C434 224 443 224 474 223 L528 86 C538 62 539 58 539 49 C539 32 525 29 457 28 L457 -4 C535 -1 561 0 582 0 C605 0 629 -1 704 -4 L704 28 C648 31 646 33 613 111 L375 675 L348 675 Z M341 548 L458 262 C437 261 396 261 326 261 C257 261 255 261 228 262 L341 548 Z M353 741 L480 818 C511 837 525 853 525 871 C525 888 514 900 500 900 C488 900 484 897 462 876 L452 866 L323 741 L353 741 Z " />
<glyph glyph-name="Acircumflex" unicode="Â" horiz-adv-x="714" d="M348 675 L124 144 C101 88 78 43 72 41 C62 32 50 29 10 28 L10 -3 C66 -1 85 0 116 0 C149 0 165 0 230 -4 L230 29 L213 30 C159 33 148 37 148 55 C148 64 151 75 159 93 L212 223 C254 224 316 224 382 224 C434 224 443 224 474 223 L528 86 C538 62 539 58 539 49 C539 32 525 29 457 28 L457 -4 C535 -1 561 0 582 0 C605 0 629 -1 704 -4 L704 28 C648 31 646 33 613 111 L375 675 L348 675 Z M341 548 L458 262 C437 261 396 261 326 261 C257 261 255 261 228 262 L341 548 Z M219 740 L248 740 L362 843 L478 740 L495 740 L386 903 L341 903 L219 740 Z " />
<glyph glyph-name="Atilde" unicode="Ã" horiz-adv-x="714" d="M348 675 L124 144 C101 88 78 43 72 41 C62 32 50 29 10 28 L10 -3 C66 -1 85 0 116 0 C149 0 165 0 230 -4 L230 29 L213 30 C159 33 148 37 148 55 C148 64 151 75 159 93 L212 223 C254 224 316 224 382 224 C434 224 443 224 474 223 L528 86 C538 62 539 58 539 49 C539 32 525 29 457 28 L457 -4 C535 -1 561 0 582 0 C605 0 629 -1 704 -4 L704 28 C648 31 646 33 613 111 L375 675 L348 675 Z M341 548 L458 262 C437 261 396 261 326 261 C257 261 255 261 228 262 L341 548 Z M213 771 C226 801 243 815 269 815 C283 815 300 811 321 802 C385 776 399 772 427 772 C475 772 510 807 526 869 L502 869 C488 835 470 821 444 821 C428 821 415 825 377 842 C334 861 316 866 290 866 C241 866 205 833 188 771 L213 771 Z " />
<glyph glyph-name="Adieresis" unicode="Ä" horiz-adv-x="714" d="M348 675 L124 144 C101 88 78 43 72 41 C62 32 50 29 10 28 L10 -3 C66 -1 85 0 116 0 C149 0 165 0 230 -4 L230 29 L213 30 C159 33 148 37 148 55 C148 64 151 75 159 93 L212 223 C254 224 316 224 382 224 C434 224 443 224 474 223 L528 86 C538 62 539 58 539 49 C539 32 525 29 457 28 L457 -4 C535 -1 561 0 582 0 C605 0 629 -1 704 -4 L704 28 C648 31 646 33 613 111 L375 675 L348 675 Z M341 548 L458 262 C437 261 396 261 326 261 C257 261 255 261 228 262 L341 548 Z M260 869 C233 869 211 847 211 820 C211 793 233 771 259 771 C287 771 309 793 309 820 C309 847 287 869 260 869 L260 869 Z M454 869 C427 869 405 847 405 820 C405 793 427 771 453 771 C481 771 503 793 503 820 C503 847 481 869 454 869 L454 869 Z " />
<glyph glyph-name="Aring" unicode="Å" horiz-adv-x="714" d="M348 675 L124 144 C101 88 78 43 72 41 C62 32 50 29 10 28 L10 -3 C66 -1 85 0 116 0 C149 0 165 0 230 -4 L230 29 L213 30 C159 33 148 37 148 55 C148 64 151 75 159 93 L212 223 C254 224 316 224 382 224 C434 224 443 224 474 223 L528 86 C538 62 539 58 539 49 C539 32 525 29 457 28 L457 -4 C535 -1 561 0 582 0 C605 0 629 -1 704 -4 L704 28 C648 31 646 33 613 111 L375 675 L348 675 Z M341 548 L458 262 C437 261 396 261 326 261 C257 261 255 261 228 262 L341 548 Z M357 925 C296 925 257 888 257 831 C257 773 295 736 356 736 C419 736 457 772 457 831 C457 889 418 925 357 925 L357 925 Z M357 906 C396 906 420 877 420 831 C420 783 396 755 356 755 C318 755 294 784 294 831 C294 877 318 906 357 906 L357 906 Z " />
<glyph glyph-name="AE" unicode="Æ" horiz-adv-x="885" d="M0 -5 C47 -1 77 0 117 0 C157 0 180 -1 216 -5 L216 28 C204 29 173 32 162 34 C141 37 133 43 133 56 C133 66 138 80 151 105 L217 236 C280 238 298 238 345 238 C384 238 408 238 445 236 C443 127 442 67 442 58 C442 42 424 28 395 20 L395 -5 C428 -2 499 0 543 0 C563 0 582 0 616 -1 C759 -3 759 -3 775 -3 C793 -3 812 -2 842 -1 C843 67 845 97 853 161 L821 161 C818 145 815 131 814 126 C798 42 797 41 710 41 C654 41 600 42 548 43 L528 43 C529 117 530 210 530 321 C643 320 673 319 704 314 C735 310 737 302 738 228 L769 228 C768 265 767 290 767 324 C767 374 768 403 771 449 L740 449 L739 434 C734 377 734 376 728 371 C718 364 673 360 592 360 C590 360 569 360 530 361 C529 415 529 425 529 453 C529 472 530 529 531 625 C583 626 589 626 611 626 C697 626 749 619 760 606 C766 598 768 577 768 519 L801 519 C800 547 800 553 800 559 C800 595 802 620 806 657 L799 667 C734 666 698 665 641 665 C536 665 457 666 275 672 L275 643 C369 639 375 638 375 623 C375 615 371 605 359 584 C347 563 333 539 333 538 L120 146 C75 64 72 59 60 46 C45 31 37 28 9 25 L0 25 L0 -5 Z M442 636 C443 622 443 620 443 588 L445 276 C429 277 412 277 408 277 C388 277 374 277 338 276 L283 276 L237 276 L381 548 C403 590 414 610 430 636 L442 636 Z " />
<glyph glyph-name="Ccedilla" unicode="Ç" horiz-adv-x="675" d="M623 499 C626 568 630 597 646 644 C575 668 498 681 422 681 C193 681 43 543 43 334 C43 131 183 -9 396 -20 L363 -92 L371 -98 C383 -94 389 -93 400 -93 C431 -93 449 -107 449 -131 C449 -161 424 -180 383 -180 C360 -180 339 -177 311 -170 L295 -196 C339 -207 364 -210 394 -210 C466 -210 515 -176 515 -126 C515 -88 484 -62 438 -62 C429 -62 422 -63 408 -66 L428 -20 C501 -18 570 0 636 37 C643 57 644 61 652 82 L643 91 C588 51 530 33 452 33 C269 33 146 161 146 353 C146 430 167 497 208 549 C256 611 323 640 415 640 C481 640 544 622 576 595 C588 585 590 577 591 550 L593 499 L623 499 Z " />
<glyph glyph-name="Egrave" unicode="È" horiz-adv-x="572" d="M37 -5 C124 -1 180 1 203 1 C240 1 318 0 372 -1 C411 -2 438 -2 449 -2 C483 -2 499 -1 529 2 C529 51 531 76 539 161 L509 161 C505 147 503 134 502 129 C489 61 486 53 469 48 C453 43 415 41 356 41 C277 41 243 42 208 43 L208 321 L223 321 C342 321 391 318 404 312 C420 304 422 295 424 229 L456 229 C454 272 453 300 453 336 C453 376 454 405 457 449 L425 449 C424 438 424 428 423 425 C421 389 419 378 413 373 C406 366 395 364 346 363 L284 361 L225 360 L208 359 C207 435 207 451 207 472 C207 473 207 523 208 624 C240 625 261 626 293 626 C393 626 439 621 450 609 C457 601 458 591 461 520 L493 520 C493 601 494 629 497 657 L489 668 L408 668 C271 666 224 665 190 665 C149 665 128 666 23 669 L23 637 L43 636 C89 636 105 629 110 610 C115 590 118 521 118 409 C118 232 115 71 112 55 C108 32 95 26 51 25 L37 25 L37 -5 Z M320 741 L195 870 C174 892 163 899 148 899 C131 899 118 887 118 870 C118 854 131 841 171 817 L299 741 L320 741 Z " />
<glyph glyph-name="Eacute" unicode="É" horiz-adv-x="572" d="M37 -5 C124 -1 180 1 203 1 C240 1 318 0 372 -1 C411 -2 438 -2 449 -2 C483 -2 499 -1 529 2 C529 51 531 76 539 161 L509 161 C505 147 503 134 502 129 C489 61 486 53 469 48 C453 43 415 41 356 41 C277 41 243 42 208 43 L208 321 L223 321 C342 321 391 318 404 312 C420 304 422 295 424 229 L456 229 C454 272 453 300 453 336 C453 376 454 405 457 449 L425 449 C424 438 424 428 423 425 C421 389 419 378 413 373 C406 366 395 364 346 363 L284 361 L225 360 L208 359 C207 435 207 451 207 472 C207 473 207 523 208 624 C240 625 261 626 293 626 C393 626 439 621 450 609 C457 601 458 591 461 520 L493 520 C493 601 494 629 497 657 L489 668 L408 668 C271 666 224 665 190 665 C149 665 128 666 23 669 L23 637 L43 636 C89 636 105 629 110 610 C115 590 118 521 118 409 C118 232 115 71 112 55 C108 32 95 26 51 25 L37 25 L37 -5 Z M282 741 L408 818 C441 837 454 853 454 871 C454 888 443 900 428 900 C416 900 416 900 380 866 L251 741 L282 741 Z " />
<glyph glyph-name="Ecircumflex" unicode="Ê" horiz-adv-x="572" d="M37 -5 C124 -1 180 1 203 1 C240 1 318 0 372 -1 C411 -2 438 -2 449 -2 C483 -2 499 -1 529 2 C529 51 531 76 539 161 L509 161 C505 147 503 134 502 129 C489 61 486 53 469 48 C453 43 415 41 356 41 C277 41 243 42 208 43 L208 321 L223 321 C342 321 391 318 404 312 C420 304 422 295 424 229 L456 229 C454 272 453 300 453 336 C453 376 454 405 457 449 L425 449 C424 438 424 428 423 425 C421 389 419 378 413 373 C406 366 395 364 346 363 L284 361 L225 360 L208 359 C207 435 207 451 207 472 C207 473 207 523 208 624 C240 625 261 626 293 626 C393 626 439 621 450 609 C457 601 458 591 461 520 L493 520 C493 601 494 629 497 657 L489 668 L408 668 C271 666 224 665 190 665 C149 665 128 666 23 669 L23 637 L43 636 C89 636 105 629 110 610 C115 590 118 521 118 409 C118 232 115 71 112 55 C108 32 95 26 51 25 L37 25 L37 -5 Z M147 740 L177 740 L291 843 L406 740 L424 740 L314 903 L269 903 L147 740 Z " />
<glyph glyph-name="Edieresis" unicode="Ë" horiz-adv-x="572" d="M37 -5 C124 -1 180 1 203 1 C240 1 318 0 372 -1 C411 -2 438 -2 449 -2 C483 -2 499 -1 529 2 C529 51 531 76 539 161 L509 161 C505 147 503 134 502 129 C489 61 486 53 469 48 C453 43 415 41 356 41 C277 41 243 42 208 43 L208 321 L223 321 C342 321 391 318 404 312 C420 304 422 295 424 229 L456 229 C454 272 453 300 453 336 C453 376 454 405 457 449 L425 449 C424 438 424 428 423 425 C421 389 419 378 413 373 C406 366 395 364 346 363 L284 361 L225 360 L208 359 C207 435 207 451 207 472 C207 473 207 523 208 624 C240 625 261 626 293 626 C393 626 439 621 450 609 C457 601 458 591 461 520 L493 520 C493 601 494 629 497 657 L489 668 L408 668 C271 666 224 665 190 665 C149 665 128 666 23 669 L23 637 L43 636 C89 636 105 629 110 610 C115 590 118 521 118 409 C118 232 115 71 112 55 C108 32 95 26 51 25 L37 25 L37 -5 Z M188 869 C161 869 139 847 139 820 C139 793 161 771 187 771 C215 771 237 793 237 820 C237 847 215 869 188 869 L188 869 Z M383 869 C356 869 334 847 334 820 C334 793 356 771 382 771 C410 771 432 793 432 820 C432 847 410 869 383 869 L383 869 Z " />
<glyph glyph-name="Igrave" unicode="Ì" horiz-adv-x="313" d="M25 -3 C79 -1 110 0 157 0 C202 0 229 -1 290 -3 L290 26 L277 27 C237 29 222 32 216 40 C206 54 203 105 203 241 C203 467 205 606 209 620 C213 635 221 637 289 639 L289 669 C246 667 220 666 167 666 C104 666 74 667 24 669 L24 638 L43 638 C101 638 109 632 110 596 C115 469 115 469 115 402 C115 168 113 72 106 51 C101 32 91 28 41 26 L25 26 L25 -3 Z M191 741 L67 870 C45 892 34 899 20 899 C2 899 -11 887 -11 870 C-11 854 1 842 42 817 L170 741 L191 741 Z " />
<glyph glyph-name="Iacute" unicode="Í" horiz-adv-x="313" d="M25 -3 C79 -1 109 0 157 0 C202 0 229 -1 290 -3 L290 26 L277 27 C237 29 222 32 216 40 C206 54 203 105 203 241 C203 467 205 606 209 620 C213 635 221 637 289 639 L289 669 C246 667 219 666 167 666 C104 666 74 667 24 669 L24 638 L43 638 C101 638 109 633 110 596 C115 469 115 469 115 402 C115 168 113 72 106 51 C101 32 91 28 41 26 L25 26 L25 -3 Z M153 741 L280 818 C312 837 325 853 325 871 C325 888 314 900 299 900 C287 900 287 900 251 866 L122 741 L153 741 Z " />
<glyph glyph-name="Icircumflex" unicode="Î" horiz-adv-x="313" d="M25 -3 C79 -1 110 0 157 0 C203 0 229 -1 290 -3 L290 26 L277 27 C237 29 222 32 216 40 C206 54 203 104 203 241 C203 467 205 606 209 620 C213 635 221 637 290 639 L290 669 C246 667 220 666 167 666 C104 666 74 667 24 669 L24 638 L43 638 C101 638 109 633 110 596 C115 469 115 469 115 402 C115 168 113 73 106 51 C101 32 91 28 41 26 L25 26 L25 -3 Z M19 740 L48 740 L162 843 L278 740 L295 740 L186 903 L140 903 L19 740 Z " />
<glyph glyph-name="Idieresis" unicode="Ï" horiz-adv-x="313" d="M25 -3 C79 -1 109 0 157 0 C202 0 229 -1 290 -3 L290 26 L277 27 C237 29 222 32 216 40 C206 54 203 105 203 241 C203 467 205 606 209 620 C213 635 221 637 289 639 L289 669 C246 667 219 666 167 666 C104 666 74 667 24 669 L24 638 L43 638 C101 638 109 633 110 596 C115 469 115 469 115 402 C115 168 113 72 106 51 C101 32 91 28 41 26 L25 26 L25 -3 Z M83 869 C56 869 34 847 34 820 C34 793 56 771 82 771 C110 771 132 793 132 820 C132 847 110 869 83 869 L83 869 Z M231 869 C204 869 182 847 182 820 C182 793 204 771 230 771 C258 771 280 793 280 820 C280 847 258 869 231 869 L231 869 Z " />
<glyph glyph-name="Eth" unicode="Ð" horiz-adv-x="742" d="M65 -5 C120 0 138 1 165 1 C178 1 188 1 201 0 C288 -4 288 -4 308 -4 C379 -4 435 5 480 23 C614 78 699 211 699 366 C699 482 649 576 560 627 C507 657 446 671 365 671 C352 671 333 670 312 669 C224 665 220 665 166 665 C129 665 129 665 30 670 L30 639 C75 636 88 632 99 623 C113 608 115 590 115 459 L115 361 C66 361 22 362 -1 363 L-1 328 C24 329 40 329 115 329 L115 304 C115 291 115 267 114 234 L113 154 L113 81 C112 70 111 60 109 55 C105 43 98 37 75 24 C74 23 69 20 65 18 L65 -5 Z M205 329 C268 329 272 329 305 328 L336 328 L336 332 L336 345 L336 358 L336 364 C309 362 288 362 267 362 L205 362 C205 544 205 555 206 619 C254 625 285 628 318 628 C501 628 597 531 597 346 C597 245 569 165 514 109 C467 61 405 39 312 39 C278 39 251 41 206 47 L206 83 L205 199 L205 329 Z " />
<glyph glyph-name="Ntilde" unicode="Ñ" horiz-adv-x="773" d="M20 -4 C67 -1 98 0 144 0 C182 0 205 -1 239 -3 L239 28 C200 29 181 33 169 42 C152 55 150 77 149 335 C148 465 148 499 147 567 L616 -4 L641 -9 C650 -10 658 -12 667 -14 L671 -3 C668 108 668 130 668 271 C668 596 668 600 682 619 C694 634 712 639 755 641 L755 671 C697 667 673 666 648 666 C644 666 607 667 536 669 L536 638 C619 636 627 626 627 519 C627 507 628 453 630 368 L631 116 C391 400 287 528 181 669 C151 667 137 666 110 666 C76 666 54 667 20 669 L20 640 C31 639 41 638 45 638 C72 637 81 633 98 614 C109 602 111 598 111 589 C111 568 111 549 110 522 L109 340 C110 125 106 59 92 42 C83 30 61 25 20 25 L20 -4 Z M242 771 C254 801 272 815 297 815 C312 815 329 811 350 802 C414 776 428 772 455 772 C504 772 539 807 555 869 L531 869 C516 835 499 821 472 821 C456 821 444 825 406 842 C363 861 345 866 319 866 C270 866 234 833 217 771 L242 771 Z " />
<glyph glyph-name="Ograve" unicode="Ò" horiz-adv-x="780" d="M402 681 C304 681 213 650 149 595 C83 539 43 442 43 337 C43 238 69 153 119 93 C177 22 272 -20 376 -20 C580 -20 736 142 736 354 C736 553 606 681 402 681 L402 681 Z M383 643 C537 643 636 518 636 323 C636 134 548 23 397 23 C301 23 235 63 189 150 C156 213 139 286 139 368 C139 447 160 520 195 562 C236 612 309 643 383 643 L383 643 Z M444 741 L319 870 C298 892 287 899 272 899 C255 899 242 887 242 870 C242 854 255 841 295 817 L422 741 L444 741 Z " />
<glyph glyph-name="Oacute" unicode="Ó" horiz-adv-x="780" d="M402 681 C304 681 213 650 149 595 C83 539 43 442 43 337 C43 238 69 153 119 93 C177 22 272 -20 376 -20 C580 -20 736 142 736 354 C736 553 606 681 402 681 L402 681 Z M383 643 C537 643 636 518 636 323 C636 134 548 23 397 23 C301 23 235 63 189 150 C156 213 139 286 139 368 C139 447 160 520 195 562 C236 612 309 643 383 643 L383 643 Z M366 741 L492 818 C523 836 537 853 537 871 C537 888 526 900 512 900 C500 900 495 897 474 876 C471 872 467 869 464 866 L335 741 L366 741 Z " />
<glyph glyph-name="Ocircumflex" unicode="Ô" horiz-adv-x="780" d="M402 681 C304 681 213 650 149 595 C83 539 43 442 43 337 C43 238 69 153 119 93 C177 22 272 -20 376 -20 C580 -20 736 142 736 354 C736 553 606 681 402 681 L402 681 Z M383 643 C537 643 636 518 636 323 C636 134 548 23 397 23 C301 23 235 63 189 150 C156 213 139 286 139 368 C139 447 160 520 195 562 C236 612 309 643 383 643 L383 643 Z M251 740 L281 740 L394 843 L510 740 L528 740 L418 903 L373 903 L251 740 Z " />
<glyph glyph-name="Otilde" unicode="Õ" horiz-adv-x="780" d="M402 681 C304 681 213 650 149 595 C83 539 43 442 43 337 C43 238 69 153 119 93 C177 22 272 -20 376 -20 C580 -20 736 142 736 354 C736 553 606 681 402 681 L402 681 Z M383 643 C537 643 636 518 636 323 C636 134 548 23 397 23 C301 23 235 63 189 150 C156 213 139 286 139 368 C139 447 160 520 195 562 C236 612 309 643 383 643 L383 643 Z M245 771 C258 801 276 815 301 815 C315 815 332 811 354 802 C418 776 431 772 459 772 C507 772 543 807 559 869 L534 869 C520 835 503 821 476 821 C460 821 447 825 409 842 C366 861 348 866 323 866 C273 866 237 833 220 771 L245 771 Z " />
<glyph glyph-name="Odieresis" unicode="Ö" horiz-adv-x="780" d="M402 681 C304 681 213 650 149 595 C83 539 43 442 43 337 C43 238 69 153 119 93 C177 22 272 -20 376 -20 C580 -20 736 142 736 354 C736 553 606 681 402 681 L402 681 Z M383 643 C537 643 636 518 636 323 C636 134 548 23 397 23 C301 23 235 63 189 150 C156 213 139 286 139 368 C139 447 160 520 195 562 C236 612 309 643 383 643 L383 643 Z M292 869 C265 869 243 847 243 820 C243 793 265 771 291 771 C319 771 341 793 341 820 C341 847 319 869 292 869 L292 869 Z M487 869 C460 869 438 847 438 820 C438 793 460 771 486 771 C514 771 536 793 536 820 C536 847 514 869 487 869 L487 869 Z " />
<glyph glyph-name="multiply" unicode="×" horiz-adv-x="509" d="M60 179 L102 137 L255 290 L408 137 L450 179 L297 332 L450 485 L408 527 L255 374 L102 527 L60 485 L213 332 L60 179 Z " />
<glyph glyph-name="Oslash" unicode="Ø" horiz-adv-x="780" d="M687 699 C672 679 664 670 618 616 C558 659 486 681 401 681 C304 681 211 650 149 595 C81 536 43 442 43 332 C43 224 77 132 140 70 L132 61 C112 40 93 19 73 -1 C71 -3 65 -10 57 -20 L91 -51 L103 -36 C143 16 156 32 169 45 C232 1 297 -20 375 -20 C580 -20 736 141 736 354 C736 451 707 528 649 589 C666 609 684 628 723 667 L687 699 Z M590 522 C622 463 636 401 636 323 C636 133 548 23 395 23 C319 23 268 46 221 102 C225 106 228 109 231 113 C292 183 353 253 414 324 L590 522 Z M198 136 C159 202 139 279 139 365 C139 447 159 519 195 562 C236 612 309 643 383 643 C459 643 523 613 567 557 C561 551 556 545 551 539 C497 477 444 415 391 354 L198 136 Z " />
<glyph glyph-name="Ugrave" unicode="Ù" horiz-adv-x="721" d="M18 640 C64 638 78 635 89 626 C104 614 105 603 105 366 L104 208 C104 137 113 97 135 66 C173 15 253 -15 352 -15 C445 -15 520 11 564 58 C602 98 615 145 616 245 C617 334 618 404 619 455 C619 542 622 576 630 605 C640 631 654 638 709 640 L709 670 C671 667 652 666 617 666 C584 666 553 667 485 671 L485 640 C540 638 558 633 567 616 C578 596 578 596 578 340 C578 209 575 173 561 135 C538 72 477 39 384 39 C340 39 299 47 269 63 C222 87 200 120 194 174 C191 201 191 206 191 347 C191 478 193 594 196 607 C200 632 209 636 264 639 L279 640 L279 670 C225 666 194 665 157 665 C119 665 92 666 18 671 L18 640 Z M415 741 L290 870 C269 892 257 899 243 899 C225 899 212 887 212 870 C212 854 224 842 266 817 L393 741 L415 741 Z " />
<glyph glyph-name="Uacute" unicode="Ú" horiz-adv-x="721" d="M18 640 C64 638 78 635 89 626 C104 614 105 603 105 366 L104 208 C104 137 113 97 135 66 C173 15 253 -15 352 -15 C445 -15 520 11 564 58 C602 98 615 145 616 245 C617 334 618 404 619 455 C619 542 622 576 630 605 C640 631 654 638 709 640 L709 670 C671 667 652 666 617 666 C584 666 553 667 485 671 L485 640 C540 638 558 633 567 616 C578 596 578 596 578 340 C578 209 575 173 561 135 C538 72 477 39 384 39 C340 39 299 47 269 63 C222 87 200 120 194 174 C191 201 191 206 191 347 C191 478 193 594 196 607 C200 632 209 636 264 639 L279 640 L279 670 C225 666 194 665 157 665 C119 665 92 666 18 671 L18 640 Z M376 741 L503 818 C534 837 548 853 548 871 C548 888 537 900 523 900 C511 900 507 897 485 876 L475 866 L346 741 L376 741 Z " />
<glyph glyph-name="Ucircumflex" unicode="Û" horiz-adv-x="721" d="M18 640 C64 638 78 635 89 626 C104 614 105 603 105 366 L104 208 C104 137 113 97 135 66 C173 15 253 -15 352 -15 C445 -15 520 11 564 58 C602 98 615 145 616 245 C617 334 618 404 619 455 C619 542 622 576 630 605 C640 631 654 638 709 640 L709 670 C671 667 652 666 617 666 C584 666 553 667 485 671 L485 640 C540 638 558 633 567 616 C578 596 578 596 578 340 C578 209 575 173 561 135 C538 72 477 39 384 39 C340 39 299 47 269 63 C222 87 200 120 194 174 C191 201 191 206 191 347 C191 478 193 594 196 607 C200 632 209 636 264 639 L279 640 L279 670 C225 666 194 665 157 665 C119 665 92 666 18 671 L18 640 Z M242 740 L271 740 L385 843 L501 740 L518 740 L409 903 L364 903 L242 740 Z " />
<glyph glyph-name="Udieresis" unicode="Ü" horiz-adv-x="721" d="M18 640 C64 638 78 635 89 626 C104 614 105 603 105 366 L104 208 C104 137 113 97 135 66 C173 15 253 -15 352 -15 C445 -15 520 11 564 58 C602 98 615 145 616 245 C617 334 618 404 619 455 C619 542 622 576 630 605 C640 631 654 638 709 640 L709 670 C671 667 652 666 617 666 C584 666 553 667 485 671 L485 640 C540 638 558 633 567 616 C578 596 578 596 578 340 C578 209 575 173 561 135 C538 72 477 39 384 39 C340 39 299 47 269 63 C222 87 200 120 194 174 C191 201 191 206 191 347 C191 478 193 594 196 607 C200 632 209 636 264 639 L279 640 L279 670 C225 666 194 665 157 665 C119 665 92 666 18 671 L18 640 Z M283 869 C256 869 234 847 234 820 C234 793 256 771 282 771 C310 771 332 793 332 820 C332 847 310 869 283 869 L283 869 Z M477 869 C450 869 428 847 428 820 C428 793 450 771 476 771 C504 771 526 793 526 820 C526 847 504 869 477 869 L477 869 Z " />
<glyph glyph-name="Yacute" unicode="Ý" horiz-adv-x="623" d="M535 670 C479 566 452 517 435 488 C377 383 360 354 347 324 C212 580 170 647 125 677 C106 672 63 663 5 653 L5 626 C69 629 108 583 250 333 C261 312 273 291 275 288 C282 277 282 276 282 263 C282 259 282 245 283 225 L283 199 C283 107 281 67 276 51 C271 32 264 30 200 27 L187 26 L187 -4 C267 -1 315 0 361 0 C398 0 419 0 459 -2 L459 27 C418 29 386 34 380 40 C372 49 369 100 369 234 C369 288 375 304 434 404 C488 496 565 611 603 657 L603 670 L535 670 Z M308 741 L434 818 C467 837 480 853 480 871 C480 888 469 900 454 900 C442 900 442 900 406 866 L277 741 L308 741 Z " />
<glyph glyph-name="Thorn" unicode="Þ" horiz-adv-x="572" d="M24 -3 C81 -1 116 0 168 0 C217 0 248 -1 296 -3 L296 27 C228 29 219 32 213 47 C204 81 204 88 205 528 C243 538 269 542 302 542 C400 542 459 490 459 404 C459 312 406 254 322 254 C302 254 287 256 262 263 L258 258 C263 245 263 243 265 229 C293 223 310 221 332 221 C457 221 557 312 557 426 C557 525 484 579 351 579 C337 579 309 578 283 577 C247 576 234 575 205 575 C206 600 206 607 207 613 C211 635 216 637 275 640 L289 640 L289 670 C239 668 207 667 163 667 C121 667 93 668 23 670 L23 638 L41 638 C101 635 113 628 115 589 C117 556 118 443 118 339 C118 161 116 68 111 51 C105 31 96 28 39 26 L24 26 L24 -3 Z " />
<glyph glyph-name="germandbls" unicode="ß" horiz-adv-x="550" d="M42 371 L102 371 C101 212 100 108 97 60 C94 35 81 29 33 28 L33 -3 C72 -1 93 0 147 0 C194 0 214 -1 248 -3 L248 17 C273 -2 297 -9 331 -9 C370 -9 392 1 433 37 C483 82 500 112 500 154 C500 187 490 213 469 235 C453 251 443 257 376 291 C329 315 313 332 313 358 C313 387 336 410 365 410 C385 410 401 401 413 384 L420 385 C435 414 438 418 459 443 C469 484 473 520 473 556 C473 646 416 703 327 703 C270 703 219 674 155 606 C110 557 102 534 102 448 L102 421 L42 389 L42 371 Z M268 122 C265 89 261 68 247 30 C180 32 180 32 180 130 L180 454 C180 514 184 554 194 583 C212 635 251 665 302 665 C372 665 419 606 419 517 C419 496 418 480 413 450 L407 450 C378 450 353 444 334 432 C293 407 264 356 264 311 C264 270 285 245 346 214 C418 178 439 156 439 118 C439 72 402 33 360 33 C321 33 293 62 293 103 C293 109 293 115 294 122 L268 122 Z " />
<glyph glyph-name="agrave" unicode="à" horiz-adv-x="468" d="M98 318 L124 383 C152 398 171 403 199 403 C240 403 273 387 291 357 C302 338 307 317 308 277 C285 272 285 272 247 265 C154 245 149 244 117 232 C67 212 37 165 37 104 C37 30 81 -15 152 -15 C177 -15 199 -8 219 5 C232 14 250 29 311 77 L309 -4 C350 0 366 1 381 1 C397 1 408 0 452 -3 L452 27 C391 30 391 30 391 79 L387 285 C386 348 379 379 358 404 C332 435 285 454 234 454 C196 454 172 447 133 425 L82 395 L72 390 L72 324 L98 318 Z M310 124 C278 72 235 44 190 44 C148 44 120 75 120 122 C120 154 133 183 155 199 C176 215 184 217 280 243 C284 244 296 248 309 251 L310 124 Z M289 521 L166 648 C142 672 132 679 118 679 C100 679 87 667 87 650 C87 634 100 621 140 597 L267 521 L289 521 Z " />
<glyph glyph-name="aacute" unicode="á" horiz-adv-x="468" d="M98 318 L124 383 C152 398 171 403 199 403 C240 403 273 387 291 357 C302 338 307 317 308 277 C285 272 285 272 247 265 C154 245 149 244 117 232 C67 212 37 165 37 104 C37 30 81 -15 152 -15 C177 -15 199 -8 219 5 C232 14 250 29 311 77 L309 -4 C350 0 366 1 381 1 C397 1 408 0 452 -3 L452 27 C391 30 391 30 391 79 L387 285 C386 348 379 379 358 404 C332 435 285 454 234 454 C196 454 172 447 133 425 L82 395 L72 390 L72 324 L98 318 Z M310 124 C278 72 235 44 190 44 C148 44 120 75 120 122 C120 154 133 183 155 199 C176 215 184 217 280 243 C284 244 296 248 309 251 L310 124 Z M211 521 L338 598 C369 617 382 633 382 651 C382 667 371 680 358 680 C347 680 337 674 319 656 C316 653 313 649 309 646 L180 521 L211 521 Z " />
<glyph glyph-name="acircumflex" unicode="â" horiz-adv-x="468" d="M98 318 L124 383 C152 398 171 403 199 403 C240 403 273 387 291 357 C302 338 307 317 308 277 C285 272 285 272 247 265 C154 245 149 244 117 232 C67 212 37 165 37 104 C37 30 81 -15 152 -15 C177 -15 199 -8 219 5 C232 14 250 29 311 77 L309 -4 C350 0 366 1 381 1 C397 1 408 0 452 -3 L452 27 C391 30 391 30 391 79 L387 285 C386 348 379 379 358 404 C332 435 285 454 234 454 C196 454 172 447 133 425 L82 395 L72 390 L72 324 L98 318 Z M310 124 C278 72 235 44 190 44 C148 44 120 75 120 122 C120 154 133 183 155 199 C176 215 184 217 280 243 C284 244 296 248 309 251 L310 124 Z M96 521 L126 521 L239 623 L355 521 L373 521 L263 683 L218 683 L96 521 Z " />
<glyph glyph-name="atilde" unicode="ã" horiz-adv-x="468" d="M98 318 L124 383 C152 398 171 403 199 403 C240 403 273 387 291 357 C302 338 307 317 308 277 C285 272 285 272 247 265 C154 245 149 244 117 232 C67 212 37 165 37 104 C37 30 81 -15 152 -15 C177 -15 199 -8 219 5 C232 14 250 29 311 77 L309 -4 C350 0 366 1 381 1 C397 1 408 0 452 -3 L452 27 C391 30 391 30 391 79 L387 285 C386 348 379 379 358 404 C332 435 285 454 234 454 C196 454 172 447 133 425 L82 395 L72 390 L72 324 L98 318 Z M310 124 C278 72 235 44 190 44 C148 44 120 75 120 122 C120 154 133 183 155 199 C176 215 184 217 280 243 C284 244 296 248 309 251 L310 124 Z M90 558 C103 587 121 601 146 601 C160 601 177 597 199 588 C263 562 276 558 304 558 C352 558 388 593 404 656 L379 656 C365 622 348 607 321 607 C305 607 292 611 254 628 C212 647 193 652 168 652 C118 652 82 619 65 558 L90 558 Z " />
<glyph glyph-name="adieresis" unicode="ä" horiz-adv-x="468" d="M98 318 L124 383 C152 398 171 403 199 403 C240 403 273 387 291 357 C302 338 307 317 308 277 C285 272 285 272 247 265 C154 245 149 244 117 232 C67 212 37 165 37 104 C37 30 81 -15 152 -15 C177 -15 199 -8 219 5 C232 14 250 29 311 77 L309 -4 C350 0 366 1 381 1 C397 1 408 0 452 -3 L452 27 C391 30 391 30 391 79 L387 285 C386 348 379 379 358 404 C332 435 285 454 234 454 C196 454 172 447 133 425 L82 395 L72 390 L72 324 L98 318 Z M310 124 C278 72 235 44 190 44 C148 44 120 75 120 122 C120 154 133 183 155 199 C176 215 184 217 280 243 C284 244 296 248 309 251 L310 124 Z M137 649 C110 649 88 627 88 600 C88 573 110 551 136 551 C164 551 186 573 186 600 C186 627 164 649 137 649 L137 649 Z M332 649 C305 649 283 627 283 600 C283 573 305 551 331 551 C359 551 381 573 381 600 C381 627 359 649 332 649 L332 649 Z " />
<glyph glyph-name="aring" unicode="å" horiz-adv-x="468" d="M98 318 L124 383 C152 398 171 403 199 403 C240 403 273 387 291 357 C302 338 307 317 308 277 C285 272 285 272 247 265 C154 245 149 244 117 232 C67 212 37 165 37 104 C37 30 81 -15 152 -15 C177 -15 199 -8 219 5 C232 14 250 29 311 77 L309 -4 C350 0 366 1 381 1 C397 1 408 0 452 -3 L452 27 C391 30 391 30 391 79 L387 285 C386 348 379 379 358 404 C332 435 285 454 234 454 C196 454 172 447 133 425 L82 395 L72 390 L72 324 L98 318 Z M310 124 C278 72 235 44 190 44 C148 44 120 75 120 122 C120 154 133 183 155 199 C176 215 184 217 280 243 C284 244 296 248 309 251 L310 124 Z M235 705 C173 705 134 669 134 611 C134 553 173 516 233 516 C297 516 335 552 335 611 C335 669 296 705 235 705 L235 705 Z M234 686 C274 686 298 657 298 611 C298 563 274 535 233 535 C195 535 171 564 171 611 C171 657 195 686 234 686 L234 686 Z " />
<glyph glyph-name="ae" unicode="æ" horiz-adv-x="727" d="M96 312 L123 380 C156 395 174 400 201 400 C274 400 306 358 308 258 C183 249 180 248 141 238 C76 220 37 170 37 103 C37 32 85 -15 158 -15 C192 -15 212 -10 227 3 C271 39 280 46 329 85 C374 16 427 -15 501 -15 C558 -15 607 1 658 35 L679 71 L669 80 C625 49 587 36 543 36 C490 36 445 60 415 103 C395 133 387 164 384 225 L586 228 C624 229 626 229 670 238 L688 242 C690 260 691 277 691 288 C691 388 621 454 516 454 C455 454 417 437 367 386 C330 436 295 454 234 454 C196 454 177 450 159 437 C135 421 105 404 69 386 C69 353 69 349 70 316 L96 312 Z M310 116 C310 115 309 114 307 112 C306 111 301 105 293 96 C268 66 232 48 197 48 C151 48 120 78 120 125 C120 167 143 196 188 209 C210 215 247 221 310 227 L310 116 Z M384 261 C384 367 423 423 498 423 C566 423 605 371 605 282 C605 278 605 270 604 261 L384 261 Z " />
<glyph glyph-name="ccedilla" unicode="ç" horiz-adv-x="435" d="M384 302 C386 360 390 392 399 427 C361 447 330 454 284 454 C247 454 222 448 191 432 C148 410 104 382 88 365 C58 334 37 271 37 207 C37 73 113 -11 241 -16 L211 -82 L219 -88 C230 -84 236 -83 245 -83 C273 -83 290 -97 290 -120 C290 -149 267 -167 230 -167 C209 -167 189 -164 165 -156 L150 -181 C190 -192 212 -195 240 -195 C305 -195 350 -162 350 -115 C350 -79 321 -54 280 -54 C272 -54 266 -55 253 -57 L271 -15 C309 -11 346 0 379 18 L399 50 L388 61 C356 43 320 34 283 34 C189 34 123 122 123 248 C123 350 166 405 246 405 C277 405 307 397 331 382 C347 372 352 363 354 339 C354 333 356 319 357 302 L384 302 Z " />
<glyph glyph-name="egrave" unicode="è" horiz-adv-x="469" d="M412 78 C370 49 331 35 287 35 C229 35 179 64 152 112 C136 142 128 176 127 225 L261 225 C353 225 395 229 431 240 C432 253 433 264 433 269 C433 382 365 454 259 454 C207 454 159 436 112 398 C62 358 37 297 37 212 C37 77 120 -15 243 -15 C300 -15 358 1 405 30 L421 71 L412 78 Z M128 262 C130 309 134 334 143 357 C161 399 195 423 240 423 C310 423 348 371 348 277 C348 275 348 268 347 260 C316 258 301 257 268 257 C215 257 172 259 128 262 L128 262 Z M296 521 L173 648 C150 672 139 679 124 679 C106 679 93 667 93 650 C93 634 105 622 147 597 L274 521 L296 521 Z " />
<glyph glyph-name="eacute" unicode="é" horiz-adv-x="469" d="M412 78 C370 49 331 35 287 35 C229 35 179 64 152 112 C136 142 128 176 127 225 L261 225 C353 225 395 229 431 240 C432 253 433 264 433 269 C433 382 365 454 259 454 C207 454 159 436 112 398 C62 358 37 297 37 212 C37 77 120 -15 243 -15 C300 -15 358 1 405 30 L421 71 L412 78 Z M128 262 C130 309 134 334 143 357 C161 399 195 423 240 423 C310 423 348 371 348 277 C348 275 348 268 347 260 C316 258 301 257 268 257 C215 257 172 259 128 262 L128 262 Z M218 521 L345 598 C376 617 389 633 389 651 C389 667 378 680 365 680 C354 680 344 674 326 656 C323 653 319 648 316 646 L187 521 L218 521 Z " />
<glyph glyph-name="ecircumflex" unicode="ê" horiz-adv-x="469" d="M412 78 C370 49 331 35 287 35 C229 35 179 64 152 112 C136 142 128 176 127 225 L261 225 C353 225 395 229 431 240 C432 253 433 264 433 269 C433 382 365 454 259 454 C207 454 159 436 112 398 C62 358 37 297 37 212 C37 77 120 -15 243 -15 C300 -15 358 1 405 30 L421 71 L412 78 Z M128 262 C130 309 134 334 143 357 C161 399 195 423 240 423 C310 423 348 371 348 277 C348 275 348 268 347 260 C316 258 301 257 268 257 C215 257 172 259 128 262 L128 262 Z M103 521 L133 521 L246 623 L362 521 L380 521 L270 683 L225 683 L103 521 Z " />
<glyph glyph-name="edieresis" unicode="ë" horiz-adv-x="469" d="M412 78 C370 49 331 35 287 35 C229 35 179 64 152 112 C136 142 128 176 127 225 L261 225 C353 225 395 229 431 240 C432 253 433 264 433 269 C433 382 365 454 259 454 C207 454 159 436 112 398 C62 358 37 297 37 212 C37 77 120 -15 243 -15 C300 -15 358 1 405 30 L421 71 L412 78 Z M128 262 C130 309 134 334 143 357 C161 399 195 423 240 423 C310 423 348 371 348 277 C348 275 348 268 347 260 C316 258 301 257 268 257 C215 257 172 259 128 262 L128 262 Z M144 649 C117 649 95 627 95 600 C95 573 117 551 143 551 C171 551 193 573 193 600 C193 627 171 649 144 649 L144 649 Z M339 649 C312 649 290 627 290 600 C290 573 312 551 338 551 C366 551 388 573 388 600 C388 627 366 649 339 649 L339 649 Z " />
<glyph glyph-name="igrave" unicode="ì" horiz-adv-x="268" d="M24 388 C31 387 38 387 38 387 C86 385 89 385 93 379 C99 371 101 336 101 268 C101 134 99 63 96 47 C92 31 85 28 39 26 L24 25 L24 -2 C86 0 107 1 138 1 C172 1 192 0 254 -3 L254 26 L238 27 C202 29 191 33 187 47 C182 62 181 90 181 203 C181 307 182 366 185 448 L177 456 C134 437 96 427 24 415 L24 388 Z M171 521 L49 648 C25 672 14 679 0 679 C-18 679 -31 667 -31 650 C-31 634 -19 622 22 597 L150 521 L171 521 Z " />
<glyph glyph-name="iacute" unicode="í" horiz-adv-x="268" d="M25 388 C32 387 36 387 39 387 C87 385 90 385 94 379 C100 371 102 336 102 268 C102 134 100 64 97 47 C93 31 86 28 40 26 L25 25 L25 -2 C87 0 107 1 139 1 C173 1 193 0 255 -3 L255 26 L239 27 C203 29 192 33 188 47 C183 62 182 89 182 203 C182 310 183 367 186 448 L178 456 C135 437 97 427 25 415 L25 388 Z M134 521 L261 598 C293 618 306 633 306 651 C306 667 295 680 282 680 C271 680 261 674 243 656 C239 652 236 649 232 646 L103 521 L134 521 Z " />
<glyph glyph-name="icircumflex" unicode="î" horiz-adv-x="268" d="M25 388 C31 387 38 387 38 387 C86 385 89 385 93 379 C99 371 101 336 101 268 C101 134 99 63 96 47 C92 31 85 28 39 26 L25 25 L25 -2 C86 0 107 1 138 1 C172 1 193 0 254 -3 L254 26 L239 27 C202 29 191 33 187 47 C182 62 181 90 181 203 C181 309 182 367 186 448 L177 456 C135 437 97 427 25 415 L25 388 Z M-1 521 L28 521 L142 623 L258 521 L275 521 L166 683 L120 683 L-1 521 Z " />
<glyph glyph-name="idieresis" unicode="ï" horiz-adv-x="268" d="M25 388 C32 387 36 387 39 387 C87 385 90 385 94 379 C100 371 102 337 102 268 C102 135 100 64 97 47 C93 31 86 28 40 26 L25 25 L25 -2 C87 0 107 1 139 1 C173 1 193 0 255 -3 L255 26 L239 27 C203 29 192 33 188 47 C183 62 182 90 182 203 C182 306 183 365 186 448 L178 456 C135 437 97 427 25 415 L25 388 Z M64 649 C37 649 15 627 15 600 C15 573 37 551 63 551 C91 551 113 573 113 600 C113 627 91 649 64 649 L64 649 Z M212 649 C185 649 163 627 163 600 C163 573 185 551 211 551 C239 551 261 573 261 600 C261 627 239 649 212 649 L212 649 Z " />
<glyph glyph-name="eth" unicode="ð" horiz-adv-x="518" d="M96 701 C135 669 164 641 198 604 C172 599 169 598 145 593 L94 583 L85 581 L103 551 C130 557 139 558 162 563 C191 569 211 573 221 575 C241 553 279 501 315 448 C293 453 282 454 262 454 C122 454 30 356 30 204 C30 67 110 -15 244 -15 C383 -15 478 91 478 246 C478 330 452 408 403 469 C377 501 351 529 291 589 L393 609 L376 638 C345 631 292 621 265 617 L248 633 C198 680 196 682 153 718 C135 715 133 714 98 709 L96 701 Z M260 423 C343 423 386 357 386 228 C386 97 336 17 253 17 C170 17 122 94 122 225 C122 348 174 423 260 423 L260 423 Z " />
<glyph glyph-name="ntilde" unicode="ñ" horiz-adv-x="576" d="M23 387 C50 388 51 388 54 388 C79 388 88 386 92 381 C98 373 101 324 101 229 C101 117 100 73 97 51 C95 34 88 28 67 27 L34 24 L23 23 L23 -4 C87 -1 104 0 137 0 C151 0 158 0 260 -3 L260 24 C182 26 182 26 181 85 L180 278 C180 314 186 332 204 351 C228 377 261 391 300 391 C343 391 380 373 396 343 C409 320 412 296 412 232 C412 152 409 70 404 -3 C436 0 453 1 479 1 C501 1 520 0 562 -3 L562 24 C558 25 554 25 552 25 C515 29 513 29 505 35 C495 42 493 54 493 121 C493 135 493 165 494 200 C495 227 495 257 495 267 C495 341 485 380 459 409 C433 437 389 454 343 454 C315 454 271 444 261 434 L183 367 L183 395 C183 409 184 422 186 447 L176 454 C128 433 85 422 23 415 L23 387 Z M143 558 C156 587 174 601 199 601 C213 601 230 597 252 588 C316 562 329 558 357 558 C405 558 441 593 457 656 L432 656 C418 622 401 607 374 607 C358 607 345 611 307 628 C265 647 246 652 221 652 C171 652 135 619 118 558 L143 558 Z " />
<glyph glyph-name="ograve" unicode="ò" horiz-adv-x="518" d="M271 454 C133 454 37 358 37 222 C37 75 118 -15 249 -15 C388 -15 482 85 482 233 C482 374 406 454 271 454 L271 454 Z M252 424 C299 424 337 401 358 360 C381 318 394 256 394 196 C394 85 349 19 273 19 C221 19 179 50 155 106 C136 150 125 203 125 253 C125 361 172 424 252 424 L252 424 Z M314 521 L191 648 C167 672 157 679 143 679 C125 679 112 667 112 650 C112 634 125 621 165 597 L292 521 L314 521 Z " />
<glyph glyph-name="oacute" unicode="ó" horiz-adv-x="518" d="M271 454 C133 454 37 358 37 222 C37 75 118 -15 249 -15 C388 -15 482 85 482 233 C482 374 406 454 271 454 L271 454 Z M252 424 C299 424 337 401 358 360 C381 318 394 256 394 196 C394 85 349 19 273 19 C221 19 179 50 155 106 C136 150 125 203 125 253 C125 361 172 424 252 424 L252 424 Z M236 521 L363 598 C394 617 407 633 407 651 C407 667 396 680 383 680 C372 680 362 674 344 656 C341 652 338 649 334 646 L205 521 L236 521 Z " />
<glyph glyph-name="ocircumflex" unicode="ô" horiz-adv-x="518" d="M271 454 C133 454 37 358 37 222 C37 75 118 -15 249 -15 C388 -15 482 85 482 233 C482 374 406 454 271 454 L271 454 Z M252 424 C299 424 337 401 358 360 C381 318 394 256 394 196 C394 85 349 19 273 19 C221 19 179 50 155 106 C136 150 125 203 125 253 C125 361 172 424 252 424 L252 424 Z M121 521 L151 521 L264 623 L380 521 L398 521 L288 683 L243 683 L121 521 Z " />
<glyph glyph-name="otilde" unicode="õ" horiz-adv-x="518" d="M271 454 C133 454 37 358 37 222 C37 75 118 -15 249 -15 C388 -15 482 85 482 233 C482 374 406 454 271 454 L271 454 Z M252 424 C299 424 337 401 358 360 C381 318 394 256 394 196 C394 85 349 19 273 19 C221 19 179 50 155 106 C136 150 125 203 125 253 C125 361 172 424 252 424 L252 424 Z M115 558 C128 587 146 601 171 601 C185 601 202 597 224 588 C288 562 301 558 329 558 C377 558 413 593 429 656 L404 656 C390 622 373 607 346 607 C330 607 317 611 279 628 C237 647 218 652 193 652 C143 652 107 619 90 558 L115 558 Z " />
<glyph glyph-name="odieresis" unicode="ö" horiz-adv-x="518" d="M271 454 C133 454 37 358 37 222 C37 75 118 -15 249 -15 C388 -15 482 85 482 233 C482 374 406 454 271 454 L271 454 Z M252 424 C299 424 337 401 358 360 C381 318 394 256 394 196 C394 85 349 19 273 19 C221 19 179 50 155 106 C136 150 125 203 125 253 C125 361 172 424 252 424 L252 424 Z M162 649 C135 649 113 627 113 600 C113 573 135 551 161 551 C189 551 211 573 211 600 C211 627 189 649 162 649 L162 649 Z M357 649 C330 649 308 627 308 600 C308 573 330 551 356 551 C384 551 406 573 406 600 C406 627 384 649 357 649 L357 649 Z " />
<glyph glyph-name="divide" unicode="÷" horiz-adv-x="509" d="M255 562 C230 562 209 542 209 516 C209 492 230 471 255 471 C279 471 300 492 300 516 C300 541 279 562 255 562 L255 562 Z M255 194 C230 194 209 174 209 148 C209 124 230 103 254 103 C279 103 300 124 300 149 C300 173 279 194 255 194 L255 194 Z M38 361 L38 302 L471 302 L471 361 L38 361 Z " />
<glyph glyph-name="oslash" unicode="ø" horiz-adv-x="520" d="M451 481 C431 458 424 449 400 420 C363 443 321 454 271 454 C132 454 37 358 37 219 C37 155 55 98 89 53 C57 19 45 7 27 -11 L61 -41 C88 -7 101 8 116 26 C153 -2 197 -15 249 -15 C389 -15 483 85 483 233 C483 303 466 355 430 395 C449 417 458 426 483 453 L451 481 Z M355 366 C252 242 184 159 150 120 C134 159 125 208 125 252 C125 360 171 423 252 423 C297 423 331 404 355 366 L355 366 Z M178 96 C265 202 310 256 311 257 L372 329 C387 287 395 242 395 196 C395 84 350 18 273 18 C228 18 197 37 167 84 L178 96 Z " />
<glyph glyph-name="ugrave" unicode="ù" horiz-adv-x="550" d="M537 25 L526 26 C462 29 461 31 461 115 C461 204 465 369 468 449 L459 456 C420 437 384 428 302 418 L302 390 C321 391 335 391 338 391 C363 391 372 389 376 384 C382 376 384 344 384 265 C384 145 383 137 367 113 C338 71 303 50 258 50 C191 50 169 83 169 185 C169 267 173 388 177 447 L168 455 C128 435 79 423 13 418 L13 390 L31 390 C63 389 73 388 80 384 C87 379 88 374 88 328 C88 303 88 275 86 203 C85 180 85 152 85 140 C85 84 93 53 114 30 C136 5 173 -9 217 -9 C255 -9 294 2 310 18 L385 90 C383 48 383 41 380 -3 C411 -1 427 0 452 0 C462 0 462 0 537 -2 L537 25 Z M309 521 L187 648 C163 672 152 679 138 679 C120 679 107 667 107 650 C107 634 119 622 161 597 L288 521 L309 521 Z " />
<glyph glyph-name="uacute" unicode="ú" horiz-adv-x="550" d="M537 25 L526 26 C462 29 461 31 461 115 C461 204 465 369 468 449 L459 456 C420 437 384 428 302 418 L302 390 C321 391 335 391 338 391 C363 391 372 389 376 384 C382 376 384 344 384 265 C384 145 383 137 367 113 C338 71 303 50 258 50 C191 50 169 83 169 185 C169 267 173 388 177 447 L168 455 C128 435 79 423 13 418 L13 390 L31 390 C63 389 73 388 80 384 C87 379 88 374 88 328 C88 303 88 275 86 203 C85 180 85 152 85 140 C85 84 93 53 114 30 C136 5 173 -9 217 -9 C255 -9 294 2 310 18 L385 90 C383 48 383 41 380 -3 C411 -1 427 0 452 0 C462 0 462 0 537 -2 L537 25 Z M271 521 L398 598 C430 617 443 633 443 651 C443 667 432 680 419 680 C406 680 400 676 369 646 L240 521 L271 521 Z " />
<glyph glyph-name="ucircumflex" unicode="û" horiz-adv-x="550" d="M537 25 L526 26 C462 29 461 31 461 115 C461 204 465 369 468 449 L459 456 C420 437 384 428 302 418 L302 390 C321 391 335 391 338 391 C363 391 372 389 376 384 C382 376 384 344 384 265 C384 145 383 137 367 113 C338 71 303 50 258 50 C191 50 169 83 169 185 C169 267 173 388 177 447 L168 455 C128 435 79 423 13 418 L13 390 L31 390 C63 389 73 388 80 384 C87 379 88 374 88 328 C88 303 88 275 86 203 C85 180 85 152 85 140 C85 84 93 53 114 30 C136 5 173 -9 217 -9 C255 -9 294 2 310 18 L385 90 C383 48 383 41 380 -3 C411 -1 427 0 452 0 C462 0 462 0 537 -2 L537 25 Z M137 521 L166 521 L280 623 L396 521 L413 521 L304 683 L258 683 L137 521 Z " />
<glyph glyph-name="udieresis" unicode="ü" horiz-adv-x="550" d="M537 25 L526 26 C462 29 461 31 461 115 C461 204 465 369 468 449 L459 456 C420 437 384 428 302 418 L302 390 C321 391 335 391 338 391 C363 391 372 389 376 384 C382 376 384 344 384 265 C384 145 383 137 367 113 C338 71 303 50 258 50 C191 50 169 83 169 185 C169 267 173 388 177 447 L168 455 C128 435 79 423 13 418 L13 390 L31 390 C63 389 73 388 80 384 C87 379 88 374 88 328 C88 303 88 275 86 203 C85 180 85 152 85 140 C85 84 93 53 114 30 C136 5 173 -9 217 -9 C255 -9 294 2 310 18 L385 90 C383 48 383 41 380 -3 C411 -1 427 0 452 0 C462 0 462 0 537 -2 L537 25 Z M178 649 C151 649 129 627 129 600 C129 573 151 551 177 551 C205 551 227 573 227 600 C227 627 205 649 178 649 L178 649 Z M372 649 C345 649 323 627 323 600 C323 573 345 551 371 551 C399 551 421 573 421 600 C421 627 399 649 372 649 L372 649 Z " />
<glyph glyph-name="yacute" unicode="ý" horiz-adv-x="484" d="M22 -174 C14 -210 13 -216 2 -254 C35 -268 52 -272 73 -272 C106 -272 143 -250 164 -216 C182 -189 203 -145 233 -75 L370 254 C433 400 441 411 491 415 L491 442 C456 440 435 439 408 439 C385 439 366 439 313 441 L313 415 L324 414 C361 411 373 404 373 384 C373 370 358 323 337 269 L262 77 L192 254 C178 294 168 320 163 334 C147 378 147 378 147 389 C147 401 152 408 165 411 C172 412 172 412 216 416 L216 443 C142 440 114 439 89 439 C54 439 33 440 -7 443 L-7 414 C46 410 49 407 88 308 L223 -28 C177 -135 177 -135 162 -164 C144 -195 123 -209 95 -209 C70 -209 51 -198 36 -174 L22 -174 Z M238 521 L365 598 C397 618 410 633 410 651 C410 667 399 680 386 680 C375 680 365 674 347 656 C343 652 339 648 336 646 L207 521 L238 521 Z " />
<glyph glyph-name="thorn" unicode="þ" horiz-adv-x="552" d="M10 637 C23 638 32 638 37 638 C71 638 79 635 83 621 C89 599 89 599 89 -150 C89 -233 88 -234 9 -235 L9 -263 C82 -260 107 -259 145 -259 C177 -259 203 -260 246 -262 L246 -238 C196 -235 187 -232 178 -223 C170 -213 169 -194 169 -13 L169 18 C197 -1 225 -9 258 -9 C286 -9 306 -3 339 16 C396 48 443 82 462 104 C494 141 516 207 516 267 C516 379 446 454 341 454 C293 454 264 445 242 425 L169 358 L171 696 L159 703 C116 683 63 670 10 666 L10 637 Z M169 297 C169 342 235 393 294 393 C377 393 433 326 433 225 C433 118 372 42 286 42 C242 42 210 57 169 99 L169 297 Z " />
<glyph glyph-name="ydieresis" unicode="ÿ" horiz-adv-x="484" d="M22 -174 C14 -210 13 -216 2 -254 C35 -268 52 -272 73 -272 C106 -272 143 -250 164 -216 C182 -189 203 -145 233 -75 L370 254 C433 400 441 411 491 415 L491 442 C456 440 435 439 408 439 C385 439 366 439 313 441 L313 415 L324 414 C361 411 373 404 373 384 C373 370 358 323 337 269 L262 77 L192 254 C178 294 168 320 163 334 C147 378 147 378 147 389 C147 401 152 408 165 411 C172 412 172 412 216 416 L216 443 C142 440 114 439 89 439 C54 439 33 440 -7 443 L-7 414 C46 410 49 407 88 308 L223 -28 C177 -135 177 -135 162 -164 C144 -195 123 -209 95 -209 C70 -209 51 -198 36 -174 L22 -174 Z M151 649 C124 649 102 627 102 600 C102 573 124 551 150 551 C178 551 200 573 200 600 C200 627 178 649 151 649 L151 649 Z M346 649 C319 649 297 627 297 600 C297 573 319 551 345 551 C373 551 395 573 395 600 C395 627 373 649 346 649 L346 649 Z " />
<glyph glyph-name="Amacron" unicode="Ā" horiz-adv-x="714" d="M348 675 L124 144 C101 88 78 43 72 41 C62 32 50 29 10 28 L10 -3 C66 -1 85 0 116 0 C149 0 165 0 230 -4 L230 29 L213 30 C159 33 148 37 148 55 C148 64 151 75 159 93 L212 223 C254 224 316 224 382 224 C434 224 443 224 474 223 L528 86 C538 62 539 58 539 49 C539 32 525 29 457 28 L457 -4 C535 -1 561 0 582 0 C605 0 629 -1 704 -4 L704 28 C648 31 646 33 613 111 L375 675 L348 675 Z M341 548 L458 262 C437 261 396 261 326 261 C257 261 255 261 228 262 L341 548 Z M236 799 L479 799 L479 843 L236 843 L236 799 Z " />
<glyph glyph-name="amacron" unicode="ā" horiz-adv-x="468" d="M98 318 L124 383 C152 398 171 403 199 403 C240 403 273 387 291 357 C302 338 307 317 308 277 C285 272 285 272 247 265 C154 245 149 244 117 232 C67 212 37 165 37 104 C37 30 81 -15 152 -15 C177 -15 199 -8 219 5 C232 14 250 29 311 77 L309 -4 C350 0 366 1 381 1 C397 1 408 0 452 -3 L452 27 C391 30 391 30 391 79 L387 285 C386 348 379 379 358 404 C332 435 285 454 234 454 C196 454 172 447 133 425 L82 395 L72 390 L72 324 L98 318 Z M310 124 C278 72 235 44 190 44 C148 44 120 75 120 122 C120 154 133 183 155 199 C176 215 184 217 280 243 C284 244 296 248 309 251 L310 124 Z M113 572 L356 572 L356 616 L113 616 L113 572 Z " />
<glyph glyph-name="Abreve" unicode="Ă" horiz-adv-x="714" d="M348 675 L124 144 C101 88 78 43 72 41 C62 32 50 29 10 28 L10 -3 C66 -1 85 0 116 0 C149 0 165 0 230 -4 L230 29 L213 30 C159 33 148 37 148 55 C148 64 151 75 159 93 L212 223 C254 224 316 224 382 224 C434 224 443 224 474 223 L528 86 C538 62 539 58 539 49 C539 32 525 29 457 28 L457 -4 C535 -1 561 0 582 0 C605 0 629 -1 704 -4 L704 28 C648 31 646 33 613 111 L375 675 L348 675 Z M341 548 L458 262 C437 261 396 261 326 261 C257 261 255 261 228 262 L341 548 Z M227 909 C232 814 278 760 356 760 C432 760 481 815 487 909 L463 909 C453 852 413 817 357 817 C299 817 263 848 252 909 L227 909 Z " />
<glyph glyph-name="abreve" unicode="ă" horiz-adv-x="468" d="M98 318 L124 383 C152 398 171 403 199 403 C240 403 273 387 291 357 C302 338 307 317 308 277 C285 272 285 272 247 265 C154 245 149 244 117 232 C67 212 37 165 37 104 C37 30 81 -15 152 -15 C177 -15 199 -8 219 5 C232 14 250 29 311 77 L309 -4 C350 0 366 1 381 1 C397 1 408 0 452 -3 L452 27 C391 30 391 30 391 79 L387 285 C386 348 379 379 358 404 C332 435 285 454 234 454 C196 454 172 447 133 425 L82 395 L72 390 L72 324 L98 318 Z M310 124 C278 72 235 44 190 44 C148 44 120 75 120 122 C120 154 133 183 155 199 C176 215 184 217 280 243 C284 244 296 248 309 251 L310 124 Z M104 683 C109 588 156 534 233 534 C309 534 358 589 365 683 L340 683 C330 626 290 591 235 591 C176 591 140 622 129 683 L104 683 Z " />
<glyph glyph-name="Aogonek" unicode="Ą" horiz-adv-x="714" d="M348 675 L124 144 C101 88 78 43 72 41 C62 32 50 29 10 28 L10 -3 C66 -1 85 0 116 0 C149 0 165 0 230 -4 L230 29 L213 30 C159 33 148 37 148 55 C148 64 151 75 159 93 L212 223 C254 224 316 224 382 224 C434 224 443 224 474 223 L528 86 C538 62 539 58 539 49 C539 32 525 29 457 28 L457 -4 C534 -1 561 0 582 0 L618 0 C562 -24 542 -46 542 -82 C542 -129 583 -157 652 -157 C674 -157 690 -155 719 -147 L707 -121 C690 -125 680 -126 668 -126 C626 -126 601 -108 601 -79 C601 -37 640 -7 704 0 L704 28 C648 31 646 33 613 111 L375 675 L348 675 Z M341 548 L458 262 C437 261 396 261 326 261 C257 261 255 261 228 262 L341 548 Z " />
<glyph glyph-name="aogonek" unicode="ą" horiz-adv-x="468" d="M98 318 L124 383 C152 398 171 403 199 403 C240 403 273 387 291 357 C302 338 307 317 308 277 C285 272 285 272 247 265 C154 245 149 244 117 232 C67 212 37 165 37 104 C37 30 81 -15 152 -15 C177 -15 199 -8 219 5 C232 14 250 29 311 77 L309 -4 C314 -3 319 -3 321 -3 C347 0 364 1 375 1 C377 1 381 1 387 0 C335 -21 313 -43 313 -78 C313 -122 352 -149 417 -149 C439 -149 454 -147 482 -140 L470 -115 C453 -118 445 -119 432 -119 C393 -119 369 -102 369 -74 C369 -40 399 -14 452 0 L452 27 C391 30 391 30 391 79 L387 285 C386 348 379 379 358 404 C332 435 285 454 234 454 C196 454 172 447 133 425 L82 395 L72 390 L72 324 L98 318 Z M310 124 C278 72 235 44 190 44 C148 44 120 75 120 122 C120 154 133 183 155 199 C176 215 184 217 280 243 C284 244 296 248 309 251 L310 124 Z " />
<glyph glyph-name="Cacute" unicode="Ć" horiz-adv-x="675" d="M623 499 C626 568 630 597 646 644 C575 668 498 681 422 681 C193 681 43 543 43 334 C43 227 82 134 154 71 C219 14 318 -20 418 -20 C495 -20 562 -3 636 37 C643 57 644 61 652 82 L643 91 C588 51 530 33 452 33 C269 33 146 161 146 353 C146 430 167 497 208 549 C256 611 323 640 415 640 C481 640 544 622 576 595 C588 585 590 577 591 550 L593 499 L623 499 Z M400 741 L527 818 C559 837 572 853 572 871 C572 888 561 900 546 900 C535 900 530 897 509 876 C505 872 502 869 498 866 L369 741 L400 741 Z " />
<glyph glyph-name="cacute" unicode="ć" horiz-adv-x="435" d="M384 302 C386 360 390 392 399 427 C362 447 330 454 284 454 C247 454 222 448 191 432 C148 410 104 382 88 365 C58 334 37 271 37 208 C37 72 119 -15 247 -15 C292 -15 335 -4 379 19 L399 50 L388 61 C356 43 320 34 283 34 C189 34 123 122 123 248 C123 350 166 405 246 405 C277 405 307 397 331 382 C347 372 352 364 354 339 C354 333 356 319 357 302 L384 302 Z M241 521 L368 598 C400 618 413 633 413 651 C413 667 402 680 389 680 C378 680 368 674 350 656 C346 652 343 649 339 646 L210 521 L241 521 Z " />
<glyph glyph-name="Ccircumflex" unicode="Ĉ" horiz-adv-x="675" d="M623 499 C626 568 630 597 646 644 C575 668 498 681 422 681 C193 681 43 543 43 334 C43 227 82 134 154 71 C219 14 318 -20 418 -20 C495 -20 562 -3 636 37 C643 57 644 61 652 82 L643 91 C588 51 530 33 452 33 C269 33 146 161 146 353 C146 430 167 497 208 549 C256 611 323 640 415 640 C481 640 544 622 576 595 C588 585 590 577 591 550 L593 499 L623 499 Z M266 740 L295 740 L409 843 L525 740 L542 740 L433 903 L387 903 L266 740 Z " />
<glyph glyph-name="Cdotaccent" unicode="Ċ" horiz-adv-x="675" d="M623 499 C626 568 630 597 646 644 C575 668 498 681 422 681 C193 681 43 543 43 334 C43 227 82 134 154 71 C219 14 318 -20 418 -20 C495 -20 562 -3 636 37 C643 57 644 61 652 82 L643 91 C588 51 530 33 452 33 C269 33 146 161 146 353 C146 430 167 497 208 549 C256 611 323 640 415 640 C481 640 544 622 576 595 C588 585 590 577 591 550 L593 499 L623 499 Z M418 869 C390 869 368 847 368 819 C368 792 391 769 417 769 C445 769 468 791 468 819 C468 846 446 869 418 869 L418 869 Z " />
<glyph glyph-name="cdotaccent" unicode="ċ" horiz-adv-x="435" d="M384 302 C386 360 390 392 399 427 C362 447 330 454 284 454 C247 454 222 448 191 432 C148 410 104 382 88 365 C58 334 37 271 37 208 C37 72 119 -15 247 -15 C292 -15 335 -4 379 19 L399 50 L388 61 C356 43 320 34 283 34 C189 34 123 122 123 248 C123 350 166 405 246 405 C277 405 307 397 331 382 C347 372 352 364 354 339 C354 333 356 319 357 302 L384 302 Z M266 649 C238 649 216 627 216 599 C216 572 239 549 265 549 C293 549 316 571 316 599 C316 626 294 649 266 649 L266 649 Z " />
<glyph glyph-name="Ccaron" unicode="Č" horiz-adv-x="675" d="M623 499 C626 568 630 597 646 644 C575 668 498 681 422 681 C193 681 43 543 43 334 C43 227 82 134 154 71 C219 14 318 -20 418 -20 C495 -20 562 -3 636 37 C643 57 644 61 652 82 L643 91 C588 51 530 33 452 33 C269 33 146 161 146 353 C146 430 167 497 208 549 C256 611 323 640 415 640 C481 640 544 622 576 595 C588 585 590 577 591 550 L593 499 L623 499 Z M555 913 L538 913 L424 810 L308 913 L279 913 L400 750 L446 750 L555 913 Z " />
<glyph glyph-name="ccaron" unicode="č" horiz-adv-x="435" d="M384 302 C386 360 390 392 399 427 C362 447 330 454 284 454 C247 454 222 448 191 432 C148 410 104 382 88 365 C58 334 37 271 37 208 C37 72 119 -15 247 -15 C292 -15 335 -4 379 19 L399 50 L388 61 C356 43 320 34 283 34 C189 34 123 122 123 248 C123 350 166 405 246 405 C277 405 307 397 331 382 C347 372 352 364 354 339 C354 333 356 319 357 302 L384 302 Z M403 693 L385 693 L272 590 L156 693 L127 693 L248 530 L293 530 L403 693 Z " />
<glyph glyph-name="Dcaron" unicode="Ď" horiz-adv-x="742" d="M65 -5 C121 0 138 1 165 1 C178 1 188 1 201 0 C288 -4 288 -4 308 -4 C379 -4 435 5 480 23 C614 77 699 211 699 366 C699 482 649 576 561 627 C508 657 446 671 365 671 C352 671 333 670 312 669 C224 665 220 665 167 665 C130 665 130 665 30 670 L30 639 C78 635 88 633 99 623 C114 608 116 576 116 337 C116 307 113 75 112 70 C110 48 104 40 75 24 C73 22 69 20 65 18 L65 -5 Z M207 47 C206 127 205 300 205 443 C205 518 205 542 207 619 C256 626 284 628 318 628 C501 628 597 531 597 346 C597 245 569 165 514 109 C467 61 405 39 312 39 C278 39 251 41 207 47 L207 47 Z M463 913 L445 913 L331 810 L216 913 L186 913 L308 750 L353 750 L463 913 Z " />
<glyph glyph-name="dcaron" unicode="ď" horiz-adv-x="651" d="M311 641 C320 640 328 640 331 640 C366 638 376 636 380 631 C386 622 387 606 387 492 C387 470 387 455 386 424 C341 446 311 454 280 454 C250 454 222 446 185 426 C145 404 105 379 93 367 C60 336 37 269 37 204 C37 78 113 -9 224 -9 C263 -9 287 -3 301 10 C322 30 336 43 343 49 C354 59 369 71 386 85 C385 44 384 37 382 -3 C415 -1 435 0 460 0 C479 0 492 0 544 -2 L544 24 C536 25 529 26 526 27 C485 31 476 36 472 54 C469 66 468 127 468 232 C468 434 472 631 477 695 L472 702 C435 685 371 672 311 668 L311 641 Z M386 207 C386 111 339 51 263 51 C180 51 123 126 123 234 C123 344 172 411 253 411 C300 411 337 393 386 343 L386 207 Z M520 474 L554 492 C606 560 641 622 668 693 L663 705 C635 694 620 689 581 680 C575 614 557 567 508 484 L520 474 Z " />
<glyph glyph-name="Dcroat" unicode="Đ" horiz-adv-x="742" d="M65 -5 C120 0 138 1 165 1 C178 1 188 1 201 0 C288 -4 288 -4 308 -4 C379 -4 435 5 480 23 C614 78 699 211 699 366 C699 482 649 576 560 627 C507 657 446 671 365 671 C352 671 333 670 312 669 C224 665 220 665 166 665 C129 665 129 665 30 670 L30 639 C75 636 88 632 99 623 C113 608 115 590 115 459 L115 361 C66 361 22 362 -1 363 L-1 328 C24 329 40 329 115 329 L115 304 C115 291 115 267 114 234 L113 154 L113 81 C112 70 111 60 109 55 C105 43 98 37 75 24 C74 23 69 20 65 18 L65 -5 Z M205 329 C268 329 272 329 305 328 L336 328 L336 332 L336 345 L336 358 L336 364 C309 362 288 362 267 362 L205 362 C205 544 205 555 206 619 C254 625 285 628 318 628 C501 628 597 531 597 346 C597 245 569 165 514 109 C467 61 405 39 312 39 C278 39 251 41 206 47 L206 83 L205 199 L205 329 Z " />
<glyph glyph-name="dcroat" unicode="đ" horiz-adv-x="556" d="M311 641 C320 640 328 640 331 640 C368 638 374 637 380 631 C385 622 386 618 386 571 L377 571 L333 570 C324 570 317 570 299 571 L283 571 C284 563 284 559 284 556 C284 553 284 551 283 538 C303 539 337 539 386 539 C386 526 386 517 387 513 L387 457 C387 453 387 439 386 424 C341 446 311 454 280 454 C250 454 222 446 185 426 C146 405 105 379 93 368 C60 336 37 270 37 205 C37 79 113 -8 223 -8 C263 -8 287 -2 301 11 C322 30 336 43 343 49 C357 61 371 72 386 85 C385 44 384 37 382 -3 C415 -1 435 0 460 0 C479 0 492 0 544 -2 L544 24 C536 25 529 26 526 27 C485 31 475 36 472 54 C469 66 468 117 468 212 C468 304 469 412 471 539 L507 539 C527 538 544 538 557 538 C556 550 556 551 556 555 C556 557 556 561 557 567 L557 571 L471 571 C473 641 474 659 477 696 L471 703 C435 686 372 673 311 669 L311 641 Z M386 207 C386 111 339 52 263 52 C180 52 123 127 123 235 C123 344 172 411 253 411 C300 411 337 393 386 343 L386 207 Z " />
<glyph glyph-name="Emacron" unicode="Ē" horiz-adv-x="572" d="M37 -5 C124 -1 180 1 203 1 C240 1 318 0 372 -1 C411 -2 438 -2 449 -2 C483 -2 499 -1 529 2 C529 51 531 76 539 161 L509 161 C505 147 503 134 502 129 C489 61 486 53 469 48 C453 43 415 41 356 41 C277 41 243 42 208 43 L208 321 L223 321 C342 321 391 318 404 312 C420 304 422 295 424 229 L456 229 C454 272 453 300 453 336 C453 376 454 405 457 449 L425 449 C424 438 424 428 423 425 C421 389 419 378 413 373 C406 366 395 364 346 363 L284 361 L225 360 L208 359 C207 435 207 451 207 472 C207 473 207 523 208 624 C240 625 261 626 293 626 C393 626 439 621 450 609 C457 601 458 591 461 520 L493 520 C493 601 494 629 497 657 L489 668 L408 668 C271 666 224 665 190 665 C149 665 128 666 23 669 L23 637 L43 636 C89 636 105 629 110 610 C115 590 118 521 118 409 C118 232 115 71 112 55 C108 32 95 26 51 25 L37 25 L37 -5 Z M164 799 L407 799 L407 843 L164 843 L164 799 Z " />
<glyph glyph-name="emacron" unicode="ē" horiz-adv-x="469" d="M412 78 C370 49 331 35 287 35 C229 35 179 64 152 112 C136 142 128 176 127 225 L261 225 C353 225 395 229 431 240 C432 253 433 264 433 269 C433 382 365 454 259 454 C207 454 159 436 112 398 C62 358 37 297 37 212 C37 77 120 -15 243 -15 C300 -15 358 1 405 30 L421 71 L412 78 Z M128 262 C130 309 134 334 143 357 C161 399 195 423 240 423 C310 423 348 371 348 277 C348 275 348 268 347 260 C316 258 301 257 268 257 C215 257 172 259 128 262 L128 262 Z M127 572 L369 572 L369 616 L127 616 L127 572 Z " />
<glyph glyph-name="Ebreve" unicode="Ĕ" horiz-adv-x="572" d="M37 -5 C124 -1 180 1 203 1 C240 1 318 0 372 -1 C411 -2 438 -2 449 -2 C483 -2 499 -1 529 2 C529 51 531 76 539 161 L509 161 C505 147 503 134 502 129 C489 61 486 53 469 48 C453 43 415 41 356 41 C277 41 243 42 208 43 L208 321 L223 321 C342 321 391 318 404 312 C420 304 422 295 424 229 L456 229 C454 272 453 300 453 336 C453 376 454 405 457 449 L425 449 C424 438 424 428 423 425 C421 389 419 378 413 373 C406 366 395 364 346 363 L284 361 L225 360 L208 359 C207 435 207 451 207 472 C207 473 207 523 208 624 C240 625 261 626 293 626 C393 626 439 621 450 609 C457 601 458 591 461 520 L493 520 C493 601 494 629 497 657 L489 668 L408 668 C271 666 224 665 190 665 C149 665 128 666 23 669 L23 637 L43 636 C89 636 105 629 110 610 C115 590 118 521 118 409 C118 232 115 71 112 55 C108 32 95 26 51 25 L37 25 L37 -5 Z M156 909 C160 814 207 760 284 760 C361 760 409 815 416 909 L391 909 C382 852 341 817 286 817 C227 817 192 848 181 909 L156 909 Z " />
<glyph glyph-name="ebreve" unicode="ĕ" horiz-adv-x="469" d="M412 78 C370 49 331 35 287 35 C229 35 179 64 152 112 C136 142 128 176 127 225 L261 225 C353 225 395 229 431 240 C432 253 433 264 433 269 C433 382 365 454 259 454 C207 454 159 436 112 398 C62 358 37 297 37 212 C37 77 120 -15 243 -15 C300 -15 358 1 405 30 L421 71 L412 78 Z M128 262 C130 309 134 334 143 357 C161 399 195 423 240 423 C310 423 348 371 348 277 C348 275 348 268 347 260 C316 258 301 257 268 257 C215 257 172 259 128 262 L128 262 Z M118 683 C122 588 169 534 247 534 C323 534 371 589 378 683 L353 683 C344 626 304 591 248 591 C190 591 154 622 143 683 L118 683 Z " />
<glyph glyph-name="Edotaccent" unicode="Ė" horiz-adv-x="572" d="M37 -5 C124 -1 180 1 203 1 C240 1 318 0 372 -1 C411 -2 438 -2 449 -2 C483 -2 499 -1 529 2 C529 51 531 76 539 161 L509 161 C505 147 503 134 502 129 C489 61 486 53 469 48 C453 43 415 41 356 41 C277 41 243 42 208 43 L208 321 L223 321 C342 321 391 318 404 312 C420 304 422 295 424 229 L456 229 C454 272 453 300 453 336 C453 376 454 405 457 449 L425 449 C424 438 424 428 423 425 C421 389 419 378 413 373 C406 366 395 364 346 363 L284 361 L225 360 L208 359 C207 435 207 451 207 472 C207 473 207 523 208 624 C240 625 261 626 293 626 C393 626 439 621 450 609 C457 601 458 591 461 520 L493 520 C493 601 494 629 497 657 L489 668 L408 668 C271 666 224 665 190 665 C149 665 128 666 23 669 L23 637 L43 636 C89 636 105 629 110 610 C115 590 118 521 118 409 C118 232 115 71 112 55 C108 32 95 26 51 25 L37 25 L37 -5 Z M286 869 C258 869 236 847 236 819 C236 792 259 769 285 769 C313 769 336 791 336 819 C336 846 314 869 286 869 L286 869 Z " />
<glyph glyph-name="edotaccent" unicode="ė" horiz-adv-x="469" d="M412 78 C370 49 331 35 287 35 C229 35 179 64 152 112 C136 142 128 176 127 225 L261 225 C353 225 395 229 431 240 C432 253 433 264 433 269 C433 382 365 454 259 454 C207 454 159 436 112 398 C62 358 37 297 37 212 C37 77 120 -15 243 -15 C300 -15 358 1 405 30 L421 71 L412 78 Z M128 262 C130 309 134 334 143 357 C161 399 195 423 240 423 C310 423 348 371 348 277 C348 275 348 268 347 260 C316 258 301 257 268 257 C215 257 172 259 128 262 L128 262 Z M249 649 C221 649 199 627 199 599 C199 572 222 549 248 549 C276 549 299 571 299 599 C299 626 277 649 249 649 L249 649 Z " />
<glyph glyph-name="Eogonek" unicode="Ę" horiz-adv-x="572" d="M37 -5 C124 -1 181 1 206 1 L449 -2 C397 -25 377 -47 377 -82 C377 -129 418 -157 487 -157 C509 -157 525 -155 554 -147 L542 -121 C525 -125 515 -126 503 -126 C460 -126 436 -108 436 -78 C436 -39 467 -13 529 2 C529 51 531 76 539 161 L509 161 C505 147 503 134 502 129 C489 61 486 53 469 48 C453 43 415 41 356 41 C277 41 243 42 208 43 L208 321 L223 321 C342 321 391 318 404 312 C420 304 422 295 424 229 L456 229 C454 272 453 300 453 336 C453 376 454 405 457 449 L425 449 C424 438 424 428 423 425 C421 389 419 378 413 373 C406 366 395 364 346 363 L284 361 L225 360 L208 359 C207 435 207 451 207 472 C207 473 207 523 208 624 C240 625 261 626 293 626 C393 626 439 621 450 609 C457 601 458 591 461 520 L493 520 C493 601 494 629 497 657 L489 668 L408 668 C271 666 224 665 190 665 C149 665 128 666 23 669 L23 637 L43 636 C89 636 105 629 110 610 C115 590 118 521 118 409 C118 232 115 71 112 55 C108 32 95 26 51 25 L37 25 L37 -5 Z " />
<glyph glyph-name="eogonek" unicode="ę" horiz-adv-x="469" d="M412 78 C370 49 331 35 287 35 C229 35 179 64 152 112 C136 142 128 176 127 225 L261 225 C353 225 395 229 431 240 C432 253 433 264 433 269 C433 382 365 454 259 454 C207 454 159 436 112 398 C62 358 37 297 37 212 C37 75 119 -15 246 -15 C216 -34 204 -52 204 -78 C204 -122 243 -149 308 -149 C330 -149 345 -147 373 -140 L361 -115 C344 -118 336 -119 323 -119 C284 -119 260 -102 260 -75 C260 -45 281 -23 324 -6 C380 16 383 17 405 30 L421 70 L412 78 Z M128 262 C130 309 134 334 143 357 C161 399 195 423 240 423 C310 423 348 371 348 277 C348 275 348 268 347 260 C316 258 301 257 268 257 C215 257 172 259 128 262 L128 262 Z " />
<glyph glyph-name="Ecaron" unicode="Ě" horiz-adv-x="572" d="M37 -5 C124 -1 180 1 203 1 C240 1 318 0 372 -1 C411 -2 438 -2 449 -2 C483 -2 499 -1 529 2 C529 51 531 76 539 161 L509 161 C505 147 503 134 502 129 C489 61 486 53 469 48 C453 43 415 41 356 41 C277 41 243 42 208 43 L208 321 L223 321 C342 321 391 318 404 312 C420 304 422 295 424 229 L456 229 C454 272 453 300 453 336 C453 376 454 405 457 449 L425 449 C424 438 424 428 423 425 C421 389 419 378 413 373 C406 366 395 364 346 363 L284 361 L225 360 L208 359 C207 435 207 451 207 472 C207 473 207 523 208 624 C240 625 261 626 293 626 C393 626 439 621 450 609 C457 601 458 591 461 520 L493 520 C493 601 494 629 497 657 L489 668 L408 668 C271 666 224 665 190 665 C149 665 128 666 23 669 L23 637 L43 636 C89 636 105 629 110 610 C115 590 118 521 118 409 C118 232 115 71 112 55 C108 32 95 26 51 25 L37 25 L37 -5 Z M424 913 L406 913 L293 810 L177 913 L147 913 L269 750 L314 750 L424 913 Z " />
<glyph glyph-name="ecaron" unicode="ě" horiz-adv-x="469" d="M412 78 C370 49 331 35 287 35 C229 35 179 64 152 112 C136 142 128 176 127 225 L261 225 C353 225 395 229 431 240 C432 253 433 264 433 269 C433 382 365 454 259 454 C207 454 159 436 112 398 C62 358 37 297 37 212 C37 77 120 -15 243 -15 C300 -15 358 1 405 30 L421 71 L412 78 Z M128 262 C130 309 134 334 143 357 C161 399 195 423 240 423 C310 423 348 371 348 277 C348 275 348 268 347 260 C316 258 301 257 268 257 C215 257 172 259 128 262 L128 262 Z M380 693 L362 693 L248 590 L132 693 L103 693 L225 530 L270 530 L380 693 Z " />
<glyph glyph-name="Gcircumflex" unicode="Ĝ" horiz-adv-x="766" d="M486 232 L550 226 C584 224 592 222 594 213 C595 207 596 167 596 130 C596 82 594 64 589 57 C577 41 488 22 428 22 C265 22 144 161 144 349 C144 526 256 642 427 642 C500 642 583 617 621 583 C636 571 637 564 637 516 C637 512 637 503 638 493 L666 493 C671 560 674 581 686 633 C610 665 526 681 432 681 C306 681 208 647 140 579 C78 517 43 426 43 326 C43 118 188 -20 408 -20 C496 -20 589 -1 686 36 C682 75 680 107 680 141 C680 212 682 219 711 234 L719 238 L716 262 C690 259 675 258 641 258 C590 258 548 260 486 264 L486 232 Z M291 740 L320 740 L434 843 L550 740 L567 740 L458 903 L413 903 L291 740 Z " />
<glyph glyph-name="gcircumflex" unicode="ĝ" horiz-adv-x="495" d="M499 371 C503 394 503 398 508 421 C475 418 437 417 398 417 C392 417 379 417 364 418 C331 443 296 454 250 454 C136 454 47 381 47 287 C47 217 83 174 157 154 C121 128 116 124 77 97 C73 84 72 78 72 68 C72 37 91 16 136 0 C94 -26 88 -29 42 -46 C28 -82 23 -100 23 -122 C23 -211 104 -271 223 -271 C369 -271 487 -177 487 -60 C487 16 439 60 357 58 C279 56 279 56 271 56 C188 56 155 68 155 96 C155 113 166 129 192 149 C204 148 213 148 218 148 C329 148 409 216 409 308 C409 333 405 349 394 373 L499 371 Z M226 422 C288 422 326 374 326 297 C326 225 288 179 227 179 C169 179 128 233 128 312 C128 379 166 422 226 422 L226 422 Z M237 -10 C295 -10 330 -13 355 -20 C388 -29 408 -56 408 -93 C408 -176 334 -240 238 -240 C152 -240 96 -190 96 -113 C96 -65 112 -43 171 -12 L237 -10 Z M109 521 L138 521 L252 623 L368 521 L385 521 L276 683 L230 683 L109 521 Z " />
<glyph glyph-name="Gbreve" unicode="Ğ" horiz-adv-x="766" d="M486 232 L550 226 C584 224 592 222 594 213 C595 207 596 167 596 130 C596 82 594 64 589 57 C577 41 488 22 428 22 C265 22 144 161 144 349 C144 526 256 642 427 642 C500 642 583 617 621 583 C636 571 637 564 637 516 C637 512 637 503 638 493 L666 493 C671 560 674 581 686 633 C610 665 526 681 432 681 C306 681 208 647 140 579 C78 517 43 426 43 326 C43 118 188 -20 408 -20 C496 -20 589 -1 686 36 C682 75 680 107 680 141 C680 212 682 219 711 234 L719 238 L716 262 C690 259 675 258 641 258 C590 258 548 260 486 264 L486 232 Z M299 909 C304 814 350 760 428 760 C504 760 553 815 559 909 L535 909 C525 852 485 817 429 817 C371 817 335 848 324 909 L299 909 Z " />
<glyph glyph-name="gbreve" unicode="ğ" horiz-adv-x="495" d="M499 371 C503 394 503 398 508 421 C475 418 437 417 398 417 C392 417 379 417 364 418 C331 443 296 454 250 454 C136 454 47 381 47 287 C47 217 83 174 157 154 C121 128 116 124 77 97 C73 84 72 78 72 68 C72 37 91 16 136 0 C94 -26 88 -29 42 -46 C28 -82 23 -100 23 -122 C23 -211 104 -271 223 -271 C369 -271 487 -177 487 -60 C487 16 439 60 357 58 C279 56 279 56 271 56 C188 56 155 68 155 96 C155 113 166 129 192 149 C204 148 213 148 218 148 C329 148 409 216 409 308 C409 333 405 349 394 373 L499 371 Z M226 422 C288 422 326 374 326 297 C326 225 288 179 227 179 C169 179 128 233 128 312 C128 379 166 422 226 422 L226 422 Z M237 -10 C295 -10 330 -13 355 -20 C388 -29 408 -56 408 -93 C408 -176 334 -240 238 -240 C152 -240 96 -190 96 -113 C96 -65 112 -43 171 -12 L237 -10 Z M117 683 C121 588 168 534 246 534 C322 534 371 589 377 683 L352 683 C343 626 303 591 247 591 C189 591 153 622 142 683 L117 683 Z " />
<glyph glyph-name="Gdotaccent" unicode="Ġ" horiz-adv-x="766" d="M486 232 L550 226 C584 224 592 222 594 213 C595 207 596 167 596 130 C596 82 594 64 589 57 C577 41 488 22 428 22 C265 22 144 161 144 349 C144 526 256 642 427 642 C500 642 583 617 621 583 C636 571 637 564 637 516 C637 512 637 503 638 493 L666 493 C671 560 674 581 686 633 C610 665 526 681 432 681 C306 681 208 647 140 579 C78 517 43 426 43 326 C43 118 188 -20 408 -20 C496 -20 589 -1 686 36 C682 75 680 107 680 141 C680 212 682 219 711 234 L719 238 L716 262 C690 259 675 258 641 258 C590 258 548 260 486 264 L486 232 Z M430 869 C402 869 380 847 380 819 C380 792 403 769 429 769 C457 769 480 791 480 819 C480 846 458 869 430 869 L430 869 Z " />
<glyph glyph-name="gdotaccent" unicode="ġ" horiz-adv-x="495" d="M499 371 C503 394 503 398 508 421 C475 418 437 417 398 417 C392 417 379 417 364 418 C331 443 296 454 250 454 C136 454 47 381 47 287 C47 217 83 174 157 154 C121 128 116 124 77 97 C73 84 72 78 72 68 C72 37 91 16 136 0 C94 -26 88 -29 42 -46 C28 -82 23 -100 23 -122 C23 -211 104 -271 223 -271 C369 -271 487 -177 487 -60 C487 16 439 60 357 58 C279 56 279 56 271 56 C188 56 155 68 155 96 C155 113 166 129 192 149 C204 148 213 148 218 148 C329 148 409 216 409 308 C409 333 405 349 394 373 L499 371 Z M226 422 C288 422 326 374 326 297 C326 225 288 179 227 179 C169 179 128 233 128 312 C128 379 166 422 226 422 L226 422 Z M237 -10 C295 -10 330 -13 355 -20 C388 -29 408 -56 408 -93 C408 -176 334 -240 238 -240 C152 -240 96 -190 96 -113 C96 -65 112 -43 171 -12 L237 -10 Z M248 649 C220 649 198 627 198 599 C198 572 221 549 247 549 C275 549 298 571 298 599 C298 626 276 649 248 649 L248 649 Z " />
<glyph glyph-name="Gcommaaccent" unicode="Ģ" horiz-adv-x="766" d="M486 232 L550 226 C584 224 592 222 594 213 C595 207 596 167 596 130 C596 82 594 64 589 57 C577 41 488 22 428 22 C265 22 144 161 144 349 C144 526 256 642 427 642 C500 642 583 617 621 583 C636 571 637 564 637 516 C637 512 637 503 638 493 L666 493 C671 560 674 581 686 633 C610 665 526 681 432 681 C306 681 208 647 140 579 C78 517 43 426 43 326 C43 118 188 -20 408 -20 C496 -20 589 -1 686 36 C682 75 680 107 680 141 C680 212 682 219 711 234 L719 238 L716 262 C690 259 675 258 641 258 C590 258 548 260 486 264 L486 232 Z M328 -284 C339 -278 350 -272 362 -267 C414 -198 449 -136 476 -66 L471 -53 C442 -65 428 -69 389 -79 C382 -144 365 -192 316 -275 L328 -284 Z " />
<glyph glyph-name="gcommaaccent" unicode="ģ" horiz-adv-x="495" d="M499 371 C503 394 503 398 508 421 C475 418 437 417 398 417 C392 417 379 417 364 418 C331 443 296 454 250 454 C136 454 47 381 47 287 C47 217 83 174 157 154 C121 128 116 124 77 97 C73 84 72 78 72 68 C72 37 91 16 136 0 C94 -26 88 -29 42 -46 C28 -82 23 -100 23 -122 C23 -211 104 -271 223 -271 C369 -271 487 -177 487 -60 C487 16 439 60 357 58 C279 56 279 56 271 56 C188 56 155 68 155 96 C155 113 166 129 192 149 C204 148 213 148 218 148 C329 148 409 216 409 308 C409 333 405 349 394 373 L499 371 Z M226 422 C288 422 326 374 326 297 C326 225 288 179 227 179 C169 179 128 233 128 312 C128 379 166 422 226 422 L226 422 Z M237 -10 C295 -10 330 -13 355 -20 C388 -29 408 -56 408 -93 C408 -176 334 -240 238 -240 C152 -240 96 -190 96 -113 C96 -65 112 -43 171 -12 L237 -10 Z M355 745 L322 728 C269 659 234 597 207 527 L212 514 C241 526 256 530 294 540 C301 605 318 653 367 736 L355 745 Z " />
<glyph glyph-name="Hcircumflex" unicode="Ĥ" horiz-adv-x="784" d="M25 -3 C109 -1 139 0 181 0 C217 0 244 0 294 -2 L294 27 C224 30 216 33 211 58 C208 75 205 163 205 265 L205 331 C293 333 326 334 401 334 C471 334 516 333 582 331 L582 290 C582 269 580 124 579 108 C578 61 575 47 568 40 C559 30 548 28 490 26 L490 -3 C536 -1 562 0 634 0 C694 0 719 -1 759 -3 L759 26 C698 27 682 32 677 50 C671 53 670 141 670 487 L670 515 C670 596 670 604 677 620 C686 635 693 637 749 638 L760 638 L760 669 C704 668 673 667 629 667 C582 667 548 668 488 670 L488 639 C498 638 507 638 511 638 C576 635 577 633 580 549 C581 397 582 387 582 375 C536 372 517 372 435 372 C316 372 261 373 204 376 L204 403 C204 565 205 606 210 620 C216 634 233 639 279 639 L292 639 L292 669 C216 667 190 666 155 666 C112 666 85 667 23 670 L23 640 L39 640 C82 638 98 634 105 624 C114 609 117 560 117 393 C117 188 116 102 113 68 C110 34 103 30 43 28 L25 27 L25 -3 Z M254 740 L283 740 L397 843 L513 740 L530 740 L420 903 L375 903 L254 740 Z " />
<glyph glyph-name="Hbar" unicode="Ħ" horiz-adv-x="784" d="M25 -3 C109 -1 139 0 181 0 C217 0 244 0 294 -2 L294 27 C224 30 216 33 211 58 C208 75 205 163 205 264 L205 331 C289 333 321 334 401 334 C474 334 518 333 582 330 L582 290 C582 269 580 124 579 108 C578 61 575 47 568 40 C559 30 548 28 490 26 L490 -3 C536 -1 562 0 634 0 C694 0 719 -1 759 -3 L759 26 C686 27 677 32 673 68 C671 92 670 200 670 463 L713 463 C715 463 727 462 743 461 L760 461 L760 465 L760 478 L760 498 L760 504 C728 501 706 500 670 500 L670 518 L670 561 L671 594 C671 603 674 614 677 619 C685 635 694 637 749 638 L760 638 L760 669 C704 668 673 667 629 667 C582 667 548 668 488 670 L488 638 C498 638 507 638 511 637 C551 636 563 633 569 623 C578 613 581 582 581 500 L402 499 L335 500 L235 501 L204 501 L204 516 C204 598 205 611 211 623 C218 634 237 639 279 639 L292 639 L292 669 C216 667 190 666 155 666 C112 666 85 667 23 670 L23 640 C30 640 37 640 39 639 C84 637 96 635 104 624 C112 615 114 589 116 501 L25 502 L25 497 L26 478 L25 464 L25 461 C54 463 71 463 100 463 L116 463 L116 435 L117 340 C117 133 116 75 111 56 C106 33 98 30 43 28 L25 27 L25 -3 Z M204 463 C309 465 325 465 370 465 L544 463 L581 463 C581 427 581 398 582 375 C536 372 518 372 435 372 C320 372 261 373 204 375 L204 463 Z " />
<glyph glyph-name="hbar" unicode="ħ" horiz-adv-x="556" d="M13 641 L30 640 C84 640 87 639 89 611 L90 571 L13 571 C15 563 15 559 15 556 C15 554 15 549 14 543 L13 538 C40 539 50 539 91 539 L91 521 L93 334 C93 62 93 52 83 39 C77 31 64 28 28 26 L14 26 L14 -2 C107 -1 141 0 148 0 C172 0 187 0 248 -2 L248 26 C175 29 175 29 174 91 L173 258 C173 316 174 323 184 338 C209 374 247 393 291 393 C330 393 362 377 377 350 C390 325 394 300 394 229 C394 171 393 132 387 -2 C419 0 436 1 462 1 C488 1 508 0 546 -1 L546 27 C474 29 474 29 474 125 C474 144 474 174 475 222 C476 243 476 264 476 277 C476 341 468 377 447 403 C421 435 375 454 322 454 C281 454 258 446 233 422 L172 363 L172 539 C213 539 224 539 287 538 L287 544 C286 549 286 553 286 555 C286 556 286 561 287 567 L287 571 L172 571 C174 657 174 669 176 697 L168 702 C132 685 70 672 13 668 L13 641 Z " />
<glyph glyph-name="Imacron" unicode="Ī" horiz-adv-x="313" d="M25 -3 C79 -1 109 0 157 0 C202 0 229 -1 290 -3 L290 26 L277 27 C237 29 222 32 216 40 C206 54 203 105 203 241 C203 467 205 606 209 620 C213 635 221 637 289 639 L289 669 C246 667 219 666 167 666 C104 666 74 667 24 669 L24 638 L43 638 C101 638 109 633 110 596 C115 469 115 469 115 402 C115 168 113 72 106 51 C101 32 91 28 41 26 L25 26 L25 -3 Z M35 799 L278 799 L278 843 L35 843 L35 799 Z " />
<glyph glyph-name="imacron" unicode="ī" horiz-adv-x="261" d="M25 388 C31 387 38 387 38 387 C86 385 89 385 93 379 C99 372 101 336 101 268 C101 135 99 63 96 47 C92 31 85 28 39 26 L25 25 L25 -2 C87 0 107 1 139 1 C173 1 193 0 255 -3 L255 26 L239 27 C202 29 191 33 187 47 C182 62 181 90 181 203 C181 311 182 367 186 448 L177 456 C135 437 97 427 25 415 L25 388 Z M16 572 L245 572 L245 616 L16 616 L16 572 Z " />
<glyph glyph-name="ibreve" unicode="ĭ" horiz-adv-x="268" d="M25 388 C31 387 38 387 38 387 C86 385 89 385 93 379 C99 371 101 336 101 268 C101 134 99 63 96 47 C92 31 85 28 39 26 L24 25 L24 -2 C86 0 107 1 138 1 C172 1 193 0 254 -3 L254 26 L239 27 C202 29 191 33 187 47 C182 62 181 90 181 203 C181 307 182 365 186 448 L177 456 C135 437 97 427 25 415 L25 388 Z M7 683 C11 588 58 534 136 534 C212 534 260 589 267 683 L242 683 C233 626 193 591 137 591 C79 591 43 622 32 683 L7 683 Z " />
<glyph glyph-name="Iogonek" unicode="Į" horiz-adv-x="313" d="M25 -3 C81 -1 107 0 154 0 L212 0 C158 -23 136 -46 136 -82 C136 -129 178 -157 246 -157 C268 -157 285 -155 313 -147 L301 -121 C284 -125 275 -126 262 -126 C219 -126 195 -108 195 -77 C195 -37 235 -5 290 -1 L290 26 L277 27 C237 29 222 32 216 40 C206 54 203 105 203 241 C203 467 205 606 209 620 C213 635 221 637 289 639 L289 669 C246 667 219 666 167 666 C104 666 74 667 24 669 L24 638 L43 638 C101 638 109 633 110 596 C115 469 115 469 115 402 C115 168 113 72 106 51 C101 32 91 28 41 26 L25 26 L25 -3 Z " />
<glyph glyph-name="iogonek" unicode="į" horiz-adv-x="268" d="M25 388 C32 387 36 387 39 387 C87 385 90 385 94 379 C100 371 102 336 102 268 C102 134 100 64 97 47 C93 31 86 28 40 26 L25 25 L25 -2 C89 0 108 1 147 1 C161 1 169 1 181 0 C129 -20 106 -43 106 -78 C106 -122 145 -149 210 -149 C232 -149 248 -147 275 -140 L263 -115 C247 -118 238 -119 226 -119 C186 -119 162 -102 162 -74 C162 -36 205 -3 255 -1 L255 26 L239 27 C203 29 192 33 188 47 C183 62 182 89 182 203 C182 310 183 367 186 448 L178 456 C135 437 97 427 25 415 L25 388 Z M139 662 C110 662 86 639 86 609 C86 581 110 557 138 557 C167 557 191 580 191 609 C191 638 167 662 139 662 L139 662 Z " />
<glyph glyph-name="Idotaccent" unicode="İ" horiz-adv-x="313" d="M25 -3 C79 -1 109 0 157 0 C202 0 229 -1 290 -3 L290 26 L277 27 C237 29 222 32 216 40 C206 54 203 105 203 241 C203 467 205 606 209 620 C213 635 221 637 289 639 L289 669 C246 667 219 666 167 666 C104 666 74 667 24 669 L24 638 L43 638 C101 638 109 633 110 596 C115 469 115 469 115 402 C115 168 113 72 106 51 C101 32 91 28 41 26 L25 26 L25 -3 Z M158 869 C130 869 108 847 108 819 C108 792 131 769 157 769 C185 769 208 791 208 819 C208 846 186 869 158 869 L158 869 Z " />
<glyph glyph-name="dotlessi" unicode="ı" horiz-adv-x="268" d="M25 388 C32 387 36 387 39 387 C87 385 90 385 94 379 C100 371 102 336 102 268 C102 134 100 64 97 47 C93 31 86 28 40 26 L25 25 L25 -2 C87 0 107 1 139 1 C173 1 193 0 255 -3 L255 26 L239 27 C203 29 192 33 188 47 C183 62 182 89 182 203 C182 310 183 367 186 448 L178 456 C135 437 97 427 25 415 L25 388 Z " />
<glyph glyph-name="IJ" unicode="Ĳ" horiz-adv-x="635" d="M25 -3 C79 -1 109 0 157 0 C202 0 229 -1 290 -3 L290 26 L277 27 C237 29 222 32 216 40 C206 54 203 105 203 241 C203 467 205 606 209 620 C213 635 221 637 289 639 L289 669 C246 667 219 666 167 666 C104 666 74 667 24 669 L24 638 L43 638 C101 638 109 633 110 596 C115 469 115 469 115 402 C115 168 113 72 106 51 C101 32 91 28 41 26 L25 26 L25 -3 Z M301 -109 C303 -138 303 -141 303 -163 L303 -185 C320 -188 328 -189 339 -189 C406 -189 489 -110 514 -23 C526 17 527 34 527 137 L527 552 C527 609 529 622 538 629 C548 636 557 637 612 638 L612 669 C548 667 524 666 478 666 C429 666 398 667 343 670 L343 640 C353 639 362 639 365 639 C416 636 427 632 432 609 C436 588 438 440 438 52 C438 -40 436 -75 428 -97 C421 -119 403 -132 379 -132 C355 -132 335 -123 314 -102 L301 -109 Z " />
<glyph glyph-name="ij" unicode="ĳ" horiz-adv-x="529" d="M25 388 C32 387 36 387 39 387 C87 385 90 385 94 379 C100 371 102 336 102 268 C102 134 100 64 97 47 C93 31 86 28 40 26 L25 25 L25 -2 C87 0 107 1 139 1 C173 1 193 0 255 -3 L255 26 L239 27 C203 29 192 33 188 47 C183 62 182 89 182 203 C182 310 183 367 186 448 L178 456 C135 437 97 427 25 415 L25 388 Z M139 662 C110 662 86 639 86 609 C86 581 110 557 138 557 C167 557 191 580 191 609 C191 638 167 662 139 662 L139 662 Z M267 -267 C273 -268 279 -268 281 -268 C304 -268 328 -261 350 -246 C399 -216 426 -167 440 -87 C449 -36 449 -36 449 217 C449 310 451 373 456 447 L447 455 C406 436 360 425 295 416 L295 390 C303 389 310 389 312 389 C358 388 361 387 365 376 C369 364 369 350 369 150 C369 -166 353 -236 281 -236 C275 -236 269 -235 256 -234 L267 -267 Z M408 662 C379 662 355 639 355 609 C355 581 379 557 407 557 C436 557 460 580 460 609 C460 638 436 662 408 662 L408 662 Z " />
<glyph glyph-name="Kcommaaccent" unicode="Ķ" horiz-adv-x="675" d="M216 316 C448 94 455 87 546 -3 C585 -1 596 0 609 0 C625 0 639 -1 675 -4 L675 28 C640 30 640 30 577 94 C554 117 513 157 400 264 C341 320 303 356 285 372 L540 605 C575 634 580 635 649 640 L649 668 C612 666 592 666 566 666 C539 666 518 666 480 668 L480 640 C487 638 490 635 490 631 C490 625 487 621 449 583 C297 432 214 350 201 338 L201 505 C201 610 202 615 210 627 C219 636 227 637 286 639 L286 670 C208 667 177 666 150 666 C114 666 83 667 23 671 L23 639 L44 638 C94 635 103 632 107 616 C111 597 113 464 113 234 C113 106 111 51 104 40 C99 31 86 28 48 26 C44 26 35 26 25 25 L25 -4 C106 -1 132 0 157 0 C164 0 207 -1 288 -3 L288 26 L273 27 C225 29 219 30 210 38 C201 49 201 53 201 229 L201 303 L216 316 Z M236 -284 C247 -278 258 -272 270 -267 C322 -198 357 -136 384 -66 L379 -53 C351 -65 336 -69 297 -79 C291 -144 273 -192 224 -275 L236 -284 Z " />
<glyph glyph-name="kcommaaccent" unicode="ķ" horiz-adv-x="544" d="M10 641 C20 640 29 640 32 640 C85 639 87 638 88 608 C90 566 91 465 91 382 C91 116 89 45 83 38 C76 30 56 26 14 25 L14 -3 C90 0 110 0 138 0 C160 0 176 0 245 -2 L245 24 C196 28 186 30 179 38 C173 39 171 95 171 233 L175 235 C220 194 250 165 294 119 C385 26 389 21 425 -10 C445 -2 455 2 481 9 C497 13 512 18 527 22 C535 24 543 26 544 27 L544 48 C528 45 521 44 513 44 C480 44 474 48 391 129 L248 272 L348 351 C431 415 433 417 491 418 L491 445 C458 443 446 443 428 443 C415 443 405 443 365 445 C363 427 357 418 323 385 C243 310 211 283 171 256 L171 519 C171 530 171 553 172 586 C173 631 173 652 173 696 L166 702 C123 684 73 673 10 668 L10 641 Z M171 -284 C182 -278 193 -272 204 -267 C257 -198 292 -136 319 -66 L314 -53 C285 -65 270 -69 232 -79 C225 -144 208 -192 159 -275 L171 -284 Z " />
<glyph glyph-name="kgreenlandic" unicode="ĸ" horiz-adv-x="554" d="M20 406 L42 405 C76 405 83 404 88 400 C97 395 99 376 99 310 C99 76 99 62 96 47 C93 31 78 27 24 25 L24 -3 C100 0 120 0 147 0 C169 0 186 0 255 -2 L255 24 C205 28 196 30 189 38 C183 39 181 95 180 233 L185 235 C230 194 260 165 304 119 C395 26 399 21 435 -10 C455 -2 465 2 491 9 L537 22 C545 24 553 26 554 27 L554 48 C538 45 531 44 523 44 C490 44 484 48 401 129 L257 272 L358 351 C441 415 443 417 501 418 L501 445 C468 443 456 443 438 443 C425 443 415 443 375 445 C373 427 367 418 333 385 C253 310 221 283 181 256 C181 290 181 291 182 351 L183 461 L176 467 C133 449 83 439 20 434 L20 406 Z " />
<glyph glyph-name="Lacute" unicode="Ĺ" horiz-adv-x="573" d="M522 171 C509 111 497 68 492 62 C478 48 408 40 296 40 C258 40 238 41 204 43 C205 98 205 208 205 374 C205 617 205 625 217 631 C226 636 237 638 294 641 L294 671 C237 667 201 665 154 665 C120 665 101 666 23 668 L23 640 C104 636 109 635 113 609 C114 596 117 485 117 422 C117 253 115 111 113 71 C111 45 108 40 75 22 C74 22 71 20 67 18 L67 -6 C111 -2 159 0 196 0 L277 0 L455 -1 C493 -1 504 0 534 4 C543 99 543 101 553 171 L522 171 Z M169 741 L295 818 C328 837 341 853 341 871 C341 888 330 900 315 900 C303 900 303 900 267 866 L138 741 L169 741 Z " />
<glyph glyph-name="lacute" unicode="ĺ" horiz-adv-x="260" d="M18 641 C81 639 86 638 89 619 C91 611 91 568 91 326 C91 123 89 45 84 37 C79 29 71 28 27 25 L17 24 L17 -3 C61 0 88 1 127 1 C169 1 197 0 244 -4 L244 24 C179 30 179 30 177 47 C174 64 172 168 172 280 C172 549 173 621 178 696 L171 702 C130 685 74 673 18 669 L18 641 Z M127 741 L253 818 C284 837 298 853 298 871 C298 888 287 900 273 900 C261 900 256 897 235 876 C231 872 228 868 225 866 L96 741 L127 741 Z " />
<glyph glyph-name="Lcommaaccent" unicode="Ļ" horiz-adv-x="573" d="M522 171 C509 111 497 68 492 62 C478 48 408 40 296 40 C258 40 238 41 204 43 C205 98 205 208 205 374 C205 617 205 625 217 631 C226 636 237 638 294 641 L294 671 C237 667 201 665 154 665 C120 665 101 666 23 668 L23 640 C104 636 109 635 113 609 C114 596 117 485 117 422 C117 253 115 111 113 71 C111 45 108 40 75 22 C74 22 71 20 67 18 L67 -6 C111 -2 159 0 196 0 L277 0 L455 -1 C493 -1 504 0 534 4 C543 99 543 101 553 171 L522 171 Z M218 -284 C229 -278 240 -272 252 -267 C304 -198 339 -136 366 -66 L361 -53 C332 -65 318 -69 279 -79 C272 -144 255 -192 206 -275 L218 -284 Z " />
<glyph glyph-name="lcommaaccent" unicode="ļ" horiz-adv-x="260" d="M18 641 C81 639 86 638 89 619 C91 611 91 568 91 326 C91 123 89 45 84 37 C79 29 71 28 27 25 L17 24 L17 -3 C61 0 88 1 127 1 C169 1 197 0 244 -4 L244 24 C179 30 179 30 177 47 C174 64 172 168 172 280 C172 549 173 621 178 696 L171 702 C130 685 74 673 18 669 L18 641 Z M29 -284 C40 -278 51 -273 63 -267 C115 -198 150 -136 177 -66 L172 -53 C144 -65 129 -69 90 -79 C84 -144 66 -192 17 -275 L29 -284 Z " />
<glyph glyph-name="Lcaron" unicode="Ľ" horiz-adv-x="573" d="M522 171 C509 111 497 68 492 62 C478 48 408 40 296 40 C258 40 238 41 204 43 C205 98 205 208 205 374 C205 617 205 625 217 631 C226 636 237 638 294 641 L294 671 C237 667 201 665 154 665 C120 665 101 666 23 668 L23 640 C104 636 109 635 113 609 C114 596 117 485 117 422 C117 253 115 111 113 71 C111 45 108 40 75 22 C74 22 71 20 67 18 L67 -6 C111 -2 159 0 196 0 L277 0 L455 -1 C493 -1 504 0 534 4 C543 99 543 101 553 171 L522 171 Z M298 451 C307 456 321 463 332 469 C384 537 419 599 446 670 L441 682 C412 671 398 666 359 657 C352 592 335 544 286 461 L298 451 Z " />
<glyph glyph-name="lcaron" unicode="ľ" horiz-adv-x="334" d="M18 638 C81 636 86 635 89 616 C91 607 91 565 91 326 C91 123 89 45 84 37 C79 29 71 28 27 25 L17 24 L17 -3 C61 0 88 1 127 1 C169 1 197 0 244 -4 L244 24 C179 30 179 30 177 47 C174 64 172 168 172 280 C172 549 173 622 178 697 L171 702 C130 684 74 670 18 666 L18 638 Z M202 474 C211 480 226 487 236 492 C288 560 324 622 350 693 L345 705 C317 694 302 689 263 680 C257 614 239 567 190 484 L202 474 Z " />
<glyph glyph-name="Ldot" unicode="Ŀ" horiz-adv-x="573" d="M522 171 C509 111 497 68 492 62 C478 48 408 40 296 40 C258 40 238 41 204 43 C205 98 205 208 205 374 C205 617 205 625 217 631 C226 636 237 638 294 641 L294 671 C237 667 201 665 154 665 C120 665 101 666 23 668 L23 640 C104 636 109 635 113 609 C114 596 117 485 117 422 C117 253 115 111 113 71 C111 45 108 40 75 22 C74 22 71 20 67 18 L67 -6 C111 -2 159 0 196 0 L277 0 L455 -1 C493 -1 504 0 534 4 C543 99 543 101 553 171 L522 171 Z M440 406 C405 406 377 378 377 343 C377 310 405 281 439 281 C474 281 502 309 502 343 C502 378 474 406 440 406 L440 406 Z " />
<glyph glyph-name="ldot" unicode="ŀ" horiz-adv-x="362" d="M18 641 C81 639 86 638 89 619 C91 611 91 568 91 326 C91 123 89 45 84 37 C79 29 71 28 27 25 L17 24 L17 -3 C61 0 88 1 127 1 C169 1 197 0 244 -4 L244 24 C179 30 179 30 177 47 C174 64 172 168 172 280 C172 549 173 621 178 696 L171 702 C130 685 74 673 18 669 L18 641 Z M308 399 C277 399 252 374 252 343 C252 313 277 288 307 288 C338 288 363 313 363 343 C363 374 338 399 308 399 L308 399 Z " />
<glyph glyph-name="Lslash" unicode="Ł" horiz-adv-x="573" d="M67 -6 C111 -2 159 0 196 0 L277 0 L455 -1 C493 -1 503 0 534 4 C542 99 543 101 553 171 L522 171 C509 111 497 68 491 62 C478 48 408 40 296 40 C258 40 238 41 204 43 L205 210 L205 328 C245 355 280 379 310 399 L296 429 C260 404 224 380 205 368 C204 589 206 625 214 629 C221 636 231 637 294 641 L294 671 C237 667 201 665 154 665 C120 665 101 666 23 668 L23 640 C88 637 101 635 107 625 C115 613 116 585 116 328 L116 315 L99 305 C76 291 56 278 39 267 C24 257 20 255 11 250 L28 221 C44 232 50 236 77 253 C98 266 101 268 116 278 C115 168 114 104 112 71 C110 43 106 39 75 22 C74 22 71 20 67 18 L67 -6 Z " />
<glyph glyph-name="lslash" unicode="ł" horiz-adv-x="260" d="M17 638 C85 636 88 635 90 607 C91 547 91 471 91 381 C78 372 65 363 0 322 L16 292 C37 306 41 309 58 320 C80 335 80 335 91 342 C90 138 90 117 87 54 C86 30 82 28 27 25 L17 24 L17 -3 C61 0 88 1 127 1 C169 1 197 0 243 -4 L243 24 C208 27 198 28 195 29 C180 32 178 35 176 51 L173 117 L172 393 C241 439 253 446 264 454 L248 484 C234 474 216 462 172 432 L172 485 L172 538 C173 613 174 643 177 697 L170 702 C130 684 74 670 17 666 L17 638 Z " />
<glyph glyph-name="Nacute" unicode="Ń" horiz-adv-x="773" d="M20 -4 C67 -1 98 0 144 0 C182 0 205 -1 239 -3 L239 28 C200 29 181 33 169 42 C152 55 150 77 149 335 C148 465 148 499 147 567 L616 -4 L641 -9 C650 -10 658 -12 667 -14 L671 -3 C668 108 668 130 668 271 C668 596 668 600 682 619 C694 634 712 639 755 641 L755 671 C697 667 673 666 648 666 C644 666 607 667 536 669 L536 638 C619 636 627 626 627 519 C627 507 628 453 630 368 L631 116 C391 400 287 528 181 669 C151 667 137 666 110 666 C76 666 54 667 20 669 L20 640 C31 639 41 638 45 638 C72 637 81 633 98 614 C109 602 111 598 111 589 C111 568 111 549 110 522 L109 340 C110 125 106 59 92 42 C83 30 61 25 20 25 L20 -4 Z M382 741 L509 818 C541 837 554 853 554 871 C554 888 543 900 529 900 C517 900 512 897 491 876 L481 866 L351 741 L382 741 Z " />
<glyph glyph-name="nacute" unicode="ń" horiz-adv-x="576" d="M23 387 C50 388 51 388 54 388 C79 388 88 386 92 381 C98 373 101 324 101 229 C101 117 100 73 97 51 C95 34 88 28 67 27 L34 24 L23 23 L23 -4 C87 -1 104 0 137 0 C151 0 158 0 260 -3 L260 24 C182 26 182 26 181 85 L180 278 C180 314 186 332 204 351 C228 377 261 391 300 391 C343 391 380 373 396 343 C409 320 412 296 412 232 C412 152 409 70 404 -3 C436 0 453 1 479 1 C501 1 520 0 562 -3 L562 24 C558 25 554 25 552 25 C515 29 513 29 505 35 C495 42 493 54 493 121 C493 135 493 165 494 200 C495 227 495 257 495 267 C495 341 485 380 459 409 C433 437 389 454 343 454 C315 454 271 444 261 434 L183 367 L183 395 C183 409 184 422 186 447 L176 454 C128 433 85 422 23 415 L23 387 Z M284 521 L411 598 C442 617 455 633 455 651 C455 667 444 680 431 680 C420 680 410 674 392 656 C389 653 386 649 382 646 L253 521 L284 521 Z " />
<glyph glyph-name="Ncommaaccent" unicode="Ņ" horiz-adv-x="773" d="M20 -4 C67 -1 98 0 144 0 C182 0 205 -1 239 -3 L239 28 C200 29 181 33 169 42 C152 55 150 77 149 335 C148 465 148 499 147 567 L616 -4 L641 -9 C650 -10 658 -12 667 -14 L671 -3 C668 108 668 130 668 271 C668 596 668 600 682 619 C694 634 712 639 755 641 L755 671 C697 667 673 666 648 666 C644 666 607 667 536 669 L536 638 C619 636 627 626 627 519 C627 507 628 453 630 368 L631 116 C391 400 287 528 181 669 C151 667 137 666 110 666 C76 666 54 667 20 669 L20 640 C31 639 41 638 45 638 C72 637 81 633 98 614 C109 602 111 598 111 589 C111 568 111 549 110 522 L109 340 C110 125 106 59 92 42 C83 30 61 25 20 25 L20 -4 Z M285 -284 L318 -267 C371 -198 406 -136 433 -66 L428 -53 C399 -65 384 -69 346 -79 C339 -144 322 -192 273 -275 L285 -284 Z " />
<glyph glyph-name="ncommaaccent" unicode="ņ" horiz-adv-x="576" d="M23 387 C50 388 51 388 54 388 C79 388 88 386 92 381 C98 373 101 324 101 229 C101 117 100 73 97 51 C95 34 88 28 67 27 L34 24 L23 23 L23 -4 C87 -1 104 0 137 0 C151 0 158 0 260 -3 L260 24 C182 26 182 26 181 85 L180 278 C180 314 186 332 204 351 C228 377 261 391 300 391 C343 391 380 373 396 343 C409 320 412 296 412 232 C412 152 409 70 404 -3 C436 0 453 1 479 1 C501 1 520 0 562 -3 L562 24 C558 25 554 25 552 25 C515 29 513 29 505 35 C495 42 493 54 493 121 C493 135 493 165 494 200 C495 227 495 257 495 267 C495 341 485 380 459 409 C433 437 389 454 343 454 C315 454 271 444 261 434 L183 367 L183 395 C183 409 184 422 186 447 L176 454 C128 433 85 422 23 415 L23 387 Z M186 -284 C197 -278 208 -272 220 -267 C272 -198 307 -136 334 -66 L329 -53 C301 -65 286 -69 247 -79 C241 -144 223 -192 174 -275 L186 -284 Z " />
<glyph glyph-name="Ncaron" unicode="Ň" horiz-adv-x="773" d="M20 -4 C67 -1 98 0 144 0 C182 0 205 -1 239 -3 L239 28 C200 29 181 33 169 42 C152 55 150 77 149 335 C148 465 148 499 147 567 L616 -4 L641 -9 C650 -10 658 -12 667 -14 L671 -3 C668 108 668 130 668 271 C668 596 668 600 682 619 C694 634 712 639 755 641 L755 671 C697 667 673 666 648 666 C644 666 607 667 536 669 L536 638 C619 636 627 626 627 519 C627 507 628 453 630 368 L631 116 C391 400 287 528 181 669 C151 667 137 666 110 666 C76 666 54 667 20 669 L20 640 C31 639 41 638 45 638 C72 637 81 633 98 614 C109 602 111 598 111 589 C111 568 111 549 110 522 L109 340 C110 125 106 59 92 42 C83 30 61 25 20 25 L20 -4 Z M524 913 L507 913 L393 810 L277 913 L248 913 L369 750 L415 750 L524 913 Z " />
<glyph glyph-name="ncaron" unicode="ň" horiz-adv-x="576" d="M23 387 C50 388 51 388 54 388 C79 388 88 386 92 381 C98 373 101 324 101 229 C101 117 100 73 97 51 C95 34 88 28 67 27 L34 24 L23 23 L23 -4 C87 -1 104 0 137 0 C151 0 158 0 260 -3 L260 24 C182 26 182 26 181 85 L180 278 C180 314 186 332 204 351 C228 377 261 391 300 391 C343 391 380 373 396 343 C409 320 412 296 412 232 C412 152 409 70 404 -3 C436 0 453 1 479 1 C501 1 520 0 562 -3 L562 24 C558 25 554 25 552 25 C515 29 513 29 505 35 C495 42 493 54 493 121 C493 135 493 165 494 200 C495 227 495 257 495 267 C495 341 485 380 459 409 C433 437 389 454 343 454 C315 454 271 444 261 434 L183 367 L183 395 C183 409 184 422 186 447 L176 454 C128 433 85 422 23 415 L23 387 Z M426 693 L408 693 L294 590 L179 693 L149 693 L271 530 L316 530 L426 693 Z " />
<glyph glyph-name="napostrophe" unicode="ŉ" horiz-adv-x="677" d="M56 446 C69 454 89 466 99 472 C147 534 183 597 220 686 L209 698 C174 687 168 685 161 683 C149 679 145 678 114 671 C110 595 91 539 42 458 L56 446 Z M125 387 C152 388 153 388 156 388 C181 388 190 386 194 381 C200 373 203 324 203 229 C203 117 202 73 199 51 C197 34 190 28 169 27 L136 24 L125 23 L125 -4 C189 -1 206 0 239 0 C253 0 260 0 362 -3 L362 24 C284 26 284 26 283 85 L282 278 C282 314 288 332 306 351 C330 377 363 391 402 391 C445 391 482 373 498 343 C511 320 514 296 514 232 C514 153 511 68 506 -3 C537 0 555 1 581 1 C603 1 622 0 664 -3 L664 24 C659 25 656 25 654 25 C616 29 615 29 607 35 C597 42 595 54 595 121 C595 135 595 165 596 200 C597 227 597 256 597 267 C597 341 587 380 561 409 C535 437 491 454 445 454 C416 454 373 444 362 434 L285 367 L285 395 C285 408 286 422 288 447 L278 454 C230 433 187 422 125 415 L125 387 Z " />
<glyph glyph-name="Eng" unicode="Ŋ" horiz-adv-x="742" d="M37 613 C53 615 59 615 69 615 C104 615 112 610 113 585 C115 555 117 426 117 332 C117 308 117 278 116 214 L116 105 C114 37 112 31 82 28 L48 26 L38 25 L38 -4 C104 -1 122 0 158 0 C176 0 197 0 284 -3 L284 26 C242 27 224 30 215 37 C205 43 205 43 205 288 L205 412 C205 495 216 535 251 569 C283 601 335 620 393 620 C439 620 485 605 512 580 C535 559 549 526 553 481 C557 437 559 301 559 86 C559 10 557 -57 555 -74 C549 -113 531 -132 500 -132 C476 -132 456 -123 435 -102 L423 -109 C425 -136 425 -144 425 -163 L425 -185 C441 -188 449 -189 460 -189 C493 -189 522 -175 558 -143 C624 -84 650 -13 650 102 C650 119 650 146 649 179 L649 283 L649 432 C649 517 638 567 612 604 C577 654 512 681 428 681 C376 681 325 669 304 651 L208 573 C207 591 207 603 207 613 C207 632 208 645 210 674 L201 681 C108 653 105 652 37 642 L37 613 Z " />
<glyph glyph-name="eng" unicode="ŋ" horiz-adv-x="576" d="M23 387 C50 388 51 388 54 388 C79 388 88 386 92 381 C98 373 101 324 101 229 C101 117 100 73 97 51 C95 34 88 28 67 27 L34 24 L23 23 L23 -4 C87 -1 104 0 137 0 C151 0 158 0 260 -3 L260 24 C182 26 182 26 181 85 L180 278 C180 314 186 332 204 351 C228 377 261 391 300 391 C344 391 381 372 396 343 C408 320 412 292 412 225 C412 162 407 -55 406 -80 C397 -198 377 -236 323 -236 C317 -236 311 -235 298 -234 L309 -267 C315 -268 321 -268 323 -268 C414 -268 486 -170 491 -39 C493 2 495 153 495 249 C495 317 491 349 480 375 C459 424 407 454 343 454 C315 454 271 444 261 434 L183 367 L183 395 C183 409 184 422 186 447 L176 454 C128 433 85 422 23 415 L23 387 Z " />
<glyph glyph-name="Omacron" unicode="Ō" horiz-adv-x="780" d="M402 681 C304 681 213 650 149 595 C83 539 43 442 43 337 C43 238 69 153 119 93 C177 22 272 -20 376 -20 C580 -20 736 142 736 354 C736 553 606 681 402 681 L402 681 Z M383 643 C537 643 636 518 636 323 C636 134 548 23 397 23 C301 23 235 63 189 150 C156 213 139 286 139 368 C139 447 160 520 195 562 C236 612 309 643 383 643 L383 643 Z M268 799 L511 799 L511 843 L268 843 L268 799 Z " />
<glyph glyph-name="omacron" unicode="ō" horiz-adv-x="518" d="M271 454 C133 454 37 358 37 222 C37 75 118 -15 249 -15 C388 -15 482 85 482 233 C482 374 406 454 271 454 L271 454 Z M252 424 C299 424 337 401 358 360 C381 318 394 256 394 196 C394 85 349 19 273 19 C221 19 179 50 155 106 C136 150 125 203 125 253 C125 361 172 424 252 424 L252 424 Z M138 572 L381 572 L381 616 L138 616 L138 572 Z " />
<glyph glyph-name="Ohungarumlaut" unicode="Ő" horiz-adv-x="780" d="M402 681 C304 681 213 650 149 595 C83 539 43 442 43 337 C43 238 69 153 119 93 C177 22 272 -20 376 -20 C580 -20 736 142 736 354 C736 553 606 681 402 681 L402 681 Z M383 643 C537 643 636 518 636 323 C636 134 548 23 397 23 C301 23 235 63 189 150 C156 213 139 286 139 368 C139 447 160 520 195 562 C236 612 309 643 383 643 L383 643 Z M326 741 L420 817 C461 849 464 853 464 871 C464 887 453 900 437 900 C423 900 416 895 394 867 L295 741 L326 741 Z M452 741 L546 817 C587 849 590 853 590 871 C590 887 579 900 563 900 C549 900 542 894 521 868 L421 741 L452 741 Z " />
<glyph glyph-name="ohungarumlaut" unicode="ő" horiz-adv-x="518" d="M271 454 C133 454 37 358 37 222 C37 75 118 -15 249 -15 C388 -15 482 85 482 233 C482 374 406 454 271 454 L271 454 Z M252 424 C299 424 337 401 358 360 C381 318 394 256 394 196 C394 85 349 19 273 19 C221 19 179 50 155 106 C136 150 125 203 125 253 C125 361 172 424 252 424 L252 424 Z M196 521 L290 597 C331 629 334 633 334 651 C334 667 323 680 307 680 C294 680 285 674 267 650 L165 521 L196 521 Z M322 521 L416 597 C457 629 460 633 460 651 C460 667 449 680 433 680 C420 680 411 674 393 650 L291 521 L322 521 Z " />
<glyph glyph-name="OE" unicode="Œ" horiz-adv-x="946" d="M882 161 C880 149 878 138 877 134 C862 45 856 40 769 40 C715 40 636 42 602 44 L602 164 L601 298 L601 321 C642 322 646 322 662 322 C746 322 783 317 794 305 C802 296 804 284 804 228 L837 228 C835 271 834 300 834 349 C834 393 835 415 838 449 L806 449 C805 441 805 434 805 432 C801 375 801 374 786 369 C772 365 718 361 674 361 L623 361 L602 361 L601 505 C601 548 602 571 604 625 C627 626 646 627 666 627 C762 627 813 621 824 607 C830 599 831 596 834 520 L866 520 C865 553 865 560 865 568 C865 608 866 629 869 656 L862 666 C853 667 848 667 846 667 L815 666 L786 666 C735 666 683 666 648 665 L602 665 C577 665 548 666 527 669 C427 680 426 680 387 680 C184 680 43 538 43 331 C43 125 176 -19 366 -19 C389 -19 428 -16 466 -11 C538 -2 563 0 601 1 C623 1 685 0 841 -2 L889 0 L903 0 C902 8 902 14 902 15 C902 48 908 125 913 161 L882 161 Z M512 606 C516 495 517 416 517 290 C517 188 516 128 513 51 C479 32 434 21 393 21 C245 21 139 162 139 358 C139 534 228 640 375 640 C426 640 466 630 512 606 L512 606 Z " />
<glyph glyph-name="oe" unicode="œ" horiz-adv-x="788" d="M728 76 C690 51 656 40 611 40 C553 40 511 63 483 110 C465 140 458 170 456 229 L637 229 C688 229 716 232 750 241 C751 256 752 271 752 281 C752 385 683 454 578 454 C516 454 472 434 421 382 C371 434 325 454 257 454 C122 454 37 362 37 216 C37 75 117 -15 242 -15 C311 -15 359 8 414 65 C455 9 504 -15 575 -15 C628 -15 673 0 718 33 L735 69 L728 76 Z M244 422 C333 422 380 348 380 208 C380 87 339 20 263 20 C179 20 122 116 122 258 C122 361 167 422 244 422 L244 422 Z M670 262 L456 262 C458 364 499 424 567 424 C632 424 670 370 670 280 L670 262 Z " />
<glyph glyph-name="Racute" unicode="Ŕ" horiz-adv-x="650" d="M237 345 C288 284 320 242 376 165 L467 39 C477 26 488 12 499 -3 C526 -1 543 0 566 0 C584 0 599 0 645 -3 L645 26 C589 30 580 36 541 90 L463 192 C399 277 382 299 356 339 C476 364 544 432 544 525 C544 584 512 633 462 653 C429 666 393 671 338 671 C329 671 312 671 288 670 C210 668 167 667 159 667 C150 667 105 668 23 670 L23 640 L37 639 C86 636 96 634 102 626 C112 612 114 576 114 355 C114 89 113 53 102 39 C97 31 93 31 36 27 L23 26 L23 -3 C105 -1 140 0 171 0 C212 0 241 -1 291 -3 L291 26 C233 30 225 30 217 36 C204 43 201 83 201 227 C201 443 202 567 204 622 C246 631 269 634 299 634 C393 634 447 587 447 505 C447 416 381 358 279 358 C267 358 258 359 241 360 L237 345 Z M254 741 L381 818 C413 837 426 853 426 871 C426 888 415 900 401 900 C389 900 384 897 363 876 L353 866 L224 741 L254 741 Z " />
<glyph glyph-name="racute" unicode="ŕ" horiz-adv-x="375" d="M18 389 L36 389 C72 389 85 387 90 381 C97 372 100 332 100 241 C100 119 98 66 94 47 C89 29 89 29 17 24 L17 -4 C93 -1 117 0 159 0 C202 0 225 -1 269 -4 L269 22 L254 23 C198 28 190 30 186 44 C181 59 178 104 178 178 C178 243 183 291 191 315 C203 347 234 369 267 369 C292 369 310 356 324 326 L345 326 C345 384 346 392 355 444 C338 451 328 453 313 453 C276 453 249 437 221 399 C215 390 206 378 195 364 C192 360 186 354 178 345 L180 446 L170 455 C139 438 74 421 18 417 L18 389 Z M184 521 L311 598 C343 617 356 633 356 651 C356 667 345 680 332 680 C319 680 313 676 282 646 L153 521 L184 521 Z " />
<glyph glyph-name="Rcommaaccent" unicode="Ŗ" horiz-adv-x="650" d="M237 345 C288 284 320 242 376 165 L467 39 C477 26 488 12 499 -3 C526 -1 543 0 566 0 C584 0 599 0 645 -3 L645 26 C589 30 580 36 541 90 L463 192 C399 277 382 299 356 339 C476 364 544 432 544 525 C544 584 512 633 462 653 C429 666 393 671 338 671 C329 671 312 671 288 670 C210 668 167 667 159 667 C150 667 105 668 23 670 L23 640 L37 639 C86 636 96 634 102 626 C112 612 114 576 114 355 C114 89 113 53 102 39 C97 31 93 31 36 27 L23 26 L23 -3 C105 -1 140 0 171 0 C212 0 241 -1 291 -3 L291 26 C233 30 225 30 217 36 C204 43 201 83 201 227 C201 443 202 567 204 622 C246 631 269 634 299 634 C393 634 447 587 447 505 C447 416 381 358 279 358 C267 358 258 359 241 360 L237 345 Z M223 -284 C234 -278 246 -272 257 -267 C309 -198 345 -136 371 -66 L366 -53 C338 -65 323 -69 284 -79 C278 -144 260 -192 211 -275 L223 -284 Z " />
<glyph glyph-name="rcommaaccent" unicode="ŗ" horiz-adv-x="375" d="M18 389 L36 389 C72 389 85 387 90 381 C97 372 100 332 100 241 C100 119 98 66 94 47 C89 29 89 29 17 24 L17 -4 C93 -1 117 0 159 0 C202 0 225 -1 269 -4 L269 22 L254 23 C198 28 190 30 186 44 C181 59 178 104 178 178 C178 243 183 291 191 315 C203 347 234 369 267 369 C292 369 310 356 324 326 L345 326 C345 384 346 392 355 444 C338 451 328 453 313 453 C276 453 249 437 221 399 C215 390 206 378 195 364 C192 360 186 354 178 345 L180 446 L170 455 C139 438 74 421 18 417 L18 389 Z M46 -284 C58 -278 69 -272 80 -267 C133 -198 168 -136 195 -66 L189 -53 C161 -65 146 -69 107 -79 C101 -144 83 -192 35 -275 L46 -284 Z " />
<glyph glyph-name="Rcaron" unicode="Ř" horiz-adv-x="650" d="M237 345 C288 284 320 242 376 165 L467 39 C477 26 488 12 499 -3 C526 -1 543 0 566 0 C584 0 599 0 645 -3 L645 26 C589 30 580 36 541 90 L463 192 C399 277 382 299 356 339 C476 364 544 432 544 525 C544 584 512 633 462 653 C429 666 393 671 338 671 C329 671 312 671 288 670 C210 668 167 667 159 667 C150 667 105 668 23 670 L23 640 L37 639 C86 636 96 634 102 626 C112 612 114 576 114 355 C114 89 113 53 102 39 C97 31 93 31 36 27 L23 26 L23 -3 C105 -1 140 0 171 0 C212 0 241 -1 291 -3 L291 26 C233 30 225 30 217 36 C204 43 201 83 201 227 C201 443 202 567 204 622 C246 631 269 634 299 634 C393 634 447 587 447 505 C447 416 381 358 279 358 C267 358 258 359 241 360 L237 345 Z M396 913 L379 913 L265 810 L149 913 L120 913 L241 750 L287 750 L396 913 Z " />
<glyph glyph-name="rcaron" unicode="ř" horiz-adv-x="375" d="M18 389 L36 389 C72 389 85 387 90 381 C97 372 100 332 100 241 C100 119 98 66 94 47 C89 29 89 29 17 24 L17 -4 C93 -1 117 0 159 0 C202 0 225 -1 269 -4 L269 22 L254 23 C198 28 190 30 186 44 C181 59 178 104 178 178 C178 243 183 291 191 315 C203 347 234 369 267 369 C292 369 310 356 324 326 L345 326 C345 384 346 392 355 444 C338 451 328 453 313 453 C276 453 249 437 221 399 C215 390 206 378 195 364 C192 360 186 354 178 345 L180 446 L170 455 C139 438 74 421 18 417 L18 389 Z M326 693 L309 693 L195 590 L79 693 L50 693 L171 530 L217 530 L326 693 Z " />
<glyph glyph-name="Sacute" unicode="Ś" horiz-adv-x="553" d="M57 200 C56 161 54 99 53 13 C123 -12 163 -20 222 -20 C300 -20 365 -1 415 37 C474 81 507 146 507 214 C507 276 482 318 429 345 C395 363 360 374 290 391 C221 408 195 418 174 439 C154 458 142 491 142 524 C142 598 192 645 271 645 C304 645 334 637 358 622 C375 611 390 596 394 587 C395 583 399 545 403 502 L430 500 C435 545 441 594 448 648 C390 670 336 681 276 681 C146 681 59 604 59 490 C59 432 80 385 118 360 C145 342 187 325 245 310 C336 287 336 287 360 273 C395 253 413 219 413 172 C413 79 349 22 245 22 C177 22 124 51 104 98 C94 121 88 153 85 200 L57 200 Z M273 741 L399 818 C430 836 444 853 444 871 C444 888 433 900 419 900 C407 900 402 897 381 876 C378 872 374 869 371 866 L242 741 L273 741 Z " />
<glyph glyph-name="sacute" unicode="ś" horiz-adv-x="401" d="M47 141 C47 67 45 32 37 10 C82 -7 124 -15 172 -15 C284 -15 365 50 365 140 C365 193 333 230 268 252 C198 276 192 278 174 287 C135 305 120 324 120 355 C120 397 154 425 206 425 C240 425 267 413 285 389 C298 372 302 355 304 319 L332 319 C333 382 335 411 338 428 C293 447 257 454 213 454 C116 454 57 404 57 323 C57 263 84 234 168 202 C236 178 237 177 251 171 C280 157 295 135 295 105 C295 54 250 16 190 16 C157 16 126 27 104 47 C84 66 78 83 76 128 L76 141 L47 141 Z M197 521 L325 598 C356 617 369 633 369 651 C369 667 358 680 345 680 C334 680 324 674 306 656 L296 646 L167 521 L197 521 Z " />
<glyph glyph-name="Scircumflex" unicode="Ŝ" horiz-adv-x="553" d="M57 200 C56 161 54 99 53 13 C123 -12 163 -20 222 -20 C300 -20 365 -1 415 37 C474 81 507 146 507 214 C507 276 482 318 429 345 C395 363 360 374 290 391 C221 408 195 418 174 439 C154 458 142 491 142 524 C142 598 192 645 271 645 C304 645 334 637 358 622 C375 611 390 596 394 587 C395 583 399 545 403 502 L430 500 C435 545 441 594 448 648 C390 670 336 681 276 681 C146 681 59 604 59 490 C59 432 80 385 118 360 C145 342 187 325 245 310 C336 287 336 287 360 273 C395 253 413 219 413 172 C413 79 349 22 245 22 C177 22 124 51 104 98 C94 121 88 153 85 200 L57 200 Z M138 740 L168 740 L281 843 L397 740 L415 740 L305 903 L260 903 L138 740 Z " />
<glyph glyph-name="scircumflex" unicode="ŝ" horiz-adv-x="401" d="M47 141 C47 67 45 32 37 10 C82 -7 124 -15 172 -15 C284 -15 365 50 365 140 C365 193 333 230 268 252 C198 276 192 278 174 287 C135 305 120 324 120 355 C120 397 154 425 206 425 C240 425 267 413 285 389 C298 372 302 355 304 319 L332 319 C333 382 335 411 338 428 C293 447 257 454 213 454 C116 454 57 404 57 323 C57 263 84 234 168 202 C236 178 237 177 251 171 C280 157 295 135 295 105 C295 54 250 16 190 16 C157 16 126 27 104 47 C84 66 78 83 76 128 L76 141 L47 141 Z M63 521 L92 521 L206 623 L322 521 L339 521 L230 683 L184 683 L63 521 Z " />
<glyph glyph-name="Scedilla" unicode="Ş" horiz-adv-x="553" d="M57 200 C56 161 54 99 53 13 C122 -12 163 -20 220 -20 L233 -20 L205 -79 L214 -85 C226 -81 232 -80 242 -80 C273 -80 291 -94 291 -118 C291 -148 266 -167 225 -167 C203 -167 182 -164 154 -157 L138 -183 C182 -193 206 -197 236 -197 C308 -197 357 -163 357 -113 C357 -75 326 -49 280 -49 C272 -49 265 -50 251 -53 L266 -18 C307 -13 334 -6 364 7 C451 46 507 126 507 214 C507 311 459 350 290 391 C221 408 195 418 174 439 C154 458 142 491 142 524 C142 598 192 645 271 645 C305 645 334 637 358 622 C375 611 390 596 394 587 C395 583 399 545 403 502 L430 500 C435 545 441 594 448 648 C390 670 336 681 276 681 C146 681 59 604 59 490 C59 432 80 385 118 360 C145 342 187 325 245 310 C336 287 336 287 360 273 C395 253 413 219 413 172 C413 79 349 22 245 22 C177 22 124 51 104 98 C94 121 88 153 85 200 L57 200 Z " />
<glyph glyph-name="scedilla" unicode="ş" horiz-adv-x="401" d="M47 140 C47 66 45 30 37 9 C78 -8 128 -17 177 -16 L148 -82 L155 -88 C167 -84 172 -83 182 -83 C210 -83 226 -97 226 -120 C226 -149 203 -167 166 -167 C145 -167 126 -164 101 -156 L87 -181 C126 -191 149 -195 176 -195 C241 -195 286 -162 286 -115 C286 -79 258 -54 216 -54 C209 -54 203 -55 189 -57 L207 -14 C300 -3 365 60 365 139 C365 192 333 229 268 251 C198 274 192 276 174 285 C135 303 120 322 120 353 C120 395 154 423 206 423 C240 423 267 411 285 388 C298 371 302 354 304 318 L332 318 C333 380 335 410 338 427 C293 446 257 454 213 454 C116 454 57 403 57 322 C57 262 84 233 168 201 C236 176 238 175 251 169 C280 156 295 134 295 104 C295 53 250 15 190 15 C157 15 126 26 104 46 C84 65 78 82 76 127 L76 140 L47 140 Z " />
<glyph glyph-name="Scaron" unicode="Š" horiz-adv-x="553" d="M57 200 C56 161 54 99 53 13 C123 -12 163 -20 222 -20 C300 -20 365 -1 415 37 C474 81 507 146 507 214 C507 276 482 318 429 345 C395 363 360 374 290 391 C221 408 195 418 174 439 C154 458 142 491 142 524 C142 598 192 645 271 645 C304 645 334 637 358 622 C375 611 390 596 394 587 C395 583 399 545 403 502 L430 500 C435 545 441 594 448 648 C390 670 336 681 276 681 C146 681 59 604 59 490 C59 432 80 385 118 360 C145 342 187 325 245 310 C336 287 336 287 360 273 C395 253 413 219 413 172 C413 79 349 22 245 22 C177 22 124 51 104 98 C94 121 88 153 85 200 L57 200 Z M415 913 L397 913 L283 810 L167 913 L138 913 L260 750 L305 750 L415 913 Z " />
<glyph glyph-name="scaron" unicode="š" horiz-adv-x="401" d="M47 141 C47 67 45 32 37 10 C82 -7 124 -15 172 -15 C284 -15 365 50 365 140 C365 193 333 230 268 252 C198 276 192 278 174 287 C135 305 120 324 120 355 C120 397 154 425 206 425 C240 425 267 413 285 389 C298 372 302 355 304 319 L332 319 C333 382 335 411 338 428 C293 447 257 454 213 454 C116 454 57 404 57 323 C57 263 84 234 168 202 C236 178 237 177 251 171 C280 157 295 135 295 105 C295 54 250 16 190 16 C157 16 126 27 104 47 C84 66 78 83 76 128 L76 141 L47 141 Z M339 693 L322 693 L208 590 L92 693 L63 693 L184 530 L230 530 L339 693 Z " />
<glyph glyph-name="Tcommaaccent" unicode="Ţ" horiz-adv-x="567" d="M145 -4 C206 0 237 1 276 1 C305 1 334 0 418 -3 L418 27 C359 30 349 32 340 37 C327 45 325 72 325 249 C325 396 326 525 328 626 L372 626 C431 625 439 625 468 621 C503 614 508 605 511 535 C512 533 512 524 513 515 L542 515 C542 550 546 616 553 673 C424 667 360 665 282 665 C209 665 147 667 15 672 C16 649 16 639 16 619 C16 604 16 582 15 516 L44 516 C45 522 46 529 46 531 C56 611 58 616 96 622 C120 625 137 626 237 626 C239 516 239 456 239 366 C239 85 237 46 222 36 C212 29 202 28 145 27 L145 -4 Z M183 -284 C194 -278 205 -272 216 -267 C269 -198 304 -136 331 -66 L326 -53 C297 -65 282 -69 244 -79 C237 -144 220 -192 171 -275 L183 -284 Z " />
<glyph glyph-name="tcommaaccent" unicode="ţ" horiz-adv-x="319" d="M20 360 C54 364 59 364 93 364 L92 136 C93 52 93 52 107 27 C121 1 155 -15 195 -15 C216 -15 229 -12 253 -3 L305 50 L300 69 C269 51 253 46 233 46 C208 46 187 60 181 81 C175 100 173 121 173 171 L172 368 C212 369 251 369 289 369 L297 417 L294 419 C261 414 235 413 172 413 C174 532 174 542 177 587 L167 596 C133 577 127 575 89 560 L92 411 L20 381 L20 360 Z M58 -284 C69 -278 80 -272 92 -267 C144 -198 179 -136 206 -66 L201 -53 C173 -65 158 -69 119 -79 C113 -144 95 -192 46 -275 L58 -284 Z " />
<glyph glyph-name="Tcaron" unicode="Ť" horiz-adv-x="567" d="M145 -4 C206 0 237 1 276 1 C305 1 334 0 418 -3 L418 27 C359 30 349 32 340 37 C327 45 325 72 325 249 C325 396 326 525 328 626 L372 626 C431 625 439 625 468 621 C503 614 508 605 511 535 C512 533 512 524 513 515 L542 515 C542 550 546 616 553 673 C424 667 360 665 282 665 C209 665 147 667 15 672 C16 649 16 639 16 619 C16 604 16 582 15 516 L44 516 C45 522 46 529 46 531 C56 611 58 616 96 622 C120 625 137 626 237 626 C239 516 239 456 239 366 C239 85 237 46 222 36 C212 29 202 28 145 27 L145 -4 Z M422 913 L405 913 L291 810 L175 913 L146 913 L267 750 L313 750 L422 913 Z " />
<glyph glyph-name="tcaron" unicode="ť" horiz-adv-x="359" d="M20 360 C54 364 59 364 93 364 L92 136 C93 52 93 52 107 27 C121 1 155 -15 195 -15 C216 -15 229 -12 253 -3 L305 50 L300 69 C269 51 253 46 233 46 C208 46 187 60 181 81 C175 100 173 121 173 171 L172 368 C212 369 251 369 289 369 L297 417 L294 419 C261 414 235 413 172 413 C174 532 174 542 177 587 L167 596 C133 577 127 575 89 560 L92 411 L20 381 L20 360 Z M228 474 C237 480 252 487 262 492 C314 560 349 622 376 693 L371 705 C343 694 328 689 289 680 C283 614 265 567 216 484 L228 474 Z " />
<glyph glyph-name="Tbar" unicode="Ŧ" horiz-adv-x="567" d="M239 383 C239 106 237 53 225 39 C218 30 207 28 145 27 L145 -4 C206 0 237 1 276 1 C304 1 334 0 418 -3 L418 27 C360 30 350 32 339 37 C326 44 325 62 325 276 L325 373 L325 396 C389 396 444 395 490 394 L490 399 L490 412 L490 425 L490 430 C448 428 426 428 326 428 C326 479 326 495 327 520 C327 591 327 592 328 626 L372 626 C431 625 439 625 468 621 C503 614 508 605 511 535 C512 533 512 524 513 515 L542 515 C542 550 546 616 553 673 C424 667 359 665 282 665 C209 665 147 667 15 672 C16 639 16 637 16 619 C16 604 16 583 15 516 L44 516 C45 522 46 529 46 531 C56 611 58 616 96 622 C120 625 137 626 237 626 C237 607 237 569 238 513 L238 428 L218 428 L151 428 C119 428 106 428 72 429 C72 425 72 425 73 412 L72 398 L72 395 C111 396 152 396 239 396 L239 383 Z " />
<glyph glyph-name="tbar" unicode="ŧ" horiz-adv-x="319" d="M20 360 C48 363 60 364 93 364 L93 304 C61 304 50 304 20 305 L20 298 C21 294 21 291 21 289 C21 288 21 284 20 276 L20 271 C46 272 56 272 93 272 L92 136 C93 52 93 52 107 27 C121 1 155 -15 196 -15 C216 -15 230 -12 254 -3 C268 10 292 35 306 50 L301 69 C270 52 254 46 233 46 C208 46 188 60 181 81 C175 100 173 125 173 170 L173 272 L191 272 L223 272 C225 272 247 272 288 271 L288 277 L288 290 L288 300 L288 305 C256 304 247 304 228 304 L188 304 L172 304 L172 368 L290 369 L298 417 L294 419 C261 414 236 413 173 412 C175 532 175 542 178 587 L167 596 C133 577 127 575 89 559 L92 410 L20 380 L20 360 Z " />
<glyph glyph-name="utilde" unicode="ũ" horiz-adv-x="550" d="M537 25 L526 26 C462 29 461 31 461 115 C461 204 465 369 468 449 L459 456 C420 437 384 428 302 418 L302 390 C321 391 335 391 338 391 C363 391 372 389 376 384 C382 376 384 344 384 265 C384 145 383 137 367 113 C338 71 303 50 258 50 C191 50 169 83 169 185 C169 267 173 388 177 447 L168 455 C128 435 79 423 13 418 L13 390 L31 390 C63 389 73 388 80 384 C87 379 88 374 88 328 C88 303 88 275 86 203 C85 180 85 152 85 140 C85 84 93 53 114 30 C136 5 173 -9 217 -9 C255 -9 294 2 310 18 L385 90 C383 48 383 41 380 -3 C411 -1 427 0 452 0 C462 0 462 0 537 -2 L537 25 Z M131 558 C143 587 161 601 186 601 C201 601 218 597 239 588 C303 562 316 558 344 558 C392 558 428 593 444 656 L419 656 C405 622 388 607 361 607 C345 607 333 611 294 628 C252 647 233 652 208 652 C158 652 122 619 106 558 L131 558 Z " />
<glyph glyph-name="Umacron" unicode="Ū" horiz-adv-x="721" d="M18 640 C64 638 78 635 89 626 C104 614 105 603 105 366 L104 208 C104 137 113 97 135 66 C173 15 253 -15 352 -15 C445 -15 520 11 564 58 C602 98 615 145 616 245 C617 334 618 404 619 455 C619 542 622 576 630 605 C640 631 654 638 709 640 L709 670 C671 667 652 666 617 666 C584 666 553 667 485 671 L485 640 C540 638 558 633 567 616 C578 596 578 596 578 340 C578 209 575 173 561 135 C538 72 477 39 384 39 C340 39 299 47 269 63 C222 87 200 120 194 174 C191 201 191 206 191 347 C191 478 193 594 196 607 C200 632 209 636 264 639 L279 640 L279 670 C225 666 194 665 157 665 C119 665 92 666 18 671 L18 640 Z M259 799 L502 799 L502 843 L259 843 L259 799 Z " />
<glyph glyph-name="umacron" unicode="ū" horiz-adv-x="550" d="M537 25 L526 26 C462 29 461 31 461 115 C461 204 465 369 468 449 L459 456 C420 437 384 428 302 418 L302 390 C321 391 335 391 338 391 C363 391 372 389 376 384 C382 376 384 344 384 265 C384 145 383 137 367 113 C338 71 303 50 258 50 C191 50 169 83 169 185 C169 267 173 388 177 447 L168 455 C128 435 79 423 13 418 L13 390 L31 390 C63 389 73 388 80 384 C87 379 88 374 88 328 C88 303 88 275 86 203 C85 180 85 152 85 140 C85 84 93 53 114 30 C136 5 173 -9 217 -9 C255 -9 294 2 310 18 L385 90 C383 48 383 41 380 -3 C411 -1 427 0 452 0 C462 0 462 0 537 -2 L537 25 Z M154 572 L396 572 L396 616 L154 616 L154 572 Z " />
<glyph glyph-name="ubreve" unicode="ŭ" horiz-adv-x="550" d="M537 25 L526 26 C462 29 461 31 461 115 C461 204 465 369 468 449 L459 456 C420 437 384 428 302 418 L302 390 C321 391 335 391 338 391 C363 391 372 389 376 384 C382 376 384 344 384 265 C384 145 383 137 367 113 C338 71 303 50 258 50 C191 50 169 83 169 185 C169 267 173 388 177 447 L168 455 C128 435 79 423 13 418 L13 390 L31 390 C63 389 73 388 80 384 C87 379 88 374 88 328 C88 303 88 275 86 203 C85 180 85 152 85 140 C85 84 93 53 114 30 C136 5 173 -9 217 -9 C255 -9 294 2 310 18 L385 90 C383 48 383 41 380 -3 C411 -1 427 0 452 0 C462 0 462 0 537 -2 L537 25 Z M145 683 C149 588 196 534 274 534 C350 534 398 589 405 683 L380 683 C371 626 330 591 275 591 C217 591 181 622 170 683 L145 683 Z " />
<glyph glyph-name="Uring" unicode="Ů" horiz-adv-x="721" d="M18 640 C64 638 78 635 89 626 C104 614 105 603 105 366 L104 208 C104 137 113 97 135 66 C173 15 253 -15 352 -15 C445 -15 520 11 564 58 C602 98 615 145 616 245 C617 334 618 404 619 455 C619 542 622 576 630 605 C640 631 654 638 709 640 L709 670 C671 667 652 666 617 666 C584 666 553 667 485 671 L485 640 C540 638 558 633 567 616 C578 596 578 596 578 340 C578 209 575 173 561 135 C538 72 477 39 384 39 C340 39 299 47 269 63 C222 87 200 120 194 174 C191 201 191 206 191 347 C191 478 193 594 196 607 C200 632 209 636 264 639 L279 640 L279 670 C225 666 194 665 157 665 C119 665 92 666 18 671 L18 640 Z M380 925 C319 925 280 888 280 831 C280 773 318 736 379 736 C442 736 480 772 480 831 C480 889 441 925 380 925 L380 925 Z M380 906 C419 906 443 877 443 831 C443 783 419 755 379 755 C341 755 317 784 317 831 C317 877 341 906 380 906 L380 906 Z " />
<glyph glyph-name="uring" unicode="ů" horiz-adv-x="550" d="M537 25 L526 26 C462 29 461 31 461 115 C461 204 465 369 468 449 L459 456 C420 437 384 428 302 418 L302 390 C321 391 335 391 338 391 C363 391 372 389 376 384 C382 376 384 344 384 265 C384 145 383 137 367 113 C338 71 303 50 258 50 C191 50 169 83 169 185 C169 267 173 388 177 447 L168 455 C128 435 79 423 13 418 L13 390 L31 390 C63 389 73 388 80 384 C87 379 88 374 88 328 C88 303 88 275 86 203 C85 180 85 152 85 140 C85 84 93 53 114 30 C136 5 173 -9 217 -9 C255 -9 294 2 310 18 L385 90 C383 48 383 41 380 -3 C411 -1 427 0 452 0 C462 0 462 0 537 -2 L537 25 Z M275 705 C214 705 175 668 175 611 C175 553 213 516 274 516 C337 516 375 552 375 611 C375 669 336 705 275 705 L275 705 Z M275 686 C314 686 338 657 338 611 C338 563 314 535 274 535 C236 535 212 564 212 611 C212 657 236 686 275 686 L275 686 Z " />
<glyph glyph-name="Uhungarumlaut" unicode="Ű" horiz-adv-x="721" d="M18 640 C64 638 78 635 89 626 C104 614 105 603 105 366 L104 208 C104 137 113 97 135 66 C173 15 253 -15 352 -15 C445 -15 520 11 564 58 C602 98 615 145 616 245 C617 334 618 404 619 455 C619 542 622 576 630 605 C640 631 654 638 709 640 L709 670 C671 667 652 666 617 666 C584 666 553 667 485 671 L485 640 C540 638 558 633 567 616 C578 596 578 596 578 340 C578 209 575 173 561 135 C538 72 477 39 384 39 C340 39 299 47 269 63 C222 87 200 120 194 174 C191 201 191 206 191 347 C191 478 193 594 196 607 C200 632 209 636 264 639 L279 640 L279 670 C225 666 194 665 157 665 C119 665 92 666 18 671 L18 640 Z M317 741 L411 817 C452 849 455 853 455 871 C455 887 444 900 428 900 C414 900 407 895 385 867 L286 741 L317 741 Z M443 741 L537 817 C578 849 581 853 581 871 C581 887 570 900 554 900 C540 900 533 895 512 868 L412 741 L443 741 Z " />
<glyph glyph-name="uhungarumlaut" unicode="ű" horiz-adv-x="550" d="M537 25 L526 26 C462 29 461 31 461 115 C461 204 465 369 468 449 L459 456 C420 437 384 428 302 418 L302 390 C321 391 335 391 338 391 C363 391 372 389 376 384 C382 376 384 344 384 265 C384 145 383 137 367 113 C338 71 303 50 258 50 C191 50 169 83 169 185 C169 267 173 388 177 447 L168 455 C128 435 79 423 13 418 L13 390 L31 390 C63 389 73 388 80 384 C87 379 88 374 88 328 C88 303 88 275 86 203 C85 180 85 152 85 140 C85 84 93 53 114 30 C136 5 173 -9 217 -9 C255 -9 294 2 310 18 L385 90 C383 48 383 41 380 -3 C411 -1 427 0 452 0 C462 0 462 0 537 -2 L537 25 Z M211 521 L305 597 C347 629 350 633 350 651 C350 667 339 680 323 680 C309 680 301 674 282 650 L181 521 L211 521 Z M337 521 L431 597 C473 629 476 633 476 651 C476 667 465 680 449 680 C435 680 427 674 408 650 L307 521 L337 521 Z " />
<glyph glyph-name="Uogonek" unicode="Ų" horiz-adv-x="721" d="M18 640 C64 638 78 635 89 626 C104 614 105 603 105 366 L104 208 C104 115 120 70 165 35 C210 1 276 -15 367 -15 C334 -34 321 -54 321 -82 C321 -129 363 -157 431 -157 C453 -157 470 -155 499 -147 L487 -121 C469 -125 460 -126 447 -126 C405 -126 380 -108 380 -78 C380 -49 403 -21 436 -10 C575 31 615 87 616 244 C617 334 618 404 619 455 C619 542 622 576 630 605 C640 632 654 638 709 640 L709 670 C671 667 652 666 617 666 C584 666 553 667 485 671 L485 640 C540 638 558 633 567 616 C578 596 578 596 578 340 C578 209 575 173 561 135 C538 72 477 39 384 39 C340 39 299 47 269 63 C222 87 200 120 194 174 C191 201 191 206 191 347 C191 478 193 594 196 607 C200 632 209 636 264 639 L279 640 L279 670 C225 666 194 665 157 665 C119 665 92 666 18 671 L18 640 Z " />
<glyph glyph-name="uogonek" unicode="ų" horiz-adv-x="550" d="M13 390 L31 390 C63 389 73 388 80 384 C87 379 88 374 88 328 C88 303 88 275 86 203 C85 180 85 152 85 140 C85 84 93 53 114 30 C136 5 173 -9 217 -9 C255 -9 294 2 310 18 L385 90 C383 48 383 41 380 -3 C412 -1 431 0 462 0 C408 -22 388 -43 388 -78 C388 -122 427 -149 492 -149 C514 -149 529 -147 556 -140 L544 -115 C528 -118 519 -119 507 -119 C468 -119 444 -102 444 -74 C444 -37 488 -2 537 -1 L537 25 L526 26 C462 29 461 31 461 115 C461 204 465 369 468 449 L459 456 C420 437 384 428 302 418 L302 390 C321 391 335 391 338 391 C363 391 372 389 376 384 C382 376 384 344 384 265 C384 145 383 137 367 113 C338 71 303 50 258 50 C191 50 169 83 169 185 C169 267 173 388 177 447 L168 455 C128 435 79 423 13 418 L13 390 Z " />
<glyph glyph-name="Wcircumflex" unicode="Ŵ" horiz-adv-x="950" d="M261 -11 C271 23 293 85 317 150 L459 528 L530 323 C542 290 556 250 573 205 C622 75 630 53 647 -11 L691 -11 C753 234 759 254 838 518 C871 625 879 636 924 639 C926 639 933 639 940 640 L940 670 C903 667 876 666 842 666 C814 666 792 667 731 669 L731 639 C793 636 808 629 808 604 C808 590 797 541 780 475 L688 127 L549 530 L521 615 C516 628 512 642 507 656 C505 663 503 670 501 676 L470 676 C466 663 441 593 394 464 L269 134 L184 544 C182 556 180 564 179 568 C172 599 171 607 171 615 C171 634 185 638 253 640 L253 669 C190 666 167 665 125 665 C83 665 54 666 10 670 L10 639 L23 639 C61 636 70 632 75 618 C82 598 85 585 95 542 L182 165 C200 82 213 23 219 -11 L261 -11 Z M337 740 L366 740 L480 843 L596 740 L613 740 L504 903 L458 903 L337 740 Z " />
<glyph glyph-name="Ycircumflex" unicode="Ŷ" horiz-adv-x="623" d="M535 670 C479 566 452 517 435 488 C377 383 360 354 347 324 C212 580 170 647 125 677 C106 672 63 663 5 653 L5 626 C69 629 108 583 250 333 C261 312 273 291 275 288 C282 277 282 276 282 263 C282 259 282 245 283 225 L283 199 C283 107 281 67 276 51 C271 32 264 30 200 27 L187 26 L187 -4 C267 -1 315 0 361 0 C398 0 419 0 459 -2 L459 27 C418 29 386 34 380 40 C372 49 369 100 369 234 C369 288 375 304 434 404 C488 496 565 611 603 657 L603 670 L535 670 Z M180 740 L209 740 L323 843 L439 740 L456 740 L347 903 L302 903 L180 740 Z " />
<glyph glyph-name="ycircumflex" unicode="ŷ" horiz-adv-x="484" d="M22 -174 C14 -210 13 -216 2 -254 C35 -268 52 -272 73 -272 C106 -272 143 -250 164 -216 C182 -189 203 -145 233 -75 L370 254 C433 400 441 411 491 415 L491 442 C456 440 435 439 408 439 C385 439 366 439 313 441 L313 415 L324 414 C361 411 373 404 373 384 C373 370 358 323 337 269 L262 77 L192 254 C178 294 168 320 163 334 C147 378 147 378 147 389 C147 401 152 408 165 411 C172 412 172 412 216 416 L216 443 C142 440 114 439 89 439 C54 439 33 440 -7 443 L-7 414 C46 410 49 407 88 308 L223 -28 C177 -135 177 -135 162 -164 C144 -195 123 -209 95 -209 C70 -209 51 -198 36 -174 L22 -174 Z M110 521 L140 521 L253 623 L369 521 L387 521 L277 683 L232 683 L110 521 Z " />
<glyph glyph-name="Ydieresis" unicode="Ÿ" horiz-adv-x="623" d="M535 670 C479 566 452 517 435 488 C377 383 360 354 347 324 C212 580 170 647 125 677 C106 672 63 663 5 653 L5 626 C69 629 108 583 250 333 C261 312 273 291 275 288 C282 277 282 276 282 263 C282 259 282 245 283 225 L283 199 C283 107 281 67 276 51 C271 32 264 30 200 27 L187 26 L187 -4 C267 -1 315 0 361 0 C398 0 419 0 459 -2 L459 27 C418 29 386 34 380 40 C372 49 369 100 369 234 C369 288 375 304 434 404 C488 496 565 611 603 657 L603 670 L535 670 Z M221 869 C194 869 172 847 172 820 C172 793 194 771 220 771 C248 771 270 793 270 820 C270 847 248 869 221 869 L221 869 Z M415 869 C388 869 366 847 366 820 C366 793 388 771 414 771 C442 771 464 793 464 820 C464 847 442 869 415 869 L415 869 Z " />
<glyph glyph-name="Zacute" unicode="Ź" horiz-adv-x="626" d="M556 168 C555 157 554 147 554 144 C545 61 537 50 486 44 C453 42 429 42 147 42 C392 384 517 552 592 642 L592 668 C550 666 535 666 478 666 C386 666 355 666 242 669 C194 670 163 671 137 671 C123 671 114 671 80 670 C81 641 82 619 82 575 C82 549 82 539 81 512 L112 512 C113 523 113 533 113 536 C117 595 122 610 143 616 C164 622 243 626 356 626 C389 626 406 626 464 625 C179 225 95 111 20 24 L20 -2 C107 -1 156 0 204 0 C258 0 316 -1 412 -2 C458 -3 490 -3 514 -3 C537 -3 552 -3 583 -2 C582 9 582 20 582 24 C582 71 585 121 592 168 L556 168 Z M322 741 L449 818 C481 837 494 853 494 871 C494 888 483 900 469 900 C457 900 452 897 431 876 L421 866 L292 741 L322 741 Z " />
<glyph glyph-name="zacute" unicode="ź" horiz-adv-x="456" d="M409 135 C399 75 392 56 375 47 C358 37 296 32 197 32 C178 32 162 32 130 33 C177 96 225 159 272 223 C322 288 370 348 427 417 L427 443 C393 440 367 439 309 439 C290 439 207 440 59 443 C61 428 61 421 61 409 C61 386 60 369 56 315 L82 315 C90 377 98 395 121 401 C124 404 188 406 319 408 C285 364 258 328 185 230 C109 129 72 83 13 18 L17 0 L37 0 L116 0 L217 0 C253 0 287 -1 319 -2 L380 -3 C400 -3 407 -2 425 1 C426 52 428 82 436 135 L409 135 Z M224 521 L351 598 C383 618 396 633 396 651 C396 667 385 680 372 680 C361 680 351 674 333 656 C329 652 326 649 322 646 L193 521 L224 521 Z " />
<glyph glyph-name="Zdotaccent" unicode="Ż" horiz-adv-x="626" d="M556 168 C555 157 554 147 554 144 C545 61 537 50 486 44 C453 42 429 42 147 42 C392 384 517 552 592 642 L592 668 C550 666 535 666 478 666 C386 666 355 666 242 669 C194 670 163 671 137 671 C123 671 114 671 80 670 C81 641 82 619 82 575 C82 549 82 539 81 512 L112 512 C113 523 113 533 113 536 C117 595 122 610 143 616 C164 622 243 626 356 626 C389 626 406 626 464 625 C179 225 95 111 20 24 L20 -2 C107 -1 156 0 204 0 C258 0 316 -1 412 -2 C458 -3 490 -3 514 -3 C537 -3 552 -3 583 -2 C582 9 582 20 582 24 C582 71 585 121 592 168 L556 168 Z M327 869 C299 869 277 847 277 819 C277 792 300 769 326 769 C354 769 377 791 377 819 C377 846 355 869 327 869 L327 869 Z " />
<glyph glyph-name="zdotaccent" unicode="ż" horiz-adv-x="456" d="M409 135 C399 75 392 56 375 47 C358 37 296 32 197 32 C178 32 162 32 130 33 C177 96 225 159 272 223 C322 288 370 348 427 417 L427 443 C393 440 367 439 309 439 C290 439 207 440 59 443 C61 428 61 421 61 409 C61 386 60 369 56 315 L82 315 C90 377 98 395 121 401 C124 404 188 406 319 408 C285 364 258 328 185 230 C109 129 72 83 13 18 L17 0 L37 0 L116 0 L217 0 C253 0 287 -1 319 -2 L380 -3 C400 -3 407 -2 425 1 C426 52 428 82 436 135 L409 135 Z M249 649 C221 649 199 627 199 599 C199 572 222 549 248 549 C276 549 299 571 299 599 C299 626 277 649 249 649 L249 649 Z " />
<glyph glyph-name="Zcaron" unicode="Ž" horiz-adv-x="626" d="M556 168 C555 157 554 147 554 144 C545 61 537 50 486 44 C453 42 429 42 147 42 C392 384 517 552 592 642 L592 668 C550 666 535 666 478 666 C386 666 355 666 242 669 C194 670 163 671 137 671 C123 671 114 671 80 670 C81 641 82 619 82 575 C82 549 82 539 81 512 L112 512 C113 523 113 533 113 536 C117 595 122 610 143 616 C164 622 243 626 356 626 C389 626 406 626 464 625 C179 225 95 111 20 24 L20 -2 C107 -1 156 0 204 0 C258 0 316 -1 412 -2 C458 -3 490 -3 514 -3 C537 -3 552 -3 583 -2 C582 9 582 20 582 24 C582 71 585 121 592 168 L556 168 Z M464 913 L447 913 L333 810 L217 913 L188 913 L309 750 L355 750 L464 913 Z " />
<glyph glyph-name="zcaron" unicode="ž" horiz-adv-x="456" d="M409 135 C399 75 392 56 375 47 C358 37 296 32 197 32 C178 32 162 32 130 33 C177 96 225 159 272 223 C322 288 370 348 427 417 L427 443 C393 440 367 439 309 439 C290 439 207 440 59 443 C61 428 61 421 61 409 C61 386 60 369 56 315 L82 315 C90 377 98 395 121 401 C124 404 188 406 319 408 C285 364 258 328 185 230 C109 129 72 83 13 18 L17 0 L37 0 L116 0 L217 0 C253 0 287 -1 319 -2 L380 -3 C400 -3 407 -2 425 1 C426 52 428 82 436 135 L409 135 Z M386 693 L368 693 L255 590 L139 693 L110 693 L231 530 L276 530 L386 693 Z " />
<glyph glyph-name="florin" unicode="ƒ" horiz-adv-x="509" d="M77 386 C74 369 74 366 72 348 L204 348 L149 43 C128 -80 110 -113 65 -113 C42 -113 24 -102 11 -82 L-1 -86 C-15 -122 -17 -128 -28 -165 C-13 -174 4 -179 18 -179 C38 -179 60 -170 84 -153 C150 -105 202 -20 238 102 C250 145 250 145 292 348 L427 348 C433 366 433 368 434 386 L298 386 L320 505 C335 583 356 617 390 617 C415 617 435 602 459 563 L472 563 C491 608 493 615 509 659 C483 670 465 674 442 674 C388 674 326 638 272 574 C242 538 226 490 210 386 L77 386 Z " />
<glyph glyph-name="uni01CD" unicode="Ǎ" horiz-adv-x="714" d="M348 675 L124 144 C101 88 78 43 72 41 C62 32 50 29 10 28 L10 -3 C66 -1 85 0 116 0 C149 0 165 0 230 -4 L230 29 L213 30 C159 33 148 37 148 55 C148 64 151 75 159 93 L212 223 C254 224 316 224 382 224 C434 224 443 224 474 223 L528 86 C538 62 539 58 539 49 C539 32 525 29 457 28 L457 -4 C535 -1 561 0 582 0 C605 0 629 -1 704 -4 L704 28 C648 31 646 33 613 111 L375 675 L348 675 Z M341 548 L458 262 C437 261 396 261 326 261 C257 261 255 261 228 262 L341 548 Z M495 913 L478 913 L364 810 L248 913 L219 913 L340 750 L386 750 L495 913 Z " />
<glyph glyph-name="uni01CE" unicode="ǎ" horiz-adv-x="468" d="M98 318 L124 383 C152 398 171 403 199 403 C240 403 273 387 291 357 C302 338 307 317 308 277 C285 272 285 272 247 265 C154 245 149 244 117 232 C67 212 37 165 37 104 C37 30 81 -15 152 -15 C177 -15 199 -8 219 5 C232 14 250 29 311 77 L309 -4 C350 0 366 1 381 1 C397 1 408 0 452 -3 L452 27 C391 30 391 30 391 79 L387 285 C386 348 379 379 358 404 C332 435 285 454 234 454 C196 454 172 447 133 425 L82 395 L72 390 L72 324 L98 318 Z M310 124 C278 72 235 44 190 44 C148 44 120 75 120 122 C120 154 133 183 155 199 C176 215 184 217 280 243 C284 244 296 248 309 251 L310 124 Z M373 693 L355 693 L241 590 L126 693 L96 693 L218 530 L263 530 L373 693 Z " />
<glyph glyph-name="uni01D3" unicode="Ǔ" horiz-adv-x="721" d="M18 640 C64 638 78 635 89 626 C104 614 105 603 105 366 L104 208 C104 137 113 97 135 66 C173 15 253 -15 352 -15 C445 -15 520 11 564 58 C602 98 615 145 616 245 C617 334 618 404 619 455 C619 542 622 576 630 605 C640 631 654 638 709 640 L709 670 C671 667 652 666 617 666 C584 666 553 667 485 671 L485 640 C540 638 558 633 567 616 C578 596 578 596 578 340 C578 209 575 173 561 135 C538 72 477 39 384 39 C340 39 299 47 269 63 C222 87 200 120 194 174 C191 201 191 206 191 347 C191 478 193 594 196 607 C200 632 209 636 264 639 L279 640 L279 670 C225 666 194 665 157 665 C119 665 92 666 18 671 L18 640 Z M518 913 L501 913 L387 810 L271 913 L242 913 L363 750 L409 750 L518 913 Z " />
<glyph glyph-name="uni01D4" unicode="ǔ" horiz-adv-x="550" d="M537 25 L526 26 C462 29 461 31 461 115 C461 204 465 369 468 449 L459 456 C420 437 384 428 302 418 L302 390 C321 391 335 391 338 391 C363 391 372 389 376 384 C382 376 384 344 384 265 C384 145 383 137 367 113 C338 71 303 50 258 50 C191 50 169 83 169 185 C169 267 173 388 177 447 L168 455 C128 435 79 423 13 418 L13 390 L31 390 C63 389 73 388 80 384 C87 379 88 374 88 328 C88 303 88 275 86 203 C85 180 85 152 85 140 C85 84 93 53 114 30 C136 5 173 -9 217 -9 C255 -9 294 2 310 18 L385 90 C383 48 383 41 380 -3 C411 -1 427 0 452 0 C462 0 462 0 537 -2 L537 25 Z M413 693 L396 693 L282 590 L166 693 L137 693 L258 530 L304 530 L413 693 Z " />
<glyph glyph-name="Gcaron" unicode="Ǧ" horiz-adv-x="766" d="M486 232 L550 226 C584 224 592 222 594 213 C595 207 596 167 596 130 C596 82 594 64 589 57 C577 41 488 22 428 22 C265 22 144 161 144 349 C144 526 256 642 427 642 C500 642 583 617 621 583 C636 571 637 564 637 516 C637 512 637 503 638 493 L666 493 C671 560 674 581 686 633 C610 665 526 681 432 681 C306 681 208 647 140 579 C78 517 43 426 43 326 C43 118 188 -20 408 -20 C496 -20 589 -1 686 36 C682 75 680 107 680 141 C680 212 682 219 711 234 L719 238 L716 262 C690 259 675 258 641 258 C590 258 548 260 486 264 L486 232 Z M567 913 L550 913 L436 810 L320 913 L291 913 L412 750 L458 750 L567 913 Z " />
<glyph glyph-name="gcaron" unicode="ǧ" horiz-adv-x="495" d="M499 371 C503 394 503 398 508 421 C475 418 437 417 398 417 C392 417 379 417 364 418 C331 443 296 454 250 454 C136 454 47 381 47 287 C47 217 83 174 157 154 C121 128 116 124 77 97 C73 84 72 78 72 68 C72 37 91 16 136 0 C94 -26 88 -29 42 -46 C28 -82 23 -100 23 -122 C23 -211 104 -271 223 -271 C369 -271 487 -177 487 -60 C487 16 439 60 357 58 C279 56 279 56 271 56 C188 56 155 68 155 96 C155 113 166 129 192 149 C204 148 213 148 218 148 C329 148 409 216 409 308 C409 333 405 349 394 373 L499 371 Z M226 422 C288 422 326 374 326 297 C326 225 288 179 227 179 C169 179 128 233 128 312 C128 379 166 422 226 422 L226 422 Z M237 -10 C295 -10 330 -13 355 -20 C388 -29 408 -56 408 -93 C408 -176 334 -240 238 -240 C152 -240 96 -190 96 -113 C96 -65 112 -43 171 -12 L237 -10 Z M385 693 L368 693 L254 590 L138 693 L109 693 L230 530 L276 530 L385 693 Z " />
<glyph glyph-name="uni01F4" unicode="Ǵ" horiz-adv-x="766" d="M486 232 L550 226 C584 224 592 222 594 213 C595 207 596 167 596 130 C596 82 594 64 589 57 C577 41 488 22 428 22 C265 22 144 161 144 349 C144 526 256 642 427 642 C500 642 583 617 621 583 C636 571 637 564 637 516 C637 512 637 503 638 493 L666 493 C671 560 674 581 686 633 C610 665 526 681 432 681 C306 681 208 647 140 579 C78 517 43 426 43 326 C43 118 188 -20 408 -20 C496 -20 589 -1 686 36 C682 75 680 107 680 141 C680 212 682 219 711 234 L719 238 L716 262 C690 259 675 258 641 258 C590 258 548 260 486 264 L486 232 Z M425 741 L552 818 C583 837 597 853 597 871 C597 888 586 900 572 900 C560 900 556 897 534 876 L524 866 L395 741 L425 741 Z " />
<glyph glyph-name="Scommaaccent" unicode="Ș" horiz-adv-x="553" d="M57 200 C56 161 54 99 53 13 C123 -12 163 -20 222 -20 C300 -20 365 -1 415 37 C474 81 507 146 507 214 C507 276 482 318 429 345 C395 363 360 374 290 391 C221 408 195 418 174 439 C154 458 142 491 142 524 C142 598 192 645 271 645 C304 645 334 637 358 622 C375 611 390 596 394 587 C395 583 399 545 403 502 L430 500 C435 545 441 594 448 648 C390 670 336 681 276 681 C146 681 59 604 59 490 C59 432 80 385 118 360 C145 342 187 325 245 310 C336 287 336 287 360 273 C395 253 413 219 413 172 C413 79 349 22 245 22 C177 22 124 51 104 98 C94 121 88 153 85 200 L57 200 Z M155 -284 C166 -278 177 -272 189 -267 C241 -198 276 -136 303 -66 L298 -53 C270 -65 255 -69 216 -79 C210 -144 192 -192 143 -275 L155 -284 Z " />
<glyph glyph-name="scommaaccent" unicode="ș" horiz-adv-x="401" d="M47 141 C47 67 45 32 37 10 C82 -7 124 -15 172 -15 C284 -15 365 50 365 140 C365 193 333 230 268 252 C198 276 192 278 174 287 C135 305 120 324 120 355 C120 397 154 425 206 425 C240 425 267 413 285 389 C298 372 302 355 304 319 L332 319 C333 382 335 411 338 428 C293 447 257 454 213 454 C116 454 57 404 57 323 C57 263 84 234 168 202 C236 178 237 177 251 171 C280 157 295 135 295 105 C295 54 250 16 190 16 C157 16 126 27 104 47 C84 66 78 83 76 128 L76 141 L47 141 Z M100 -284 C111 -278 122 -272 133 -267 C186 -198 221 -136 248 -66 L243 -53 C214 -65 199 -69 161 -79 C154 -144 137 -192 88 -275 L100 -284 Z " />
<glyph glyph-name="afii57929" unicode="ʼ" horiz-adv-x="261" d="M56 446 C69 454 89 466 99 472 C147 534 183 597 220 686 L209 698 C174 687 168 685 161 683 C149 679 145 678 114 671 C110 595 91 539 42 458 L56 446 Z " />
<glyph glyph-name="circumflex" unicode="ˆ" horiz-adv-x="500" d="M112 521 L141 521 L255 623 L371 521 L388 521 L279 683 L233 683 L112 521 Z " />
<glyph glyph-name="caron" unicode="ˇ" horiz-adv-x="500" d="M388 693 L371 693 L257 590 L141 693 L112 693 L233 530 L279 530 L388 693 Z " />
<glyph glyph-name="uni02C9" unicode="ˉ" horiz-adv-x="500" d="M129 572 L372 572 L372 616 L129 616 L129 572 Z " />
<glyph glyph-name="breve" unicode="˘" horiz-adv-x="500" d="M120 683 C124 588 171 534 249 534 C325 534 373 589 380 683 L355 683 C346 626 306 591 250 591 C192 591 156 622 145 683 L120 683 Z " />
<glyph glyph-name="dotaccent" unicode="˙" horiz-adv-x="500" d="M251 649 C223 649 201 627 201 599 C201 572 224 549 250 549 C278 549 301 571 301 599 C301 626 279 649 251 649 L251 649 Z " />
<glyph glyph-name="ring" unicode="˚" horiz-adv-x="500" d="M250 705 C189 705 150 668 150 611 C150 553 188 516 249 516 C312 516 350 552 350 611 C350 669 311 705 250 705 L250 705 Z M250 686 C289 686 313 657 313 611 C313 563 289 535 249 535 C211 535 187 564 187 611 C187 657 211 686 250 686 L250 686 Z " />
<glyph glyph-name="ogonek" unicode="˛" horiz-adv-x="500" d="M398 0 C346 -20 324 -43 324 -78 C324 -122 363 -149 428 -149 C450 -149 465 -147 493 -140 L481 -115 C464 -118 456 -119 443 -119 C404 -119 380 -102 380 -74 C380 -40 410 -14 463 0 L398 0 Z " />
<glyph glyph-name="tilde" unicode="˜" horiz-adv-x="500" d="M106 558 C118 587 136 601 162 601 C176 601 193 597 214 588 C278 562 292 558 319 558 C368 558 403 593 419 656 L395 656 C381 622 363 607 337 607 C321 607 308 611 270 628 C227 647 209 652 183 652 C134 652 98 619 81 558 L106 558 Z " />
<glyph glyph-name="hungarumlaut" unicode="˝" horiz-adv-x="500" d="M187 521 L281 597 C322 629 325 633 325 651 C325 667 314 680 298 680 C284 680 276 674 257 650 L156 521 L187 521 Z M313 521 L407 597 C448 629 451 633 451 651 C451 667 440 680 424 680 C410 680 402 674 383 650 L282 521 L313 521 Z " />
<glyph glyph-name="tonos" unicode="΄" horiz-adv-x="226" d="M136 499 L153 610 C155 619 156 625 156 628 C158 641 160 655 160 660 C160 690 142 710 114 710 C85 710 67 690 67 660 C67 653 68 649 73 610 L90 499 L136 499 Z " />
<glyph glyph-name="dieresistonos" unicode="΅" horiz-adv-x="500" d="M113 649 C86 649 64 627 64 600 C64 573 86 551 112 551 C140 551 162 573 162 600 C162 627 140 649 113 649 L113 649 Z M387 649 C360 649 338 627 338 600 C338 573 360 551 386 551 C414 551 436 573 436 600 C436 627 414 649 387 649 L387 649 Z M273 499 L290 610 C292 619 293 625 293 628 C295 641 297 655 297 660 C297 690 279 710 251 710 C222 710 204 690 204 660 C204 654 205 650 210 610 L227 499 L273 499 Z " />
</font>
</svg>
